G04 #@! TF.GenerationSoftware,KiCad,Pcbnew,(5.1.5)-3*
G04 #@! TF.CreationDate,2020-11-12T13:32:49+01:00*
G04 #@! TF.ProjectId,ESP8266_RGBA_Receiver,45535038-3236-4365-9f52-4742415f5265,rev?*
G04 #@! TF.SameCoordinates,Original*
G04 #@! TF.FileFunction,Soldermask,Bot*
G04 #@! TF.FilePolarity,Negative*
%FSLAX46Y46*%
G04 Gerber Fmt 4.6, Leading zero omitted, Abs format (unit mm)*
G04 Created by KiCad (PCBNEW (5.1.5)-3) date 2020-11-12 13:32:49*
%MOMM*%
%LPD*%
G04 APERTURE LIST*
%ADD10C,0.100000*%
G04 APERTURE END LIST*
D10*
G36*
X94678210Y-73958489D02*
G01*
X94764950Y-73984802D01*
X94844889Y-74027530D01*
X94914962Y-74085038D01*
X94972470Y-74155111D01*
X95015198Y-74235050D01*
X95041511Y-74321790D01*
X95051000Y-74418140D01*
X95051000Y-77581860D01*
X95041511Y-77678210D01*
X95015198Y-77764950D01*
X94972470Y-77844889D01*
X94914962Y-77914962D01*
X94844889Y-77972470D01*
X94764950Y-78015198D01*
X94678210Y-78041511D01*
X94581860Y-78051000D01*
X93418140Y-78051000D01*
X93321790Y-78041511D01*
X93235050Y-78015198D01*
X93155111Y-77972470D01*
X93085038Y-77914962D01*
X93027530Y-77844889D01*
X92984802Y-77764950D01*
X92958489Y-77678210D01*
X92949000Y-77581860D01*
X92949000Y-74418140D01*
X92958489Y-74321790D01*
X92984802Y-74235050D01*
X93027530Y-74155111D01*
X93085038Y-74085038D01*
X93155111Y-74027530D01*
X93235050Y-73984802D01*
X93321790Y-73958489D01*
X93418140Y-73949000D01*
X94581860Y-73949000D01*
X94678210Y-73958489D01*
G37*
G36*
X91678210Y-73958489D02*
G01*
X91764950Y-73984802D01*
X91844889Y-74027530D01*
X91914962Y-74085038D01*
X91972470Y-74155111D01*
X92015198Y-74235050D01*
X92041511Y-74321790D01*
X92051000Y-74418140D01*
X92051000Y-77581860D01*
X92041511Y-77678210D01*
X92015198Y-77764950D01*
X91972470Y-77844889D01*
X91914962Y-77914962D01*
X91844889Y-77972470D01*
X91764950Y-78015198D01*
X91678210Y-78041511D01*
X91581860Y-78051000D01*
X90418140Y-78051000D01*
X90321790Y-78041511D01*
X90235050Y-78015198D01*
X90155111Y-77972470D01*
X90085038Y-77914962D01*
X90027530Y-77844889D01*
X89984802Y-77764950D01*
X89958489Y-77678210D01*
X89949000Y-77581860D01*
X89949000Y-74418140D01*
X89958489Y-74321790D01*
X89984802Y-74235050D01*
X90027530Y-74155111D01*
X90085038Y-74085038D01*
X90155111Y-74027530D01*
X90235050Y-73984802D01*
X90321790Y-73958489D01*
X90418140Y-73949000D01*
X91581860Y-73949000D01*
X91678210Y-73958489D01*
G37*
G36*
X100678210Y-73958489D02*
G01*
X100764950Y-73984802D01*
X100844889Y-74027530D01*
X100914962Y-74085038D01*
X100972470Y-74155111D01*
X101015198Y-74235050D01*
X101041511Y-74321790D01*
X101051000Y-74418140D01*
X101051000Y-77581860D01*
X101041511Y-77678210D01*
X101015198Y-77764950D01*
X100972470Y-77844889D01*
X100914962Y-77914962D01*
X100844889Y-77972470D01*
X100764950Y-78015198D01*
X100678210Y-78041511D01*
X100581860Y-78051000D01*
X99418140Y-78051000D01*
X99321790Y-78041511D01*
X99235050Y-78015198D01*
X99155111Y-77972470D01*
X99085038Y-77914962D01*
X99027530Y-77844889D01*
X98984802Y-77764950D01*
X98958489Y-77678210D01*
X98949000Y-77581860D01*
X98949000Y-74418140D01*
X98958489Y-74321790D01*
X98984802Y-74235050D01*
X99027530Y-74155111D01*
X99085038Y-74085038D01*
X99155111Y-74027530D01*
X99235050Y-73984802D01*
X99321790Y-73958489D01*
X99418140Y-73949000D01*
X100581860Y-73949000D01*
X100678210Y-73958489D01*
G37*
G36*
X97678210Y-73958489D02*
G01*
X97764950Y-73984802D01*
X97844889Y-74027530D01*
X97914962Y-74085038D01*
X97972470Y-74155111D01*
X98015198Y-74235050D01*
X98041511Y-74321790D01*
X98051000Y-74418140D01*
X98051000Y-77581860D01*
X98041511Y-77678210D01*
X98015198Y-77764950D01*
X97972470Y-77844889D01*
X97914962Y-77914962D01*
X97844889Y-77972470D01*
X97764950Y-78015198D01*
X97678210Y-78041511D01*
X97581860Y-78051000D01*
X96418140Y-78051000D01*
X96321790Y-78041511D01*
X96235050Y-78015198D01*
X96155111Y-77972470D01*
X96085038Y-77914962D01*
X96027530Y-77844889D01*
X95984802Y-77764950D01*
X95958489Y-77678210D01*
X95949000Y-77581860D01*
X95949000Y-74418140D01*
X95958489Y-74321790D01*
X95984802Y-74235050D01*
X96027530Y-74155111D01*
X96085038Y-74085038D01*
X96155111Y-74027530D01*
X96235050Y-73984802D01*
X96321790Y-73958489D01*
X96418140Y-73949000D01*
X97581860Y-73949000D01*
X97678210Y-73958489D01*
G37*
G36*
X80600318Y-74845153D02*
G01*
X80818885Y-74935687D01*
X80818887Y-74935688D01*
X81015593Y-75067122D01*
X81182878Y-75234407D01*
X81314312Y-75431113D01*
X81314313Y-75431115D01*
X81404847Y-75649682D01*
X81451000Y-75881710D01*
X81451000Y-76118290D01*
X81404847Y-76350318D01*
X81314313Y-76568885D01*
X81314312Y-76568887D01*
X81182878Y-76765593D01*
X81015593Y-76932878D01*
X80818887Y-77064312D01*
X80818886Y-77064313D01*
X80818885Y-77064313D01*
X80600318Y-77154847D01*
X80368290Y-77201000D01*
X80131710Y-77201000D01*
X79899682Y-77154847D01*
X79681115Y-77064313D01*
X79681114Y-77064313D01*
X79681113Y-77064312D01*
X79484407Y-76932878D01*
X79317122Y-76765593D01*
X79185688Y-76568887D01*
X79185687Y-76568885D01*
X79095153Y-76350318D01*
X79049000Y-76118290D01*
X79049000Y-75881710D01*
X79095153Y-75649682D01*
X79185687Y-75431115D01*
X79185688Y-75431113D01*
X79317122Y-75234407D01*
X79484407Y-75067122D01*
X79681113Y-74935688D01*
X79681115Y-74935687D01*
X79899682Y-74845153D01*
X80131710Y-74799000D01*
X80368290Y-74799000D01*
X80600318Y-74845153D01*
G37*
G36*
X83800318Y-74845153D02*
G01*
X84018885Y-74935687D01*
X84018887Y-74935688D01*
X84215593Y-75067122D01*
X84382878Y-75234407D01*
X84514312Y-75431113D01*
X84514313Y-75431115D01*
X84604847Y-75649682D01*
X84651000Y-75881710D01*
X84651000Y-76118290D01*
X84604847Y-76350318D01*
X84514313Y-76568885D01*
X84514312Y-76568887D01*
X84382878Y-76765593D01*
X84215593Y-76932878D01*
X84018887Y-77064312D01*
X84018886Y-77064313D01*
X84018885Y-77064313D01*
X83800318Y-77154847D01*
X83568290Y-77201000D01*
X83331710Y-77201000D01*
X83099682Y-77154847D01*
X82881115Y-77064313D01*
X82881114Y-77064313D01*
X82881113Y-77064312D01*
X82684407Y-76932878D01*
X82517122Y-76765593D01*
X82385688Y-76568887D01*
X82385687Y-76568885D01*
X82295153Y-76350318D01*
X82249000Y-76118290D01*
X82249000Y-75881710D01*
X82295153Y-75649682D01*
X82385687Y-75431115D01*
X82385688Y-75431113D01*
X82517122Y-75234407D01*
X82684407Y-75067122D01*
X82881113Y-74935688D01*
X82881115Y-74935687D01*
X83099682Y-74845153D01*
X83331710Y-74799000D01*
X83568290Y-74799000D01*
X83800318Y-74845153D01*
G37*
G36*
X92880000Y-68738000D02*
G01*
X91778000Y-68738000D01*
X91778000Y-66136000D01*
X92880000Y-66136000D01*
X92880000Y-68738000D01*
G37*
G36*
X94880000Y-68738000D02*
G01*
X93778000Y-68738000D01*
X93778000Y-66136000D01*
X94880000Y-66136000D01*
X94880000Y-68738000D01*
G37*
G36*
X90880000Y-68738000D02*
G01*
X89778000Y-68738000D01*
X89778000Y-66136000D01*
X90880000Y-66136000D01*
X90880000Y-68738000D01*
G37*
G36*
X88880000Y-68738000D02*
G01*
X87778000Y-68738000D01*
X87778000Y-66136000D01*
X88880000Y-66136000D01*
X88880000Y-68738000D01*
G37*
G36*
X86880000Y-68738000D02*
G01*
X85778000Y-68738000D01*
X85778000Y-66136000D01*
X86880000Y-66136000D01*
X86880000Y-68738000D01*
G37*
G36*
X84880000Y-68738000D02*
G01*
X83778000Y-68738000D01*
X83778000Y-66136000D01*
X84880000Y-66136000D01*
X84880000Y-68738000D01*
G37*
G36*
X82880000Y-68738000D02*
G01*
X81778000Y-68738000D01*
X81778000Y-66136000D01*
X82880000Y-66136000D01*
X82880000Y-68738000D01*
G37*
G36*
X96880000Y-68738000D02*
G01*
X95778000Y-68738000D01*
X95778000Y-66136000D01*
X96880000Y-66136000D01*
X96880000Y-68738000D01*
G37*
G36*
X96484688Y-55105935D02*
G01*
X96510667Y-55111102D01*
X96584082Y-55141511D01*
X96584083Y-55141512D01*
X96650150Y-55185656D01*
X96706344Y-55241850D01*
X96739452Y-55291400D01*
X96750489Y-55307918D01*
X96780898Y-55381333D01*
X96796400Y-55459269D01*
X96796400Y-55538731D01*
X96780898Y-55616667D01*
X96750489Y-55690082D01*
X96750488Y-55690083D01*
X96706344Y-55756150D01*
X96650150Y-55812344D01*
X96600600Y-55845452D01*
X96584082Y-55856489D01*
X96510667Y-55886898D01*
X96484688Y-55892065D01*
X96432733Y-55902400D01*
X96353267Y-55902400D01*
X96301312Y-55892065D01*
X96275333Y-55886898D01*
X96201918Y-55856489D01*
X96185400Y-55845452D01*
X96135850Y-55812344D01*
X96079656Y-55756150D01*
X96035512Y-55690083D01*
X96035511Y-55690082D01*
X96005102Y-55616667D01*
X95989600Y-55538731D01*
X95989600Y-55459269D01*
X96005102Y-55381333D01*
X96035511Y-55307918D01*
X96046548Y-55291400D01*
X96079656Y-55241850D01*
X96135850Y-55185656D01*
X96201917Y-55141512D01*
X96201918Y-55141511D01*
X96275333Y-55111102D01*
X96301312Y-55105935D01*
X96353267Y-55095600D01*
X96432733Y-55095600D01*
X96484688Y-55105935D01*
G37*
G36*
X90134688Y-55105935D02*
G01*
X90160667Y-55111102D01*
X90234082Y-55141511D01*
X90234083Y-55141512D01*
X90300150Y-55185656D01*
X90356344Y-55241850D01*
X90389452Y-55291400D01*
X90400489Y-55307918D01*
X90430898Y-55381333D01*
X90446400Y-55459269D01*
X90446400Y-55538731D01*
X90430898Y-55616667D01*
X90400489Y-55690082D01*
X90400488Y-55690083D01*
X90356344Y-55756150D01*
X90300150Y-55812344D01*
X90250600Y-55845452D01*
X90234082Y-55856489D01*
X90160667Y-55886898D01*
X90134688Y-55892065D01*
X90082733Y-55902400D01*
X90003267Y-55902400D01*
X89951312Y-55892065D01*
X89925333Y-55886898D01*
X89851918Y-55856489D01*
X89835400Y-55845452D01*
X89785850Y-55812344D01*
X89729656Y-55756150D01*
X89685512Y-55690083D01*
X89685511Y-55690082D01*
X89655102Y-55616667D01*
X89639600Y-55538731D01*
X89639600Y-55459269D01*
X89655102Y-55381333D01*
X89685511Y-55307918D01*
X89696548Y-55291400D01*
X89729656Y-55241850D01*
X89785850Y-55185656D01*
X89851917Y-55141512D01*
X89851918Y-55141511D01*
X89925333Y-55111102D01*
X89951312Y-55105935D01*
X90003267Y-55095600D01*
X90082733Y-55095600D01*
X90134688Y-55105935D01*
G37*
G36*
X86880000Y-53538000D02*
G01*
X85778000Y-53538000D01*
X85778000Y-50936000D01*
X86880000Y-50936000D01*
X86880000Y-53538000D01*
G37*
G36*
X84880000Y-53538000D02*
G01*
X83778000Y-53538000D01*
X83778000Y-50936000D01*
X84880000Y-50936000D01*
X84880000Y-53538000D01*
G37*
G36*
X96880000Y-53538000D02*
G01*
X95778000Y-53538000D01*
X95778000Y-50936000D01*
X96880000Y-50936000D01*
X96880000Y-53538000D01*
G37*
G36*
X94880000Y-53538000D02*
G01*
X93778000Y-53538000D01*
X93778000Y-50936000D01*
X94880000Y-50936000D01*
X94880000Y-53538000D01*
G37*
G36*
X92880000Y-53538000D02*
G01*
X91778000Y-53538000D01*
X91778000Y-50936000D01*
X92880000Y-50936000D01*
X92880000Y-53538000D01*
G37*
G36*
X90880000Y-53538000D02*
G01*
X89778000Y-53538000D01*
X89778000Y-50936000D01*
X90880000Y-50936000D01*
X90880000Y-53538000D01*
G37*
G36*
X88880000Y-53538000D02*
G01*
X87778000Y-53538000D01*
X87778000Y-50936000D01*
X88880000Y-50936000D01*
X88880000Y-53538000D01*
G37*
G36*
X82880000Y-53538000D02*
G01*
X81778000Y-53538000D01*
X81778000Y-50936000D01*
X82880000Y-50936000D01*
X82880000Y-53538000D01*
G37*
M02*
