G04 #@! TF.GenerationSoftware,KiCad,Pcbnew,(5.1.5)-3*
G04 #@! TF.CreationDate,2020-11-12T13:32:49+01:00*
G04 #@! TF.ProjectId,ESP8266_RGBA_Receiver,45535038-3236-4365-9f52-4742415f5265,rev?*
G04 #@! TF.SameCoordinates,Original*
G04 #@! TF.FileFunction,Soldermask,Top*
G04 #@! TF.FilePolarity,Negative*
%FSLAX46Y46*%
G04 Gerber Fmt 4.6, Leading zero omitted, Abs format (unit mm)*
G04 Created by KiCad (PCBNEW (5.1.5)-3) date 2020-11-12 13:32:49*
%MOMM*%
%LPD*%
G04 APERTURE LIST*
%ADD10C,0.100000*%
G04 APERTURE END LIST*
D10*
G36*
X91678210Y-73958489D02*
G01*
X91764950Y-73984802D01*
X91844889Y-74027530D01*
X91914962Y-74085038D01*
X91972470Y-74155111D01*
X92015198Y-74235050D01*
X92041511Y-74321790D01*
X92051000Y-74418140D01*
X92051000Y-77581860D01*
X92041511Y-77678210D01*
X92015198Y-77764950D01*
X91972470Y-77844889D01*
X91914962Y-77914962D01*
X91844889Y-77972470D01*
X91764950Y-78015198D01*
X91678210Y-78041511D01*
X91581860Y-78051000D01*
X90418140Y-78051000D01*
X90321790Y-78041511D01*
X90235050Y-78015198D01*
X90155111Y-77972470D01*
X90085038Y-77914962D01*
X90027530Y-77844889D01*
X89984802Y-77764950D01*
X89958489Y-77678210D01*
X89949000Y-77581860D01*
X89949000Y-74418140D01*
X89958489Y-74321790D01*
X89984802Y-74235050D01*
X90027530Y-74155111D01*
X90085038Y-74085038D01*
X90155111Y-74027530D01*
X90235050Y-73984802D01*
X90321790Y-73958489D01*
X90418140Y-73949000D01*
X91581860Y-73949000D01*
X91678210Y-73958489D01*
G37*
G36*
X97678210Y-73958489D02*
G01*
X97764950Y-73984802D01*
X97844889Y-74027530D01*
X97914962Y-74085038D01*
X97972470Y-74155111D01*
X98015198Y-74235050D01*
X98041511Y-74321790D01*
X98051000Y-74418140D01*
X98051000Y-77581860D01*
X98041511Y-77678210D01*
X98015198Y-77764950D01*
X97972470Y-77844889D01*
X97914962Y-77914962D01*
X97844889Y-77972470D01*
X97764950Y-78015198D01*
X97678210Y-78041511D01*
X97581860Y-78051000D01*
X96418140Y-78051000D01*
X96321790Y-78041511D01*
X96235050Y-78015198D01*
X96155111Y-77972470D01*
X96085038Y-77914962D01*
X96027530Y-77844889D01*
X95984802Y-77764950D01*
X95958489Y-77678210D01*
X95949000Y-77581860D01*
X95949000Y-74418140D01*
X95958489Y-74321790D01*
X95984802Y-74235050D01*
X96027530Y-74155111D01*
X96085038Y-74085038D01*
X96155111Y-74027530D01*
X96235050Y-73984802D01*
X96321790Y-73958489D01*
X96418140Y-73949000D01*
X97581860Y-73949000D01*
X97678210Y-73958489D01*
G37*
G36*
X100678210Y-73958489D02*
G01*
X100764950Y-73984802D01*
X100844889Y-74027530D01*
X100914962Y-74085038D01*
X100972470Y-74155111D01*
X101015198Y-74235050D01*
X101041511Y-74321790D01*
X101051000Y-74418140D01*
X101051000Y-77581860D01*
X101041511Y-77678210D01*
X101015198Y-77764950D01*
X100972470Y-77844889D01*
X100914962Y-77914962D01*
X100844889Y-77972470D01*
X100764950Y-78015198D01*
X100678210Y-78041511D01*
X100581860Y-78051000D01*
X99418140Y-78051000D01*
X99321790Y-78041511D01*
X99235050Y-78015198D01*
X99155111Y-77972470D01*
X99085038Y-77914962D01*
X99027530Y-77844889D01*
X98984802Y-77764950D01*
X98958489Y-77678210D01*
X98949000Y-77581860D01*
X98949000Y-74418140D01*
X98958489Y-74321790D01*
X98984802Y-74235050D01*
X99027530Y-74155111D01*
X99085038Y-74085038D01*
X99155111Y-74027530D01*
X99235050Y-73984802D01*
X99321790Y-73958489D01*
X99418140Y-73949000D01*
X100581860Y-73949000D01*
X100678210Y-73958489D01*
G37*
G36*
X94678210Y-73958489D02*
G01*
X94764950Y-73984802D01*
X94844889Y-74027530D01*
X94914962Y-74085038D01*
X94972470Y-74155111D01*
X95015198Y-74235050D01*
X95041511Y-74321790D01*
X95051000Y-74418140D01*
X95051000Y-77581860D01*
X95041511Y-77678210D01*
X95015198Y-77764950D01*
X94972470Y-77844889D01*
X94914962Y-77914962D01*
X94844889Y-77972470D01*
X94764950Y-78015198D01*
X94678210Y-78041511D01*
X94581860Y-78051000D01*
X93418140Y-78051000D01*
X93321790Y-78041511D01*
X93235050Y-78015198D01*
X93155111Y-77972470D01*
X93085038Y-77914962D01*
X93027530Y-77844889D01*
X92984802Y-77764950D01*
X92958489Y-77678210D01*
X92949000Y-77581860D01*
X92949000Y-74418140D01*
X92958489Y-74321790D01*
X92984802Y-74235050D01*
X93027530Y-74155111D01*
X93085038Y-74085038D01*
X93155111Y-74027530D01*
X93235050Y-73984802D01*
X93321790Y-73958489D01*
X93418140Y-73949000D01*
X94581860Y-73949000D01*
X94678210Y-73958489D01*
G37*
G36*
X80600318Y-74845153D02*
G01*
X80818885Y-74935687D01*
X80818887Y-74935688D01*
X81015593Y-75067122D01*
X81182878Y-75234407D01*
X81314312Y-75431113D01*
X81314313Y-75431115D01*
X81404847Y-75649682D01*
X81451000Y-75881710D01*
X81451000Y-76118290D01*
X81404847Y-76350318D01*
X81314313Y-76568885D01*
X81314312Y-76568887D01*
X81182878Y-76765593D01*
X81015593Y-76932878D01*
X80818887Y-77064312D01*
X80818886Y-77064313D01*
X80818885Y-77064313D01*
X80600318Y-77154847D01*
X80368290Y-77201000D01*
X80131710Y-77201000D01*
X79899682Y-77154847D01*
X79681115Y-77064313D01*
X79681114Y-77064313D01*
X79681113Y-77064312D01*
X79484407Y-76932878D01*
X79317122Y-76765593D01*
X79185688Y-76568887D01*
X79185687Y-76568885D01*
X79095153Y-76350318D01*
X79049000Y-76118290D01*
X79049000Y-75881710D01*
X79095153Y-75649682D01*
X79185687Y-75431115D01*
X79185688Y-75431113D01*
X79317122Y-75234407D01*
X79484407Y-75067122D01*
X79681113Y-74935688D01*
X79681115Y-74935687D01*
X79899682Y-74845153D01*
X80131710Y-74799000D01*
X80368290Y-74799000D01*
X80600318Y-74845153D01*
G37*
G36*
X83800318Y-74845153D02*
G01*
X84018885Y-74935687D01*
X84018887Y-74935688D01*
X84215593Y-75067122D01*
X84382878Y-75234407D01*
X84514312Y-75431113D01*
X84514313Y-75431115D01*
X84604847Y-75649682D01*
X84651000Y-75881710D01*
X84651000Y-76118290D01*
X84604847Y-76350318D01*
X84514313Y-76568885D01*
X84514312Y-76568887D01*
X84382878Y-76765593D01*
X84215593Y-76932878D01*
X84018887Y-77064312D01*
X84018886Y-77064313D01*
X84018885Y-77064313D01*
X83800318Y-77154847D01*
X83568290Y-77201000D01*
X83331710Y-77201000D01*
X83099682Y-77154847D01*
X82881115Y-77064313D01*
X82881114Y-77064313D01*
X82881113Y-77064312D01*
X82684407Y-76932878D01*
X82517122Y-76765593D01*
X82385688Y-76568887D01*
X82385687Y-76568885D01*
X82295153Y-76350318D01*
X82249000Y-76118290D01*
X82249000Y-75881710D01*
X82295153Y-75649682D01*
X82385687Y-75431115D01*
X82385688Y-75431113D01*
X82517122Y-75234407D01*
X82684407Y-75067122D01*
X82881113Y-74935688D01*
X82881115Y-74935687D01*
X83099682Y-74845153D01*
X83331710Y-74799000D01*
X83568290Y-74799000D01*
X83800318Y-74845153D01*
G37*
G36*
X84128210Y-69458489D02*
G01*
X84214950Y-69484802D01*
X84294889Y-69527530D01*
X84364962Y-69585038D01*
X84422470Y-69655111D01*
X84465198Y-69735050D01*
X84491511Y-69821790D01*
X84501000Y-69918140D01*
X84501000Y-73081860D01*
X84491511Y-73178210D01*
X84465198Y-73264950D01*
X84422470Y-73344889D01*
X84364962Y-73414962D01*
X84294889Y-73472470D01*
X84214950Y-73515198D01*
X84128210Y-73541511D01*
X84031860Y-73551000D01*
X82868140Y-73551000D01*
X82771790Y-73541511D01*
X82685050Y-73515198D01*
X82605111Y-73472470D01*
X82535038Y-73414962D01*
X82477530Y-73344889D01*
X82434802Y-73264950D01*
X82408489Y-73178210D01*
X82399000Y-73081860D01*
X82399000Y-69918140D01*
X82408489Y-69821790D01*
X82434802Y-69735050D01*
X82477530Y-69655111D01*
X82535038Y-69585038D01*
X82605111Y-69527530D01*
X82685050Y-69484802D01*
X82771790Y-69458489D01*
X82868140Y-69449000D01*
X84031860Y-69449000D01*
X84128210Y-69458489D01*
G37*
G36*
X80928210Y-69458489D02*
G01*
X81014950Y-69484802D01*
X81094889Y-69527530D01*
X81164962Y-69585038D01*
X81222470Y-69655111D01*
X81265198Y-69735050D01*
X81291511Y-69821790D01*
X81301000Y-69918140D01*
X81301000Y-73081860D01*
X81291511Y-73178210D01*
X81265198Y-73264950D01*
X81222470Y-73344889D01*
X81164962Y-73414962D01*
X81094889Y-73472470D01*
X81014950Y-73515198D01*
X80928210Y-73541511D01*
X80831860Y-73551000D01*
X79668140Y-73551000D01*
X79571790Y-73541511D01*
X79485050Y-73515198D01*
X79405111Y-73472470D01*
X79335038Y-73414962D01*
X79277530Y-73344889D01*
X79234802Y-73264950D01*
X79208489Y-73178210D01*
X79199000Y-73081860D01*
X79199000Y-69918140D01*
X79208489Y-69821790D01*
X79234802Y-69735050D01*
X79277530Y-69655111D01*
X79335038Y-69585038D01*
X79405111Y-69527530D01*
X79485050Y-69484802D01*
X79571790Y-69458489D01*
X79668140Y-69449000D01*
X80831860Y-69449000D01*
X80928210Y-69458489D01*
G37*
G36*
X101305000Y-72839000D02*
G01*
X100403000Y-72839000D01*
X100403000Y-71837000D01*
X101305000Y-71837000D01*
X101305000Y-72839000D01*
G37*
G36*
X97479000Y-72839000D02*
G01*
X96577000Y-72839000D01*
X96577000Y-71837000D01*
X97479000Y-71837000D01*
X97479000Y-72839000D01*
G37*
G36*
X93399000Y-72839000D02*
G01*
X92497000Y-72839000D01*
X92497000Y-71837000D01*
X93399000Y-71837000D01*
X93399000Y-72839000D01*
G37*
G36*
X89385000Y-72823000D02*
G01*
X88483000Y-72823000D01*
X88483000Y-71821000D01*
X89385000Y-71821000D01*
X89385000Y-72823000D01*
G37*
G36*
X92449000Y-70839000D02*
G01*
X91547000Y-70839000D01*
X91547000Y-69837000D01*
X92449000Y-69837000D01*
X92449000Y-70839000D01*
G37*
G36*
X96529000Y-70839000D02*
G01*
X95627000Y-70839000D01*
X95627000Y-69837000D01*
X96529000Y-69837000D01*
X96529000Y-70839000D01*
G37*
G36*
X102255000Y-70839000D02*
G01*
X101353000Y-70839000D01*
X101353000Y-69837000D01*
X102255000Y-69837000D01*
X102255000Y-70839000D01*
G37*
G36*
X100355000Y-70839000D02*
G01*
X99453000Y-70839000D01*
X99453000Y-69837000D01*
X100355000Y-69837000D01*
X100355000Y-70839000D01*
G37*
G36*
X94349000Y-70839000D02*
G01*
X93447000Y-70839000D01*
X93447000Y-69837000D01*
X94349000Y-69837000D01*
X94349000Y-70839000D01*
G37*
G36*
X98429000Y-70839000D02*
G01*
X97527000Y-70839000D01*
X97527000Y-69837000D01*
X98429000Y-69837000D01*
X98429000Y-70839000D01*
G37*
G36*
X90335000Y-70823000D02*
G01*
X89433000Y-70823000D01*
X89433000Y-69821000D01*
X90335000Y-69821000D01*
X90335000Y-70823000D01*
G37*
G36*
X88435000Y-70823000D02*
G01*
X87533000Y-70823000D01*
X87533000Y-69821000D01*
X88435000Y-69821000D01*
X88435000Y-70823000D01*
G37*
G36*
X94052091Y-67768085D02*
G01*
X94086069Y-67778393D01*
X94117390Y-67795134D01*
X94144839Y-67817661D01*
X94167366Y-67845110D01*
X94184107Y-67876431D01*
X94194415Y-67910409D01*
X94198500Y-67951890D01*
X94198500Y-68628110D01*
X94194415Y-68669591D01*
X94184107Y-68703569D01*
X94167366Y-68734890D01*
X94144839Y-68762339D01*
X94117390Y-68784866D01*
X94086069Y-68801607D01*
X94052091Y-68811915D01*
X94010610Y-68816000D01*
X93409390Y-68816000D01*
X93367909Y-68811915D01*
X93333931Y-68801607D01*
X93302610Y-68784866D01*
X93275161Y-68762339D01*
X93252634Y-68734890D01*
X93235893Y-68703569D01*
X93225585Y-68669591D01*
X93221500Y-68628110D01*
X93221500Y-67951890D01*
X93225585Y-67910409D01*
X93235893Y-67876431D01*
X93252634Y-67845110D01*
X93275161Y-67817661D01*
X93302610Y-67795134D01*
X93333931Y-67778393D01*
X93367909Y-67768085D01*
X93409390Y-67764000D01*
X94010610Y-67764000D01*
X94052091Y-67768085D01*
G37*
G36*
X88454591Y-67768085D02*
G01*
X88488569Y-67778393D01*
X88519890Y-67795134D01*
X88547339Y-67817661D01*
X88569866Y-67845110D01*
X88586607Y-67876431D01*
X88596915Y-67910409D01*
X88601000Y-67951890D01*
X88601000Y-68628110D01*
X88596915Y-68669591D01*
X88586607Y-68703569D01*
X88569866Y-68734890D01*
X88547339Y-68762339D01*
X88519890Y-68784866D01*
X88488569Y-68801607D01*
X88454591Y-68811915D01*
X88413110Y-68816000D01*
X87811890Y-68816000D01*
X87770409Y-68811915D01*
X87736431Y-68801607D01*
X87705110Y-68784866D01*
X87677661Y-68762339D01*
X87655134Y-68734890D01*
X87638393Y-68703569D01*
X87628085Y-68669591D01*
X87624000Y-68628110D01*
X87624000Y-67951890D01*
X87628085Y-67910409D01*
X87638393Y-67876431D01*
X87655134Y-67845110D01*
X87677661Y-67817661D01*
X87705110Y-67795134D01*
X87736431Y-67778393D01*
X87770409Y-67768085D01*
X87811890Y-67764000D01*
X88413110Y-67764000D01*
X88454591Y-67768085D01*
G37*
G36*
X90029591Y-67768085D02*
G01*
X90063569Y-67778393D01*
X90094890Y-67795134D01*
X90122339Y-67817661D01*
X90144866Y-67845110D01*
X90161607Y-67876431D01*
X90171915Y-67910409D01*
X90176000Y-67951890D01*
X90176000Y-68628110D01*
X90171915Y-68669591D01*
X90161607Y-68703569D01*
X90144866Y-68734890D01*
X90122339Y-68762339D01*
X90094890Y-68784866D01*
X90063569Y-68801607D01*
X90029591Y-68811915D01*
X89988110Y-68816000D01*
X89386890Y-68816000D01*
X89345409Y-68811915D01*
X89311431Y-68801607D01*
X89280110Y-68784866D01*
X89252661Y-68762339D01*
X89230134Y-68734890D01*
X89213393Y-68703569D01*
X89203085Y-68669591D01*
X89199000Y-68628110D01*
X89199000Y-67951890D01*
X89203085Y-67910409D01*
X89213393Y-67876431D01*
X89230134Y-67845110D01*
X89252661Y-67817661D01*
X89280110Y-67795134D01*
X89311431Y-67778393D01*
X89345409Y-67768085D01*
X89386890Y-67764000D01*
X89988110Y-67764000D01*
X90029591Y-67768085D01*
G37*
G36*
X92477091Y-67768085D02*
G01*
X92511069Y-67778393D01*
X92542390Y-67795134D01*
X92569839Y-67817661D01*
X92592366Y-67845110D01*
X92609107Y-67876431D01*
X92619415Y-67910409D01*
X92623500Y-67951890D01*
X92623500Y-68628110D01*
X92619415Y-68669591D01*
X92609107Y-68703569D01*
X92592366Y-68734890D01*
X92569839Y-68762339D01*
X92542390Y-68784866D01*
X92511069Y-68801607D01*
X92477091Y-68811915D01*
X92435610Y-68816000D01*
X91834390Y-68816000D01*
X91792909Y-68811915D01*
X91758931Y-68801607D01*
X91727610Y-68784866D01*
X91700161Y-68762339D01*
X91677634Y-68734890D01*
X91660893Y-68703569D01*
X91650585Y-68669591D01*
X91646500Y-68628110D01*
X91646500Y-67951890D01*
X91650585Y-67910409D01*
X91660893Y-67876431D01*
X91677634Y-67845110D01*
X91700161Y-67817661D01*
X91727610Y-67795134D01*
X91758931Y-67778393D01*
X91792909Y-67768085D01*
X91834390Y-67764000D01*
X92435610Y-67764000D01*
X92477091Y-67768085D01*
G37*
G36*
X98029591Y-67768085D02*
G01*
X98063569Y-67778393D01*
X98094890Y-67795134D01*
X98122339Y-67817661D01*
X98144866Y-67845110D01*
X98161607Y-67876431D01*
X98171915Y-67910409D01*
X98176000Y-67951890D01*
X98176000Y-68628110D01*
X98171915Y-68669591D01*
X98161607Y-68703569D01*
X98144866Y-68734890D01*
X98122339Y-68762339D01*
X98094890Y-68784866D01*
X98063569Y-68801607D01*
X98029591Y-68811915D01*
X97988110Y-68816000D01*
X97386890Y-68816000D01*
X97345409Y-68811915D01*
X97311431Y-68801607D01*
X97280110Y-68784866D01*
X97252661Y-68762339D01*
X97230134Y-68734890D01*
X97213393Y-68703569D01*
X97203085Y-68669591D01*
X97199000Y-68628110D01*
X97199000Y-67951890D01*
X97203085Y-67910409D01*
X97213393Y-67876431D01*
X97230134Y-67845110D01*
X97252661Y-67817661D01*
X97280110Y-67795134D01*
X97311431Y-67778393D01*
X97345409Y-67768085D01*
X97386890Y-67764000D01*
X97988110Y-67764000D01*
X98029591Y-67768085D01*
G37*
G36*
X96454591Y-67768085D02*
G01*
X96488569Y-67778393D01*
X96519890Y-67795134D01*
X96547339Y-67817661D01*
X96569866Y-67845110D01*
X96586607Y-67876431D01*
X96596915Y-67910409D01*
X96601000Y-67951890D01*
X96601000Y-68628110D01*
X96596915Y-68669591D01*
X96586607Y-68703569D01*
X96569866Y-68734890D01*
X96547339Y-68762339D01*
X96519890Y-68784866D01*
X96488569Y-68801607D01*
X96454591Y-68811915D01*
X96413110Y-68816000D01*
X95811890Y-68816000D01*
X95770409Y-68811915D01*
X95736431Y-68801607D01*
X95705110Y-68784866D01*
X95677661Y-68762339D01*
X95655134Y-68734890D01*
X95638393Y-68703569D01*
X95628085Y-68669591D01*
X95624000Y-68628110D01*
X95624000Y-67951890D01*
X95628085Y-67910409D01*
X95638393Y-67876431D01*
X95655134Y-67845110D01*
X95677661Y-67817661D01*
X95705110Y-67795134D01*
X95736431Y-67778393D01*
X95770409Y-67768085D01*
X95811890Y-67764000D01*
X96413110Y-67764000D01*
X96454591Y-67768085D01*
G37*
G36*
X101829591Y-67768085D02*
G01*
X101863569Y-67778393D01*
X101894890Y-67795134D01*
X101922339Y-67817661D01*
X101944866Y-67845110D01*
X101961607Y-67876431D01*
X101971915Y-67910409D01*
X101976000Y-67951890D01*
X101976000Y-68628110D01*
X101971915Y-68669591D01*
X101961607Y-68703569D01*
X101944866Y-68734890D01*
X101922339Y-68762339D01*
X101894890Y-68784866D01*
X101863569Y-68801607D01*
X101829591Y-68811915D01*
X101788110Y-68816000D01*
X101186890Y-68816000D01*
X101145409Y-68811915D01*
X101111431Y-68801607D01*
X101080110Y-68784866D01*
X101052661Y-68762339D01*
X101030134Y-68734890D01*
X101013393Y-68703569D01*
X101003085Y-68669591D01*
X100999000Y-68628110D01*
X100999000Y-67951890D01*
X101003085Y-67910409D01*
X101013393Y-67876431D01*
X101030134Y-67845110D01*
X101052661Y-67817661D01*
X101080110Y-67795134D01*
X101111431Y-67778393D01*
X101145409Y-67768085D01*
X101186890Y-67764000D01*
X101788110Y-67764000D01*
X101829591Y-67768085D01*
G37*
G36*
X100254591Y-67768085D02*
G01*
X100288569Y-67778393D01*
X100319890Y-67795134D01*
X100347339Y-67817661D01*
X100369866Y-67845110D01*
X100386607Y-67876431D01*
X100396915Y-67910409D01*
X100401000Y-67951890D01*
X100401000Y-68628110D01*
X100396915Y-68669591D01*
X100386607Y-68703569D01*
X100369866Y-68734890D01*
X100347339Y-68762339D01*
X100319890Y-68784866D01*
X100288569Y-68801607D01*
X100254591Y-68811915D01*
X100213110Y-68816000D01*
X99611890Y-68816000D01*
X99570409Y-68811915D01*
X99536431Y-68801607D01*
X99505110Y-68784866D01*
X99477661Y-68762339D01*
X99455134Y-68734890D01*
X99438393Y-68703569D01*
X99428085Y-68669591D01*
X99424000Y-68628110D01*
X99424000Y-67951890D01*
X99428085Y-67910409D01*
X99438393Y-67876431D01*
X99455134Y-67845110D01*
X99477661Y-67817661D01*
X99505110Y-67795134D01*
X99536431Y-67778393D01*
X99570409Y-67768085D01*
X99611890Y-67764000D01*
X100213110Y-67764000D01*
X100254591Y-67768085D01*
G37*
G36*
X95127000Y-64416000D02*
G01*
X94375000Y-64416000D01*
X94375000Y-63264000D01*
X95127000Y-63264000D01*
X95127000Y-64416000D01*
G37*
G36*
X97277000Y-64416000D02*
G01*
X96525000Y-64416000D01*
X96525000Y-63264000D01*
X97277000Y-63264000D01*
X97277000Y-64416000D01*
G37*
G36*
X80008591Y-62787085D02*
G01*
X80042569Y-62797393D01*
X80073890Y-62814134D01*
X80101339Y-62836661D01*
X80123866Y-62864110D01*
X80140607Y-62895431D01*
X80150915Y-62929409D01*
X80155000Y-62970890D01*
X80155000Y-63572110D01*
X80150915Y-63613591D01*
X80140607Y-63647569D01*
X80123866Y-63678890D01*
X80101339Y-63706339D01*
X80073890Y-63728866D01*
X80042569Y-63745607D01*
X80008591Y-63755915D01*
X79967110Y-63760000D01*
X79290890Y-63760000D01*
X79249409Y-63755915D01*
X79215431Y-63745607D01*
X79184110Y-63728866D01*
X79156661Y-63706339D01*
X79134134Y-63678890D01*
X79117393Y-63647569D01*
X79107085Y-63613591D01*
X79103000Y-63572110D01*
X79103000Y-62970890D01*
X79107085Y-62929409D01*
X79117393Y-62895431D01*
X79134134Y-62864110D01*
X79156661Y-62836661D01*
X79184110Y-62814134D01*
X79215431Y-62797393D01*
X79249409Y-62787085D01*
X79290890Y-62783000D01*
X79967110Y-62783000D01*
X80008591Y-62787085D01*
G37*
G36*
X82294591Y-62761585D02*
G01*
X82328569Y-62771893D01*
X82359890Y-62788634D01*
X82387339Y-62811161D01*
X82409866Y-62838610D01*
X82426607Y-62869931D01*
X82436915Y-62903909D01*
X82441000Y-62945390D01*
X82441000Y-63546610D01*
X82436915Y-63588091D01*
X82426607Y-63622069D01*
X82409866Y-63653390D01*
X82387339Y-63680839D01*
X82359890Y-63703366D01*
X82328569Y-63720107D01*
X82294591Y-63730415D01*
X82253110Y-63734500D01*
X81576890Y-63734500D01*
X81535409Y-63730415D01*
X81501431Y-63720107D01*
X81470110Y-63703366D01*
X81442661Y-63680839D01*
X81420134Y-63653390D01*
X81403393Y-63622069D01*
X81393085Y-63588091D01*
X81389000Y-63546610D01*
X81389000Y-62945390D01*
X81393085Y-62903909D01*
X81403393Y-62869931D01*
X81420134Y-62838610D01*
X81442661Y-62811161D01*
X81470110Y-62788634D01*
X81501431Y-62771893D01*
X81535409Y-62761585D01*
X81576890Y-62757500D01*
X82253110Y-62757500D01*
X82294591Y-62761585D01*
G37*
G36*
X86826000Y-63553000D02*
G01*
X84724000Y-63553000D01*
X84724000Y-61951000D01*
X86826000Y-61951000D01*
X86826000Y-63553000D01*
G37*
G36*
X93126000Y-62403000D02*
G01*
X91024000Y-62403000D01*
X91024000Y-58501000D01*
X93126000Y-58501000D01*
X93126000Y-62403000D01*
G37*
G36*
X80008591Y-61212085D02*
G01*
X80042569Y-61222393D01*
X80073890Y-61239134D01*
X80101339Y-61261661D01*
X80123866Y-61289110D01*
X80140607Y-61320431D01*
X80150915Y-61354409D01*
X80155000Y-61395890D01*
X80155000Y-61997110D01*
X80150915Y-62038591D01*
X80140607Y-62072569D01*
X80123866Y-62103890D01*
X80101339Y-62131339D01*
X80073890Y-62153866D01*
X80042569Y-62170607D01*
X80008591Y-62180915D01*
X79967110Y-62185000D01*
X79290890Y-62185000D01*
X79249409Y-62180915D01*
X79215431Y-62170607D01*
X79184110Y-62153866D01*
X79156661Y-62131339D01*
X79134134Y-62103890D01*
X79117393Y-62072569D01*
X79107085Y-62038591D01*
X79103000Y-61997110D01*
X79103000Y-61395890D01*
X79107085Y-61354409D01*
X79117393Y-61320431D01*
X79134134Y-61289110D01*
X79156661Y-61261661D01*
X79184110Y-61239134D01*
X79215431Y-61222393D01*
X79249409Y-61212085D01*
X79290890Y-61208000D01*
X79967110Y-61208000D01*
X80008591Y-61212085D01*
G37*
G36*
X82294591Y-61186585D02*
G01*
X82328569Y-61196893D01*
X82359890Y-61213634D01*
X82387339Y-61236161D01*
X82409866Y-61263610D01*
X82426607Y-61294931D01*
X82436915Y-61328909D01*
X82441000Y-61370390D01*
X82441000Y-61971610D01*
X82436915Y-62013091D01*
X82426607Y-62047069D01*
X82409866Y-62078390D01*
X82387339Y-62105839D01*
X82359890Y-62128366D01*
X82328569Y-62145107D01*
X82294591Y-62155415D01*
X82253110Y-62159500D01*
X81576890Y-62159500D01*
X81535409Y-62155415D01*
X81501431Y-62145107D01*
X81470110Y-62128366D01*
X81442661Y-62105839D01*
X81420134Y-62078390D01*
X81403393Y-62047069D01*
X81393085Y-62013091D01*
X81389000Y-61971610D01*
X81389000Y-61370390D01*
X81393085Y-61328909D01*
X81403393Y-61294931D01*
X81420134Y-61263610D01*
X81442661Y-61236161D01*
X81470110Y-61213634D01*
X81501431Y-61196893D01*
X81535409Y-61186585D01*
X81576890Y-61182500D01*
X82253110Y-61182500D01*
X82294591Y-61186585D01*
G37*
G36*
X86826000Y-61253000D02*
G01*
X84724000Y-61253000D01*
X84724000Y-59651000D01*
X86826000Y-59651000D01*
X86826000Y-61253000D01*
G37*
G36*
X97277000Y-60266000D02*
G01*
X96525000Y-60266000D01*
X96525000Y-59114000D01*
X97277000Y-59114000D01*
X97277000Y-60266000D01*
G37*
G36*
X95127000Y-60266000D02*
G01*
X94375000Y-60266000D01*
X94375000Y-59114000D01*
X95127000Y-59114000D01*
X95127000Y-60266000D01*
G37*
G36*
X80008591Y-59002585D02*
G01*
X80042569Y-59012893D01*
X80073890Y-59029634D01*
X80101339Y-59052161D01*
X80123866Y-59079610D01*
X80140607Y-59110931D01*
X80150915Y-59144909D01*
X80155000Y-59186390D01*
X80155000Y-59787610D01*
X80150915Y-59829091D01*
X80140607Y-59863069D01*
X80123866Y-59894390D01*
X80101339Y-59921839D01*
X80073890Y-59944366D01*
X80042569Y-59961107D01*
X80008591Y-59971415D01*
X79967110Y-59975500D01*
X79290890Y-59975500D01*
X79249409Y-59971415D01*
X79215431Y-59961107D01*
X79184110Y-59944366D01*
X79156661Y-59921839D01*
X79134134Y-59894390D01*
X79117393Y-59863069D01*
X79107085Y-59829091D01*
X79103000Y-59787610D01*
X79103000Y-59186390D01*
X79107085Y-59144909D01*
X79117393Y-59110931D01*
X79134134Y-59079610D01*
X79156661Y-59052161D01*
X79184110Y-59029634D01*
X79215431Y-59012893D01*
X79249409Y-59002585D01*
X79290890Y-58998500D01*
X79967110Y-58998500D01*
X80008591Y-59002585D01*
G37*
G36*
X82294591Y-59002585D02*
G01*
X82328569Y-59012893D01*
X82359890Y-59029634D01*
X82387339Y-59052161D01*
X82409866Y-59079610D01*
X82426607Y-59110931D01*
X82436915Y-59144909D01*
X82441000Y-59186390D01*
X82441000Y-59787610D01*
X82436915Y-59829091D01*
X82426607Y-59863069D01*
X82409866Y-59894390D01*
X82387339Y-59921839D01*
X82359890Y-59944366D01*
X82328569Y-59961107D01*
X82294591Y-59971415D01*
X82253110Y-59975500D01*
X81576890Y-59975500D01*
X81535409Y-59971415D01*
X81501431Y-59961107D01*
X81470110Y-59944366D01*
X81442661Y-59921839D01*
X81420134Y-59894390D01*
X81403393Y-59863069D01*
X81393085Y-59829091D01*
X81389000Y-59787610D01*
X81389000Y-59186390D01*
X81393085Y-59144909D01*
X81403393Y-59110931D01*
X81420134Y-59079610D01*
X81442661Y-59052161D01*
X81470110Y-59029634D01*
X81501431Y-59012893D01*
X81535409Y-59002585D01*
X81576890Y-58998500D01*
X82253110Y-58998500D01*
X82294591Y-59002585D01*
G37*
G36*
X86826000Y-58953000D02*
G01*
X84724000Y-58953000D01*
X84724000Y-57351000D01*
X86826000Y-57351000D01*
X86826000Y-58953000D01*
G37*
G36*
X80008591Y-57427585D02*
G01*
X80042569Y-57437893D01*
X80073890Y-57454634D01*
X80101339Y-57477161D01*
X80123866Y-57504610D01*
X80140607Y-57535931D01*
X80150915Y-57569909D01*
X80155000Y-57611390D01*
X80155000Y-58212610D01*
X80150915Y-58254091D01*
X80140607Y-58288069D01*
X80123866Y-58319390D01*
X80101339Y-58346839D01*
X80073890Y-58369366D01*
X80042569Y-58386107D01*
X80008591Y-58396415D01*
X79967110Y-58400500D01*
X79290890Y-58400500D01*
X79249409Y-58396415D01*
X79215431Y-58386107D01*
X79184110Y-58369366D01*
X79156661Y-58346839D01*
X79134134Y-58319390D01*
X79117393Y-58288069D01*
X79107085Y-58254091D01*
X79103000Y-58212610D01*
X79103000Y-57611390D01*
X79107085Y-57569909D01*
X79117393Y-57535931D01*
X79134134Y-57504610D01*
X79156661Y-57477161D01*
X79184110Y-57454634D01*
X79215431Y-57437893D01*
X79249409Y-57427585D01*
X79290890Y-57423500D01*
X79967110Y-57423500D01*
X80008591Y-57427585D01*
G37*
G36*
X82294591Y-57427585D02*
G01*
X82328569Y-57437893D01*
X82359890Y-57454634D01*
X82387339Y-57477161D01*
X82409866Y-57504610D01*
X82426607Y-57535931D01*
X82436915Y-57569909D01*
X82441000Y-57611390D01*
X82441000Y-58212610D01*
X82436915Y-58254091D01*
X82426607Y-58288069D01*
X82409866Y-58319390D01*
X82387339Y-58346839D01*
X82359890Y-58369366D01*
X82328569Y-58386107D01*
X82294591Y-58396415D01*
X82253110Y-58400500D01*
X81576890Y-58400500D01*
X81535409Y-58396415D01*
X81501431Y-58386107D01*
X81470110Y-58369366D01*
X81442661Y-58346839D01*
X81420134Y-58319390D01*
X81403393Y-58288069D01*
X81393085Y-58254091D01*
X81389000Y-58212610D01*
X81389000Y-57611390D01*
X81393085Y-57569909D01*
X81403393Y-57535931D01*
X81420134Y-57504610D01*
X81442661Y-57477161D01*
X81470110Y-57454634D01*
X81501431Y-57437893D01*
X81535409Y-57427585D01*
X81576890Y-57423500D01*
X82253110Y-57423500D01*
X82294591Y-57427585D01*
G37*
G36*
X95414091Y-57263085D02*
G01*
X95448069Y-57273393D01*
X95479390Y-57290134D01*
X95506839Y-57312661D01*
X95529366Y-57340110D01*
X95546107Y-57371431D01*
X95556415Y-57405409D01*
X95560500Y-57446890D01*
X95560500Y-58123110D01*
X95556415Y-58164591D01*
X95546107Y-58198569D01*
X95529366Y-58229890D01*
X95506839Y-58257339D01*
X95479390Y-58279866D01*
X95448069Y-58296607D01*
X95414091Y-58306915D01*
X95372610Y-58311000D01*
X94771390Y-58311000D01*
X94729909Y-58306915D01*
X94695931Y-58296607D01*
X94664610Y-58279866D01*
X94637161Y-58257339D01*
X94614634Y-58229890D01*
X94597893Y-58198569D01*
X94587585Y-58164591D01*
X94583500Y-58123110D01*
X94583500Y-57446890D01*
X94587585Y-57405409D01*
X94597893Y-57371431D01*
X94614634Y-57340110D01*
X94637161Y-57312661D01*
X94664610Y-57290134D01*
X94695931Y-57273393D01*
X94729909Y-57263085D01*
X94771390Y-57259000D01*
X95372610Y-57259000D01*
X95414091Y-57263085D01*
G37*
G36*
X96989091Y-57263085D02*
G01*
X97023069Y-57273393D01*
X97054390Y-57290134D01*
X97081839Y-57312661D01*
X97104366Y-57340110D01*
X97121107Y-57371431D01*
X97131415Y-57405409D01*
X97135500Y-57446890D01*
X97135500Y-58123110D01*
X97131415Y-58164591D01*
X97121107Y-58198569D01*
X97104366Y-58229890D01*
X97081839Y-58257339D01*
X97054390Y-58279866D01*
X97023069Y-58296607D01*
X96989091Y-58306915D01*
X96947610Y-58311000D01*
X96346390Y-58311000D01*
X96304909Y-58306915D01*
X96270931Y-58296607D01*
X96239610Y-58279866D01*
X96212161Y-58257339D01*
X96189634Y-58229890D01*
X96172893Y-58198569D01*
X96162585Y-58164591D01*
X96158500Y-58123110D01*
X96158500Y-57446890D01*
X96162585Y-57405409D01*
X96172893Y-57371431D01*
X96189634Y-57340110D01*
X96212161Y-57312661D01*
X96239610Y-57290134D01*
X96270931Y-57273393D01*
X96304909Y-57263085D01*
X96346390Y-57259000D01*
X96947610Y-57259000D01*
X96989091Y-57263085D01*
G37*
G36*
X96484688Y-55105935D02*
G01*
X96510667Y-55111102D01*
X96584082Y-55141511D01*
X96584083Y-55141512D01*
X96650150Y-55185656D01*
X96706344Y-55241850D01*
X96739452Y-55291400D01*
X96750489Y-55307918D01*
X96780898Y-55381333D01*
X96780898Y-55381334D01*
X96795025Y-55452352D01*
X96796400Y-55459269D01*
X96796400Y-55538731D01*
X96780898Y-55616667D01*
X96750489Y-55690082D01*
X96750488Y-55690083D01*
X96706344Y-55756150D01*
X96650150Y-55812344D01*
X96600600Y-55845452D01*
X96584082Y-55856489D01*
X96510667Y-55886898D01*
X96484688Y-55892065D01*
X96432733Y-55902400D01*
X96353267Y-55902400D01*
X96301312Y-55892065D01*
X96275333Y-55886898D01*
X96201918Y-55856489D01*
X96185400Y-55845452D01*
X96135850Y-55812344D01*
X96079656Y-55756150D01*
X96035512Y-55690083D01*
X96035511Y-55690082D01*
X96005102Y-55616667D01*
X95989600Y-55538731D01*
X95989600Y-55459269D01*
X95990976Y-55452352D01*
X96005102Y-55381334D01*
X96005102Y-55381333D01*
X96035511Y-55307918D01*
X96046548Y-55291400D01*
X96079656Y-55241850D01*
X96135850Y-55185656D01*
X96201917Y-55141512D01*
X96201918Y-55141511D01*
X96275333Y-55111102D01*
X96301312Y-55105935D01*
X96353267Y-55095600D01*
X96432733Y-55095600D01*
X96484688Y-55105935D01*
G37*
G36*
X90134688Y-55105935D02*
G01*
X90160667Y-55111102D01*
X90234082Y-55141511D01*
X90234083Y-55141512D01*
X90300150Y-55185656D01*
X90356344Y-55241850D01*
X90389452Y-55291400D01*
X90400489Y-55307918D01*
X90430898Y-55381333D01*
X90430898Y-55381334D01*
X90445025Y-55452352D01*
X90446400Y-55459269D01*
X90446400Y-55538731D01*
X90430898Y-55616667D01*
X90400489Y-55690082D01*
X90400488Y-55690083D01*
X90356344Y-55756150D01*
X90300150Y-55812344D01*
X90250600Y-55845452D01*
X90234082Y-55856489D01*
X90160667Y-55886898D01*
X90134688Y-55892065D01*
X90082733Y-55902400D01*
X90003267Y-55902400D01*
X89951312Y-55892065D01*
X89925333Y-55886898D01*
X89851918Y-55856489D01*
X89835400Y-55845452D01*
X89785850Y-55812344D01*
X89729656Y-55756150D01*
X89685512Y-55690083D01*
X89685511Y-55690082D01*
X89655102Y-55616667D01*
X89639600Y-55538731D01*
X89639600Y-55459269D01*
X89640976Y-55452352D01*
X89655102Y-55381334D01*
X89655102Y-55381333D01*
X89685511Y-55307918D01*
X89696548Y-55291400D01*
X89729656Y-55241850D01*
X89785850Y-55185656D01*
X89851917Y-55141512D01*
X89851918Y-55141511D01*
X89925333Y-55111102D01*
X89951312Y-55105935D01*
X90003267Y-55095600D01*
X90082733Y-55095600D01*
X90134688Y-55105935D01*
G37*
G36*
X91714000Y-55900000D02*
G01*
X90912000Y-55900000D01*
X90912000Y-55098000D01*
X91714000Y-55098000D01*
X91714000Y-55900000D01*
G37*
G36*
X95524000Y-55900000D02*
G01*
X94722000Y-55900000D01*
X94722000Y-55098000D01*
X95524000Y-55098000D01*
X95524000Y-55900000D01*
G37*
G36*
X94254000Y-55900000D02*
G01*
X93452000Y-55900000D01*
X93452000Y-55098000D01*
X94254000Y-55098000D01*
X94254000Y-55900000D01*
G37*
G36*
X92984000Y-55900000D02*
G01*
X92182000Y-55900000D01*
X92182000Y-55098000D01*
X92984000Y-55098000D01*
X92984000Y-55900000D01*
G37*
G36*
X82714091Y-54723085D02*
G01*
X82748069Y-54733393D01*
X82779390Y-54750134D01*
X82806839Y-54772661D01*
X82829366Y-54800110D01*
X82846107Y-54831431D01*
X82856415Y-54865409D01*
X82860500Y-54906890D01*
X82860500Y-55583110D01*
X82856415Y-55624591D01*
X82846107Y-55658569D01*
X82829366Y-55689890D01*
X82806839Y-55717339D01*
X82779390Y-55739866D01*
X82748069Y-55756607D01*
X82714091Y-55766915D01*
X82672610Y-55771000D01*
X82071390Y-55771000D01*
X82029909Y-55766915D01*
X81995931Y-55756607D01*
X81964610Y-55739866D01*
X81937161Y-55717339D01*
X81914634Y-55689890D01*
X81897893Y-55658569D01*
X81887585Y-55624591D01*
X81883500Y-55583110D01*
X81883500Y-54906890D01*
X81887585Y-54865409D01*
X81897893Y-54831431D01*
X81914634Y-54800110D01*
X81937161Y-54772661D01*
X81964610Y-54750134D01*
X81995931Y-54733393D01*
X82029909Y-54723085D01*
X82071390Y-54719000D01*
X82672610Y-54719000D01*
X82714091Y-54723085D01*
G37*
G36*
X84289091Y-54723085D02*
G01*
X84323069Y-54733393D01*
X84354390Y-54750134D01*
X84381839Y-54772661D01*
X84404366Y-54800110D01*
X84421107Y-54831431D01*
X84431415Y-54865409D01*
X84435500Y-54906890D01*
X84435500Y-55583110D01*
X84431415Y-55624591D01*
X84421107Y-55658569D01*
X84404366Y-55689890D01*
X84381839Y-55717339D01*
X84354390Y-55739866D01*
X84323069Y-55756607D01*
X84289091Y-55766915D01*
X84247610Y-55771000D01*
X83646390Y-55771000D01*
X83604909Y-55766915D01*
X83570931Y-55756607D01*
X83539610Y-55739866D01*
X83512161Y-55717339D01*
X83489634Y-55689890D01*
X83472893Y-55658569D01*
X83462585Y-55624591D01*
X83458500Y-55583110D01*
X83458500Y-54906890D01*
X83462585Y-54865409D01*
X83472893Y-54831431D01*
X83489634Y-54800110D01*
X83512161Y-54772661D01*
X83539610Y-54750134D01*
X83570931Y-54733393D01*
X83604909Y-54723085D01*
X83646390Y-54719000D01*
X84247610Y-54719000D01*
X84289091Y-54723085D01*
G37*
G36*
X80651604Y-54322347D02*
G01*
X80688144Y-54333432D01*
X80721821Y-54351433D01*
X80751341Y-54375659D01*
X80775567Y-54405179D01*
X80793568Y-54438856D01*
X80804653Y-54475396D01*
X80809000Y-54519538D01*
X80809000Y-55468462D01*
X80804653Y-55512604D01*
X80793568Y-55549144D01*
X80775567Y-55582821D01*
X80751341Y-55612341D01*
X80721821Y-55636567D01*
X80688144Y-55654568D01*
X80651604Y-55665653D01*
X80607462Y-55670000D01*
X79158538Y-55670000D01*
X79114396Y-55665653D01*
X79077856Y-55654568D01*
X79044179Y-55636567D01*
X79014659Y-55612341D01*
X78990433Y-55582821D01*
X78972432Y-55549144D01*
X78961347Y-55512604D01*
X78957000Y-55468462D01*
X78957000Y-54519538D01*
X78961347Y-54475396D01*
X78972432Y-54438856D01*
X78990433Y-54405179D01*
X79014659Y-54375659D01*
X79044179Y-54351433D01*
X79077856Y-54333432D01*
X79114396Y-54322347D01*
X79158538Y-54318000D01*
X80607462Y-54318000D01*
X80651604Y-54322347D01*
G37*
G36*
X80651604Y-51522347D02*
G01*
X80688144Y-51533432D01*
X80721821Y-51551433D01*
X80751341Y-51575659D01*
X80775567Y-51605179D01*
X80793568Y-51638856D01*
X80804653Y-51675396D01*
X80809000Y-51719538D01*
X80809000Y-52668462D01*
X80804653Y-52712604D01*
X80793568Y-52749144D01*
X80775567Y-52782821D01*
X80751341Y-52812341D01*
X80721821Y-52836567D01*
X80688144Y-52854568D01*
X80651604Y-52865653D01*
X80607462Y-52870000D01*
X79158538Y-52870000D01*
X79114396Y-52865653D01*
X79077856Y-52854568D01*
X79044179Y-52836567D01*
X79014659Y-52812341D01*
X78990433Y-52782821D01*
X78972432Y-52749144D01*
X78961347Y-52712604D01*
X78957000Y-52668462D01*
X78957000Y-51719538D01*
X78961347Y-51675396D01*
X78972432Y-51638856D01*
X78990433Y-51605179D01*
X79014659Y-51575659D01*
X79044179Y-51551433D01*
X79077856Y-51533432D01*
X79114396Y-51522347D01*
X79158538Y-51518000D01*
X80607462Y-51518000D01*
X80651604Y-51522347D01*
G37*
M02*
