G04 #@! TF.GenerationSoftware,KiCad,Pcbnew,(5.1.5)-3*
G04 #@! TF.CreationDate,2020-11-12T13:32:49+01:00*
G04 #@! TF.ProjectId,ESP8266_RGBA_Receiver,45535038-3236-4365-9f52-4742415f5265,rev?*
G04 #@! TF.SameCoordinates,Original*
G04 #@! TF.FileFunction,Copper,L2,Bot*
G04 #@! TF.FilePolarity,Positive*
%FSLAX46Y46*%
G04 Gerber Fmt 4.6, Leading zero omitted, Abs format (unit mm)*
G04 Created by KiCad (PCBNEW (5.1.5)-3) date 2020-11-12 13:32:49*
%MOMM*%
%LPD*%
G04 APERTURE LIST*
%ADD10C,0.100000*%
%ADD11C,2.300000*%
%ADD12R,1.000000X2.500000*%
%ADD13C,0.704800*%
%ADD14C,0.800000*%
%ADD15C,0.250000*%
%ADD16C,0.500000*%
%ADD17C,0.254000*%
G04 APERTURE END LIST*
G04 #@! TA.AperFunction,ConnectorPad*
D10*
G36*
X100549009Y-74002408D02*
G01*
X100597545Y-74009607D01*
X100645142Y-74021530D01*
X100691342Y-74038060D01*
X100735698Y-74059039D01*
X100777785Y-74084265D01*
X100817197Y-74113495D01*
X100853553Y-74146447D01*
X100886505Y-74182803D01*
X100915735Y-74222215D01*
X100940961Y-74264302D01*
X100961940Y-74308658D01*
X100978470Y-74354858D01*
X100990393Y-74402455D01*
X100997592Y-74450991D01*
X101000000Y-74500000D01*
X101000000Y-77500000D01*
X100997592Y-77549009D01*
X100990393Y-77597545D01*
X100978470Y-77645142D01*
X100961940Y-77691342D01*
X100940961Y-77735698D01*
X100915735Y-77777785D01*
X100886505Y-77817197D01*
X100853553Y-77853553D01*
X100817197Y-77886505D01*
X100777785Y-77915735D01*
X100735698Y-77940961D01*
X100691342Y-77961940D01*
X100645142Y-77978470D01*
X100597545Y-77990393D01*
X100549009Y-77997592D01*
X100500000Y-78000000D01*
X99500000Y-78000000D01*
X99450991Y-77997592D01*
X99402455Y-77990393D01*
X99354858Y-77978470D01*
X99308658Y-77961940D01*
X99264302Y-77940961D01*
X99222215Y-77915735D01*
X99182803Y-77886505D01*
X99146447Y-77853553D01*
X99113495Y-77817197D01*
X99084265Y-77777785D01*
X99059039Y-77735698D01*
X99038060Y-77691342D01*
X99021530Y-77645142D01*
X99009607Y-77597545D01*
X99002408Y-77549009D01*
X99000000Y-77500000D01*
X99000000Y-74500000D01*
X99002408Y-74450991D01*
X99009607Y-74402455D01*
X99021530Y-74354858D01*
X99038060Y-74308658D01*
X99059039Y-74264302D01*
X99084265Y-74222215D01*
X99113495Y-74182803D01*
X99146447Y-74146447D01*
X99182803Y-74113495D01*
X99222215Y-74084265D01*
X99264302Y-74059039D01*
X99308658Y-74038060D01*
X99354858Y-74021530D01*
X99402455Y-74009607D01*
X99450991Y-74002408D01*
X99500000Y-74000000D01*
X100500000Y-74000000D01*
X100549009Y-74002408D01*
G37*
G04 #@! TD.AperFunction*
G04 #@! TA.AperFunction,ConnectorPad*
G36*
X91549009Y-74002408D02*
G01*
X91597545Y-74009607D01*
X91645142Y-74021530D01*
X91691342Y-74038060D01*
X91735698Y-74059039D01*
X91777785Y-74084265D01*
X91817197Y-74113495D01*
X91853553Y-74146447D01*
X91886505Y-74182803D01*
X91915735Y-74222215D01*
X91940961Y-74264302D01*
X91961940Y-74308658D01*
X91978470Y-74354858D01*
X91990393Y-74402455D01*
X91997592Y-74450991D01*
X92000000Y-74500000D01*
X92000000Y-77500000D01*
X91997592Y-77549009D01*
X91990393Y-77597545D01*
X91978470Y-77645142D01*
X91961940Y-77691342D01*
X91940961Y-77735698D01*
X91915735Y-77777785D01*
X91886505Y-77817197D01*
X91853553Y-77853553D01*
X91817197Y-77886505D01*
X91777785Y-77915735D01*
X91735698Y-77940961D01*
X91691342Y-77961940D01*
X91645142Y-77978470D01*
X91597545Y-77990393D01*
X91549009Y-77997592D01*
X91500000Y-78000000D01*
X90500000Y-78000000D01*
X90450991Y-77997592D01*
X90402455Y-77990393D01*
X90354858Y-77978470D01*
X90308658Y-77961940D01*
X90264302Y-77940961D01*
X90222215Y-77915735D01*
X90182803Y-77886505D01*
X90146447Y-77853553D01*
X90113495Y-77817197D01*
X90084265Y-77777785D01*
X90059039Y-77735698D01*
X90038060Y-77691342D01*
X90021530Y-77645142D01*
X90009607Y-77597545D01*
X90002408Y-77549009D01*
X90000000Y-77500000D01*
X90000000Y-74500000D01*
X90002408Y-74450991D01*
X90009607Y-74402455D01*
X90021530Y-74354858D01*
X90038060Y-74308658D01*
X90059039Y-74264302D01*
X90084265Y-74222215D01*
X90113495Y-74182803D01*
X90146447Y-74146447D01*
X90182803Y-74113495D01*
X90222215Y-74084265D01*
X90264302Y-74059039D01*
X90308658Y-74038060D01*
X90354858Y-74021530D01*
X90402455Y-74009607D01*
X90450991Y-74002408D01*
X90500000Y-74000000D01*
X91500000Y-74000000D01*
X91549009Y-74002408D01*
G37*
G04 #@! TD.AperFunction*
G04 #@! TA.AperFunction,ConnectorPad*
G36*
X97549009Y-74002408D02*
G01*
X97597545Y-74009607D01*
X97645142Y-74021530D01*
X97691342Y-74038060D01*
X97735698Y-74059039D01*
X97777785Y-74084265D01*
X97817197Y-74113495D01*
X97853553Y-74146447D01*
X97886505Y-74182803D01*
X97915735Y-74222215D01*
X97940961Y-74264302D01*
X97961940Y-74308658D01*
X97978470Y-74354858D01*
X97990393Y-74402455D01*
X97997592Y-74450991D01*
X98000000Y-74500000D01*
X98000000Y-77500000D01*
X97997592Y-77549009D01*
X97990393Y-77597545D01*
X97978470Y-77645142D01*
X97961940Y-77691342D01*
X97940961Y-77735698D01*
X97915735Y-77777785D01*
X97886505Y-77817197D01*
X97853553Y-77853553D01*
X97817197Y-77886505D01*
X97777785Y-77915735D01*
X97735698Y-77940961D01*
X97691342Y-77961940D01*
X97645142Y-77978470D01*
X97597545Y-77990393D01*
X97549009Y-77997592D01*
X97500000Y-78000000D01*
X96500000Y-78000000D01*
X96450991Y-77997592D01*
X96402455Y-77990393D01*
X96354858Y-77978470D01*
X96308658Y-77961940D01*
X96264302Y-77940961D01*
X96222215Y-77915735D01*
X96182803Y-77886505D01*
X96146447Y-77853553D01*
X96113495Y-77817197D01*
X96084265Y-77777785D01*
X96059039Y-77735698D01*
X96038060Y-77691342D01*
X96021530Y-77645142D01*
X96009607Y-77597545D01*
X96002408Y-77549009D01*
X96000000Y-77500000D01*
X96000000Y-74500000D01*
X96002408Y-74450991D01*
X96009607Y-74402455D01*
X96021530Y-74354858D01*
X96038060Y-74308658D01*
X96059039Y-74264302D01*
X96084265Y-74222215D01*
X96113495Y-74182803D01*
X96146447Y-74146447D01*
X96182803Y-74113495D01*
X96222215Y-74084265D01*
X96264302Y-74059039D01*
X96308658Y-74038060D01*
X96354858Y-74021530D01*
X96402455Y-74009607D01*
X96450991Y-74002408D01*
X96500000Y-74000000D01*
X97500000Y-74000000D01*
X97549009Y-74002408D01*
G37*
G04 #@! TD.AperFunction*
G04 #@! TA.AperFunction,ConnectorPad*
G36*
X94549009Y-74002408D02*
G01*
X94597545Y-74009607D01*
X94645142Y-74021530D01*
X94691342Y-74038060D01*
X94735698Y-74059039D01*
X94777785Y-74084265D01*
X94817197Y-74113495D01*
X94853553Y-74146447D01*
X94886505Y-74182803D01*
X94915735Y-74222215D01*
X94940961Y-74264302D01*
X94961940Y-74308658D01*
X94978470Y-74354858D01*
X94990393Y-74402455D01*
X94997592Y-74450991D01*
X95000000Y-74500000D01*
X95000000Y-77500000D01*
X94997592Y-77549009D01*
X94990393Y-77597545D01*
X94978470Y-77645142D01*
X94961940Y-77691342D01*
X94940961Y-77735698D01*
X94915735Y-77777785D01*
X94886505Y-77817197D01*
X94853553Y-77853553D01*
X94817197Y-77886505D01*
X94777785Y-77915735D01*
X94735698Y-77940961D01*
X94691342Y-77961940D01*
X94645142Y-77978470D01*
X94597545Y-77990393D01*
X94549009Y-77997592D01*
X94500000Y-78000000D01*
X93500000Y-78000000D01*
X93450991Y-77997592D01*
X93402455Y-77990393D01*
X93354858Y-77978470D01*
X93308658Y-77961940D01*
X93264302Y-77940961D01*
X93222215Y-77915735D01*
X93182803Y-77886505D01*
X93146447Y-77853553D01*
X93113495Y-77817197D01*
X93084265Y-77777785D01*
X93059039Y-77735698D01*
X93038060Y-77691342D01*
X93021530Y-77645142D01*
X93009607Y-77597545D01*
X93002408Y-77549009D01*
X93000000Y-77500000D01*
X93000000Y-74500000D01*
X93002408Y-74450991D01*
X93009607Y-74402455D01*
X93021530Y-74354858D01*
X93038060Y-74308658D01*
X93059039Y-74264302D01*
X93084265Y-74222215D01*
X93113495Y-74182803D01*
X93146447Y-74146447D01*
X93182803Y-74113495D01*
X93222215Y-74084265D01*
X93264302Y-74059039D01*
X93308658Y-74038060D01*
X93354858Y-74021530D01*
X93402455Y-74009607D01*
X93450991Y-74002408D01*
X93500000Y-74000000D01*
X94500000Y-74000000D01*
X94549009Y-74002408D01*
G37*
G04 #@! TD.AperFunction*
D11*
X83450000Y-76000000D03*
X80250000Y-76000000D03*
D12*
X96329000Y-67437000D03*
X94329000Y-67437000D03*
X92329000Y-67437000D03*
X90329000Y-67437000D03*
X88329000Y-67437000D03*
X86329000Y-67437000D03*
X84329000Y-67437000D03*
X82329000Y-67437000D03*
X82329000Y-52237000D03*
X84329000Y-52237000D03*
X86329000Y-52237000D03*
X88329000Y-52237000D03*
X90329000Y-52237000D03*
X92329000Y-52237000D03*
X94329000Y-52237000D03*
X96329000Y-52237000D03*
D13*
X90043000Y-55499000D03*
X96393000Y-55499000D03*
D14*
X87700000Y-59100000D03*
X93400000Y-63400000D03*
X93800000Y-58600000D03*
X86300000Y-54800000D03*
X86300000Y-71900000D03*
X86300000Y-76500000D03*
X86300000Y-74400000D03*
X99000000Y-69400000D03*
X95200000Y-69400000D03*
X91200000Y-69400000D03*
X81534000Y-53975000D03*
X87200000Y-69400000D03*
X83566000Y-58674000D03*
X80300000Y-68900000D03*
X82296000Y-64897000D03*
X79883000Y-56515000D03*
X90700000Y-63400000D03*
X88392000Y-53975000D03*
X96266000Y-53975000D03*
X94996000Y-54192000D03*
X97600000Y-65200000D03*
X95885000Y-61722000D03*
X95800000Y-56600000D03*
X87200000Y-65100000D03*
X85100000Y-65100000D03*
X80772000Y-60706000D03*
X83947000Y-54102000D03*
X89100000Y-65100000D03*
D15*
X81534000Y-52282000D02*
X81534000Y-53975000D01*
X82329000Y-52237000D02*
X81579000Y-52237000D01*
X81579000Y-52237000D02*
X81534000Y-52282000D01*
D16*
X83566000Y-58674000D02*
X80726000Y-58674000D01*
X79471989Y-59928011D02*
X79471989Y-68071989D01*
X80726000Y-58674000D02*
X79471989Y-59928011D01*
X79471989Y-68071989D02*
X80300000Y-68900000D01*
D15*
X82296000Y-64897000D02*
X82296000Y-65904000D01*
X82296000Y-65904000D02*
X82329000Y-65937000D01*
X82329000Y-65937000D02*
X82329000Y-67437000D01*
X80046999Y-60357999D02*
X80714998Y-59690000D01*
X82296000Y-64897000D02*
X80046999Y-62647999D01*
X80046999Y-62647999D02*
X80046999Y-60357999D01*
X80714998Y-59690000D02*
X83623002Y-59690000D01*
X83820000Y-59690000D02*
X84291001Y-59218999D01*
X84291001Y-59218999D02*
X84455000Y-59055000D01*
X84455000Y-59055000D02*
X84455000Y-57658000D01*
X84455000Y-57658000D02*
X83312000Y-56515000D01*
X83312000Y-56515000D02*
X79883000Y-56515000D01*
X90700000Y-63400000D02*
X92329000Y-65208685D01*
X92329000Y-65208685D02*
X92329000Y-67437000D01*
X83623002Y-59690000D02*
X83820000Y-59690000D01*
X88392000Y-52300000D02*
X88329000Y-52237000D01*
X88392000Y-53975000D02*
X88392000Y-52300000D01*
X96266000Y-52300000D02*
X96329000Y-52237000D01*
X96266000Y-53975000D02*
X96266000Y-52300000D01*
X94329000Y-52237000D02*
X94329000Y-53525000D01*
X94329000Y-53525000D02*
X94996000Y-54192000D01*
X97600000Y-66040000D02*
X97600000Y-65200000D01*
X96329000Y-67437000D02*
X97600000Y-66100000D01*
X97600000Y-66100000D02*
X97600000Y-66040000D01*
X90329000Y-53737000D02*
X90329000Y-52237000D01*
X95885000Y-59293000D02*
X90329000Y-53737000D01*
X95885000Y-61722000D02*
X95885000Y-59293000D01*
X92329000Y-52237000D02*
X92329000Y-53737000D01*
X95192000Y-56600000D02*
X95800000Y-56600000D01*
X92329000Y-53737000D02*
X95192000Y-56600000D01*
X86360000Y-67406000D02*
X86329000Y-67437000D01*
X87200000Y-65100000D02*
X87166000Y-65100000D01*
X87166000Y-65100000D02*
X86329000Y-65937000D01*
X86329000Y-65937000D02*
X86329000Y-67437000D01*
X84329000Y-65937000D02*
X84329000Y-67437000D01*
X84329000Y-65856315D02*
X84329000Y-65937000D01*
X84329000Y-65856315D02*
X84343685Y-65856315D01*
X84343685Y-65856315D02*
X85100000Y-65100000D01*
X94329000Y-65569998D02*
X90481002Y-61722000D01*
X94329000Y-67437000D02*
X94329000Y-65569998D01*
X90481002Y-61722000D02*
X81788000Y-61722000D01*
X81788000Y-61722000D02*
X80772000Y-60706000D01*
X83947000Y-52619000D02*
X84329000Y-52237000D01*
X83947000Y-54102000D02*
X83947000Y-52619000D01*
X88329000Y-67437000D02*
X88329000Y-65871000D01*
X88329000Y-65871000D02*
X89100000Y-65100000D01*
D17*
G36*
X97473000Y-64428961D02*
G01*
X97372191Y-64449013D01*
X97230058Y-64507887D01*
X97102141Y-64593358D01*
X96993358Y-64702141D01*
X96907887Y-64830058D01*
X96849013Y-64972191D01*
X96819000Y-65123078D01*
X96819000Y-65276922D01*
X96849013Y-65427809D01*
X96907887Y-65569942D01*
X96993358Y-65697859D01*
X97094000Y-65798501D01*
X97094000Y-65897868D01*
X97086666Y-65905583D01*
X97041696Y-65868678D01*
X96975508Y-65833299D01*
X96903689Y-65811513D01*
X96829000Y-65804157D01*
X95829000Y-65804157D01*
X95754311Y-65811513D01*
X95682492Y-65833299D01*
X95616304Y-65868678D01*
X95558289Y-65916289D01*
X95510678Y-65974304D01*
X95475299Y-66040492D01*
X95453513Y-66112311D01*
X95446157Y-66187000D01*
X95446157Y-68687000D01*
X95453513Y-68761689D01*
X95475299Y-68833508D01*
X95510678Y-68899696D01*
X95558289Y-68957711D01*
X95616304Y-69005322D01*
X95682492Y-69040701D01*
X95754311Y-69062487D01*
X95829000Y-69069843D01*
X96829000Y-69069843D01*
X96903689Y-69062487D01*
X96975508Y-69040701D01*
X97041696Y-69005322D01*
X97099711Y-68957711D01*
X97147322Y-68899696D01*
X97182701Y-68833508D01*
X97204487Y-68761689D01*
X97211843Y-68687000D01*
X97211843Y-67242720D01*
X97473000Y-66968002D01*
X97473000Y-67700000D01*
X97475440Y-67724776D01*
X97482667Y-67748601D01*
X97494403Y-67770557D01*
X97510197Y-67789803D01*
X97529443Y-67805597D01*
X97551399Y-67817333D01*
X97575224Y-67824560D01*
X97600000Y-67827000D01*
X103060800Y-67827000D01*
X103060800Y-77272346D01*
X103046306Y-77420171D01*
X103009140Y-77543269D01*
X102948772Y-77656804D01*
X102867502Y-77756451D01*
X102768426Y-77838413D01*
X102655313Y-77899574D01*
X102532482Y-77937596D01*
X102385923Y-77953000D01*
X101637988Y-77953000D01*
X101635000Y-76285750D01*
X101476250Y-76127000D01*
X100127000Y-76127000D01*
X100127000Y-76147000D01*
X99873000Y-76147000D01*
X99873000Y-76127000D01*
X98523750Y-76127000D01*
X98500000Y-76150750D01*
X98476250Y-76127000D01*
X97127000Y-76127000D01*
X97127000Y-76147000D01*
X96873000Y-76147000D01*
X96873000Y-76127000D01*
X95523750Y-76127000D01*
X95500000Y-76150750D01*
X95476250Y-76127000D01*
X94127000Y-76127000D01*
X94127000Y-76147000D01*
X93873000Y-76147000D01*
X93873000Y-76127000D01*
X92523750Y-76127000D01*
X92500000Y-76150750D01*
X92476250Y-76127000D01*
X91127000Y-76127000D01*
X91127000Y-76147000D01*
X90873000Y-76147000D01*
X90873000Y-76127000D01*
X89523750Y-76127000D01*
X89365000Y-76285750D01*
X89362012Y-77953000D01*
X79191654Y-77953000D01*
X79043829Y-77938506D01*
X78920731Y-77901340D01*
X78807196Y-77840972D01*
X78707549Y-77759702D01*
X78625587Y-77660626D01*
X78564426Y-77547513D01*
X78526404Y-77424682D01*
X78511000Y-77278123D01*
X78511000Y-75849210D01*
X78719000Y-75849210D01*
X78719000Y-76150790D01*
X78777835Y-76446576D01*
X78893245Y-76725201D01*
X79060795Y-76975956D01*
X79274044Y-77189205D01*
X79524799Y-77356755D01*
X79803424Y-77472165D01*
X80099210Y-77531000D01*
X80400790Y-77531000D01*
X80696576Y-77472165D01*
X80975201Y-77356755D01*
X81225956Y-77189205D01*
X81439205Y-76975956D01*
X81606755Y-76725201D01*
X81722165Y-76446576D01*
X81781000Y-76150790D01*
X81781000Y-75849210D01*
X81919000Y-75849210D01*
X81919000Y-76150790D01*
X81977835Y-76446576D01*
X82093245Y-76725201D01*
X82260795Y-76975956D01*
X82474044Y-77189205D01*
X82724799Y-77356755D01*
X83003424Y-77472165D01*
X83299210Y-77531000D01*
X83600790Y-77531000D01*
X83896576Y-77472165D01*
X84175201Y-77356755D01*
X84425956Y-77189205D01*
X84639205Y-76975956D01*
X84806755Y-76725201D01*
X84922165Y-76446576D01*
X84981000Y-76150790D01*
X84981000Y-75849210D01*
X84922165Y-75553424D01*
X84806755Y-75274799D01*
X84639205Y-75024044D01*
X84425956Y-74810795D01*
X84175201Y-74643245D01*
X83896576Y-74527835D01*
X83600790Y-74469000D01*
X83299210Y-74469000D01*
X83003424Y-74527835D01*
X82724799Y-74643245D01*
X82474044Y-74810795D01*
X82260795Y-75024044D01*
X82093245Y-75274799D01*
X81977835Y-75553424D01*
X81919000Y-75849210D01*
X81781000Y-75849210D01*
X81722165Y-75553424D01*
X81606755Y-75274799D01*
X81439205Y-75024044D01*
X81225956Y-74810795D01*
X80975201Y-74643245D01*
X80696576Y-74527835D01*
X80400790Y-74469000D01*
X80099210Y-74469000D01*
X79803424Y-74527835D01*
X79524799Y-74643245D01*
X79274044Y-74810795D01*
X79060795Y-75024044D01*
X78893245Y-75274799D01*
X78777835Y-75553424D01*
X78719000Y-75849210D01*
X78511000Y-75849210D01*
X78511000Y-74000000D01*
X89361928Y-74000000D01*
X89365000Y-75714250D01*
X89523750Y-75873000D01*
X90873000Y-75873000D01*
X90873000Y-73523750D01*
X91127000Y-73523750D01*
X91127000Y-75873000D01*
X92476250Y-75873000D01*
X92500000Y-75849250D01*
X92523750Y-75873000D01*
X93873000Y-75873000D01*
X93873000Y-73523750D01*
X94127000Y-73523750D01*
X94127000Y-75873000D01*
X95476250Y-75873000D01*
X95500000Y-75849250D01*
X95523750Y-75873000D01*
X96873000Y-75873000D01*
X96873000Y-73523750D01*
X97127000Y-73523750D01*
X97127000Y-75873000D01*
X98476250Y-75873000D01*
X98500000Y-75849250D01*
X98523750Y-75873000D01*
X99873000Y-75873000D01*
X99873000Y-73523750D01*
X100127000Y-73523750D01*
X100127000Y-75873000D01*
X101476250Y-75873000D01*
X101635000Y-75714250D01*
X101638072Y-74000000D01*
X101625812Y-73875518D01*
X101589502Y-73755820D01*
X101530537Y-73645506D01*
X101451185Y-73548815D01*
X101354494Y-73469463D01*
X101244180Y-73410498D01*
X101124482Y-73374188D01*
X101000000Y-73361928D01*
X100285750Y-73365000D01*
X100127000Y-73523750D01*
X99873000Y-73523750D01*
X99714250Y-73365000D01*
X99000000Y-73361928D01*
X98875518Y-73374188D01*
X98755820Y-73410498D01*
X98645506Y-73469463D01*
X98548815Y-73548815D01*
X98500000Y-73608296D01*
X98451185Y-73548815D01*
X98354494Y-73469463D01*
X98244180Y-73410498D01*
X98124482Y-73374188D01*
X98000000Y-73361928D01*
X97285750Y-73365000D01*
X97127000Y-73523750D01*
X96873000Y-73523750D01*
X96714250Y-73365000D01*
X96000000Y-73361928D01*
X95875518Y-73374188D01*
X95755820Y-73410498D01*
X95645506Y-73469463D01*
X95548815Y-73548815D01*
X95500000Y-73608296D01*
X95451185Y-73548815D01*
X95354494Y-73469463D01*
X95244180Y-73410498D01*
X95124482Y-73374188D01*
X95000000Y-73361928D01*
X94285750Y-73365000D01*
X94127000Y-73523750D01*
X93873000Y-73523750D01*
X93714250Y-73365000D01*
X93000000Y-73361928D01*
X92875518Y-73374188D01*
X92755820Y-73410498D01*
X92645506Y-73469463D01*
X92548815Y-73548815D01*
X92500000Y-73608296D01*
X92451185Y-73548815D01*
X92354494Y-73469463D01*
X92244180Y-73410498D01*
X92124482Y-73374188D01*
X92000000Y-73361928D01*
X91285750Y-73365000D01*
X91127000Y-73523750D01*
X90873000Y-73523750D01*
X90714250Y-73365000D01*
X90000000Y-73361928D01*
X89875518Y-73374188D01*
X89755820Y-73410498D01*
X89645506Y-73469463D01*
X89548815Y-73548815D01*
X89469463Y-73645506D01*
X89410498Y-73755820D01*
X89374188Y-73875518D01*
X89361928Y-74000000D01*
X78511000Y-74000000D01*
X78511000Y-59928011D01*
X78837937Y-59928011D01*
X78840989Y-59959001D01*
X78840990Y-68040989D01*
X78837937Y-68071989D01*
X78850119Y-68195686D01*
X78886200Y-68314630D01*
X78944793Y-68424249D01*
X79003886Y-68496254D01*
X79003889Y-68496257D01*
X79023647Y-68520332D01*
X79047722Y-68540090D01*
X79527553Y-69019922D01*
X79549013Y-69127809D01*
X79607887Y-69269942D01*
X79693358Y-69397859D01*
X79802141Y-69506642D01*
X79930058Y-69592113D01*
X80072191Y-69650987D01*
X80223078Y-69681000D01*
X80376922Y-69681000D01*
X80527809Y-69650987D01*
X80669942Y-69592113D01*
X80797859Y-69506642D01*
X80906642Y-69397859D01*
X80992113Y-69269942D01*
X81050987Y-69127809D01*
X81081000Y-68976922D01*
X81081000Y-68823078D01*
X81050987Y-68672191D01*
X80992113Y-68530058D01*
X80906642Y-68402141D01*
X80797859Y-68293358D01*
X80669942Y-68207887D01*
X80527809Y-68149013D01*
X80419922Y-68127553D01*
X80102989Y-67810621D01*
X80102989Y-63419580D01*
X81515000Y-64831592D01*
X81515000Y-64973922D01*
X81545013Y-65124809D01*
X81603887Y-65266942D01*
X81689358Y-65394859D01*
X81790001Y-65495502D01*
X81790001Y-65807998D01*
X81754311Y-65811513D01*
X81682492Y-65833299D01*
X81616304Y-65868678D01*
X81558289Y-65916289D01*
X81510678Y-65974304D01*
X81475299Y-66040492D01*
X81453513Y-66112311D01*
X81446157Y-66187000D01*
X81446157Y-68687000D01*
X81453513Y-68761689D01*
X81475299Y-68833508D01*
X81510678Y-68899696D01*
X81558289Y-68957711D01*
X81616304Y-69005322D01*
X81682492Y-69040701D01*
X81754311Y-69062487D01*
X81829000Y-69069843D01*
X82829000Y-69069843D01*
X82903689Y-69062487D01*
X82975508Y-69040701D01*
X83041696Y-69005322D01*
X83099711Y-68957711D01*
X83147322Y-68899696D01*
X83182701Y-68833508D01*
X83204487Y-68761689D01*
X83211843Y-68687000D01*
X83211843Y-66187000D01*
X83446157Y-66187000D01*
X83446157Y-68687000D01*
X83453513Y-68761689D01*
X83475299Y-68833508D01*
X83510678Y-68899696D01*
X83558289Y-68957711D01*
X83616304Y-69005322D01*
X83682492Y-69040701D01*
X83754311Y-69062487D01*
X83829000Y-69069843D01*
X84829000Y-69069843D01*
X84903689Y-69062487D01*
X84975508Y-69040701D01*
X85041696Y-69005322D01*
X85099711Y-68957711D01*
X85147322Y-68899696D01*
X85182701Y-68833508D01*
X85204487Y-68761689D01*
X85211843Y-68687000D01*
X85211843Y-66187000D01*
X85446157Y-66187000D01*
X85446157Y-68687000D01*
X85453513Y-68761689D01*
X85475299Y-68833508D01*
X85510678Y-68899696D01*
X85558289Y-68957711D01*
X85616304Y-69005322D01*
X85682492Y-69040701D01*
X85754311Y-69062487D01*
X85829000Y-69069843D01*
X86829000Y-69069843D01*
X86903689Y-69062487D01*
X86975508Y-69040701D01*
X87041696Y-69005322D01*
X87099711Y-68957711D01*
X87147322Y-68899696D01*
X87182701Y-68833508D01*
X87204487Y-68761689D01*
X87211843Y-68687000D01*
X87211843Y-66187000D01*
X87446157Y-66187000D01*
X87446157Y-68687000D01*
X87453513Y-68761689D01*
X87475299Y-68833508D01*
X87510678Y-68899696D01*
X87558289Y-68957711D01*
X87616304Y-69005322D01*
X87682492Y-69040701D01*
X87754311Y-69062487D01*
X87829000Y-69069843D01*
X88829000Y-69069843D01*
X88903689Y-69062487D01*
X88975508Y-69040701D01*
X89041696Y-69005322D01*
X89099711Y-68957711D01*
X89147322Y-68899696D01*
X89182701Y-68833508D01*
X89204487Y-68761689D01*
X89211843Y-68687000D01*
X89211843Y-66187000D01*
X89446157Y-66187000D01*
X89446157Y-68687000D01*
X89453513Y-68761689D01*
X89475299Y-68833508D01*
X89510678Y-68899696D01*
X89558289Y-68957711D01*
X89616304Y-69005322D01*
X89682492Y-69040701D01*
X89754311Y-69062487D01*
X89829000Y-69069843D01*
X90829000Y-69069843D01*
X90903689Y-69062487D01*
X90975508Y-69040701D01*
X91041696Y-69005322D01*
X91099711Y-68957711D01*
X91147322Y-68899696D01*
X91182701Y-68833508D01*
X91204487Y-68761689D01*
X91211843Y-68687000D01*
X91211843Y-66187000D01*
X91204487Y-66112311D01*
X91182701Y-66040492D01*
X91147322Y-65974304D01*
X91099711Y-65916289D01*
X91041696Y-65868678D01*
X90975508Y-65833299D01*
X90903689Y-65811513D01*
X90829000Y-65804157D01*
X89829000Y-65804157D01*
X89754311Y-65811513D01*
X89682492Y-65833299D01*
X89616304Y-65868678D01*
X89558289Y-65916289D01*
X89510678Y-65974304D01*
X89475299Y-66040492D01*
X89453513Y-66112311D01*
X89446157Y-66187000D01*
X89211843Y-66187000D01*
X89204487Y-66112311D01*
X89182701Y-66040492D01*
X89147322Y-65974304D01*
X89099711Y-65916289D01*
X89056711Y-65881000D01*
X89176922Y-65881000D01*
X89327809Y-65850987D01*
X89469942Y-65792113D01*
X89597859Y-65706642D01*
X89706642Y-65597859D01*
X89792113Y-65469942D01*
X89850987Y-65327809D01*
X89881000Y-65176922D01*
X89881000Y-65023078D01*
X89850987Y-64872191D01*
X89792113Y-64730058D01*
X89706642Y-64602141D01*
X89597859Y-64493358D01*
X89469942Y-64407887D01*
X89327809Y-64349013D01*
X89176922Y-64319000D01*
X89023078Y-64319000D01*
X88872191Y-64349013D01*
X88730058Y-64407887D01*
X88602141Y-64493358D01*
X88493358Y-64602141D01*
X88407887Y-64730058D01*
X88349013Y-64872191D01*
X88319000Y-65023078D01*
X88319000Y-65165409D01*
X87988780Y-65495629D01*
X87969474Y-65511473D01*
X87906242Y-65588521D01*
X87886485Y-65625483D01*
X87859255Y-65676426D01*
X87830322Y-65771808D01*
X87827118Y-65804342D01*
X87754311Y-65811513D01*
X87682492Y-65833299D01*
X87616304Y-65868678D01*
X87558289Y-65916289D01*
X87510678Y-65974304D01*
X87475299Y-66040492D01*
X87453513Y-66112311D01*
X87446157Y-66187000D01*
X87211843Y-66187000D01*
X87204487Y-66112311D01*
X87182701Y-66040492D01*
X87147322Y-65974304D01*
X87099711Y-65916289D01*
X87080812Y-65900779D01*
X87104322Y-65877269D01*
X87123078Y-65881000D01*
X87276922Y-65881000D01*
X87427809Y-65850987D01*
X87569942Y-65792113D01*
X87697859Y-65706642D01*
X87806642Y-65597859D01*
X87892113Y-65469942D01*
X87950987Y-65327809D01*
X87981000Y-65176922D01*
X87981000Y-65023078D01*
X87950987Y-64872191D01*
X87892113Y-64730058D01*
X87806642Y-64602141D01*
X87697859Y-64493358D01*
X87569942Y-64407887D01*
X87427809Y-64349013D01*
X87276922Y-64319000D01*
X87123078Y-64319000D01*
X86972191Y-64349013D01*
X86830058Y-64407887D01*
X86702141Y-64493358D01*
X86593358Y-64602141D01*
X86507887Y-64730058D01*
X86449013Y-64872191D01*
X86419000Y-65023078D01*
X86419000Y-65131408D01*
X85988785Y-65561624D01*
X85969473Y-65577473D01*
X85906241Y-65654521D01*
X85859255Y-65742426D01*
X85840530Y-65804157D01*
X85829000Y-65804157D01*
X85754311Y-65811513D01*
X85682492Y-65833299D01*
X85616304Y-65868678D01*
X85558289Y-65916289D01*
X85510678Y-65974304D01*
X85475299Y-66040492D01*
X85453513Y-66112311D01*
X85446157Y-66187000D01*
X85211843Y-66187000D01*
X85204487Y-66112311D01*
X85182701Y-66040492D01*
X85147322Y-65974304D01*
X85099711Y-65916289D01*
X85056711Y-65881000D01*
X85176922Y-65881000D01*
X85327809Y-65850987D01*
X85469942Y-65792113D01*
X85597859Y-65706642D01*
X85706642Y-65597859D01*
X85792113Y-65469942D01*
X85850987Y-65327809D01*
X85881000Y-65176922D01*
X85881000Y-65023078D01*
X85850987Y-64872191D01*
X85792113Y-64730058D01*
X85706642Y-64602141D01*
X85597859Y-64493358D01*
X85469942Y-64407887D01*
X85327809Y-64349013D01*
X85176922Y-64319000D01*
X85023078Y-64319000D01*
X84872191Y-64349013D01*
X84730058Y-64407887D01*
X84602141Y-64493358D01*
X84493358Y-64602141D01*
X84407887Y-64730058D01*
X84349013Y-64872191D01*
X84319000Y-65023078D01*
X84319000Y-65165409D01*
X84055827Y-65428582D01*
X84046521Y-65433556D01*
X83969473Y-65496788D01*
X83906241Y-65573836D01*
X83859255Y-65661740D01*
X83830322Y-65757122D01*
X83825657Y-65804486D01*
X83754311Y-65811513D01*
X83682492Y-65833299D01*
X83616304Y-65868678D01*
X83558289Y-65916289D01*
X83510678Y-65974304D01*
X83475299Y-66040492D01*
X83453513Y-66112311D01*
X83446157Y-66187000D01*
X83211843Y-66187000D01*
X83204487Y-66112311D01*
X83182701Y-66040492D01*
X83147322Y-65974304D01*
X83099711Y-65916289D01*
X83041696Y-65868678D01*
X82975508Y-65833299D01*
X82903689Y-65811513D01*
X82829000Y-65804157D01*
X82817471Y-65804157D01*
X82802000Y-65753156D01*
X82802000Y-65495501D01*
X82902642Y-65394859D01*
X82988113Y-65266942D01*
X83046987Y-65124809D01*
X83077000Y-64973922D01*
X83077000Y-64820078D01*
X83046987Y-64669191D01*
X82988113Y-64527058D01*
X82902642Y-64399141D01*
X82793859Y-64290358D01*
X82665942Y-64204887D01*
X82523809Y-64146013D01*
X82372922Y-64116000D01*
X82230592Y-64116000D01*
X80552999Y-62438408D01*
X80552999Y-61458739D01*
X80695078Y-61487000D01*
X80837409Y-61487000D01*
X81412628Y-62062220D01*
X81428473Y-62081527D01*
X81505521Y-62144759D01*
X81593425Y-62191745D01*
X81688807Y-62220678D01*
X81763146Y-62228000D01*
X81763154Y-62228000D01*
X81788000Y-62230447D01*
X81812846Y-62228000D01*
X90271411Y-62228000D01*
X90662411Y-62619000D01*
X90623078Y-62619000D01*
X90472191Y-62649013D01*
X90330058Y-62707887D01*
X90202141Y-62793358D01*
X90093358Y-62902141D01*
X90007887Y-63030058D01*
X89949013Y-63172191D01*
X89919000Y-63323078D01*
X89919000Y-63476922D01*
X89949013Y-63627809D01*
X90007887Y-63769942D01*
X90093358Y-63897859D01*
X90202141Y-64006642D01*
X90330058Y-64092113D01*
X90472191Y-64150987D01*
X90623078Y-64181000D01*
X90722437Y-64181000D01*
X91823000Y-65402961D01*
X91823000Y-65804748D01*
X91754311Y-65811513D01*
X91682492Y-65833299D01*
X91616304Y-65868678D01*
X91558289Y-65916289D01*
X91510678Y-65974304D01*
X91475299Y-66040492D01*
X91453513Y-66112311D01*
X91446157Y-66187000D01*
X91446157Y-68687000D01*
X91453513Y-68761689D01*
X91475299Y-68833508D01*
X91510678Y-68899696D01*
X91558289Y-68957711D01*
X91616304Y-69005322D01*
X91682492Y-69040701D01*
X91754311Y-69062487D01*
X91829000Y-69069843D01*
X92829000Y-69069843D01*
X92903689Y-69062487D01*
X92975508Y-69040701D01*
X93041696Y-69005322D01*
X93099711Y-68957711D01*
X93147322Y-68899696D01*
X93182701Y-68833508D01*
X93204487Y-68761689D01*
X93211843Y-68687000D01*
X93211843Y-66187000D01*
X93204487Y-66112311D01*
X93182701Y-66040492D01*
X93147322Y-65974304D01*
X93099711Y-65916289D01*
X93041696Y-65868678D01*
X92975508Y-65833299D01*
X92903689Y-65811513D01*
X92835000Y-65804748D01*
X92835000Y-65246806D01*
X92836755Y-65235225D01*
X92835000Y-65197063D01*
X92835000Y-65183831D01*
X92833858Y-65172241D01*
X92832176Y-65135657D01*
X92828982Y-65122736D01*
X92827678Y-65109492D01*
X92817049Y-65074452D01*
X92808261Y-65038895D01*
X92802608Y-65026846D01*
X92798745Y-65014110D01*
X92781479Y-64981808D01*
X92765927Y-64948658D01*
X92758034Y-64937946D01*
X92751759Y-64926206D01*
X92728518Y-64897887D01*
X92721617Y-64888521D01*
X92712771Y-64878699D01*
X92688527Y-64849158D01*
X92679470Y-64841725D01*
X91475438Y-63504884D01*
X91481000Y-63476922D01*
X91481000Y-63437589D01*
X93823001Y-65779591D01*
X93823001Y-65804748D01*
X93754311Y-65811513D01*
X93682492Y-65833299D01*
X93616304Y-65868678D01*
X93558289Y-65916289D01*
X93510678Y-65974304D01*
X93475299Y-66040492D01*
X93453513Y-66112311D01*
X93446157Y-66187000D01*
X93446157Y-68687000D01*
X93453513Y-68761689D01*
X93475299Y-68833508D01*
X93510678Y-68899696D01*
X93558289Y-68957711D01*
X93616304Y-69005322D01*
X93682492Y-69040701D01*
X93754311Y-69062487D01*
X93829000Y-69069843D01*
X94829000Y-69069843D01*
X94903689Y-69062487D01*
X94975508Y-69040701D01*
X95041696Y-69005322D01*
X95099711Y-68957711D01*
X95147322Y-68899696D01*
X95182701Y-68833508D01*
X95204487Y-68761689D01*
X95211843Y-68687000D01*
X95211843Y-66187000D01*
X95204487Y-66112311D01*
X95182701Y-66040492D01*
X95147322Y-65974304D01*
X95099711Y-65916289D01*
X95041696Y-65868678D01*
X94975508Y-65833299D01*
X94903689Y-65811513D01*
X94835000Y-65804748D01*
X94835000Y-65594844D01*
X94837447Y-65569998D01*
X94835000Y-65545152D01*
X94835000Y-65545144D01*
X94827678Y-65470805D01*
X94798745Y-65375423D01*
X94751759Y-65287519D01*
X94688527Y-65210471D01*
X94669220Y-65194626D01*
X90856378Y-61381785D01*
X90840529Y-61362473D01*
X90763481Y-61299241D01*
X90675577Y-61252255D01*
X90580195Y-61223322D01*
X90505856Y-61216000D01*
X90505848Y-61216000D01*
X90481002Y-61213553D01*
X90456156Y-61216000D01*
X81997592Y-61216000D01*
X81553000Y-60771409D01*
X81553000Y-60629078D01*
X81522987Y-60478191D01*
X81464113Y-60336058D01*
X81378642Y-60208141D01*
X81366501Y-60196000D01*
X83795154Y-60196000D01*
X83820000Y-60198447D01*
X83844846Y-60196000D01*
X83844854Y-60196000D01*
X83919193Y-60188678D01*
X84014575Y-60159745D01*
X84102479Y-60112759D01*
X84179527Y-60049527D01*
X84195376Y-60030215D01*
X84666371Y-59559221D01*
X84666376Y-59559215D01*
X84795215Y-59430376D01*
X84814527Y-59414527D01*
X84877759Y-59337479D01*
X84924745Y-59249575D01*
X84953678Y-59154193D01*
X84961000Y-59079854D01*
X84961000Y-59079853D01*
X84963448Y-59055000D01*
X84961000Y-59030146D01*
X84961000Y-57682845D01*
X84963447Y-57657999D01*
X84961000Y-57633153D01*
X84961000Y-57633146D01*
X84953678Y-57558807D01*
X84924745Y-57463425D01*
X84877759Y-57375521D01*
X84814527Y-57298473D01*
X84795220Y-57282628D01*
X83687376Y-56174785D01*
X83671527Y-56155473D01*
X83594479Y-56092241D01*
X83506575Y-56045255D01*
X83411193Y-56016322D01*
X83336854Y-56009000D01*
X83336846Y-56009000D01*
X83312000Y-56006553D01*
X83287154Y-56009000D01*
X80481501Y-56009000D01*
X80380859Y-55908358D01*
X80252942Y-55822887D01*
X80110809Y-55764013D01*
X79959922Y-55734000D01*
X79806078Y-55734000D01*
X79655191Y-55764013D01*
X79513058Y-55822887D01*
X79385141Y-55908358D01*
X79276358Y-56017141D01*
X79190887Y-56145058D01*
X79132013Y-56287191D01*
X79102000Y-56438078D01*
X79102000Y-56591922D01*
X79132013Y-56742809D01*
X79190887Y-56884942D01*
X79276358Y-57012859D01*
X79385141Y-57121642D01*
X79513058Y-57207113D01*
X79655191Y-57265987D01*
X79806078Y-57296000D01*
X79959922Y-57296000D01*
X80110809Y-57265987D01*
X80252942Y-57207113D01*
X80380859Y-57121642D01*
X80481501Y-57021000D01*
X83102409Y-57021000D01*
X83949001Y-57867593D01*
X83949001Y-57990613D01*
X83935942Y-57981887D01*
X83793809Y-57923013D01*
X83642922Y-57893000D01*
X83489078Y-57893000D01*
X83338191Y-57923013D01*
X83196058Y-57981887D01*
X83104595Y-58043000D01*
X80756987Y-58043000D01*
X80725999Y-58039948D01*
X80695011Y-58043000D01*
X80695002Y-58043000D01*
X80602302Y-58052130D01*
X80483358Y-58088211D01*
X80373739Y-58146804D01*
X80277657Y-58225657D01*
X80257899Y-58249732D01*
X79047726Y-59459906D01*
X79023646Y-59479668D01*
X78944793Y-59575751D01*
X78886200Y-59685370D01*
X78850119Y-59804314D01*
X78840989Y-59897014D01*
X78840989Y-59897021D01*
X78837937Y-59928011D01*
X78511000Y-59928011D01*
X78511000Y-55426766D01*
X89309600Y-55426766D01*
X89309600Y-55571234D01*
X89337784Y-55712925D01*
X89393069Y-55846395D01*
X89473331Y-55966515D01*
X89575485Y-56068669D01*
X89695605Y-56148931D01*
X89829075Y-56204216D01*
X89970766Y-56232400D01*
X90115234Y-56232400D01*
X90256925Y-56204216D01*
X90390395Y-56148931D01*
X90510515Y-56068669D01*
X90612669Y-55966515D01*
X90692931Y-55846395D01*
X90748216Y-55712925D01*
X90776400Y-55571234D01*
X90776400Y-55426766D01*
X90748216Y-55285075D01*
X90692931Y-55151605D01*
X90612669Y-55031485D01*
X90510515Y-54929331D01*
X90390395Y-54849069D01*
X90256925Y-54793784D01*
X90115234Y-54765600D01*
X89970766Y-54765600D01*
X89829075Y-54793784D01*
X89695605Y-54849069D01*
X89575485Y-54929331D01*
X89473331Y-55031485D01*
X89393069Y-55151605D01*
X89337784Y-55285075D01*
X89309600Y-55426766D01*
X78511000Y-55426766D01*
X78511000Y-53487000D01*
X81190928Y-53487000D01*
X81203188Y-53611482D01*
X81239498Y-53731180D01*
X81298463Y-53841494D01*
X81377815Y-53938185D01*
X81474506Y-54017537D01*
X81584820Y-54076502D01*
X81704518Y-54112812D01*
X81829000Y-54125072D01*
X82043250Y-54122000D01*
X82202000Y-53963250D01*
X82202000Y-52364000D01*
X81352750Y-52364000D01*
X81194000Y-52522750D01*
X81190928Y-53487000D01*
X78511000Y-53487000D01*
X78511000Y-50987000D01*
X81190928Y-50987000D01*
X81194000Y-51951250D01*
X81352750Y-52110000D01*
X82202000Y-52110000D01*
X82202000Y-50510750D01*
X82456000Y-50510750D01*
X82456000Y-52110000D01*
X82476000Y-52110000D01*
X82476000Y-52364000D01*
X82456000Y-52364000D01*
X82456000Y-53963250D01*
X82614750Y-54122000D01*
X82829000Y-54125072D01*
X82953482Y-54112812D01*
X83073180Y-54076502D01*
X83166000Y-54026888D01*
X83166000Y-54178922D01*
X83196013Y-54329809D01*
X83254887Y-54471942D01*
X83340358Y-54599859D01*
X83449141Y-54708642D01*
X83577058Y-54794113D01*
X83719191Y-54852987D01*
X83870078Y-54883000D01*
X84023922Y-54883000D01*
X84174809Y-54852987D01*
X84316942Y-54794113D01*
X84444859Y-54708642D01*
X84553642Y-54599859D01*
X84639113Y-54471942D01*
X84697987Y-54329809D01*
X84728000Y-54178922D01*
X84728000Y-54025078D01*
X84697987Y-53874191D01*
X84696186Y-53869843D01*
X84829000Y-53869843D01*
X84903689Y-53862487D01*
X84975508Y-53840701D01*
X85041696Y-53805322D01*
X85099711Y-53757711D01*
X85147322Y-53699696D01*
X85182701Y-53633508D01*
X85204487Y-53561689D01*
X85211843Y-53487000D01*
X85211843Y-50987000D01*
X85446157Y-50987000D01*
X85446157Y-53487000D01*
X85453513Y-53561689D01*
X85475299Y-53633508D01*
X85510678Y-53699696D01*
X85558289Y-53757711D01*
X85616304Y-53805322D01*
X85682492Y-53840701D01*
X85754311Y-53862487D01*
X85829000Y-53869843D01*
X86829000Y-53869843D01*
X86903689Y-53862487D01*
X86975508Y-53840701D01*
X87041696Y-53805322D01*
X87099711Y-53757711D01*
X87147322Y-53699696D01*
X87182701Y-53633508D01*
X87204487Y-53561689D01*
X87211843Y-53487000D01*
X87211843Y-50987000D01*
X87446157Y-50987000D01*
X87446157Y-53487000D01*
X87453513Y-53561689D01*
X87475299Y-53633508D01*
X87510678Y-53699696D01*
X87558289Y-53757711D01*
X87616304Y-53805322D01*
X87628187Y-53811674D01*
X87611000Y-53898078D01*
X87611000Y-54051922D01*
X87641013Y-54202809D01*
X87699887Y-54344942D01*
X87785358Y-54472859D01*
X87894141Y-54581642D01*
X88022058Y-54667113D01*
X88164191Y-54725987D01*
X88315078Y-54756000D01*
X88468922Y-54756000D01*
X88619809Y-54725987D01*
X88761942Y-54667113D01*
X88889859Y-54581642D01*
X88998642Y-54472859D01*
X89084113Y-54344942D01*
X89142987Y-54202809D01*
X89173000Y-54051922D01*
X89173000Y-53898078D01*
X89142987Y-53747191D01*
X89131367Y-53719138D01*
X89147322Y-53699696D01*
X89182701Y-53633508D01*
X89204487Y-53561689D01*
X89211843Y-53487000D01*
X89211843Y-50987000D01*
X89446157Y-50987000D01*
X89446157Y-53487000D01*
X89453513Y-53561689D01*
X89475299Y-53633508D01*
X89510678Y-53699696D01*
X89558289Y-53757711D01*
X89616304Y-53805322D01*
X89682492Y-53840701D01*
X89754311Y-53862487D01*
X89829000Y-53869843D01*
X89840530Y-53869843D01*
X89859255Y-53931574D01*
X89906241Y-54019479D01*
X89969473Y-54096527D01*
X89988785Y-54112376D01*
X95379001Y-59502593D01*
X95379000Y-61123499D01*
X95278358Y-61224141D01*
X95192887Y-61352058D01*
X95134013Y-61494191D01*
X95104000Y-61645078D01*
X95104000Y-61798922D01*
X95134013Y-61949809D01*
X95192887Y-62091942D01*
X95278358Y-62219859D01*
X95387141Y-62328642D01*
X95515058Y-62414113D01*
X95657191Y-62472987D01*
X95808078Y-62503000D01*
X95961922Y-62503000D01*
X96112809Y-62472987D01*
X96254942Y-62414113D01*
X96382859Y-62328642D01*
X96491642Y-62219859D01*
X96577113Y-62091942D01*
X96635987Y-61949809D01*
X96666000Y-61798922D01*
X96666000Y-61645078D01*
X96635987Y-61494191D01*
X96577113Y-61352058D01*
X96491642Y-61224141D01*
X96391000Y-61123499D01*
X96391000Y-59317854D01*
X96393448Y-59293000D01*
X96383678Y-59193807D01*
X96354745Y-59098425D01*
X96354660Y-59098266D01*
X96307759Y-59010521D01*
X96244527Y-58933473D01*
X96225220Y-58917628D01*
X91080812Y-53773221D01*
X91099711Y-53757711D01*
X91147322Y-53699696D01*
X91182701Y-53633508D01*
X91204487Y-53561689D01*
X91211843Y-53487000D01*
X91211843Y-50987000D01*
X91446157Y-50987000D01*
X91446157Y-53487000D01*
X91453513Y-53561689D01*
X91475299Y-53633508D01*
X91510678Y-53699696D01*
X91558289Y-53757711D01*
X91616304Y-53805322D01*
X91682492Y-53840701D01*
X91754311Y-53862487D01*
X91829000Y-53869843D01*
X91840530Y-53869843D01*
X91859255Y-53931574D01*
X91876187Y-53963250D01*
X91906242Y-54019479D01*
X91969474Y-54096527D01*
X91988781Y-54112372D01*
X94816628Y-56940220D01*
X94832473Y-56959527D01*
X94909521Y-57022759D01*
X94997425Y-57069745D01*
X95070607Y-57091944D01*
X95092806Y-57098678D01*
X95102694Y-57099652D01*
X95167146Y-57106000D01*
X95167153Y-57106000D01*
X95191999Y-57108447D01*
X95202875Y-57107376D01*
X95302141Y-57206642D01*
X95430058Y-57292113D01*
X95572191Y-57350987D01*
X95723078Y-57381000D01*
X95876922Y-57381000D01*
X96027809Y-57350987D01*
X96169942Y-57292113D01*
X96297859Y-57206642D01*
X96406642Y-57097859D01*
X96492113Y-56969942D01*
X96550987Y-56827809D01*
X96581000Y-56676922D01*
X96581000Y-56523078D01*
X96550987Y-56372191D01*
X96492113Y-56230058D01*
X96490341Y-56227406D01*
X96606925Y-56204216D01*
X96740395Y-56148931D01*
X96860515Y-56068669D01*
X96962669Y-55966515D01*
X97042931Y-55846395D01*
X97098216Y-55712925D01*
X97126400Y-55571234D01*
X97126400Y-55426766D01*
X97098216Y-55285075D01*
X97042931Y-55151605D01*
X96962669Y-55031485D01*
X96860515Y-54929331D01*
X96740395Y-54849069D01*
X96606925Y-54793784D01*
X96465234Y-54765600D01*
X96320766Y-54765600D01*
X96179075Y-54793784D01*
X96045605Y-54849069D01*
X95925485Y-54929331D01*
X95823331Y-55031485D01*
X95743069Y-55151605D01*
X95687784Y-55285075D01*
X95659600Y-55426766D01*
X95659600Y-55571234D01*
X95687784Y-55712925D01*
X95731722Y-55819000D01*
X95723078Y-55819000D01*
X95572191Y-55849013D01*
X95430058Y-55907887D01*
X95302141Y-55993358D01*
X95301545Y-55993954D01*
X93080812Y-53773221D01*
X93099711Y-53757711D01*
X93147322Y-53699696D01*
X93182701Y-53633508D01*
X93204487Y-53561689D01*
X93211843Y-53487000D01*
X93211843Y-50987000D01*
X93446157Y-50987000D01*
X93446157Y-53487000D01*
X93453513Y-53561689D01*
X93475299Y-53633508D01*
X93510678Y-53699696D01*
X93558289Y-53757711D01*
X93616304Y-53805322D01*
X93682492Y-53840701D01*
X93754311Y-53862487D01*
X93829000Y-53869843D01*
X93957423Y-53869843D01*
X93969474Y-53884527D01*
X93988780Y-53900371D01*
X94215000Y-54126591D01*
X94215000Y-54268922D01*
X94245013Y-54419809D01*
X94303887Y-54561942D01*
X94389358Y-54689859D01*
X94498141Y-54798642D01*
X94626058Y-54884113D01*
X94768191Y-54942987D01*
X94919078Y-54973000D01*
X95072922Y-54973000D01*
X95223809Y-54942987D01*
X95365942Y-54884113D01*
X95493859Y-54798642D01*
X95602642Y-54689859D01*
X95688113Y-54561942D01*
X95705783Y-54519284D01*
X95768141Y-54581642D01*
X95896058Y-54667113D01*
X96038191Y-54725987D01*
X96189078Y-54756000D01*
X96342922Y-54756000D01*
X96493809Y-54725987D01*
X96635942Y-54667113D01*
X96763859Y-54581642D01*
X96872642Y-54472859D01*
X96958113Y-54344942D01*
X97016987Y-54202809D01*
X97047000Y-54051922D01*
X97047000Y-53898078D01*
X97029813Y-53811674D01*
X97041696Y-53805322D01*
X97099711Y-53757711D01*
X97147322Y-53699696D01*
X97182701Y-53633508D01*
X97204487Y-53561689D01*
X97211843Y-53487000D01*
X97211843Y-50987000D01*
X97204487Y-50912311D01*
X97182701Y-50840492D01*
X97147322Y-50774304D01*
X97099711Y-50716289D01*
X97041696Y-50668678D01*
X96975508Y-50633299D01*
X96903689Y-50611513D01*
X96829000Y-50604157D01*
X95829000Y-50604157D01*
X95754311Y-50611513D01*
X95682492Y-50633299D01*
X95616304Y-50668678D01*
X95558289Y-50716289D01*
X95510678Y-50774304D01*
X95475299Y-50840492D01*
X95453513Y-50912311D01*
X95446157Y-50987000D01*
X95446157Y-53487000D01*
X95453166Y-53558168D01*
X95365942Y-53499887D01*
X95223809Y-53441013D01*
X95211843Y-53438633D01*
X95211843Y-50987000D01*
X95204487Y-50912311D01*
X95182701Y-50840492D01*
X95147322Y-50774304D01*
X95099711Y-50716289D01*
X95041696Y-50668678D01*
X94975508Y-50633299D01*
X94903689Y-50611513D01*
X94829000Y-50604157D01*
X93829000Y-50604157D01*
X93754311Y-50611513D01*
X93682492Y-50633299D01*
X93616304Y-50668678D01*
X93558289Y-50716289D01*
X93510678Y-50774304D01*
X93475299Y-50840492D01*
X93453513Y-50912311D01*
X93446157Y-50987000D01*
X93211843Y-50987000D01*
X93204487Y-50912311D01*
X93182701Y-50840492D01*
X93147322Y-50774304D01*
X93099711Y-50716289D01*
X93041696Y-50668678D01*
X92975508Y-50633299D01*
X92903689Y-50611513D01*
X92829000Y-50604157D01*
X91829000Y-50604157D01*
X91754311Y-50611513D01*
X91682492Y-50633299D01*
X91616304Y-50668678D01*
X91558289Y-50716289D01*
X91510678Y-50774304D01*
X91475299Y-50840492D01*
X91453513Y-50912311D01*
X91446157Y-50987000D01*
X91211843Y-50987000D01*
X91204487Y-50912311D01*
X91182701Y-50840492D01*
X91147322Y-50774304D01*
X91099711Y-50716289D01*
X91041696Y-50668678D01*
X90975508Y-50633299D01*
X90903689Y-50611513D01*
X90829000Y-50604157D01*
X89829000Y-50604157D01*
X89754311Y-50611513D01*
X89682492Y-50633299D01*
X89616304Y-50668678D01*
X89558289Y-50716289D01*
X89510678Y-50774304D01*
X89475299Y-50840492D01*
X89453513Y-50912311D01*
X89446157Y-50987000D01*
X89211843Y-50987000D01*
X89204487Y-50912311D01*
X89182701Y-50840492D01*
X89147322Y-50774304D01*
X89099711Y-50716289D01*
X89041696Y-50668678D01*
X88975508Y-50633299D01*
X88903689Y-50611513D01*
X88829000Y-50604157D01*
X87829000Y-50604157D01*
X87754311Y-50611513D01*
X87682492Y-50633299D01*
X87616304Y-50668678D01*
X87558289Y-50716289D01*
X87510678Y-50774304D01*
X87475299Y-50840492D01*
X87453513Y-50912311D01*
X87446157Y-50987000D01*
X87211843Y-50987000D01*
X87204487Y-50912311D01*
X87182701Y-50840492D01*
X87147322Y-50774304D01*
X87099711Y-50716289D01*
X87041696Y-50668678D01*
X86975508Y-50633299D01*
X86903689Y-50611513D01*
X86829000Y-50604157D01*
X85829000Y-50604157D01*
X85754311Y-50611513D01*
X85682492Y-50633299D01*
X85616304Y-50668678D01*
X85558289Y-50716289D01*
X85510678Y-50774304D01*
X85475299Y-50840492D01*
X85453513Y-50912311D01*
X85446157Y-50987000D01*
X85211843Y-50987000D01*
X85204487Y-50912311D01*
X85182701Y-50840492D01*
X85147322Y-50774304D01*
X85099711Y-50716289D01*
X85041696Y-50668678D01*
X84975508Y-50633299D01*
X84903689Y-50611513D01*
X84829000Y-50604157D01*
X83829000Y-50604157D01*
X83754311Y-50611513D01*
X83682492Y-50633299D01*
X83616304Y-50668678D01*
X83558289Y-50716289D01*
X83510678Y-50774304D01*
X83475299Y-50840492D01*
X83458196Y-50896874D01*
X83454812Y-50862518D01*
X83418502Y-50742820D01*
X83359537Y-50632506D01*
X83280185Y-50535815D01*
X83183494Y-50456463D01*
X83073180Y-50397498D01*
X82953482Y-50361188D01*
X82829000Y-50348928D01*
X82614750Y-50352000D01*
X82456000Y-50510750D01*
X82202000Y-50510750D01*
X82043250Y-50352000D01*
X81829000Y-50348928D01*
X81704518Y-50361188D01*
X81584820Y-50397498D01*
X81474506Y-50456463D01*
X81377815Y-50535815D01*
X81298463Y-50632506D01*
X81239498Y-50742820D01*
X81203188Y-50862518D01*
X81190928Y-50987000D01*
X78511000Y-50987000D01*
X78511000Y-50616654D01*
X78525494Y-50468830D01*
X78562660Y-50345731D01*
X78623028Y-50232196D01*
X78704296Y-50132551D01*
X78803372Y-50050588D01*
X78916487Y-49989426D01*
X79039318Y-49951404D01*
X79185878Y-49936000D01*
X97473000Y-49936000D01*
X97473000Y-64428961D01*
G37*
X97473000Y-64428961D02*
X97372191Y-64449013D01*
X97230058Y-64507887D01*
X97102141Y-64593358D01*
X96993358Y-64702141D01*
X96907887Y-64830058D01*
X96849013Y-64972191D01*
X96819000Y-65123078D01*
X96819000Y-65276922D01*
X96849013Y-65427809D01*
X96907887Y-65569942D01*
X96993358Y-65697859D01*
X97094000Y-65798501D01*
X97094000Y-65897868D01*
X97086666Y-65905583D01*
X97041696Y-65868678D01*
X96975508Y-65833299D01*
X96903689Y-65811513D01*
X96829000Y-65804157D01*
X95829000Y-65804157D01*
X95754311Y-65811513D01*
X95682492Y-65833299D01*
X95616304Y-65868678D01*
X95558289Y-65916289D01*
X95510678Y-65974304D01*
X95475299Y-66040492D01*
X95453513Y-66112311D01*
X95446157Y-66187000D01*
X95446157Y-68687000D01*
X95453513Y-68761689D01*
X95475299Y-68833508D01*
X95510678Y-68899696D01*
X95558289Y-68957711D01*
X95616304Y-69005322D01*
X95682492Y-69040701D01*
X95754311Y-69062487D01*
X95829000Y-69069843D01*
X96829000Y-69069843D01*
X96903689Y-69062487D01*
X96975508Y-69040701D01*
X97041696Y-69005322D01*
X97099711Y-68957711D01*
X97147322Y-68899696D01*
X97182701Y-68833508D01*
X97204487Y-68761689D01*
X97211843Y-68687000D01*
X97211843Y-67242720D01*
X97473000Y-66968002D01*
X97473000Y-67700000D01*
X97475440Y-67724776D01*
X97482667Y-67748601D01*
X97494403Y-67770557D01*
X97510197Y-67789803D01*
X97529443Y-67805597D01*
X97551399Y-67817333D01*
X97575224Y-67824560D01*
X97600000Y-67827000D01*
X103060800Y-67827000D01*
X103060800Y-77272346D01*
X103046306Y-77420171D01*
X103009140Y-77543269D01*
X102948772Y-77656804D01*
X102867502Y-77756451D01*
X102768426Y-77838413D01*
X102655313Y-77899574D01*
X102532482Y-77937596D01*
X102385923Y-77953000D01*
X101637988Y-77953000D01*
X101635000Y-76285750D01*
X101476250Y-76127000D01*
X100127000Y-76127000D01*
X100127000Y-76147000D01*
X99873000Y-76147000D01*
X99873000Y-76127000D01*
X98523750Y-76127000D01*
X98500000Y-76150750D01*
X98476250Y-76127000D01*
X97127000Y-76127000D01*
X97127000Y-76147000D01*
X96873000Y-76147000D01*
X96873000Y-76127000D01*
X95523750Y-76127000D01*
X95500000Y-76150750D01*
X95476250Y-76127000D01*
X94127000Y-76127000D01*
X94127000Y-76147000D01*
X93873000Y-76147000D01*
X93873000Y-76127000D01*
X92523750Y-76127000D01*
X92500000Y-76150750D01*
X92476250Y-76127000D01*
X91127000Y-76127000D01*
X91127000Y-76147000D01*
X90873000Y-76147000D01*
X90873000Y-76127000D01*
X89523750Y-76127000D01*
X89365000Y-76285750D01*
X89362012Y-77953000D01*
X79191654Y-77953000D01*
X79043829Y-77938506D01*
X78920731Y-77901340D01*
X78807196Y-77840972D01*
X78707549Y-77759702D01*
X78625587Y-77660626D01*
X78564426Y-77547513D01*
X78526404Y-77424682D01*
X78511000Y-77278123D01*
X78511000Y-75849210D01*
X78719000Y-75849210D01*
X78719000Y-76150790D01*
X78777835Y-76446576D01*
X78893245Y-76725201D01*
X79060795Y-76975956D01*
X79274044Y-77189205D01*
X79524799Y-77356755D01*
X79803424Y-77472165D01*
X80099210Y-77531000D01*
X80400790Y-77531000D01*
X80696576Y-77472165D01*
X80975201Y-77356755D01*
X81225956Y-77189205D01*
X81439205Y-76975956D01*
X81606755Y-76725201D01*
X81722165Y-76446576D01*
X81781000Y-76150790D01*
X81781000Y-75849210D01*
X81919000Y-75849210D01*
X81919000Y-76150790D01*
X81977835Y-76446576D01*
X82093245Y-76725201D01*
X82260795Y-76975956D01*
X82474044Y-77189205D01*
X82724799Y-77356755D01*
X83003424Y-77472165D01*
X83299210Y-77531000D01*
X83600790Y-77531000D01*
X83896576Y-77472165D01*
X84175201Y-77356755D01*
X84425956Y-77189205D01*
X84639205Y-76975956D01*
X84806755Y-76725201D01*
X84922165Y-76446576D01*
X84981000Y-76150790D01*
X84981000Y-75849210D01*
X84922165Y-75553424D01*
X84806755Y-75274799D01*
X84639205Y-75024044D01*
X84425956Y-74810795D01*
X84175201Y-74643245D01*
X83896576Y-74527835D01*
X83600790Y-74469000D01*
X83299210Y-74469000D01*
X83003424Y-74527835D01*
X82724799Y-74643245D01*
X82474044Y-74810795D01*
X82260795Y-75024044D01*
X82093245Y-75274799D01*
X81977835Y-75553424D01*
X81919000Y-75849210D01*
X81781000Y-75849210D01*
X81722165Y-75553424D01*
X81606755Y-75274799D01*
X81439205Y-75024044D01*
X81225956Y-74810795D01*
X80975201Y-74643245D01*
X80696576Y-74527835D01*
X80400790Y-74469000D01*
X80099210Y-74469000D01*
X79803424Y-74527835D01*
X79524799Y-74643245D01*
X79274044Y-74810795D01*
X79060795Y-75024044D01*
X78893245Y-75274799D01*
X78777835Y-75553424D01*
X78719000Y-75849210D01*
X78511000Y-75849210D01*
X78511000Y-74000000D01*
X89361928Y-74000000D01*
X89365000Y-75714250D01*
X89523750Y-75873000D01*
X90873000Y-75873000D01*
X90873000Y-73523750D01*
X91127000Y-73523750D01*
X91127000Y-75873000D01*
X92476250Y-75873000D01*
X92500000Y-75849250D01*
X92523750Y-75873000D01*
X93873000Y-75873000D01*
X93873000Y-73523750D01*
X94127000Y-73523750D01*
X94127000Y-75873000D01*
X95476250Y-75873000D01*
X95500000Y-75849250D01*
X95523750Y-75873000D01*
X96873000Y-75873000D01*
X96873000Y-73523750D01*
X97127000Y-73523750D01*
X97127000Y-75873000D01*
X98476250Y-75873000D01*
X98500000Y-75849250D01*
X98523750Y-75873000D01*
X99873000Y-75873000D01*
X99873000Y-73523750D01*
X100127000Y-73523750D01*
X100127000Y-75873000D01*
X101476250Y-75873000D01*
X101635000Y-75714250D01*
X101638072Y-74000000D01*
X101625812Y-73875518D01*
X101589502Y-73755820D01*
X101530537Y-73645506D01*
X101451185Y-73548815D01*
X101354494Y-73469463D01*
X101244180Y-73410498D01*
X101124482Y-73374188D01*
X101000000Y-73361928D01*
X100285750Y-73365000D01*
X100127000Y-73523750D01*
X99873000Y-73523750D01*
X99714250Y-73365000D01*
X99000000Y-73361928D01*
X98875518Y-73374188D01*
X98755820Y-73410498D01*
X98645506Y-73469463D01*
X98548815Y-73548815D01*
X98500000Y-73608296D01*
X98451185Y-73548815D01*
X98354494Y-73469463D01*
X98244180Y-73410498D01*
X98124482Y-73374188D01*
X98000000Y-73361928D01*
X97285750Y-73365000D01*
X97127000Y-73523750D01*
X96873000Y-73523750D01*
X96714250Y-73365000D01*
X96000000Y-73361928D01*
X95875518Y-73374188D01*
X95755820Y-73410498D01*
X95645506Y-73469463D01*
X95548815Y-73548815D01*
X95500000Y-73608296D01*
X95451185Y-73548815D01*
X95354494Y-73469463D01*
X95244180Y-73410498D01*
X95124482Y-73374188D01*
X95000000Y-73361928D01*
X94285750Y-73365000D01*
X94127000Y-73523750D01*
X93873000Y-73523750D01*
X93714250Y-73365000D01*
X93000000Y-73361928D01*
X92875518Y-73374188D01*
X92755820Y-73410498D01*
X92645506Y-73469463D01*
X92548815Y-73548815D01*
X92500000Y-73608296D01*
X92451185Y-73548815D01*
X92354494Y-73469463D01*
X92244180Y-73410498D01*
X92124482Y-73374188D01*
X92000000Y-73361928D01*
X91285750Y-73365000D01*
X91127000Y-73523750D01*
X90873000Y-73523750D01*
X90714250Y-73365000D01*
X90000000Y-73361928D01*
X89875518Y-73374188D01*
X89755820Y-73410498D01*
X89645506Y-73469463D01*
X89548815Y-73548815D01*
X89469463Y-73645506D01*
X89410498Y-73755820D01*
X89374188Y-73875518D01*
X89361928Y-74000000D01*
X78511000Y-74000000D01*
X78511000Y-59928011D01*
X78837937Y-59928011D01*
X78840989Y-59959001D01*
X78840990Y-68040989D01*
X78837937Y-68071989D01*
X78850119Y-68195686D01*
X78886200Y-68314630D01*
X78944793Y-68424249D01*
X79003886Y-68496254D01*
X79003889Y-68496257D01*
X79023647Y-68520332D01*
X79047722Y-68540090D01*
X79527553Y-69019922D01*
X79549013Y-69127809D01*
X79607887Y-69269942D01*
X79693358Y-69397859D01*
X79802141Y-69506642D01*
X79930058Y-69592113D01*
X80072191Y-69650987D01*
X80223078Y-69681000D01*
X80376922Y-69681000D01*
X80527809Y-69650987D01*
X80669942Y-69592113D01*
X80797859Y-69506642D01*
X80906642Y-69397859D01*
X80992113Y-69269942D01*
X81050987Y-69127809D01*
X81081000Y-68976922D01*
X81081000Y-68823078D01*
X81050987Y-68672191D01*
X80992113Y-68530058D01*
X80906642Y-68402141D01*
X80797859Y-68293358D01*
X80669942Y-68207887D01*
X80527809Y-68149013D01*
X80419922Y-68127553D01*
X80102989Y-67810621D01*
X80102989Y-63419580D01*
X81515000Y-64831592D01*
X81515000Y-64973922D01*
X81545013Y-65124809D01*
X81603887Y-65266942D01*
X81689358Y-65394859D01*
X81790001Y-65495502D01*
X81790001Y-65807998D01*
X81754311Y-65811513D01*
X81682492Y-65833299D01*
X81616304Y-65868678D01*
X81558289Y-65916289D01*
X81510678Y-65974304D01*
X81475299Y-66040492D01*
X81453513Y-66112311D01*
X81446157Y-66187000D01*
X81446157Y-68687000D01*
X81453513Y-68761689D01*
X81475299Y-68833508D01*
X81510678Y-68899696D01*
X81558289Y-68957711D01*
X81616304Y-69005322D01*
X81682492Y-69040701D01*
X81754311Y-69062487D01*
X81829000Y-69069843D01*
X82829000Y-69069843D01*
X82903689Y-69062487D01*
X82975508Y-69040701D01*
X83041696Y-69005322D01*
X83099711Y-68957711D01*
X83147322Y-68899696D01*
X83182701Y-68833508D01*
X83204487Y-68761689D01*
X83211843Y-68687000D01*
X83211843Y-66187000D01*
X83446157Y-66187000D01*
X83446157Y-68687000D01*
X83453513Y-68761689D01*
X83475299Y-68833508D01*
X83510678Y-68899696D01*
X83558289Y-68957711D01*
X83616304Y-69005322D01*
X83682492Y-69040701D01*
X83754311Y-69062487D01*
X83829000Y-69069843D01*
X84829000Y-69069843D01*
X84903689Y-69062487D01*
X84975508Y-69040701D01*
X85041696Y-69005322D01*
X85099711Y-68957711D01*
X85147322Y-68899696D01*
X85182701Y-68833508D01*
X85204487Y-68761689D01*
X85211843Y-68687000D01*
X85211843Y-66187000D01*
X85446157Y-66187000D01*
X85446157Y-68687000D01*
X85453513Y-68761689D01*
X85475299Y-68833508D01*
X85510678Y-68899696D01*
X85558289Y-68957711D01*
X85616304Y-69005322D01*
X85682492Y-69040701D01*
X85754311Y-69062487D01*
X85829000Y-69069843D01*
X86829000Y-69069843D01*
X86903689Y-69062487D01*
X86975508Y-69040701D01*
X87041696Y-69005322D01*
X87099711Y-68957711D01*
X87147322Y-68899696D01*
X87182701Y-68833508D01*
X87204487Y-68761689D01*
X87211843Y-68687000D01*
X87211843Y-66187000D01*
X87446157Y-66187000D01*
X87446157Y-68687000D01*
X87453513Y-68761689D01*
X87475299Y-68833508D01*
X87510678Y-68899696D01*
X87558289Y-68957711D01*
X87616304Y-69005322D01*
X87682492Y-69040701D01*
X87754311Y-69062487D01*
X87829000Y-69069843D01*
X88829000Y-69069843D01*
X88903689Y-69062487D01*
X88975508Y-69040701D01*
X89041696Y-69005322D01*
X89099711Y-68957711D01*
X89147322Y-68899696D01*
X89182701Y-68833508D01*
X89204487Y-68761689D01*
X89211843Y-68687000D01*
X89211843Y-66187000D01*
X89446157Y-66187000D01*
X89446157Y-68687000D01*
X89453513Y-68761689D01*
X89475299Y-68833508D01*
X89510678Y-68899696D01*
X89558289Y-68957711D01*
X89616304Y-69005322D01*
X89682492Y-69040701D01*
X89754311Y-69062487D01*
X89829000Y-69069843D01*
X90829000Y-69069843D01*
X90903689Y-69062487D01*
X90975508Y-69040701D01*
X91041696Y-69005322D01*
X91099711Y-68957711D01*
X91147322Y-68899696D01*
X91182701Y-68833508D01*
X91204487Y-68761689D01*
X91211843Y-68687000D01*
X91211843Y-66187000D01*
X91204487Y-66112311D01*
X91182701Y-66040492D01*
X91147322Y-65974304D01*
X91099711Y-65916289D01*
X91041696Y-65868678D01*
X90975508Y-65833299D01*
X90903689Y-65811513D01*
X90829000Y-65804157D01*
X89829000Y-65804157D01*
X89754311Y-65811513D01*
X89682492Y-65833299D01*
X89616304Y-65868678D01*
X89558289Y-65916289D01*
X89510678Y-65974304D01*
X89475299Y-66040492D01*
X89453513Y-66112311D01*
X89446157Y-66187000D01*
X89211843Y-66187000D01*
X89204487Y-66112311D01*
X89182701Y-66040492D01*
X89147322Y-65974304D01*
X89099711Y-65916289D01*
X89056711Y-65881000D01*
X89176922Y-65881000D01*
X89327809Y-65850987D01*
X89469942Y-65792113D01*
X89597859Y-65706642D01*
X89706642Y-65597859D01*
X89792113Y-65469942D01*
X89850987Y-65327809D01*
X89881000Y-65176922D01*
X89881000Y-65023078D01*
X89850987Y-64872191D01*
X89792113Y-64730058D01*
X89706642Y-64602141D01*
X89597859Y-64493358D01*
X89469942Y-64407887D01*
X89327809Y-64349013D01*
X89176922Y-64319000D01*
X89023078Y-64319000D01*
X88872191Y-64349013D01*
X88730058Y-64407887D01*
X88602141Y-64493358D01*
X88493358Y-64602141D01*
X88407887Y-64730058D01*
X88349013Y-64872191D01*
X88319000Y-65023078D01*
X88319000Y-65165409D01*
X87988780Y-65495629D01*
X87969474Y-65511473D01*
X87906242Y-65588521D01*
X87886485Y-65625483D01*
X87859255Y-65676426D01*
X87830322Y-65771808D01*
X87827118Y-65804342D01*
X87754311Y-65811513D01*
X87682492Y-65833299D01*
X87616304Y-65868678D01*
X87558289Y-65916289D01*
X87510678Y-65974304D01*
X87475299Y-66040492D01*
X87453513Y-66112311D01*
X87446157Y-66187000D01*
X87211843Y-66187000D01*
X87204487Y-66112311D01*
X87182701Y-66040492D01*
X87147322Y-65974304D01*
X87099711Y-65916289D01*
X87080812Y-65900779D01*
X87104322Y-65877269D01*
X87123078Y-65881000D01*
X87276922Y-65881000D01*
X87427809Y-65850987D01*
X87569942Y-65792113D01*
X87697859Y-65706642D01*
X87806642Y-65597859D01*
X87892113Y-65469942D01*
X87950987Y-65327809D01*
X87981000Y-65176922D01*
X87981000Y-65023078D01*
X87950987Y-64872191D01*
X87892113Y-64730058D01*
X87806642Y-64602141D01*
X87697859Y-64493358D01*
X87569942Y-64407887D01*
X87427809Y-64349013D01*
X87276922Y-64319000D01*
X87123078Y-64319000D01*
X86972191Y-64349013D01*
X86830058Y-64407887D01*
X86702141Y-64493358D01*
X86593358Y-64602141D01*
X86507887Y-64730058D01*
X86449013Y-64872191D01*
X86419000Y-65023078D01*
X86419000Y-65131408D01*
X85988785Y-65561624D01*
X85969473Y-65577473D01*
X85906241Y-65654521D01*
X85859255Y-65742426D01*
X85840530Y-65804157D01*
X85829000Y-65804157D01*
X85754311Y-65811513D01*
X85682492Y-65833299D01*
X85616304Y-65868678D01*
X85558289Y-65916289D01*
X85510678Y-65974304D01*
X85475299Y-66040492D01*
X85453513Y-66112311D01*
X85446157Y-66187000D01*
X85211843Y-66187000D01*
X85204487Y-66112311D01*
X85182701Y-66040492D01*
X85147322Y-65974304D01*
X85099711Y-65916289D01*
X85056711Y-65881000D01*
X85176922Y-65881000D01*
X85327809Y-65850987D01*
X85469942Y-65792113D01*
X85597859Y-65706642D01*
X85706642Y-65597859D01*
X85792113Y-65469942D01*
X85850987Y-65327809D01*
X85881000Y-65176922D01*
X85881000Y-65023078D01*
X85850987Y-64872191D01*
X85792113Y-64730058D01*
X85706642Y-64602141D01*
X85597859Y-64493358D01*
X85469942Y-64407887D01*
X85327809Y-64349013D01*
X85176922Y-64319000D01*
X85023078Y-64319000D01*
X84872191Y-64349013D01*
X84730058Y-64407887D01*
X84602141Y-64493358D01*
X84493358Y-64602141D01*
X84407887Y-64730058D01*
X84349013Y-64872191D01*
X84319000Y-65023078D01*
X84319000Y-65165409D01*
X84055827Y-65428582D01*
X84046521Y-65433556D01*
X83969473Y-65496788D01*
X83906241Y-65573836D01*
X83859255Y-65661740D01*
X83830322Y-65757122D01*
X83825657Y-65804486D01*
X83754311Y-65811513D01*
X83682492Y-65833299D01*
X83616304Y-65868678D01*
X83558289Y-65916289D01*
X83510678Y-65974304D01*
X83475299Y-66040492D01*
X83453513Y-66112311D01*
X83446157Y-66187000D01*
X83211843Y-66187000D01*
X83204487Y-66112311D01*
X83182701Y-66040492D01*
X83147322Y-65974304D01*
X83099711Y-65916289D01*
X83041696Y-65868678D01*
X82975508Y-65833299D01*
X82903689Y-65811513D01*
X82829000Y-65804157D01*
X82817471Y-65804157D01*
X82802000Y-65753156D01*
X82802000Y-65495501D01*
X82902642Y-65394859D01*
X82988113Y-65266942D01*
X83046987Y-65124809D01*
X83077000Y-64973922D01*
X83077000Y-64820078D01*
X83046987Y-64669191D01*
X82988113Y-64527058D01*
X82902642Y-64399141D01*
X82793859Y-64290358D01*
X82665942Y-64204887D01*
X82523809Y-64146013D01*
X82372922Y-64116000D01*
X82230592Y-64116000D01*
X80552999Y-62438408D01*
X80552999Y-61458739D01*
X80695078Y-61487000D01*
X80837409Y-61487000D01*
X81412628Y-62062220D01*
X81428473Y-62081527D01*
X81505521Y-62144759D01*
X81593425Y-62191745D01*
X81688807Y-62220678D01*
X81763146Y-62228000D01*
X81763154Y-62228000D01*
X81788000Y-62230447D01*
X81812846Y-62228000D01*
X90271411Y-62228000D01*
X90662411Y-62619000D01*
X90623078Y-62619000D01*
X90472191Y-62649013D01*
X90330058Y-62707887D01*
X90202141Y-62793358D01*
X90093358Y-62902141D01*
X90007887Y-63030058D01*
X89949013Y-63172191D01*
X89919000Y-63323078D01*
X89919000Y-63476922D01*
X89949013Y-63627809D01*
X90007887Y-63769942D01*
X90093358Y-63897859D01*
X90202141Y-64006642D01*
X90330058Y-64092113D01*
X90472191Y-64150987D01*
X90623078Y-64181000D01*
X90722437Y-64181000D01*
X91823000Y-65402961D01*
X91823000Y-65804748D01*
X91754311Y-65811513D01*
X91682492Y-65833299D01*
X91616304Y-65868678D01*
X91558289Y-65916289D01*
X91510678Y-65974304D01*
X91475299Y-66040492D01*
X91453513Y-66112311D01*
X91446157Y-66187000D01*
X91446157Y-68687000D01*
X91453513Y-68761689D01*
X91475299Y-68833508D01*
X91510678Y-68899696D01*
X91558289Y-68957711D01*
X91616304Y-69005322D01*
X91682492Y-69040701D01*
X91754311Y-69062487D01*
X91829000Y-69069843D01*
X92829000Y-69069843D01*
X92903689Y-69062487D01*
X92975508Y-69040701D01*
X93041696Y-69005322D01*
X93099711Y-68957711D01*
X93147322Y-68899696D01*
X93182701Y-68833508D01*
X93204487Y-68761689D01*
X93211843Y-68687000D01*
X93211843Y-66187000D01*
X93204487Y-66112311D01*
X93182701Y-66040492D01*
X93147322Y-65974304D01*
X93099711Y-65916289D01*
X93041696Y-65868678D01*
X92975508Y-65833299D01*
X92903689Y-65811513D01*
X92835000Y-65804748D01*
X92835000Y-65246806D01*
X92836755Y-65235225D01*
X92835000Y-65197063D01*
X92835000Y-65183831D01*
X92833858Y-65172241D01*
X92832176Y-65135657D01*
X92828982Y-65122736D01*
X92827678Y-65109492D01*
X92817049Y-65074452D01*
X92808261Y-65038895D01*
X92802608Y-65026846D01*
X92798745Y-65014110D01*
X92781479Y-64981808D01*
X92765927Y-64948658D01*
X92758034Y-64937946D01*
X92751759Y-64926206D01*
X92728518Y-64897887D01*
X92721617Y-64888521D01*
X92712771Y-64878699D01*
X92688527Y-64849158D01*
X92679470Y-64841725D01*
X91475438Y-63504884D01*
X91481000Y-63476922D01*
X91481000Y-63437589D01*
X93823001Y-65779591D01*
X93823001Y-65804748D01*
X93754311Y-65811513D01*
X93682492Y-65833299D01*
X93616304Y-65868678D01*
X93558289Y-65916289D01*
X93510678Y-65974304D01*
X93475299Y-66040492D01*
X93453513Y-66112311D01*
X93446157Y-66187000D01*
X93446157Y-68687000D01*
X93453513Y-68761689D01*
X93475299Y-68833508D01*
X93510678Y-68899696D01*
X93558289Y-68957711D01*
X93616304Y-69005322D01*
X93682492Y-69040701D01*
X93754311Y-69062487D01*
X93829000Y-69069843D01*
X94829000Y-69069843D01*
X94903689Y-69062487D01*
X94975508Y-69040701D01*
X95041696Y-69005322D01*
X95099711Y-68957711D01*
X95147322Y-68899696D01*
X95182701Y-68833508D01*
X95204487Y-68761689D01*
X95211843Y-68687000D01*
X95211843Y-66187000D01*
X95204487Y-66112311D01*
X95182701Y-66040492D01*
X95147322Y-65974304D01*
X95099711Y-65916289D01*
X95041696Y-65868678D01*
X94975508Y-65833299D01*
X94903689Y-65811513D01*
X94835000Y-65804748D01*
X94835000Y-65594844D01*
X94837447Y-65569998D01*
X94835000Y-65545152D01*
X94835000Y-65545144D01*
X94827678Y-65470805D01*
X94798745Y-65375423D01*
X94751759Y-65287519D01*
X94688527Y-65210471D01*
X94669220Y-65194626D01*
X90856378Y-61381785D01*
X90840529Y-61362473D01*
X90763481Y-61299241D01*
X90675577Y-61252255D01*
X90580195Y-61223322D01*
X90505856Y-61216000D01*
X90505848Y-61216000D01*
X90481002Y-61213553D01*
X90456156Y-61216000D01*
X81997592Y-61216000D01*
X81553000Y-60771409D01*
X81553000Y-60629078D01*
X81522987Y-60478191D01*
X81464113Y-60336058D01*
X81378642Y-60208141D01*
X81366501Y-60196000D01*
X83795154Y-60196000D01*
X83820000Y-60198447D01*
X83844846Y-60196000D01*
X83844854Y-60196000D01*
X83919193Y-60188678D01*
X84014575Y-60159745D01*
X84102479Y-60112759D01*
X84179527Y-60049527D01*
X84195376Y-60030215D01*
X84666371Y-59559221D01*
X84666376Y-59559215D01*
X84795215Y-59430376D01*
X84814527Y-59414527D01*
X84877759Y-59337479D01*
X84924745Y-59249575D01*
X84953678Y-59154193D01*
X84961000Y-59079854D01*
X84961000Y-59079853D01*
X84963448Y-59055000D01*
X84961000Y-59030146D01*
X84961000Y-57682845D01*
X84963447Y-57657999D01*
X84961000Y-57633153D01*
X84961000Y-57633146D01*
X84953678Y-57558807D01*
X84924745Y-57463425D01*
X84877759Y-57375521D01*
X84814527Y-57298473D01*
X84795220Y-57282628D01*
X83687376Y-56174785D01*
X83671527Y-56155473D01*
X83594479Y-56092241D01*
X83506575Y-56045255D01*
X83411193Y-56016322D01*
X83336854Y-56009000D01*
X83336846Y-56009000D01*
X83312000Y-56006553D01*
X83287154Y-56009000D01*
X80481501Y-56009000D01*
X80380859Y-55908358D01*
X80252942Y-55822887D01*
X80110809Y-55764013D01*
X79959922Y-55734000D01*
X79806078Y-55734000D01*
X79655191Y-55764013D01*
X79513058Y-55822887D01*
X79385141Y-55908358D01*
X79276358Y-56017141D01*
X79190887Y-56145058D01*
X79132013Y-56287191D01*
X79102000Y-56438078D01*
X79102000Y-56591922D01*
X79132013Y-56742809D01*
X79190887Y-56884942D01*
X79276358Y-57012859D01*
X79385141Y-57121642D01*
X79513058Y-57207113D01*
X79655191Y-57265987D01*
X79806078Y-57296000D01*
X79959922Y-57296000D01*
X80110809Y-57265987D01*
X80252942Y-57207113D01*
X80380859Y-57121642D01*
X80481501Y-57021000D01*
X83102409Y-57021000D01*
X83949001Y-57867593D01*
X83949001Y-57990613D01*
X83935942Y-57981887D01*
X83793809Y-57923013D01*
X83642922Y-57893000D01*
X83489078Y-57893000D01*
X83338191Y-57923013D01*
X83196058Y-57981887D01*
X83104595Y-58043000D01*
X80756987Y-58043000D01*
X80725999Y-58039948D01*
X80695011Y-58043000D01*
X80695002Y-58043000D01*
X80602302Y-58052130D01*
X80483358Y-58088211D01*
X80373739Y-58146804D01*
X80277657Y-58225657D01*
X80257899Y-58249732D01*
X79047726Y-59459906D01*
X79023646Y-59479668D01*
X78944793Y-59575751D01*
X78886200Y-59685370D01*
X78850119Y-59804314D01*
X78840989Y-59897014D01*
X78840989Y-59897021D01*
X78837937Y-59928011D01*
X78511000Y-59928011D01*
X78511000Y-55426766D01*
X89309600Y-55426766D01*
X89309600Y-55571234D01*
X89337784Y-55712925D01*
X89393069Y-55846395D01*
X89473331Y-55966515D01*
X89575485Y-56068669D01*
X89695605Y-56148931D01*
X89829075Y-56204216D01*
X89970766Y-56232400D01*
X90115234Y-56232400D01*
X90256925Y-56204216D01*
X90390395Y-56148931D01*
X90510515Y-56068669D01*
X90612669Y-55966515D01*
X90692931Y-55846395D01*
X90748216Y-55712925D01*
X90776400Y-55571234D01*
X90776400Y-55426766D01*
X90748216Y-55285075D01*
X90692931Y-55151605D01*
X90612669Y-55031485D01*
X90510515Y-54929331D01*
X90390395Y-54849069D01*
X90256925Y-54793784D01*
X90115234Y-54765600D01*
X89970766Y-54765600D01*
X89829075Y-54793784D01*
X89695605Y-54849069D01*
X89575485Y-54929331D01*
X89473331Y-55031485D01*
X89393069Y-55151605D01*
X89337784Y-55285075D01*
X89309600Y-55426766D01*
X78511000Y-55426766D01*
X78511000Y-53487000D01*
X81190928Y-53487000D01*
X81203188Y-53611482D01*
X81239498Y-53731180D01*
X81298463Y-53841494D01*
X81377815Y-53938185D01*
X81474506Y-54017537D01*
X81584820Y-54076502D01*
X81704518Y-54112812D01*
X81829000Y-54125072D01*
X82043250Y-54122000D01*
X82202000Y-53963250D01*
X82202000Y-52364000D01*
X81352750Y-52364000D01*
X81194000Y-52522750D01*
X81190928Y-53487000D01*
X78511000Y-53487000D01*
X78511000Y-50987000D01*
X81190928Y-50987000D01*
X81194000Y-51951250D01*
X81352750Y-52110000D01*
X82202000Y-52110000D01*
X82202000Y-50510750D01*
X82456000Y-50510750D01*
X82456000Y-52110000D01*
X82476000Y-52110000D01*
X82476000Y-52364000D01*
X82456000Y-52364000D01*
X82456000Y-53963250D01*
X82614750Y-54122000D01*
X82829000Y-54125072D01*
X82953482Y-54112812D01*
X83073180Y-54076502D01*
X83166000Y-54026888D01*
X83166000Y-54178922D01*
X83196013Y-54329809D01*
X83254887Y-54471942D01*
X83340358Y-54599859D01*
X83449141Y-54708642D01*
X83577058Y-54794113D01*
X83719191Y-54852987D01*
X83870078Y-54883000D01*
X84023922Y-54883000D01*
X84174809Y-54852987D01*
X84316942Y-54794113D01*
X84444859Y-54708642D01*
X84553642Y-54599859D01*
X84639113Y-54471942D01*
X84697987Y-54329809D01*
X84728000Y-54178922D01*
X84728000Y-54025078D01*
X84697987Y-53874191D01*
X84696186Y-53869843D01*
X84829000Y-53869843D01*
X84903689Y-53862487D01*
X84975508Y-53840701D01*
X85041696Y-53805322D01*
X85099711Y-53757711D01*
X85147322Y-53699696D01*
X85182701Y-53633508D01*
X85204487Y-53561689D01*
X85211843Y-53487000D01*
X85211843Y-50987000D01*
X85446157Y-50987000D01*
X85446157Y-53487000D01*
X85453513Y-53561689D01*
X85475299Y-53633508D01*
X85510678Y-53699696D01*
X85558289Y-53757711D01*
X85616304Y-53805322D01*
X85682492Y-53840701D01*
X85754311Y-53862487D01*
X85829000Y-53869843D01*
X86829000Y-53869843D01*
X86903689Y-53862487D01*
X86975508Y-53840701D01*
X87041696Y-53805322D01*
X87099711Y-53757711D01*
X87147322Y-53699696D01*
X87182701Y-53633508D01*
X87204487Y-53561689D01*
X87211843Y-53487000D01*
X87211843Y-50987000D01*
X87446157Y-50987000D01*
X87446157Y-53487000D01*
X87453513Y-53561689D01*
X87475299Y-53633508D01*
X87510678Y-53699696D01*
X87558289Y-53757711D01*
X87616304Y-53805322D01*
X87628187Y-53811674D01*
X87611000Y-53898078D01*
X87611000Y-54051922D01*
X87641013Y-54202809D01*
X87699887Y-54344942D01*
X87785358Y-54472859D01*
X87894141Y-54581642D01*
X88022058Y-54667113D01*
X88164191Y-54725987D01*
X88315078Y-54756000D01*
X88468922Y-54756000D01*
X88619809Y-54725987D01*
X88761942Y-54667113D01*
X88889859Y-54581642D01*
X88998642Y-54472859D01*
X89084113Y-54344942D01*
X89142987Y-54202809D01*
X89173000Y-54051922D01*
X89173000Y-53898078D01*
X89142987Y-53747191D01*
X89131367Y-53719138D01*
X89147322Y-53699696D01*
X89182701Y-53633508D01*
X89204487Y-53561689D01*
X89211843Y-53487000D01*
X89211843Y-50987000D01*
X89446157Y-50987000D01*
X89446157Y-53487000D01*
X89453513Y-53561689D01*
X89475299Y-53633508D01*
X89510678Y-53699696D01*
X89558289Y-53757711D01*
X89616304Y-53805322D01*
X89682492Y-53840701D01*
X89754311Y-53862487D01*
X89829000Y-53869843D01*
X89840530Y-53869843D01*
X89859255Y-53931574D01*
X89906241Y-54019479D01*
X89969473Y-54096527D01*
X89988785Y-54112376D01*
X95379001Y-59502593D01*
X95379000Y-61123499D01*
X95278358Y-61224141D01*
X95192887Y-61352058D01*
X95134013Y-61494191D01*
X95104000Y-61645078D01*
X95104000Y-61798922D01*
X95134013Y-61949809D01*
X95192887Y-62091942D01*
X95278358Y-62219859D01*
X95387141Y-62328642D01*
X95515058Y-62414113D01*
X95657191Y-62472987D01*
X95808078Y-62503000D01*
X95961922Y-62503000D01*
X96112809Y-62472987D01*
X96254942Y-62414113D01*
X96382859Y-62328642D01*
X96491642Y-62219859D01*
X96577113Y-62091942D01*
X96635987Y-61949809D01*
X96666000Y-61798922D01*
X96666000Y-61645078D01*
X96635987Y-61494191D01*
X96577113Y-61352058D01*
X96491642Y-61224141D01*
X96391000Y-61123499D01*
X96391000Y-59317854D01*
X96393448Y-59293000D01*
X96383678Y-59193807D01*
X96354745Y-59098425D01*
X96354660Y-59098266D01*
X96307759Y-59010521D01*
X96244527Y-58933473D01*
X96225220Y-58917628D01*
X91080812Y-53773221D01*
X91099711Y-53757711D01*
X91147322Y-53699696D01*
X91182701Y-53633508D01*
X91204487Y-53561689D01*
X91211843Y-53487000D01*
X91211843Y-50987000D01*
X91446157Y-50987000D01*
X91446157Y-53487000D01*
X91453513Y-53561689D01*
X91475299Y-53633508D01*
X91510678Y-53699696D01*
X91558289Y-53757711D01*
X91616304Y-53805322D01*
X91682492Y-53840701D01*
X91754311Y-53862487D01*
X91829000Y-53869843D01*
X91840530Y-53869843D01*
X91859255Y-53931574D01*
X91876187Y-53963250D01*
X91906242Y-54019479D01*
X91969474Y-54096527D01*
X91988781Y-54112372D01*
X94816628Y-56940220D01*
X94832473Y-56959527D01*
X94909521Y-57022759D01*
X94997425Y-57069745D01*
X95070607Y-57091944D01*
X95092806Y-57098678D01*
X95102694Y-57099652D01*
X95167146Y-57106000D01*
X95167153Y-57106000D01*
X95191999Y-57108447D01*
X95202875Y-57107376D01*
X95302141Y-57206642D01*
X95430058Y-57292113D01*
X95572191Y-57350987D01*
X95723078Y-57381000D01*
X95876922Y-57381000D01*
X96027809Y-57350987D01*
X96169942Y-57292113D01*
X96297859Y-57206642D01*
X96406642Y-57097859D01*
X96492113Y-56969942D01*
X96550987Y-56827809D01*
X96581000Y-56676922D01*
X96581000Y-56523078D01*
X96550987Y-56372191D01*
X96492113Y-56230058D01*
X96490341Y-56227406D01*
X96606925Y-56204216D01*
X96740395Y-56148931D01*
X96860515Y-56068669D01*
X96962669Y-55966515D01*
X97042931Y-55846395D01*
X97098216Y-55712925D01*
X97126400Y-55571234D01*
X97126400Y-55426766D01*
X97098216Y-55285075D01*
X97042931Y-55151605D01*
X96962669Y-55031485D01*
X96860515Y-54929331D01*
X96740395Y-54849069D01*
X96606925Y-54793784D01*
X96465234Y-54765600D01*
X96320766Y-54765600D01*
X96179075Y-54793784D01*
X96045605Y-54849069D01*
X95925485Y-54929331D01*
X95823331Y-55031485D01*
X95743069Y-55151605D01*
X95687784Y-55285075D01*
X95659600Y-55426766D01*
X95659600Y-55571234D01*
X95687784Y-55712925D01*
X95731722Y-55819000D01*
X95723078Y-55819000D01*
X95572191Y-55849013D01*
X95430058Y-55907887D01*
X95302141Y-55993358D01*
X95301545Y-55993954D01*
X93080812Y-53773221D01*
X93099711Y-53757711D01*
X93147322Y-53699696D01*
X93182701Y-53633508D01*
X93204487Y-53561689D01*
X93211843Y-53487000D01*
X93211843Y-50987000D01*
X93446157Y-50987000D01*
X93446157Y-53487000D01*
X93453513Y-53561689D01*
X93475299Y-53633508D01*
X93510678Y-53699696D01*
X93558289Y-53757711D01*
X93616304Y-53805322D01*
X93682492Y-53840701D01*
X93754311Y-53862487D01*
X93829000Y-53869843D01*
X93957423Y-53869843D01*
X93969474Y-53884527D01*
X93988780Y-53900371D01*
X94215000Y-54126591D01*
X94215000Y-54268922D01*
X94245013Y-54419809D01*
X94303887Y-54561942D01*
X94389358Y-54689859D01*
X94498141Y-54798642D01*
X94626058Y-54884113D01*
X94768191Y-54942987D01*
X94919078Y-54973000D01*
X95072922Y-54973000D01*
X95223809Y-54942987D01*
X95365942Y-54884113D01*
X95493859Y-54798642D01*
X95602642Y-54689859D01*
X95688113Y-54561942D01*
X95705783Y-54519284D01*
X95768141Y-54581642D01*
X95896058Y-54667113D01*
X96038191Y-54725987D01*
X96189078Y-54756000D01*
X96342922Y-54756000D01*
X96493809Y-54725987D01*
X96635942Y-54667113D01*
X96763859Y-54581642D01*
X96872642Y-54472859D01*
X96958113Y-54344942D01*
X97016987Y-54202809D01*
X97047000Y-54051922D01*
X97047000Y-53898078D01*
X97029813Y-53811674D01*
X97041696Y-53805322D01*
X97099711Y-53757711D01*
X97147322Y-53699696D01*
X97182701Y-53633508D01*
X97204487Y-53561689D01*
X97211843Y-53487000D01*
X97211843Y-50987000D01*
X97204487Y-50912311D01*
X97182701Y-50840492D01*
X97147322Y-50774304D01*
X97099711Y-50716289D01*
X97041696Y-50668678D01*
X96975508Y-50633299D01*
X96903689Y-50611513D01*
X96829000Y-50604157D01*
X95829000Y-50604157D01*
X95754311Y-50611513D01*
X95682492Y-50633299D01*
X95616304Y-50668678D01*
X95558289Y-50716289D01*
X95510678Y-50774304D01*
X95475299Y-50840492D01*
X95453513Y-50912311D01*
X95446157Y-50987000D01*
X95446157Y-53487000D01*
X95453166Y-53558168D01*
X95365942Y-53499887D01*
X95223809Y-53441013D01*
X95211843Y-53438633D01*
X95211843Y-50987000D01*
X95204487Y-50912311D01*
X95182701Y-50840492D01*
X95147322Y-50774304D01*
X95099711Y-50716289D01*
X95041696Y-50668678D01*
X94975508Y-50633299D01*
X94903689Y-50611513D01*
X94829000Y-50604157D01*
X93829000Y-50604157D01*
X93754311Y-50611513D01*
X93682492Y-50633299D01*
X93616304Y-50668678D01*
X93558289Y-50716289D01*
X93510678Y-50774304D01*
X93475299Y-50840492D01*
X93453513Y-50912311D01*
X93446157Y-50987000D01*
X93211843Y-50987000D01*
X93204487Y-50912311D01*
X93182701Y-50840492D01*
X93147322Y-50774304D01*
X93099711Y-50716289D01*
X93041696Y-50668678D01*
X92975508Y-50633299D01*
X92903689Y-50611513D01*
X92829000Y-50604157D01*
X91829000Y-50604157D01*
X91754311Y-50611513D01*
X91682492Y-50633299D01*
X91616304Y-50668678D01*
X91558289Y-50716289D01*
X91510678Y-50774304D01*
X91475299Y-50840492D01*
X91453513Y-50912311D01*
X91446157Y-50987000D01*
X91211843Y-50987000D01*
X91204487Y-50912311D01*
X91182701Y-50840492D01*
X91147322Y-50774304D01*
X91099711Y-50716289D01*
X91041696Y-50668678D01*
X90975508Y-50633299D01*
X90903689Y-50611513D01*
X90829000Y-50604157D01*
X89829000Y-50604157D01*
X89754311Y-50611513D01*
X89682492Y-50633299D01*
X89616304Y-50668678D01*
X89558289Y-50716289D01*
X89510678Y-50774304D01*
X89475299Y-50840492D01*
X89453513Y-50912311D01*
X89446157Y-50987000D01*
X89211843Y-50987000D01*
X89204487Y-50912311D01*
X89182701Y-50840492D01*
X89147322Y-50774304D01*
X89099711Y-50716289D01*
X89041696Y-50668678D01*
X88975508Y-50633299D01*
X88903689Y-50611513D01*
X88829000Y-50604157D01*
X87829000Y-50604157D01*
X87754311Y-50611513D01*
X87682492Y-50633299D01*
X87616304Y-50668678D01*
X87558289Y-50716289D01*
X87510678Y-50774304D01*
X87475299Y-50840492D01*
X87453513Y-50912311D01*
X87446157Y-50987000D01*
X87211843Y-50987000D01*
X87204487Y-50912311D01*
X87182701Y-50840492D01*
X87147322Y-50774304D01*
X87099711Y-50716289D01*
X87041696Y-50668678D01*
X86975508Y-50633299D01*
X86903689Y-50611513D01*
X86829000Y-50604157D01*
X85829000Y-50604157D01*
X85754311Y-50611513D01*
X85682492Y-50633299D01*
X85616304Y-50668678D01*
X85558289Y-50716289D01*
X85510678Y-50774304D01*
X85475299Y-50840492D01*
X85453513Y-50912311D01*
X85446157Y-50987000D01*
X85211843Y-50987000D01*
X85204487Y-50912311D01*
X85182701Y-50840492D01*
X85147322Y-50774304D01*
X85099711Y-50716289D01*
X85041696Y-50668678D01*
X84975508Y-50633299D01*
X84903689Y-50611513D01*
X84829000Y-50604157D01*
X83829000Y-50604157D01*
X83754311Y-50611513D01*
X83682492Y-50633299D01*
X83616304Y-50668678D01*
X83558289Y-50716289D01*
X83510678Y-50774304D01*
X83475299Y-50840492D01*
X83458196Y-50896874D01*
X83454812Y-50862518D01*
X83418502Y-50742820D01*
X83359537Y-50632506D01*
X83280185Y-50535815D01*
X83183494Y-50456463D01*
X83073180Y-50397498D01*
X82953482Y-50361188D01*
X82829000Y-50348928D01*
X82614750Y-50352000D01*
X82456000Y-50510750D01*
X82202000Y-50510750D01*
X82043250Y-50352000D01*
X81829000Y-50348928D01*
X81704518Y-50361188D01*
X81584820Y-50397498D01*
X81474506Y-50456463D01*
X81377815Y-50535815D01*
X81298463Y-50632506D01*
X81239498Y-50742820D01*
X81203188Y-50862518D01*
X81190928Y-50987000D01*
X78511000Y-50987000D01*
X78511000Y-50616654D01*
X78525494Y-50468830D01*
X78562660Y-50345731D01*
X78623028Y-50232196D01*
X78704296Y-50132551D01*
X78803372Y-50050588D01*
X78916487Y-49989426D01*
X79039318Y-49951404D01*
X79185878Y-49936000D01*
X97473000Y-49936000D01*
X97473000Y-64428961D01*
G36*
X97473000Y-64428961D02*
G01*
X97372191Y-64449013D01*
X97230058Y-64507887D01*
X97102141Y-64593358D01*
X96993358Y-64702141D01*
X96907887Y-64830058D01*
X96849013Y-64972191D01*
X96819000Y-65123078D01*
X96819000Y-65276922D01*
X96849013Y-65427809D01*
X96907887Y-65569942D01*
X96993358Y-65697859D01*
X97094000Y-65798501D01*
X97094000Y-65897868D01*
X97086666Y-65905583D01*
X97041696Y-65868678D01*
X96975508Y-65833299D01*
X96903689Y-65811513D01*
X96829000Y-65804157D01*
X95829000Y-65804157D01*
X95754311Y-65811513D01*
X95682492Y-65833299D01*
X95616304Y-65868678D01*
X95558289Y-65916289D01*
X95510678Y-65974304D01*
X95475299Y-66040492D01*
X95453513Y-66112311D01*
X95446157Y-66187000D01*
X95446157Y-68687000D01*
X95453513Y-68761689D01*
X95475299Y-68833508D01*
X95510678Y-68899696D01*
X95558289Y-68957711D01*
X95616304Y-69005322D01*
X95682492Y-69040701D01*
X95754311Y-69062487D01*
X95829000Y-69069843D01*
X96829000Y-69069843D01*
X96903689Y-69062487D01*
X96975508Y-69040701D01*
X97041696Y-69005322D01*
X97099711Y-68957711D01*
X97147322Y-68899696D01*
X97182701Y-68833508D01*
X97204487Y-68761689D01*
X97211843Y-68687000D01*
X97211843Y-67242720D01*
X97473000Y-66968002D01*
X97473000Y-67800000D01*
X97475440Y-67824776D01*
X97482667Y-67848601D01*
X97494403Y-67870557D01*
X97510197Y-67889803D01*
X97529443Y-67905597D01*
X97551399Y-67917333D01*
X97575224Y-67924560D01*
X97600000Y-67927000D01*
X103060800Y-67927000D01*
X103060800Y-77272346D01*
X103046306Y-77420171D01*
X103009140Y-77543269D01*
X102948772Y-77656804D01*
X102867502Y-77756451D01*
X102768426Y-77838413D01*
X102655313Y-77899574D01*
X102532482Y-77937596D01*
X102385923Y-77953000D01*
X101637988Y-77953000D01*
X101635000Y-76285750D01*
X101476250Y-76127000D01*
X100127000Y-76127000D01*
X100127000Y-76147000D01*
X99873000Y-76147000D01*
X99873000Y-76127000D01*
X98523750Y-76127000D01*
X98500000Y-76150750D01*
X98476250Y-76127000D01*
X97127000Y-76127000D01*
X97127000Y-76147000D01*
X96873000Y-76147000D01*
X96873000Y-76127000D01*
X95523750Y-76127000D01*
X95500000Y-76150750D01*
X95476250Y-76127000D01*
X94127000Y-76127000D01*
X94127000Y-76147000D01*
X93873000Y-76147000D01*
X93873000Y-76127000D01*
X92523750Y-76127000D01*
X92500000Y-76150750D01*
X92476250Y-76127000D01*
X91127000Y-76127000D01*
X91127000Y-76147000D01*
X90873000Y-76147000D01*
X90873000Y-76127000D01*
X89523750Y-76127000D01*
X89365000Y-76285750D01*
X89362012Y-77953000D01*
X79191654Y-77953000D01*
X79043829Y-77938506D01*
X78920731Y-77901340D01*
X78807196Y-77840972D01*
X78707549Y-77759702D01*
X78625587Y-77660626D01*
X78564426Y-77547513D01*
X78526404Y-77424682D01*
X78511000Y-77278123D01*
X78511000Y-75849210D01*
X78719000Y-75849210D01*
X78719000Y-76150790D01*
X78777835Y-76446576D01*
X78893245Y-76725201D01*
X79060795Y-76975956D01*
X79274044Y-77189205D01*
X79524799Y-77356755D01*
X79803424Y-77472165D01*
X80099210Y-77531000D01*
X80400790Y-77531000D01*
X80696576Y-77472165D01*
X80975201Y-77356755D01*
X81225956Y-77189205D01*
X81439205Y-76975956D01*
X81606755Y-76725201D01*
X81722165Y-76446576D01*
X81781000Y-76150790D01*
X81781000Y-75849210D01*
X81919000Y-75849210D01*
X81919000Y-76150790D01*
X81977835Y-76446576D01*
X82093245Y-76725201D01*
X82260795Y-76975956D01*
X82474044Y-77189205D01*
X82724799Y-77356755D01*
X83003424Y-77472165D01*
X83299210Y-77531000D01*
X83600790Y-77531000D01*
X83896576Y-77472165D01*
X84175201Y-77356755D01*
X84425956Y-77189205D01*
X84639205Y-76975956D01*
X84806755Y-76725201D01*
X84922165Y-76446576D01*
X84981000Y-76150790D01*
X84981000Y-75849210D01*
X84922165Y-75553424D01*
X84806755Y-75274799D01*
X84639205Y-75024044D01*
X84425956Y-74810795D01*
X84175201Y-74643245D01*
X83896576Y-74527835D01*
X83600790Y-74469000D01*
X83299210Y-74469000D01*
X83003424Y-74527835D01*
X82724799Y-74643245D01*
X82474044Y-74810795D01*
X82260795Y-75024044D01*
X82093245Y-75274799D01*
X81977835Y-75553424D01*
X81919000Y-75849210D01*
X81781000Y-75849210D01*
X81722165Y-75553424D01*
X81606755Y-75274799D01*
X81439205Y-75024044D01*
X81225956Y-74810795D01*
X80975201Y-74643245D01*
X80696576Y-74527835D01*
X80400790Y-74469000D01*
X80099210Y-74469000D01*
X79803424Y-74527835D01*
X79524799Y-74643245D01*
X79274044Y-74810795D01*
X79060795Y-75024044D01*
X78893245Y-75274799D01*
X78777835Y-75553424D01*
X78719000Y-75849210D01*
X78511000Y-75849210D01*
X78511000Y-74000000D01*
X89361928Y-74000000D01*
X89365000Y-75714250D01*
X89523750Y-75873000D01*
X90873000Y-75873000D01*
X90873000Y-73523750D01*
X91127000Y-73523750D01*
X91127000Y-75873000D01*
X92476250Y-75873000D01*
X92500000Y-75849250D01*
X92523750Y-75873000D01*
X93873000Y-75873000D01*
X93873000Y-73523750D01*
X94127000Y-73523750D01*
X94127000Y-75873000D01*
X95476250Y-75873000D01*
X95500000Y-75849250D01*
X95523750Y-75873000D01*
X96873000Y-75873000D01*
X96873000Y-73523750D01*
X97127000Y-73523750D01*
X97127000Y-75873000D01*
X98476250Y-75873000D01*
X98500000Y-75849250D01*
X98523750Y-75873000D01*
X99873000Y-75873000D01*
X99873000Y-73523750D01*
X100127000Y-73523750D01*
X100127000Y-75873000D01*
X101476250Y-75873000D01*
X101635000Y-75714250D01*
X101638072Y-74000000D01*
X101625812Y-73875518D01*
X101589502Y-73755820D01*
X101530537Y-73645506D01*
X101451185Y-73548815D01*
X101354494Y-73469463D01*
X101244180Y-73410498D01*
X101124482Y-73374188D01*
X101000000Y-73361928D01*
X100285750Y-73365000D01*
X100127000Y-73523750D01*
X99873000Y-73523750D01*
X99714250Y-73365000D01*
X99000000Y-73361928D01*
X98875518Y-73374188D01*
X98755820Y-73410498D01*
X98645506Y-73469463D01*
X98548815Y-73548815D01*
X98500000Y-73608296D01*
X98451185Y-73548815D01*
X98354494Y-73469463D01*
X98244180Y-73410498D01*
X98124482Y-73374188D01*
X98000000Y-73361928D01*
X97285750Y-73365000D01*
X97127000Y-73523750D01*
X96873000Y-73523750D01*
X96714250Y-73365000D01*
X96000000Y-73361928D01*
X95875518Y-73374188D01*
X95755820Y-73410498D01*
X95645506Y-73469463D01*
X95548815Y-73548815D01*
X95500000Y-73608296D01*
X95451185Y-73548815D01*
X95354494Y-73469463D01*
X95244180Y-73410498D01*
X95124482Y-73374188D01*
X95000000Y-73361928D01*
X94285750Y-73365000D01*
X94127000Y-73523750D01*
X93873000Y-73523750D01*
X93714250Y-73365000D01*
X93000000Y-73361928D01*
X92875518Y-73374188D01*
X92755820Y-73410498D01*
X92645506Y-73469463D01*
X92548815Y-73548815D01*
X92500000Y-73608296D01*
X92451185Y-73548815D01*
X92354494Y-73469463D01*
X92244180Y-73410498D01*
X92124482Y-73374188D01*
X92000000Y-73361928D01*
X91285750Y-73365000D01*
X91127000Y-73523750D01*
X90873000Y-73523750D01*
X90714250Y-73365000D01*
X90000000Y-73361928D01*
X89875518Y-73374188D01*
X89755820Y-73410498D01*
X89645506Y-73469463D01*
X89548815Y-73548815D01*
X89469463Y-73645506D01*
X89410498Y-73755820D01*
X89374188Y-73875518D01*
X89361928Y-74000000D01*
X78511000Y-74000000D01*
X78511000Y-59928011D01*
X78837937Y-59928011D01*
X78840989Y-59959001D01*
X78840990Y-68040989D01*
X78837937Y-68071989D01*
X78850119Y-68195686D01*
X78886200Y-68314630D01*
X78944793Y-68424249D01*
X79003886Y-68496254D01*
X79003889Y-68496257D01*
X79023647Y-68520332D01*
X79047722Y-68540090D01*
X79527553Y-69019922D01*
X79549013Y-69127809D01*
X79607887Y-69269942D01*
X79693358Y-69397859D01*
X79802141Y-69506642D01*
X79930058Y-69592113D01*
X80072191Y-69650987D01*
X80223078Y-69681000D01*
X80376922Y-69681000D01*
X80527809Y-69650987D01*
X80669942Y-69592113D01*
X80797859Y-69506642D01*
X80906642Y-69397859D01*
X80992113Y-69269942D01*
X81050987Y-69127809D01*
X81081000Y-68976922D01*
X81081000Y-68823078D01*
X81050987Y-68672191D01*
X80992113Y-68530058D01*
X80906642Y-68402141D01*
X80797859Y-68293358D01*
X80669942Y-68207887D01*
X80527809Y-68149013D01*
X80419922Y-68127553D01*
X80102989Y-67810621D01*
X80102989Y-63419580D01*
X81515000Y-64831592D01*
X81515000Y-64973922D01*
X81545013Y-65124809D01*
X81603887Y-65266942D01*
X81689358Y-65394859D01*
X81790001Y-65495502D01*
X81790001Y-65807998D01*
X81754311Y-65811513D01*
X81682492Y-65833299D01*
X81616304Y-65868678D01*
X81558289Y-65916289D01*
X81510678Y-65974304D01*
X81475299Y-66040492D01*
X81453513Y-66112311D01*
X81446157Y-66187000D01*
X81446157Y-68687000D01*
X81453513Y-68761689D01*
X81475299Y-68833508D01*
X81510678Y-68899696D01*
X81558289Y-68957711D01*
X81616304Y-69005322D01*
X81682492Y-69040701D01*
X81754311Y-69062487D01*
X81829000Y-69069843D01*
X82829000Y-69069843D01*
X82903689Y-69062487D01*
X82975508Y-69040701D01*
X83041696Y-69005322D01*
X83099711Y-68957711D01*
X83147322Y-68899696D01*
X83182701Y-68833508D01*
X83204487Y-68761689D01*
X83211843Y-68687000D01*
X83211843Y-66187000D01*
X83446157Y-66187000D01*
X83446157Y-68687000D01*
X83453513Y-68761689D01*
X83475299Y-68833508D01*
X83510678Y-68899696D01*
X83558289Y-68957711D01*
X83616304Y-69005322D01*
X83682492Y-69040701D01*
X83754311Y-69062487D01*
X83829000Y-69069843D01*
X84829000Y-69069843D01*
X84903689Y-69062487D01*
X84975508Y-69040701D01*
X85041696Y-69005322D01*
X85099711Y-68957711D01*
X85147322Y-68899696D01*
X85182701Y-68833508D01*
X85204487Y-68761689D01*
X85211843Y-68687000D01*
X85211843Y-66187000D01*
X85446157Y-66187000D01*
X85446157Y-68687000D01*
X85453513Y-68761689D01*
X85475299Y-68833508D01*
X85510678Y-68899696D01*
X85558289Y-68957711D01*
X85616304Y-69005322D01*
X85682492Y-69040701D01*
X85754311Y-69062487D01*
X85829000Y-69069843D01*
X86829000Y-69069843D01*
X86903689Y-69062487D01*
X86975508Y-69040701D01*
X87041696Y-69005322D01*
X87099711Y-68957711D01*
X87147322Y-68899696D01*
X87182701Y-68833508D01*
X87204487Y-68761689D01*
X87211843Y-68687000D01*
X87211843Y-66187000D01*
X87446157Y-66187000D01*
X87446157Y-68687000D01*
X87453513Y-68761689D01*
X87475299Y-68833508D01*
X87510678Y-68899696D01*
X87558289Y-68957711D01*
X87616304Y-69005322D01*
X87682492Y-69040701D01*
X87754311Y-69062487D01*
X87829000Y-69069843D01*
X88829000Y-69069843D01*
X88903689Y-69062487D01*
X88975508Y-69040701D01*
X89041696Y-69005322D01*
X89099711Y-68957711D01*
X89147322Y-68899696D01*
X89182701Y-68833508D01*
X89204487Y-68761689D01*
X89211843Y-68687000D01*
X89211843Y-66187000D01*
X89446157Y-66187000D01*
X89446157Y-68687000D01*
X89453513Y-68761689D01*
X89475299Y-68833508D01*
X89510678Y-68899696D01*
X89558289Y-68957711D01*
X89616304Y-69005322D01*
X89682492Y-69040701D01*
X89754311Y-69062487D01*
X89829000Y-69069843D01*
X90829000Y-69069843D01*
X90903689Y-69062487D01*
X90975508Y-69040701D01*
X91041696Y-69005322D01*
X91099711Y-68957711D01*
X91147322Y-68899696D01*
X91182701Y-68833508D01*
X91204487Y-68761689D01*
X91211843Y-68687000D01*
X91211843Y-66187000D01*
X91204487Y-66112311D01*
X91182701Y-66040492D01*
X91147322Y-65974304D01*
X91099711Y-65916289D01*
X91041696Y-65868678D01*
X90975508Y-65833299D01*
X90903689Y-65811513D01*
X90829000Y-65804157D01*
X89829000Y-65804157D01*
X89754311Y-65811513D01*
X89682492Y-65833299D01*
X89616304Y-65868678D01*
X89558289Y-65916289D01*
X89510678Y-65974304D01*
X89475299Y-66040492D01*
X89453513Y-66112311D01*
X89446157Y-66187000D01*
X89211843Y-66187000D01*
X89204487Y-66112311D01*
X89182701Y-66040492D01*
X89147322Y-65974304D01*
X89099711Y-65916289D01*
X89056711Y-65881000D01*
X89176922Y-65881000D01*
X89327809Y-65850987D01*
X89469942Y-65792113D01*
X89597859Y-65706642D01*
X89706642Y-65597859D01*
X89792113Y-65469942D01*
X89850987Y-65327809D01*
X89881000Y-65176922D01*
X89881000Y-65023078D01*
X89850987Y-64872191D01*
X89792113Y-64730058D01*
X89706642Y-64602141D01*
X89597859Y-64493358D01*
X89469942Y-64407887D01*
X89327809Y-64349013D01*
X89176922Y-64319000D01*
X89023078Y-64319000D01*
X88872191Y-64349013D01*
X88730058Y-64407887D01*
X88602141Y-64493358D01*
X88493358Y-64602141D01*
X88407887Y-64730058D01*
X88349013Y-64872191D01*
X88319000Y-65023078D01*
X88319000Y-65165409D01*
X87988780Y-65495629D01*
X87969474Y-65511473D01*
X87906242Y-65588521D01*
X87886485Y-65625483D01*
X87859255Y-65676426D01*
X87830322Y-65771808D01*
X87827118Y-65804342D01*
X87754311Y-65811513D01*
X87682492Y-65833299D01*
X87616304Y-65868678D01*
X87558289Y-65916289D01*
X87510678Y-65974304D01*
X87475299Y-66040492D01*
X87453513Y-66112311D01*
X87446157Y-66187000D01*
X87211843Y-66187000D01*
X87204487Y-66112311D01*
X87182701Y-66040492D01*
X87147322Y-65974304D01*
X87099711Y-65916289D01*
X87080812Y-65900779D01*
X87104322Y-65877269D01*
X87123078Y-65881000D01*
X87276922Y-65881000D01*
X87427809Y-65850987D01*
X87569942Y-65792113D01*
X87697859Y-65706642D01*
X87806642Y-65597859D01*
X87892113Y-65469942D01*
X87950987Y-65327809D01*
X87981000Y-65176922D01*
X87981000Y-65023078D01*
X87950987Y-64872191D01*
X87892113Y-64730058D01*
X87806642Y-64602141D01*
X87697859Y-64493358D01*
X87569942Y-64407887D01*
X87427809Y-64349013D01*
X87276922Y-64319000D01*
X87123078Y-64319000D01*
X86972191Y-64349013D01*
X86830058Y-64407887D01*
X86702141Y-64493358D01*
X86593358Y-64602141D01*
X86507887Y-64730058D01*
X86449013Y-64872191D01*
X86419000Y-65023078D01*
X86419000Y-65131408D01*
X85988785Y-65561624D01*
X85969473Y-65577473D01*
X85906241Y-65654521D01*
X85859255Y-65742426D01*
X85840530Y-65804157D01*
X85829000Y-65804157D01*
X85754311Y-65811513D01*
X85682492Y-65833299D01*
X85616304Y-65868678D01*
X85558289Y-65916289D01*
X85510678Y-65974304D01*
X85475299Y-66040492D01*
X85453513Y-66112311D01*
X85446157Y-66187000D01*
X85211843Y-66187000D01*
X85204487Y-66112311D01*
X85182701Y-66040492D01*
X85147322Y-65974304D01*
X85099711Y-65916289D01*
X85056711Y-65881000D01*
X85176922Y-65881000D01*
X85327809Y-65850987D01*
X85469942Y-65792113D01*
X85597859Y-65706642D01*
X85706642Y-65597859D01*
X85792113Y-65469942D01*
X85850987Y-65327809D01*
X85881000Y-65176922D01*
X85881000Y-65023078D01*
X85850987Y-64872191D01*
X85792113Y-64730058D01*
X85706642Y-64602141D01*
X85597859Y-64493358D01*
X85469942Y-64407887D01*
X85327809Y-64349013D01*
X85176922Y-64319000D01*
X85023078Y-64319000D01*
X84872191Y-64349013D01*
X84730058Y-64407887D01*
X84602141Y-64493358D01*
X84493358Y-64602141D01*
X84407887Y-64730058D01*
X84349013Y-64872191D01*
X84319000Y-65023078D01*
X84319000Y-65165409D01*
X84055827Y-65428582D01*
X84046521Y-65433556D01*
X83969473Y-65496788D01*
X83906241Y-65573836D01*
X83859255Y-65661740D01*
X83830322Y-65757122D01*
X83825657Y-65804486D01*
X83754311Y-65811513D01*
X83682492Y-65833299D01*
X83616304Y-65868678D01*
X83558289Y-65916289D01*
X83510678Y-65974304D01*
X83475299Y-66040492D01*
X83453513Y-66112311D01*
X83446157Y-66187000D01*
X83211843Y-66187000D01*
X83204487Y-66112311D01*
X83182701Y-66040492D01*
X83147322Y-65974304D01*
X83099711Y-65916289D01*
X83041696Y-65868678D01*
X82975508Y-65833299D01*
X82903689Y-65811513D01*
X82829000Y-65804157D01*
X82817471Y-65804157D01*
X82802000Y-65753156D01*
X82802000Y-65495501D01*
X82902642Y-65394859D01*
X82988113Y-65266942D01*
X83046987Y-65124809D01*
X83077000Y-64973922D01*
X83077000Y-64820078D01*
X83046987Y-64669191D01*
X82988113Y-64527058D01*
X82902642Y-64399141D01*
X82793859Y-64290358D01*
X82665942Y-64204887D01*
X82523809Y-64146013D01*
X82372922Y-64116000D01*
X82230592Y-64116000D01*
X80552999Y-62438408D01*
X80552999Y-61458739D01*
X80695078Y-61487000D01*
X80837409Y-61487000D01*
X81412628Y-62062220D01*
X81428473Y-62081527D01*
X81505521Y-62144759D01*
X81593425Y-62191745D01*
X81688807Y-62220678D01*
X81763146Y-62228000D01*
X81763154Y-62228000D01*
X81788000Y-62230447D01*
X81812846Y-62228000D01*
X90271411Y-62228000D01*
X90662411Y-62619000D01*
X90623078Y-62619000D01*
X90472191Y-62649013D01*
X90330058Y-62707887D01*
X90202141Y-62793358D01*
X90093358Y-62902141D01*
X90007887Y-63030058D01*
X89949013Y-63172191D01*
X89919000Y-63323078D01*
X89919000Y-63476922D01*
X89949013Y-63627809D01*
X90007887Y-63769942D01*
X90093358Y-63897859D01*
X90202141Y-64006642D01*
X90330058Y-64092113D01*
X90472191Y-64150987D01*
X90623078Y-64181000D01*
X90722437Y-64181000D01*
X91823000Y-65402961D01*
X91823000Y-65804748D01*
X91754311Y-65811513D01*
X91682492Y-65833299D01*
X91616304Y-65868678D01*
X91558289Y-65916289D01*
X91510678Y-65974304D01*
X91475299Y-66040492D01*
X91453513Y-66112311D01*
X91446157Y-66187000D01*
X91446157Y-68687000D01*
X91453513Y-68761689D01*
X91475299Y-68833508D01*
X91510678Y-68899696D01*
X91558289Y-68957711D01*
X91616304Y-69005322D01*
X91682492Y-69040701D01*
X91754311Y-69062487D01*
X91829000Y-69069843D01*
X92829000Y-69069843D01*
X92903689Y-69062487D01*
X92975508Y-69040701D01*
X93041696Y-69005322D01*
X93099711Y-68957711D01*
X93147322Y-68899696D01*
X93182701Y-68833508D01*
X93204487Y-68761689D01*
X93211843Y-68687000D01*
X93211843Y-66187000D01*
X93204487Y-66112311D01*
X93182701Y-66040492D01*
X93147322Y-65974304D01*
X93099711Y-65916289D01*
X93041696Y-65868678D01*
X92975508Y-65833299D01*
X92903689Y-65811513D01*
X92835000Y-65804748D01*
X92835000Y-65246806D01*
X92836755Y-65235225D01*
X92835000Y-65197063D01*
X92835000Y-65183831D01*
X92833858Y-65172241D01*
X92832176Y-65135657D01*
X92828982Y-65122736D01*
X92827678Y-65109492D01*
X92817049Y-65074452D01*
X92808261Y-65038895D01*
X92802608Y-65026846D01*
X92798745Y-65014110D01*
X92781479Y-64981808D01*
X92765927Y-64948658D01*
X92758034Y-64937946D01*
X92751759Y-64926206D01*
X92728518Y-64897887D01*
X92721617Y-64888521D01*
X92712771Y-64878699D01*
X92688527Y-64849158D01*
X92679470Y-64841725D01*
X91475438Y-63504884D01*
X91481000Y-63476922D01*
X91481000Y-63437589D01*
X93823001Y-65779591D01*
X93823001Y-65804748D01*
X93754311Y-65811513D01*
X93682492Y-65833299D01*
X93616304Y-65868678D01*
X93558289Y-65916289D01*
X93510678Y-65974304D01*
X93475299Y-66040492D01*
X93453513Y-66112311D01*
X93446157Y-66187000D01*
X93446157Y-68687000D01*
X93453513Y-68761689D01*
X93475299Y-68833508D01*
X93510678Y-68899696D01*
X93558289Y-68957711D01*
X93616304Y-69005322D01*
X93682492Y-69040701D01*
X93754311Y-69062487D01*
X93829000Y-69069843D01*
X94829000Y-69069843D01*
X94903689Y-69062487D01*
X94975508Y-69040701D01*
X95041696Y-69005322D01*
X95099711Y-68957711D01*
X95147322Y-68899696D01*
X95182701Y-68833508D01*
X95204487Y-68761689D01*
X95211843Y-68687000D01*
X95211843Y-66187000D01*
X95204487Y-66112311D01*
X95182701Y-66040492D01*
X95147322Y-65974304D01*
X95099711Y-65916289D01*
X95041696Y-65868678D01*
X94975508Y-65833299D01*
X94903689Y-65811513D01*
X94835000Y-65804748D01*
X94835000Y-65594844D01*
X94837447Y-65569998D01*
X94835000Y-65545152D01*
X94835000Y-65545144D01*
X94827678Y-65470805D01*
X94798745Y-65375423D01*
X94751759Y-65287519D01*
X94688527Y-65210471D01*
X94669220Y-65194626D01*
X90856378Y-61381785D01*
X90840529Y-61362473D01*
X90763481Y-61299241D01*
X90675577Y-61252255D01*
X90580195Y-61223322D01*
X90505856Y-61216000D01*
X90505848Y-61216000D01*
X90481002Y-61213553D01*
X90456156Y-61216000D01*
X81997592Y-61216000D01*
X81553000Y-60771409D01*
X81553000Y-60629078D01*
X81522987Y-60478191D01*
X81464113Y-60336058D01*
X81378642Y-60208141D01*
X81366501Y-60196000D01*
X83795154Y-60196000D01*
X83820000Y-60198447D01*
X83844846Y-60196000D01*
X83844854Y-60196000D01*
X83919193Y-60188678D01*
X84014575Y-60159745D01*
X84102479Y-60112759D01*
X84179527Y-60049527D01*
X84195376Y-60030215D01*
X84666371Y-59559221D01*
X84666376Y-59559215D01*
X84795215Y-59430376D01*
X84814527Y-59414527D01*
X84877759Y-59337479D01*
X84924745Y-59249575D01*
X84953678Y-59154193D01*
X84961000Y-59079854D01*
X84961000Y-59079853D01*
X84963448Y-59055000D01*
X84961000Y-59030146D01*
X84961000Y-57682845D01*
X84963447Y-57657999D01*
X84961000Y-57633153D01*
X84961000Y-57633146D01*
X84953678Y-57558807D01*
X84924745Y-57463425D01*
X84877759Y-57375521D01*
X84814527Y-57298473D01*
X84795220Y-57282628D01*
X83687376Y-56174785D01*
X83671527Y-56155473D01*
X83594479Y-56092241D01*
X83506575Y-56045255D01*
X83411193Y-56016322D01*
X83336854Y-56009000D01*
X83336846Y-56009000D01*
X83312000Y-56006553D01*
X83287154Y-56009000D01*
X80481501Y-56009000D01*
X80380859Y-55908358D01*
X80252942Y-55822887D01*
X80110809Y-55764013D01*
X79959922Y-55734000D01*
X79806078Y-55734000D01*
X79655191Y-55764013D01*
X79513058Y-55822887D01*
X79385141Y-55908358D01*
X79276358Y-56017141D01*
X79190887Y-56145058D01*
X79132013Y-56287191D01*
X79102000Y-56438078D01*
X79102000Y-56591922D01*
X79132013Y-56742809D01*
X79190887Y-56884942D01*
X79276358Y-57012859D01*
X79385141Y-57121642D01*
X79513058Y-57207113D01*
X79655191Y-57265987D01*
X79806078Y-57296000D01*
X79959922Y-57296000D01*
X80110809Y-57265987D01*
X80252942Y-57207113D01*
X80380859Y-57121642D01*
X80481501Y-57021000D01*
X83102409Y-57021000D01*
X83949001Y-57867593D01*
X83949001Y-57990613D01*
X83935942Y-57981887D01*
X83793809Y-57923013D01*
X83642922Y-57893000D01*
X83489078Y-57893000D01*
X83338191Y-57923013D01*
X83196058Y-57981887D01*
X83104595Y-58043000D01*
X80756987Y-58043000D01*
X80725999Y-58039948D01*
X80695011Y-58043000D01*
X80695002Y-58043000D01*
X80602302Y-58052130D01*
X80483358Y-58088211D01*
X80373739Y-58146804D01*
X80277657Y-58225657D01*
X80257899Y-58249732D01*
X79047726Y-59459906D01*
X79023646Y-59479668D01*
X78944793Y-59575751D01*
X78886200Y-59685370D01*
X78850119Y-59804314D01*
X78840989Y-59897014D01*
X78840989Y-59897021D01*
X78837937Y-59928011D01*
X78511000Y-59928011D01*
X78511000Y-55426766D01*
X89309600Y-55426766D01*
X89309600Y-55571234D01*
X89337784Y-55712925D01*
X89393069Y-55846395D01*
X89473331Y-55966515D01*
X89575485Y-56068669D01*
X89695605Y-56148931D01*
X89829075Y-56204216D01*
X89970766Y-56232400D01*
X90115234Y-56232400D01*
X90256925Y-56204216D01*
X90390395Y-56148931D01*
X90510515Y-56068669D01*
X90612669Y-55966515D01*
X90692931Y-55846395D01*
X90748216Y-55712925D01*
X90776400Y-55571234D01*
X90776400Y-55426766D01*
X90748216Y-55285075D01*
X90692931Y-55151605D01*
X90612669Y-55031485D01*
X90510515Y-54929331D01*
X90390395Y-54849069D01*
X90256925Y-54793784D01*
X90115234Y-54765600D01*
X89970766Y-54765600D01*
X89829075Y-54793784D01*
X89695605Y-54849069D01*
X89575485Y-54929331D01*
X89473331Y-55031485D01*
X89393069Y-55151605D01*
X89337784Y-55285075D01*
X89309600Y-55426766D01*
X78511000Y-55426766D01*
X78511000Y-53487000D01*
X81190928Y-53487000D01*
X81203188Y-53611482D01*
X81239498Y-53731180D01*
X81298463Y-53841494D01*
X81377815Y-53938185D01*
X81474506Y-54017537D01*
X81584820Y-54076502D01*
X81704518Y-54112812D01*
X81829000Y-54125072D01*
X82043250Y-54122000D01*
X82202000Y-53963250D01*
X82202000Y-52364000D01*
X81352750Y-52364000D01*
X81194000Y-52522750D01*
X81190928Y-53487000D01*
X78511000Y-53487000D01*
X78511000Y-50987000D01*
X81190928Y-50987000D01*
X81194000Y-51951250D01*
X81352750Y-52110000D01*
X82202000Y-52110000D01*
X82202000Y-50510750D01*
X82456000Y-50510750D01*
X82456000Y-52110000D01*
X82476000Y-52110000D01*
X82476000Y-52364000D01*
X82456000Y-52364000D01*
X82456000Y-53963250D01*
X82614750Y-54122000D01*
X82829000Y-54125072D01*
X82953482Y-54112812D01*
X83073180Y-54076502D01*
X83166000Y-54026888D01*
X83166000Y-54178922D01*
X83196013Y-54329809D01*
X83254887Y-54471942D01*
X83340358Y-54599859D01*
X83449141Y-54708642D01*
X83577058Y-54794113D01*
X83719191Y-54852987D01*
X83870078Y-54883000D01*
X84023922Y-54883000D01*
X84174809Y-54852987D01*
X84316942Y-54794113D01*
X84444859Y-54708642D01*
X84553642Y-54599859D01*
X84639113Y-54471942D01*
X84697987Y-54329809D01*
X84728000Y-54178922D01*
X84728000Y-54025078D01*
X84697987Y-53874191D01*
X84696186Y-53869843D01*
X84829000Y-53869843D01*
X84903689Y-53862487D01*
X84975508Y-53840701D01*
X85041696Y-53805322D01*
X85099711Y-53757711D01*
X85147322Y-53699696D01*
X85182701Y-53633508D01*
X85204487Y-53561689D01*
X85211843Y-53487000D01*
X85211843Y-50987000D01*
X85446157Y-50987000D01*
X85446157Y-53487000D01*
X85453513Y-53561689D01*
X85475299Y-53633508D01*
X85510678Y-53699696D01*
X85558289Y-53757711D01*
X85616304Y-53805322D01*
X85682492Y-53840701D01*
X85754311Y-53862487D01*
X85829000Y-53869843D01*
X86829000Y-53869843D01*
X86903689Y-53862487D01*
X86975508Y-53840701D01*
X87041696Y-53805322D01*
X87099711Y-53757711D01*
X87147322Y-53699696D01*
X87182701Y-53633508D01*
X87204487Y-53561689D01*
X87211843Y-53487000D01*
X87211843Y-50987000D01*
X87446157Y-50987000D01*
X87446157Y-53487000D01*
X87453513Y-53561689D01*
X87475299Y-53633508D01*
X87510678Y-53699696D01*
X87558289Y-53757711D01*
X87616304Y-53805322D01*
X87628187Y-53811674D01*
X87611000Y-53898078D01*
X87611000Y-54051922D01*
X87641013Y-54202809D01*
X87699887Y-54344942D01*
X87785358Y-54472859D01*
X87894141Y-54581642D01*
X88022058Y-54667113D01*
X88164191Y-54725987D01*
X88315078Y-54756000D01*
X88468922Y-54756000D01*
X88619809Y-54725987D01*
X88761942Y-54667113D01*
X88889859Y-54581642D01*
X88998642Y-54472859D01*
X89084113Y-54344942D01*
X89142987Y-54202809D01*
X89173000Y-54051922D01*
X89173000Y-53898078D01*
X89142987Y-53747191D01*
X89131367Y-53719138D01*
X89147322Y-53699696D01*
X89182701Y-53633508D01*
X89204487Y-53561689D01*
X89211843Y-53487000D01*
X89211843Y-50987000D01*
X89446157Y-50987000D01*
X89446157Y-53487000D01*
X89453513Y-53561689D01*
X89475299Y-53633508D01*
X89510678Y-53699696D01*
X89558289Y-53757711D01*
X89616304Y-53805322D01*
X89682492Y-53840701D01*
X89754311Y-53862487D01*
X89829000Y-53869843D01*
X89840530Y-53869843D01*
X89859255Y-53931574D01*
X89906241Y-54019479D01*
X89969473Y-54096527D01*
X89988785Y-54112376D01*
X95379001Y-59502593D01*
X95379000Y-61123499D01*
X95278358Y-61224141D01*
X95192887Y-61352058D01*
X95134013Y-61494191D01*
X95104000Y-61645078D01*
X95104000Y-61798922D01*
X95134013Y-61949809D01*
X95192887Y-62091942D01*
X95278358Y-62219859D01*
X95387141Y-62328642D01*
X95515058Y-62414113D01*
X95657191Y-62472987D01*
X95808078Y-62503000D01*
X95961922Y-62503000D01*
X96112809Y-62472987D01*
X96254942Y-62414113D01*
X96382859Y-62328642D01*
X96491642Y-62219859D01*
X96577113Y-62091942D01*
X96635987Y-61949809D01*
X96666000Y-61798922D01*
X96666000Y-61645078D01*
X96635987Y-61494191D01*
X96577113Y-61352058D01*
X96491642Y-61224141D01*
X96391000Y-61123499D01*
X96391000Y-59317854D01*
X96393448Y-59293000D01*
X96383678Y-59193807D01*
X96354745Y-59098425D01*
X96354660Y-59098266D01*
X96307759Y-59010521D01*
X96244527Y-58933473D01*
X96225220Y-58917628D01*
X91080812Y-53773221D01*
X91099711Y-53757711D01*
X91147322Y-53699696D01*
X91182701Y-53633508D01*
X91204487Y-53561689D01*
X91211843Y-53487000D01*
X91211843Y-50987000D01*
X91446157Y-50987000D01*
X91446157Y-53487000D01*
X91453513Y-53561689D01*
X91475299Y-53633508D01*
X91510678Y-53699696D01*
X91558289Y-53757711D01*
X91616304Y-53805322D01*
X91682492Y-53840701D01*
X91754311Y-53862487D01*
X91829000Y-53869843D01*
X91840530Y-53869843D01*
X91859255Y-53931574D01*
X91876187Y-53963250D01*
X91906242Y-54019479D01*
X91969474Y-54096527D01*
X91988781Y-54112372D01*
X94816628Y-56940220D01*
X94832473Y-56959527D01*
X94909521Y-57022759D01*
X94997425Y-57069745D01*
X95070607Y-57091944D01*
X95092806Y-57098678D01*
X95102694Y-57099652D01*
X95167146Y-57106000D01*
X95167153Y-57106000D01*
X95191999Y-57108447D01*
X95202875Y-57107376D01*
X95302141Y-57206642D01*
X95430058Y-57292113D01*
X95572191Y-57350987D01*
X95723078Y-57381000D01*
X95876922Y-57381000D01*
X96027809Y-57350987D01*
X96169942Y-57292113D01*
X96297859Y-57206642D01*
X96406642Y-57097859D01*
X96492113Y-56969942D01*
X96550987Y-56827809D01*
X96581000Y-56676922D01*
X96581000Y-56523078D01*
X96550987Y-56372191D01*
X96492113Y-56230058D01*
X96490341Y-56227406D01*
X96606925Y-56204216D01*
X96740395Y-56148931D01*
X96860515Y-56068669D01*
X96962669Y-55966515D01*
X97042931Y-55846395D01*
X97098216Y-55712925D01*
X97126400Y-55571234D01*
X97126400Y-55426766D01*
X97098216Y-55285075D01*
X97042931Y-55151605D01*
X96962669Y-55031485D01*
X96860515Y-54929331D01*
X96740395Y-54849069D01*
X96606925Y-54793784D01*
X96465234Y-54765600D01*
X96320766Y-54765600D01*
X96179075Y-54793784D01*
X96045605Y-54849069D01*
X95925485Y-54929331D01*
X95823331Y-55031485D01*
X95743069Y-55151605D01*
X95687784Y-55285075D01*
X95659600Y-55426766D01*
X95659600Y-55571234D01*
X95687784Y-55712925D01*
X95731722Y-55819000D01*
X95723078Y-55819000D01*
X95572191Y-55849013D01*
X95430058Y-55907887D01*
X95302141Y-55993358D01*
X95301545Y-55993954D01*
X93080812Y-53773221D01*
X93099711Y-53757711D01*
X93147322Y-53699696D01*
X93182701Y-53633508D01*
X93204487Y-53561689D01*
X93211843Y-53487000D01*
X93211843Y-50987000D01*
X93446157Y-50987000D01*
X93446157Y-53487000D01*
X93453513Y-53561689D01*
X93475299Y-53633508D01*
X93510678Y-53699696D01*
X93558289Y-53757711D01*
X93616304Y-53805322D01*
X93682492Y-53840701D01*
X93754311Y-53862487D01*
X93829000Y-53869843D01*
X93957423Y-53869843D01*
X93969474Y-53884527D01*
X93988780Y-53900371D01*
X94215000Y-54126591D01*
X94215000Y-54268922D01*
X94245013Y-54419809D01*
X94303887Y-54561942D01*
X94389358Y-54689859D01*
X94498141Y-54798642D01*
X94626058Y-54884113D01*
X94768191Y-54942987D01*
X94919078Y-54973000D01*
X95072922Y-54973000D01*
X95223809Y-54942987D01*
X95365942Y-54884113D01*
X95493859Y-54798642D01*
X95602642Y-54689859D01*
X95688113Y-54561942D01*
X95705783Y-54519284D01*
X95768141Y-54581642D01*
X95896058Y-54667113D01*
X96038191Y-54725987D01*
X96189078Y-54756000D01*
X96342922Y-54756000D01*
X96493809Y-54725987D01*
X96635942Y-54667113D01*
X96763859Y-54581642D01*
X96872642Y-54472859D01*
X96958113Y-54344942D01*
X97016987Y-54202809D01*
X97047000Y-54051922D01*
X97047000Y-53898078D01*
X97029813Y-53811674D01*
X97041696Y-53805322D01*
X97099711Y-53757711D01*
X97147322Y-53699696D01*
X97182701Y-53633508D01*
X97204487Y-53561689D01*
X97211843Y-53487000D01*
X97211843Y-50987000D01*
X97204487Y-50912311D01*
X97182701Y-50840492D01*
X97147322Y-50774304D01*
X97099711Y-50716289D01*
X97041696Y-50668678D01*
X96975508Y-50633299D01*
X96903689Y-50611513D01*
X96829000Y-50604157D01*
X95829000Y-50604157D01*
X95754311Y-50611513D01*
X95682492Y-50633299D01*
X95616304Y-50668678D01*
X95558289Y-50716289D01*
X95510678Y-50774304D01*
X95475299Y-50840492D01*
X95453513Y-50912311D01*
X95446157Y-50987000D01*
X95446157Y-53487000D01*
X95453166Y-53558168D01*
X95365942Y-53499887D01*
X95223809Y-53441013D01*
X95211843Y-53438633D01*
X95211843Y-50987000D01*
X95204487Y-50912311D01*
X95182701Y-50840492D01*
X95147322Y-50774304D01*
X95099711Y-50716289D01*
X95041696Y-50668678D01*
X94975508Y-50633299D01*
X94903689Y-50611513D01*
X94829000Y-50604157D01*
X93829000Y-50604157D01*
X93754311Y-50611513D01*
X93682492Y-50633299D01*
X93616304Y-50668678D01*
X93558289Y-50716289D01*
X93510678Y-50774304D01*
X93475299Y-50840492D01*
X93453513Y-50912311D01*
X93446157Y-50987000D01*
X93211843Y-50987000D01*
X93204487Y-50912311D01*
X93182701Y-50840492D01*
X93147322Y-50774304D01*
X93099711Y-50716289D01*
X93041696Y-50668678D01*
X92975508Y-50633299D01*
X92903689Y-50611513D01*
X92829000Y-50604157D01*
X91829000Y-50604157D01*
X91754311Y-50611513D01*
X91682492Y-50633299D01*
X91616304Y-50668678D01*
X91558289Y-50716289D01*
X91510678Y-50774304D01*
X91475299Y-50840492D01*
X91453513Y-50912311D01*
X91446157Y-50987000D01*
X91211843Y-50987000D01*
X91204487Y-50912311D01*
X91182701Y-50840492D01*
X91147322Y-50774304D01*
X91099711Y-50716289D01*
X91041696Y-50668678D01*
X90975508Y-50633299D01*
X90903689Y-50611513D01*
X90829000Y-50604157D01*
X89829000Y-50604157D01*
X89754311Y-50611513D01*
X89682492Y-50633299D01*
X89616304Y-50668678D01*
X89558289Y-50716289D01*
X89510678Y-50774304D01*
X89475299Y-50840492D01*
X89453513Y-50912311D01*
X89446157Y-50987000D01*
X89211843Y-50987000D01*
X89204487Y-50912311D01*
X89182701Y-50840492D01*
X89147322Y-50774304D01*
X89099711Y-50716289D01*
X89041696Y-50668678D01*
X88975508Y-50633299D01*
X88903689Y-50611513D01*
X88829000Y-50604157D01*
X87829000Y-50604157D01*
X87754311Y-50611513D01*
X87682492Y-50633299D01*
X87616304Y-50668678D01*
X87558289Y-50716289D01*
X87510678Y-50774304D01*
X87475299Y-50840492D01*
X87453513Y-50912311D01*
X87446157Y-50987000D01*
X87211843Y-50987000D01*
X87204487Y-50912311D01*
X87182701Y-50840492D01*
X87147322Y-50774304D01*
X87099711Y-50716289D01*
X87041696Y-50668678D01*
X86975508Y-50633299D01*
X86903689Y-50611513D01*
X86829000Y-50604157D01*
X85829000Y-50604157D01*
X85754311Y-50611513D01*
X85682492Y-50633299D01*
X85616304Y-50668678D01*
X85558289Y-50716289D01*
X85510678Y-50774304D01*
X85475299Y-50840492D01*
X85453513Y-50912311D01*
X85446157Y-50987000D01*
X85211843Y-50987000D01*
X85204487Y-50912311D01*
X85182701Y-50840492D01*
X85147322Y-50774304D01*
X85099711Y-50716289D01*
X85041696Y-50668678D01*
X84975508Y-50633299D01*
X84903689Y-50611513D01*
X84829000Y-50604157D01*
X83829000Y-50604157D01*
X83754311Y-50611513D01*
X83682492Y-50633299D01*
X83616304Y-50668678D01*
X83558289Y-50716289D01*
X83510678Y-50774304D01*
X83475299Y-50840492D01*
X83458196Y-50896874D01*
X83454812Y-50862518D01*
X83418502Y-50742820D01*
X83359537Y-50632506D01*
X83280185Y-50535815D01*
X83183494Y-50456463D01*
X83073180Y-50397498D01*
X82953482Y-50361188D01*
X82829000Y-50348928D01*
X82614750Y-50352000D01*
X82456000Y-50510750D01*
X82202000Y-50510750D01*
X82043250Y-50352000D01*
X81829000Y-50348928D01*
X81704518Y-50361188D01*
X81584820Y-50397498D01*
X81474506Y-50456463D01*
X81377815Y-50535815D01*
X81298463Y-50632506D01*
X81239498Y-50742820D01*
X81203188Y-50862518D01*
X81190928Y-50987000D01*
X78511000Y-50987000D01*
X78511000Y-50616654D01*
X78525494Y-50468830D01*
X78562660Y-50345731D01*
X78623028Y-50232196D01*
X78704296Y-50132551D01*
X78803372Y-50050588D01*
X78916487Y-49989426D01*
X79039318Y-49951404D01*
X79185878Y-49936000D01*
X97473000Y-49936000D01*
X97473000Y-64428961D01*
G37*
X97473000Y-64428961D02*
X97372191Y-64449013D01*
X97230058Y-64507887D01*
X97102141Y-64593358D01*
X96993358Y-64702141D01*
X96907887Y-64830058D01*
X96849013Y-64972191D01*
X96819000Y-65123078D01*
X96819000Y-65276922D01*
X96849013Y-65427809D01*
X96907887Y-65569942D01*
X96993358Y-65697859D01*
X97094000Y-65798501D01*
X97094000Y-65897868D01*
X97086666Y-65905583D01*
X97041696Y-65868678D01*
X96975508Y-65833299D01*
X96903689Y-65811513D01*
X96829000Y-65804157D01*
X95829000Y-65804157D01*
X95754311Y-65811513D01*
X95682492Y-65833299D01*
X95616304Y-65868678D01*
X95558289Y-65916289D01*
X95510678Y-65974304D01*
X95475299Y-66040492D01*
X95453513Y-66112311D01*
X95446157Y-66187000D01*
X95446157Y-68687000D01*
X95453513Y-68761689D01*
X95475299Y-68833508D01*
X95510678Y-68899696D01*
X95558289Y-68957711D01*
X95616304Y-69005322D01*
X95682492Y-69040701D01*
X95754311Y-69062487D01*
X95829000Y-69069843D01*
X96829000Y-69069843D01*
X96903689Y-69062487D01*
X96975508Y-69040701D01*
X97041696Y-69005322D01*
X97099711Y-68957711D01*
X97147322Y-68899696D01*
X97182701Y-68833508D01*
X97204487Y-68761689D01*
X97211843Y-68687000D01*
X97211843Y-67242720D01*
X97473000Y-66968002D01*
X97473000Y-67800000D01*
X97475440Y-67824776D01*
X97482667Y-67848601D01*
X97494403Y-67870557D01*
X97510197Y-67889803D01*
X97529443Y-67905597D01*
X97551399Y-67917333D01*
X97575224Y-67924560D01*
X97600000Y-67927000D01*
X103060800Y-67927000D01*
X103060800Y-77272346D01*
X103046306Y-77420171D01*
X103009140Y-77543269D01*
X102948772Y-77656804D01*
X102867502Y-77756451D01*
X102768426Y-77838413D01*
X102655313Y-77899574D01*
X102532482Y-77937596D01*
X102385923Y-77953000D01*
X101637988Y-77953000D01*
X101635000Y-76285750D01*
X101476250Y-76127000D01*
X100127000Y-76127000D01*
X100127000Y-76147000D01*
X99873000Y-76147000D01*
X99873000Y-76127000D01*
X98523750Y-76127000D01*
X98500000Y-76150750D01*
X98476250Y-76127000D01*
X97127000Y-76127000D01*
X97127000Y-76147000D01*
X96873000Y-76147000D01*
X96873000Y-76127000D01*
X95523750Y-76127000D01*
X95500000Y-76150750D01*
X95476250Y-76127000D01*
X94127000Y-76127000D01*
X94127000Y-76147000D01*
X93873000Y-76147000D01*
X93873000Y-76127000D01*
X92523750Y-76127000D01*
X92500000Y-76150750D01*
X92476250Y-76127000D01*
X91127000Y-76127000D01*
X91127000Y-76147000D01*
X90873000Y-76147000D01*
X90873000Y-76127000D01*
X89523750Y-76127000D01*
X89365000Y-76285750D01*
X89362012Y-77953000D01*
X79191654Y-77953000D01*
X79043829Y-77938506D01*
X78920731Y-77901340D01*
X78807196Y-77840972D01*
X78707549Y-77759702D01*
X78625587Y-77660626D01*
X78564426Y-77547513D01*
X78526404Y-77424682D01*
X78511000Y-77278123D01*
X78511000Y-75849210D01*
X78719000Y-75849210D01*
X78719000Y-76150790D01*
X78777835Y-76446576D01*
X78893245Y-76725201D01*
X79060795Y-76975956D01*
X79274044Y-77189205D01*
X79524799Y-77356755D01*
X79803424Y-77472165D01*
X80099210Y-77531000D01*
X80400790Y-77531000D01*
X80696576Y-77472165D01*
X80975201Y-77356755D01*
X81225956Y-77189205D01*
X81439205Y-76975956D01*
X81606755Y-76725201D01*
X81722165Y-76446576D01*
X81781000Y-76150790D01*
X81781000Y-75849210D01*
X81919000Y-75849210D01*
X81919000Y-76150790D01*
X81977835Y-76446576D01*
X82093245Y-76725201D01*
X82260795Y-76975956D01*
X82474044Y-77189205D01*
X82724799Y-77356755D01*
X83003424Y-77472165D01*
X83299210Y-77531000D01*
X83600790Y-77531000D01*
X83896576Y-77472165D01*
X84175201Y-77356755D01*
X84425956Y-77189205D01*
X84639205Y-76975956D01*
X84806755Y-76725201D01*
X84922165Y-76446576D01*
X84981000Y-76150790D01*
X84981000Y-75849210D01*
X84922165Y-75553424D01*
X84806755Y-75274799D01*
X84639205Y-75024044D01*
X84425956Y-74810795D01*
X84175201Y-74643245D01*
X83896576Y-74527835D01*
X83600790Y-74469000D01*
X83299210Y-74469000D01*
X83003424Y-74527835D01*
X82724799Y-74643245D01*
X82474044Y-74810795D01*
X82260795Y-75024044D01*
X82093245Y-75274799D01*
X81977835Y-75553424D01*
X81919000Y-75849210D01*
X81781000Y-75849210D01*
X81722165Y-75553424D01*
X81606755Y-75274799D01*
X81439205Y-75024044D01*
X81225956Y-74810795D01*
X80975201Y-74643245D01*
X80696576Y-74527835D01*
X80400790Y-74469000D01*
X80099210Y-74469000D01*
X79803424Y-74527835D01*
X79524799Y-74643245D01*
X79274044Y-74810795D01*
X79060795Y-75024044D01*
X78893245Y-75274799D01*
X78777835Y-75553424D01*
X78719000Y-75849210D01*
X78511000Y-75849210D01*
X78511000Y-74000000D01*
X89361928Y-74000000D01*
X89365000Y-75714250D01*
X89523750Y-75873000D01*
X90873000Y-75873000D01*
X90873000Y-73523750D01*
X91127000Y-73523750D01*
X91127000Y-75873000D01*
X92476250Y-75873000D01*
X92500000Y-75849250D01*
X92523750Y-75873000D01*
X93873000Y-75873000D01*
X93873000Y-73523750D01*
X94127000Y-73523750D01*
X94127000Y-75873000D01*
X95476250Y-75873000D01*
X95500000Y-75849250D01*
X95523750Y-75873000D01*
X96873000Y-75873000D01*
X96873000Y-73523750D01*
X97127000Y-73523750D01*
X97127000Y-75873000D01*
X98476250Y-75873000D01*
X98500000Y-75849250D01*
X98523750Y-75873000D01*
X99873000Y-75873000D01*
X99873000Y-73523750D01*
X100127000Y-73523750D01*
X100127000Y-75873000D01*
X101476250Y-75873000D01*
X101635000Y-75714250D01*
X101638072Y-74000000D01*
X101625812Y-73875518D01*
X101589502Y-73755820D01*
X101530537Y-73645506D01*
X101451185Y-73548815D01*
X101354494Y-73469463D01*
X101244180Y-73410498D01*
X101124482Y-73374188D01*
X101000000Y-73361928D01*
X100285750Y-73365000D01*
X100127000Y-73523750D01*
X99873000Y-73523750D01*
X99714250Y-73365000D01*
X99000000Y-73361928D01*
X98875518Y-73374188D01*
X98755820Y-73410498D01*
X98645506Y-73469463D01*
X98548815Y-73548815D01*
X98500000Y-73608296D01*
X98451185Y-73548815D01*
X98354494Y-73469463D01*
X98244180Y-73410498D01*
X98124482Y-73374188D01*
X98000000Y-73361928D01*
X97285750Y-73365000D01*
X97127000Y-73523750D01*
X96873000Y-73523750D01*
X96714250Y-73365000D01*
X96000000Y-73361928D01*
X95875518Y-73374188D01*
X95755820Y-73410498D01*
X95645506Y-73469463D01*
X95548815Y-73548815D01*
X95500000Y-73608296D01*
X95451185Y-73548815D01*
X95354494Y-73469463D01*
X95244180Y-73410498D01*
X95124482Y-73374188D01*
X95000000Y-73361928D01*
X94285750Y-73365000D01*
X94127000Y-73523750D01*
X93873000Y-73523750D01*
X93714250Y-73365000D01*
X93000000Y-73361928D01*
X92875518Y-73374188D01*
X92755820Y-73410498D01*
X92645506Y-73469463D01*
X92548815Y-73548815D01*
X92500000Y-73608296D01*
X92451185Y-73548815D01*
X92354494Y-73469463D01*
X92244180Y-73410498D01*
X92124482Y-73374188D01*
X92000000Y-73361928D01*
X91285750Y-73365000D01*
X91127000Y-73523750D01*
X90873000Y-73523750D01*
X90714250Y-73365000D01*
X90000000Y-73361928D01*
X89875518Y-73374188D01*
X89755820Y-73410498D01*
X89645506Y-73469463D01*
X89548815Y-73548815D01*
X89469463Y-73645506D01*
X89410498Y-73755820D01*
X89374188Y-73875518D01*
X89361928Y-74000000D01*
X78511000Y-74000000D01*
X78511000Y-59928011D01*
X78837937Y-59928011D01*
X78840989Y-59959001D01*
X78840990Y-68040989D01*
X78837937Y-68071989D01*
X78850119Y-68195686D01*
X78886200Y-68314630D01*
X78944793Y-68424249D01*
X79003886Y-68496254D01*
X79003889Y-68496257D01*
X79023647Y-68520332D01*
X79047722Y-68540090D01*
X79527553Y-69019922D01*
X79549013Y-69127809D01*
X79607887Y-69269942D01*
X79693358Y-69397859D01*
X79802141Y-69506642D01*
X79930058Y-69592113D01*
X80072191Y-69650987D01*
X80223078Y-69681000D01*
X80376922Y-69681000D01*
X80527809Y-69650987D01*
X80669942Y-69592113D01*
X80797859Y-69506642D01*
X80906642Y-69397859D01*
X80992113Y-69269942D01*
X81050987Y-69127809D01*
X81081000Y-68976922D01*
X81081000Y-68823078D01*
X81050987Y-68672191D01*
X80992113Y-68530058D01*
X80906642Y-68402141D01*
X80797859Y-68293358D01*
X80669942Y-68207887D01*
X80527809Y-68149013D01*
X80419922Y-68127553D01*
X80102989Y-67810621D01*
X80102989Y-63419580D01*
X81515000Y-64831592D01*
X81515000Y-64973922D01*
X81545013Y-65124809D01*
X81603887Y-65266942D01*
X81689358Y-65394859D01*
X81790001Y-65495502D01*
X81790001Y-65807998D01*
X81754311Y-65811513D01*
X81682492Y-65833299D01*
X81616304Y-65868678D01*
X81558289Y-65916289D01*
X81510678Y-65974304D01*
X81475299Y-66040492D01*
X81453513Y-66112311D01*
X81446157Y-66187000D01*
X81446157Y-68687000D01*
X81453513Y-68761689D01*
X81475299Y-68833508D01*
X81510678Y-68899696D01*
X81558289Y-68957711D01*
X81616304Y-69005322D01*
X81682492Y-69040701D01*
X81754311Y-69062487D01*
X81829000Y-69069843D01*
X82829000Y-69069843D01*
X82903689Y-69062487D01*
X82975508Y-69040701D01*
X83041696Y-69005322D01*
X83099711Y-68957711D01*
X83147322Y-68899696D01*
X83182701Y-68833508D01*
X83204487Y-68761689D01*
X83211843Y-68687000D01*
X83211843Y-66187000D01*
X83446157Y-66187000D01*
X83446157Y-68687000D01*
X83453513Y-68761689D01*
X83475299Y-68833508D01*
X83510678Y-68899696D01*
X83558289Y-68957711D01*
X83616304Y-69005322D01*
X83682492Y-69040701D01*
X83754311Y-69062487D01*
X83829000Y-69069843D01*
X84829000Y-69069843D01*
X84903689Y-69062487D01*
X84975508Y-69040701D01*
X85041696Y-69005322D01*
X85099711Y-68957711D01*
X85147322Y-68899696D01*
X85182701Y-68833508D01*
X85204487Y-68761689D01*
X85211843Y-68687000D01*
X85211843Y-66187000D01*
X85446157Y-66187000D01*
X85446157Y-68687000D01*
X85453513Y-68761689D01*
X85475299Y-68833508D01*
X85510678Y-68899696D01*
X85558289Y-68957711D01*
X85616304Y-69005322D01*
X85682492Y-69040701D01*
X85754311Y-69062487D01*
X85829000Y-69069843D01*
X86829000Y-69069843D01*
X86903689Y-69062487D01*
X86975508Y-69040701D01*
X87041696Y-69005322D01*
X87099711Y-68957711D01*
X87147322Y-68899696D01*
X87182701Y-68833508D01*
X87204487Y-68761689D01*
X87211843Y-68687000D01*
X87211843Y-66187000D01*
X87446157Y-66187000D01*
X87446157Y-68687000D01*
X87453513Y-68761689D01*
X87475299Y-68833508D01*
X87510678Y-68899696D01*
X87558289Y-68957711D01*
X87616304Y-69005322D01*
X87682492Y-69040701D01*
X87754311Y-69062487D01*
X87829000Y-69069843D01*
X88829000Y-69069843D01*
X88903689Y-69062487D01*
X88975508Y-69040701D01*
X89041696Y-69005322D01*
X89099711Y-68957711D01*
X89147322Y-68899696D01*
X89182701Y-68833508D01*
X89204487Y-68761689D01*
X89211843Y-68687000D01*
X89211843Y-66187000D01*
X89446157Y-66187000D01*
X89446157Y-68687000D01*
X89453513Y-68761689D01*
X89475299Y-68833508D01*
X89510678Y-68899696D01*
X89558289Y-68957711D01*
X89616304Y-69005322D01*
X89682492Y-69040701D01*
X89754311Y-69062487D01*
X89829000Y-69069843D01*
X90829000Y-69069843D01*
X90903689Y-69062487D01*
X90975508Y-69040701D01*
X91041696Y-69005322D01*
X91099711Y-68957711D01*
X91147322Y-68899696D01*
X91182701Y-68833508D01*
X91204487Y-68761689D01*
X91211843Y-68687000D01*
X91211843Y-66187000D01*
X91204487Y-66112311D01*
X91182701Y-66040492D01*
X91147322Y-65974304D01*
X91099711Y-65916289D01*
X91041696Y-65868678D01*
X90975508Y-65833299D01*
X90903689Y-65811513D01*
X90829000Y-65804157D01*
X89829000Y-65804157D01*
X89754311Y-65811513D01*
X89682492Y-65833299D01*
X89616304Y-65868678D01*
X89558289Y-65916289D01*
X89510678Y-65974304D01*
X89475299Y-66040492D01*
X89453513Y-66112311D01*
X89446157Y-66187000D01*
X89211843Y-66187000D01*
X89204487Y-66112311D01*
X89182701Y-66040492D01*
X89147322Y-65974304D01*
X89099711Y-65916289D01*
X89056711Y-65881000D01*
X89176922Y-65881000D01*
X89327809Y-65850987D01*
X89469942Y-65792113D01*
X89597859Y-65706642D01*
X89706642Y-65597859D01*
X89792113Y-65469942D01*
X89850987Y-65327809D01*
X89881000Y-65176922D01*
X89881000Y-65023078D01*
X89850987Y-64872191D01*
X89792113Y-64730058D01*
X89706642Y-64602141D01*
X89597859Y-64493358D01*
X89469942Y-64407887D01*
X89327809Y-64349013D01*
X89176922Y-64319000D01*
X89023078Y-64319000D01*
X88872191Y-64349013D01*
X88730058Y-64407887D01*
X88602141Y-64493358D01*
X88493358Y-64602141D01*
X88407887Y-64730058D01*
X88349013Y-64872191D01*
X88319000Y-65023078D01*
X88319000Y-65165409D01*
X87988780Y-65495629D01*
X87969474Y-65511473D01*
X87906242Y-65588521D01*
X87886485Y-65625483D01*
X87859255Y-65676426D01*
X87830322Y-65771808D01*
X87827118Y-65804342D01*
X87754311Y-65811513D01*
X87682492Y-65833299D01*
X87616304Y-65868678D01*
X87558289Y-65916289D01*
X87510678Y-65974304D01*
X87475299Y-66040492D01*
X87453513Y-66112311D01*
X87446157Y-66187000D01*
X87211843Y-66187000D01*
X87204487Y-66112311D01*
X87182701Y-66040492D01*
X87147322Y-65974304D01*
X87099711Y-65916289D01*
X87080812Y-65900779D01*
X87104322Y-65877269D01*
X87123078Y-65881000D01*
X87276922Y-65881000D01*
X87427809Y-65850987D01*
X87569942Y-65792113D01*
X87697859Y-65706642D01*
X87806642Y-65597859D01*
X87892113Y-65469942D01*
X87950987Y-65327809D01*
X87981000Y-65176922D01*
X87981000Y-65023078D01*
X87950987Y-64872191D01*
X87892113Y-64730058D01*
X87806642Y-64602141D01*
X87697859Y-64493358D01*
X87569942Y-64407887D01*
X87427809Y-64349013D01*
X87276922Y-64319000D01*
X87123078Y-64319000D01*
X86972191Y-64349013D01*
X86830058Y-64407887D01*
X86702141Y-64493358D01*
X86593358Y-64602141D01*
X86507887Y-64730058D01*
X86449013Y-64872191D01*
X86419000Y-65023078D01*
X86419000Y-65131408D01*
X85988785Y-65561624D01*
X85969473Y-65577473D01*
X85906241Y-65654521D01*
X85859255Y-65742426D01*
X85840530Y-65804157D01*
X85829000Y-65804157D01*
X85754311Y-65811513D01*
X85682492Y-65833299D01*
X85616304Y-65868678D01*
X85558289Y-65916289D01*
X85510678Y-65974304D01*
X85475299Y-66040492D01*
X85453513Y-66112311D01*
X85446157Y-66187000D01*
X85211843Y-66187000D01*
X85204487Y-66112311D01*
X85182701Y-66040492D01*
X85147322Y-65974304D01*
X85099711Y-65916289D01*
X85056711Y-65881000D01*
X85176922Y-65881000D01*
X85327809Y-65850987D01*
X85469942Y-65792113D01*
X85597859Y-65706642D01*
X85706642Y-65597859D01*
X85792113Y-65469942D01*
X85850987Y-65327809D01*
X85881000Y-65176922D01*
X85881000Y-65023078D01*
X85850987Y-64872191D01*
X85792113Y-64730058D01*
X85706642Y-64602141D01*
X85597859Y-64493358D01*
X85469942Y-64407887D01*
X85327809Y-64349013D01*
X85176922Y-64319000D01*
X85023078Y-64319000D01*
X84872191Y-64349013D01*
X84730058Y-64407887D01*
X84602141Y-64493358D01*
X84493358Y-64602141D01*
X84407887Y-64730058D01*
X84349013Y-64872191D01*
X84319000Y-65023078D01*
X84319000Y-65165409D01*
X84055827Y-65428582D01*
X84046521Y-65433556D01*
X83969473Y-65496788D01*
X83906241Y-65573836D01*
X83859255Y-65661740D01*
X83830322Y-65757122D01*
X83825657Y-65804486D01*
X83754311Y-65811513D01*
X83682492Y-65833299D01*
X83616304Y-65868678D01*
X83558289Y-65916289D01*
X83510678Y-65974304D01*
X83475299Y-66040492D01*
X83453513Y-66112311D01*
X83446157Y-66187000D01*
X83211843Y-66187000D01*
X83204487Y-66112311D01*
X83182701Y-66040492D01*
X83147322Y-65974304D01*
X83099711Y-65916289D01*
X83041696Y-65868678D01*
X82975508Y-65833299D01*
X82903689Y-65811513D01*
X82829000Y-65804157D01*
X82817471Y-65804157D01*
X82802000Y-65753156D01*
X82802000Y-65495501D01*
X82902642Y-65394859D01*
X82988113Y-65266942D01*
X83046987Y-65124809D01*
X83077000Y-64973922D01*
X83077000Y-64820078D01*
X83046987Y-64669191D01*
X82988113Y-64527058D01*
X82902642Y-64399141D01*
X82793859Y-64290358D01*
X82665942Y-64204887D01*
X82523809Y-64146013D01*
X82372922Y-64116000D01*
X82230592Y-64116000D01*
X80552999Y-62438408D01*
X80552999Y-61458739D01*
X80695078Y-61487000D01*
X80837409Y-61487000D01*
X81412628Y-62062220D01*
X81428473Y-62081527D01*
X81505521Y-62144759D01*
X81593425Y-62191745D01*
X81688807Y-62220678D01*
X81763146Y-62228000D01*
X81763154Y-62228000D01*
X81788000Y-62230447D01*
X81812846Y-62228000D01*
X90271411Y-62228000D01*
X90662411Y-62619000D01*
X90623078Y-62619000D01*
X90472191Y-62649013D01*
X90330058Y-62707887D01*
X90202141Y-62793358D01*
X90093358Y-62902141D01*
X90007887Y-63030058D01*
X89949013Y-63172191D01*
X89919000Y-63323078D01*
X89919000Y-63476922D01*
X89949013Y-63627809D01*
X90007887Y-63769942D01*
X90093358Y-63897859D01*
X90202141Y-64006642D01*
X90330058Y-64092113D01*
X90472191Y-64150987D01*
X90623078Y-64181000D01*
X90722437Y-64181000D01*
X91823000Y-65402961D01*
X91823000Y-65804748D01*
X91754311Y-65811513D01*
X91682492Y-65833299D01*
X91616304Y-65868678D01*
X91558289Y-65916289D01*
X91510678Y-65974304D01*
X91475299Y-66040492D01*
X91453513Y-66112311D01*
X91446157Y-66187000D01*
X91446157Y-68687000D01*
X91453513Y-68761689D01*
X91475299Y-68833508D01*
X91510678Y-68899696D01*
X91558289Y-68957711D01*
X91616304Y-69005322D01*
X91682492Y-69040701D01*
X91754311Y-69062487D01*
X91829000Y-69069843D01*
X92829000Y-69069843D01*
X92903689Y-69062487D01*
X92975508Y-69040701D01*
X93041696Y-69005322D01*
X93099711Y-68957711D01*
X93147322Y-68899696D01*
X93182701Y-68833508D01*
X93204487Y-68761689D01*
X93211843Y-68687000D01*
X93211843Y-66187000D01*
X93204487Y-66112311D01*
X93182701Y-66040492D01*
X93147322Y-65974304D01*
X93099711Y-65916289D01*
X93041696Y-65868678D01*
X92975508Y-65833299D01*
X92903689Y-65811513D01*
X92835000Y-65804748D01*
X92835000Y-65246806D01*
X92836755Y-65235225D01*
X92835000Y-65197063D01*
X92835000Y-65183831D01*
X92833858Y-65172241D01*
X92832176Y-65135657D01*
X92828982Y-65122736D01*
X92827678Y-65109492D01*
X92817049Y-65074452D01*
X92808261Y-65038895D01*
X92802608Y-65026846D01*
X92798745Y-65014110D01*
X92781479Y-64981808D01*
X92765927Y-64948658D01*
X92758034Y-64937946D01*
X92751759Y-64926206D01*
X92728518Y-64897887D01*
X92721617Y-64888521D01*
X92712771Y-64878699D01*
X92688527Y-64849158D01*
X92679470Y-64841725D01*
X91475438Y-63504884D01*
X91481000Y-63476922D01*
X91481000Y-63437589D01*
X93823001Y-65779591D01*
X93823001Y-65804748D01*
X93754311Y-65811513D01*
X93682492Y-65833299D01*
X93616304Y-65868678D01*
X93558289Y-65916289D01*
X93510678Y-65974304D01*
X93475299Y-66040492D01*
X93453513Y-66112311D01*
X93446157Y-66187000D01*
X93446157Y-68687000D01*
X93453513Y-68761689D01*
X93475299Y-68833508D01*
X93510678Y-68899696D01*
X93558289Y-68957711D01*
X93616304Y-69005322D01*
X93682492Y-69040701D01*
X93754311Y-69062487D01*
X93829000Y-69069843D01*
X94829000Y-69069843D01*
X94903689Y-69062487D01*
X94975508Y-69040701D01*
X95041696Y-69005322D01*
X95099711Y-68957711D01*
X95147322Y-68899696D01*
X95182701Y-68833508D01*
X95204487Y-68761689D01*
X95211843Y-68687000D01*
X95211843Y-66187000D01*
X95204487Y-66112311D01*
X95182701Y-66040492D01*
X95147322Y-65974304D01*
X95099711Y-65916289D01*
X95041696Y-65868678D01*
X94975508Y-65833299D01*
X94903689Y-65811513D01*
X94835000Y-65804748D01*
X94835000Y-65594844D01*
X94837447Y-65569998D01*
X94835000Y-65545152D01*
X94835000Y-65545144D01*
X94827678Y-65470805D01*
X94798745Y-65375423D01*
X94751759Y-65287519D01*
X94688527Y-65210471D01*
X94669220Y-65194626D01*
X90856378Y-61381785D01*
X90840529Y-61362473D01*
X90763481Y-61299241D01*
X90675577Y-61252255D01*
X90580195Y-61223322D01*
X90505856Y-61216000D01*
X90505848Y-61216000D01*
X90481002Y-61213553D01*
X90456156Y-61216000D01*
X81997592Y-61216000D01*
X81553000Y-60771409D01*
X81553000Y-60629078D01*
X81522987Y-60478191D01*
X81464113Y-60336058D01*
X81378642Y-60208141D01*
X81366501Y-60196000D01*
X83795154Y-60196000D01*
X83820000Y-60198447D01*
X83844846Y-60196000D01*
X83844854Y-60196000D01*
X83919193Y-60188678D01*
X84014575Y-60159745D01*
X84102479Y-60112759D01*
X84179527Y-60049527D01*
X84195376Y-60030215D01*
X84666371Y-59559221D01*
X84666376Y-59559215D01*
X84795215Y-59430376D01*
X84814527Y-59414527D01*
X84877759Y-59337479D01*
X84924745Y-59249575D01*
X84953678Y-59154193D01*
X84961000Y-59079854D01*
X84961000Y-59079853D01*
X84963448Y-59055000D01*
X84961000Y-59030146D01*
X84961000Y-57682845D01*
X84963447Y-57657999D01*
X84961000Y-57633153D01*
X84961000Y-57633146D01*
X84953678Y-57558807D01*
X84924745Y-57463425D01*
X84877759Y-57375521D01*
X84814527Y-57298473D01*
X84795220Y-57282628D01*
X83687376Y-56174785D01*
X83671527Y-56155473D01*
X83594479Y-56092241D01*
X83506575Y-56045255D01*
X83411193Y-56016322D01*
X83336854Y-56009000D01*
X83336846Y-56009000D01*
X83312000Y-56006553D01*
X83287154Y-56009000D01*
X80481501Y-56009000D01*
X80380859Y-55908358D01*
X80252942Y-55822887D01*
X80110809Y-55764013D01*
X79959922Y-55734000D01*
X79806078Y-55734000D01*
X79655191Y-55764013D01*
X79513058Y-55822887D01*
X79385141Y-55908358D01*
X79276358Y-56017141D01*
X79190887Y-56145058D01*
X79132013Y-56287191D01*
X79102000Y-56438078D01*
X79102000Y-56591922D01*
X79132013Y-56742809D01*
X79190887Y-56884942D01*
X79276358Y-57012859D01*
X79385141Y-57121642D01*
X79513058Y-57207113D01*
X79655191Y-57265987D01*
X79806078Y-57296000D01*
X79959922Y-57296000D01*
X80110809Y-57265987D01*
X80252942Y-57207113D01*
X80380859Y-57121642D01*
X80481501Y-57021000D01*
X83102409Y-57021000D01*
X83949001Y-57867593D01*
X83949001Y-57990613D01*
X83935942Y-57981887D01*
X83793809Y-57923013D01*
X83642922Y-57893000D01*
X83489078Y-57893000D01*
X83338191Y-57923013D01*
X83196058Y-57981887D01*
X83104595Y-58043000D01*
X80756987Y-58043000D01*
X80725999Y-58039948D01*
X80695011Y-58043000D01*
X80695002Y-58043000D01*
X80602302Y-58052130D01*
X80483358Y-58088211D01*
X80373739Y-58146804D01*
X80277657Y-58225657D01*
X80257899Y-58249732D01*
X79047726Y-59459906D01*
X79023646Y-59479668D01*
X78944793Y-59575751D01*
X78886200Y-59685370D01*
X78850119Y-59804314D01*
X78840989Y-59897014D01*
X78840989Y-59897021D01*
X78837937Y-59928011D01*
X78511000Y-59928011D01*
X78511000Y-55426766D01*
X89309600Y-55426766D01*
X89309600Y-55571234D01*
X89337784Y-55712925D01*
X89393069Y-55846395D01*
X89473331Y-55966515D01*
X89575485Y-56068669D01*
X89695605Y-56148931D01*
X89829075Y-56204216D01*
X89970766Y-56232400D01*
X90115234Y-56232400D01*
X90256925Y-56204216D01*
X90390395Y-56148931D01*
X90510515Y-56068669D01*
X90612669Y-55966515D01*
X90692931Y-55846395D01*
X90748216Y-55712925D01*
X90776400Y-55571234D01*
X90776400Y-55426766D01*
X90748216Y-55285075D01*
X90692931Y-55151605D01*
X90612669Y-55031485D01*
X90510515Y-54929331D01*
X90390395Y-54849069D01*
X90256925Y-54793784D01*
X90115234Y-54765600D01*
X89970766Y-54765600D01*
X89829075Y-54793784D01*
X89695605Y-54849069D01*
X89575485Y-54929331D01*
X89473331Y-55031485D01*
X89393069Y-55151605D01*
X89337784Y-55285075D01*
X89309600Y-55426766D01*
X78511000Y-55426766D01*
X78511000Y-53487000D01*
X81190928Y-53487000D01*
X81203188Y-53611482D01*
X81239498Y-53731180D01*
X81298463Y-53841494D01*
X81377815Y-53938185D01*
X81474506Y-54017537D01*
X81584820Y-54076502D01*
X81704518Y-54112812D01*
X81829000Y-54125072D01*
X82043250Y-54122000D01*
X82202000Y-53963250D01*
X82202000Y-52364000D01*
X81352750Y-52364000D01*
X81194000Y-52522750D01*
X81190928Y-53487000D01*
X78511000Y-53487000D01*
X78511000Y-50987000D01*
X81190928Y-50987000D01*
X81194000Y-51951250D01*
X81352750Y-52110000D01*
X82202000Y-52110000D01*
X82202000Y-50510750D01*
X82456000Y-50510750D01*
X82456000Y-52110000D01*
X82476000Y-52110000D01*
X82476000Y-52364000D01*
X82456000Y-52364000D01*
X82456000Y-53963250D01*
X82614750Y-54122000D01*
X82829000Y-54125072D01*
X82953482Y-54112812D01*
X83073180Y-54076502D01*
X83166000Y-54026888D01*
X83166000Y-54178922D01*
X83196013Y-54329809D01*
X83254887Y-54471942D01*
X83340358Y-54599859D01*
X83449141Y-54708642D01*
X83577058Y-54794113D01*
X83719191Y-54852987D01*
X83870078Y-54883000D01*
X84023922Y-54883000D01*
X84174809Y-54852987D01*
X84316942Y-54794113D01*
X84444859Y-54708642D01*
X84553642Y-54599859D01*
X84639113Y-54471942D01*
X84697987Y-54329809D01*
X84728000Y-54178922D01*
X84728000Y-54025078D01*
X84697987Y-53874191D01*
X84696186Y-53869843D01*
X84829000Y-53869843D01*
X84903689Y-53862487D01*
X84975508Y-53840701D01*
X85041696Y-53805322D01*
X85099711Y-53757711D01*
X85147322Y-53699696D01*
X85182701Y-53633508D01*
X85204487Y-53561689D01*
X85211843Y-53487000D01*
X85211843Y-50987000D01*
X85446157Y-50987000D01*
X85446157Y-53487000D01*
X85453513Y-53561689D01*
X85475299Y-53633508D01*
X85510678Y-53699696D01*
X85558289Y-53757711D01*
X85616304Y-53805322D01*
X85682492Y-53840701D01*
X85754311Y-53862487D01*
X85829000Y-53869843D01*
X86829000Y-53869843D01*
X86903689Y-53862487D01*
X86975508Y-53840701D01*
X87041696Y-53805322D01*
X87099711Y-53757711D01*
X87147322Y-53699696D01*
X87182701Y-53633508D01*
X87204487Y-53561689D01*
X87211843Y-53487000D01*
X87211843Y-50987000D01*
X87446157Y-50987000D01*
X87446157Y-53487000D01*
X87453513Y-53561689D01*
X87475299Y-53633508D01*
X87510678Y-53699696D01*
X87558289Y-53757711D01*
X87616304Y-53805322D01*
X87628187Y-53811674D01*
X87611000Y-53898078D01*
X87611000Y-54051922D01*
X87641013Y-54202809D01*
X87699887Y-54344942D01*
X87785358Y-54472859D01*
X87894141Y-54581642D01*
X88022058Y-54667113D01*
X88164191Y-54725987D01*
X88315078Y-54756000D01*
X88468922Y-54756000D01*
X88619809Y-54725987D01*
X88761942Y-54667113D01*
X88889859Y-54581642D01*
X88998642Y-54472859D01*
X89084113Y-54344942D01*
X89142987Y-54202809D01*
X89173000Y-54051922D01*
X89173000Y-53898078D01*
X89142987Y-53747191D01*
X89131367Y-53719138D01*
X89147322Y-53699696D01*
X89182701Y-53633508D01*
X89204487Y-53561689D01*
X89211843Y-53487000D01*
X89211843Y-50987000D01*
X89446157Y-50987000D01*
X89446157Y-53487000D01*
X89453513Y-53561689D01*
X89475299Y-53633508D01*
X89510678Y-53699696D01*
X89558289Y-53757711D01*
X89616304Y-53805322D01*
X89682492Y-53840701D01*
X89754311Y-53862487D01*
X89829000Y-53869843D01*
X89840530Y-53869843D01*
X89859255Y-53931574D01*
X89906241Y-54019479D01*
X89969473Y-54096527D01*
X89988785Y-54112376D01*
X95379001Y-59502593D01*
X95379000Y-61123499D01*
X95278358Y-61224141D01*
X95192887Y-61352058D01*
X95134013Y-61494191D01*
X95104000Y-61645078D01*
X95104000Y-61798922D01*
X95134013Y-61949809D01*
X95192887Y-62091942D01*
X95278358Y-62219859D01*
X95387141Y-62328642D01*
X95515058Y-62414113D01*
X95657191Y-62472987D01*
X95808078Y-62503000D01*
X95961922Y-62503000D01*
X96112809Y-62472987D01*
X96254942Y-62414113D01*
X96382859Y-62328642D01*
X96491642Y-62219859D01*
X96577113Y-62091942D01*
X96635987Y-61949809D01*
X96666000Y-61798922D01*
X96666000Y-61645078D01*
X96635987Y-61494191D01*
X96577113Y-61352058D01*
X96491642Y-61224141D01*
X96391000Y-61123499D01*
X96391000Y-59317854D01*
X96393448Y-59293000D01*
X96383678Y-59193807D01*
X96354745Y-59098425D01*
X96354660Y-59098266D01*
X96307759Y-59010521D01*
X96244527Y-58933473D01*
X96225220Y-58917628D01*
X91080812Y-53773221D01*
X91099711Y-53757711D01*
X91147322Y-53699696D01*
X91182701Y-53633508D01*
X91204487Y-53561689D01*
X91211843Y-53487000D01*
X91211843Y-50987000D01*
X91446157Y-50987000D01*
X91446157Y-53487000D01*
X91453513Y-53561689D01*
X91475299Y-53633508D01*
X91510678Y-53699696D01*
X91558289Y-53757711D01*
X91616304Y-53805322D01*
X91682492Y-53840701D01*
X91754311Y-53862487D01*
X91829000Y-53869843D01*
X91840530Y-53869843D01*
X91859255Y-53931574D01*
X91876187Y-53963250D01*
X91906242Y-54019479D01*
X91969474Y-54096527D01*
X91988781Y-54112372D01*
X94816628Y-56940220D01*
X94832473Y-56959527D01*
X94909521Y-57022759D01*
X94997425Y-57069745D01*
X95070607Y-57091944D01*
X95092806Y-57098678D01*
X95102694Y-57099652D01*
X95167146Y-57106000D01*
X95167153Y-57106000D01*
X95191999Y-57108447D01*
X95202875Y-57107376D01*
X95302141Y-57206642D01*
X95430058Y-57292113D01*
X95572191Y-57350987D01*
X95723078Y-57381000D01*
X95876922Y-57381000D01*
X96027809Y-57350987D01*
X96169942Y-57292113D01*
X96297859Y-57206642D01*
X96406642Y-57097859D01*
X96492113Y-56969942D01*
X96550987Y-56827809D01*
X96581000Y-56676922D01*
X96581000Y-56523078D01*
X96550987Y-56372191D01*
X96492113Y-56230058D01*
X96490341Y-56227406D01*
X96606925Y-56204216D01*
X96740395Y-56148931D01*
X96860515Y-56068669D01*
X96962669Y-55966515D01*
X97042931Y-55846395D01*
X97098216Y-55712925D01*
X97126400Y-55571234D01*
X97126400Y-55426766D01*
X97098216Y-55285075D01*
X97042931Y-55151605D01*
X96962669Y-55031485D01*
X96860515Y-54929331D01*
X96740395Y-54849069D01*
X96606925Y-54793784D01*
X96465234Y-54765600D01*
X96320766Y-54765600D01*
X96179075Y-54793784D01*
X96045605Y-54849069D01*
X95925485Y-54929331D01*
X95823331Y-55031485D01*
X95743069Y-55151605D01*
X95687784Y-55285075D01*
X95659600Y-55426766D01*
X95659600Y-55571234D01*
X95687784Y-55712925D01*
X95731722Y-55819000D01*
X95723078Y-55819000D01*
X95572191Y-55849013D01*
X95430058Y-55907887D01*
X95302141Y-55993358D01*
X95301545Y-55993954D01*
X93080812Y-53773221D01*
X93099711Y-53757711D01*
X93147322Y-53699696D01*
X93182701Y-53633508D01*
X93204487Y-53561689D01*
X93211843Y-53487000D01*
X93211843Y-50987000D01*
X93446157Y-50987000D01*
X93446157Y-53487000D01*
X93453513Y-53561689D01*
X93475299Y-53633508D01*
X93510678Y-53699696D01*
X93558289Y-53757711D01*
X93616304Y-53805322D01*
X93682492Y-53840701D01*
X93754311Y-53862487D01*
X93829000Y-53869843D01*
X93957423Y-53869843D01*
X93969474Y-53884527D01*
X93988780Y-53900371D01*
X94215000Y-54126591D01*
X94215000Y-54268922D01*
X94245013Y-54419809D01*
X94303887Y-54561942D01*
X94389358Y-54689859D01*
X94498141Y-54798642D01*
X94626058Y-54884113D01*
X94768191Y-54942987D01*
X94919078Y-54973000D01*
X95072922Y-54973000D01*
X95223809Y-54942987D01*
X95365942Y-54884113D01*
X95493859Y-54798642D01*
X95602642Y-54689859D01*
X95688113Y-54561942D01*
X95705783Y-54519284D01*
X95768141Y-54581642D01*
X95896058Y-54667113D01*
X96038191Y-54725987D01*
X96189078Y-54756000D01*
X96342922Y-54756000D01*
X96493809Y-54725987D01*
X96635942Y-54667113D01*
X96763859Y-54581642D01*
X96872642Y-54472859D01*
X96958113Y-54344942D01*
X97016987Y-54202809D01*
X97047000Y-54051922D01*
X97047000Y-53898078D01*
X97029813Y-53811674D01*
X97041696Y-53805322D01*
X97099711Y-53757711D01*
X97147322Y-53699696D01*
X97182701Y-53633508D01*
X97204487Y-53561689D01*
X97211843Y-53487000D01*
X97211843Y-50987000D01*
X97204487Y-50912311D01*
X97182701Y-50840492D01*
X97147322Y-50774304D01*
X97099711Y-50716289D01*
X97041696Y-50668678D01*
X96975508Y-50633299D01*
X96903689Y-50611513D01*
X96829000Y-50604157D01*
X95829000Y-50604157D01*
X95754311Y-50611513D01*
X95682492Y-50633299D01*
X95616304Y-50668678D01*
X95558289Y-50716289D01*
X95510678Y-50774304D01*
X95475299Y-50840492D01*
X95453513Y-50912311D01*
X95446157Y-50987000D01*
X95446157Y-53487000D01*
X95453166Y-53558168D01*
X95365942Y-53499887D01*
X95223809Y-53441013D01*
X95211843Y-53438633D01*
X95211843Y-50987000D01*
X95204487Y-50912311D01*
X95182701Y-50840492D01*
X95147322Y-50774304D01*
X95099711Y-50716289D01*
X95041696Y-50668678D01*
X94975508Y-50633299D01*
X94903689Y-50611513D01*
X94829000Y-50604157D01*
X93829000Y-50604157D01*
X93754311Y-50611513D01*
X93682492Y-50633299D01*
X93616304Y-50668678D01*
X93558289Y-50716289D01*
X93510678Y-50774304D01*
X93475299Y-50840492D01*
X93453513Y-50912311D01*
X93446157Y-50987000D01*
X93211843Y-50987000D01*
X93204487Y-50912311D01*
X93182701Y-50840492D01*
X93147322Y-50774304D01*
X93099711Y-50716289D01*
X93041696Y-50668678D01*
X92975508Y-50633299D01*
X92903689Y-50611513D01*
X92829000Y-50604157D01*
X91829000Y-50604157D01*
X91754311Y-50611513D01*
X91682492Y-50633299D01*
X91616304Y-50668678D01*
X91558289Y-50716289D01*
X91510678Y-50774304D01*
X91475299Y-50840492D01*
X91453513Y-50912311D01*
X91446157Y-50987000D01*
X91211843Y-50987000D01*
X91204487Y-50912311D01*
X91182701Y-50840492D01*
X91147322Y-50774304D01*
X91099711Y-50716289D01*
X91041696Y-50668678D01*
X90975508Y-50633299D01*
X90903689Y-50611513D01*
X90829000Y-50604157D01*
X89829000Y-50604157D01*
X89754311Y-50611513D01*
X89682492Y-50633299D01*
X89616304Y-50668678D01*
X89558289Y-50716289D01*
X89510678Y-50774304D01*
X89475299Y-50840492D01*
X89453513Y-50912311D01*
X89446157Y-50987000D01*
X89211843Y-50987000D01*
X89204487Y-50912311D01*
X89182701Y-50840492D01*
X89147322Y-50774304D01*
X89099711Y-50716289D01*
X89041696Y-50668678D01*
X88975508Y-50633299D01*
X88903689Y-50611513D01*
X88829000Y-50604157D01*
X87829000Y-50604157D01*
X87754311Y-50611513D01*
X87682492Y-50633299D01*
X87616304Y-50668678D01*
X87558289Y-50716289D01*
X87510678Y-50774304D01*
X87475299Y-50840492D01*
X87453513Y-50912311D01*
X87446157Y-50987000D01*
X87211843Y-50987000D01*
X87204487Y-50912311D01*
X87182701Y-50840492D01*
X87147322Y-50774304D01*
X87099711Y-50716289D01*
X87041696Y-50668678D01*
X86975508Y-50633299D01*
X86903689Y-50611513D01*
X86829000Y-50604157D01*
X85829000Y-50604157D01*
X85754311Y-50611513D01*
X85682492Y-50633299D01*
X85616304Y-50668678D01*
X85558289Y-50716289D01*
X85510678Y-50774304D01*
X85475299Y-50840492D01*
X85453513Y-50912311D01*
X85446157Y-50987000D01*
X85211843Y-50987000D01*
X85204487Y-50912311D01*
X85182701Y-50840492D01*
X85147322Y-50774304D01*
X85099711Y-50716289D01*
X85041696Y-50668678D01*
X84975508Y-50633299D01*
X84903689Y-50611513D01*
X84829000Y-50604157D01*
X83829000Y-50604157D01*
X83754311Y-50611513D01*
X83682492Y-50633299D01*
X83616304Y-50668678D01*
X83558289Y-50716289D01*
X83510678Y-50774304D01*
X83475299Y-50840492D01*
X83458196Y-50896874D01*
X83454812Y-50862518D01*
X83418502Y-50742820D01*
X83359537Y-50632506D01*
X83280185Y-50535815D01*
X83183494Y-50456463D01*
X83073180Y-50397498D01*
X82953482Y-50361188D01*
X82829000Y-50348928D01*
X82614750Y-50352000D01*
X82456000Y-50510750D01*
X82202000Y-50510750D01*
X82043250Y-50352000D01*
X81829000Y-50348928D01*
X81704518Y-50361188D01*
X81584820Y-50397498D01*
X81474506Y-50456463D01*
X81377815Y-50535815D01*
X81298463Y-50632506D01*
X81239498Y-50742820D01*
X81203188Y-50862518D01*
X81190928Y-50987000D01*
X78511000Y-50987000D01*
X78511000Y-50616654D01*
X78525494Y-50468830D01*
X78562660Y-50345731D01*
X78623028Y-50232196D01*
X78704296Y-50132551D01*
X78803372Y-50050588D01*
X78916487Y-49989426D01*
X79039318Y-49951404D01*
X79185878Y-49936000D01*
X97473000Y-49936000D01*
X97473000Y-64428961D01*
M02*
