G04 #@! TF.GenerationSoftware,KiCad,Pcbnew,(5.1.5)-3*
G04 #@! TF.CreationDate,2020-03-19T01:35:53+01:00*
G04 #@! TF.ProjectId,ESP8266_RGBA_Receiver,45535038-3236-4365-9f52-4742415f5265,rev?*
G04 #@! TF.SameCoordinates,Original*
G04 #@! TF.FileFunction,Copper,L2,Bot*
G04 #@! TF.FilePolarity,Positive*
%FSLAX46Y46*%
G04 Gerber Fmt 4.6, Leading zero omitted, Abs format (unit mm)*
G04 Created by KiCad (PCBNEW (5.1.5)-3) date 2020-03-19 01:35:53*
%MOMM*%
%LPD*%
G04 APERTURE LIST*
%ADD10C,1.270000*%
%ADD11R,1.000000X2.500000*%
%ADD12C,0.704800*%
%ADD13C,0.800000*%
%ADD14C,0.250000*%
%ADD15C,0.500000*%
%ADD16C,0.254000*%
G04 APERTURE END LIST*
D10*
X80391000Y-76200000D03*
X82931000Y-76200000D03*
X85471000Y-76200000D03*
X88011000Y-76200000D03*
X90551000Y-76200000D03*
X93091000Y-76200000D03*
X95631000Y-76200000D03*
D11*
X96329000Y-67437000D03*
X94329000Y-67437000D03*
X92329000Y-67437000D03*
X90329000Y-67437000D03*
X88329000Y-67437000D03*
X86329000Y-67437000D03*
X84329000Y-67437000D03*
X82329000Y-67437000D03*
X82329000Y-52237000D03*
X84329000Y-52237000D03*
X86329000Y-52237000D03*
X88329000Y-52237000D03*
X90329000Y-52237000D03*
X92329000Y-52237000D03*
X94329000Y-52237000D03*
X96329000Y-52237000D03*
D12*
X90043000Y-55499000D03*
X96393000Y-55499000D03*
D13*
X81534000Y-53975000D03*
X83566000Y-58674000D03*
X81788000Y-71120000D03*
X82296000Y-64897000D03*
X92329000Y-64643000D03*
X79883000Y-56515000D03*
X88392000Y-53975000D03*
X96266000Y-53975000D03*
X94996000Y-54192000D03*
X97663000Y-65786000D03*
X95885000Y-61722000D03*
X86360000Y-64643000D03*
X86741000Y-70993000D03*
X83312000Y-70104000D03*
X83566000Y-65278000D03*
X80772000Y-60706000D03*
X83947000Y-54102000D03*
X88392000Y-64643000D03*
D14*
X81534000Y-52282000D02*
X81534000Y-53975000D01*
X82329000Y-52237000D02*
X81579000Y-52237000D01*
X81579000Y-52237000D02*
X81534000Y-52282000D01*
X81788000Y-71120000D02*
X79756000Y-71120000D01*
X79375000Y-70739000D02*
X79375000Y-70612000D01*
X79756000Y-71120000D02*
X79375000Y-70739000D01*
X83000315Y-58674000D02*
X83566000Y-58674000D01*
X79375000Y-70612000D02*
X79375000Y-59690000D01*
X80391000Y-58674000D02*
X83000315Y-58674000D01*
X79375000Y-59690000D02*
X80391000Y-58674000D01*
X82296000Y-64897000D02*
X82296000Y-65904000D01*
X82296000Y-65904000D02*
X82329000Y-65937000D01*
X82329000Y-65937000D02*
X82329000Y-67437000D01*
X92329000Y-65208685D02*
X92329000Y-67437000D01*
X92329000Y-64643000D02*
X92329000Y-65208685D01*
X80046999Y-60357999D02*
X80714998Y-59690000D01*
X82296000Y-64897000D02*
X80046999Y-62647999D01*
X80046999Y-62647999D02*
X80046999Y-60357999D01*
X80714998Y-59690000D02*
X83623002Y-59690000D01*
X83623002Y-59690000D02*
X83820000Y-59690000D01*
X83820000Y-59690000D02*
X84291001Y-59218999D01*
X84291001Y-59218999D02*
X84455000Y-59055000D01*
X84455000Y-59055000D02*
X84455000Y-57658000D01*
X84455000Y-57658000D02*
X83312000Y-56515000D01*
X83312000Y-56515000D02*
X79883000Y-56515000D01*
X88392000Y-52300000D02*
X88329000Y-52237000D01*
X88392000Y-53975000D02*
X88392000Y-52300000D01*
X96266000Y-52300000D02*
X96329000Y-52237000D01*
X96266000Y-53975000D02*
X96266000Y-52300000D01*
X94329000Y-52237000D02*
X94329000Y-53525000D01*
X94329000Y-53525000D02*
X94996000Y-54192000D01*
X97663000Y-66103000D02*
X96329000Y-67437000D01*
X97663000Y-65786000D02*
X97663000Y-66103000D01*
X90329000Y-53737000D02*
X90329000Y-52237000D01*
X95885000Y-59293000D02*
X90329000Y-53737000D01*
X95885000Y-61722000D02*
X95885000Y-59293000D01*
X86360000Y-67406000D02*
X86329000Y-67437000D01*
X86360000Y-64643000D02*
X86360000Y-67406000D01*
D15*
X86741000Y-70993000D02*
X86341001Y-70593001D01*
X86341001Y-70593001D02*
X85852000Y-70104000D01*
X85852000Y-70104000D02*
X83312000Y-70104000D01*
D14*
X84329000Y-65937000D02*
X84329000Y-67437000D01*
X84329000Y-65856315D02*
X84329000Y-65937000D01*
X83750685Y-65278000D02*
X84329000Y-65856315D01*
X83566000Y-65278000D02*
X83750685Y-65278000D01*
X94329000Y-65569998D02*
X90481002Y-61722000D01*
X94329000Y-67437000D02*
X94329000Y-65569998D01*
X90481002Y-61722000D02*
X81788000Y-61722000D01*
X81788000Y-61722000D02*
X80772000Y-60706000D01*
X83947000Y-52619000D02*
X84329000Y-52237000D01*
X83947000Y-54102000D02*
X83947000Y-52619000D01*
X88329000Y-67437000D02*
X88329000Y-64706000D01*
X88329000Y-64706000D02*
X88392000Y-64643000D01*
D16*
G36*
X97282000Y-65101276D02*
G01*
X97165141Y-65179358D01*
X97056358Y-65288141D01*
X96970887Y-65416058D01*
X96912013Y-65558191D01*
X96882000Y-65709078D01*
X96882000Y-65809377D01*
X96829000Y-65804157D01*
X95829000Y-65804157D01*
X95754311Y-65811513D01*
X95682492Y-65833299D01*
X95616304Y-65868678D01*
X95558289Y-65916289D01*
X95510678Y-65974304D01*
X95475299Y-66040492D01*
X95453513Y-66112311D01*
X95446157Y-66187000D01*
X95446157Y-68687000D01*
X95453513Y-68761689D01*
X95475299Y-68833508D01*
X95510678Y-68899696D01*
X95558289Y-68957711D01*
X95616304Y-69005322D01*
X95682492Y-69040701D01*
X95754311Y-69062487D01*
X95829000Y-69069843D01*
X96829000Y-69069843D01*
X96903689Y-69062487D01*
X96975508Y-69040701D01*
X97041696Y-69005322D01*
X97099711Y-68957711D01*
X97147322Y-68899696D01*
X97182701Y-68833508D01*
X97204487Y-68761689D01*
X97211843Y-68687000D01*
X97211843Y-67269748D01*
X97282000Y-67199591D01*
X97282000Y-77953000D01*
X79191654Y-77953000D01*
X79043829Y-77938506D01*
X78920731Y-77901340D01*
X78807196Y-77840972D01*
X78707549Y-77759702D01*
X78625587Y-77660626D01*
X78564426Y-77547513D01*
X78526404Y-77424682D01*
X78511000Y-77278123D01*
X78511000Y-76099933D01*
X79375000Y-76099933D01*
X79375000Y-76300067D01*
X79414044Y-76496356D01*
X79490632Y-76681256D01*
X79601821Y-76847662D01*
X79743338Y-76989179D01*
X79909744Y-77100368D01*
X80094644Y-77176956D01*
X80290933Y-77216000D01*
X80491067Y-77216000D01*
X80687356Y-77176956D01*
X80872256Y-77100368D01*
X81038662Y-76989179D01*
X81180179Y-76847662D01*
X81291368Y-76681256D01*
X81367956Y-76496356D01*
X81407000Y-76300067D01*
X81407000Y-76099933D01*
X81915000Y-76099933D01*
X81915000Y-76300067D01*
X81954044Y-76496356D01*
X82030632Y-76681256D01*
X82141821Y-76847662D01*
X82283338Y-76989179D01*
X82449744Y-77100368D01*
X82634644Y-77176956D01*
X82830933Y-77216000D01*
X83031067Y-77216000D01*
X83227356Y-77176956D01*
X83412256Y-77100368D01*
X83578662Y-76989179D01*
X83720179Y-76847662D01*
X83831368Y-76681256D01*
X83907956Y-76496356D01*
X83947000Y-76300067D01*
X83947000Y-76099933D01*
X84455000Y-76099933D01*
X84455000Y-76300067D01*
X84494044Y-76496356D01*
X84570632Y-76681256D01*
X84681821Y-76847662D01*
X84823338Y-76989179D01*
X84989744Y-77100368D01*
X85174644Y-77176956D01*
X85370933Y-77216000D01*
X85571067Y-77216000D01*
X85767356Y-77176956D01*
X85952256Y-77100368D01*
X86118662Y-76989179D01*
X86260179Y-76847662D01*
X86371368Y-76681256D01*
X86447956Y-76496356D01*
X86487000Y-76300067D01*
X86487000Y-76099933D01*
X86995000Y-76099933D01*
X86995000Y-76300067D01*
X87034044Y-76496356D01*
X87110632Y-76681256D01*
X87221821Y-76847662D01*
X87363338Y-76989179D01*
X87529744Y-77100368D01*
X87714644Y-77176956D01*
X87910933Y-77216000D01*
X88111067Y-77216000D01*
X88307356Y-77176956D01*
X88492256Y-77100368D01*
X88658662Y-76989179D01*
X88800179Y-76847662D01*
X88911368Y-76681256D01*
X88987956Y-76496356D01*
X89027000Y-76300067D01*
X89027000Y-76099933D01*
X89535000Y-76099933D01*
X89535000Y-76300067D01*
X89574044Y-76496356D01*
X89650632Y-76681256D01*
X89761821Y-76847662D01*
X89903338Y-76989179D01*
X90069744Y-77100368D01*
X90254644Y-77176956D01*
X90450933Y-77216000D01*
X90651067Y-77216000D01*
X90847356Y-77176956D01*
X91032256Y-77100368D01*
X91198662Y-76989179D01*
X91340179Y-76847662D01*
X91451368Y-76681256D01*
X91527956Y-76496356D01*
X91567000Y-76300067D01*
X91567000Y-76099933D01*
X92075000Y-76099933D01*
X92075000Y-76300067D01*
X92114044Y-76496356D01*
X92190632Y-76681256D01*
X92301821Y-76847662D01*
X92443338Y-76989179D01*
X92609744Y-77100368D01*
X92794644Y-77176956D01*
X92990933Y-77216000D01*
X93191067Y-77216000D01*
X93387356Y-77176956D01*
X93572256Y-77100368D01*
X93738662Y-76989179D01*
X93880179Y-76847662D01*
X93991368Y-76681256D01*
X94067956Y-76496356D01*
X94107000Y-76300067D01*
X94107000Y-76099933D01*
X94615000Y-76099933D01*
X94615000Y-76300067D01*
X94654044Y-76496356D01*
X94730632Y-76681256D01*
X94841821Y-76847662D01*
X94983338Y-76989179D01*
X95149744Y-77100368D01*
X95334644Y-77176956D01*
X95530933Y-77216000D01*
X95731067Y-77216000D01*
X95927356Y-77176956D01*
X96112256Y-77100368D01*
X96278662Y-76989179D01*
X96420179Y-76847662D01*
X96531368Y-76681256D01*
X96607956Y-76496356D01*
X96647000Y-76300067D01*
X96647000Y-76099933D01*
X96607956Y-75903644D01*
X96531368Y-75718744D01*
X96420179Y-75552338D01*
X96278662Y-75410821D01*
X96112256Y-75299632D01*
X95927356Y-75223044D01*
X95731067Y-75184000D01*
X95530933Y-75184000D01*
X95334644Y-75223044D01*
X95149744Y-75299632D01*
X94983338Y-75410821D01*
X94841821Y-75552338D01*
X94730632Y-75718744D01*
X94654044Y-75903644D01*
X94615000Y-76099933D01*
X94107000Y-76099933D01*
X94067956Y-75903644D01*
X93991368Y-75718744D01*
X93880179Y-75552338D01*
X93738662Y-75410821D01*
X93572256Y-75299632D01*
X93387356Y-75223044D01*
X93191067Y-75184000D01*
X92990933Y-75184000D01*
X92794644Y-75223044D01*
X92609744Y-75299632D01*
X92443338Y-75410821D01*
X92301821Y-75552338D01*
X92190632Y-75718744D01*
X92114044Y-75903644D01*
X92075000Y-76099933D01*
X91567000Y-76099933D01*
X91527956Y-75903644D01*
X91451368Y-75718744D01*
X91340179Y-75552338D01*
X91198662Y-75410821D01*
X91032256Y-75299632D01*
X90847356Y-75223044D01*
X90651067Y-75184000D01*
X90450933Y-75184000D01*
X90254644Y-75223044D01*
X90069744Y-75299632D01*
X89903338Y-75410821D01*
X89761821Y-75552338D01*
X89650632Y-75718744D01*
X89574044Y-75903644D01*
X89535000Y-76099933D01*
X89027000Y-76099933D01*
X88987956Y-75903644D01*
X88911368Y-75718744D01*
X88800179Y-75552338D01*
X88658662Y-75410821D01*
X88492256Y-75299632D01*
X88307356Y-75223044D01*
X88111067Y-75184000D01*
X87910933Y-75184000D01*
X87714644Y-75223044D01*
X87529744Y-75299632D01*
X87363338Y-75410821D01*
X87221821Y-75552338D01*
X87110632Y-75718744D01*
X87034044Y-75903644D01*
X86995000Y-76099933D01*
X86487000Y-76099933D01*
X86447956Y-75903644D01*
X86371368Y-75718744D01*
X86260179Y-75552338D01*
X86118662Y-75410821D01*
X85952256Y-75299632D01*
X85767356Y-75223044D01*
X85571067Y-75184000D01*
X85370933Y-75184000D01*
X85174644Y-75223044D01*
X84989744Y-75299632D01*
X84823338Y-75410821D01*
X84681821Y-75552338D01*
X84570632Y-75718744D01*
X84494044Y-75903644D01*
X84455000Y-76099933D01*
X83947000Y-76099933D01*
X83907956Y-75903644D01*
X83831368Y-75718744D01*
X83720179Y-75552338D01*
X83578662Y-75410821D01*
X83412256Y-75299632D01*
X83227356Y-75223044D01*
X83031067Y-75184000D01*
X82830933Y-75184000D01*
X82634644Y-75223044D01*
X82449744Y-75299632D01*
X82283338Y-75410821D01*
X82141821Y-75552338D01*
X82030632Y-75718744D01*
X81954044Y-75903644D01*
X81915000Y-76099933D01*
X81407000Y-76099933D01*
X81367956Y-75903644D01*
X81291368Y-75718744D01*
X81180179Y-75552338D01*
X81038662Y-75410821D01*
X80872256Y-75299632D01*
X80687356Y-75223044D01*
X80491067Y-75184000D01*
X80290933Y-75184000D01*
X80094644Y-75223044D01*
X79909744Y-75299632D01*
X79743338Y-75410821D01*
X79601821Y-75552338D01*
X79490632Y-75718744D01*
X79414044Y-75903644D01*
X79375000Y-76099933D01*
X78511000Y-76099933D01*
X78511000Y-59690000D01*
X78866553Y-59690000D01*
X78869001Y-59714856D01*
X78869000Y-70587146D01*
X78869000Y-70714154D01*
X78866553Y-70739000D01*
X78869000Y-70763846D01*
X78869000Y-70763853D01*
X78876322Y-70838192D01*
X78905255Y-70933574D01*
X78952241Y-71021479D01*
X79015473Y-71098527D01*
X79034785Y-71114376D01*
X79380628Y-71460220D01*
X79396473Y-71479527D01*
X79473521Y-71542759D01*
X79561425Y-71589745D01*
X79634607Y-71611944D01*
X79656806Y-71618678D01*
X79666694Y-71619652D01*
X79731146Y-71626000D01*
X79731153Y-71626000D01*
X79755999Y-71628447D01*
X79780845Y-71626000D01*
X81189499Y-71626000D01*
X81290141Y-71726642D01*
X81418058Y-71812113D01*
X81560191Y-71870987D01*
X81711078Y-71901000D01*
X81864922Y-71901000D01*
X82015809Y-71870987D01*
X82157942Y-71812113D01*
X82285859Y-71726642D01*
X82394642Y-71617859D01*
X82480113Y-71489942D01*
X82538987Y-71347809D01*
X82569000Y-71196922D01*
X82569000Y-71043078D01*
X82538987Y-70892191D01*
X82480113Y-70750058D01*
X82394642Y-70622141D01*
X82285859Y-70513358D01*
X82157942Y-70427887D01*
X82015809Y-70369013D01*
X81864922Y-70339000D01*
X81711078Y-70339000D01*
X81560191Y-70369013D01*
X81418058Y-70427887D01*
X81290141Y-70513358D01*
X81189499Y-70614000D01*
X79965592Y-70614000D01*
X79881000Y-70529409D01*
X79881000Y-70027078D01*
X82531000Y-70027078D01*
X82531000Y-70180922D01*
X82561013Y-70331809D01*
X82619887Y-70473942D01*
X82705358Y-70601859D01*
X82814141Y-70710642D01*
X82942058Y-70796113D01*
X83084191Y-70854987D01*
X83235078Y-70885000D01*
X83388922Y-70885000D01*
X83539809Y-70854987D01*
X83681942Y-70796113D01*
X83773405Y-70735000D01*
X85590632Y-70735000D01*
X85916735Y-71061104D01*
X85916741Y-71061109D01*
X85968553Y-71112921D01*
X85990013Y-71220809D01*
X86048887Y-71362942D01*
X86134358Y-71490859D01*
X86243141Y-71599642D01*
X86371058Y-71685113D01*
X86513191Y-71743987D01*
X86664078Y-71774000D01*
X86817922Y-71774000D01*
X86968809Y-71743987D01*
X87110942Y-71685113D01*
X87238859Y-71599642D01*
X87347642Y-71490859D01*
X87433113Y-71362942D01*
X87491987Y-71220809D01*
X87522000Y-71069922D01*
X87522000Y-70916078D01*
X87491987Y-70765191D01*
X87433113Y-70623058D01*
X87347642Y-70495141D01*
X87238859Y-70386358D01*
X87110942Y-70300887D01*
X86968809Y-70242013D01*
X86860921Y-70220553D01*
X86809109Y-70168741D01*
X86809104Y-70168735D01*
X86320105Y-69679737D01*
X86300343Y-69655657D01*
X86204261Y-69576804D01*
X86094642Y-69518211D01*
X85975698Y-69482130D01*
X85882998Y-69473000D01*
X85882990Y-69473000D01*
X85852000Y-69469948D01*
X85821010Y-69473000D01*
X83773405Y-69473000D01*
X83681942Y-69411887D01*
X83539809Y-69353013D01*
X83388922Y-69323000D01*
X83235078Y-69323000D01*
X83084191Y-69353013D01*
X82942058Y-69411887D01*
X82814141Y-69497358D01*
X82705358Y-69606141D01*
X82619887Y-69734058D01*
X82561013Y-69876191D01*
X82531000Y-70027078D01*
X79881000Y-70027078D01*
X79881000Y-63197591D01*
X81515000Y-64831592D01*
X81515000Y-64973922D01*
X81545013Y-65124809D01*
X81603887Y-65266942D01*
X81689358Y-65394859D01*
X81790001Y-65495502D01*
X81790001Y-65807998D01*
X81754311Y-65811513D01*
X81682492Y-65833299D01*
X81616304Y-65868678D01*
X81558289Y-65916289D01*
X81510678Y-65974304D01*
X81475299Y-66040492D01*
X81453513Y-66112311D01*
X81446157Y-66187000D01*
X81446157Y-68687000D01*
X81453513Y-68761689D01*
X81475299Y-68833508D01*
X81510678Y-68899696D01*
X81558289Y-68957711D01*
X81616304Y-69005322D01*
X81682492Y-69040701D01*
X81754311Y-69062487D01*
X81829000Y-69069843D01*
X82829000Y-69069843D01*
X82903689Y-69062487D01*
X82975508Y-69040701D01*
X83041696Y-69005322D01*
X83099711Y-68957711D01*
X83147322Y-68899696D01*
X83182701Y-68833508D01*
X83204487Y-68761689D01*
X83211843Y-68687000D01*
X83211843Y-66187000D01*
X83204487Y-66112311D01*
X83182701Y-66040492D01*
X83147322Y-65974304D01*
X83099711Y-65916289D01*
X83041696Y-65868678D01*
X82975508Y-65833299D01*
X82903689Y-65811513D01*
X82829000Y-65804157D01*
X82817471Y-65804157D01*
X82802000Y-65753156D01*
X82802000Y-65495501D01*
X82811144Y-65486357D01*
X82815013Y-65505809D01*
X82873887Y-65647942D01*
X82959358Y-65775859D01*
X83068141Y-65884642D01*
X83196058Y-65970113D01*
X83338191Y-66028987D01*
X83470788Y-66055362D01*
X83453513Y-66112311D01*
X83446157Y-66187000D01*
X83446157Y-68687000D01*
X83453513Y-68761689D01*
X83475299Y-68833508D01*
X83510678Y-68899696D01*
X83558289Y-68957711D01*
X83616304Y-69005322D01*
X83682492Y-69040701D01*
X83754311Y-69062487D01*
X83829000Y-69069843D01*
X84829000Y-69069843D01*
X84903689Y-69062487D01*
X84975508Y-69040701D01*
X85041696Y-69005322D01*
X85099711Y-68957711D01*
X85147322Y-68899696D01*
X85182701Y-68833508D01*
X85204487Y-68761689D01*
X85211843Y-68687000D01*
X85211843Y-66187000D01*
X85446157Y-66187000D01*
X85446157Y-68687000D01*
X85453513Y-68761689D01*
X85475299Y-68833508D01*
X85510678Y-68899696D01*
X85558289Y-68957711D01*
X85616304Y-69005322D01*
X85682492Y-69040701D01*
X85754311Y-69062487D01*
X85829000Y-69069843D01*
X86829000Y-69069843D01*
X86903689Y-69062487D01*
X86975508Y-69040701D01*
X87041696Y-69005322D01*
X87099711Y-68957711D01*
X87147322Y-68899696D01*
X87182701Y-68833508D01*
X87204487Y-68761689D01*
X87211843Y-68687000D01*
X87211843Y-66187000D01*
X87446157Y-66187000D01*
X87446157Y-68687000D01*
X87453513Y-68761689D01*
X87475299Y-68833508D01*
X87510678Y-68899696D01*
X87558289Y-68957711D01*
X87616304Y-69005322D01*
X87682492Y-69040701D01*
X87754311Y-69062487D01*
X87829000Y-69069843D01*
X88829000Y-69069843D01*
X88903689Y-69062487D01*
X88975508Y-69040701D01*
X89041696Y-69005322D01*
X89099711Y-68957711D01*
X89147322Y-68899696D01*
X89182701Y-68833508D01*
X89204487Y-68761689D01*
X89211843Y-68687000D01*
X89211843Y-66187000D01*
X89446157Y-66187000D01*
X89446157Y-68687000D01*
X89453513Y-68761689D01*
X89475299Y-68833508D01*
X89510678Y-68899696D01*
X89558289Y-68957711D01*
X89616304Y-69005322D01*
X89682492Y-69040701D01*
X89754311Y-69062487D01*
X89829000Y-69069843D01*
X90829000Y-69069843D01*
X90903689Y-69062487D01*
X90975508Y-69040701D01*
X91041696Y-69005322D01*
X91099711Y-68957711D01*
X91147322Y-68899696D01*
X91182701Y-68833508D01*
X91204487Y-68761689D01*
X91211843Y-68687000D01*
X91211843Y-66187000D01*
X91204487Y-66112311D01*
X91182701Y-66040492D01*
X91147322Y-65974304D01*
X91099711Y-65916289D01*
X91041696Y-65868678D01*
X90975508Y-65833299D01*
X90903689Y-65811513D01*
X90829000Y-65804157D01*
X89829000Y-65804157D01*
X89754311Y-65811513D01*
X89682492Y-65833299D01*
X89616304Y-65868678D01*
X89558289Y-65916289D01*
X89510678Y-65974304D01*
X89475299Y-66040492D01*
X89453513Y-66112311D01*
X89446157Y-66187000D01*
X89211843Y-66187000D01*
X89204487Y-66112311D01*
X89182701Y-66040492D01*
X89147322Y-65974304D01*
X89099711Y-65916289D01*
X89041696Y-65868678D01*
X88975508Y-65833299D01*
X88903689Y-65811513D01*
X88835000Y-65804748D01*
X88835000Y-65286297D01*
X88889859Y-65249642D01*
X88998642Y-65140859D01*
X89084113Y-65012942D01*
X89142987Y-64870809D01*
X89173000Y-64719922D01*
X89173000Y-64566078D01*
X89142987Y-64415191D01*
X89084113Y-64273058D01*
X88998642Y-64145141D01*
X88889859Y-64036358D01*
X88761942Y-63950887D01*
X88619809Y-63892013D01*
X88468922Y-63862000D01*
X88315078Y-63862000D01*
X88164191Y-63892013D01*
X88022058Y-63950887D01*
X87894141Y-64036358D01*
X87785358Y-64145141D01*
X87699887Y-64273058D01*
X87641013Y-64415191D01*
X87611000Y-64566078D01*
X87611000Y-64719922D01*
X87641013Y-64870809D01*
X87699887Y-65012942D01*
X87785358Y-65140859D01*
X87823001Y-65178502D01*
X87823001Y-65804748D01*
X87754311Y-65811513D01*
X87682492Y-65833299D01*
X87616304Y-65868678D01*
X87558289Y-65916289D01*
X87510678Y-65974304D01*
X87475299Y-66040492D01*
X87453513Y-66112311D01*
X87446157Y-66187000D01*
X87211843Y-66187000D01*
X87204487Y-66112311D01*
X87182701Y-66040492D01*
X87147322Y-65974304D01*
X87099711Y-65916289D01*
X87041696Y-65868678D01*
X86975508Y-65833299D01*
X86903689Y-65811513D01*
X86866000Y-65807801D01*
X86866000Y-65241501D01*
X86966642Y-65140859D01*
X87052113Y-65012942D01*
X87110987Y-64870809D01*
X87141000Y-64719922D01*
X87141000Y-64566078D01*
X87110987Y-64415191D01*
X87052113Y-64273058D01*
X86966642Y-64145141D01*
X86857859Y-64036358D01*
X86729942Y-63950887D01*
X86587809Y-63892013D01*
X86436922Y-63862000D01*
X86283078Y-63862000D01*
X86132191Y-63892013D01*
X85990058Y-63950887D01*
X85862141Y-64036358D01*
X85753358Y-64145141D01*
X85667887Y-64273058D01*
X85609013Y-64415191D01*
X85579000Y-64566078D01*
X85579000Y-64719922D01*
X85609013Y-64870809D01*
X85667887Y-65012942D01*
X85753358Y-65140859D01*
X85854000Y-65241501D01*
X85854000Y-65804157D01*
X85829000Y-65804157D01*
X85754311Y-65811513D01*
X85682492Y-65833299D01*
X85616304Y-65868678D01*
X85558289Y-65916289D01*
X85510678Y-65974304D01*
X85475299Y-66040492D01*
X85453513Y-66112311D01*
X85446157Y-66187000D01*
X85211843Y-66187000D01*
X85204487Y-66112311D01*
X85182701Y-66040492D01*
X85147322Y-65974304D01*
X85099711Y-65916289D01*
X85041696Y-65868678D01*
X84975508Y-65833299D01*
X84903689Y-65811513D01*
X84832343Y-65804486D01*
X84827678Y-65757122D01*
X84798745Y-65661740D01*
X84782551Y-65631444D01*
X84751759Y-65573836D01*
X84688527Y-65496788D01*
X84669220Y-65480943D01*
X84336483Y-65148207D01*
X84316987Y-65050191D01*
X84258113Y-64908058D01*
X84172642Y-64780141D01*
X84063859Y-64671358D01*
X83935942Y-64585887D01*
X83793809Y-64527013D01*
X83642922Y-64497000D01*
X83489078Y-64497000D01*
X83338191Y-64527013D01*
X83196058Y-64585887D01*
X83068141Y-64671358D01*
X83050856Y-64688643D01*
X83046987Y-64669191D01*
X82988113Y-64527058D01*
X82902642Y-64399141D01*
X82793859Y-64290358D01*
X82665942Y-64204887D01*
X82523809Y-64146013D01*
X82372922Y-64116000D01*
X82230592Y-64116000D01*
X80552999Y-62438408D01*
X80552999Y-61458739D01*
X80695078Y-61487000D01*
X80837409Y-61487000D01*
X81412628Y-62062220D01*
X81428473Y-62081527D01*
X81505521Y-62144759D01*
X81593425Y-62191745D01*
X81688807Y-62220678D01*
X81763146Y-62228000D01*
X81763154Y-62228000D01*
X81788000Y-62230447D01*
X81812846Y-62228000D01*
X90271411Y-62228000D01*
X91983976Y-63940566D01*
X91959058Y-63950887D01*
X91831141Y-64036358D01*
X91722358Y-64145141D01*
X91636887Y-64273058D01*
X91578013Y-64415191D01*
X91548000Y-64566078D01*
X91548000Y-64719922D01*
X91578013Y-64870809D01*
X91636887Y-65012942D01*
X91722358Y-65140859D01*
X91823000Y-65241501D01*
X91823000Y-65804748D01*
X91754311Y-65811513D01*
X91682492Y-65833299D01*
X91616304Y-65868678D01*
X91558289Y-65916289D01*
X91510678Y-65974304D01*
X91475299Y-66040492D01*
X91453513Y-66112311D01*
X91446157Y-66187000D01*
X91446157Y-68687000D01*
X91453513Y-68761689D01*
X91475299Y-68833508D01*
X91510678Y-68899696D01*
X91558289Y-68957711D01*
X91616304Y-69005322D01*
X91682492Y-69040701D01*
X91754311Y-69062487D01*
X91829000Y-69069843D01*
X92829000Y-69069843D01*
X92903689Y-69062487D01*
X92975508Y-69040701D01*
X93041696Y-69005322D01*
X93099711Y-68957711D01*
X93147322Y-68899696D01*
X93182701Y-68833508D01*
X93204487Y-68761689D01*
X93211843Y-68687000D01*
X93211843Y-66187000D01*
X93204487Y-66112311D01*
X93182701Y-66040492D01*
X93147322Y-65974304D01*
X93099711Y-65916289D01*
X93041696Y-65868678D01*
X92975508Y-65833299D01*
X92903689Y-65811513D01*
X92835000Y-65804748D01*
X92835000Y-65241501D01*
X92935642Y-65140859D01*
X93021113Y-65012942D01*
X93031434Y-64988024D01*
X93823001Y-65779591D01*
X93823001Y-65804748D01*
X93754311Y-65811513D01*
X93682492Y-65833299D01*
X93616304Y-65868678D01*
X93558289Y-65916289D01*
X93510678Y-65974304D01*
X93475299Y-66040492D01*
X93453513Y-66112311D01*
X93446157Y-66187000D01*
X93446157Y-68687000D01*
X93453513Y-68761689D01*
X93475299Y-68833508D01*
X93510678Y-68899696D01*
X93558289Y-68957711D01*
X93616304Y-69005322D01*
X93682492Y-69040701D01*
X93754311Y-69062487D01*
X93829000Y-69069843D01*
X94829000Y-69069843D01*
X94903689Y-69062487D01*
X94975508Y-69040701D01*
X95041696Y-69005322D01*
X95099711Y-68957711D01*
X95147322Y-68899696D01*
X95182701Y-68833508D01*
X95204487Y-68761689D01*
X95211843Y-68687000D01*
X95211843Y-66187000D01*
X95204487Y-66112311D01*
X95182701Y-66040492D01*
X95147322Y-65974304D01*
X95099711Y-65916289D01*
X95041696Y-65868678D01*
X94975508Y-65833299D01*
X94903689Y-65811513D01*
X94835000Y-65804748D01*
X94835000Y-65594844D01*
X94837447Y-65569998D01*
X94835000Y-65545152D01*
X94835000Y-65545144D01*
X94827678Y-65470805D01*
X94798745Y-65375423D01*
X94751759Y-65287519D01*
X94688527Y-65210471D01*
X94669220Y-65194626D01*
X90856378Y-61381785D01*
X90840529Y-61362473D01*
X90763481Y-61299241D01*
X90675577Y-61252255D01*
X90580195Y-61223322D01*
X90505856Y-61216000D01*
X90505848Y-61216000D01*
X90481002Y-61213553D01*
X90456156Y-61216000D01*
X81997592Y-61216000D01*
X81553000Y-60771409D01*
X81553000Y-60629078D01*
X81522987Y-60478191D01*
X81464113Y-60336058D01*
X81378642Y-60208141D01*
X81366501Y-60196000D01*
X83795154Y-60196000D01*
X83820000Y-60198447D01*
X83844846Y-60196000D01*
X83844854Y-60196000D01*
X83919193Y-60188678D01*
X84014575Y-60159745D01*
X84102479Y-60112759D01*
X84179527Y-60049527D01*
X84195376Y-60030215D01*
X84666371Y-59559221D01*
X84666376Y-59559215D01*
X84795215Y-59430376D01*
X84814527Y-59414527D01*
X84877759Y-59337479D01*
X84924745Y-59249575D01*
X84953678Y-59154193D01*
X84961000Y-59079854D01*
X84961000Y-59079853D01*
X84963448Y-59055000D01*
X84961000Y-59030146D01*
X84961000Y-57682845D01*
X84963447Y-57657999D01*
X84961000Y-57633153D01*
X84961000Y-57633146D01*
X84953678Y-57558807D01*
X84924745Y-57463425D01*
X84877759Y-57375521D01*
X84814527Y-57298473D01*
X84795220Y-57282628D01*
X83687376Y-56174785D01*
X83671527Y-56155473D01*
X83594479Y-56092241D01*
X83506575Y-56045255D01*
X83411193Y-56016322D01*
X83336854Y-56009000D01*
X83336846Y-56009000D01*
X83312000Y-56006553D01*
X83287154Y-56009000D01*
X80481501Y-56009000D01*
X80380859Y-55908358D01*
X80252942Y-55822887D01*
X80110809Y-55764013D01*
X79959922Y-55734000D01*
X79806078Y-55734000D01*
X79655191Y-55764013D01*
X79513058Y-55822887D01*
X79385141Y-55908358D01*
X79276358Y-56017141D01*
X79190887Y-56145058D01*
X79132013Y-56287191D01*
X79102000Y-56438078D01*
X79102000Y-56591922D01*
X79132013Y-56742809D01*
X79190887Y-56884942D01*
X79276358Y-57012859D01*
X79385141Y-57121642D01*
X79513058Y-57207113D01*
X79655191Y-57265987D01*
X79806078Y-57296000D01*
X79959922Y-57296000D01*
X80110809Y-57265987D01*
X80252942Y-57207113D01*
X80380859Y-57121642D01*
X80481501Y-57021000D01*
X83102409Y-57021000D01*
X83949001Y-57867593D01*
X83949001Y-57990613D01*
X83935942Y-57981887D01*
X83793809Y-57923013D01*
X83642922Y-57893000D01*
X83489078Y-57893000D01*
X83338191Y-57923013D01*
X83196058Y-57981887D01*
X83068141Y-58067358D01*
X82967499Y-58168000D01*
X80415846Y-58168000D01*
X80391000Y-58165553D01*
X80366154Y-58168000D01*
X80366146Y-58168000D01*
X80291807Y-58175322D01*
X80196425Y-58204255D01*
X80108521Y-58251241D01*
X80031473Y-58314473D01*
X80015628Y-58333780D01*
X79034780Y-59314629D01*
X79015474Y-59330473D01*
X78952242Y-59407521D01*
X78942906Y-59424987D01*
X78905255Y-59495426D01*
X78876322Y-59590808D01*
X78866553Y-59690000D01*
X78511000Y-59690000D01*
X78511000Y-55426766D01*
X89309600Y-55426766D01*
X89309600Y-55571234D01*
X89337784Y-55712925D01*
X89393069Y-55846395D01*
X89473331Y-55966515D01*
X89575485Y-56068669D01*
X89695605Y-56148931D01*
X89829075Y-56204216D01*
X89970766Y-56232400D01*
X90115234Y-56232400D01*
X90256925Y-56204216D01*
X90390395Y-56148931D01*
X90510515Y-56068669D01*
X90612669Y-55966515D01*
X90692931Y-55846395D01*
X90748216Y-55712925D01*
X90776400Y-55571234D01*
X90776400Y-55426766D01*
X90748216Y-55285075D01*
X90692931Y-55151605D01*
X90612669Y-55031485D01*
X90510515Y-54929331D01*
X90390395Y-54849069D01*
X90256925Y-54793784D01*
X90115234Y-54765600D01*
X89970766Y-54765600D01*
X89829075Y-54793784D01*
X89695605Y-54849069D01*
X89575485Y-54929331D01*
X89473331Y-55031485D01*
X89393069Y-55151605D01*
X89337784Y-55285075D01*
X89309600Y-55426766D01*
X78511000Y-55426766D01*
X78511000Y-53487000D01*
X81190928Y-53487000D01*
X81203188Y-53611482D01*
X81239498Y-53731180D01*
X81298463Y-53841494D01*
X81377815Y-53938185D01*
X81474506Y-54017537D01*
X81584820Y-54076502D01*
X81704518Y-54112812D01*
X81829000Y-54125072D01*
X82043250Y-54122000D01*
X82202000Y-53963250D01*
X82202000Y-52364000D01*
X81352750Y-52364000D01*
X81194000Y-52522750D01*
X81190928Y-53487000D01*
X78511000Y-53487000D01*
X78511000Y-50987000D01*
X81190928Y-50987000D01*
X81194000Y-51951250D01*
X81352750Y-52110000D01*
X82202000Y-52110000D01*
X82202000Y-50510750D01*
X82456000Y-50510750D01*
X82456000Y-52110000D01*
X82476000Y-52110000D01*
X82476000Y-52364000D01*
X82456000Y-52364000D01*
X82456000Y-53963250D01*
X82614750Y-54122000D01*
X82829000Y-54125072D01*
X82953482Y-54112812D01*
X83073180Y-54076502D01*
X83166000Y-54026888D01*
X83166000Y-54178922D01*
X83196013Y-54329809D01*
X83254887Y-54471942D01*
X83340358Y-54599859D01*
X83449141Y-54708642D01*
X83577058Y-54794113D01*
X83719191Y-54852987D01*
X83870078Y-54883000D01*
X84023922Y-54883000D01*
X84174809Y-54852987D01*
X84316942Y-54794113D01*
X84444859Y-54708642D01*
X84553642Y-54599859D01*
X84639113Y-54471942D01*
X84697987Y-54329809D01*
X84728000Y-54178922D01*
X84728000Y-54025078D01*
X84697987Y-53874191D01*
X84696186Y-53869843D01*
X84829000Y-53869843D01*
X84903689Y-53862487D01*
X84975508Y-53840701D01*
X85041696Y-53805322D01*
X85099711Y-53757711D01*
X85147322Y-53699696D01*
X85182701Y-53633508D01*
X85204487Y-53561689D01*
X85211843Y-53487000D01*
X85211843Y-50987000D01*
X85446157Y-50987000D01*
X85446157Y-53487000D01*
X85453513Y-53561689D01*
X85475299Y-53633508D01*
X85510678Y-53699696D01*
X85558289Y-53757711D01*
X85616304Y-53805322D01*
X85682492Y-53840701D01*
X85754311Y-53862487D01*
X85829000Y-53869843D01*
X86829000Y-53869843D01*
X86903689Y-53862487D01*
X86975508Y-53840701D01*
X87041696Y-53805322D01*
X87099711Y-53757711D01*
X87147322Y-53699696D01*
X87182701Y-53633508D01*
X87204487Y-53561689D01*
X87211843Y-53487000D01*
X87211843Y-50987000D01*
X87446157Y-50987000D01*
X87446157Y-53487000D01*
X87453513Y-53561689D01*
X87475299Y-53633508D01*
X87510678Y-53699696D01*
X87558289Y-53757711D01*
X87616304Y-53805322D01*
X87628187Y-53811674D01*
X87611000Y-53898078D01*
X87611000Y-54051922D01*
X87641013Y-54202809D01*
X87699887Y-54344942D01*
X87785358Y-54472859D01*
X87894141Y-54581642D01*
X88022058Y-54667113D01*
X88164191Y-54725987D01*
X88315078Y-54756000D01*
X88468922Y-54756000D01*
X88619809Y-54725987D01*
X88761942Y-54667113D01*
X88889859Y-54581642D01*
X88998642Y-54472859D01*
X89084113Y-54344942D01*
X89142987Y-54202809D01*
X89173000Y-54051922D01*
X89173000Y-53898078D01*
X89142987Y-53747191D01*
X89131367Y-53719138D01*
X89147322Y-53699696D01*
X89182701Y-53633508D01*
X89204487Y-53561689D01*
X89211843Y-53487000D01*
X89211843Y-50987000D01*
X89446157Y-50987000D01*
X89446157Y-53487000D01*
X89453513Y-53561689D01*
X89475299Y-53633508D01*
X89510678Y-53699696D01*
X89558289Y-53757711D01*
X89616304Y-53805322D01*
X89682492Y-53840701D01*
X89754311Y-53862487D01*
X89829000Y-53869843D01*
X89840530Y-53869843D01*
X89859255Y-53931574D01*
X89906241Y-54019479D01*
X89969473Y-54096527D01*
X89988785Y-54112376D01*
X95379001Y-59502593D01*
X95379000Y-61123499D01*
X95278358Y-61224141D01*
X95192887Y-61352058D01*
X95134013Y-61494191D01*
X95104000Y-61645078D01*
X95104000Y-61798922D01*
X95134013Y-61949809D01*
X95192887Y-62091942D01*
X95278358Y-62219859D01*
X95387141Y-62328642D01*
X95515058Y-62414113D01*
X95657191Y-62472987D01*
X95808078Y-62503000D01*
X95961922Y-62503000D01*
X96112809Y-62472987D01*
X96254942Y-62414113D01*
X96382859Y-62328642D01*
X96491642Y-62219859D01*
X96577113Y-62091942D01*
X96635987Y-61949809D01*
X96666000Y-61798922D01*
X96666000Y-61645078D01*
X96635987Y-61494191D01*
X96577113Y-61352058D01*
X96491642Y-61224141D01*
X96391000Y-61123499D01*
X96391000Y-59317854D01*
X96393448Y-59293000D01*
X96383678Y-59193807D01*
X96354745Y-59098425D01*
X96353854Y-59096759D01*
X96307759Y-59010521D01*
X96244527Y-58933473D01*
X96225220Y-58917628D01*
X92734358Y-55426766D01*
X95659600Y-55426766D01*
X95659600Y-55571234D01*
X95687784Y-55712925D01*
X95743069Y-55846395D01*
X95823331Y-55966515D01*
X95925485Y-56068669D01*
X96045605Y-56148931D01*
X96179075Y-56204216D01*
X96320766Y-56232400D01*
X96465234Y-56232400D01*
X96606925Y-56204216D01*
X96740395Y-56148931D01*
X96860515Y-56068669D01*
X96962669Y-55966515D01*
X97042931Y-55846395D01*
X97098216Y-55712925D01*
X97126400Y-55571234D01*
X97126400Y-55426766D01*
X97098216Y-55285075D01*
X97042931Y-55151605D01*
X96962669Y-55031485D01*
X96860515Y-54929331D01*
X96740395Y-54849069D01*
X96606925Y-54793784D01*
X96465234Y-54765600D01*
X96320766Y-54765600D01*
X96179075Y-54793784D01*
X96045605Y-54849069D01*
X95925485Y-54929331D01*
X95823331Y-55031485D01*
X95743069Y-55151605D01*
X95687784Y-55285075D01*
X95659600Y-55426766D01*
X92734358Y-55426766D01*
X91080812Y-53773221D01*
X91099711Y-53757711D01*
X91147322Y-53699696D01*
X91182701Y-53633508D01*
X91204487Y-53561689D01*
X91211843Y-53487000D01*
X91211843Y-50987000D01*
X91446157Y-50987000D01*
X91446157Y-53487000D01*
X91453513Y-53561689D01*
X91475299Y-53633508D01*
X91510678Y-53699696D01*
X91558289Y-53757711D01*
X91616304Y-53805322D01*
X91682492Y-53840701D01*
X91754311Y-53862487D01*
X91829000Y-53869843D01*
X92829000Y-53869843D01*
X92903689Y-53862487D01*
X92975508Y-53840701D01*
X93041696Y-53805322D01*
X93099711Y-53757711D01*
X93147322Y-53699696D01*
X93182701Y-53633508D01*
X93204487Y-53561689D01*
X93211843Y-53487000D01*
X93211843Y-50987000D01*
X93446157Y-50987000D01*
X93446157Y-53487000D01*
X93453513Y-53561689D01*
X93475299Y-53633508D01*
X93510678Y-53699696D01*
X93558289Y-53757711D01*
X93616304Y-53805322D01*
X93682492Y-53840701D01*
X93754311Y-53862487D01*
X93829000Y-53869843D01*
X93957423Y-53869843D01*
X93969474Y-53884527D01*
X93988780Y-53900371D01*
X94215000Y-54126591D01*
X94215000Y-54268922D01*
X94245013Y-54419809D01*
X94303887Y-54561942D01*
X94389358Y-54689859D01*
X94498141Y-54798642D01*
X94626058Y-54884113D01*
X94768191Y-54942987D01*
X94919078Y-54973000D01*
X95072922Y-54973000D01*
X95223809Y-54942987D01*
X95365942Y-54884113D01*
X95493859Y-54798642D01*
X95602642Y-54689859D01*
X95688113Y-54561942D01*
X95705783Y-54519284D01*
X95768141Y-54581642D01*
X95896058Y-54667113D01*
X96038191Y-54725987D01*
X96189078Y-54756000D01*
X96342922Y-54756000D01*
X96493809Y-54725987D01*
X96635942Y-54667113D01*
X96763859Y-54581642D01*
X96872642Y-54472859D01*
X96958113Y-54344942D01*
X97016987Y-54202809D01*
X97047000Y-54051922D01*
X97047000Y-53898078D01*
X97029813Y-53811674D01*
X97041696Y-53805322D01*
X97099711Y-53757711D01*
X97147322Y-53699696D01*
X97182701Y-53633508D01*
X97204487Y-53561689D01*
X97211843Y-53487000D01*
X97211843Y-50987000D01*
X97204487Y-50912311D01*
X97182701Y-50840492D01*
X97147322Y-50774304D01*
X97099711Y-50716289D01*
X97041696Y-50668678D01*
X96975508Y-50633299D01*
X96903689Y-50611513D01*
X96829000Y-50604157D01*
X95829000Y-50604157D01*
X95754311Y-50611513D01*
X95682492Y-50633299D01*
X95616304Y-50668678D01*
X95558289Y-50716289D01*
X95510678Y-50774304D01*
X95475299Y-50840492D01*
X95453513Y-50912311D01*
X95446157Y-50987000D01*
X95446157Y-53487000D01*
X95453166Y-53558168D01*
X95365942Y-53499887D01*
X95223809Y-53441013D01*
X95211843Y-53438633D01*
X95211843Y-50987000D01*
X95204487Y-50912311D01*
X95182701Y-50840492D01*
X95147322Y-50774304D01*
X95099711Y-50716289D01*
X95041696Y-50668678D01*
X94975508Y-50633299D01*
X94903689Y-50611513D01*
X94829000Y-50604157D01*
X93829000Y-50604157D01*
X93754311Y-50611513D01*
X93682492Y-50633299D01*
X93616304Y-50668678D01*
X93558289Y-50716289D01*
X93510678Y-50774304D01*
X93475299Y-50840492D01*
X93453513Y-50912311D01*
X93446157Y-50987000D01*
X93211843Y-50987000D01*
X93204487Y-50912311D01*
X93182701Y-50840492D01*
X93147322Y-50774304D01*
X93099711Y-50716289D01*
X93041696Y-50668678D01*
X92975508Y-50633299D01*
X92903689Y-50611513D01*
X92829000Y-50604157D01*
X91829000Y-50604157D01*
X91754311Y-50611513D01*
X91682492Y-50633299D01*
X91616304Y-50668678D01*
X91558289Y-50716289D01*
X91510678Y-50774304D01*
X91475299Y-50840492D01*
X91453513Y-50912311D01*
X91446157Y-50987000D01*
X91211843Y-50987000D01*
X91204487Y-50912311D01*
X91182701Y-50840492D01*
X91147322Y-50774304D01*
X91099711Y-50716289D01*
X91041696Y-50668678D01*
X90975508Y-50633299D01*
X90903689Y-50611513D01*
X90829000Y-50604157D01*
X89829000Y-50604157D01*
X89754311Y-50611513D01*
X89682492Y-50633299D01*
X89616304Y-50668678D01*
X89558289Y-50716289D01*
X89510678Y-50774304D01*
X89475299Y-50840492D01*
X89453513Y-50912311D01*
X89446157Y-50987000D01*
X89211843Y-50987000D01*
X89204487Y-50912311D01*
X89182701Y-50840492D01*
X89147322Y-50774304D01*
X89099711Y-50716289D01*
X89041696Y-50668678D01*
X88975508Y-50633299D01*
X88903689Y-50611513D01*
X88829000Y-50604157D01*
X87829000Y-50604157D01*
X87754311Y-50611513D01*
X87682492Y-50633299D01*
X87616304Y-50668678D01*
X87558289Y-50716289D01*
X87510678Y-50774304D01*
X87475299Y-50840492D01*
X87453513Y-50912311D01*
X87446157Y-50987000D01*
X87211843Y-50987000D01*
X87204487Y-50912311D01*
X87182701Y-50840492D01*
X87147322Y-50774304D01*
X87099711Y-50716289D01*
X87041696Y-50668678D01*
X86975508Y-50633299D01*
X86903689Y-50611513D01*
X86829000Y-50604157D01*
X85829000Y-50604157D01*
X85754311Y-50611513D01*
X85682492Y-50633299D01*
X85616304Y-50668678D01*
X85558289Y-50716289D01*
X85510678Y-50774304D01*
X85475299Y-50840492D01*
X85453513Y-50912311D01*
X85446157Y-50987000D01*
X85211843Y-50987000D01*
X85204487Y-50912311D01*
X85182701Y-50840492D01*
X85147322Y-50774304D01*
X85099711Y-50716289D01*
X85041696Y-50668678D01*
X84975508Y-50633299D01*
X84903689Y-50611513D01*
X84829000Y-50604157D01*
X83829000Y-50604157D01*
X83754311Y-50611513D01*
X83682492Y-50633299D01*
X83616304Y-50668678D01*
X83558289Y-50716289D01*
X83510678Y-50774304D01*
X83475299Y-50840492D01*
X83458196Y-50896874D01*
X83454812Y-50862518D01*
X83418502Y-50742820D01*
X83359537Y-50632506D01*
X83280185Y-50535815D01*
X83183494Y-50456463D01*
X83073180Y-50397498D01*
X82953482Y-50361188D01*
X82829000Y-50348928D01*
X82614750Y-50352000D01*
X82456000Y-50510750D01*
X82202000Y-50510750D01*
X82043250Y-50352000D01*
X81829000Y-50348928D01*
X81704518Y-50361188D01*
X81584820Y-50397498D01*
X81474506Y-50456463D01*
X81377815Y-50535815D01*
X81298463Y-50632506D01*
X81239498Y-50742820D01*
X81203188Y-50862518D01*
X81190928Y-50987000D01*
X78511000Y-50987000D01*
X78511000Y-50616654D01*
X78525494Y-50468830D01*
X78562660Y-50345731D01*
X78623028Y-50232196D01*
X78704296Y-50132551D01*
X78803372Y-50050588D01*
X78916487Y-49989426D01*
X79039318Y-49951404D01*
X79185878Y-49936000D01*
X97282000Y-49936000D01*
X97282000Y-65101276D01*
G37*
X97282000Y-65101276D02*
X97165141Y-65179358D01*
X97056358Y-65288141D01*
X96970887Y-65416058D01*
X96912013Y-65558191D01*
X96882000Y-65709078D01*
X96882000Y-65809377D01*
X96829000Y-65804157D01*
X95829000Y-65804157D01*
X95754311Y-65811513D01*
X95682492Y-65833299D01*
X95616304Y-65868678D01*
X95558289Y-65916289D01*
X95510678Y-65974304D01*
X95475299Y-66040492D01*
X95453513Y-66112311D01*
X95446157Y-66187000D01*
X95446157Y-68687000D01*
X95453513Y-68761689D01*
X95475299Y-68833508D01*
X95510678Y-68899696D01*
X95558289Y-68957711D01*
X95616304Y-69005322D01*
X95682492Y-69040701D01*
X95754311Y-69062487D01*
X95829000Y-69069843D01*
X96829000Y-69069843D01*
X96903689Y-69062487D01*
X96975508Y-69040701D01*
X97041696Y-69005322D01*
X97099711Y-68957711D01*
X97147322Y-68899696D01*
X97182701Y-68833508D01*
X97204487Y-68761689D01*
X97211843Y-68687000D01*
X97211843Y-67269748D01*
X97282000Y-67199591D01*
X97282000Y-77953000D01*
X79191654Y-77953000D01*
X79043829Y-77938506D01*
X78920731Y-77901340D01*
X78807196Y-77840972D01*
X78707549Y-77759702D01*
X78625587Y-77660626D01*
X78564426Y-77547513D01*
X78526404Y-77424682D01*
X78511000Y-77278123D01*
X78511000Y-76099933D01*
X79375000Y-76099933D01*
X79375000Y-76300067D01*
X79414044Y-76496356D01*
X79490632Y-76681256D01*
X79601821Y-76847662D01*
X79743338Y-76989179D01*
X79909744Y-77100368D01*
X80094644Y-77176956D01*
X80290933Y-77216000D01*
X80491067Y-77216000D01*
X80687356Y-77176956D01*
X80872256Y-77100368D01*
X81038662Y-76989179D01*
X81180179Y-76847662D01*
X81291368Y-76681256D01*
X81367956Y-76496356D01*
X81407000Y-76300067D01*
X81407000Y-76099933D01*
X81915000Y-76099933D01*
X81915000Y-76300067D01*
X81954044Y-76496356D01*
X82030632Y-76681256D01*
X82141821Y-76847662D01*
X82283338Y-76989179D01*
X82449744Y-77100368D01*
X82634644Y-77176956D01*
X82830933Y-77216000D01*
X83031067Y-77216000D01*
X83227356Y-77176956D01*
X83412256Y-77100368D01*
X83578662Y-76989179D01*
X83720179Y-76847662D01*
X83831368Y-76681256D01*
X83907956Y-76496356D01*
X83947000Y-76300067D01*
X83947000Y-76099933D01*
X84455000Y-76099933D01*
X84455000Y-76300067D01*
X84494044Y-76496356D01*
X84570632Y-76681256D01*
X84681821Y-76847662D01*
X84823338Y-76989179D01*
X84989744Y-77100368D01*
X85174644Y-77176956D01*
X85370933Y-77216000D01*
X85571067Y-77216000D01*
X85767356Y-77176956D01*
X85952256Y-77100368D01*
X86118662Y-76989179D01*
X86260179Y-76847662D01*
X86371368Y-76681256D01*
X86447956Y-76496356D01*
X86487000Y-76300067D01*
X86487000Y-76099933D01*
X86995000Y-76099933D01*
X86995000Y-76300067D01*
X87034044Y-76496356D01*
X87110632Y-76681256D01*
X87221821Y-76847662D01*
X87363338Y-76989179D01*
X87529744Y-77100368D01*
X87714644Y-77176956D01*
X87910933Y-77216000D01*
X88111067Y-77216000D01*
X88307356Y-77176956D01*
X88492256Y-77100368D01*
X88658662Y-76989179D01*
X88800179Y-76847662D01*
X88911368Y-76681256D01*
X88987956Y-76496356D01*
X89027000Y-76300067D01*
X89027000Y-76099933D01*
X89535000Y-76099933D01*
X89535000Y-76300067D01*
X89574044Y-76496356D01*
X89650632Y-76681256D01*
X89761821Y-76847662D01*
X89903338Y-76989179D01*
X90069744Y-77100368D01*
X90254644Y-77176956D01*
X90450933Y-77216000D01*
X90651067Y-77216000D01*
X90847356Y-77176956D01*
X91032256Y-77100368D01*
X91198662Y-76989179D01*
X91340179Y-76847662D01*
X91451368Y-76681256D01*
X91527956Y-76496356D01*
X91567000Y-76300067D01*
X91567000Y-76099933D01*
X92075000Y-76099933D01*
X92075000Y-76300067D01*
X92114044Y-76496356D01*
X92190632Y-76681256D01*
X92301821Y-76847662D01*
X92443338Y-76989179D01*
X92609744Y-77100368D01*
X92794644Y-77176956D01*
X92990933Y-77216000D01*
X93191067Y-77216000D01*
X93387356Y-77176956D01*
X93572256Y-77100368D01*
X93738662Y-76989179D01*
X93880179Y-76847662D01*
X93991368Y-76681256D01*
X94067956Y-76496356D01*
X94107000Y-76300067D01*
X94107000Y-76099933D01*
X94615000Y-76099933D01*
X94615000Y-76300067D01*
X94654044Y-76496356D01*
X94730632Y-76681256D01*
X94841821Y-76847662D01*
X94983338Y-76989179D01*
X95149744Y-77100368D01*
X95334644Y-77176956D01*
X95530933Y-77216000D01*
X95731067Y-77216000D01*
X95927356Y-77176956D01*
X96112256Y-77100368D01*
X96278662Y-76989179D01*
X96420179Y-76847662D01*
X96531368Y-76681256D01*
X96607956Y-76496356D01*
X96647000Y-76300067D01*
X96647000Y-76099933D01*
X96607956Y-75903644D01*
X96531368Y-75718744D01*
X96420179Y-75552338D01*
X96278662Y-75410821D01*
X96112256Y-75299632D01*
X95927356Y-75223044D01*
X95731067Y-75184000D01*
X95530933Y-75184000D01*
X95334644Y-75223044D01*
X95149744Y-75299632D01*
X94983338Y-75410821D01*
X94841821Y-75552338D01*
X94730632Y-75718744D01*
X94654044Y-75903644D01*
X94615000Y-76099933D01*
X94107000Y-76099933D01*
X94067956Y-75903644D01*
X93991368Y-75718744D01*
X93880179Y-75552338D01*
X93738662Y-75410821D01*
X93572256Y-75299632D01*
X93387356Y-75223044D01*
X93191067Y-75184000D01*
X92990933Y-75184000D01*
X92794644Y-75223044D01*
X92609744Y-75299632D01*
X92443338Y-75410821D01*
X92301821Y-75552338D01*
X92190632Y-75718744D01*
X92114044Y-75903644D01*
X92075000Y-76099933D01*
X91567000Y-76099933D01*
X91527956Y-75903644D01*
X91451368Y-75718744D01*
X91340179Y-75552338D01*
X91198662Y-75410821D01*
X91032256Y-75299632D01*
X90847356Y-75223044D01*
X90651067Y-75184000D01*
X90450933Y-75184000D01*
X90254644Y-75223044D01*
X90069744Y-75299632D01*
X89903338Y-75410821D01*
X89761821Y-75552338D01*
X89650632Y-75718744D01*
X89574044Y-75903644D01*
X89535000Y-76099933D01*
X89027000Y-76099933D01*
X88987956Y-75903644D01*
X88911368Y-75718744D01*
X88800179Y-75552338D01*
X88658662Y-75410821D01*
X88492256Y-75299632D01*
X88307356Y-75223044D01*
X88111067Y-75184000D01*
X87910933Y-75184000D01*
X87714644Y-75223044D01*
X87529744Y-75299632D01*
X87363338Y-75410821D01*
X87221821Y-75552338D01*
X87110632Y-75718744D01*
X87034044Y-75903644D01*
X86995000Y-76099933D01*
X86487000Y-76099933D01*
X86447956Y-75903644D01*
X86371368Y-75718744D01*
X86260179Y-75552338D01*
X86118662Y-75410821D01*
X85952256Y-75299632D01*
X85767356Y-75223044D01*
X85571067Y-75184000D01*
X85370933Y-75184000D01*
X85174644Y-75223044D01*
X84989744Y-75299632D01*
X84823338Y-75410821D01*
X84681821Y-75552338D01*
X84570632Y-75718744D01*
X84494044Y-75903644D01*
X84455000Y-76099933D01*
X83947000Y-76099933D01*
X83907956Y-75903644D01*
X83831368Y-75718744D01*
X83720179Y-75552338D01*
X83578662Y-75410821D01*
X83412256Y-75299632D01*
X83227356Y-75223044D01*
X83031067Y-75184000D01*
X82830933Y-75184000D01*
X82634644Y-75223044D01*
X82449744Y-75299632D01*
X82283338Y-75410821D01*
X82141821Y-75552338D01*
X82030632Y-75718744D01*
X81954044Y-75903644D01*
X81915000Y-76099933D01*
X81407000Y-76099933D01*
X81367956Y-75903644D01*
X81291368Y-75718744D01*
X81180179Y-75552338D01*
X81038662Y-75410821D01*
X80872256Y-75299632D01*
X80687356Y-75223044D01*
X80491067Y-75184000D01*
X80290933Y-75184000D01*
X80094644Y-75223044D01*
X79909744Y-75299632D01*
X79743338Y-75410821D01*
X79601821Y-75552338D01*
X79490632Y-75718744D01*
X79414044Y-75903644D01*
X79375000Y-76099933D01*
X78511000Y-76099933D01*
X78511000Y-59690000D01*
X78866553Y-59690000D01*
X78869001Y-59714856D01*
X78869000Y-70587146D01*
X78869000Y-70714154D01*
X78866553Y-70739000D01*
X78869000Y-70763846D01*
X78869000Y-70763853D01*
X78876322Y-70838192D01*
X78905255Y-70933574D01*
X78952241Y-71021479D01*
X79015473Y-71098527D01*
X79034785Y-71114376D01*
X79380628Y-71460220D01*
X79396473Y-71479527D01*
X79473521Y-71542759D01*
X79561425Y-71589745D01*
X79634607Y-71611944D01*
X79656806Y-71618678D01*
X79666694Y-71619652D01*
X79731146Y-71626000D01*
X79731153Y-71626000D01*
X79755999Y-71628447D01*
X79780845Y-71626000D01*
X81189499Y-71626000D01*
X81290141Y-71726642D01*
X81418058Y-71812113D01*
X81560191Y-71870987D01*
X81711078Y-71901000D01*
X81864922Y-71901000D01*
X82015809Y-71870987D01*
X82157942Y-71812113D01*
X82285859Y-71726642D01*
X82394642Y-71617859D01*
X82480113Y-71489942D01*
X82538987Y-71347809D01*
X82569000Y-71196922D01*
X82569000Y-71043078D01*
X82538987Y-70892191D01*
X82480113Y-70750058D01*
X82394642Y-70622141D01*
X82285859Y-70513358D01*
X82157942Y-70427887D01*
X82015809Y-70369013D01*
X81864922Y-70339000D01*
X81711078Y-70339000D01*
X81560191Y-70369013D01*
X81418058Y-70427887D01*
X81290141Y-70513358D01*
X81189499Y-70614000D01*
X79965592Y-70614000D01*
X79881000Y-70529409D01*
X79881000Y-70027078D01*
X82531000Y-70027078D01*
X82531000Y-70180922D01*
X82561013Y-70331809D01*
X82619887Y-70473942D01*
X82705358Y-70601859D01*
X82814141Y-70710642D01*
X82942058Y-70796113D01*
X83084191Y-70854987D01*
X83235078Y-70885000D01*
X83388922Y-70885000D01*
X83539809Y-70854987D01*
X83681942Y-70796113D01*
X83773405Y-70735000D01*
X85590632Y-70735000D01*
X85916735Y-71061104D01*
X85916741Y-71061109D01*
X85968553Y-71112921D01*
X85990013Y-71220809D01*
X86048887Y-71362942D01*
X86134358Y-71490859D01*
X86243141Y-71599642D01*
X86371058Y-71685113D01*
X86513191Y-71743987D01*
X86664078Y-71774000D01*
X86817922Y-71774000D01*
X86968809Y-71743987D01*
X87110942Y-71685113D01*
X87238859Y-71599642D01*
X87347642Y-71490859D01*
X87433113Y-71362942D01*
X87491987Y-71220809D01*
X87522000Y-71069922D01*
X87522000Y-70916078D01*
X87491987Y-70765191D01*
X87433113Y-70623058D01*
X87347642Y-70495141D01*
X87238859Y-70386358D01*
X87110942Y-70300887D01*
X86968809Y-70242013D01*
X86860921Y-70220553D01*
X86809109Y-70168741D01*
X86809104Y-70168735D01*
X86320105Y-69679737D01*
X86300343Y-69655657D01*
X86204261Y-69576804D01*
X86094642Y-69518211D01*
X85975698Y-69482130D01*
X85882998Y-69473000D01*
X85882990Y-69473000D01*
X85852000Y-69469948D01*
X85821010Y-69473000D01*
X83773405Y-69473000D01*
X83681942Y-69411887D01*
X83539809Y-69353013D01*
X83388922Y-69323000D01*
X83235078Y-69323000D01*
X83084191Y-69353013D01*
X82942058Y-69411887D01*
X82814141Y-69497358D01*
X82705358Y-69606141D01*
X82619887Y-69734058D01*
X82561013Y-69876191D01*
X82531000Y-70027078D01*
X79881000Y-70027078D01*
X79881000Y-63197591D01*
X81515000Y-64831592D01*
X81515000Y-64973922D01*
X81545013Y-65124809D01*
X81603887Y-65266942D01*
X81689358Y-65394859D01*
X81790001Y-65495502D01*
X81790001Y-65807998D01*
X81754311Y-65811513D01*
X81682492Y-65833299D01*
X81616304Y-65868678D01*
X81558289Y-65916289D01*
X81510678Y-65974304D01*
X81475299Y-66040492D01*
X81453513Y-66112311D01*
X81446157Y-66187000D01*
X81446157Y-68687000D01*
X81453513Y-68761689D01*
X81475299Y-68833508D01*
X81510678Y-68899696D01*
X81558289Y-68957711D01*
X81616304Y-69005322D01*
X81682492Y-69040701D01*
X81754311Y-69062487D01*
X81829000Y-69069843D01*
X82829000Y-69069843D01*
X82903689Y-69062487D01*
X82975508Y-69040701D01*
X83041696Y-69005322D01*
X83099711Y-68957711D01*
X83147322Y-68899696D01*
X83182701Y-68833508D01*
X83204487Y-68761689D01*
X83211843Y-68687000D01*
X83211843Y-66187000D01*
X83204487Y-66112311D01*
X83182701Y-66040492D01*
X83147322Y-65974304D01*
X83099711Y-65916289D01*
X83041696Y-65868678D01*
X82975508Y-65833299D01*
X82903689Y-65811513D01*
X82829000Y-65804157D01*
X82817471Y-65804157D01*
X82802000Y-65753156D01*
X82802000Y-65495501D01*
X82811144Y-65486357D01*
X82815013Y-65505809D01*
X82873887Y-65647942D01*
X82959358Y-65775859D01*
X83068141Y-65884642D01*
X83196058Y-65970113D01*
X83338191Y-66028987D01*
X83470788Y-66055362D01*
X83453513Y-66112311D01*
X83446157Y-66187000D01*
X83446157Y-68687000D01*
X83453513Y-68761689D01*
X83475299Y-68833508D01*
X83510678Y-68899696D01*
X83558289Y-68957711D01*
X83616304Y-69005322D01*
X83682492Y-69040701D01*
X83754311Y-69062487D01*
X83829000Y-69069843D01*
X84829000Y-69069843D01*
X84903689Y-69062487D01*
X84975508Y-69040701D01*
X85041696Y-69005322D01*
X85099711Y-68957711D01*
X85147322Y-68899696D01*
X85182701Y-68833508D01*
X85204487Y-68761689D01*
X85211843Y-68687000D01*
X85211843Y-66187000D01*
X85446157Y-66187000D01*
X85446157Y-68687000D01*
X85453513Y-68761689D01*
X85475299Y-68833508D01*
X85510678Y-68899696D01*
X85558289Y-68957711D01*
X85616304Y-69005322D01*
X85682492Y-69040701D01*
X85754311Y-69062487D01*
X85829000Y-69069843D01*
X86829000Y-69069843D01*
X86903689Y-69062487D01*
X86975508Y-69040701D01*
X87041696Y-69005322D01*
X87099711Y-68957711D01*
X87147322Y-68899696D01*
X87182701Y-68833508D01*
X87204487Y-68761689D01*
X87211843Y-68687000D01*
X87211843Y-66187000D01*
X87446157Y-66187000D01*
X87446157Y-68687000D01*
X87453513Y-68761689D01*
X87475299Y-68833508D01*
X87510678Y-68899696D01*
X87558289Y-68957711D01*
X87616304Y-69005322D01*
X87682492Y-69040701D01*
X87754311Y-69062487D01*
X87829000Y-69069843D01*
X88829000Y-69069843D01*
X88903689Y-69062487D01*
X88975508Y-69040701D01*
X89041696Y-69005322D01*
X89099711Y-68957711D01*
X89147322Y-68899696D01*
X89182701Y-68833508D01*
X89204487Y-68761689D01*
X89211843Y-68687000D01*
X89211843Y-66187000D01*
X89446157Y-66187000D01*
X89446157Y-68687000D01*
X89453513Y-68761689D01*
X89475299Y-68833508D01*
X89510678Y-68899696D01*
X89558289Y-68957711D01*
X89616304Y-69005322D01*
X89682492Y-69040701D01*
X89754311Y-69062487D01*
X89829000Y-69069843D01*
X90829000Y-69069843D01*
X90903689Y-69062487D01*
X90975508Y-69040701D01*
X91041696Y-69005322D01*
X91099711Y-68957711D01*
X91147322Y-68899696D01*
X91182701Y-68833508D01*
X91204487Y-68761689D01*
X91211843Y-68687000D01*
X91211843Y-66187000D01*
X91204487Y-66112311D01*
X91182701Y-66040492D01*
X91147322Y-65974304D01*
X91099711Y-65916289D01*
X91041696Y-65868678D01*
X90975508Y-65833299D01*
X90903689Y-65811513D01*
X90829000Y-65804157D01*
X89829000Y-65804157D01*
X89754311Y-65811513D01*
X89682492Y-65833299D01*
X89616304Y-65868678D01*
X89558289Y-65916289D01*
X89510678Y-65974304D01*
X89475299Y-66040492D01*
X89453513Y-66112311D01*
X89446157Y-66187000D01*
X89211843Y-66187000D01*
X89204487Y-66112311D01*
X89182701Y-66040492D01*
X89147322Y-65974304D01*
X89099711Y-65916289D01*
X89041696Y-65868678D01*
X88975508Y-65833299D01*
X88903689Y-65811513D01*
X88835000Y-65804748D01*
X88835000Y-65286297D01*
X88889859Y-65249642D01*
X88998642Y-65140859D01*
X89084113Y-65012942D01*
X89142987Y-64870809D01*
X89173000Y-64719922D01*
X89173000Y-64566078D01*
X89142987Y-64415191D01*
X89084113Y-64273058D01*
X88998642Y-64145141D01*
X88889859Y-64036358D01*
X88761942Y-63950887D01*
X88619809Y-63892013D01*
X88468922Y-63862000D01*
X88315078Y-63862000D01*
X88164191Y-63892013D01*
X88022058Y-63950887D01*
X87894141Y-64036358D01*
X87785358Y-64145141D01*
X87699887Y-64273058D01*
X87641013Y-64415191D01*
X87611000Y-64566078D01*
X87611000Y-64719922D01*
X87641013Y-64870809D01*
X87699887Y-65012942D01*
X87785358Y-65140859D01*
X87823001Y-65178502D01*
X87823001Y-65804748D01*
X87754311Y-65811513D01*
X87682492Y-65833299D01*
X87616304Y-65868678D01*
X87558289Y-65916289D01*
X87510678Y-65974304D01*
X87475299Y-66040492D01*
X87453513Y-66112311D01*
X87446157Y-66187000D01*
X87211843Y-66187000D01*
X87204487Y-66112311D01*
X87182701Y-66040492D01*
X87147322Y-65974304D01*
X87099711Y-65916289D01*
X87041696Y-65868678D01*
X86975508Y-65833299D01*
X86903689Y-65811513D01*
X86866000Y-65807801D01*
X86866000Y-65241501D01*
X86966642Y-65140859D01*
X87052113Y-65012942D01*
X87110987Y-64870809D01*
X87141000Y-64719922D01*
X87141000Y-64566078D01*
X87110987Y-64415191D01*
X87052113Y-64273058D01*
X86966642Y-64145141D01*
X86857859Y-64036358D01*
X86729942Y-63950887D01*
X86587809Y-63892013D01*
X86436922Y-63862000D01*
X86283078Y-63862000D01*
X86132191Y-63892013D01*
X85990058Y-63950887D01*
X85862141Y-64036358D01*
X85753358Y-64145141D01*
X85667887Y-64273058D01*
X85609013Y-64415191D01*
X85579000Y-64566078D01*
X85579000Y-64719922D01*
X85609013Y-64870809D01*
X85667887Y-65012942D01*
X85753358Y-65140859D01*
X85854000Y-65241501D01*
X85854000Y-65804157D01*
X85829000Y-65804157D01*
X85754311Y-65811513D01*
X85682492Y-65833299D01*
X85616304Y-65868678D01*
X85558289Y-65916289D01*
X85510678Y-65974304D01*
X85475299Y-66040492D01*
X85453513Y-66112311D01*
X85446157Y-66187000D01*
X85211843Y-66187000D01*
X85204487Y-66112311D01*
X85182701Y-66040492D01*
X85147322Y-65974304D01*
X85099711Y-65916289D01*
X85041696Y-65868678D01*
X84975508Y-65833299D01*
X84903689Y-65811513D01*
X84832343Y-65804486D01*
X84827678Y-65757122D01*
X84798745Y-65661740D01*
X84782551Y-65631444D01*
X84751759Y-65573836D01*
X84688527Y-65496788D01*
X84669220Y-65480943D01*
X84336483Y-65148207D01*
X84316987Y-65050191D01*
X84258113Y-64908058D01*
X84172642Y-64780141D01*
X84063859Y-64671358D01*
X83935942Y-64585887D01*
X83793809Y-64527013D01*
X83642922Y-64497000D01*
X83489078Y-64497000D01*
X83338191Y-64527013D01*
X83196058Y-64585887D01*
X83068141Y-64671358D01*
X83050856Y-64688643D01*
X83046987Y-64669191D01*
X82988113Y-64527058D01*
X82902642Y-64399141D01*
X82793859Y-64290358D01*
X82665942Y-64204887D01*
X82523809Y-64146013D01*
X82372922Y-64116000D01*
X82230592Y-64116000D01*
X80552999Y-62438408D01*
X80552999Y-61458739D01*
X80695078Y-61487000D01*
X80837409Y-61487000D01*
X81412628Y-62062220D01*
X81428473Y-62081527D01*
X81505521Y-62144759D01*
X81593425Y-62191745D01*
X81688807Y-62220678D01*
X81763146Y-62228000D01*
X81763154Y-62228000D01*
X81788000Y-62230447D01*
X81812846Y-62228000D01*
X90271411Y-62228000D01*
X91983976Y-63940566D01*
X91959058Y-63950887D01*
X91831141Y-64036358D01*
X91722358Y-64145141D01*
X91636887Y-64273058D01*
X91578013Y-64415191D01*
X91548000Y-64566078D01*
X91548000Y-64719922D01*
X91578013Y-64870809D01*
X91636887Y-65012942D01*
X91722358Y-65140859D01*
X91823000Y-65241501D01*
X91823000Y-65804748D01*
X91754311Y-65811513D01*
X91682492Y-65833299D01*
X91616304Y-65868678D01*
X91558289Y-65916289D01*
X91510678Y-65974304D01*
X91475299Y-66040492D01*
X91453513Y-66112311D01*
X91446157Y-66187000D01*
X91446157Y-68687000D01*
X91453513Y-68761689D01*
X91475299Y-68833508D01*
X91510678Y-68899696D01*
X91558289Y-68957711D01*
X91616304Y-69005322D01*
X91682492Y-69040701D01*
X91754311Y-69062487D01*
X91829000Y-69069843D01*
X92829000Y-69069843D01*
X92903689Y-69062487D01*
X92975508Y-69040701D01*
X93041696Y-69005322D01*
X93099711Y-68957711D01*
X93147322Y-68899696D01*
X93182701Y-68833508D01*
X93204487Y-68761689D01*
X93211843Y-68687000D01*
X93211843Y-66187000D01*
X93204487Y-66112311D01*
X93182701Y-66040492D01*
X93147322Y-65974304D01*
X93099711Y-65916289D01*
X93041696Y-65868678D01*
X92975508Y-65833299D01*
X92903689Y-65811513D01*
X92835000Y-65804748D01*
X92835000Y-65241501D01*
X92935642Y-65140859D01*
X93021113Y-65012942D01*
X93031434Y-64988024D01*
X93823001Y-65779591D01*
X93823001Y-65804748D01*
X93754311Y-65811513D01*
X93682492Y-65833299D01*
X93616304Y-65868678D01*
X93558289Y-65916289D01*
X93510678Y-65974304D01*
X93475299Y-66040492D01*
X93453513Y-66112311D01*
X93446157Y-66187000D01*
X93446157Y-68687000D01*
X93453513Y-68761689D01*
X93475299Y-68833508D01*
X93510678Y-68899696D01*
X93558289Y-68957711D01*
X93616304Y-69005322D01*
X93682492Y-69040701D01*
X93754311Y-69062487D01*
X93829000Y-69069843D01*
X94829000Y-69069843D01*
X94903689Y-69062487D01*
X94975508Y-69040701D01*
X95041696Y-69005322D01*
X95099711Y-68957711D01*
X95147322Y-68899696D01*
X95182701Y-68833508D01*
X95204487Y-68761689D01*
X95211843Y-68687000D01*
X95211843Y-66187000D01*
X95204487Y-66112311D01*
X95182701Y-66040492D01*
X95147322Y-65974304D01*
X95099711Y-65916289D01*
X95041696Y-65868678D01*
X94975508Y-65833299D01*
X94903689Y-65811513D01*
X94835000Y-65804748D01*
X94835000Y-65594844D01*
X94837447Y-65569998D01*
X94835000Y-65545152D01*
X94835000Y-65545144D01*
X94827678Y-65470805D01*
X94798745Y-65375423D01*
X94751759Y-65287519D01*
X94688527Y-65210471D01*
X94669220Y-65194626D01*
X90856378Y-61381785D01*
X90840529Y-61362473D01*
X90763481Y-61299241D01*
X90675577Y-61252255D01*
X90580195Y-61223322D01*
X90505856Y-61216000D01*
X90505848Y-61216000D01*
X90481002Y-61213553D01*
X90456156Y-61216000D01*
X81997592Y-61216000D01*
X81553000Y-60771409D01*
X81553000Y-60629078D01*
X81522987Y-60478191D01*
X81464113Y-60336058D01*
X81378642Y-60208141D01*
X81366501Y-60196000D01*
X83795154Y-60196000D01*
X83820000Y-60198447D01*
X83844846Y-60196000D01*
X83844854Y-60196000D01*
X83919193Y-60188678D01*
X84014575Y-60159745D01*
X84102479Y-60112759D01*
X84179527Y-60049527D01*
X84195376Y-60030215D01*
X84666371Y-59559221D01*
X84666376Y-59559215D01*
X84795215Y-59430376D01*
X84814527Y-59414527D01*
X84877759Y-59337479D01*
X84924745Y-59249575D01*
X84953678Y-59154193D01*
X84961000Y-59079854D01*
X84961000Y-59079853D01*
X84963448Y-59055000D01*
X84961000Y-59030146D01*
X84961000Y-57682845D01*
X84963447Y-57657999D01*
X84961000Y-57633153D01*
X84961000Y-57633146D01*
X84953678Y-57558807D01*
X84924745Y-57463425D01*
X84877759Y-57375521D01*
X84814527Y-57298473D01*
X84795220Y-57282628D01*
X83687376Y-56174785D01*
X83671527Y-56155473D01*
X83594479Y-56092241D01*
X83506575Y-56045255D01*
X83411193Y-56016322D01*
X83336854Y-56009000D01*
X83336846Y-56009000D01*
X83312000Y-56006553D01*
X83287154Y-56009000D01*
X80481501Y-56009000D01*
X80380859Y-55908358D01*
X80252942Y-55822887D01*
X80110809Y-55764013D01*
X79959922Y-55734000D01*
X79806078Y-55734000D01*
X79655191Y-55764013D01*
X79513058Y-55822887D01*
X79385141Y-55908358D01*
X79276358Y-56017141D01*
X79190887Y-56145058D01*
X79132013Y-56287191D01*
X79102000Y-56438078D01*
X79102000Y-56591922D01*
X79132013Y-56742809D01*
X79190887Y-56884942D01*
X79276358Y-57012859D01*
X79385141Y-57121642D01*
X79513058Y-57207113D01*
X79655191Y-57265987D01*
X79806078Y-57296000D01*
X79959922Y-57296000D01*
X80110809Y-57265987D01*
X80252942Y-57207113D01*
X80380859Y-57121642D01*
X80481501Y-57021000D01*
X83102409Y-57021000D01*
X83949001Y-57867593D01*
X83949001Y-57990613D01*
X83935942Y-57981887D01*
X83793809Y-57923013D01*
X83642922Y-57893000D01*
X83489078Y-57893000D01*
X83338191Y-57923013D01*
X83196058Y-57981887D01*
X83068141Y-58067358D01*
X82967499Y-58168000D01*
X80415846Y-58168000D01*
X80391000Y-58165553D01*
X80366154Y-58168000D01*
X80366146Y-58168000D01*
X80291807Y-58175322D01*
X80196425Y-58204255D01*
X80108521Y-58251241D01*
X80031473Y-58314473D01*
X80015628Y-58333780D01*
X79034780Y-59314629D01*
X79015474Y-59330473D01*
X78952242Y-59407521D01*
X78942906Y-59424987D01*
X78905255Y-59495426D01*
X78876322Y-59590808D01*
X78866553Y-59690000D01*
X78511000Y-59690000D01*
X78511000Y-55426766D01*
X89309600Y-55426766D01*
X89309600Y-55571234D01*
X89337784Y-55712925D01*
X89393069Y-55846395D01*
X89473331Y-55966515D01*
X89575485Y-56068669D01*
X89695605Y-56148931D01*
X89829075Y-56204216D01*
X89970766Y-56232400D01*
X90115234Y-56232400D01*
X90256925Y-56204216D01*
X90390395Y-56148931D01*
X90510515Y-56068669D01*
X90612669Y-55966515D01*
X90692931Y-55846395D01*
X90748216Y-55712925D01*
X90776400Y-55571234D01*
X90776400Y-55426766D01*
X90748216Y-55285075D01*
X90692931Y-55151605D01*
X90612669Y-55031485D01*
X90510515Y-54929331D01*
X90390395Y-54849069D01*
X90256925Y-54793784D01*
X90115234Y-54765600D01*
X89970766Y-54765600D01*
X89829075Y-54793784D01*
X89695605Y-54849069D01*
X89575485Y-54929331D01*
X89473331Y-55031485D01*
X89393069Y-55151605D01*
X89337784Y-55285075D01*
X89309600Y-55426766D01*
X78511000Y-55426766D01*
X78511000Y-53487000D01*
X81190928Y-53487000D01*
X81203188Y-53611482D01*
X81239498Y-53731180D01*
X81298463Y-53841494D01*
X81377815Y-53938185D01*
X81474506Y-54017537D01*
X81584820Y-54076502D01*
X81704518Y-54112812D01*
X81829000Y-54125072D01*
X82043250Y-54122000D01*
X82202000Y-53963250D01*
X82202000Y-52364000D01*
X81352750Y-52364000D01*
X81194000Y-52522750D01*
X81190928Y-53487000D01*
X78511000Y-53487000D01*
X78511000Y-50987000D01*
X81190928Y-50987000D01*
X81194000Y-51951250D01*
X81352750Y-52110000D01*
X82202000Y-52110000D01*
X82202000Y-50510750D01*
X82456000Y-50510750D01*
X82456000Y-52110000D01*
X82476000Y-52110000D01*
X82476000Y-52364000D01*
X82456000Y-52364000D01*
X82456000Y-53963250D01*
X82614750Y-54122000D01*
X82829000Y-54125072D01*
X82953482Y-54112812D01*
X83073180Y-54076502D01*
X83166000Y-54026888D01*
X83166000Y-54178922D01*
X83196013Y-54329809D01*
X83254887Y-54471942D01*
X83340358Y-54599859D01*
X83449141Y-54708642D01*
X83577058Y-54794113D01*
X83719191Y-54852987D01*
X83870078Y-54883000D01*
X84023922Y-54883000D01*
X84174809Y-54852987D01*
X84316942Y-54794113D01*
X84444859Y-54708642D01*
X84553642Y-54599859D01*
X84639113Y-54471942D01*
X84697987Y-54329809D01*
X84728000Y-54178922D01*
X84728000Y-54025078D01*
X84697987Y-53874191D01*
X84696186Y-53869843D01*
X84829000Y-53869843D01*
X84903689Y-53862487D01*
X84975508Y-53840701D01*
X85041696Y-53805322D01*
X85099711Y-53757711D01*
X85147322Y-53699696D01*
X85182701Y-53633508D01*
X85204487Y-53561689D01*
X85211843Y-53487000D01*
X85211843Y-50987000D01*
X85446157Y-50987000D01*
X85446157Y-53487000D01*
X85453513Y-53561689D01*
X85475299Y-53633508D01*
X85510678Y-53699696D01*
X85558289Y-53757711D01*
X85616304Y-53805322D01*
X85682492Y-53840701D01*
X85754311Y-53862487D01*
X85829000Y-53869843D01*
X86829000Y-53869843D01*
X86903689Y-53862487D01*
X86975508Y-53840701D01*
X87041696Y-53805322D01*
X87099711Y-53757711D01*
X87147322Y-53699696D01*
X87182701Y-53633508D01*
X87204487Y-53561689D01*
X87211843Y-53487000D01*
X87211843Y-50987000D01*
X87446157Y-50987000D01*
X87446157Y-53487000D01*
X87453513Y-53561689D01*
X87475299Y-53633508D01*
X87510678Y-53699696D01*
X87558289Y-53757711D01*
X87616304Y-53805322D01*
X87628187Y-53811674D01*
X87611000Y-53898078D01*
X87611000Y-54051922D01*
X87641013Y-54202809D01*
X87699887Y-54344942D01*
X87785358Y-54472859D01*
X87894141Y-54581642D01*
X88022058Y-54667113D01*
X88164191Y-54725987D01*
X88315078Y-54756000D01*
X88468922Y-54756000D01*
X88619809Y-54725987D01*
X88761942Y-54667113D01*
X88889859Y-54581642D01*
X88998642Y-54472859D01*
X89084113Y-54344942D01*
X89142987Y-54202809D01*
X89173000Y-54051922D01*
X89173000Y-53898078D01*
X89142987Y-53747191D01*
X89131367Y-53719138D01*
X89147322Y-53699696D01*
X89182701Y-53633508D01*
X89204487Y-53561689D01*
X89211843Y-53487000D01*
X89211843Y-50987000D01*
X89446157Y-50987000D01*
X89446157Y-53487000D01*
X89453513Y-53561689D01*
X89475299Y-53633508D01*
X89510678Y-53699696D01*
X89558289Y-53757711D01*
X89616304Y-53805322D01*
X89682492Y-53840701D01*
X89754311Y-53862487D01*
X89829000Y-53869843D01*
X89840530Y-53869843D01*
X89859255Y-53931574D01*
X89906241Y-54019479D01*
X89969473Y-54096527D01*
X89988785Y-54112376D01*
X95379001Y-59502593D01*
X95379000Y-61123499D01*
X95278358Y-61224141D01*
X95192887Y-61352058D01*
X95134013Y-61494191D01*
X95104000Y-61645078D01*
X95104000Y-61798922D01*
X95134013Y-61949809D01*
X95192887Y-62091942D01*
X95278358Y-62219859D01*
X95387141Y-62328642D01*
X95515058Y-62414113D01*
X95657191Y-62472987D01*
X95808078Y-62503000D01*
X95961922Y-62503000D01*
X96112809Y-62472987D01*
X96254942Y-62414113D01*
X96382859Y-62328642D01*
X96491642Y-62219859D01*
X96577113Y-62091942D01*
X96635987Y-61949809D01*
X96666000Y-61798922D01*
X96666000Y-61645078D01*
X96635987Y-61494191D01*
X96577113Y-61352058D01*
X96491642Y-61224141D01*
X96391000Y-61123499D01*
X96391000Y-59317854D01*
X96393448Y-59293000D01*
X96383678Y-59193807D01*
X96354745Y-59098425D01*
X96353854Y-59096759D01*
X96307759Y-59010521D01*
X96244527Y-58933473D01*
X96225220Y-58917628D01*
X92734358Y-55426766D01*
X95659600Y-55426766D01*
X95659600Y-55571234D01*
X95687784Y-55712925D01*
X95743069Y-55846395D01*
X95823331Y-55966515D01*
X95925485Y-56068669D01*
X96045605Y-56148931D01*
X96179075Y-56204216D01*
X96320766Y-56232400D01*
X96465234Y-56232400D01*
X96606925Y-56204216D01*
X96740395Y-56148931D01*
X96860515Y-56068669D01*
X96962669Y-55966515D01*
X97042931Y-55846395D01*
X97098216Y-55712925D01*
X97126400Y-55571234D01*
X97126400Y-55426766D01*
X97098216Y-55285075D01*
X97042931Y-55151605D01*
X96962669Y-55031485D01*
X96860515Y-54929331D01*
X96740395Y-54849069D01*
X96606925Y-54793784D01*
X96465234Y-54765600D01*
X96320766Y-54765600D01*
X96179075Y-54793784D01*
X96045605Y-54849069D01*
X95925485Y-54929331D01*
X95823331Y-55031485D01*
X95743069Y-55151605D01*
X95687784Y-55285075D01*
X95659600Y-55426766D01*
X92734358Y-55426766D01*
X91080812Y-53773221D01*
X91099711Y-53757711D01*
X91147322Y-53699696D01*
X91182701Y-53633508D01*
X91204487Y-53561689D01*
X91211843Y-53487000D01*
X91211843Y-50987000D01*
X91446157Y-50987000D01*
X91446157Y-53487000D01*
X91453513Y-53561689D01*
X91475299Y-53633508D01*
X91510678Y-53699696D01*
X91558289Y-53757711D01*
X91616304Y-53805322D01*
X91682492Y-53840701D01*
X91754311Y-53862487D01*
X91829000Y-53869843D01*
X92829000Y-53869843D01*
X92903689Y-53862487D01*
X92975508Y-53840701D01*
X93041696Y-53805322D01*
X93099711Y-53757711D01*
X93147322Y-53699696D01*
X93182701Y-53633508D01*
X93204487Y-53561689D01*
X93211843Y-53487000D01*
X93211843Y-50987000D01*
X93446157Y-50987000D01*
X93446157Y-53487000D01*
X93453513Y-53561689D01*
X93475299Y-53633508D01*
X93510678Y-53699696D01*
X93558289Y-53757711D01*
X93616304Y-53805322D01*
X93682492Y-53840701D01*
X93754311Y-53862487D01*
X93829000Y-53869843D01*
X93957423Y-53869843D01*
X93969474Y-53884527D01*
X93988780Y-53900371D01*
X94215000Y-54126591D01*
X94215000Y-54268922D01*
X94245013Y-54419809D01*
X94303887Y-54561942D01*
X94389358Y-54689859D01*
X94498141Y-54798642D01*
X94626058Y-54884113D01*
X94768191Y-54942987D01*
X94919078Y-54973000D01*
X95072922Y-54973000D01*
X95223809Y-54942987D01*
X95365942Y-54884113D01*
X95493859Y-54798642D01*
X95602642Y-54689859D01*
X95688113Y-54561942D01*
X95705783Y-54519284D01*
X95768141Y-54581642D01*
X95896058Y-54667113D01*
X96038191Y-54725987D01*
X96189078Y-54756000D01*
X96342922Y-54756000D01*
X96493809Y-54725987D01*
X96635942Y-54667113D01*
X96763859Y-54581642D01*
X96872642Y-54472859D01*
X96958113Y-54344942D01*
X97016987Y-54202809D01*
X97047000Y-54051922D01*
X97047000Y-53898078D01*
X97029813Y-53811674D01*
X97041696Y-53805322D01*
X97099711Y-53757711D01*
X97147322Y-53699696D01*
X97182701Y-53633508D01*
X97204487Y-53561689D01*
X97211843Y-53487000D01*
X97211843Y-50987000D01*
X97204487Y-50912311D01*
X97182701Y-50840492D01*
X97147322Y-50774304D01*
X97099711Y-50716289D01*
X97041696Y-50668678D01*
X96975508Y-50633299D01*
X96903689Y-50611513D01*
X96829000Y-50604157D01*
X95829000Y-50604157D01*
X95754311Y-50611513D01*
X95682492Y-50633299D01*
X95616304Y-50668678D01*
X95558289Y-50716289D01*
X95510678Y-50774304D01*
X95475299Y-50840492D01*
X95453513Y-50912311D01*
X95446157Y-50987000D01*
X95446157Y-53487000D01*
X95453166Y-53558168D01*
X95365942Y-53499887D01*
X95223809Y-53441013D01*
X95211843Y-53438633D01*
X95211843Y-50987000D01*
X95204487Y-50912311D01*
X95182701Y-50840492D01*
X95147322Y-50774304D01*
X95099711Y-50716289D01*
X95041696Y-50668678D01*
X94975508Y-50633299D01*
X94903689Y-50611513D01*
X94829000Y-50604157D01*
X93829000Y-50604157D01*
X93754311Y-50611513D01*
X93682492Y-50633299D01*
X93616304Y-50668678D01*
X93558289Y-50716289D01*
X93510678Y-50774304D01*
X93475299Y-50840492D01*
X93453513Y-50912311D01*
X93446157Y-50987000D01*
X93211843Y-50987000D01*
X93204487Y-50912311D01*
X93182701Y-50840492D01*
X93147322Y-50774304D01*
X93099711Y-50716289D01*
X93041696Y-50668678D01*
X92975508Y-50633299D01*
X92903689Y-50611513D01*
X92829000Y-50604157D01*
X91829000Y-50604157D01*
X91754311Y-50611513D01*
X91682492Y-50633299D01*
X91616304Y-50668678D01*
X91558289Y-50716289D01*
X91510678Y-50774304D01*
X91475299Y-50840492D01*
X91453513Y-50912311D01*
X91446157Y-50987000D01*
X91211843Y-50987000D01*
X91204487Y-50912311D01*
X91182701Y-50840492D01*
X91147322Y-50774304D01*
X91099711Y-50716289D01*
X91041696Y-50668678D01*
X90975508Y-50633299D01*
X90903689Y-50611513D01*
X90829000Y-50604157D01*
X89829000Y-50604157D01*
X89754311Y-50611513D01*
X89682492Y-50633299D01*
X89616304Y-50668678D01*
X89558289Y-50716289D01*
X89510678Y-50774304D01*
X89475299Y-50840492D01*
X89453513Y-50912311D01*
X89446157Y-50987000D01*
X89211843Y-50987000D01*
X89204487Y-50912311D01*
X89182701Y-50840492D01*
X89147322Y-50774304D01*
X89099711Y-50716289D01*
X89041696Y-50668678D01*
X88975508Y-50633299D01*
X88903689Y-50611513D01*
X88829000Y-50604157D01*
X87829000Y-50604157D01*
X87754311Y-50611513D01*
X87682492Y-50633299D01*
X87616304Y-50668678D01*
X87558289Y-50716289D01*
X87510678Y-50774304D01*
X87475299Y-50840492D01*
X87453513Y-50912311D01*
X87446157Y-50987000D01*
X87211843Y-50987000D01*
X87204487Y-50912311D01*
X87182701Y-50840492D01*
X87147322Y-50774304D01*
X87099711Y-50716289D01*
X87041696Y-50668678D01*
X86975508Y-50633299D01*
X86903689Y-50611513D01*
X86829000Y-50604157D01*
X85829000Y-50604157D01*
X85754311Y-50611513D01*
X85682492Y-50633299D01*
X85616304Y-50668678D01*
X85558289Y-50716289D01*
X85510678Y-50774304D01*
X85475299Y-50840492D01*
X85453513Y-50912311D01*
X85446157Y-50987000D01*
X85211843Y-50987000D01*
X85204487Y-50912311D01*
X85182701Y-50840492D01*
X85147322Y-50774304D01*
X85099711Y-50716289D01*
X85041696Y-50668678D01*
X84975508Y-50633299D01*
X84903689Y-50611513D01*
X84829000Y-50604157D01*
X83829000Y-50604157D01*
X83754311Y-50611513D01*
X83682492Y-50633299D01*
X83616304Y-50668678D01*
X83558289Y-50716289D01*
X83510678Y-50774304D01*
X83475299Y-50840492D01*
X83458196Y-50896874D01*
X83454812Y-50862518D01*
X83418502Y-50742820D01*
X83359537Y-50632506D01*
X83280185Y-50535815D01*
X83183494Y-50456463D01*
X83073180Y-50397498D01*
X82953482Y-50361188D01*
X82829000Y-50348928D01*
X82614750Y-50352000D01*
X82456000Y-50510750D01*
X82202000Y-50510750D01*
X82043250Y-50352000D01*
X81829000Y-50348928D01*
X81704518Y-50361188D01*
X81584820Y-50397498D01*
X81474506Y-50456463D01*
X81377815Y-50535815D01*
X81298463Y-50632506D01*
X81239498Y-50742820D01*
X81203188Y-50862518D01*
X81190928Y-50987000D01*
X78511000Y-50987000D01*
X78511000Y-50616654D01*
X78525494Y-50468830D01*
X78562660Y-50345731D01*
X78623028Y-50232196D01*
X78704296Y-50132551D01*
X78803372Y-50050588D01*
X78916487Y-49989426D01*
X79039318Y-49951404D01*
X79185878Y-49936000D01*
X97282000Y-49936000D01*
X97282000Y-65101276D01*
M02*
