M48
; DRILL file {KiCad (5.1.5)-3} date 19/03/2020 01:36:16
; FORMAT={-:-/ absolute / inch / decimal}
; #@! TF.CreationDate,2020-03-19T01:36:16+01:00
; #@! TF.GenerationSoftware,Kicad,Pcbnew,(5.1.5)-3
; #@! TF.FileFunction,Plated,1,2,PTH
FMAT,2
INCH
T1C0.0118
T2C0.0157
T3C0.0500
%
G90
G05
T1
X3.545Y-2.185
X3.795Y-2.185
T2
X3.145Y-2.225
X3.18Y-2.39
X3.21Y-2.125
X3.22Y-2.8
X3.24Y-2.555
X3.28Y-2.76
X3.29Y-2.31
X3.29Y-2.57
X3.305Y-2.13
X3.4Y-2.545
X3.415Y-2.795
X3.48Y-2.125
X3.48Y-2.545
X3.635Y-2.545
X3.74Y-2.1335
X3.775Y-2.43
X3.79Y-2.125
X3.845Y-2.59
T3
X3.165Y-3.0
X3.265Y-3.0
X3.365Y-3.0
X3.465Y-3.0
X3.565Y-3.0
X3.665Y-3.0
X3.765Y-3.0
T0
M30
