G04 #@! TF.GenerationSoftware,KiCad,Pcbnew,(5.1.5)-3*
G04 #@! TF.CreationDate,2020-03-19T01:35:53+01:00*
G04 #@! TF.ProjectId,ESP8266_RGBA_Receiver,45535038-3236-4365-9f52-4742415f5265,rev?*
G04 #@! TF.SameCoordinates,Original*
G04 #@! TF.FileFunction,Soldermask,Top*
G04 #@! TF.FilePolarity,Negative*
%FSLAX46Y46*%
G04 Gerber Fmt 4.6, Leading zero omitted, Abs format (unit mm)*
G04 Created by KiCad (PCBNEW (5.1.5)-3) date 2020-03-19 01:35:53*
%MOMM*%
%LPD*%
G04 APERTURE LIST*
%ADD10C,0.100000*%
G04 APERTURE END LIST*
D10*
G36*
X95831098Y-75540362D02*
G01*
X95955941Y-75592074D01*
X95955943Y-75592075D01*
X96068299Y-75667149D01*
X96163851Y-75762701D01*
X96238926Y-75875059D01*
X96290638Y-75999902D01*
X96317000Y-76132434D01*
X96317000Y-76267566D01*
X96290638Y-76400098D01*
X96238926Y-76524941D01*
X96238925Y-76524943D01*
X96163851Y-76637299D01*
X96068299Y-76732851D01*
X95955943Y-76807925D01*
X95955942Y-76807926D01*
X95955941Y-76807926D01*
X95831098Y-76859638D01*
X95698566Y-76886000D01*
X95563434Y-76886000D01*
X95430902Y-76859638D01*
X95306059Y-76807926D01*
X95306058Y-76807926D01*
X95306057Y-76807925D01*
X95193701Y-76732851D01*
X95098149Y-76637299D01*
X95023075Y-76524943D01*
X95023074Y-76524941D01*
X94971362Y-76400098D01*
X94945000Y-76267566D01*
X94945000Y-76132434D01*
X94971362Y-75999902D01*
X95023074Y-75875059D01*
X95098149Y-75762701D01*
X95193701Y-75667149D01*
X95306057Y-75592075D01*
X95306059Y-75592074D01*
X95430902Y-75540362D01*
X95563434Y-75514000D01*
X95698566Y-75514000D01*
X95831098Y-75540362D01*
G37*
G36*
X90751098Y-75540362D02*
G01*
X90875941Y-75592074D01*
X90875943Y-75592075D01*
X90988299Y-75667149D01*
X91083851Y-75762701D01*
X91158926Y-75875059D01*
X91210638Y-75999902D01*
X91237000Y-76132434D01*
X91237000Y-76267566D01*
X91210638Y-76400098D01*
X91158926Y-76524941D01*
X91158925Y-76524943D01*
X91083851Y-76637299D01*
X90988299Y-76732851D01*
X90875943Y-76807925D01*
X90875942Y-76807926D01*
X90875941Y-76807926D01*
X90751098Y-76859638D01*
X90618566Y-76886000D01*
X90483434Y-76886000D01*
X90350902Y-76859638D01*
X90226059Y-76807926D01*
X90226058Y-76807926D01*
X90226057Y-76807925D01*
X90113701Y-76732851D01*
X90018149Y-76637299D01*
X89943075Y-76524943D01*
X89943074Y-76524941D01*
X89891362Y-76400098D01*
X89865000Y-76267566D01*
X89865000Y-76132434D01*
X89891362Y-75999902D01*
X89943074Y-75875059D01*
X90018149Y-75762701D01*
X90113701Y-75667149D01*
X90226057Y-75592075D01*
X90226059Y-75592074D01*
X90350902Y-75540362D01*
X90483434Y-75514000D01*
X90618566Y-75514000D01*
X90751098Y-75540362D01*
G37*
G36*
X88211098Y-75540362D02*
G01*
X88335941Y-75592074D01*
X88335943Y-75592075D01*
X88448299Y-75667149D01*
X88543851Y-75762701D01*
X88618926Y-75875059D01*
X88670638Y-75999902D01*
X88697000Y-76132434D01*
X88697000Y-76267566D01*
X88670638Y-76400098D01*
X88618926Y-76524941D01*
X88618925Y-76524943D01*
X88543851Y-76637299D01*
X88448299Y-76732851D01*
X88335943Y-76807925D01*
X88335942Y-76807926D01*
X88335941Y-76807926D01*
X88211098Y-76859638D01*
X88078566Y-76886000D01*
X87943434Y-76886000D01*
X87810902Y-76859638D01*
X87686059Y-76807926D01*
X87686058Y-76807926D01*
X87686057Y-76807925D01*
X87573701Y-76732851D01*
X87478149Y-76637299D01*
X87403075Y-76524943D01*
X87403074Y-76524941D01*
X87351362Y-76400098D01*
X87325000Y-76267566D01*
X87325000Y-76132434D01*
X87351362Y-75999902D01*
X87403074Y-75875059D01*
X87478149Y-75762701D01*
X87573701Y-75667149D01*
X87686057Y-75592075D01*
X87686059Y-75592074D01*
X87810902Y-75540362D01*
X87943434Y-75514000D01*
X88078566Y-75514000D01*
X88211098Y-75540362D01*
G37*
G36*
X85671098Y-75540362D02*
G01*
X85795941Y-75592074D01*
X85795943Y-75592075D01*
X85908299Y-75667149D01*
X86003851Y-75762701D01*
X86078926Y-75875059D01*
X86130638Y-75999902D01*
X86157000Y-76132434D01*
X86157000Y-76267566D01*
X86130638Y-76400098D01*
X86078926Y-76524941D01*
X86078925Y-76524943D01*
X86003851Y-76637299D01*
X85908299Y-76732851D01*
X85795943Y-76807925D01*
X85795942Y-76807926D01*
X85795941Y-76807926D01*
X85671098Y-76859638D01*
X85538566Y-76886000D01*
X85403434Y-76886000D01*
X85270902Y-76859638D01*
X85146059Y-76807926D01*
X85146058Y-76807926D01*
X85146057Y-76807925D01*
X85033701Y-76732851D01*
X84938149Y-76637299D01*
X84863075Y-76524943D01*
X84863074Y-76524941D01*
X84811362Y-76400098D01*
X84785000Y-76267566D01*
X84785000Y-76132434D01*
X84811362Y-75999902D01*
X84863074Y-75875059D01*
X84938149Y-75762701D01*
X85033701Y-75667149D01*
X85146057Y-75592075D01*
X85146059Y-75592074D01*
X85270902Y-75540362D01*
X85403434Y-75514000D01*
X85538566Y-75514000D01*
X85671098Y-75540362D01*
G37*
G36*
X83131098Y-75540362D02*
G01*
X83255941Y-75592074D01*
X83255943Y-75592075D01*
X83368299Y-75667149D01*
X83463851Y-75762701D01*
X83538926Y-75875059D01*
X83590638Y-75999902D01*
X83617000Y-76132434D01*
X83617000Y-76267566D01*
X83590638Y-76400098D01*
X83538926Y-76524941D01*
X83538925Y-76524943D01*
X83463851Y-76637299D01*
X83368299Y-76732851D01*
X83255943Y-76807925D01*
X83255942Y-76807926D01*
X83255941Y-76807926D01*
X83131098Y-76859638D01*
X82998566Y-76886000D01*
X82863434Y-76886000D01*
X82730902Y-76859638D01*
X82606059Y-76807926D01*
X82606058Y-76807926D01*
X82606057Y-76807925D01*
X82493701Y-76732851D01*
X82398149Y-76637299D01*
X82323075Y-76524943D01*
X82323074Y-76524941D01*
X82271362Y-76400098D01*
X82245000Y-76267566D01*
X82245000Y-76132434D01*
X82271362Y-75999902D01*
X82323074Y-75875059D01*
X82398149Y-75762701D01*
X82493701Y-75667149D01*
X82606057Y-75592075D01*
X82606059Y-75592074D01*
X82730902Y-75540362D01*
X82863434Y-75514000D01*
X82998566Y-75514000D01*
X83131098Y-75540362D01*
G37*
G36*
X80591098Y-75540362D02*
G01*
X80715941Y-75592074D01*
X80715943Y-75592075D01*
X80828299Y-75667149D01*
X80923851Y-75762701D01*
X80998926Y-75875059D01*
X81050638Y-75999902D01*
X81077000Y-76132434D01*
X81077000Y-76267566D01*
X81050638Y-76400098D01*
X80998926Y-76524941D01*
X80998925Y-76524943D01*
X80923851Y-76637299D01*
X80828299Y-76732851D01*
X80715943Y-76807925D01*
X80715942Y-76807926D01*
X80715941Y-76807926D01*
X80591098Y-76859638D01*
X80458566Y-76886000D01*
X80323434Y-76886000D01*
X80190902Y-76859638D01*
X80066059Y-76807926D01*
X80066058Y-76807926D01*
X80066057Y-76807925D01*
X79953701Y-76732851D01*
X79858149Y-76637299D01*
X79783075Y-76524943D01*
X79783074Y-76524941D01*
X79731362Y-76400098D01*
X79705000Y-76267566D01*
X79705000Y-76132434D01*
X79731362Y-75999902D01*
X79783074Y-75875059D01*
X79858149Y-75762701D01*
X79953701Y-75667149D01*
X80066057Y-75592075D01*
X80066059Y-75592074D01*
X80190902Y-75540362D01*
X80323434Y-75514000D01*
X80458566Y-75514000D01*
X80591098Y-75540362D01*
G37*
G36*
X93291098Y-75540362D02*
G01*
X93415941Y-75592074D01*
X93415943Y-75592075D01*
X93528299Y-75667149D01*
X93623851Y-75762701D01*
X93698926Y-75875059D01*
X93750638Y-75999902D01*
X93777000Y-76132434D01*
X93777000Y-76267566D01*
X93750638Y-76400098D01*
X93698926Y-76524941D01*
X93698925Y-76524943D01*
X93623851Y-76637299D01*
X93528299Y-76732851D01*
X93415943Y-76807925D01*
X93415942Y-76807926D01*
X93415941Y-76807926D01*
X93291098Y-76859638D01*
X93158566Y-76886000D01*
X93023434Y-76886000D01*
X92890902Y-76859638D01*
X92766059Y-76807926D01*
X92766058Y-76807926D01*
X92766057Y-76807925D01*
X92653701Y-76732851D01*
X92558149Y-76637299D01*
X92483075Y-76524943D01*
X92483074Y-76524941D01*
X92431362Y-76400098D01*
X92405000Y-76267566D01*
X92405000Y-76132434D01*
X92431362Y-75999902D01*
X92483074Y-75875059D01*
X92558149Y-75762701D01*
X92653701Y-75667149D01*
X92766057Y-75592075D01*
X92766059Y-75592074D01*
X92890902Y-75540362D01*
X93023434Y-75514000D01*
X93158566Y-75514000D01*
X93291098Y-75540362D01*
G37*
G36*
X95764833Y-71209181D02*
G01*
X95893522Y-71248219D01*
X96012122Y-71311612D01*
X96116076Y-71396925D01*
X96201389Y-71500879D01*
X96264782Y-71619479D01*
X96303820Y-71748168D01*
X96317001Y-71882000D01*
X96317001Y-74422000D01*
X96303820Y-74555832D01*
X96264782Y-74684521D01*
X96201389Y-74803121D01*
X96116076Y-74907075D01*
X96012122Y-74992388D01*
X95893522Y-75055781D01*
X95764833Y-75094819D01*
X95631001Y-75108000D01*
X95630999Y-75108000D01*
X95497167Y-75094819D01*
X95368478Y-75055781D01*
X95249878Y-74992388D01*
X95145924Y-74907075D01*
X95060611Y-74803121D01*
X94997218Y-74684521D01*
X94958180Y-74555832D01*
X94944999Y-74422000D01*
X94944999Y-71882000D01*
X94958180Y-71748168D01*
X94997218Y-71619479D01*
X95060611Y-71500879D01*
X95145924Y-71396925D01*
X95249878Y-71311612D01*
X95368478Y-71248219D01*
X95497167Y-71209181D01*
X95630999Y-71196000D01*
X95631001Y-71196000D01*
X95764833Y-71209181D01*
G37*
G36*
X93224833Y-71209181D02*
G01*
X93353522Y-71248219D01*
X93472122Y-71311612D01*
X93576076Y-71396925D01*
X93661389Y-71500879D01*
X93724782Y-71619479D01*
X93763820Y-71748168D01*
X93777001Y-71882000D01*
X93777001Y-74422000D01*
X93763820Y-74555832D01*
X93724782Y-74684521D01*
X93661389Y-74803121D01*
X93576076Y-74907075D01*
X93472122Y-74992388D01*
X93353522Y-75055781D01*
X93224833Y-75094819D01*
X93091001Y-75108000D01*
X93090999Y-75108000D01*
X92957167Y-75094819D01*
X92828478Y-75055781D01*
X92709878Y-74992388D01*
X92605924Y-74907075D01*
X92520611Y-74803121D01*
X92457218Y-74684521D01*
X92418180Y-74555832D01*
X92404999Y-74422000D01*
X92404999Y-71882000D01*
X92418180Y-71748168D01*
X92457218Y-71619479D01*
X92520611Y-71500879D01*
X92605924Y-71396925D01*
X92709878Y-71311612D01*
X92828478Y-71248219D01*
X92957167Y-71209181D01*
X93090999Y-71196000D01*
X93091001Y-71196000D01*
X93224833Y-71209181D01*
G37*
G36*
X90684833Y-71209181D02*
G01*
X90813522Y-71248219D01*
X90932122Y-71311612D01*
X91036076Y-71396925D01*
X91121389Y-71500879D01*
X91184782Y-71619479D01*
X91223820Y-71748168D01*
X91237001Y-71882000D01*
X91237001Y-74422000D01*
X91223820Y-74555832D01*
X91184782Y-74684521D01*
X91121389Y-74803121D01*
X91036076Y-74907075D01*
X90932122Y-74992388D01*
X90813522Y-75055781D01*
X90684833Y-75094819D01*
X90551001Y-75108000D01*
X90550999Y-75108000D01*
X90417167Y-75094819D01*
X90288478Y-75055781D01*
X90169878Y-74992388D01*
X90065924Y-74907075D01*
X89980611Y-74803121D01*
X89917218Y-74684521D01*
X89878180Y-74555832D01*
X89864999Y-74422000D01*
X89864999Y-71882000D01*
X89878180Y-71748168D01*
X89917218Y-71619479D01*
X89980611Y-71500879D01*
X90065924Y-71396925D01*
X90169878Y-71311612D01*
X90288478Y-71248219D01*
X90417167Y-71209181D01*
X90550999Y-71196000D01*
X90551001Y-71196000D01*
X90684833Y-71209181D01*
G37*
G36*
X88144833Y-71209181D02*
G01*
X88273522Y-71248219D01*
X88392122Y-71311612D01*
X88496076Y-71396925D01*
X88581389Y-71500879D01*
X88644782Y-71619479D01*
X88683820Y-71748168D01*
X88697001Y-71882000D01*
X88697001Y-74422000D01*
X88683820Y-74555832D01*
X88644782Y-74684521D01*
X88581389Y-74803121D01*
X88496076Y-74907075D01*
X88392122Y-74992388D01*
X88273522Y-75055781D01*
X88144833Y-75094819D01*
X88011001Y-75108000D01*
X88010999Y-75108000D01*
X87877167Y-75094819D01*
X87748478Y-75055781D01*
X87629878Y-74992388D01*
X87525924Y-74907075D01*
X87440611Y-74803121D01*
X87377218Y-74684521D01*
X87338180Y-74555832D01*
X87324999Y-74422000D01*
X87324999Y-71882000D01*
X87338180Y-71748168D01*
X87377218Y-71619479D01*
X87440611Y-71500879D01*
X87525924Y-71396925D01*
X87629878Y-71311612D01*
X87748478Y-71248219D01*
X87877167Y-71209181D01*
X88010999Y-71196000D01*
X88011001Y-71196000D01*
X88144833Y-71209181D01*
G37*
G36*
X85604833Y-71209181D02*
G01*
X85733522Y-71248219D01*
X85852122Y-71311612D01*
X85956076Y-71396925D01*
X86041389Y-71500879D01*
X86104782Y-71619479D01*
X86143820Y-71748168D01*
X86157001Y-71882000D01*
X86157001Y-74422000D01*
X86143820Y-74555832D01*
X86104782Y-74684521D01*
X86041389Y-74803121D01*
X85956076Y-74907075D01*
X85852122Y-74992388D01*
X85733522Y-75055781D01*
X85604833Y-75094819D01*
X85471001Y-75108000D01*
X85470999Y-75108000D01*
X85337167Y-75094819D01*
X85208478Y-75055781D01*
X85089878Y-74992388D01*
X84985924Y-74907075D01*
X84900611Y-74803121D01*
X84837218Y-74684521D01*
X84798180Y-74555832D01*
X84784999Y-74422000D01*
X84784999Y-71882000D01*
X84798180Y-71748168D01*
X84837218Y-71619479D01*
X84900611Y-71500879D01*
X84985924Y-71396925D01*
X85089878Y-71311612D01*
X85208478Y-71248219D01*
X85337167Y-71209181D01*
X85470999Y-71196000D01*
X85471001Y-71196000D01*
X85604833Y-71209181D01*
G37*
G36*
X83064833Y-71209181D02*
G01*
X83193522Y-71248219D01*
X83312122Y-71311612D01*
X83416076Y-71396925D01*
X83501389Y-71500879D01*
X83564782Y-71619479D01*
X83603820Y-71748168D01*
X83617001Y-71882000D01*
X83617001Y-74422000D01*
X83603820Y-74555832D01*
X83564782Y-74684521D01*
X83501389Y-74803121D01*
X83416076Y-74907075D01*
X83312122Y-74992388D01*
X83193522Y-75055781D01*
X83064833Y-75094819D01*
X82931001Y-75108000D01*
X82930999Y-75108000D01*
X82797167Y-75094819D01*
X82668478Y-75055781D01*
X82549878Y-74992388D01*
X82445924Y-74907075D01*
X82360611Y-74803121D01*
X82297218Y-74684521D01*
X82258180Y-74555832D01*
X82244999Y-74422000D01*
X82244999Y-71882000D01*
X82258180Y-71748168D01*
X82297218Y-71619479D01*
X82360611Y-71500879D01*
X82445924Y-71396925D01*
X82549878Y-71311612D01*
X82668478Y-71248219D01*
X82797167Y-71209181D01*
X82930999Y-71196000D01*
X82931001Y-71196000D01*
X83064833Y-71209181D01*
G37*
G36*
X80524833Y-71209181D02*
G01*
X80653522Y-71248219D01*
X80772122Y-71311612D01*
X80876076Y-71396925D01*
X80961389Y-71500879D01*
X81024782Y-71619479D01*
X81063820Y-71748168D01*
X81077001Y-71882000D01*
X81077001Y-74422000D01*
X81063820Y-74555832D01*
X81024782Y-74684521D01*
X80961389Y-74803121D01*
X80876076Y-74907075D01*
X80772122Y-74992388D01*
X80653522Y-75055781D01*
X80524833Y-75094819D01*
X80391001Y-75108000D01*
X80390999Y-75108000D01*
X80257167Y-75094819D01*
X80128478Y-75055781D01*
X80009878Y-74992388D01*
X79905924Y-74907075D01*
X79820611Y-74803121D01*
X79757218Y-74684521D01*
X79718180Y-74555832D01*
X79704999Y-74422000D01*
X79704999Y-71882000D01*
X79718180Y-71748168D01*
X79757218Y-71619479D01*
X79820611Y-71500879D01*
X79905924Y-71396925D01*
X80009878Y-71311612D01*
X80128478Y-71248219D01*
X80257167Y-71209181D01*
X80390999Y-71196000D01*
X80391001Y-71196000D01*
X80524833Y-71209181D01*
G37*
G36*
X95955000Y-70589000D02*
G01*
X95053000Y-70589000D01*
X95053000Y-69587000D01*
X95955000Y-69587000D01*
X95955000Y-70589000D01*
G37*
G36*
X86049000Y-70589000D02*
G01*
X85147000Y-70589000D01*
X85147000Y-69587000D01*
X86049000Y-69587000D01*
X86049000Y-70589000D01*
G37*
G36*
X91129000Y-70589000D02*
G01*
X90227000Y-70589000D01*
X90227000Y-69587000D01*
X91129000Y-69587000D01*
X91129000Y-70589000D01*
G37*
G36*
X81035000Y-70573000D02*
G01*
X80133000Y-70573000D01*
X80133000Y-69571000D01*
X81035000Y-69571000D01*
X81035000Y-70573000D01*
G37*
G36*
X86999000Y-68589000D02*
G01*
X86097000Y-68589000D01*
X86097000Y-67587000D01*
X86999000Y-67587000D01*
X86999000Y-68589000D01*
G37*
G36*
X96905000Y-68589000D02*
G01*
X96003000Y-68589000D01*
X96003000Y-67587000D01*
X96905000Y-67587000D01*
X96905000Y-68589000D01*
G37*
G36*
X95005000Y-68589000D02*
G01*
X94103000Y-68589000D01*
X94103000Y-67587000D01*
X95005000Y-67587000D01*
X95005000Y-68589000D01*
G37*
G36*
X92079000Y-68589000D02*
G01*
X91177000Y-68589000D01*
X91177000Y-67587000D01*
X92079000Y-67587000D01*
X92079000Y-68589000D01*
G37*
G36*
X90179000Y-68589000D02*
G01*
X89277000Y-68589000D01*
X89277000Y-67587000D01*
X90179000Y-67587000D01*
X90179000Y-68589000D01*
G37*
G36*
X85099000Y-68589000D02*
G01*
X84197000Y-68589000D01*
X84197000Y-67587000D01*
X85099000Y-67587000D01*
X85099000Y-68589000D01*
G37*
G36*
X80085000Y-68573000D02*
G01*
X79183000Y-68573000D01*
X79183000Y-67571000D01*
X80085000Y-67571000D01*
X80085000Y-68573000D01*
G37*
G36*
X81985000Y-68573000D02*
G01*
X81083000Y-68573000D01*
X81083000Y-67571000D01*
X81985000Y-67571000D01*
X81985000Y-68573000D01*
G37*
G36*
X85127091Y-65518085D02*
G01*
X85161069Y-65528393D01*
X85192390Y-65545134D01*
X85219839Y-65567661D01*
X85242366Y-65595110D01*
X85259107Y-65626431D01*
X85269415Y-65660409D01*
X85273500Y-65701890D01*
X85273500Y-66378110D01*
X85269415Y-66419591D01*
X85259107Y-66453569D01*
X85242366Y-66484890D01*
X85219839Y-66512339D01*
X85192390Y-66534866D01*
X85161069Y-66551607D01*
X85127091Y-66561915D01*
X85085610Y-66566000D01*
X84484390Y-66566000D01*
X84442909Y-66561915D01*
X84408931Y-66551607D01*
X84377610Y-66534866D01*
X84350161Y-66512339D01*
X84327634Y-66484890D01*
X84310893Y-66453569D01*
X84300585Y-66419591D01*
X84296500Y-66378110D01*
X84296500Y-65701890D01*
X84300585Y-65660409D01*
X84310893Y-65626431D01*
X84327634Y-65595110D01*
X84350161Y-65567661D01*
X84377610Y-65545134D01*
X84408931Y-65528393D01*
X84442909Y-65518085D01*
X84484390Y-65514000D01*
X85085610Y-65514000D01*
X85127091Y-65518085D01*
G37*
G36*
X90207091Y-65518085D02*
G01*
X90241069Y-65528393D01*
X90272390Y-65545134D01*
X90299839Y-65567661D01*
X90322366Y-65595110D01*
X90339107Y-65626431D01*
X90349415Y-65660409D01*
X90353500Y-65701890D01*
X90353500Y-66378110D01*
X90349415Y-66419591D01*
X90339107Y-66453569D01*
X90322366Y-66484890D01*
X90299839Y-66512339D01*
X90272390Y-66534866D01*
X90241069Y-66551607D01*
X90207091Y-66561915D01*
X90165610Y-66566000D01*
X89564390Y-66566000D01*
X89522909Y-66561915D01*
X89488931Y-66551607D01*
X89457610Y-66534866D01*
X89430161Y-66512339D01*
X89407634Y-66484890D01*
X89390893Y-66453569D01*
X89380585Y-66419591D01*
X89376500Y-66378110D01*
X89376500Y-65701890D01*
X89380585Y-65660409D01*
X89390893Y-65626431D01*
X89407634Y-65595110D01*
X89430161Y-65567661D01*
X89457610Y-65545134D01*
X89488931Y-65528393D01*
X89522909Y-65518085D01*
X89564390Y-65514000D01*
X90165610Y-65514000D01*
X90207091Y-65518085D01*
G37*
G36*
X91782091Y-65518085D02*
G01*
X91816069Y-65528393D01*
X91847390Y-65545134D01*
X91874839Y-65567661D01*
X91897366Y-65595110D01*
X91914107Y-65626431D01*
X91924415Y-65660409D01*
X91928500Y-65701890D01*
X91928500Y-66378110D01*
X91924415Y-66419591D01*
X91914107Y-66453569D01*
X91897366Y-66484890D01*
X91874839Y-66512339D01*
X91847390Y-66534866D01*
X91816069Y-66551607D01*
X91782091Y-66561915D01*
X91740610Y-66566000D01*
X91139390Y-66566000D01*
X91097909Y-66561915D01*
X91063931Y-66551607D01*
X91032610Y-66534866D01*
X91005161Y-66512339D01*
X90982634Y-66484890D01*
X90965893Y-66453569D01*
X90955585Y-66419591D01*
X90951500Y-66378110D01*
X90951500Y-65701890D01*
X90955585Y-65660409D01*
X90965893Y-65626431D01*
X90982634Y-65595110D01*
X91005161Y-65567661D01*
X91032610Y-65545134D01*
X91063931Y-65528393D01*
X91097909Y-65518085D01*
X91139390Y-65514000D01*
X91740610Y-65514000D01*
X91782091Y-65518085D01*
G37*
G36*
X86702091Y-65518085D02*
G01*
X86736069Y-65528393D01*
X86767390Y-65545134D01*
X86794839Y-65567661D01*
X86817366Y-65595110D01*
X86834107Y-65626431D01*
X86844415Y-65660409D01*
X86848500Y-65701890D01*
X86848500Y-66378110D01*
X86844415Y-66419591D01*
X86834107Y-66453569D01*
X86817366Y-66484890D01*
X86794839Y-66512339D01*
X86767390Y-66534866D01*
X86736069Y-66551607D01*
X86702091Y-66561915D01*
X86660610Y-66566000D01*
X86059390Y-66566000D01*
X86017909Y-66561915D01*
X85983931Y-66551607D01*
X85952610Y-66534866D01*
X85925161Y-66512339D01*
X85902634Y-66484890D01*
X85885893Y-66453569D01*
X85875585Y-66419591D01*
X85871500Y-66378110D01*
X85871500Y-65701890D01*
X85875585Y-65660409D01*
X85885893Y-65626431D01*
X85902634Y-65595110D01*
X85925161Y-65567661D01*
X85952610Y-65545134D01*
X85983931Y-65528393D01*
X86017909Y-65518085D01*
X86059390Y-65514000D01*
X86660610Y-65514000D01*
X86702091Y-65518085D01*
G37*
G36*
X81622091Y-65518085D02*
G01*
X81656069Y-65528393D01*
X81687390Y-65545134D01*
X81714839Y-65567661D01*
X81737366Y-65595110D01*
X81754107Y-65626431D01*
X81764415Y-65660409D01*
X81768500Y-65701890D01*
X81768500Y-66378110D01*
X81764415Y-66419591D01*
X81754107Y-66453569D01*
X81737366Y-66484890D01*
X81714839Y-66512339D01*
X81687390Y-66534866D01*
X81656069Y-66551607D01*
X81622091Y-66561915D01*
X81580610Y-66566000D01*
X80979390Y-66566000D01*
X80937909Y-66561915D01*
X80903931Y-66551607D01*
X80872610Y-66534866D01*
X80845161Y-66512339D01*
X80822634Y-66484890D01*
X80805893Y-66453569D01*
X80795585Y-66419591D01*
X80791500Y-66378110D01*
X80791500Y-65701890D01*
X80795585Y-65660409D01*
X80805893Y-65626431D01*
X80822634Y-65595110D01*
X80845161Y-65567661D01*
X80872610Y-65545134D01*
X80903931Y-65528393D01*
X80937909Y-65518085D01*
X80979390Y-65514000D01*
X81580610Y-65514000D01*
X81622091Y-65518085D01*
G37*
G36*
X95033091Y-65518085D02*
G01*
X95067069Y-65528393D01*
X95098390Y-65545134D01*
X95125839Y-65567661D01*
X95148366Y-65595110D01*
X95165107Y-65626431D01*
X95175415Y-65660409D01*
X95179500Y-65701890D01*
X95179500Y-66378110D01*
X95175415Y-66419591D01*
X95165107Y-66453569D01*
X95148366Y-66484890D01*
X95125839Y-66512339D01*
X95098390Y-66534866D01*
X95067069Y-66551607D01*
X95033091Y-66561915D01*
X94991610Y-66566000D01*
X94390390Y-66566000D01*
X94348909Y-66561915D01*
X94314931Y-66551607D01*
X94283610Y-66534866D01*
X94256161Y-66512339D01*
X94233634Y-66484890D01*
X94216893Y-66453569D01*
X94206585Y-66419591D01*
X94202500Y-66378110D01*
X94202500Y-65701890D01*
X94206585Y-65660409D01*
X94216893Y-65626431D01*
X94233634Y-65595110D01*
X94256161Y-65567661D01*
X94283610Y-65545134D01*
X94314931Y-65528393D01*
X94348909Y-65518085D01*
X94390390Y-65514000D01*
X94991610Y-65514000D01*
X95033091Y-65518085D01*
G37*
G36*
X96608091Y-65518085D02*
G01*
X96642069Y-65528393D01*
X96673390Y-65545134D01*
X96700839Y-65567661D01*
X96723366Y-65595110D01*
X96740107Y-65626431D01*
X96750415Y-65660409D01*
X96754500Y-65701890D01*
X96754500Y-66378110D01*
X96750415Y-66419591D01*
X96740107Y-66453569D01*
X96723366Y-66484890D01*
X96700839Y-66512339D01*
X96673390Y-66534866D01*
X96642069Y-66551607D01*
X96608091Y-66561915D01*
X96566610Y-66566000D01*
X95965390Y-66566000D01*
X95923909Y-66561915D01*
X95889931Y-66551607D01*
X95858610Y-66534866D01*
X95831161Y-66512339D01*
X95808634Y-66484890D01*
X95791893Y-66453569D01*
X95781585Y-66419591D01*
X95777500Y-66378110D01*
X95777500Y-65701890D01*
X95781585Y-65660409D01*
X95791893Y-65626431D01*
X95808634Y-65595110D01*
X95831161Y-65567661D01*
X95858610Y-65545134D01*
X95889931Y-65528393D01*
X95923909Y-65518085D01*
X95965390Y-65514000D01*
X96566610Y-65514000D01*
X96608091Y-65518085D01*
G37*
G36*
X80047091Y-65518085D02*
G01*
X80081069Y-65528393D01*
X80112390Y-65545134D01*
X80139839Y-65567661D01*
X80162366Y-65595110D01*
X80179107Y-65626431D01*
X80189415Y-65660409D01*
X80193500Y-65701890D01*
X80193500Y-66378110D01*
X80189415Y-66419591D01*
X80179107Y-66453569D01*
X80162366Y-66484890D01*
X80139839Y-66512339D01*
X80112390Y-66534866D01*
X80081069Y-66551607D01*
X80047091Y-66561915D01*
X80005610Y-66566000D01*
X79404390Y-66566000D01*
X79362909Y-66561915D01*
X79328931Y-66551607D01*
X79297610Y-66534866D01*
X79270161Y-66512339D01*
X79247634Y-66484890D01*
X79230893Y-66453569D01*
X79220585Y-66419591D01*
X79216500Y-66378110D01*
X79216500Y-65701890D01*
X79220585Y-65660409D01*
X79230893Y-65626431D01*
X79247634Y-65595110D01*
X79270161Y-65567661D01*
X79297610Y-65545134D01*
X79328931Y-65528393D01*
X79362909Y-65518085D01*
X79404390Y-65514000D01*
X80005610Y-65514000D01*
X80047091Y-65518085D01*
G37*
G36*
X95127000Y-64416000D02*
G01*
X94375000Y-64416000D01*
X94375000Y-63264000D01*
X95127000Y-63264000D01*
X95127000Y-64416000D01*
G37*
G36*
X97277000Y-64416000D02*
G01*
X96525000Y-64416000D01*
X96525000Y-63264000D01*
X97277000Y-63264000D01*
X97277000Y-64416000D01*
G37*
G36*
X80008591Y-62787085D02*
G01*
X80042569Y-62797393D01*
X80073890Y-62814134D01*
X80101339Y-62836661D01*
X80123866Y-62864110D01*
X80140607Y-62895431D01*
X80150915Y-62929409D01*
X80155000Y-62970890D01*
X80155000Y-63572110D01*
X80150915Y-63613591D01*
X80140607Y-63647569D01*
X80123866Y-63678890D01*
X80101339Y-63706339D01*
X80073890Y-63728866D01*
X80042569Y-63745607D01*
X80008591Y-63755915D01*
X79967110Y-63760000D01*
X79290890Y-63760000D01*
X79249409Y-63755915D01*
X79215431Y-63745607D01*
X79184110Y-63728866D01*
X79156661Y-63706339D01*
X79134134Y-63678890D01*
X79117393Y-63647569D01*
X79107085Y-63613591D01*
X79103000Y-63572110D01*
X79103000Y-62970890D01*
X79107085Y-62929409D01*
X79117393Y-62895431D01*
X79134134Y-62864110D01*
X79156661Y-62836661D01*
X79184110Y-62814134D01*
X79215431Y-62797393D01*
X79249409Y-62787085D01*
X79290890Y-62783000D01*
X79967110Y-62783000D01*
X80008591Y-62787085D01*
G37*
G36*
X82294591Y-62761585D02*
G01*
X82328569Y-62771893D01*
X82359890Y-62788634D01*
X82387339Y-62811161D01*
X82409866Y-62838610D01*
X82426607Y-62869931D01*
X82436915Y-62903909D01*
X82441000Y-62945390D01*
X82441000Y-63546610D01*
X82436915Y-63588091D01*
X82426607Y-63622069D01*
X82409866Y-63653390D01*
X82387339Y-63680839D01*
X82359890Y-63703366D01*
X82328569Y-63720107D01*
X82294591Y-63730415D01*
X82253110Y-63734500D01*
X81576890Y-63734500D01*
X81535409Y-63730415D01*
X81501431Y-63720107D01*
X81470110Y-63703366D01*
X81442661Y-63680839D01*
X81420134Y-63653390D01*
X81403393Y-63622069D01*
X81393085Y-63588091D01*
X81389000Y-63546610D01*
X81389000Y-62945390D01*
X81393085Y-62903909D01*
X81403393Y-62869931D01*
X81420134Y-62838610D01*
X81442661Y-62811161D01*
X81470110Y-62788634D01*
X81501431Y-62771893D01*
X81535409Y-62761585D01*
X81576890Y-62757500D01*
X82253110Y-62757500D01*
X82294591Y-62761585D01*
G37*
G36*
X86826000Y-63553000D02*
G01*
X84724000Y-63553000D01*
X84724000Y-61951000D01*
X86826000Y-61951000D01*
X86826000Y-63553000D01*
G37*
G36*
X93126000Y-62403000D02*
G01*
X91024000Y-62403000D01*
X91024000Y-58501000D01*
X93126000Y-58501000D01*
X93126000Y-62403000D01*
G37*
G36*
X80008591Y-61212085D02*
G01*
X80042569Y-61222393D01*
X80073890Y-61239134D01*
X80101339Y-61261661D01*
X80123866Y-61289110D01*
X80140607Y-61320431D01*
X80150915Y-61354409D01*
X80155000Y-61395890D01*
X80155000Y-61997110D01*
X80150915Y-62038591D01*
X80140607Y-62072569D01*
X80123866Y-62103890D01*
X80101339Y-62131339D01*
X80073890Y-62153866D01*
X80042569Y-62170607D01*
X80008591Y-62180915D01*
X79967110Y-62185000D01*
X79290890Y-62185000D01*
X79249409Y-62180915D01*
X79215431Y-62170607D01*
X79184110Y-62153866D01*
X79156661Y-62131339D01*
X79134134Y-62103890D01*
X79117393Y-62072569D01*
X79107085Y-62038591D01*
X79103000Y-61997110D01*
X79103000Y-61395890D01*
X79107085Y-61354409D01*
X79117393Y-61320431D01*
X79134134Y-61289110D01*
X79156661Y-61261661D01*
X79184110Y-61239134D01*
X79215431Y-61222393D01*
X79249409Y-61212085D01*
X79290890Y-61208000D01*
X79967110Y-61208000D01*
X80008591Y-61212085D01*
G37*
G36*
X82294591Y-61186585D02*
G01*
X82328569Y-61196893D01*
X82359890Y-61213634D01*
X82387339Y-61236161D01*
X82409866Y-61263610D01*
X82426607Y-61294931D01*
X82436915Y-61328909D01*
X82441000Y-61370390D01*
X82441000Y-61971610D01*
X82436915Y-62013091D01*
X82426607Y-62047069D01*
X82409866Y-62078390D01*
X82387339Y-62105839D01*
X82359890Y-62128366D01*
X82328569Y-62145107D01*
X82294591Y-62155415D01*
X82253110Y-62159500D01*
X81576890Y-62159500D01*
X81535409Y-62155415D01*
X81501431Y-62145107D01*
X81470110Y-62128366D01*
X81442661Y-62105839D01*
X81420134Y-62078390D01*
X81403393Y-62047069D01*
X81393085Y-62013091D01*
X81389000Y-61971610D01*
X81389000Y-61370390D01*
X81393085Y-61328909D01*
X81403393Y-61294931D01*
X81420134Y-61263610D01*
X81442661Y-61236161D01*
X81470110Y-61213634D01*
X81501431Y-61196893D01*
X81535409Y-61186585D01*
X81576890Y-61182500D01*
X82253110Y-61182500D01*
X82294591Y-61186585D01*
G37*
G36*
X86826000Y-61253000D02*
G01*
X84724000Y-61253000D01*
X84724000Y-59651000D01*
X86826000Y-59651000D01*
X86826000Y-61253000D01*
G37*
G36*
X95127000Y-60266000D02*
G01*
X94375000Y-60266000D01*
X94375000Y-59114000D01*
X95127000Y-59114000D01*
X95127000Y-60266000D01*
G37*
G36*
X97277000Y-60266000D02*
G01*
X96525000Y-60266000D01*
X96525000Y-59114000D01*
X97277000Y-59114000D01*
X97277000Y-60266000D01*
G37*
G36*
X82294591Y-59002585D02*
G01*
X82328569Y-59012893D01*
X82359890Y-59029634D01*
X82387339Y-59052161D01*
X82409866Y-59079610D01*
X82426607Y-59110931D01*
X82436915Y-59144909D01*
X82441000Y-59186390D01*
X82441000Y-59787610D01*
X82436915Y-59829091D01*
X82426607Y-59863069D01*
X82409866Y-59894390D01*
X82387339Y-59921839D01*
X82359890Y-59944366D01*
X82328569Y-59961107D01*
X82294591Y-59971415D01*
X82253110Y-59975500D01*
X81576890Y-59975500D01*
X81535409Y-59971415D01*
X81501431Y-59961107D01*
X81470110Y-59944366D01*
X81442661Y-59921839D01*
X81420134Y-59894390D01*
X81403393Y-59863069D01*
X81393085Y-59829091D01*
X81389000Y-59787610D01*
X81389000Y-59186390D01*
X81393085Y-59144909D01*
X81403393Y-59110931D01*
X81420134Y-59079610D01*
X81442661Y-59052161D01*
X81470110Y-59029634D01*
X81501431Y-59012893D01*
X81535409Y-59002585D01*
X81576890Y-58998500D01*
X82253110Y-58998500D01*
X82294591Y-59002585D01*
G37*
G36*
X80008591Y-59002585D02*
G01*
X80042569Y-59012893D01*
X80073890Y-59029634D01*
X80101339Y-59052161D01*
X80123866Y-59079610D01*
X80140607Y-59110931D01*
X80150915Y-59144909D01*
X80155000Y-59186390D01*
X80155000Y-59787610D01*
X80150915Y-59829091D01*
X80140607Y-59863069D01*
X80123866Y-59894390D01*
X80101339Y-59921839D01*
X80073890Y-59944366D01*
X80042569Y-59961107D01*
X80008591Y-59971415D01*
X79967110Y-59975500D01*
X79290890Y-59975500D01*
X79249409Y-59971415D01*
X79215431Y-59961107D01*
X79184110Y-59944366D01*
X79156661Y-59921839D01*
X79134134Y-59894390D01*
X79117393Y-59863069D01*
X79107085Y-59829091D01*
X79103000Y-59787610D01*
X79103000Y-59186390D01*
X79107085Y-59144909D01*
X79117393Y-59110931D01*
X79134134Y-59079610D01*
X79156661Y-59052161D01*
X79184110Y-59029634D01*
X79215431Y-59012893D01*
X79249409Y-59002585D01*
X79290890Y-58998500D01*
X79967110Y-58998500D01*
X80008591Y-59002585D01*
G37*
G36*
X86826000Y-58953000D02*
G01*
X84724000Y-58953000D01*
X84724000Y-57351000D01*
X86826000Y-57351000D01*
X86826000Y-58953000D01*
G37*
G36*
X80008591Y-57427585D02*
G01*
X80042569Y-57437893D01*
X80073890Y-57454634D01*
X80101339Y-57477161D01*
X80123866Y-57504610D01*
X80140607Y-57535931D01*
X80150915Y-57569909D01*
X80155000Y-57611390D01*
X80155000Y-58212610D01*
X80150915Y-58254091D01*
X80140607Y-58288069D01*
X80123866Y-58319390D01*
X80101339Y-58346839D01*
X80073890Y-58369366D01*
X80042569Y-58386107D01*
X80008591Y-58396415D01*
X79967110Y-58400500D01*
X79290890Y-58400500D01*
X79249409Y-58396415D01*
X79215431Y-58386107D01*
X79184110Y-58369366D01*
X79156661Y-58346839D01*
X79134134Y-58319390D01*
X79117393Y-58288069D01*
X79107085Y-58254091D01*
X79103000Y-58212610D01*
X79103000Y-57611390D01*
X79107085Y-57569909D01*
X79117393Y-57535931D01*
X79134134Y-57504610D01*
X79156661Y-57477161D01*
X79184110Y-57454634D01*
X79215431Y-57437893D01*
X79249409Y-57427585D01*
X79290890Y-57423500D01*
X79967110Y-57423500D01*
X80008591Y-57427585D01*
G37*
G36*
X82294591Y-57427585D02*
G01*
X82328569Y-57437893D01*
X82359890Y-57454634D01*
X82387339Y-57477161D01*
X82409866Y-57504610D01*
X82426607Y-57535931D01*
X82436915Y-57569909D01*
X82441000Y-57611390D01*
X82441000Y-58212610D01*
X82436915Y-58254091D01*
X82426607Y-58288069D01*
X82409866Y-58319390D01*
X82387339Y-58346839D01*
X82359890Y-58369366D01*
X82328569Y-58386107D01*
X82294591Y-58396415D01*
X82253110Y-58400500D01*
X81576890Y-58400500D01*
X81535409Y-58396415D01*
X81501431Y-58386107D01*
X81470110Y-58369366D01*
X81442661Y-58346839D01*
X81420134Y-58319390D01*
X81403393Y-58288069D01*
X81393085Y-58254091D01*
X81389000Y-58212610D01*
X81389000Y-57611390D01*
X81393085Y-57569909D01*
X81403393Y-57535931D01*
X81420134Y-57504610D01*
X81442661Y-57477161D01*
X81470110Y-57454634D01*
X81501431Y-57437893D01*
X81535409Y-57427585D01*
X81576890Y-57423500D01*
X82253110Y-57423500D01*
X82294591Y-57427585D01*
G37*
G36*
X96989091Y-57263085D02*
G01*
X97023069Y-57273393D01*
X97054390Y-57290134D01*
X97081839Y-57312661D01*
X97104366Y-57340110D01*
X97121107Y-57371431D01*
X97131415Y-57405409D01*
X97135500Y-57446890D01*
X97135500Y-58123110D01*
X97131415Y-58164591D01*
X97121107Y-58198569D01*
X97104366Y-58229890D01*
X97081839Y-58257339D01*
X97054390Y-58279866D01*
X97023069Y-58296607D01*
X96989091Y-58306915D01*
X96947610Y-58311000D01*
X96346390Y-58311000D01*
X96304909Y-58306915D01*
X96270931Y-58296607D01*
X96239610Y-58279866D01*
X96212161Y-58257339D01*
X96189634Y-58229890D01*
X96172893Y-58198569D01*
X96162585Y-58164591D01*
X96158500Y-58123110D01*
X96158500Y-57446890D01*
X96162585Y-57405409D01*
X96172893Y-57371431D01*
X96189634Y-57340110D01*
X96212161Y-57312661D01*
X96239610Y-57290134D01*
X96270931Y-57273393D01*
X96304909Y-57263085D01*
X96346390Y-57259000D01*
X96947610Y-57259000D01*
X96989091Y-57263085D01*
G37*
G36*
X95414091Y-57263085D02*
G01*
X95448069Y-57273393D01*
X95479390Y-57290134D01*
X95506839Y-57312661D01*
X95529366Y-57340110D01*
X95546107Y-57371431D01*
X95556415Y-57405409D01*
X95560500Y-57446890D01*
X95560500Y-58123110D01*
X95556415Y-58164591D01*
X95546107Y-58198569D01*
X95529366Y-58229890D01*
X95506839Y-58257339D01*
X95479390Y-58279866D01*
X95448069Y-58296607D01*
X95414091Y-58306915D01*
X95372610Y-58311000D01*
X94771390Y-58311000D01*
X94729909Y-58306915D01*
X94695931Y-58296607D01*
X94664610Y-58279866D01*
X94637161Y-58257339D01*
X94614634Y-58229890D01*
X94597893Y-58198569D01*
X94587585Y-58164591D01*
X94583500Y-58123110D01*
X94583500Y-57446890D01*
X94587585Y-57405409D01*
X94597893Y-57371431D01*
X94614634Y-57340110D01*
X94637161Y-57312661D01*
X94664610Y-57290134D01*
X94695931Y-57273393D01*
X94729909Y-57263085D01*
X94771390Y-57259000D01*
X95372610Y-57259000D01*
X95414091Y-57263085D01*
G37*
G36*
X96484688Y-55105935D02*
G01*
X96510667Y-55111102D01*
X96584082Y-55141511D01*
X96584083Y-55141512D01*
X96650150Y-55185656D01*
X96706344Y-55241850D01*
X96739452Y-55291400D01*
X96750489Y-55307918D01*
X96780898Y-55381333D01*
X96780898Y-55381334D01*
X96795025Y-55452352D01*
X96796400Y-55459269D01*
X96796400Y-55538731D01*
X96780898Y-55616667D01*
X96750489Y-55690082D01*
X96750488Y-55690083D01*
X96706344Y-55756150D01*
X96650150Y-55812344D01*
X96600600Y-55845452D01*
X96584082Y-55856489D01*
X96510667Y-55886898D01*
X96484688Y-55892065D01*
X96432733Y-55902400D01*
X96353267Y-55902400D01*
X96301312Y-55892065D01*
X96275333Y-55886898D01*
X96201918Y-55856489D01*
X96185400Y-55845452D01*
X96135850Y-55812344D01*
X96079656Y-55756150D01*
X96035512Y-55690083D01*
X96035511Y-55690082D01*
X96005102Y-55616667D01*
X95989600Y-55538731D01*
X95989600Y-55459269D01*
X95990976Y-55452352D01*
X96005102Y-55381334D01*
X96005102Y-55381333D01*
X96035511Y-55307918D01*
X96046548Y-55291400D01*
X96079656Y-55241850D01*
X96135850Y-55185656D01*
X96201917Y-55141512D01*
X96201918Y-55141511D01*
X96275333Y-55111102D01*
X96301312Y-55105935D01*
X96353267Y-55095600D01*
X96432733Y-55095600D01*
X96484688Y-55105935D01*
G37*
G36*
X90134688Y-55105935D02*
G01*
X90160667Y-55111102D01*
X90234082Y-55141511D01*
X90234083Y-55141512D01*
X90300150Y-55185656D01*
X90356344Y-55241850D01*
X90389452Y-55291400D01*
X90400489Y-55307918D01*
X90430898Y-55381333D01*
X90430898Y-55381334D01*
X90445025Y-55452352D01*
X90446400Y-55459269D01*
X90446400Y-55538731D01*
X90430898Y-55616667D01*
X90400489Y-55690082D01*
X90400488Y-55690083D01*
X90356344Y-55756150D01*
X90300150Y-55812344D01*
X90250600Y-55845452D01*
X90234082Y-55856489D01*
X90160667Y-55886898D01*
X90134688Y-55892065D01*
X90082733Y-55902400D01*
X90003267Y-55902400D01*
X89951312Y-55892065D01*
X89925333Y-55886898D01*
X89851918Y-55856489D01*
X89835400Y-55845452D01*
X89785850Y-55812344D01*
X89729656Y-55756150D01*
X89685512Y-55690083D01*
X89685511Y-55690082D01*
X89655102Y-55616667D01*
X89639600Y-55538731D01*
X89639600Y-55459269D01*
X89640976Y-55452352D01*
X89655102Y-55381334D01*
X89655102Y-55381333D01*
X89685511Y-55307918D01*
X89696548Y-55291400D01*
X89729656Y-55241850D01*
X89785850Y-55185656D01*
X89851917Y-55141512D01*
X89851918Y-55141511D01*
X89925333Y-55111102D01*
X89951312Y-55105935D01*
X90003267Y-55095600D01*
X90082733Y-55095600D01*
X90134688Y-55105935D01*
G37*
G36*
X94254000Y-55900000D02*
G01*
X93452000Y-55900000D01*
X93452000Y-55098000D01*
X94254000Y-55098000D01*
X94254000Y-55900000D01*
G37*
G36*
X95524000Y-55900000D02*
G01*
X94722000Y-55900000D01*
X94722000Y-55098000D01*
X95524000Y-55098000D01*
X95524000Y-55900000D01*
G37*
G36*
X92984000Y-55900000D02*
G01*
X92182000Y-55900000D01*
X92182000Y-55098000D01*
X92984000Y-55098000D01*
X92984000Y-55900000D01*
G37*
G36*
X91714000Y-55900000D02*
G01*
X90912000Y-55900000D01*
X90912000Y-55098000D01*
X91714000Y-55098000D01*
X91714000Y-55900000D01*
G37*
G36*
X82714091Y-54723085D02*
G01*
X82748069Y-54733393D01*
X82779390Y-54750134D01*
X82806839Y-54772661D01*
X82829366Y-54800110D01*
X82846107Y-54831431D01*
X82856415Y-54865409D01*
X82860500Y-54906890D01*
X82860500Y-55583110D01*
X82856415Y-55624591D01*
X82846107Y-55658569D01*
X82829366Y-55689890D01*
X82806839Y-55717339D01*
X82779390Y-55739866D01*
X82748069Y-55756607D01*
X82714091Y-55766915D01*
X82672610Y-55771000D01*
X82071390Y-55771000D01*
X82029909Y-55766915D01*
X81995931Y-55756607D01*
X81964610Y-55739866D01*
X81937161Y-55717339D01*
X81914634Y-55689890D01*
X81897893Y-55658569D01*
X81887585Y-55624591D01*
X81883500Y-55583110D01*
X81883500Y-54906890D01*
X81887585Y-54865409D01*
X81897893Y-54831431D01*
X81914634Y-54800110D01*
X81937161Y-54772661D01*
X81964610Y-54750134D01*
X81995931Y-54733393D01*
X82029909Y-54723085D01*
X82071390Y-54719000D01*
X82672610Y-54719000D01*
X82714091Y-54723085D01*
G37*
G36*
X84289091Y-54723085D02*
G01*
X84323069Y-54733393D01*
X84354390Y-54750134D01*
X84381839Y-54772661D01*
X84404366Y-54800110D01*
X84421107Y-54831431D01*
X84431415Y-54865409D01*
X84435500Y-54906890D01*
X84435500Y-55583110D01*
X84431415Y-55624591D01*
X84421107Y-55658569D01*
X84404366Y-55689890D01*
X84381839Y-55717339D01*
X84354390Y-55739866D01*
X84323069Y-55756607D01*
X84289091Y-55766915D01*
X84247610Y-55771000D01*
X83646390Y-55771000D01*
X83604909Y-55766915D01*
X83570931Y-55756607D01*
X83539610Y-55739866D01*
X83512161Y-55717339D01*
X83489634Y-55689890D01*
X83472893Y-55658569D01*
X83462585Y-55624591D01*
X83458500Y-55583110D01*
X83458500Y-54906890D01*
X83462585Y-54865409D01*
X83472893Y-54831431D01*
X83489634Y-54800110D01*
X83512161Y-54772661D01*
X83539610Y-54750134D01*
X83570931Y-54733393D01*
X83604909Y-54723085D01*
X83646390Y-54719000D01*
X84247610Y-54719000D01*
X84289091Y-54723085D01*
G37*
G36*
X80651604Y-54322347D02*
G01*
X80688144Y-54333432D01*
X80721821Y-54351433D01*
X80751341Y-54375659D01*
X80775567Y-54405179D01*
X80793568Y-54438856D01*
X80804653Y-54475396D01*
X80809000Y-54519538D01*
X80809000Y-55468462D01*
X80804653Y-55512604D01*
X80793568Y-55549144D01*
X80775567Y-55582821D01*
X80751341Y-55612341D01*
X80721821Y-55636567D01*
X80688144Y-55654568D01*
X80651604Y-55665653D01*
X80607462Y-55670000D01*
X79158538Y-55670000D01*
X79114396Y-55665653D01*
X79077856Y-55654568D01*
X79044179Y-55636567D01*
X79014659Y-55612341D01*
X78990433Y-55582821D01*
X78972432Y-55549144D01*
X78961347Y-55512604D01*
X78957000Y-55468462D01*
X78957000Y-54519538D01*
X78961347Y-54475396D01*
X78972432Y-54438856D01*
X78990433Y-54405179D01*
X79014659Y-54375659D01*
X79044179Y-54351433D01*
X79077856Y-54333432D01*
X79114396Y-54322347D01*
X79158538Y-54318000D01*
X80607462Y-54318000D01*
X80651604Y-54322347D01*
G37*
G36*
X80651604Y-51522347D02*
G01*
X80688144Y-51533432D01*
X80721821Y-51551433D01*
X80751341Y-51575659D01*
X80775567Y-51605179D01*
X80793568Y-51638856D01*
X80804653Y-51675396D01*
X80809000Y-51719538D01*
X80809000Y-52668462D01*
X80804653Y-52712604D01*
X80793568Y-52749144D01*
X80775567Y-52782821D01*
X80751341Y-52812341D01*
X80721821Y-52836567D01*
X80688144Y-52854568D01*
X80651604Y-52865653D01*
X80607462Y-52870000D01*
X79158538Y-52870000D01*
X79114396Y-52865653D01*
X79077856Y-52854568D01*
X79044179Y-52836567D01*
X79014659Y-52812341D01*
X78990433Y-52782821D01*
X78972432Y-52749144D01*
X78961347Y-52712604D01*
X78957000Y-52668462D01*
X78957000Y-51719538D01*
X78961347Y-51675396D01*
X78972432Y-51638856D01*
X78990433Y-51605179D01*
X79014659Y-51575659D01*
X79044179Y-51551433D01*
X79077856Y-51533432D01*
X79114396Y-51522347D01*
X79158538Y-51518000D01*
X80607462Y-51518000D01*
X80651604Y-51522347D01*
G37*
M02*
