G04 #@! TF.GenerationSoftware,KiCad,Pcbnew,(5.1.5)-3*
G04 #@! TF.CreationDate,2020-03-19T01:35:53+01:00*
G04 #@! TF.ProjectId,ESP8266_RGBA_Receiver,45535038-3236-4365-9f52-4742415f5265,rev?*
G04 #@! TF.SameCoordinates,Original*
G04 #@! TF.FileFunction,Soldermask,Bot*
G04 #@! TF.FilePolarity,Negative*
%FSLAX46Y46*%
G04 Gerber Fmt 4.6, Leading zero omitted, Abs format (unit mm)*
G04 Created by KiCad (PCBNEW (5.1.5)-3) date 2020-03-19 01:35:53*
%MOMM*%
%LPD*%
G04 APERTURE LIST*
%ADD10C,0.100000*%
G04 APERTURE END LIST*
D10*
G36*
X95831098Y-75540362D02*
G01*
X95955941Y-75592074D01*
X95955943Y-75592075D01*
X96068299Y-75667149D01*
X96163851Y-75762701D01*
X96238926Y-75875059D01*
X96290638Y-75999902D01*
X96317000Y-76132434D01*
X96317000Y-76267566D01*
X96290638Y-76400098D01*
X96238926Y-76524941D01*
X96238925Y-76524943D01*
X96163851Y-76637299D01*
X96068299Y-76732851D01*
X95955943Y-76807925D01*
X95955942Y-76807926D01*
X95955941Y-76807926D01*
X95831098Y-76859638D01*
X95698566Y-76886000D01*
X95563434Y-76886000D01*
X95430902Y-76859638D01*
X95306059Y-76807926D01*
X95306058Y-76807926D01*
X95306057Y-76807925D01*
X95193701Y-76732851D01*
X95098149Y-76637299D01*
X95023075Y-76524943D01*
X95023074Y-76524941D01*
X94971362Y-76400098D01*
X94945000Y-76267566D01*
X94945000Y-76132434D01*
X94971362Y-75999902D01*
X95023074Y-75875059D01*
X95098149Y-75762701D01*
X95193701Y-75667149D01*
X95306057Y-75592075D01*
X95306059Y-75592074D01*
X95430902Y-75540362D01*
X95563434Y-75514000D01*
X95698566Y-75514000D01*
X95831098Y-75540362D01*
G37*
G36*
X90751098Y-75540362D02*
G01*
X90875941Y-75592074D01*
X90875943Y-75592075D01*
X90988299Y-75667149D01*
X91083851Y-75762701D01*
X91158926Y-75875059D01*
X91210638Y-75999902D01*
X91237000Y-76132434D01*
X91237000Y-76267566D01*
X91210638Y-76400098D01*
X91158926Y-76524941D01*
X91158925Y-76524943D01*
X91083851Y-76637299D01*
X90988299Y-76732851D01*
X90875943Y-76807925D01*
X90875942Y-76807926D01*
X90875941Y-76807926D01*
X90751098Y-76859638D01*
X90618566Y-76886000D01*
X90483434Y-76886000D01*
X90350902Y-76859638D01*
X90226059Y-76807926D01*
X90226058Y-76807926D01*
X90226057Y-76807925D01*
X90113701Y-76732851D01*
X90018149Y-76637299D01*
X89943075Y-76524943D01*
X89943074Y-76524941D01*
X89891362Y-76400098D01*
X89865000Y-76267566D01*
X89865000Y-76132434D01*
X89891362Y-75999902D01*
X89943074Y-75875059D01*
X90018149Y-75762701D01*
X90113701Y-75667149D01*
X90226057Y-75592075D01*
X90226059Y-75592074D01*
X90350902Y-75540362D01*
X90483434Y-75514000D01*
X90618566Y-75514000D01*
X90751098Y-75540362D01*
G37*
G36*
X88211098Y-75540362D02*
G01*
X88335941Y-75592074D01*
X88335943Y-75592075D01*
X88448299Y-75667149D01*
X88543851Y-75762701D01*
X88618926Y-75875059D01*
X88670638Y-75999902D01*
X88697000Y-76132434D01*
X88697000Y-76267566D01*
X88670638Y-76400098D01*
X88618926Y-76524941D01*
X88618925Y-76524943D01*
X88543851Y-76637299D01*
X88448299Y-76732851D01*
X88335943Y-76807925D01*
X88335942Y-76807926D01*
X88335941Y-76807926D01*
X88211098Y-76859638D01*
X88078566Y-76886000D01*
X87943434Y-76886000D01*
X87810902Y-76859638D01*
X87686059Y-76807926D01*
X87686058Y-76807926D01*
X87686057Y-76807925D01*
X87573701Y-76732851D01*
X87478149Y-76637299D01*
X87403075Y-76524943D01*
X87403074Y-76524941D01*
X87351362Y-76400098D01*
X87325000Y-76267566D01*
X87325000Y-76132434D01*
X87351362Y-75999902D01*
X87403074Y-75875059D01*
X87478149Y-75762701D01*
X87573701Y-75667149D01*
X87686057Y-75592075D01*
X87686059Y-75592074D01*
X87810902Y-75540362D01*
X87943434Y-75514000D01*
X88078566Y-75514000D01*
X88211098Y-75540362D01*
G37*
G36*
X85671098Y-75540362D02*
G01*
X85795941Y-75592074D01*
X85795943Y-75592075D01*
X85908299Y-75667149D01*
X86003851Y-75762701D01*
X86078926Y-75875059D01*
X86130638Y-75999902D01*
X86157000Y-76132434D01*
X86157000Y-76267566D01*
X86130638Y-76400098D01*
X86078926Y-76524941D01*
X86078925Y-76524943D01*
X86003851Y-76637299D01*
X85908299Y-76732851D01*
X85795943Y-76807925D01*
X85795942Y-76807926D01*
X85795941Y-76807926D01*
X85671098Y-76859638D01*
X85538566Y-76886000D01*
X85403434Y-76886000D01*
X85270902Y-76859638D01*
X85146059Y-76807926D01*
X85146058Y-76807926D01*
X85146057Y-76807925D01*
X85033701Y-76732851D01*
X84938149Y-76637299D01*
X84863075Y-76524943D01*
X84863074Y-76524941D01*
X84811362Y-76400098D01*
X84785000Y-76267566D01*
X84785000Y-76132434D01*
X84811362Y-75999902D01*
X84863074Y-75875059D01*
X84938149Y-75762701D01*
X85033701Y-75667149D01*
X85146057Y-75592075D01*
X85146059Y-75592074D01*
X85270902Y-75540362D01*
X85403434Y-75514000D01*
X85538566Y-75514000D01*
X85671098Y-75540362D01*
G37*
G36*
X83131098Y-75540362D02*
G01*
X83255941Y-75592074D01*
X83255943Y-75592075D01*
X83368299Y-75667149D01*
X83463851Y-75762701D01*
X83538926Y-75875059D01*
X83590638Y-75999902D01*
X83617000Y-76132434D01*
X83617000Y-76267566D01*
X83590638Y-76400098D01*
X83538926Y-76524941D01*
X83538925Y-76524943D01*
X83463851Y-76637299D01*
X83368299Y-76732851D01*
X83255943Y-76807925D01*
X83255942Y-76807926D01*
X83255941Y-76807926D01*
X83131098Y-76859638D01*
X82998566Y-76886000D01*
X82863434Y-76886000D01*
X82730902Y-76859638D01*
X82606059Y-76807926D01*
X82606058Y-76807926D01*
X82606057Y-76807925D01*
X82493701Y-76732851D01*
X82398149Y-76637299D01*
X82323075Y-76524943D01*
X82323074Y-76524941D01*
X82271362Y-76400098D01*
X82245000Y-76267566D01*
X82245000Y-76132434D01*
X82271362Y-75999902D01*
X82323074Y-75875059D01*
X82398149Y-75762701D01*
X82493701Y-75667149D01*
X82606057Y-75592075D01*
X82606059Y-75592074D01*
X82730902Y-75540362D01*
X82863434Y-75514000D01*
X82998566Y-75514000D01*
X83131098Y-75540362D01*
G37*
G36*
X80591098Y-75540362D02*
G01*
X80715941Y-75592074D01*
X80715943Y-75592075D01*
X80828299Y-75667149D01*
X80923851Y-75762701D01*
X80998926Y-75875059D01*
X81050638Y-75999902D01*
X81077000Y-76132434D01*
X81077000Y-76267566D01*
X81050638Y-76400098D01*
X80998926Y-76524941D01*
X80998925Y-76524943D01*
X80923851Y-76637299D01*
X80828299Y-76732851D01*
X80715943Y-76807925D01*
X80715942Y-76807926D01*
X80715941Y-76807926D01*
X80591098Y-76859638D01*
X80458566Y-76886000D01*
X80323434Y-76886000D01*
X80190902Y-76859638D01*
X80066059Y-76807926D01*
X80066058Y-76807926D01*
X80066057Y-76807925D01*
X79953701Y-76732851D01*
X79858149Y-76637299D01*
X79783075Y-76524943D01*
X79783074Y-76524941D01*
X79731362Y-76400098D01*
X79705000Y-76267566D01*
X79705000Y-76132434D01*
X79731362Y-75999902D01*
X79783074Y-75875059D01*
X79858149Y-75762701D01*
X79953701Y-75667149D01*
X80066057Y-75592075D01*
X80066059Y-75592074D01*
X80190902Y-75540362D01*
X80323434Y-75514000D01*
X80458566Y-75514000D01*
X80591098Y-75540362D01*
G37*
G36*
X93291098Y-75540362D02*
G01*
X93415941Y-75592074D01*
X93415943Y-75592075D01*
X93528299Y-75667149D01*
X93623851Y-75762701D01*
X93698926Y-75875059D01*
X93750638Y-75999902D01*
X93777000Y-76132434D01*
X93777000Y-76267566D01*
X93750638Y-76400098D01*
X93698926Y-76524941D01*
X93698925Y-76524943D01*
X93623851Y-76637299D01*
X93528299Y-76732851D01*
X93415943Y-76807925D01*
X93415942Y-76807926D01*
X93415941Y-76807926D01*
X93291098Y-76859638D01*
X93158566Y-76886000D01*
X93023434Y-76886000D01*
X92890902Y-76859638D01*
X92766059Y-76807926D01*
X92766058Y-76807926D01*
X92766057Y-76807925D01*
X92653701Y-76732851D01*
X92558149Y-76637299D01*
X92483075Y-76524943D01*
X92483074Y-76524941D01*
X92431362Y-76400098D01*
X92405000Y-76267566D01*
X92405000Y-76132434D01*
X92431362Y-75999902D01*
X92483074Y-75875059D01*
X92558149Y-75762701D01*
X92653701Y-75667149D01*
X92766057Y-75592075D01*
X92766059Y-75592074D01*
X92890902Y-75540362D01*
X93023434Y-75514000D01*
X93158566Y-75514000D01*
X93291098Y-75540362D01*
G37*
G36*
X90880000Y-68738000D02*
G01*
X89778000Y-68738000D01*
X89778000Y-66136000D01*
X90880000Y-66136000D01*
X90880000Y-68738000D01*
G37*
G36*
X96880000Y-68738000D02*
G01*
X95778000Y-68738000D01*
X95778000Y-66136000D01*
X96880000Y-66136000D01*
X96880000Y-68738000D01*
G37*
G36*
X94880000Y-68738000D02*
G01*
X93778000Y-68738000D01*
X93778000Y-66136000D01*
X94880000Y-66136000D01*
X94880000Y-68738000D01*
G37*
G36*
X88880000Y-68738000D02*
G01*
X87778000Y-68738000D01*
X87778000Y-66136000D01*
X88880000Y-66136000D01*
X88880000Y-68738000D01*
G37*
G36*
X86880000Y-68738000D02*
G01*
X85778000Y-68738000D01*
X85778000Y-66136000D01*
X86880000Y-66136000D01*
X86880000Y-68738000D01*
G37*
G36*
X84880000Y-68738000D02*
G01*
X83778000Y-68738000D01*
X83778000Y-66136000D01*
X84880000Y-66136000D01*
X84880000Y-68738000D01*
G37*
G36*
X82880000Y-68738000D02*
G01*
X81778000Y-68738000D01*
X81778000Y-66136000D01*
X82880000Y-66136000D01*
X82880000Y-68738000D01*
G37*
G36*
X92880000Y-68738000D02*
G01*
X91778000Y-68738000D01*
X91778000Y-66136000D01*
X92880000Y-66136000D01*
X92880000Y-68738000D01*
G37*
G36*
X96484688Y-55105935D02*
G01*
X96510667Y-55111102D01*
X96584082Y-55141511D01*
X96584083Y-55141512D01*
X96650150Y-55185656D01*
X96706344Y-55241850D01*
X96739452Y-55291400D01*
X96750489Y-55307918D01*
X96780898Y-55381333D01*
X96796400Y-55459269D01*
X96796400Y-55538731D01*
X96780898Y-55616667D01*
X96750489Y-55690082D01*
X96750488Y-55690083D01*
X96706344Y-55756150D01*
X96650150Y-55812344D01*
X96600600Y-55845452D01*
X96584082Y-55856489D01*
X96510667Y-55886898D01*
X96484688Y-55892065D01*
X96432733Y-55902400D01*
X96353267Y-55902400D01*
X96301312Y-55892065D01*
X96275333Y-55886898D01*
X96201918Y-55856489D01*
X96185400Y-55845452D01*
X96135850Y-55812344D01*
X96079656Y-55756150D01*
X96035512Y-55690083D01*
X96035511Y-55690082D01*
X96005102Y-55616667D01*
X95989600Y-55538731D01*
X95989600Y-55459269D01*
X96005102Y-55381333D01*
X96035511Y-55307918D01*
X96046548Y-55291400D01*
X96079656Y-55241850D01*
X96135850Y-55185656D01*
X96201917Y-55141512D01*
X96201918Y-55141511D01*
X96275333Y-55111102D01*
X96301312Y-55105935D01*
X96353267Y-55095600D01*
X96432733Y-55095600D01*
X96484688Y-55105935D01*
G37*
G36*
X90134688Y-55105935D02*
G01*
X90160667Y-55111102D01*
X90234082Y-55141511D01*
X90234083Y-55141512D01*
X90300150Y-55185656D01*
X90356344Y-55241850D01*
X90389452Y-55291400D01*
X90400489Y-55307918D01*
X90430898Y-55381333D01*
X90446400Y-55459269D01*
X90446400Y-55538731D01*
X90430898Y-55616667D01*
X90400489Y-55690082D01*
X90400488Y-55690083D01*
X90356344Y-55756150D01*
X90300150Y-55812344D01*
X90250600Y-55845452D01*
X90234082Y-55856489D01*
X90160667Y-55886898D01*
X90134688Y-55892065D01*
X90082733Y-55902400D01*
X90003267Y-55902400D01*
X89951312Y-55892065D01*
X89925333Y-55886898D01*
X89851918Y-55856489D01*
X89835400Y-55845452D01*
X89785850Y-55812344D01*
X89729656Y-55756150D01*
X89685512Y-55690083D01*
X89685511Y-55690082D01*
X89655102Y-55616667D01*
X89639600Y-55538731D01*
X89639600Y-55459269D01*
X89655102Y-55381333D01*
X89685511Y-55307918D01*
X89696548Y-55291400D01*
X89729656Y-55241850D01*
X89785850Y-55185656D01*
X89851917Y-55141512D01*
X89851918Y-55141511D01*
X89925333Y-55111102D01*
X89951312Y-55105935D01*
X90003267Y-55095600D01*
X90082733Y-55095600D01*
X90134688Y-55105935D01*
G37*
G36*
X84880000Y-53538000D02*
G01*
X83778000Y-53538000D01*
X83778000Y-50936000D01*
X84880000Y-50936000D01*
X84880000Y-53538000D01*
G37*
G36*
X82880000Y-53538000D02*
G01*
X81778000Y-53538000D01*
X81778000Y-50936000D01*
X82880000Y-50936000D01*
X82880000Y-53538000D01*
G37*
G36*
X96880000Y-53538000D02*
G01*
X95778000Y-53538000D01*
X95778000Y-50936000D01*
X96880000Y-50936000D01*
X96880000Y-53538000D01*
G37*
G36*
X94880000Y-53538000D02*
G01*
X93778000Y-53538000D01*
X93778000Y-50936000D01*
X94880000Y-50936000D01*
X94880000Y-53538000D01*
G37*
G36*
X92880000Y-53538000D02*
G01*
X91778000Y-53538000D01*
X91778000Y-50936000D01*
X92880000Y-50936000D01*
X92880000Y-53538000D01*
G37*
G36*
X90880000Y-53538000D02*
G01*
X89778000Y-53538000D01*
X89778000Y-50936000D01*
X90880000Y-50936000D01*
X90880000Y-53538000D01*
G37*
G36*
X88880000Y-53538000D02*
G01*
X87778000Y-53538000D01*
X87778000Y-50936000D01*
X88880000Y-50936000D01*
X88880000Y-53538000D01*
G37*
G36*
X86880000Y-53538000D02*
G01*
X85778000Y-53538000D01*
X85778000Y-50936000D01*
X86880000Y-50936000D01*
X86880000Y-53538000D01*
G37*
M02*
