G04 #@! TF.GenerationSoftware,KiCad,Pcbnew,(5.1.5)-3*
G04 #@! TF.CreationDate,2020-03-19T01:35:53+01:00*
G04 #@! TF.ProjectId,ESP8266_RGBA_Receiver,45535038-3236-4365-9f52-4742415f5265,rev?*
G04 #@! TF.SameCoordinates,Original*
G04 #@! TF.FileFunction,Paste,Top*
G04 #@! TF.FilePolarity,Positive*
%FSLAX46Y46*%
G04 Gerber Fmt 4.6, Leading zero omitted, Abs format (unit mm)*
G04 Created by KiCad (PCBNEW (5.1.5)-3) date 2020-03-19 01:35:53*
%MOMM*%
%LPD*%
G04 APERTURE LIST*
%ADD10C,0.100000*%
%ADD11R,2.000000X1.500000*%
%ADD12R,2.000000X3.800000*%
%ADD13R,0.650000X1.050000*%
%ADD14R,0.800000X0.900000*%
G04 APERTURE END LIST*
D10*
G36*
X80453242Y-71250058D02*
G01*
X80514883Y-71259201D01*
X80575332Y-71274343D01*
X80634005Y-71295336D01*
X80690338Y-71321980D01*
X80743788Y-71354017D01*
X80793841Y-71391138D01*
X80840014Y-71432987D01*
X80881863Y-71479160D01*
X80918984Y-71529213D01*
X80951021Y-71582663D01*
X80977665Y-71638996D01*
X80998658Y-71697669D01*
X81013800Y-71758118D01*
X81022943Y-71819759D01*
X81026001Y-71882000D01*
X81026001Y-74422000D01*
X81022943Y-74484241D01*
X81013800Y-74545882D01*
X80998658Y-74606331D01*
X80977665Y-74665004D01*
X80951021Y-74721337D01*
X80918984Y-74774787D01*
X80881863Y-74824840D01*
X80840014Y-74871013D01*
X80793841Y-74912862D01*
X80743788Y-74949983D01*
X80690338Y-74982020D01*
X80634005Y-75008664D01*
X80575332Y-75029657D01*
X80514883Y-75044799D01*
X80453242Y-75053942D01*
X80391001Y-75057000D01*
X80390999Y-75057000D01*
X80328758Y-75053942D01*
X80267117Y-75044799D01*
X80206668Y-75029657D01*
X80147995Y-75008664D01*
X80091662Y-74982020D01*
X80038212Y-74949983D01*
X79988159Y-74912862D01*
X79941986Y-74871013D01*
X79900137Y-74824840D01*
X79863016Y-74774787D01*
X79830979Y-74721337D01*
X79804335Y-74665004D01*
X79783342Y-74606331D01*
X79768200Y-74545882D01*
X79759057Y-74484241D01*
X79755999Y-74422000D01*
X79755999Y-71882000D01*
X79759057Y-71819759D01*
X79768200Y-71758118D01*
X79783342Y-71697669D01*
X79804335Y-71638996D01*
X79830979Y-71582663D01*
X79863016Y-71529213D01*
X79900137Y-71479160D01*
X79941986Y-71432987D01*
X79988159Y-71391138D01*
X80038212Y-71354017D01*
X80091662Y-71321980D01*
X80147995Y-71295336D01*
X80206668Y-71274343D01*
X80267117Y-71259201D01*
X80328758Y-71250058D01*
X80390999Y-71247000D01*
X80391001Y-71247000D01*
X80453242Y-71250058D01*
G37*
G36*
X82993242Y-71250058D02*
G01*
X83054883Y-71259201D01*
X83115332Y-71274343D01*
X83174005Y-71295336D01*
X83230338Y-71321980D01*
X83283788Y-71354017D01*
X83333841Y-71391138D01*
X83380014Y-71432987D01*
X83421863Y-71479160D01*
X83458984Y-71529213D01*
X83491021Y-71582663D01*
X83517665Y-71638996D01*
X83538658Y-71697669D01*
X83553800Y-71758118D01*
X83562943Y-71819759D01*
X83566001Y-71882000D01*
X83566001Y-74422000D01*
X83562943Y-74484241D01*
X83553800Y-74545882D01*
X83538658Y-74606331D01*
X83517665Y-74665004D01*
X83491021Y-74721337D01*
X83458984Y-74774787D01*
X83421863Y-74824840D01*
X83380014Y-74871013D01*
X83333841Y-74912862D01*
X83283788Y-74949983D01*
X83230338Y-74982020D01*
X83174005Y-75008664D01*
X83115332Y-75029657D01*
X83054883Y-75044799D01*
X82993242Y-75053942D01*
X82931001Y-75057000D01*
X82930999Y-75057000D01*
X82868758Y-75053942D01*
X82807117Y-75044799D01*
X82746668Y-75029657D01*
X82687995Y-75008664D01*
X82631662Y-74982020D01*
X82578212Y-74949983D01*
X82528159Y-74912862D01*
X82481986Y-74871013D01*
X82440137Y-74824840D01*
X82403016Y-74774787D01*
X82370979Y-74721337D01*
X82344335Y-74665004D01*
X82323342Y-74606331D01*
X82308200Y-74545882D01*
X82299057Y-74484241D01*
X82295999Y-74422000D01*
X82295999Y-71882000D01*
X82299057Y-71819759D01*
X82308200Y-71758118D01*
X82323342Y-71697669D01*
X82344335Y-71638996D01*
X82370979Y-71582663D01*
X82403016Y-71529213D01*
X82440137Y-71479160D01*
X82481986Y-71432987D01*
X82528159Y-71391138D01*
X82578212Y-71354017D01*
X82631662Y-71321980D01*
X82687995Y-71295336D01*
X82746668Y-71274343D01*
X82807117Y-71259201D01*
X82868758Y-71250058D01*
X82930999Y-71247000D01*
X82931001Y-71247000D01*
X82993242Y-71250058D01*
G37*
G36*
X85533242Y-71250058D02*
G01*
X85594883Y-71259201D01*
X85655332Y-71274343D01*
X85714005Y-71295336D01*
X85770338Y-71321980D01*
X85823788Y-71354017D01*
X85873841Y-71391138D01*
X85920014Y-71432987D01*
X85961863Y-71479160D01*
X85998984Y-71529213D01*
X86031021Y-71582663D01*
X86057665Y-71638996D01*
X86078658Y-71697669D01*
X86093800Y-71758118D01*
X86102943Y-71819759D01*
X86106001Y-71882000D01*
X86106001Y-74422000D01*
X86102943Y-74484241D01*
X86093800Y-74545882D01*
X86078658Y-74606331D01*
X86057665Y-74665004D01*
X86031021Y-74721337D01*
X85998984Y-74774787D01*
X85961863Y-74824840D01*
X85920014Y-74871013D01*
X85873841Y-74912862D01*
X85823788Y-74949983D01*
X85770338Y-74982020D01*
X85714005Y-75008664D01*
X85655332Y-75029657D01*
X85594883Y-75044799D01*
X85533242Y-75053942D01*
X85471001Y-75057000D01*
X85470999Y-75057000D01*
X85408758Y-75053942D01*
X85347117Y-75044799D01*
X85286668Y-75029657D01*
X85227995Y-75008664D01*
X85171662Y-74982020D01*
X85118212Y-74949983D01*
X85068159Y-74912862D01*
X85021986Y-74871013D01*
X84980137Y-74824840D01*
X84943016Y-74774787D01*
X84910979Y-74721337D01*
X84884335Y-74665004D01*
X84863342Y-74606331D01*
X84848200Y-74545882D01*
X84839057Y-74484241D01*
X84835999Y-74422000D01*
X84835999Y-71882000D01*
X84839057Y-71819759D01*
X84848200Y-71758118D01*
X84863342Y-71697669D01*
X84884335Y-71638996D01*
X84910979Y-71582663D01*
X84943016Y-71529213D01*
X84980137Y-71479160D01*
X85021986Y-71432987D01*
X85068159Y-71391138D01*
X85118212Y-71354017D01*
X85171662Y-71321980D01*
X85227995Y-71295336D01*
X85286668Y-71274343D01*
X85347117Y-71259201D01*
X85408758Y-71250058D01*
X85470999Y-71247000D01*
X85471001Y-71247000D01*
X85533242Y-71250058D01*
G37*
G36*
X88073242Y-71250058D02*
G01*
X88134883Y-71259201D01*
X88195332Y-71274343D01*
X88254005Y-71295336D01*
X88310338Y-71321980D01*
X88363788Y-71354017D01*
X88413841Y-71391138D01*
X88460014Y-71432987D01*
X88501863Y-71479160D01*
X88538984Y-71529213D01*
X88571021Y-71582663D01*
X88597665Y-71638996D01*
X88618658Y-71697669D01*
X88633800Y-71758118D01*
X88642943Y-71819759D01*
X88646001Y-71882000D01*
X88646001Y-74422000D01*
X88642943Y-74484241D01*
X88633800Y-74545882D01*
X88618658Y-74606331D01*
X88597665Y-74665004D01*
X88571021Y-74721337D01*
X88538984Y-74774787D01*
X88501863Y-74824840D01*
X88460014Y-74871013D01*
X88413841Y-74912862D01*
X88363788Y-74949983D01*
X88310338Y-74982020D01*
X88254005Y-75008664D01*
X88195332Y-75029657D01*
X88134883Y-75044799D01*
X88073242Y-75053942D01*
X88011001Y-75057000D01*
X88010999Y-75057000D01*
X87948758Y-75053942D01*
X87887117Y-75044799D01*
X87826668Y-75029657D01*
X87767995Y-75008664D01*
X87711662Y-74982020D01*
X87658212Y-74949983D01*
X87608159Y-74912862D01*
X87561986Y-74871013D01*
X87520137Y-74824840D01*
X87483016Y-74774787D01*
X87450979Y-74721337D01*
X87424335Y-74665004D01*
X87403342Y-74606331D01*
X87388200Y-74545882D01*
X87379057Y-74484241D01*
X87375999Y-74422000D01*
X87375999Y-71882000D01*
X87379057Y-71819759D01*
X87388200Y-71758118D01*
X87403342Y-71697669D01*
X87424335Y-71638996D01*
X87450979Y-71582663D01*
X87483016Y-71529213D01*
X87520137Y-71479160D01*
X87561986Y-71432987D01*
X87608159Y-71391138D01*
X87658212Y-71354017D01*
X87711662Y-71321980D01*
X87767995Y-71295336D01*
X87826668Y-71274343D01*
X87887117Y-71259201D01*
X87948758Y-71250058D01*
X88010999Y-71247000D01*
X88011001Y-71247000D01*
X88073242Y-71250058D01*
G37*
G36*
X90613242Y-71250058D02*
G01*
X90674883Y-71259201D01*
X90735332Y-71274343D01*
X90794005Y-71295336D01*
X90850338Y-71321980D01*
X90903788Y-71354017D01*
X90953841Y-71391138D01*
X91000014Y-71432987D01*
X91041863Y-71479160D01*
X91078984Y-71529213D01*
X91111021Y-71582663D01*
X91137665Y-71638996D01*
X91158658Y-71697669D01*
X91173800Y-71758118D01*
X91182943Y-71819759D01*
X91186001Y-71882000D01*
X91186001Y-74422000D01*
X91182943Y-74484241D01*
X91173800Y-74545882D01*
X91158658Y-74606331D01*
X91137665Y-74665004D01*
X91111021Y-74721337D01*
X91078984Y-74774787D01*
X91041863Y-74824840D01*
X91000014Y-74871013D01*
X90953841Y-74912862D01*
X90903788Y-74949983D01*
X90850338Y-74982020D01*
X90794005Y-75008664D01*
X90735332Y-75029657D01*
X90674883Y-75044799D01*
X90613242Y-75053942D01*
X90551001Y-75057000D01*
X90550999Y-75057000D01*
X90488758Y-75053942D01*
X90427117Y-75044799D01*
X90366668Y-75029657D01*
X90307995Y-75008664D01*
X90251662Y-74982020D01*
X90198212Y-74949983D01*
X90148159Y-74912862D01*
X90101986Y-74871013D01*
X90060137Y-74824840D01*
X90023016Y-74774787D01*
X89990979Y-74721337D01*
X89964335Y-74665004D01*
X89943342Y-74606331D01*
X89928200Y-74545882D01*
X89919057Y-74484241D01*
X89915999Y-74422000D01*
X89915999Y-71882000D01*
X89919057Y-71819759D01*
X89928200Y-71758118D01*
X89943342Y-71697669D01*
X89964335Y-71638996D01*
X89990979Y-71582663D01*
X90023016Y-71529213D01*
X90060137Y-71479160D01*
X90101986Y-71432987D01*
X90148159Y-71391138D01*
X90198212Y-71354017D01*
X90251662Y-71321980D01*
X90307995Y-71295336D01*
X90366668Y-71274343D01*
X90427117Y-71259201D01*
X90488758Y-71250058D01*
X90550999Y-71247000D01*
X90551001Y-71247000D01*
X90613242Y-71250058D01*
G37*
G36*
X93153242Y-71250058D02*
G01*
X93214883Y-71259201D01*
X93275332Y-71274343D01*
X93334005Y-71295336D01*
X93390338Y-71321980D01*
X93443788Y-71354017D01*
X93493841Y-71391138D01*
X93540014Y-71432987D01*
X93581863Y-71479160D01*
X93618984Y-71529213D01*
X93651021Y-71582663D01*
X93677665Y-71638996D01*
X93698658Y-71697669D01*
X93713800Y-71758118D01*
X93722943Y-71819759D01*
X93726001Y-71882000D01*
X93726001Y-74422000D01*
X93722943Y-74484241D01*
X93713800Y-74545882D01*
X93698658Y-74606331D01*
X93677665Y-74665004D01*
X93651021Y-74721337D01*
X93618984Y-74774787D01*
X93581863Y-74824840D01*
X93540014Y-74871013D01*
X93493841Y-74912862D01*
X93443788Y-74949983D01*
X93390338Y-74982020D01*
X93334005Y-75008664D01*
X93275332Y-75029657D01*
X93214883Y-75044799D01*
X93153242Y-75053942D01*
X93091001Y-75057000D01*
X93090999Y-75057000D01*
X93028758Y-75053942D01*
X92967117Y-75044799D01*
X92906668Y-75029657D01*
X92847995Y-75008664D01*
X92791662Y-74982020D01*
X92738212Y-74949983D01*
X92688159Y-74912862D01*
X92641986Y-74871013D01*
X92600137Y-74824840D01*
X92563016Y-74774787D01*
X92530979Y-74721337D01*
X92504335Y-74665004D01*
X92483342Y-74606331D01*
X92468200Y-74545882D01*
X92459057Y-74484241D01*
X92455999Y-74422000D01*
X92455999Y-71882000D01*
X92459057Y-71819759D01*
X92468200Y-71758118D01*
X92483342Y-71697669D01*
X92504335Y-71638996D01*
X92530979Y-71582663D01*
X92563016Y-71529213D01*
X92600137Y-71479160D01*
X92641986Y-71432987D01*
X92688159Y-71391138D01*
X92738212Y-71354017D01*
X92791662Y-71321980D01*
X92847995Y-71295336D01*
X92906668Y-71274343D01*
X92967117Y-71259201D01*
X93028758Y-71250058D01*
X93090999Y-71247000D01*
X93091001Y-71247000D01*
X93153242Y-71250058D01*
G37*
G36*
X95693242Y-71250058D02*
G01*
X95754883Y-71259201D01*
X95815332Y-71274343D01*
X95874005Y-71295336D01*
X95930338Y-71321980D01*
X95983788Y-71354017D01*
X96033841Y-71391138D01*
X96080014Y-71432987D01*
X96121863Y-71479160D01*
X96158984Y-71529213D01*
X96191021Y-71582663D01*
X96217665Y-71638996D01*
X96238658Y-71697669D01*
X96253800Y-71758118D01*
X96262943Y-71819759D01*
X96266001Y-71882000D01*
X96266001Y-74422000D01*
X96262943Y-74484241D01*
X96253800Y-74545882D01*
X96238658Y-74606331D01*
X96217665Y-74665004D01*
X96191021Y-74721337D01*
X96158984Y-74774787D01*
X96121863Y-74824840D01*
X96080014Y-74871013D01*
X96033841Y-74912862D01*
X95983788Y-74949983D01*
X95930338Y-74982020D01*
X95874005Y-75008664D01*
X95815332Y-75029657D01*
X95754883Y-75044799D01*
X95693242Y-75053942D01*
X95631001Y-75057000D01*
X95630999Y-75057000D01*
X95568758Y-75053942D01*
X95507117Y-75044799D01*
X95446668Y-75029657D01*
X95387995Y-75008664D01*
X95331662Y-74982020D01*
X95278212Y-74949983D01*
X95228159Y-74912862D01*
X95181986Y-74871013D01*
X95140137Y-74824840D01*
X95103016Y-74774787D01*
X95070979Y-74721337D01*
X95044335Y-74665004D01*
X95023342Y-74606331D01*
X95008200Y-74545882D01*
X94999057Y-74484241D01*
X94995999Y-74422000D01*
X94995999Y-71882000D01*
X94999057Y-71819759D01*
X95008200Y-71758118D01*
X95023342Y-71697669D01*
X95044335Y-71638996D01*
X95070979Y-71582663D01*
X95103016Y-71529213D01*
X95140137Y-71479160D01*
X95181986Y-71432987D01*
X95228159Y-71391138D01*
X95278212Y-71354017D01*
X95331662Y-71321980D01*
X95387995Y-71295336D01*
X95446668Y-71274343D01*
X95507117Y-71259201D01*
X95568758Y-71250058D01*
X95630999Y-71247000D01*
X95631001Y-71247000D01*
X95693242Y-71250058D01*
G37*
G36*
X82192691Y-59050553D02*
G01*
X82213926Y-59053703D01*
X82234750Y-59058919D01*
X82254962Y-59066151D01*
X82274368Y-59075330D01*
X82292781Y-59086366D01*
X82310024Y-59099154D01*
X82325930Y-59113570D01*
X82340346Y-59129476D01*
X82353134Y-59146719D01*
X82364170Y-59165132D01*
X82373349Y-59184538D01*
X82380581Y-59204750D01*
X82385797Y-59225574D01*
X82388947Y-59246809D01*
X82390000Y-59268250D01*
X82390000Y-59705750D01*
X82388947Y-59727191D01*
X82385797Y-59748426D01*
X82380581Y-59769250D01*
X82373349Y-59789462D01*
X82364170Y-59808868D01*
X82353134Y-59827281D01*
X82340346Y-59844524D01*
X82325930Y-59860430D01*
X82310024Y-59874846D01*
X82292781Y-59887634D01*
X82274368Y-59898670D01*
X82254962Y-59907849D01*
X82234750Y-59915081D01*
X82213926Y-59920297D01*
X82192691Y-59923447D01*
X82171250Y-59924500D01*
X81658750Y-59924500D01*
X81637309Y-59923447D01*
X81616074Y-59920297D01*
X81595250Y-59915081D01*
X81575038Y-59907849D01*
X81555632Y-59898670D01*
X81537219Y-59887634D01*
X81519976Y-59874846D01*
X81504070Y-59860430D01*
X81489654Y-59844524D01*
X81476866Y-59827281D01*
X81465830Y-59808868D01*
X81456651Y-59789462D01*
X81449419Y-59769250D01*
X81444203Y-59748426D01*
X81441053Y-59727191D01*
X81440000Y-59705750D01*
X81440000Y-59268250D01*
X81441053Y-59246809D01*
X81444203Y-59225574D01*
X81449419Y-59204750D01*
X81456651Y-59184538D01*
X81465830Y-59165132D01*
X81476866Y-59146719D01*
X81489654Y-59129476D01*
X81504070Y-59113570D01*
X81519976Y-59099154D01*
X81537219Y-59086366D01*
X81555632Y-59075330D01*
X81575038Y-59066151D01*
X81595250Y-59058919D01*
X81616074Y-59053703D01*
X81637309Y-59050553D01*
X81658750Y-59049500D01*
X82171250Y-59049500D01*
X82192691Y-59050553D01*
G37*
G36*
X82192691Y-57475553D02*
G01*
X82213926Y-57478703D01*
X82234750Y-57483919D01*
X82254962Y-57491151D01*
X82274368Y-57500330D01*
X82292781Y-57511366D01*
X82310024Y-57524154D01*
X82325930Y-57538570D01*
X82340346Y-57554476D01*
X82353134Y-57571719D01*
X82364170Y-57590132D01*
X82373349Y-57609538D01*
X82380581Y-57629750D01*
X82385797Y-57650574D01*
X82388947Y-57671809D01*
X82390000Y-57693250D01*
X82390000Y-58130750D01*
X82388947Y-58152191D01*
X82385797Y-58173426D01*
X82380581Y-58194250D01*
X82373349Y-58214462D01*
X82364170Y-58233868D01*
X82353134Y-58252281D01*
X82340346Y-58269524D01*
X82325930Y-58285430D01*
X82310024Y-58299846D01*
X82292781Y-58312634D01*
X82274368Y-58323670D01*
X82254962Y-58332849D01*
X82234750Y-58340081D01*
X82213926Y-58345297D01*
X82192691Y-58348447D01*
X82171250Y-58349500D01*
X81658750Y-58349500D01*
X81637309Y-58348447D01*
X81616074Y-58345297D01*
X81595250Y-58340081D01*
X81575038Y-58332849D01*
X81555632Y-58323670D01*
X81537219Y-58312634D01*
X81519976Y-58299846D01*
X81504070Y-58285430D01*
X81489654Y-58269524D01*
X81476866Y-58252281D01*
X81465830Y-58233868D01*
X81456651Y-58214462D01*
X81449419Y-58194250D01*
X81444203Y-58173426D01*
X81441053Y-58152191D01*
X81440000Y-58130750D01*
X81440000Y-57693250D01*
X81441053Y-57671809D01*
X81444203Y-57650574D01*
X81449419Y-57629750D01*
X81456651Y-57609538D01*
X81465830Y-57590132D01*
X81476866Y-57571719D01*
X81489654Y-57554476D01*
X81504070Y-57538570D01*
X81519976Y-57524154D01*
X81537219Y-57511366D01*
X81555632Y-57500330D01*
X81575038Y-57491151D01*
X81595250Y-57483919D01*
X81616074Y-57478703D01*
X81637309Y-57475553D01*
X81658750Y-57474500D01*
X82171250Y-57474500D01*
X82192691Y-57475553D01*
G37*
D11*
X85775000Y-58152000D03*
X85775000Y-62752000D03*
X85775000Y-60452000D03*
D12*
X92075000Y-60452000D03*
D13*
X94751000Y-63840000D03*
X94751000Y-59690000D03*
X96901000Y-63840000D03*
X96901000Y-59690000D03*
D10*
G36*
X95312191Y-57311053D02*
G01*
X95333426Y-57314203D01*
X95354250Y-57319419D01*
X95374462Y-57326651D01*
X95393868Y-57335830D01*
X95412281Y-57346866D01*
X95429524Y-57359654D01*
X95445430Y-57374070D01*
X95459846Y-57389976D01*
X95472634Y-57407219D01*
X95483670Y-57425632D01*
X95492849Y-57445038D01*
X95500081Y-57465250D01*
X95505297Y-57486074D01*
X95508447Y-57507309D01*
X95509500Y-57528750D01*
X95509500Y-58041250D01*
X95508447Y-58062691D01*
X95505297Y-58083926D01*
X95500081Y-58104750D01*
X95492849Y-58124962D01*
X95483670Y-58144368D01*
X95472634Y-58162781D01*
X95459846Y-58180024D01*
X95445430Y-58195930D01*
X95429524Y-58210346D01*
X95412281Y-58223134D01*
X95393868Y-58234170D01*
X95374462Y-58243349D01*
X95354250Y-58250581D01*
X95333426Y-58255797D01*
X95312191Y-58258947D01*
X95290750Y-58260000D01*
X94853250Y-58260000D01*
X94831809Y-58258947D01*
X94810574Y-58255797D01*
X94789750Y-58250581D01*
X94769538Y-58243349D01*
X94750132Y-58234170D01*
X94731719Y-58223134D01*
X94714476Y-58210346D01*
X94698570Y-58195930D01*
X94684154Y-58180024D01*
X94671366Y-58162781D01*
X94660330Y-58144368D01*
X94651151Y-58124962D01*
X94643919Y-58104750D01*
X94638703Y-58083926D01*
X94635553Y-58062691D01*
X94634500Y-58041250D01*
X94634500Y-57528750D01*
X94635553Y-57507309D01*
X94638703Y-57486074D01*
X94643919Y-57465250D01*
X94651151Y-57445038D01*
X94660330Y-57425632D01*
X94671366Y-57407219D01*
X94684154Y-57389976D01*
X94698570Y-57374070D01*
X94714476Y-57359654D01*
X94731719Y-57346866D01*
X94750132Y-57335830D01*
X94769538Y-57326651D01*
X94789750Y-57319419D01*
X94810574Y-57314203D01*
X94831809Y-57311053D01*
X94853250Y-57310000D01*
X95290750Y-57310000D01*
X95312191Y-57311053D01*
G37*
G36*
X96887191Y-57311053D02*
G01*
X96908426Y-57314203D01*
X96929250Y-57319419D01*
X96949462Y-57326651D01*
X96968868Y-57335830D01*
X96987281Y-57346866D01*
X97004524Y-57359654D01*
X97020430Y-57374070D01*
X97034846Y-57389976D01*
X97047634Y-57407219D01*
X97058670Y-57425632D01*
X97067849Y-57445038D01*
X97075081Y-57465250D01*
X97080297Y-57486074D01*
X97083447Y-57507309D01*
X97084500Y-57528750D01*
X97084500Y-58041250D01*
X97083447Y-58062691D01*
X97080297Y-58083926D01*
X97075081Y-58104750D01*
X97067849Y-58124962D01*
X97058670Y-58144368D01*
X97047634Y-58162781D01*
X97034846Y-58180024D01*
X97020430Y-58195930D01*
X97004524Y-58210346D01*
X96987281Y-58223134D01*
X96968868Y-58234170D01*
X96949462Y-58243349D01*
X96929250Y-58250581D01*
X96908426Y-58255797D01*
X96887191Y-58258947D01*
X96865750Y-58260000D01*
X96428250Y-58260000D01*
X96406809Y-58258947D01*
X96385574Y-58255797D01*
X96364750Y-58250581D01*
X96344538Y-58243349D01*
X96325132Y-58234170D01*
X96306719Y-58223134D01*
X96289476Y-58210346D01*
X96273570Y-58195930D01*
X96259154Y-58180024D01*
X96246366Y-58162781D01*
X96235330Y-58144368D01*
X96226151Y-58124962D01*
X96218919Y-58104750D01*
X96213703Y-58083926D01*
X96210553Y-58062691D01*
X96209500Y-58041250D01*
X96209500Y-57528750D01*
X96210553Y-57507309D01*
X96213703Y-57486074D01*
X96218919Y-57465250D01*
X96226151Y-57445038D01*
X96235330Y-57425632D01*
X96246366Y-57407219D01*
X96259154Y-57389976D01*
X96273570Y-57374070D01*
X96289476Y-57359654D01*
X96306719Y-57346866D01*
X96325132Y-57335830D01*
X96344538Y-57326651D01*
X96364750Y-57319419D01*
X96385574Y-57314203D01*
X96406809Y-57311053D01*
X96428250Y-57310000D01*
X96865750Y-57310000D01*
X96887191Y-57311053D01*
G37*
G36*
X84187191Y-54771053D02*
G01*
X84208426Y-54774203D01*
X84229250Y-54779419D01*
X84249462Y-54786651D01*
X84268868Y-54795830D01*
X84287281Y-54806866D01*
X84304524Y-54819654D01*
X84320430Y-54834070D01*
X84334846Y-54849976D01*
X84347634Y-54867219D01*
X84358670Y-54885632D01*
X84367849Y-54905038D01*
X84375081Y-54925250D01*
X84380297Y-54946074D01*
X84383447Y-54967309D01*
X84384500Y-54988750D01*
X84384500Y-55501250D01*
X84383447Y-55522691D01*
X84380297Y-55543926D01*
X84375081Y-55564750D01*
X84367849Y-55584962D01*
X84358670Y-55604368D01*
X84347634Y-55622781D01*
X84334846Y-55640024D01*
X84320430Y-55655930D01*
X84304524Y-55670346D01*
X84287281Y-55683134D01*
X84268868Y-55694170D01*
X84249462Y-55703349D01*
X84229250Y-55710581D01*
X84208426Y-55715797D01*
X84187191Y-55718947D01*
X84165750Y-55720000D01*
X83728250Y-55720000D01*
X83706809Y-55718947D01*
X83685574Y-55715797D01*
X83664750Y-55710581D01*
X83644538Y-55703349D01*
X83625132Y-55694170D01*
X83606719Y-55683134D01*
X83589476Y-55670346D01*
X83573570Y-55655930D01*
X83559154Y-55640024D01*
X83546366Y-55622781D01*
X83535330Y-55604368D01*
X83526151Y-55584962D01*
X83518919Y-55564750D01*
X83513703Y-55543926D01*
X83510553Y-55522691D01*
X83509500Y-55501250D01*
X83509500Y-54988750D01*
X83510553Y-54967309D01*
X83513703Y-54946074D01*
X83518919Y-54925250D01*
X83526151Y-54905038D01*
X83535330Y-54885632D01*
X83546366Y-54867219D01*
X83559154Y-54849976D01*
X83573570Y-54834070D01*
X83589476Y-54819654D01*
X83606719Y-54806866D01*
X83625132Y-54795830D01*
X83644538Y-54786651D01*
X83664750Y-54779419D01*
X83685574Y-54774203D01*
X83706809Y-54771053D01*
X83728250Y-54770000D01*
X84165750Y-54770000D01*
X84187191Y-54771053D01*
G37*
G36*
X82612191Y-54771053D02*
G01*
X82633426Y-54774203D01*
X82654250Y-54779419D01*
X82674462Y-54786651D01*
X82693868Y-54795830D01*
X82712281Y-54806866D01*
X82729524Y-54819654D01*
X82745430Y-54834070D01*
X82759846Y-54849976D01*
X82772634Y-54867219D01*
X82783670Y-54885632D01*
X82792849Y-54905038D01*
X82800081Y-54925250D01*
X82805297Y-54946074D01*
X82808447Y-54967309D01*
X82809500Y-54988750D01*
X82809500Y-55501250D01*
X82808447Y-55522691D01*
X82805297Y-55543926D01*
X82800081Y-55564750D01*
X82792849Y-55584962D01*
X82783670Y-55604368D01*
X82772634Y-55622781D01*
X82759846Y-55640024D01*
X82745430Y-55655930D01*
X82729524Y-55670346D01*
X82712281Y-55683134D01*
X82693868Y-55694170D01*
X82674462Y-55703349D01*
X82654250Y-55710581D01*
X82633426Y-55715797D01*
X82612191Y-55718947D01*
X82590750Y-55720000D01*
X82153250Y-55720000D01*
X82131809Y-55718947D01*
X82110574Y-55715797D01*
X82089750Y-55710581D01*
X82069538Y-55703349D01*
X82050132Y-55694170D01*
X82031719Y-55683134D01*
X82014476Y-55670346D01*
X81998570Y-55655930D01*
X81984154Y-55640024D01*
X81971366Y-55622781D01*
X81960330Y-55604368D01*
X81951151Y-55584962D01*
X81943919Y-55564750D01*
X81938703Y-55543926D01*
X81935553Y-55522691D01*
X81934500Y-55501250D01*
X81934500Y-54988750D01*
X81935553Y-54967309D01*
X81938703Y-54946074D01*
X81943919Y-54925250D01*
X81951151Y-54905038D01*
X81960330Y-54885632D01*
X81971366Y-54867219D01*
X81984154Y-54849976D01*
X81998570Y-54834070D01*
X82014476Y-54819654D01*
X82031719Y-54806866D01*
X82050132Y-54795830D01*
X82069538Y-54786651D01*
X82089750Y-54779419D01*
X82110574Y-54774203D01*
X82131809Y-54771053D01*
X82153250Y-54770000D01*
X82590750Y-54770000D01*
X82612191Y-54771053D01*
G37*
G36*
X79906691Y-61260053D02*
G01*
X79927926Y-61263203D01*
X79948750Y-61268419D01*
X79968962Y-61275651D01*
X79988368Y-61284830D01*
X80006781Y-61295866D01*
X80024024Y-61308654D01*
X80039930Y-61323070D01*
X80054346Y-61338976D01*
X80067134Y-61356219D01*
X80078170Y-61374632D01*
X80087349Y-61394038D01*
X80094581Y-61414250D01*
X80099797Y-61435074D01*
X80102947Y-61456309D01*
X80104000Y-61477750D01*
X80104000Y-61915250D01*
X80102947Y-61936691D01*
X80099797Y-61957926D01*
X80094581Y-61978750D01*
X80087349Y-61998962D01*
X80078170Y-62018368D01*
X80067134Y-62036781D01*
X80054346Y-62054024D01*
X80039930Y-62069930D01*
X80024024Y-62084346D01*
X80006781Y-62097134D01*
X79988368Y-62108170D01*
X79968962Y-62117349D01*
X79948750Y-62124581D01*
X79927926Y-62129797D01*
X79906691Y-62132947D01*
X79885250Y-62134000D01*
X79372750Y-62134000D01*
X79351309Y-62132947D01*
X79330074Y-62129797D01*
X79309250Y-62124581D01*
X79289038Y-62117349D01*
X79269632Y-62108170D01*
X79251219Y-62097134D01*
X79233976Y-62084346D01*
X79218070Y-62069930D01*
X79203654Y-62054024D01*
X79190866Y-62036781D01*
X79179830Y-62018368D01*
X79170651Y-61998962D01*
X79163419Y-61978750D01*
X79158203Y-61957926D01*
X79155053Y-61936691D01*
X79154000Y-61915250D01*
X79154000Y-61477750D01*
X79155053Y-61456309D01*
X79158203Y-61435074D01*
X79163419Y-61414250D01*
X79170651Y-61394038D01*
X79179830Y-61374632D01*
X79190866Y-61356219D01*
X79203654Y-61338976D01*
X79218070Y-61323070D01*
X79233976Y-61308654D01*
X79251219Y-61295866D01*
X79269632Y-61284830D01*
X79289038Y-61275651D01*
X79309250Y-61268419D01*
X79330074Y-61263203D01*
X79351309Y-61260053D01*
X79372750Y-61259000D01*
X79885250Y-61259000D01*
X79906691Y-61260053D01*
G37*
G36*
X79906691Y-62835053D02*
G01*
X79927926Y-62838203D01*
X79948750Y-62843419D01*
X79968962Y-62850651D01*
X79988368Y-62859830D01*
X80006781Y-62870866D01*
X80024024Y-62883654D01*
X80039930Y-62898070D01*
X80054346Y-62913976D01*
X80067134Y-62931219D01*
X80078170Y-62949632D01*
X80087349Y-62969038D01*
X80094581Y-62989250D01*
X80099797Y-63010074D01*
X80102947Y-63031309D01*
X80104000Y-63052750D01*
X80104000Y-63490250D01*
X80102947Y-63511691D01*
X80099797Y-63532926D01*
X80094581Y-63553750D01*
X80087349Y-63573962D01*
X80078170Y-63593368D01*
X80067134Y-63611781D01*
X80054346Y-63629024D01*
X80039930Y-63644930D01*
X80024024Y-63659346D01*
X80006781Y-63672134D01*
X79988368Y-63683170D01*
X79968962Y-63692349D01*
X79948750Y-63699581D01*
X79927926Y-63704797D01*
X79906691Y-63707947D01*
X79885250Y-63709000D01*
X79372750Y-63709000D01*
X79351309Y-63707947D01*
X79330074Y-63704797D01*
X79309250Y-63699581D01*
X79289038Y-63692349D01*
X79269632Y-63683170D01*
X79251219Y-63672134D01*
X79233976Y-63659346D01*
X79218070Y-63644930D01*
X79203654Y-63629024D01*
X79190866Y-63611781D01*
X79179830Y-63593368D01*
X79170651Y-63573962D01*
X79163419Y-63553750D01*
X79158203Y-63532926D01*
X79155053Y-63511691D01*
X79154000Y-63490250D01*
X79154000Y-63052750D01*
X79155053Y-63031309D01*
X79158203Y-63010074D01*
X79163419Y-62989250D01*
X79170651Y-62969038D01*
X79179830Y-62949632D01*
X79190866Y-62931219D01*
X79203654Y-62913976D01*
X79218070Y-62898070D01*
X79233976Y-62883654D01*
X79251219Y-62870866D01*
X79269632Y-62859830D01*
X79289038Y-62850651D01*
X79309250Y-62843419D01*
X79330074Y-62838203D01*
X79351309Y-62835053D01*
X79372750Y-62834000D01*
X79885250Y-62834000D01*
X79906691Y-62835053D01*
G37*
G36*
X79906691Y-57475553D02*
G01*
X79927926Y-57478703D01*
X79948750Y-57483919D01*
X79968962Y-57491151D01*
X79988368Y-57500330D01*
X80006781Y-57511366D01*
X80024024Y-57524154D01*
X80039930Y-57538570D01*
X80054346Y-57554476D01*
X80067134Y-57571719D01*
X80078170Y-57590132D01*
X80087349Y-57609538D01*
X80094581Y-57629750D01*
X80099797Y-57650574D01*
X80102947Y-57671809D01*
X80104000Y-57693250D01*
X80104000Y-58130750D01*
X80102947Y-58152191D01*
X80099797Y-58173426D01*
X80094581Y-58194250D01*
X80087349Y-58214462D01*
X80078170Y-58233868D01*
X80067134Y-58252281D01*
X80054346Y-58269524D01*
X80039930Y-58285430D01*
X80024024Y-58299846D01*
X80006781Y-58312634D01*
X79988368Y-58323670D01*
X79968962Y-58332849D01*
X79948750Y-58340081D01*
X79927926Y-58345297D01*
X79906691Y-58348447D01*
X79885250Y-58349500D01*
X79372750Y-58349500D01*
X79351309Y-58348447D01*
X79330074Y-58345297D01*
X79309250Y-58340081D01*
X79289038Y-58332849D01*
X79269632Y-58323670D01*
X79251219Y-58312634D01*
X79233976Y-58299846D01*
X79218070Y-58285430D01*
X79203654Y-58269524D01*
X79190866Y-58252281D01*
X79179830Y-58233868D01*
X79170651Y-58214462D01*
X79163419Y-58194250D01*
X79158203Y-58173426D01*
X79155053Y-58152191D01*
X79154000Y-58130750D01*
X79154000Y-57693250D01*
X79155053Y-57671809D01*
X79158203Y-57650574D01*
X79163419Y-57629750D01*
X79170651Y-57609538D01*
X79179830Y-57590132D01*
X79190866Y-57571719D01*
X79203654Y-57554476D01*
X79218070Y-57538570D01*
X79233976Y-57524154D01*
X79251219Y-57511366D01*
X79269632Y-57500330D01*
X79289038Y-57491151D01*
X79309250Y-57483919D01*
X79330074Y-57478703D01*
X79351309Y-57475553D01*
X79372750Y-57474500D01*
X79885250Y-57474500D01*
X79906691Y-57475553D01*
G37*
G36*
X79906691Y-59050553D02*
G01*
X79927926Y-59053703D01*
X79948750Y-59058919D01*
X79968962Y-59066151D01*
X79988368Y-59075330D01*
X80006781Y-59086366D01*
X80024024Y-59099154D01*
X80039930Y-59113570D01*
X80054346Y-59129476D01*
X80067134Y-59146719D01*
X80078170Y-59165132D01*
X80087349Y-59184538D01*
X80094581Y-59204750D01*
X80099797Y-59225574D01*
X80102947Y-59246809D01*
X80104000Y-59268250D01*
X80104000Y-59705750D01*
X80102947Y-59727191D01*
X80099797Y-59748426D01*
X80094581Y-59769250D01*
X80087349Y-59789462D01*
X80078170Y-59808868D01*
X80067134Y-59827281D01*
X80054346Y-59844524D01*
X80039930Y-59860430D01*
X80024024Y-59874846D01*
X80006781Y-59887634D01*
X79988368Y-59898670D01*
X79968962Y-59907849D01*
X79948750Y-59915081D01*
X79927926Y-59920297D01*
X79906691Y-59923447D01*
X79885250Y-59924500D01*
X79372750Y-59924500D01*
X79351309Y-59923447D01*
X79330074Y-59920297D01*
X79309250Y-59915081D01*
X79289038Y-59907849D01*
X79269632Y-59898670D01*
X79251219Y-59887634D01*
X79233976Y-59874846D01*
X79218070Y-59860430D01*
X79203654Y-59844524D01*
X79190866Y-59827281D01*
X79179830Y-59808868D01*
X79170651Y-59789462D01*
X79163419Y-59769250D01*
X79158203Y-59748426D01*
X79155053Y-59727191D01*
X79154000Y-59705750D01*
X79154000Y-59268250D01*
X79155053Y-59246809D01*
X79158203Y-59225574D01*
X79163419Y-59204750D01*
X79170651Y-59184538D01*
X79179830Y-59165132D01*
X79190866Y-59146719D01*
X79203654Y-59129476D01*
X79218070Y-59113570D01*
X79233976Y-59099154D01*
X79251219Y-59086366D01*
X79269632Y-59075330D01*
X79289038Y-59066151D01*
X79309250Y-59058919D01*
X79330074Y-59053703D01*
X79351309Y-59050553D01*
X79372750Y-59049500D01*
X79885250Y-59049500D01*
X79906691Y-59050553D01*
G37*
G36*
X81520191Y-65566053D02*
G01*
X81541426Y-65569203D01*
X81562250Y-65574419D01*
X81582462Y-65581651D01*
X81601868Y-65590830D01*
X81620281Y-65601866D01*
X81637524Y-65614654D01*
X81653430Y-65629070D01*
X81667846Y-65644976D01*
X81680634Y-65662219D01*
X81691670Y-65680632D01*
X81700849Y-65700038D01*
X81708081Y-65720250D01*
X81713297Y-65741074D01*
X81716447Y-65762309D01*
X81717500Y-65783750D01*
X81717500Y-66296250D01*
X81716447Y-66317691D01*
X81713297Y-66338926D01*
X81708081Y-66359750D01*
X81700849Y-66379962D01*
X81691670Y-66399368D01*
X81680634Y-66417781D01*
X81667846Y-66435024D01*
X81653430Y-66450930D01*
X81637524Y-66465346D01*
X81620281Y-66478134D01*
X81601868Y-66489170D01*
X81582462Y-66498349D01*
X81562250Y-66505581D01*
X81541426Y-66510797D01*
X81520191Y-66513947D01*
X81498750Y-66515000D01*
X81061250Y-66515000D01*
X81039809Y-66513947D01*
X81018574Y-66510797D01*
X80997750Y-66505581D01*
X80977538Y-66498349D01*
X80958132Y-66489170D01*
X80939719Y-66478134D01*
X80922476Y-66465346D01*
X80906570Y-66450930D01*
X80892154Y-66435024D01*
X80879366Y-66417781D01*
X80868330Y-66399368D01*
X80859151Y-66379962D01*
X80851919Y-66359750D01*
X80846703Y-66338926D01*
X80843553Y-66317691D01*
X80842500Y-66296250D01*
X80842500Y-65783750D01*
X80843553Y-65762309D01*
X80846703Y-65741074D01*
X80851919Y-65720250D01*
X80859151Y-65700038D01*
X80868330Y-65680632D01*
X80879366Y-65662219D01*
X80892154Y-65644976D01*
X80906570Y-65629070D01*
X80922476Y-65614654D01*
X80939719Y-65601866D01*
X80958132Y-65590830D01*
X80977538Y-65581651D01*
X80997750Y-65574419D01*
X81018574Y-65569203D01*
X81039809Y-65566053D01*
X81061250Y-65565000D01*
X81498750Y-65565000D01*
X81520191Y-65566053D01*
G37*
G36*
X79945191Y-65566053D02*
G01*
X79966426Y-65569203D01*
X79987250Y-65574419D01*
X80007462Y-65581651D01*
X80026868Y-65590830D01*
X80045281Y-65601866D01*
X80062524Y-65614654D01*
X80078430Y-65629070D01*
X80092846Y-65644976D01*
X80105634Y-65662219D01*
X80116670Y-65680632D01*
X80125849Y-65700038D01*
X80133081Y-65720250D01*
X80138297Y-65741074D01*
X80141447Y-65762309D01*
X80142500Y-65783750D01*
X80142500Y-66296250D01*
X80141447Y-66317691D01*
X80138297Y-66338926D01*
X80133081Y-66359750D01*
X80125849Y-66379962D01*
X80116670Y-66399368D01*
X80105634Y-66417781D01*
X80092846Y-66435024D01*
X80078430Y-66450930D01*
X80062524Y-66465346D01*
X80045281Y-66478134D01*
X80026868Y-66489170D01*
X80007462Y-66498349D01*
X79987250Y-66505581D01*
X79966426Y-66510797D01*
X79945191Y-66513947D01*
X79923750Y-66515000D01*
X79486250Y-66515000D01*
X79464809Y-66513947D01*
X79443574Y-66510797D01*
X79422750Y-66505581D01*
X79402538Y-66498349D01*
X79383132Y-66489170D01*
X79364719Y-66478134D01*
X79347476Y-66465346D01*
X79331570Y-66450930D01*
X79317154Y-66435024D01*
X79304366Y-66417781D01*
X79293330Y-66399368D01*
X79284151Y-66379962D01*
X79276919Y-66359750D01*
X79271703Y-66338926D01*
X79268553Y-66317691D01*
X79267500Y-66296250D01*
X79267500Y-65783750D01*
X79268553Y-65762309D01*
X79271703Y-65741074D01*
X79276919Y-65720250D01*
X79284151Y-65700038D01*
X79293330Y-65680632D01*
X79304366Y-65662219D01*
X79317154Y-65644976D01*
X79331570Y-65629070D01*
X79347476Y-65614654D01*
X79364719Y-65601866D01*
X79383132Y-65590830D01*
X79402538Y-65581651D01*
X79422750Y-65574419D01*
X79443574Y-65569203D01*
X79464809Y-65566053D01*
X79486250Y-65565000D01*
X79923750Y-65565000D01*
X79945191Y-65566053D01*
G37*
G36*
X86600191Y-65566053D02*
G01*
X86621426Y-65569203D01*
X86642250Y-65574419D01*
X86662462Y-65581651D01*
X86681868Y-65590830D01*
X86700281Y-65601866D01*
X86717524Y-65614654D01*
X86733430Y-65629070D01*
X86747846Y-65644976D01*
X86760634Y-65662219D01*
X86771670Y-65680632D01*
X86780849Y-65700038D01*
X86788081Y-65720250D01*
X86793297Y-65741074D01*
X86796447Y-65762309D01*
X86797500Y-65783750D01*
X86797500Y-66296250D01*
X86796447Y-66317691D01*
X86793297Y-66338926D01*
X86788081Y-66359750D01*
X86780849Y-66379962D01*
X86771670Y-66399368D01*
X86760634Y-66417781D01*
X86747846Y-66435024D01*
X86733430Y-66450930D01*
X86717524Y-66465346D01*
X86700281Y-66478134D01*
X86681868Y-66489170D01*
X86662462Y-66498349D01*
X86642250Y-66505581D01*
X86621426Y-66510797D01*
X86600191Y-66513947D01*
X86578750Y-66515000D01*
X86141250Y-66515000D01*
X86119809Y-66513947D01*
X86098574Y-66510797D01*
X86077750Y-66505581D01*
X86057538Y-66498349D01*
X86038132Y-66489170D01*
X86019719Y-66478134D01*
X86002476Y-66465346D01*
X85986570Y-66450930D01*
X85972154Y-66435024D01*
X85959366Y-66417781D01*
X85948330Y-66399368D01*
X85939151Y-66379962D01*
X85931919Y-66359750D01*
X85926703Y-66338926D01*
X85923553Y-66317691D01*
X85922500Y-66296250D01*
X85922500Y-65783750D01*
X85923553Y-65762309D01*
X85926703Y-65741074D01*
X85931919Y-65720250D01*
X85939151Y-65700038D01*
X85948330Y-65680632D01*
X85959366Y-65662219D01*
X85972154Y-65644976D01*
X85986570Y-65629070D01*
X86002476Y-65614654D01*
X86019719Y-65601866D01*
X86038132Y-65590830D01*
X86057538Y-65581651D01*
X86077750Y-65574419D01*
X86098574Y-65569203D01*
X86119809Y-65566053D01*
X86141250Y-65565000D01*
X86578750Y-65565000D01*
X86600191Y-65566053D01*
G37*
G36*
X85025191Y-65566053D02*
G01*
X85046426Y-65569203D01*
X85067250Y-65574419D01*
X85087462Y-65581651D01*
X85106868Y-65590830D01*
X85125281Y-65601866D01*
X85142524Y-65614654D01*
X85158430Y-65629070D01*
X85172846Y-65644976D01*
X85185634Y-65662219D01*
X85196670Y-65680632D01*
X85205849Y-65700038D01*
X85213081Y-65720250D01*
X85218297Y-65741074D01*
X85221447Y-65762309D01*
X85222500Y-65783750D01*
X85222500Y-66296250D01*
X85221447Y-66317691D01*
X85218297Y-66338926D01*
X85213081Y-66359750D01*
X85205849Y-66379962D01*
X85196670Y-66399368D01*
X85185634Y-66417781D01*
X85172846Y-66435024D01*
X85158430Y-66450930D01*
X85142524Y-66465346D01*
X85125281Y-66478134D01*
X85106868Y-66489170D01*
X85087462Y-66498349D01*
X85067250Y-66505581D01*
X85046426Y-66510797D01*
X85025191Y-66513947D01*
X85003750Y-66515000D01*
X84566250Y-66515000D01*
X84544809Y-66513947D01*
X84523574Y-66510797D01*
X84502750Y-66505581D01*
X84482538Y-66498349D01*
X84463132Y-66489170D01*
X84444719Y-66478134D01*
X84427476Y-66465346D01*
X84411570Y-66450930D01*
X84397154Y-66435024D01*
X84384366Y-66417781D01*
X84373330Y-66399368D01*
X84364151Y-66379962D01*
X84356919Y-66359750D01*
X84351703Y-66338926D01*
X84348553Y-66317691D01*
X84347500Y-66296250D01*
X84347500Y-65783750D01*
X84348553Y-65762309D01*
X84351703Y-65741074D01*
X84356919Y-65720250D01*
X84364151Y-65700038D01*
X84373330Y-65680632D01*
X84384366Y-65662219D01*
X84397154Y-65644976D01*
X84411570Y-65629070D01*
X84427476Y-65614654D01*
X84444719Y-65601866D01*
X84463132Y-65590830D01*
X84482538Y-65581651D01*
X84502750Y-65574419D01*
X84523574Y-65569203D01*
X84544809Y-65566053D01*
X84566250Y-65565000D01*
X85003750Y-65565000D01*
X85025191Y-65566053D01*
G37*
G36*
X91680191Y-65566053D02*
G01*
X91701426Y-65569203D01*
X91722250Y-65574419D01*
X91742462Y-65581651D01*
X91761868Y-65590830D01*
X91780281Y-65601866D01*
X91797524Y-65614654D01*
X91813430Y-65629070D01*
X91827846Y-65644976D01*
X91840634Y-65662219D01*
X91851670Y-65680632D01*
X91860849Y-65700038D01*
X91868081Y-65720250D01*
X91873297Y-65741074D01*
X91876447Y-65762309D01*
X91877500Y-65783750D01*
X91877500Y-66296250D01*
X91876447Y-66317691D01*
X91873297Y-66338926D01*
X91868081Y-66359750D01*
X91860849Y-66379962D01*
X91851670Y-66399368D01*
X91840634Y-66417781D01*
X91827846Y-66435024D01*
X91813430Y-66450930D01*
X91797524Y-66465346D01*
X91780281Y-66478134D01*
X91761868Y-66489170D01*
X91742462Y-66498349D01*
X91722250Y-66505581D01*
X91701426Y-66510797D01*
X91680191Y-66513947D01*
X91658750Y-66515000D01*
X91221250Y-66515000D01*
X91199809Y-66513947D01*
X91178574Y-66510797D01*
X91157750Y-66505581D01*
X91137538Y-66498349D01*
X91118132Y-66489170D01*
X91099719Y-66478134D01*
X91082476Y-66465346D01*
X91066570Y-66450930D01*
X91052154Y-66435024D01*
X91039366Y-66417781D01*
X91028330Y-66399368D01*
X91019151Y-66379962D01*
X91011919Y-66359750D01*
X91006703Y-66338926D01*
X91003553Y-66317691D01*
X91002500Y-66296250D01*
X91002500Y-65783750D01*
X91003553Y-65762309D01*
X91006703Y-65741074D01*
X91011919Y-65720250D01*
X91019151Y-65700038D01*
X91028330Y-65680632D01*
X91039366Y-65662219D01*
X91052154Y-65644976D01*
X91066570Y-65629070D01*
X91082476Y-65614654D01*
X91099719Y-65601866D01*
X91118132Y-65590830D01*
X91137538Y-65581651D01*
X91157750Y-65574419D01*
X91178574Y-65569203D01*
X91199809Y-65566053D01*
X91221250Y-65565000D01*
X91658750Y-65565000D01*
X91680191Y-65566053D01*
G37*
G36*
X90105191Y-65566053D02*
G01*
X90126426Y-65569203D01*
X90147250Y-65574419D01*
X90167462Y-65581651D01*
X90186868Y-65590830D01*
X90205281Y-65601866D01*
X90222524Y-65614654D01*
X90238430Y-65629070D01*
X90252846Y-65644976D01*
X90265634Y-65662219D01*
X90276670Y-65680632D01*
X90285849Y-65700038D01*
X90293081Y-65720250D01*
X90298297Y-65741074D01*
X90301447Y-65762309D01*
X90302500Y-65783750D01*
X90302500Y-66296250D01*
X90301447Y-66317691D01*
X90298297Y-66338926D01*
X90293081Y-66359750D01*
X90285849Y-66379962D01*
X90276670Y-66399368D01*
X90265634Y-66417781D01*
X90252846Y-66435024D01*
X90238430Y-66450930D01*
X90222524Y-66465346D01*
X90205281Y-66478134D01*
X90186868Y-66489170D01*
X90167462Y-66498349D01*
X90147250Y-66505581D01*
X90126426Y-66510797D01*
X90105191Y-66513947D01*
X90083750Y-66515000D01*
X89646250Y-66515000D01*
X89624809Y-66513947D01*
X89603574Y-66510797D01*
X89582750Y-66505581D01*
X89562538Y-66498349D01*
X89543132Y-66489170D01*
X89524719Y-66478134D01*
X89507476Y-66465346D01*
X89491570Y-66450930D01*
X89477154Y-66435024D01*
X89464366Y-66417781D01*
X89453330Y-66399368D01*
X89444151Y-66379962D01*
X89436919Y-66359750D01*
X89431703Y-66338926D01*
X89428553Y-66317691D01*
X89427500Y-66296250D01*
X89427500Y-65783750D01*
X89428553Y-65762309D01*
X89431703Y-65741074D01*
X89436919Y-65720250D01*
X89444151Y-65700038D01*
X89453330Y-65680632D01*
X89464366Y-65662219D01*
X89477154Y-65644976D01*
X89491570Y-65629070D01*
X89507476Y-65614654D01*
X89524719Y-65601866D01*
X89543132Y-65590830D01*
X89562538Y-65581651D01*
X89582750Y-65574419D01*
X89603574Y-65569203D01*
X89624809Y-65566053D01*
X89646250Y-65565000D01*
X90083750Y-65565000D01*
X90105191Y-65566053D01*
G37*
G36*
X96506191Y-65566053D02*
G01*
X96527426Y-65569203D01*
X96548250Y-65574419D01*
X96568462Y-65581651D01*
X96587868Y-65590830D01*
X96606281Y-65601866D01*
X96623524Y-65614654D01*
X96639430Y-65629070D01*
X96653846Y-65644976D01*
X96666634Y-65662219D01*
X96677670Y-65680632D01*
X96686849Y-65700038D01*
X96694081Y-65720250D01*
X96699297Y-65741074D01*
X96702447Y-65762309D01*
X96703500Y-65783750D01*
X96703500Y-66296250D01*
X96702447Y-66317691D01*
X96699297Y-66338926D01*
X96694081Y-66359750D01*
X96686849Y-66379962D01*
X96677670Y-66399368D01*
X96666634Y-66417781D01*
X96653846Y-66435024D01*
X96639430Y-66450930D01*
X96623524Y-66465346D01*
X96606281Y-66478134D01*
X96587868Y-66489170D01*
X96568462Y-66498349D01*
X96548250Y-66505581D01*
X96527426Y-66510797D01*
X96506191Y-66513947D01*
X96484750Y-66515000D01*
X96047250Y-66515000D01*
X96025809Y-66513947D01*
X96004574Y-66510797D01*
X95983750Y-66505581D01*
X95963538Y-66498349D01*
X95944132Y-66489170D01*
X95925719Y-66478134D01*
X95908476Y-66465346D01*
X95892570Y-66450930D01*
X95878154Y-66435024D01*
X95865366Y-66417781D01*
X95854330Y-66399368D01*
X95845151Y-66379962D01*
X95837919Y-66359750D01*
X95832703Y-66338926D01*
X95829553Y-66317691D01*
X95828500Y-66296250D01*
X95828500Y-65783750D01*
X95829553Y-65762309D01*
X95832703Y-65741074D01*
X95837919Y-65720250D01*
X95845151Y-65700038D01*
X95854330Y-65680632D01*
X95865366Y-65662219D01*
X95878154Y-65644976D01*
X95892570Y-65629070D01*
X95908476Y-65614654D01*
X95925719Y-65601866D01*
X95944132Y-65590830D01*
X95963538Y-65581651D01*
X95983750Y-65574419D01*
X96004574Y-65569203D01*
X96025809Y-65566053D01*
X96047250Y-65565000D01*
X96484750Y-65565000D01*
X96506191Y-65566053D01*
G37*
G36*
X94931191Y-65566053D02*
G01*
X94952426Y-65569203D01*
X94973250Y-65574419D01*
X94993462Y-65581651D01*
X95012868Y-65590830D01*
X95031281Y-65601866D01*
X95048524Y-65614654D01*
X95064430Y-65629070D01*
X95078846Y-65644976D01*
X95091634Y-65662219D01*
X95102670Y-65680632D01*
X95111849Y-65700038D01*
X95119081Y-65720250D01*
X95124297Y-65741074D01*
X95127447Y-65762309D01*
X95128500Y-65783750D01*
X95128500Y-66296250D01*
X95127447Y-66317691D01*
X95124297Y-66338926D01*
X95119081Y-66359750D01*
X95111849Y-66379962D01*
X95102670Y-66399368D01*
X95091634Y-66417781D01*
X95078846Y-66435024D01*
X95064430Y-66450930D01*
X95048524Y-66465346D01*
X95031281Y-66478134D01*
X95012868Y-66489170D01*
X94993462Y-66498349D01*
X94973250Y-66505581D01*
X94952426Y-66510797D01*
X94931191Y-66513947D01*
X94909750Y-66515000D01*
X94472250Y-66515000D01*
X94450809Y-66513947D01*
X94429574Y-66510797D01*
X94408750Y-66505581D01*
X94388538Y-66498349D01*
X94369132Y-66489170D01*
X94350719Y-66478134D01*
X94333476Y-66465346D01*
X94317570Y-66450930D01*
X94303154Y-66435024D01*
X94290366Y-66417781D01*
X94279330Y-66399368D01*
X94270151Y-66379962D01*
X94262919Y-66359750D01*
X94257703Y-66338926D01*
X94254553Y-66317691D01*
X94253500Y-66296250D01*
X94253500Y-65783750D01*
X94254553Y-65762309D01*
X94257703Y-65741074D01*
X94262919Y-65720250D01*
X94270151Y-65700038D01*
X94279330Y-65680632D01*
X94290366Y-65662219D01*
X94303154Y-65644976D01*
X94317570Y-65629070D01*
X94333476Y-65614654D01*
X94350719Y-65601866D01*
X94369132Y-65590830D01*
X94388538Y-65581651D01*
X94408750Y-65574419D01*
X94429574Y-65569203D01*
X94450809Y-65566053D01*
X94472250Y-65565000D01*
X94909750Y-65565000D01*
X94931191Y-65566053D01*
G37*
D14*
X80584000Y-70072000D03*
X79634000Y-68072000D03*
X81534000Y-68072000D03*
X85598000Y-70088000D03*
X84648000Y-68088000D03*
X86548000Y-68088000D03*
X90678000Y-70088000D03*
X89728000Y-68088000D03*
X91628000Y-68088000D03*
X95504000Y-70088000D03*
X94554000Y-68088000D03*
X96454000Y-68088000D03*
D10*
G36*
X80532504Y-51570204D02*
G01*
X80556773Y-51573804D01*
X80580571Y-51579765D01*
X80603671Y-51588030D01*
X80625849Y-51598520D01*
X80646893Y-51611133D01*
X80666598Y-51625747D01*
X80684777Y-51642223D01*
X80701253Y-51660402D01*
X80715867Y-51680107D01*
X80728480Y-51701151D01*
X80738970Y-51723329D01*
X80747235Y-51746429D01*
X80753196Y-51770227D01*
X80756796Y-51794496D01*
X80758000Y-51819000D01*
X80758000Y-52569000D01*
X80756796Y-52593504D01*
X80753196Y-52617773D01*
X80747235Y-52641571D01*
X80738970Y-52664671D01*
X80728480Y-52686849D01*
X80715867Y-52707893D01*
X80701253Y-52727598D01*
X80684777Y-52745777D01*
X80666598Y-52762253D01*
X80646893Y-52776867D01*
X80625849Y-52789480D01*
X80603671Y-52799970D01*
X80580571Y-52808235D01*
X80556773Y-52814196D01*
X80532504Y-52817796D01*
X80508000Y-52819000D01*
X79258000Y-52819000D01*
X79233496Y-52817796D01*
X79209227Y-52814196D01*
X79185429Y-52808235D01*
X79162329Y-52799970D01*
X79140151Y-52789480D01*
X79119107Y-52776867D01*
X79099402Y-52762253D01*
X79081223Y-52745777D01*
X79064747Y-52727598D01*
X79050133Y-52707893D01*
X79037520Y-52686849D01*
X79027030Y-52664671D01*
X79018765Y-52641571D01*
X79012804Y-52617773D01*
X79009204Y-52593504D01*
X79008000Y-52569000D01*
X79008000Y-51819000D01*
X79009204Y-51794496D01*
X79012804Y-51770227D01*
X79018765Y-51746429D01*
X79027030Y-51723329D01*
X79037520Y-51701151D01*
X79050133Y-51680107D01*
X79064747Y-51660402D01*
X79081223Y-51642223D01*
X79099402Y-51625747D01*
X79119107Y-51611133D01*
X79140151Y-51598520D01*
X79162329Y-51588030D01*
X79185429Y-51579765D01*
X79209227Y-51573804D01*
X79233496Y-51570204D01*
X79258000Y-51569000D01*
X80508000Y-51569000D01*
X80532504Y-51570204D01*
G37*
G36*
X80532504Y-54370204D02*
G01*
X80556773Y-54373804D01*
X80580571Y-54379765D01*
X80603671Y-54388030D01*
X80625849Y-54398520D01*
X80646893Y-54411133D01*
X80666598Y-54425747D01*
X80684777Y-54442223D01*
X80701253Y-54460402D01*
X80715867Y-54480107D01*
X80728480Y-54501151D01*
X80738970Y-54523329D01*
X80747235Y-54546429D01*
X80753196Y-54570227D01*
X80756796Y-54594496D01*
X80758000Y-54619000D01*
X80758000Y-55369000D01*
X80756796Y-55393504D01*
X80753196Y-55417773D01*
X80747235Y-55441571D01*
X80738970Y-55464671D01*
X80728480Y-55486849D01*
X80715867Y-55507893D01*
X80701253Y-55527598D01*
X80684777Y-55545777D01*
X80666598Y-55562253D01*
X80646893Y-55576867D01*
X80625849Y-55589480D01*
X80603671Y-55599970D01*
X80580571Y-55608235D01*
X80556773Y-55614196D01*
X80532504Y-55617796D01*
X80508000Y-55619000D01*
X79258000Y-55619000D01*
X79233496Y-55617796D01*
X79209227Y-55614196D01*
X79185429Y-55608235D01*
X79162329Y-55599970D01*
X79140151Y-55589480D01*
X79119107Y-55576867D01*
X79099402Y-55562253D01*
X79081223Y-55545777D01*
X79064747Y-55527598D01*
X79050133Y-55507893D01*
X79037520Y-55486849D01*
X79027030Y-55464671D01*
X79018765Y-55441571D01*
X79012804Y-55417773D01*
X79009204Y-55393504D01*
X79008000Y-55369000D01*
X79008000Y-54619000D01*
X79009204Y-54594496D01*
X79012804Y-54570227D01*
X79018765Y-54546429D01*
X79027030Y-54523329D01*
X79037520Y-54501151D01*
X79050133Y-54480107D01*
X79064747Y-54460402D01*
X79081223Y-54442223D01*
X79099402Y-54425747D01*
X79119107Y-54411133D01*
X79140151Y-54398520D01*
X79162329Y-54388030D01*
X79185429Y-54379765D01*
X79209227Y-54373804D01*
X79233496Y-54370204D01*
X79258000Y-54369000D01*
X80508000Y-54369000D01*
X80532504Y-54370204D01*
G37*
G36*
X82192691Y-61234553D02*
G01*
X82213926Y-61237703D01*
X82234750Y-61242919D01*
X82254962Y-61250151D01*
X82274368Y-61259330D01*
X82292781Y-61270366D01*
X82310024Y-61283154D01*
X82325930Y-61297570D01*
X82340346Y-61313476D01*
X82353134Y-61330719D01*
X82364170Y-61349132D01*
X82373349Y-61368538D01*
X82380581Y-61388750D01*
X82385797Y-61409574D01*
X82388947Y-61430809D01*
X82390000Y-61452250D01*
X82390000Y-61889750D01*
X82388947Y-61911191D01*
X82385797Y-61932426D01*
X82380581Y-61953250D01*
X82373349Y-61973462D01*
X82364170Y-61992868D01*
X82353134Y-62011281D01*
X82340346Y-62028524D01*
X82325930Y-62044430D01*
X82310024Y-62058846D01*
X82292781Y-62071634D01*
X82274368Y-62082670D01*
X82254962Y-62091849D01*
X82234750Y-62099081D01*
X82213926Y-62104297D01*
X82192691Y-62107447D01*
X82171250Y-62108500D01*
X81658750Y-62108500D01*
X81637309Y-62107447D01*
X81616074Y-62104297D01*
X81595250Y-62099081D01*
X81575038Y-62091849D01*
X81555632Y-62082670D01*
X81537219Y-62071634D01*
X81519976Y-62058846D01*
X81504070Y-62044430D01*
X81489654Y-62028524D01*
X81476866Y-62011281D01*
X81465830Y-61992868D01*
X81456651Y-61973462D01*
X81449419Y-61953250D01*
X81444203Y-61932426D01*
X81441053Y-61911191D01*
X81440000Y-61889750D01*
X81440000Y-61452250D01*
X81441053Y-61430809D01*
X81444203Y-61409574D01*
X81449419Y-61388750D01*
X81456651Y-61368538D01*
X81465830Y-61349132D01*
X81476866Y-61330719D01*
X81489654Y-61313476D01*
X81504070Y-61297570D01*
X81519976Y-61283154D01*
X81537219Y-61270366D01*
X81555632Y-61259330D01*
X81575038Y-61250151D01*
X81595250Y-61242919D01*
X81616074Y-61237703D01*
X81637309Y-61234553D01*
X81658750Y-61233500D01*
X82171250Y-61233500D01*
X82192691Y-61234553D01*
G37*
G36*
X82192691Y-62809553D02*
G01*
X82213926Y-62812703D01*
X82234750Y-62817919D01*
X82254962Y-62825151D01*
X82274368Y-62834330D01*
X82292781Y-62845366D01*
X82310024Y-62858154D01*
X82325930Y-62872570D01*
X82340346Y-62888476D01*
X82353134Y-62905719D01*
X82364170Y-62924132D01*
X82373349Y-62943538D01*
X82380581Y-62963750D01*
X82385797Y-62984574D01*
X82388947Y-63005809D01*
X82390000Y-63027250D01*
X82390000Y-63464750D01*
X82388947Y-63486191D01*
X82385797Y-63507426D01*
X82380581Y-63528250D01*
X82373349Y-63548462D01*
X82364170Y-63567868D01*
X82353134Y-63586281D01*
X82340346Y-63603524D01*
X82325930Y-63619430D01*
X82310024Y-63633846D01*
X82292781Y-63646634D01*
X82274368Y-63657670D01*
X82254962Y-63666849D01*
X82234750Y-63674081D01*
X82213926Y-63679297D01*
X82192691Y-63682447D01*
X82171250Y-63683500D01*
X81658750Y-63683500D01*
X81637309Y-63682447D01*
X81616074Y-63679297D01*
X81595250Y-63674081D01*
X81575038Y-63666849D01*
X81555632Y-63657670D01*
X81537219Y-63646634D01*
X81519976Y-63633846D01*
X81504070Y-63619430D01*
X81489654Y-63603524D01*
X81476866Y-63586281D01*
X81465830Y-63567868D01*
X81456651Y-63548462D01*
X81449419Y-63528250D01*
X81444203Y-63507426D01*
X81441053Y-63486191D01*
X81440000Y-63464750D01*
X81440000Y-63027250D01*
X81441053Y-63005809D01*
X81444203Y-62984574D01*
X81449419Y-62963750D01*
X81456651Y-62943538D01*
X81465830Y-62924132D01*
X81476866Y-62905719D01*
X81489654Y-62888476D01*
X81504070Y-62872570D01*
X81519976Y-62858154D01*
X81537219Y-62845366D01*
X81555632Y-62834330D01*
X81575038Y-62825151D01*
X81595250Y-62817919D01*
X81616074Y-62812703D01*
X81637309Y-62809553D01*
X81658750Y-62808500D01*
X82171250Y-62808500D01*
X82192691Y-62809553D01*
G37*
M02*
