G04 #@! TF.GenerationSoftware,KiCad,Pcbnew,(5.1.5)-3*
G04 #@! TF.CreationDate,2020-03-19T01:35:53+01:00*
G04 #@! TF.ProjectId,ESP8266_RGBA_Receiver,45535038-3236-4365-9f52-4742415f5265,rev?*
G04 #@! TF.SameCoordinates,Original*
G04 #@! TF.FileFunction,Legend,Top*
G04 #@! TF.FilePolarity,Positive*
%FSLAX46Y46*%
G04 Gerber Fmt 4.6, Leading zero omitted, Abs format (unit mm)*
G04 Created by KiCad (PCBNEW (5.1.5)-3) date 2020-03-19 01:35:53*
%MOMM*%
%LPD*%
G04 APERTURE LIST*
%ADD10C,0.150000*%
%ADD11C,0.120000*%
%ADD12C,0.075000*%
G04 APERTURE END LIST*
D10*
X85509285Y-51901285D02*
X85259285Y-51544142D01*
X85080714Y-51901285D02*
X85080714Y-51151285D01*
X85366428Y-51151285D01*
X85437857Y-51187000D01*
X85473571Y-51222714D01*
X85509285Y-51294142D01*
X85509285Y-51401285D01*
X85473571Y-51472714D01*
X85437857Y-51508428D01*
X85366428Y-51544142D01*
X85080714Y-51544142D01*
X86223571Y-51187000D02*
X86152142Y-51151285D01*
X86045000Y-51151285D01*
X85937857Y-51187000D01*
X85866428Y-51258428D01*
X85830714Y-51329857D01*
X85795000Y-51472714D01*
X85795000Y-51579857D01*
X85830714Y-51722714D01*
X85866428Y-51794142D01*
X85937857Y-51865571D01*
X86045000Y-51901285D01*
X86116428Y-51901285D01*
X86223571Y-51865571D01*
X86259285Y-51829857D01*
X86259285Y-51579857D01*
X86116428Y-51579857D01*
X86830714Y-51508428D02*
X86937857Y-51544142D01*
X86973571Y-51579857D01*
X87009285Y-51651285D01*
X87009285Y-51758428D01*
X86973571Y-51829857D01*
X86937857Y-51865571D01*
X86866428Y-51901285D01*
X86580714Y-51901285D01*
X86580714Y-51151285D01*
X86830714Y-51151285D01*
X86902142Y-51187000D01*
X86937857Y-51222714D01*
X86973571Y-51294142D01*
X86973571Y-51365571D01*
X86937857Y-51437000D01*
X86902142Y-51472714D01*
X86830714Y-51508428D01*
X86580714Y-51508428D01*
X87259285Y-51151285D02*
X87437857Y-51901285D01*
X87580714Y-51365571D01*
X87723571Y-51901285D01*
X87902142Y-51151285D01*
X88616428Y-51829857D02*
X88580714Y-51865571D01*
X88473571Y-51901285D01*
X88402142Y-51901285D01*
X88295000Y-51865571D01*
X88223571Y-51794142D01*
X88187857Y-51722714D01*
X88152142Y-51579857D01*
X88152142Y-51472714D01*
X88187857Y-51329857D01*
X88223571Y-51258428D01*
X88295000Y-51187000D01*
X88402142Y-51151285D01*
X88473571Y-51151285D01*
X88580714Y-51187000D01*
X88616428Y-51222714D01*
X89045000Y-51901285D02*
X88973571Y-51865571D01*
X88937857Y-51829857D01*
X88902142Y-51758428D01*
X88902142Y-51544142D01*
X88937857Y-51472714D01*
X88973571Y-51437000D01*
X89045000Y-51401285D01*
X89152142Y-51401285D01*
X89223571Y-51437000D01*
X89259285Y-51472714D01*
X89295000Y-51544142D01*
X89295000Y-51758428D01*
X89259285Y-51829857D01*
X89223571Y-51865571D01*
X89152142Y-51901285D01*
X89045000Y-51901285D01*
X89616428Y-51401285D02*
X89616428Y-51901285D01*
X89616428Y-51472714D02*
X89652142Y-51437000D01*
X89723571Y-51401285D01*
X89830714Y-51401285D01*
X89902142Y-51437000D01*
X89937857Y-51508428D01*
X89937857Y-51901285D01*
X90187857Y-51401285D02*
X90473571Y-51401285D01*
X90295000Y-51151285D02*
X90295000Y-51794142D01*
X90330714Y-51865571D01*
X90402142Y-51901285D01*
X90473571Y-51901285D01*
X90723571Y-51901285D02*
X90723571Y-51401285D01*
X90723571Y-51544142D02*
X90759285Y-51472714D01*
X90795000Y-51437000D01*
X90866428Y-51401285D01*
X90937857Y-51401285D01*
X91295000Y-51901285D02*
X91223571Y-51865571D01*
X91187857Y-51829857D01*
X91152142Y-51758428D01*
X91152142Y-51544142D01*
X91187857Y-51472714D01*
X91223571Y-51437000D01*
X91295000Y-51401285D01*
X91402142Y-51401285D01*
X91473571Y-51437000D01*
X91509285Y-51472714D01*
X91545000Y-51544142D01*
X91545000Y-51758428D01*
X91509285Y-51829857D01*
X91473571Y-51865571D01*
X91402142Y-51901285D01*
X91295000Y-51901285D01*
X91973571Y-51901285D02*
X91902142Y-51865571D01*
X91866428Y-51794142D01*
X91866428Y-51151285D01*
X92366428Y-51901285D02*
X92295000Y-51865571D01*
X92259285Y-51794142D01*
X92259285Y-51151285D01*
X92937857Y-51865571D02*
X92866428Y-51901285D01*
X92723571Y-51901285D01*
X92652142Y-51865571D01*
X92616428Y-51794142D01*
X92616428Y-51508428D01*
X92652142Y-51437000D01*
X92723571Y-51401285D01*
X92866428Y-51401285D01*
X92937857Y-51437000D01*
X92973571Y-51508428D01*
X92973571Y-51579857D01*
X92616428Y-51651285D01*
X93295000Y-51901285D02*
X93295000Y-51401285D01*
X93295000Y-51544142D02*
X93330714Y-51472714D01*
X93366428Y-51437000D01*
X93437857Y-51401285D01*
X93509285Y-51401285D01*
X94259285Y-51401285D02*
X94437857Y-51901285D01*
X94616428Y-51401285D01*
X94866428Y-51222714D02*
X94902142Y-51187000D01*
X94973571Y-51151285D01*
X95152142Y-51151285D01*
X95223571Y-51187000D01*
X95259285Y-51222714D01*
X95294999Y-51294142D01*
X95294999Y-51365571D01*
X95259285Y-51472714D01*
X94830714Y-51901285D01*
X95294999Y-51901285D01*
D11*
X81405000Y-58536721D02*
X81405000Y-58862279D01*
X82425000Y-58536721D02*
X82425000Y-58862279D01*
X84825000Y-57042000D02*
X90835000Y-57042000D01*
X87075000Y-63862000D02*
X90835000Y-63862000D01*
X90835000Y-57042000D02*
X90835000Y-58302000D01*
X90835000Y-63862000D02*
X90835000Y-62602000D01*
X97526000Y-63965000D02*
X97526000Y-59565000D01*
X97526000Y-59565000D02*
X97406000Y-59565000D01*
X96396000Y-59565000D02*
X95256000Y-59565000D01*
X94246000Y-59565000D02*
X94126000Y-59565000D01*
X94126000Y-59565000D02*
X94126000Y-63965000D01*
X94126000Y-63965000D02*
X94246000Y-63965000D01*
X95256000Y-63965000D02*
X96396000Y-63965000D01*
X97406000Y-63965000D02*
X97526000Y-63965000D01*
X96022279Y-57275000D02*
X95696721Y-57275000D01*
X96022279Y-58295000D02*
X95696721Y-58295000D01*
X82996721Y-55755000D02*
X83322279Y-55755000D01*
X82996721Y-54735000D02*
X83322279Y-54735000D01*
X80139000Y-62646779D02*
X80139000Y-62321221D01*
X79119000Y-62646779D02*
X79119000Y-62321221D01*
X80139000Y-58862279D02*
X80139000Y-58536721D01*
X79119000Y-58862279D02*
X79119000Y-58536721D01*
X80329721Y-66550000D02*
X80655279Y-66550000D01*
X80329721Y-65530000D02*
X80655279Y-65530000D01*
X85409721Y-66550000D02*
X85735279Y-66550000D01*
X85409721Y-65530000D02*
X85735279Y-65530000D01*
X90489721Y-66550000D02*
X90815279Y-66550000D01*
X90489721Y-65530000D02*
X90815279Y-65530000D01*
X95315721Y-66550000D02*
X95641279Y-66550000D01*
X95315721Y-65530000D02*
X95641279Y-65530000D01*
X79004000Y-69832000D02*
X79004000Y-68372000D01*
X82164000Y-69832000D02*
X82164000Y-67672000D01*
X82164000Y-69832000D02*
X81234000Y-69832000D01*
X79004000Y-69832000D02*
X79934000Y-69832000D01*
X84018000Y-69848000D02*
X84018000Y-68388000D01*
X87178000Y-69848000D02*
X87178000Y-67688000D01*
X87178000Y-69848000D02*
X86248000Y-69848000D01*
X84018000Y-69848000D02*
X84948000Y-69848000D01*
X89098000Y-69848000D02*
X89098000Y-68388000D01*
X92258000Y-69848000D02*
X92258000Y-67688000D01*
X92258000Y-69848000D02*
X91328000Y-69848000D01*
X89098000Y-69848000D02*
X90028000Y-69848000D01*
X93924000Y-69848000D02*
X93924000Y-68388000D01*
X97084000Y-69848000D02*
X97084000Y-67688000D01*
X97084000Y-69848000D02*
X96154000Y-69848000D01*
X93924000Y-69848000D02*
X94854000Y-69848000D01*
D10*
X97028000Y-56134000D02*
X89408000Y-56134000D01*
X89408000Y-56134000D02*
X89408000Y-54864000D01*
X89408000Y-54864000D02*
X97028000Y-54864000D01*
X97028000Y-54864000D02*
X97028000Y-56134000D01*
X90581815Y-55499000D02*
G75*
G03X90581815Y-55499000I-538815J0D01*
G01*
X90678000Y-56007000D02*
X89535000Y-56007000D01*
X89535000Y-56007000D02*
X89535000Y-54991000D01*
X89535000Y-54991000D02*
X90678000Y-54991000D01*
X90678000Y-54991000D02*
X90678000Y-56007000D01*
X90551000Y-56007000D02*
X90551000Y-54991000D01*
D11*
X80793000Y-54196064D02*
X80793000Y-52991936D01*
X78973000Y-54196064D02*
X78973000Y-52991936D01*
X82425000Y-62621279D02*
X82425000Y-62295721D01*
X81405000Y-62621279D02*
X81405000Y-62295721D01*
D10*
X78417800Y-72042257D02*
X78370180Y-72137495D01*
X78370180Y-72280352D01*
X78417800Y-72423209D01*
X78513038Y-72518447D01*
X78608276Y-72566066D01*
X78798752Y-72613685D01*
X78941609Y-72613685D01*
X79132085Y-72566066D01*
X79227323Y-72518447D01*
X79322561Y-72423209D01*
X79370180Y-72280352D01*
X79370180Y-72185114D01*
X79322561Y-72042257D01*
X79274942Y-71994638D01*
X78941609Y-71994638D01*
X78941609Y-72185114D01*
X78703514Y-71566066D02*
X79370180Y-71566066D01*
X78798752Y-71566066D02*
X78751133Y-71518447D01*
X78703514Y-71423209D01*
X78703514Y-71280352D01*
X78751133Y-71185114D01*
X78846371Y-71137495D01*
X79370180Y-71137495D01*
X79370180Y-70232733D02*
X78370180Y-70232733D01*
X79322561Y-70232733D02*
X79370180Y-70327971D01*
X79370180Y-70518447D01*
X79322561Y-70613685D01*
X79274942Y-70661304D01*
X79179704Y-70708923D01*
X78893990Y-70708923D01*
X78798752Y-70661304D01*
X78751133Y-70613685D01*
X78703514Y-70518447D01*
X78703514Y-70327971D01*
X78751133Y-70232733D01*
X81189580Y-71889809D02*
X82189580Y-71556476D01*
X81189580Y-71223142D01*
X82189580Y-70889809D02*
X81522914Y-70889809D01*
X81189580Y-70889809D02*
X81237200Y-70937428D01*
X81284819Y-70889809D01*
X81237200Y-70842190D01*
X81189580Y-70889809D01*
X81284819Y-70889809D01*
X81522914Y-70413619D02*
X82189580Y-70413619D01*
X81618152Y-70413619D02*
X81570533Y-70366000D01*
X81522914Y-70270761D01*
X81522914Y-70127904D01*
X81570533Y-70032666D01*
X81665771Y-69985047D01*
X82189580Y-69985047D01*
X83907380Y-71453333D02*
X84907380Y-71120000D01*
X83907380Y-70786666D01*
X86320380Y-71421571D02*
X87320380Y-71183476D01*
X86606095Y-70993000D01*
X87320380Y-70802523D01*
X86320380Y-70564428D01*
X89336571Y-70794571D02*
X89384190Y-70651714D01*
X89431809Y-70604095D01*
X89527047Y-70556476D01*
X89669904Y-70556476D01*
X89765142Y-70604095D01*
X89812761Y-70651714D01*
X89860380Y-70746952D01*
X89860380Y-71127904D01*
X88860380Y-71127904D01*
X88860380Y-70794571D01*
X88908000Y-70699333D01*
X88955619Y-70651714D01*
X89050857Y-70604095D01*
X89146095Y-70604095D01*
X89241333Y-70651714D01*
X89288952Y-70699333D01*
X89336571Y-70794571D01*
X89336571Y-71127904D01*
X91448000Y-70731095D02*
X91400380Y-70826333D01*
X91400380Y-70969190D01*
X91448000Y-71112047D01*
X91543238Y-71207285D01*
X91638476Y-71254904D01*
X91828952Y-71302523D01*
X91971809Y-71302523D01*
X92162285Y-71254904D01*
X92257523Y-71207285D01*
X92352761Y-71112047D01*
X92400380Y-70969190D01*
X92400380Y-70873952D01*
X92352761Y-70731095D01*
X92305142Y-70683476D01*
X91971809Y-70683476D01*
X91971809Y-70873952D01*
X94940380Y-70556476D02*
X94464190Y-70889809D01*
X94940380Y-71127904D02*
X93940380Y-71127904D01*
X93940380Y-70746952D01*
X93988000Y-70651714D01*
X94035619Y-70604095D01*
X94130857Y-70556476D01*
X94273714Y-70556476D01*
X94368952Y-70604095D01*
X94416571Y-70651714D01*
X94464190Y-70746952D01*
X94464190Y-71127904D01*
D12*
X83523571Y-58782833D02*
X83547380Y-58806642D01*
X83571190Y-58878071D01*
X83571190Y-58925690D01*
X83547380Y-58997119D01*
X83499761Y-59044738D01*
X83452142Y-59068547D01*
X83356904Y-59092357D01*
X83285476Y-59092357D01*
X83190238Y-59068547D01*
X83142619Y-59044738D01*
X83095000Y-58997119D01*
X83071190Y-58925690D01*
X83071190Y-58878071D01*
X83095000Y-58806642D01*
X83118809Y-58782833D01*
X83571190Y-58306642D02*
X83571190Y-58592357D01*
X83571190Y-58449500D02*
X83071190Y-58449500D01*
X83142619Y-58497119D01*
X83190238Y-58544738D01*
X83214047Y-58592357D01*
X87376047Y-55678190D02*
X87376047Y-56082952D01*
X87399857Y-56130571D01*
X87423666Y-56154380D01*
X87471285Y-56178190D01*
X87566523Y-56178190D01*
X87614142Y-56154380D01*
X87637952Y-56130571D01*
X87661761Y-56082952D01*
X87661761Y-55678190D01*
X88161761Y-56178190D02*
X87876047Y-56178190D01*
X88018904Y-56178190D02*
X88018904Y-55678190D01*
X87971285Y-55749619D01*
X87923666Y-55797238D01*
X87876047Y-55821047D01*
X93547380Y-62261666D02*
X93571190Y-62190238D01*
X93571190Y-62071190D01*
X93547380Y-62023571D01*
X93523571Y-61999761D01*
X93475952Y-61975952D01*
X93428333Y-61975952D01*
X93380714Y-61999761D01*
X93356904Y-62023571D01*
X93333095Y-62071190D01*
X93309285Y-62166428D01*
X93285476Y-62214047D01*
X93261666Y-62237857D01*
X93214047Y-62261666D01*
X93166428Y-62261666D01*
X93118809Y-62237857D01*
X93095000Y-62214047D01*
X93071190Y-62166428D01*
X93071190Y-62047380D01*
X93095000Y-61975952D01*
X93071190Y-61809285D02*
X93571190Y-61690238D01*
X93214047Y-61595000D01*
X93571190Y-61499761D01*
X93071190Y-61380714D01*
X93571190Y-60928333D02*
X93571190Y-61214047D01*
X93571190Y-61071190D02*
X93071190Y-61071190D01*
X93142619Y-61118809D01*
X93190238Y-61166428D01*
X93214047Y-61214047D01*
X93007666Y-58011190D02*
X92841000Y-57773095D01*
X92721952Y-58011190D02*
X92721952Y-57511190D01*
X92912428Y-57511190D01*
X92960047Y-57535000D01*
X92983857Y-57558809D01*
X93007666Y-57606428D01*
X93007666Y-57677857D01*
X92983857Y-57725476D01*
X92960047Y-57749285D01*
X92912428Y-57773095D01*
X92721952Y-57773095D01*
X93293380Y-57725476D02*
X93245761Y-57701666D01*
X93221952Y-57677857D01*
X93198142Y-57630238D01*
X93198142Y-57606428D01*
X93221952Y-57558809D01*
X93245761Y-57535000D01*
X93293380Y-57511190D01*
X93388619Y-57511190D01*
X93436238Y-57535000D01*
X93460047Y-57558809D01*
X93483857Y-57606428D01*
X93483857Y-57630238D01*
X93460047Y-57677857D01*
X93436238Y-57701666D01*
X93388619Y-57725476D01*
X93293380Y-57725476D01*
X93245761Y-57749285D01*
X93221952Y-57773095D01*
X93198142Y-57820714D01*
X93198142Y-57915952D01*
X93221952Y-57963571D01*
X93245761Y-57987380D01*
X93293380Y-58011190D01*
X93388619Y-58011190D01*
X93436238Y-57987380D01*
X93460047Y-57963571D01*
X93483857Y-57915952D01*
X93483857Y-57820714D01*
X93460047Y-57773095D01*
X93436238Y-57749285D01*
X93388619Y-57725476D01*
X83101666Y-53998190D02*
X82935000Y-53760095D01*
X82815952Y-53998190D02*
X82815952Y-53498190D01*
X83006428Y-53498190D01*
X83054047Y-53522000D01*
X83077857Y-53545809D01*
X83101666Y-53593428D01*
X83101666Y-53664857D01*
X83077857Y-53712476D01*
X83054047Y-53736285D01*
X83006428Y-53760095D01*
X82815952Y-53760095D01*
X83268333Y-53498190D02*
X83601666Y-53498190D01*
X83387380Y-53998190D01*
X78915390Y-62491133D02*
X78677295Y-62657800D01*
X78915390Y-62776847D02*
X78415390Y-62776847D01*
X78415390Y-62586371D01*
X78439200Y-62538752D01*
X78463009Y-62514942D01*
X78510628Y-62491133D01*
X78582057Y-62491133D01*
X78629676Y-62514942D01*
X78653485Y-62538752D01*
X78677295Y-62586371D01*
X78677295Y-62776847D01*
X78415390Y-62062561D02*
X78415390Y-62157800D01*
X78439200Y-62205419D01*
X78463009Y-62229228D01*
X78534438Y-62276847D01*
X78629676Y-62300657D01*
X78820152Y-62300657D01*
X78867771Y-62276847D01*
X78891580Y-62253038D01*
X78915390Y-62205419D01*
X78915390Y-62110180D01*
X78891580Y-62062561D01*
X78867771Y-62038752D01*
X78820152Y-62014942D01*
X78701104Y-62014942D01*
X78653485Y-62038752D01*
X78629676Y-62062561D01*
X78605866Y-62110180D01*
X78605866Y-62205419D01*
X78629676Y-62253038D01*
X78653485Y-62276847D01*
X78701104Y-62300657D01*
X78889990Y-58681133D02*
X78651895Y-58847800D01*
X78889990Y-58966847D02*
X78389990Y-58966847D01*
X78389990Y-58776371D01*
X78413800Y-58728752D01*
X78437609Y-58704942D01*
X78485228Y-58681133D01*
X78556657Y-58681133D01*
X78604276Y-58704942D01*
X78628085Y-58728752D01*
X78651895Y-58776371D01*
X78651895Y-58966847D01*
X78389990Y-58228752D02*
X78389990Y-58466847D01*
X78628085Y-58490657D01*
X78604276Y-58466847D01*
X78580466Y-58419228D01*
X78580466Y-58300180D01*
X78604276Y-58252561D01*
X78628085Y-58228752D01*
X78675704Y-58204942D01*
X78794752Y-58204942D01*
X78842371Y-58228752D01*
X78866180Y-58252561D01*
X78889990Y-58300180D01*
X78889990Y-58419228D01*
X78866180Y-58466847D01*
X78842371Y-58490657D01*
X80358466Y-65300990D02*
X80191800Y-65062895D01*
X80072752Y-65300990D02*
X80072752Y-64800990D01*
X80263228Y-64800990D01*
X80310847Y-64824800D01*
X80334657Y-64848609D01*
X80358466Y-64896228D01*
X80358466Y-64967657D01*
X80334657Y-65015276D01*
X80310847Y-65039085D01*
X80263228Y-65062895D01*
X80072752Y-65062895D01*
X80787038Y-64967657D02*
X80787038Y-65300990D01*
X80667990Y-64777180D02*
X80548942Y-65134323D01*
X80858466Y-65134323D01*
X83101666Y-65758190D02*
X82935000Y-65520095D01*
X82815952Y-65758190D02*
X82815952Y-65258190D01*
X83006428Y-65258190D01*
X83054047Y-65282000D01*
X83077857Y-65305809D01*
X83101666Y-65353428D01*
X83101666Y-65424857D01*
X83077857Y-65472476D01*
X83054047Y-65496285D01*
X83006428Y-65520095D01*
X82815952Y-65520095D01*
X83268333Y-65258190D02*
X83577857Y-65258190D01*
X83411190Y-65448666D01*
X83482619Y-65448666D01*
X83530238Y-65472476D01*
X83554047Y-65496285D01*
X83577857Y-65543904D01*
X83577857Y-65662952D01*
X83554047Y-65710571D01*
X83530238Y-65734380D01*
X83482619Y-65758190D01*
X83339761Y-65758190D01*
X83292142Y-65734380D01*
X83268333Y-65710571D01*
X88181666Y-65631190D02*
X88015000Y-65393095D01*
X87895952Y-65631190D02*
X87895952Y-65131190D01*
X88086428Y-65131190D01*
X88134047Y-65155000D01*
X88157857Y-65178809D01*
X88181666Y-65226428D01*
X88181666Y-65297857D01*
X88157857Y-65345476D01*
X88134047Y-65369285D01*
X88086428Y-65393095D01*
X87895952Y-65393095D01*
X88372142Y-65178809D02*
X88395952Y-65155000D01*
X88443571Y-65131190D01*
X88562619Y-65131190D01*
X88610238Y-65155000D01*
X88634047Y-65178809D01*
X88657857Y-65226428D01*
X88657857Y-65274047D01*
X88634047Y-65345476D01*
X88348333Y-65631190D01*
X88657857Y-65631190D01*
X93261666Y-65631190D02*
X93095000Y-65393095D01*
X92975952Y-65631190D02*
X92975952Y-65131190D01*
X93166428Y-65131190D01*
X93214047Y-65155000D01*
X93237857Y-65178809D01*
X93261666Y-65226428D01*
X93261666Y-65297857D01*
X93237857Y-65345476D01*
X93214047Y-65369285D01*
X93166428Y-65393095D01*
X92975952Y-65393095D01*
X93737857Y-65631190D02*
X93452142Y-65631190D01*
X93595000Y-65631190D02*
X93595000Y-65131190D01*
X93547380Y-65202619D01*
X93499761Y-65250238D01*
X93452142Y-65274047D01*
X78836009Y-67789419D02*
X78812200Y-67837038D01*
X78764580Y-67884657D01*
X78693152Y-67956085D01*
X78669342Y-68003704D01*
X78669342Y-68051323D01*
X78788390Y-68027514D02*
X78764580Y-68075133D01*
X78716961Y-68122752D01*
X78621723Y-68146561D01*
X78455057Y-68146561D01*
X78359819Y-68122752D01*
X78312200Y-68075133D01*
X78288390Y-68027514D01*
X78288390Y-67932276D01*
X78312200Y-67884657D01*
X78359819Y-67837038D01*
X78455057Y-67813228D01*
X78621723Y-67813228D01*
X78716961Y-67837038D01*
X78764580Y-67884657D01*
X78788390Y-67932276D01*
X78788390Y-68027514D01*
X78455057Y-67384657D02*
X78788390Y-67384657D01*
X78264580Y-67503704D02*
X78621723Y-67622752D01*
X78621723Y-67313228D01*
X83137380Y-67202809D02*
X83089761Y-67179000D01*
X83042142Y-67131380D01*
X82970714Y-67059952D01*
X82923095Y-67036142D01*
X82875476Y-67036142D01*
X82899285Y-67155190D02*
X82851666Y-67131380D01*
X82804047Y-67083761D01*
X82780238Y-66988523D01*
X82780238Y-66821857D01*
X82804047Y-66726619D01*
X82851666Y-66679000D01*
X82899285Y-66655190D01*
X82994523Y-66655190D01*
X83042142Y-66679000D01*
X83089761Y-66726619D01*
X83113571Y-66821857D01*
X83113571Y-66988523D01*
X83089761Y-67083761D01*
X83042142Y-67131380D01*
X82994523Y-67155190D01*
X82899285Y-67155190D01*
X83280238Y-66655190D02*
X83589761Y-66655190D01*
X83423095Y-66845666D01*
X83494523Y-66845666D01*
X83542142Y-66869476D01*
X83565952Y-66893285D01*
X83589761Y-66940904D01*
X83589761Y-67059952D01*
X83565952Y-67107571D01*
X83542142Y-67131380D01*
X83494523Y-67155190D01*
X83351666Y-67155190D01*
X83304047Y-67131380D01*
X83280238Y-67107571D01*
X88217380Y-67075809D02*
X88169761Y-67052000D01*
X88122142Y-67004380D01*
X88050714Y-66932952D01*
X88003095Y-66909142D01*
X87955476Y-66909142D01*
X87979285Y-67028190D02*
X87931666Y-67004380D01*
X87884047Y-66956761D01*
X87860238Y-66861523D01*
X87860238Y-66694857D01*
X87884047Y-66599619D01*
X87931666Y-66552000D01*
X87979285Y-66528190D01*
X88074523Y-66528190D01*
X88122142Y-66552000D01*
X88169761Y-66599619D01*
X88193571Y-66694857D01*
X88193571Y-66861523D01*
X88169761Y-66956761D01*
X88122142Y-67004380D01*
X88074523Y-67028190D01*
X87979285Y-67028190D01*
X88384047Y-66575809D02*
X88407857Y-66552000D01*
X88455476Y-66528190D01*
X88574523Y-66528190D01*
X88622142Y-66552000D01*
X88645952Y-66575809D01*
X88669761Y-66623428D01*
X88669761Y-66671047D01*
X88645952Y-66742476D01*
X88360238Y-67028190D01*
X88669761Y-67028190D01*
X93297380Y-67075809D02*
X93249761Y-67052000D01*
X93202142Y-67004380D01*
X93130714Y-66932952D01*
X93083095Y-66909142D01*
X93035476Y-66909142D01*
X93059285Y-67028190D02*
X93011666Y-67004380D01*
X92964047Y-66956761D01*
X92940238Y-66861523D01*
X92940238Y-66694857D01*
X92964047Y-66599619D01*
X93011666Y-66552000D01*
X93059285Y-66528190D01*
X93154523Y-66528190D01*
X93202142Y-66552000D01*
X93249761Y-66599619D01*
X93273571Y-66694857D01*
X93273571Y-66861523D01*
X93249761Y-66956761D01*
X93202142Y-67004380D01*
X93154523Y-67028190D01*
X93059285Y-67028190D01*
X93749761Y-67028190D02*
X93464047Y-67028190D01*
X93606904Y-67028190D02*
X93606904Y-66528190D01*
X93559285Y-66599619D01*
X93511666Y-66647238D01*
X93464047Y-66671047D01*
D10*
X89541809Y-54451380D02*
X89541809Y-53451380D01*
X89970380Y-54403761D02*
X90113238Y-54451380D01*
X90351333Y-54451380D01*
X90446571Y-54403761D01*
X90494190Y-54356142D01*
X90541809Y-54260904D01*
X90541809Y-54165666D01*
X90494190Y-54070428D01*
X90446571Y-54022809D01*
X90351333Y-53975190D01*
X90160857Y-53927571D01*
X90065619Y-53879952D01*
X90018000Y-53832333D01*
X89970380Y-53737095D01*
X89970380Y-53641857D01*
X90018000Y-53546619D01*
X90065619Y-53499000D01*
X90160857Y-53451380D01*
X90398952Y-53451380D01*
X90541809Y-53499000D01*
X90970380Y-54451380D02*
X90970380Y-53451380D01*
X91351333Y-53451380D01*
X91446571Y-53499000D01*
X91494190Y-53546619D01*
X91541809Y-53641857D01*
X91541809Y-53784714D01*
X91494190Y-53879952D01*
X91446571Y-53927571D01*
X91351333Y-53975190D01*
X90970380Y-53975190D01*
D12*
X79799666Y-50851571D02*
X79775857Y-50875380D01*
X79704428Y-50899190D01*
X79656809Y-50899190D01*
X79585380Y-50875380D01*
X79537761Y-50827761D01*
X79513952Y-50780142D01*
X79490142Y-50684904D01*
X79490142Y-50613476D01*
X79513952Y-50518238D01*
X79537761Y-50470619D01*
X79585380Y-50423000D01*
X79656809Y-50399190D01*
X79704428Y-50399190D01*
X79775857Y-50423000D01*
X79799666Y-50446809D01*
X79966333Y-50399190D02*
X80275857Y-50399190D01*
X80109190Y-50589666D01*
X80180619Y-50589666D01*
X80228238Y-50613476D01*
X80252047Y-50637285D01*
X80275857Y-50684904D01*
X80275857Y-50803952D01*
X80252047Y-50851571D01*
X80228238Y-50875380D01*
X80180619Y-50899190D01*
X80037761Y-50899190D01*
X79990142Y-50875380D01*
X79966333Y-50851571D01*
X83617571Y-62541833D02*
X83641380Y-62565642D01*
X83665190Y-62637071D01*
X83665190Y-62684690D01*
X83641380Y-62756119D01*
X83593761Y-62803738D01*
X83546142Y-62827547D01*
X83450904Y-62851357D01*
X83379476Y-62851357D01*
X83284238Y-62827547D01*
X83236619Y-62803738D01*
X83189000Y-62756119D01*
X83165190Y-62684690D01*
X83165190Y-62637071D01*
X83189000Y-62565642D01*
X83212809Y-62541833D01*
X83212809Y-62351357D02*
X83189000Y-62327547D01*
X83165190Y-62279928D01*
X83165190Y-62160880D01*
X83189000Y-62113261D01*
X83212809Y-62089452D01*
X83260428Y-62065642D01*
X83308047Y-62065642D01*
X83379476Y-62089452D01*
X83665190Y-62375166D01*
X83665190Y-62065642D01*
M02*
