M48
; DRILL file {KiCad (5.1.5)-3} date 12/11/2020 13:33:40
; FORMAT={-:-/ absolute / inch / decimal}
; #@! TF.CreationDate,2020-11-12T13:33:40+01:00
; #@! TF.GenerationSoftware,Kicad,Pcbnew,(5.1.5)-3
FMAT,2
INCH
T1C0.0118
T2C0.0157
T3C0.0906
%
G90
G05
T1
X3.545Y-2.185
X3.795Y-2.185
T2
X3.145Y-2.225
X3.1614Y-2.7126
X3.18Y-2.39
X3.21Y-2.125
X3.24Y-2.555
X3.29Y-2.31
X3.305Y-2.13
X3.3504Y-2.563
X3.3976Y-2.1575
X3.3976Y-2.8307
X3.3976Y-2.9291
X3.3976Y-3.0118
X3.4331Y-2.563
X3.4331Y-2.7323
X3.4528Y-2.3268
X3.48Y-2.125
X3.5079Y-2.563
X3.5709Y-2.4961
X3.5906Y-2.7323
X3.6772Y-2.4961
X3.6929Y-2.3071
X3.74Y-2.1335
X3.748Y-2.7323
X3.7717Y-2.2283
X3.775Y-2.43
X3.79Y-2.125
X3.8425Y-2.5669
X3.8976Y-2.7323
T3
X3.1594Y-2.9921
X3.2854Y-2.9921
T0
M30
