G04 #@! TF.GenerationSoftware,KiCad,Pcbnew,(5.1.5)-3*
G04 #@! TF.CreationDate,2020-03-19T01:35:53+01:00*
G04 #@! TF.ProjectId,ESP8266_RGBA_Receiver,45535038-3236-4365-9f52-4742415f5265,rev?*
G04 #@! TF.SameCoordinates,Original*
G04 #@! TF.FileFunction,Copper,L1,Top*
G04 #@! TF.FilePolarity,Positive*
%FSLAX46Y46*%
G04 Gerber Fmt 4.6, Leading zero omitted, Abs format (unit mm)*
G04 Created by KiCad (PCBNEW (5.1.5)-3) date 2020-03-19 01:35:53*
%MOMM*%
%LPD*%
G04 APERTURE LIST*
%ADD10C,1.270000*%
%ADD11C,0.100000*%
%ADD12R,2.000000X1.500000*%
%ADD13R,2.000000X3.800000*%
%ADD14R,0.650000X1.050000*%
%ADD15R,0.800000X0.900000*%
%ADD16R,0.700000X0.700000*%
%ADD17C,0.704800*%
%ADD18C,0.800000*%
%ADD19C,0.250000*%
%ADD20C,0.500000*%
%ADD21C,0.254000*%
G04 APERTURE END LIST*
D10*
X80391000Y-76200000D03*
X82931000Y-76200000D03*
X85471000Y-76200000D03*
X88011000Y-76200000D03*
X90551000Y-76200000D03*
X93091000Y-76200000D03*
X95631000Y-76200000D03*
G04 #@! TA.AperFunction,SMDPad,CuDef*
D11*
G36*
X80453242Y-71250058D02*
G01*
X80514883Y-71259201D01*
X80575332Y-71274343D01*
X80634005Y-71295336D01*
X80690338Y-71321980D01*
X80743788Y-71354017D01*
X80793841Y-71391138D01*
X80840014Y-71432987D01*
X80881863Y-71479160D01*
X80918984Y-71529213D01*
X80951021Y-71582663D01*
X80977665Y-71638996D01*
X80998658Y-71697669D01*
X81013800Y-71758118D01*
X81022943Y-71819759D01*
X81026001Y-71882000D01*
X81026001Y-74422000D01*
X81022943Y-74484241D01*
X81013800Y-74545882D01*
X80998658Y-74606331D01*
X80977665Y-74665004D01*
X80951021Y-74721337D01*
X80918984Y-74774787D01*
X80881863Y-74824840D01*
X80840014Y-74871013D01*
X80793841Y-74912862D01*
X80743788Y-74949983D01*
X80690338Y-74982020D01*
X80634005Y-75008664D01*
X80575332Y-75029657D01*
X80514883Y-75044799D01*
X80453242Y-75053942D01*
X80391001Y-75057000D01*
X80390999Y-75057000D01*
X80328758Y-75053942D01*
X80267117Y-75044799D01*
X80206668Y-75029657D01*
X80147995Y-75008664D01*
X80091662Y-74982020D01*
X80038212Y-74949983D01*
X79988159Y-74912862D01*
X79941986Y-74871013D01*
X79900137Y-74824840D01*
X79863016Y-74774787D01*
X79830979Y-74721337D01*
X79804335Y-74665004D01*
X79783342Y-74606331D01*
X79768200Y-74545882D01*
X79759057Y-74484241D01*
X79755999Y-74422000D01*
X79755999Y-71882000D01*
X79759057Y-71819759D01*
X79768200Y-71758118D01*
X79783342Y-71697669D01*
X79804335Y-71638996D01*
X79830979Y-71582663D01*
X79863016Y-71529213D01*
X79900137Y-71479160D01*
X79941986Y-71432987D01*
X79988159Y-71391138D01*
X80038212Y-71354017D01*
X80091662Y-71321980D01*
X80147995Y-71295336D01*
X80206668Y-71274343D01*
X80267117Y-71259201D01*
X80328758Y-71250058D01*
X80390999Y-71247000D01*
X80391001Y-71247000D01*
X80453242Y-71250058D01*
G37*
G04 #@! TD.AperFunction*
G04 #@! TA.AperFunction,SMDPad,CuDef*
G36*
X82993242Y-71250058D02*
G01*
X83054883Y-71259201D01*
X83115332Y-71274343D01*
X83174005Y-71295336D01*
X83230338Y-71321980D01*
X83283788Y-71354017D01*
X83333841Y-71391138D01*
X83380014Y-71432987D01*
X83421863Y-71479160D01*
X83458984Y-71529213D01*
X83491021Y-71582663D01*
X83517665Y-71638996D01*
X83538658Y-71697669D01*
X83553800Y-71758118D01*
X83562943Y-71819759D01*
X83566001Y-71882000D01*
X83566001Y-74422000D01*
X83562943Y-74484241D01*
X83553800Y-74545882D01*
X83538658Y-74606331D01*
X83517665Y-74665004D01*
X83491021Y-74721337D01*
X83458984Y-74774787D01*
X83421863Y-74824840D01*
X83380014Y-74871013D01*
X83333841Y-74912862D01*
X83283788Y-74949983D01*
X83230338Y-74982020D01*
X83174005Y-75008664D01*
X83115332Y-75029657D01*
X83054883Y-75044799D01*
X82993242Y-75053942D01*
X82931001Y-75057000D01*
X82930999Y-75057000D01*
X82868758Y-75053942D01*
X82807117Y-75044799D01*
X82746668Y-75029657D01*
X82687995Y-75008664D01*
X82631662Y-74982020D01*
X82578212Y-74949983D01*
X82528159Y-74912862D01*
X82481986Y-74871013D01*
X82440137Y-74824840D01*
X82403016Y-74774787D01*
X82370979Y-74721337D01*
X82344335Y-74665004D01*
X82323342Y-74606331D01*
X82308200Y-74545882D01*
X82299057Y-74484241D01*
X82295999Y-74422000D01*
X82295999Y-71882000D01*
X82299057Y-71819759D01*
X82308200Y-71758118D01*
X82323342Y-71697669D01*
X82344335Y-71638996D01*
X82370979Y-71582663D01*
X82403016Y-71529213D01*
X82440137Y-71479160D01*
X82481986Y-71432987D01*
X82528159Y-71391138D01*
X82578212Y-71354017D01*
X82631662Y-71321980D01*
X82687995Y-71295336D01*
X82746668Y-71274343D01*
X82807117Y-71259201D01*
X82868758Y-71250058D01*
X82930999Y-71247000D01*
X82931001Y-71247000D01*
X82993242Y-71250058D01*
G37*
G04 #@! TD.AperFunction*
G04 #@! TA.AperFunction,SMDPad,CuDef*
G36*
X85533242Y-71250058D02*
G01*
X85594883Y-71259201D01*
X85655332Y-71274343D01*
X85714005Y-71295336D01*
X85770338Y-71321980D01*
X85823788Y-71354017D01*
X85873841Y-71391138D01*
X85920014Y-71432987D01*
X85961863Y-71479160D01*
X85998984Y-71529213D01*
X86031021Y-71582663D01*
X86057665Y-71638996D01*
X86078658Y-71697669D01*
X86093800Y-71758118D01*
X86102943Y-71819759D01*
X86106001Y-71882000D01*
X86106001Y-74422000D01*
X86102943Y-74484241D01*
X86093800Y-74545882D01*
X86078658Y-74606331D01*
X86057665Y-74665004D01*
X86031021Y-74721337D01*
X85998984Y-74774787D01*
X85961863Y-74824840D01*
X85920014Y-74871013D01*
X85873841Y-74912862D01*
X85823788Y-74949983D01*
X85770338Y-74982020D01*
X85714005Y-75008664D01*
X85655332Y-75029657D01*
X85594883Y-75044799D01*
X85533242Y-75053942D01*
X85471001Y-75057000D01*
X85470999Y-75057000D01*
X85408758Y-75053942D01*
X85347117Y-75044799D01*
X85286668Y-75029657D01*
X85227995Y-75008664D01*
X85171662Y-74982020D01*
X85118212Y-74949983D01*
X85068159Y-74912862D01*
X85021986Y-74871013D01*
X84980137Y-74824840D01*
X84943016Y-74774787D01*
X84910979Y-74721337D01*
X84884335Y-74665004D01*
X84863342Y-74606331D01*
X84848200Y-74545882D01*
X84839057Y-74484241D01*
X84835999Y-74422000D01*
X84835999Y-71882000D01*
X84839057Y-71819759D01*
X84848200Y-71758118D01*
X84863342Y-71697669D01*
X84884335Y-71638996D01*
X84910979Y-71582663D01*
X84943016Y-71529213D01*
X84980137Y-71479160D01*
X85021986Y-71432987D01*
X85068159Y-71391138D01*
X85118212Y-71354017D01*
X85171662Y-71321980D01*
X85227995Y-71295336D01*
X85286668Y-71274343D01*
X85347117Y-71259201D01*
X85408758Y-71250058D01*
X85470999Y-71247000D01*
X85471001Y-71247000D01*
X85533242Y-71250058D01*
G37*
G04 #@! TD.AperFunction*
G04 #@! TA.AperFunction,SMDPad,CuDef*
G36*
X88073242Y-71250058D02*
G01*
X88134883Y-71259201D01*
X88195332Y-71274343D01*
X88254005Y-71295336D01*
X88310338Y-71321980D01*
X88363788Y-71354017D01*
X88413841Y-71391138D01*
X88460014Y-71432987D01*
X88501863Y-71479160D01*
X88538984Y-71529213D01*
X88571021Y-71582663D01*
X88597665Y-71638996D01*
X88618658Y-71697669D01*
X88633800Y-71758118D01*
X88642943Y-71819759D01*
X88646001Y-71882000D01*
X88646001Y-74422000D01*
X88642943Y-74484241D01*
X88633800Y-74545882D01*
X88618658Y-74606331D01*
X88597665Y-74665004D01*
X88571021Y-74721337D01*
X88538984Y-74774787D01*
X88501863Y-74824840D01*
X88460014Y-74871013D01*
X88413841Y-74912862D01*
X88363788Y-74949983D01*
X88310338Y-74982020D01*
X88254005Y-75008664D01*
X88195332Y-75029657D01*
X88134883Y-75044799D01*
X88073242Y-75053942D01*
X88011001Y-75057000D01*
X88010999Y-75057000D01*
X87948758Y-75053942D01*
X87887117Y-75044799D01*
X87826668Y-75029657D01*
X87767995Y-75008664D01*
X87711662Y-74982020D01*
X87658212Y-74949983D01*
X87608159Y-74912862D01*
X87561986Y-74871013D01*
X87520137Y-74824840D01*
X87483016Y-74774787D01*
X87450979Y-74721337D01*
X87424335Y-74665004D01*
X87403342Y-74606331D01*
X87388200Y-74545882D01*
X87379057Y-74484241D01*
X87375999Y-74422000D01*
X87375999Y-71882000D01*
X87379057Y-71819759D01*
X87388200Y-71758118D01*
X87403342Y-71697669D01*
X87424335Y-71638996D01*
X87450979Y-71582663D01*
X87483016Y-71529213D01*
X87520137Y-71479160D01*
X87561986Y-71432987D01*
X87608159Y-71391138D01*
X87658212Y-71354017D01*
X87711662Y-71321980D01*
X87767995Y-71295336D01*
X87826668Y-71274343D01*
X87887117Y-71259201D01*
X87948758Y-71250058D01*
X88010999Y-71247000D01*
X88011001Y-71247000D01*
X88073242Y-71250058D01*
G37*
G04 #@! TD.AperFunction*
G04 #@! TA.AperFunction,SMDPad,CuDef*
G36*
X90613242Y-71250058D02*
G01*
X90674883Y-71259201D01*
X90735332Y-71274343D01*
X90794005Y-71295336D01*
X90850338Y-71321980D01*
X90903788Y-71354017D01*
X90953841Y-71391138D01*
X91000014Y-71432987D01*
X91041863Y-71479160D01*
X91078984Y-71529213D01*
X91111021Y-71582663D01*
X91137665Y-71638996D01*
X91158658Y-71697669D01*
X91173800Y-71758118D01*
X91182943Y-71819759D01*
X91186001Y-71882000D01*
X91186001Y-74422000D01*
X91182943Y-74484241D01*
X91173800Y-74545882D01*
X91158658Y-74606331D01*
X91137665Y-74665004D01*
X91111021Y-74721337D01*
X91078984Y-74774787D01*
X91041863Y-74824840D01*
X91000014Y-74871013D01*
X90953841Y-74912862D01*
X90903788Y-74949983D01*
X90850338Y-74982020D01*
X90794005Y-75008664D01*
X90735332Y-75029657D01*
X90674883Y-75044799D01*
X90613242Y-75053942D01*
X90551001Y-75057000D01*
X90550999Y-75057000D01*
X90488758Y-75053942D01*
X90427117Y-75044799D01*
X90366668Y-75029657D01*
X90307995Y-75008664D01*
X90251662Y-74982020D01*
X90198212Y-74949983D01*
X90148159Y-74912862D01*
X90101986Y-74871013D01*
X90060137Y-74824840D01*
X90023016Y-74774787D01*
X89990979Y-74721337D01*
X89964335Y-74665004D01*
X89943342Y-74606331D01*
X89928200Y-74545882D01*
X89919057Y-74484241D01*
X89915999Y-74422000D01*
X89915999Y-71882000D01*
X89919057Y-71819759D01*
X89928200Y-71758118D01*
X89943342Y-71697669D01*
X89964335Y-71638996D01*
X89990979Y-71582663D01*
X90023016Y-71529213D01*
X90060137Y-71479160D01*
X90101986Y-71432987D01*
X90148159Y-71391138D01*
X90198212Y-71354017D01*
X90251662Y-71321980D01*
X90307995Y-71295336D01*
X90366668Y-71274343D01*
X90427117Y-71259201D01*
X90488758Y-71250058D01*
X90550999Y-71247000D01*
X90551001Y-71247000D01*
X90613242Y-71250058D01*
G37*
G04 #@! TD.AperFunction*
G04 #@! TA.AperFunction,SMDPad,CuDef*
G36*
X93153242Y-71250058D02*
G01*
X93214883Y-71259201D01*
X93275332Y-71274343D01*
X93334005Y-71295336D01*
X93390338Y-71321980D01*
X93443788Y-71354017D01*
X93493841Y-71391138D01*
X93540014Y-71432987D01*
X93581863Y-71479160D01*
X93618984Y-71529213D01*
X93651021Y-71582663D01*
X93677665Y-71638996D01*
X93698658Y-71697669D01*
X93713800Y-71758118D01*
X93722943Y-71819759D01*
X93726001Y-71882000D01*
X93726001Y-74422000D01*
X93722943Y-74484241D01*
X93713800Y-74545882D01*
X93698658Y-74606331D01*
X93677665Y-74665004D01*
X93651021Y-74721337D01*
X93618984Y-74774787D01*
X93581863Y-74824840D01*
X93540014Y-74871013D01*
X93493841Y-74912862D01*
X93443788Y-74949983D01*
X93390338Y-74982020D01*
X93334005Y-75008664D01*
X93275332Y-75029657D01*
X93214883Y-75044799D01*
X93153242Y-75053942D01*
X93091001Y-75057000D01*
X93090999Y-75057000D01*
X93028758Y-75053942D01*
X92967117Y-75044799D01*
X92906668Y-75029657D01*
X92847995Y-75008664D01*
X92791662Y-74982020D01*
X92738212Y-74949983D01*
X92688159Y-74912862D01*
X92641986Y-74871013D01*
X92600137Y-74824840D01*
X92563016Y-74774787D01*
X92530979Y-74721337D01*
X92504335Y-74665004D01*
X92483342Y-74606331D01*
X92468200Y-74545882D01*
X92459057Y-74484241D01*
X92455999Y-74422000D01*
X92455999Y-71882000D01*
X92459057Y-71819759D01*
X92468200Y-71758118D01*
X92483342Y-71697669D01*
X92504335Y-71638996D01*
X92530979Y-71582663D01*
X92563016Y-71529213D01*
X92600137Y-71479160D01*
X92641986Y-71432987D01*
X92688159Y-71391138D01*
X92738212Y-71354017D01*
X92791662Y-71321980D01*
X92847995Y-71295336D01*
X92906668Y-71274343D01*
X92967117Y-71259201D01*
X93028758Y-71250058D01*
X93090999Y-71247000D01*
X93091001Y-71247000D01*
X93153242Y-71250058D01*
G37*
G04 #@! TD.AperFunction*
G04 #@! TA.AperFunction,SMDPad,CuDef*
G36*
X95693242Y-71250058D02*
G01*
X95754883Y-71259201D01*
X95815332Y-71274343D01*
X95874005Y-71295336D01*
X95930338Y-71321980D01*
X95983788Y-71354017D01*
X96033841Y-71391138D01*
X96080014Y-71432987D01*
X96121863Y-71479160D01*
X96158984Y-71529213D01*
X96191021Y-71582663D01*
X96217665Y-71638996D01*
X96238658Y-71697669D01*
X96253800Y-71758118D01*
X96262943Y-71819759D01*
X96266001Y-71882000D01*
X96266001Y-74422000D01*
X96262943Y-74484241D01*
X96253800Y-74545882D01*
X96238658Y-74606331D01*
X96217665Y-74665004D01*
X96191021Y-74721337D01*
X96158984Y-74774787D01*
X96121863Y-74824840D01*
X96080014Y-74871013D01*
X96033841Y-74912862D01*
X95983788Y-74949983D01*
X95930338Y-74982020D01*
X95874005Y-75008664D01*
X95815332Y-75029657D01*
X95754883Y-75044799D01*
X95693242Y-75053942D01*
X95631001Y-75057000D01*
X95630999Y-75057000D01*
X95568758Y-75053942D01*
X95507117Y-75044799D01*
X95446668Y-75029657D01*
X95387995Y-75008664D01*
X95331662Y-74982020D01*
X95278212Y-74949983D01*
X95228159Y-74912862D01*
X95181986Y-74871013D01*
X95140137Y-74824840D01*
X95103016Y-74774787D01*
X95070979Y-74721337D01*
X95044335Y-74665004D01*
X95023342Y-74606331D01*
X95008200Y-74545882D01*
X94999057Y-74484241D01*
X94995999Y-74422000D01*
X94995999Y-71882000D01*
X94999057Y-71819759D01*
X95008200Y-71758118D01*
X95023342Y-71697669D01*
X95044335Y-71638996D01*
X95070979Y-71582663D01*
X95103016Y-71529213D01*
X95140137Y-71479160D01*
X95181986Y-71432987D01*
X95228159Y-71391138D01*
X95278212Y-71354017D01*
X95331662Y-71321980D01*
X95387995Y-71295336D01*
X95446668Y-71274343D01*
X95507117Y-71259201D01*
X95568758Y-71250058D01*
X95630999Y-71247000D01*
X95631001Y-71247000D01*
X95693242Y-71250058D01*
G37*
G04 #@! TD.AperFunction*
G04 #@! TA.AperFunction,SMDPad,CuDef*
G36*
X82192691Y-59050553D02*
G01*
X82213926Y-59053703D01*
X82234750Y-59058919D01*
X82254962Y-59066151D01*
X82274368Y-59075330D01*
X82292781Y-59086366D01*
X82310024Y-59099154D01*
X82325930Y-59113570D01*
X82340346Y-59129476D01*
X82353134Y-59146719D01*
X82364170Y-59165132D01*
X82373349Y-59184538D01*
X82380581Y-59204750D01*
X82385797Y-59225574D01*
X82388947Y-59246809D01*
X82390000Y-59268250D01*
X82390000Y-59705750D01*
X82388947Y-59727191D01*
X82385797Y-59748426D01*
X82380581Y-59769250D01*
X82373349Y-59789462D01*
X82364170Y-59808868D01*
X82353134Y-59827281D01*
X82340346Y-59844524D01*
X82325930Y-59860430D01*
X82310024Y-59874846D01*
X82292781Y-59887634D01*
X82274368Y-59898670D01*
X82254962Y-59907849D01*
X82234750Y-59915081D01*
X82213926Y-59920297D01*
X82192691Y-59923447D01*
X82171250Y-59924500D01*
X81658750Y-59924500D01*
X81637309Y-59923447D01*
X81616074Y-59920297D01*
X81595250Y-59915081D01*
X81575038Y-59907849D01*
X81555632Y-59898670D01*
X81537219Y-59887634D01*
X81519976Y-59874846D01*
X81504070Y-59860430D01*
X81489654Y-59844524D01*
X81476866Y-59827281D01*
X81465830Y-59808868D01*
X81456651Y-59789462D01*
X81449419Y-59769250D01*
X81444203Y-59748426D01*
X81441053Y-59727191D01*
X81440000Y-59705750D01*
X81440000Y-59268250D01*
X81441053Y-59246809D01*
X81444203Y-59225574D01*
X81449419Y-59204750D01*
X81456651Y-59184538D01*
X81465830Y-59165132D01*
X81476866Y-59146719D01*
X81489654Y-59129476D01*
X81504070Y-59113570D01*
X81519976Y-59099154D01*
X81537219Y-59086366D01*
X81555632Y-59075330D01*
X81575038Y-59066151D01*
X81595250Y-59058919D01*
X81616074Y-59053703D01*
X81637309Y-59050553D01*
X81658750Y-59049500D01*
X82171250Y-59049500D01*
X82192691Y-59050553D01*
G37*
G04 #@! TD.AperFunction*
G04 #@! TA.AperFunction,SMDPad,CuDef*
G36*
X82192691Y-57475553D02*
G01*
X82213926Y-57478703D01*
X82234750Y-57483919D01*
X82254962Y-57491151D01*
X82274368Y-57500330D01*
X82292781Y-57511366D01*
X82310024Y-57524154D01*
X82325930Y-57538570D01*
X82340346Y-57554476D01*
X82353134Y-57571719D01*
X82364170Y-57590132D01*
X82373349Y-57609538D01*
X82380581Y-57629750D01*
X82385797Y-57650574D01*
X82388947Y-57671809D01*
X82390000Y-57693250D01*
X82390000Y-58130750D01*
X82388947Y-58152191D01*
X82385797Y-58173426D01*
X82380581Y-58194250D01*
X82373349Y-58214462D01*
X82364170Y-58233868D01*
X82353134Y-58252281D01*
X82340346Y-58269524D01*
X82325930Y-58285430D01*
X82310024Y-58299846D01*
X82292781Y-58312634D01*
X82274368Y-58323670D01*
X82254962Y-58332849D01*
X82234750Y-58340081D01*
X82213926Y-58345297D01*
X82192691Y-58348447D01*
X82171250Y-58349500D01*
X81658750Y-58349500D01*
X81637309Y-58348447D01*
X81616074Y-58345297D01*
X81595250Y-58340081D01*
X81575038Y-58332849D01*
X81555632Y-58323670D01*
X81537219Y-58312634D01*
X81519976Y-58299846D01*
X81504070Y-58285430D01*
X81489654Y-58269524D01*
X81476866Y-58252281D01*
X81465830Y-58233868D01*
X81456651Y-58214462D01*
X81449419Y-58194250D01*
X81444203Y-58173426D01*
X81441053Y-58152191D01*
X81440000Y-58130750D01*
X81440000Y-57693250D01*
X81441053Y-57671809D01*
X81444203Y-57650574D01*
X81449419Y-57629750D01*
X81456651Y-57609538D01*
X81465830Y-57590132D01*
X81476866Y-57571719D01*
X81489654Y-57554476D01*
X81504070Y-57538570D01*
X81519976Y-57524154D01*
X81537219Y-57511366D01*
X81555632Y-57500330D01*
X81575038Y-57491151D01*
X81595250Y-57483919D01*
X81616074Y-57478703D01*
X81637309Y-57475553D01*
X81658750Y-57474500D01*
X82171250Y-57474500D01*
X82192691Y-57475553D01*
G37*
G04 #@! TD.AperFunction*
D12*
X85775000Y-58152000D03*
X85775000Y-62752000D03*
X85775000Y-60452000D03*
D13*
X92075000Y-60452000D03*
D14*
X94751000Y-63840000D03*
X94751000Y-59690000D03*
X96901000Y-63840000D03*
X96901000Y-59690000D03*
G04 #@! TA.AperFunction,SMDPad,CuDef*
D11*
G36*
X95312191Y-57311053D02*
G01*
X95333426Y-57314203D01*
X95354250Y-57319419D01*
X95374462Y-57326651D01*
X95393868Y-57335830D01*
X95412281Y-57346866D01*
X95429524Y-57359654D01*
X95445430Y-57374070D01*
X95459846Y-57389976D01*
X95472634Y-57407219D01*
X95483670Y-57425632D01*
X95492849Y-57445038D01*
X95500081Y-57465250D01*
X95505297Y-57486074D01*
X95508447Y-57507309D01*
X95509500Y-57528750D01*
X95509500Y-58041250D01*
X95508447Y-58062691D01*
X95505297Y-58083926D01*
X95500081Y-58104750D01*
X95492849Y-58124962D01*
X95483670Y-58144368D01*
X95472634Y-58162781D01*
X95459846Y-58180024D01*
X95445430Y-58195930D01*
X95429524Y-58210346D01*
X95412281Y-58223134D01*
X95393868Y-58234170D01*
X95374462Y-58243349D01*
X95354250Y-58250581D01*
X95333426Y-58255797D01*
X95312191Y-58258947D01*
X95290750Y-58260000D01*
X94853250Y-58260000D01*
X94831809Y-58258947D01*
X94810574Y-58255797D01*
X94789750Y-58250581D01*
X94769538Y-58243349D01*
X94750132Y-58234170D01*
X94731719Y-58223134D01*
X94714476Y-58210346D01*
X94698570Y-58195930D01*
X94684154Y-58180024D01*
X94671366Y-58162781D01*
X94660330Y-58144368D01*
X94651151Y-58124962D01*
X94643919Y-58104750D01*
X94638703Y-58083926D01*
X94635553Y-58062691D01*
X94634500Y-58041250D01*
X94634500Y-57528750D01*
X94635553Y-57507309D01*
X94638703Y-57486074D01*
X94643919Y-57465250D01*
X94651151Y-57445038D01*
X94660330Y-57425632D01*
X94671366Y-57407219D01*
X94684154Y-57389976D01*
X94698570Y-57374070D01*
X94714476Y-57359654D01*
X94731719Y-57346866D01*
X94750132Y-57335830D01*
X94769538Y-57326651D01*
X94789750Y-57319419D01*
X94810574Y-57314203D01*
X94831809Y-57311053D01*
X94853250Y-57310000D01*
X95290750Y-57310000D01*
X95312191Y-57311053D01*
G37*
G04 #@! TD.AperFunction*
G04 #@! TA.AperFunction,SMDPad,CuDef*
G36*
X96887191Y-57311053D02*
G01*
X96908426Y-57314203D01*
X96929250Y-57319419D01*
X96949462Y-57326651D01*
X96968868Y-57335830D01*
X96987281Y-57346866D01*
X97004524Y-57359654D01*
X97020430Y-57374070D01*
X97034846Y-57389976D01*
X97047634Y-57407219D01*
X97058670Y-57425632D01*
X97067849Y-57445038D01*
X97075081Y-57465250D01*
X97080297Y-57486074D01*
X97083447Y-57507309D01*
X97084500Y-57528750D01*
X97084500Y-58041250D01*
X97083447Y-58062691D01*
X97080297Y-58083926D01*
X97075081Y-58104750D01*
X97067849Y-58124962D01*
X97058670Y-58144368D01*
X97047634Y-58162781D01*
X97034846Y-58180024D01*
X97020430Y-58195930D01*
X97004524Y-58210346D01*
X96987281Y-58223134D01*
X96968868Y-58234170D01*
X96949462Y-58243349D01*
X96929250Y-58250581D01*
X96908426Y-58255797D01*
X96887191Y-58258947D01*
X96865750Y-58260000D01*
X96428250Y-58260000D01*
X96406809Y-58258947D01*
X96385574Y-58255797D01*
X96364750Y-58250581D01*
X96344538Y-58243349D01*
X96325132Y-58234170D01*
X96306719Y-58223134D01*
X96289476Y-58210346D01*
X96273570Y-58195930D01*
X96259154Y-58180024D01*
X96246366Y-58162781D01*
X96235330Y-58144368D01*
X96226151Y-58124962D01*
X96218919Y-58104750D01*
X96213703Y-58083926D01*
X96210553Y-58062691D01*
X96209500Y-58041250D01*
X96209500Y-57528750D01*
X96210553Y-57507309D01*
X96213703Y-57486074D01*
X96218919Y-57465250D01*
X96226151Y-57445038D01*
X96235330Y-57425632D01*
X96246366Y-57407219D01*
X96259154Y-57389976D01*
X96273570Y-57374070D01*
X96289476Y-57359654D01*
X96306719Y-57346866D01*
X96325132Y-57335830D01*
X96344538Y-57326651D01*
X96364750Y-57319419D01*
X96385574Y-57314203D01*
X96406809Y-57311053D01*
X96428250Y-57310000D01*
X96865750Y-57310000D01*
X96887191Y-57311053D01*
G37*
G04 #@! TD.AperFunction*
G04 #@! TA.AperFunction,SMDPad,CuDef*
G36*
X84187191Y-54771053D02*
G01*
X84208426Y-54774203D01*
X84229250Y-54779419D01*
X84249462Y-54786651D01*
X84268868Y-54795830D01*
X84287281Y-54806866D01*
X84304524Y-54819654D01*
X84320430Y-54834070D01*
X84334846Y-54849976D01*
X84347634Y-54867219D01*
X84358670Y-54885632D01*
X84367849Y-54905038D01*
X84375081Y-54925250D01*
X84380297Y-54946074D01*
X84383447Y-54967309D01*
X84384500Y-54988750D01*
X84384500Y-55501250D01*
X84383447Y-55522691D01*
X84380297Y-55543926D01*
X84375081Y-55564750D01*
X84367849Y-55584962D01*
X84358670Y-55604368D01*
X84347634Y-55622781D01*
X84334846Y-55640024D01*
X84320430Y-55655930D01*
X84304524Y-55670346D01*
X84287281Y-55683134D01*
X84268868Y-55694170D01*
X84249462Y-55703349D01*
X84229250Y-55710581D01*
X84208426Y-55715797D01*
X84187191Y-55718947D01*
X84165750Y-55720000D01*
X83728250Y-55720000D01*
X83706809Y-55718947D01*
X83685574Y-55715797D01*
X83664750Y-55710581D01*
X83644538Y-55703349D01*
X83625132Y-55694170D01*
X83606719Y-55683134D01*
X83589476Y-55670346D01*
X83573570Y-55655930D01*
X83559154Y-55640024D01*
X83546366Y-55622781D01*
X83535330Y-55604368D01*
X83526151Y-55584962D01*
X83518919Y-55564750D01*
X83513703Y-55543926D01*
X83510553Y-55522691D01*
X83509500Y-55501250D01*
X83509500Y-54988750D01*
X83510553Y-54967309D01*
X83513703Y-54946074D01*
X83518919Y-54925250D01*
X83526151Y-54905038D01*
X83535330Y-54885632D01*
X83546366Y-54867219D01*
X83559154Y-54849976D01*
X83573570Y-54834070D01*
X83589476Y-54819654D01*
X83606719Y-54806866D01*
X83625132Y-54795830D01*
X83644538Y-54786651D01*
X83664750Y-54779419D01*
X83685574Y-54774203D01*
X83706809Y-54771053D01*
X83728250Y-54770000D01*
X84165750Y-54770000D01*
X84187191Y-54771053D01*
G37*
G04 #@! TD.AperFunction*
G04 #@! TA.AperFunction,SMDPad,CuDef*
G36*
X82612191Y-54771053D02*
G01*
X82633426Y-54774203D01*
X82654250Y-54779419D01*
X82674462Y-54786651D01*
X82693868Y-54795830D01*
X82712281Y-54806866D01*
X82729524Y-54819654D01*
X82745430Y-54834070D01*
X82759846Y-54849976D01*
X82772634Y-54867219D01*
X82783670Y-54885632D01*
X82792849Y-54905038D01*
X82800081Y-54925250D01*
X82805297Y-54946074D01*
X82808447Y-54967309D01*
X82809500Y-54988750D01*
X82809500Y-55501250D01*
X82808447Y-55522691D01*
X82805297Y-55543926D01*
X82800081Y-55564750D01*
X82792849Y-55584962D01*
X82783670Y-55604368D01*
X82772634Y-55622781D01*
X82759846Y-55640024D01*
X82745430Y-55655930D01*
X82729524Y-55670346D01*
X82712281Y-55683134D01*
X82693868Y-55694170D01*
X82674462Y-55703349D01*
X82654250Y-55710581D01*
X82633426Y-55715797D01*
X82612191Y-55718947D01*
X82590750Y-55720000D01*
X82153250Y-55720000D01*
X82131809Y-55718947D01*
X82110574Y-55715797D01*
X82089750Y-55710581D01*
X82069538Y-55703349D01*
X82050132Y-55694170D01*
X82031719Y-55683134D01*
X82014476Y-55670346D01*
X81998570Y-55655930D01*
X81984154Y-55640024D01*
X81971366Y-55622781D01*
X81960330Y-55604368D01*
X81951151Y-55584962D01*
X81943919Y-55564750D01*
X81938703Y-55543926D01*
X81935553Y-55522691D01*
X81934500Y-55501250D01*
X81934500Y-54988750D01*
X81935553Y-54967309D01*
X81938703Y-54946074D01*
X81943919Y-54925250D01*
X81951151Y-54905038D01*
X81960330Y-54885632D01*
X81971366Y-54867219D01*
X81984154Y-54849976D01*
X81998570Y-54834070D01*
X82014476Y-54819654D01*
X82031719Y-54806866D01*
X82050132Y-54795830D01*
X82069538Y-54786651D01*
X82089750Y-54779419D01*
X82110574Y-54774203D01*
X82131809Y-54771053D01*
X82153250Y-54770000D01*
X82590750Y-54770000D01*
X82612191Y-54771053D01*
G37*
G04 #@! TD.AperFunction*
G04 #@! TA.AperFunction,SMDPad,CuDef*
G36*
X79906691Y-61260053D02*
G01*
X79927926Y-61263203D01*
X79948750Y-61268419D01*
X79968962Y-61275651D01*
X79988368Y-61284830D01*
X80006781Y-61295866D01*
X80024024Y-61308654D01*
X80039930Y-61323070D01*
X80054346Y-61338976D01*
X80067134Y-61356219D01*
X80078170Y-61374632D01*
X80087349Y-61394038D01*
X80094581Y-61414250D01*
X80099797Y-61435074D01*
X80102947Y-61456309D01*
X80104000Y-61477750D01*
X80104000Y-61915250D01*
X80102947Y-61936691D01*
X80099797Y-61957926D01*
X80094581Y-61978750D01*
X80087349Y-61998962D01*
X80078170Y-62018368D01*
X80067134Y-62036781D01*
X80054346Y-62054024D01*
X80039930Y-62069930D01*
X80024024Y-62084346D01*
X80006781Y-62097134D01*
X79988368Y-62108170D01*
X79968962Y-62117349D01*
X79948750Y-62124581D01*
X79927926Y-62129797D01*
X79906691Y-62132947D01*
X79885250Y-62134000D01*
X79372750Y-62134000D01*
X79351309Y-62132947D01*
X79330074Y-62129797D01*
X79309250Y-62124581D01*
X79289038Y-62117349D01*
X79269632Y-62108170D01*
X79251219Y-62097134D01*
X79233976Y-62084346D01*
X79218070Y-62069930D01*
X79203654Y-62054024D01*
X79190866Y-62036781D01*
X79179830Y-62018368D01*
X79170651Y-61998962D01*
X79163419Y-61978750D01*
X79158203Y-61957926D01*
X79155053Y-61936691D01*
X79154000Y-61915250D01*
X79154000Y-61477750D01*
X79155053Y-61456309D01*
X79158203Y-61435074D01*
X79163419Y-61414250D01*
X79170651Y-61394038D01*
X79179830Y-61374632D01*
X79190866Y-61356219D01*
X79203654Y-61338976D01*
X79218070Y-61323070D01*
X79233976Y-61308654D01*
X79251219Y-61295866D01*
X79269632Y-61284830D01*
X79289038Y-61275651D01*
X79309250Y-61268419D01*
X79330074Y-61263203D01*
X79351309Y-61260053D01*
X79372750Y-61259000D01*
X79885250Y-61259000D01*
X79906691Y-61260053D01*
G37*
G04 #@! TD.AperFunction*
G04 #@! TA.AperFunction,SMDPad,CuDef*
G36*
X79906691Y-62835053D02*
G01*
X79927926Y-62838203D01*
X79948750Y-62843419D01*
X79968962Y-62850651D01*
X79988368Y-62859830D01*
X80006781Y-62870866D01*
X80024024Y-62883654D01*
X80039930Y-62898070D01*
X80054346Y-62913976D01*
X80067134Y-62931219D01*
X80078170Y-62949632D01*
X80087349Y-62969038D01*
X80094581Y-62989250D01*
X80099797Y-63010074D01*
X80102947Y-63031309D01*
X80104000Y-63052750D01*
X80104000Y-63490250D01*
X80102947Y-63511691D01*
X80099797Y-63532926D01*
X80094581Y-63553750D01*
X80087349Y-63573962D01*
X80078170Y-63593368D01*
X80067134Y-63611781D01*
X80054346Y-63629024D01*
X80039930Y-63644930D01*
X80024024Y-63659346D01*
X80006781Y-63672134D01*
X79988368Y-63683170D01*
X79968962Y-63692349D01*
X79948750Y-63699581D01*
X79927926Y-63704797D01*
X79906691Y-63707947D01*
X79885250Y-63709000D01*
X79372750Y-63709000D01*
X79351309Y-63707947D01*
X79330074Y-63704797D01*
X79309250Y-63699581D01*
X79289038Y-63692349D01*
X79269632Y-63683170D01*
X79251219Y-63672134D01*
X79233976Y-63659346D01*
X79218070Y-63644930D01*
X79203654Y-63629024D01*
X79190866Y-63611781D01*
X79179830Y-63593368D01*
X79170651Y-63573962D01*
X79163419Y-63553750D01*
X79158203Y-63532926D01*
X79155053Y-63511691D01*
X79154000Y-63490250D01*
X79154000Y-63052750D01*
X79155053Y-63031309D01*
X79158203Y-63010074D01*
X79163419Y-62989250D01*
X79170651Y-62969038D01*
X79179830Y-62949632D01*
X79190866Y-62931219D01*
X79203654Y-62913976D01*
X79218070Y-62898070D01*
X79233976Y-62883654D01*
X79251219Y-62870866D01*
X79269632Y-62859830D01*
X79289038Y-62850651D01*
X79309250Y-62843419D01*
X79330074Y-62838203D01*
X79351309Y-62835053D01*
X79372750Y-62834000D01*
X79885250Y-62834000D01*
X79906691Y-62835053D01*
G37*
G04 #@! TD.AperFunction*
G04 #@! TA.AperFunction,SMDPad,CuDef*
G36*
X79906691Y-57475553D02*
G01*
X79927926Y-57478703D01*
X79948750Y-57483919D01*
X79968962Y-57491151D01*
X79988368Y-57500330D01*
X80006781Y-57511366D01*
X80024024Y-57524154D01*
X80039930Y-57538570D01*
X80054346Y-57554476D01*
X80067134Y-57571719D01*
X80078170Y-57590132D01*
X80087349Y-57609538D01*
X80094581Y-57629750D01*
X80099797Y-57650574D01*
X80102947Y-57671809D01*
X80104000Y-57693250D01*
X80104000Y-58130750D01*
X80102947Y-58152191D01*
X80099797Y-58173426D01*
X80094581Y-58194250D01*
X80087349Y-58214462D01*
X80078170Y-58233868D01*
X80067134Y-58252281D01*
X80054346Y-58269524D01*
X80039930Y-58285430D01*
X80024024Y-58299846D01*
X80006781Y-58312634D01*
X79988368Y-58323670D01*
X79968962Y-58332849D01*
X79948750Y-58340081D01*
X79927926Y-58345297D01*
X79906691Y-58348447D01*
X79885250Y-58349500D01*
X79372750Y-58349500D01*
X79351309Y-58348447D01*
X79330074Y-58345297D01*
X79309250Y-58340081D01*
X79289038Y-58332849D01*
X79269632Y-58323670D01*
X79251219Y-58312634D01*
X79233976Y-58299846D01*
X79218070Y-58285430D01*
X79203654Y-58269524D01*
X79190866Y-58252281D01*
X79179830Y-58233868D01*
X79170651Y-58214462D01*
X79163419Y-58194250D01*
X79158203Y-58173426D01*
X79155053Y-58152191D01*
X79154000Y-58130750D01*
X79154000Y-57693250D01*
X79155053Y-57671809D01*
X79158203Y-57650574D01*
X79163419Y-57629750D01*
X79170651Y-57609538D01*
X79179830Y-57590132D01*
X79190866Y-57571719D01*
X79203654Y-57554476D01*
X79218070Y-57538570D01*
X79233976Y-57524154D01*
X79251219Y-57511366D01*
X79269632Y-57500330D01*
X79289038Y-57491151D01*
X79309250Y-57483919D01*
X79330074Y-57478703D01*
X79351309Y-57475553D01*
X79372750Y-57474500D01*
X79885250Y-57474500D01*
X79906691Y-57475553D01*
G37*
G04 #@! TD.AperFunction*
G04 #@! TA.AperFunction,SMDPad,CuDef*
G36*
X79906691Y-59050553D02*
G01*
X79927926Y-59053703D01*
X79948750Y-59058919D01*
X79968962Y-59066151D01*
X79988368Y-59075330D01*
X80006781Y-59086366D01*
X80024024Y-59099154D01*
X80039930Y-59113570D01*
X80054346Y-59129476D01*
X80067134Y-59146719D01*
X80078170Y-59165132D01*
X80087349Y-59184538D01*
X80094581Y-59204750D01*
X80099797Y-59225574D01*
X80102947Y-59246809D01*
X80104000Y-59268250D01*
X80104000Y-59705750D01*
X80102947Y-59727191D01*
X80099797Y-59748426D01*
X80094581Y-59769250D01*
X80087349Y-59789462D01*
X80078170Y-59808868D01*
X80067134Y-59827281D01*
X80054346Y-59844524D01*
X80039930Y-59860430D01*
X80024024Y-59874846D01*
X80006781Y-59887634D01*
X79988368Y-59898670D01*
X79968962Y-59907849D01*
X79948750Y-59915081D01*
X79927926Y-59920297D01*
X79906691Y-59923447D01*
X79885250Y-59924500D01*
X79372750Y-59924500D01*
X79351309Y-59923447D01*
X79330074Y-59920297D01*
X79309250Y-59915081D01*
X79289038Y-59907849D01*
X79269632Y-59898670D01*
X79251219Y-59887634D01*
X79233976Y-59874846D01*
X79218070Y-59860430D01*
X79203654Y-59844524D01*
X79190866Y-59827281D01*
X79179830Y-59808868D01*
X79170651Y-59789462D01*
X79163419Y-59769250D01*
X79158203Y-59748426D01*
X79155053Y-59727191D01*
X79154000Y-59705750D01*
X79154000Y-59268250D01*
X79155053Y-59246809D01*
X79158203Y-59225574D01*
X79163419Y-59204750D01*
X79170651Y-59184538D01*
X79179830Y-59165132D01*
X79190866Y-59146719D01*
X79203654Y-59129476D01*
X79218070Y-59113570D01*
X79233976Y-59099154D01*
X79251219Y-59086366D01*
X79269632Y-59075330D01*
X79289038Y-59066151D01*
X79309250Y-59058919D01*
X79330074Y-59053703D01*
X79351309Y-59050553D01*
X79372750Y-59049500D01*
X79885250Y-59049500D01*
X79906691Y-59050553D01*
G37*
G04 #@! TD.AperFunction*
G04 #@! TA.AperFunction,SMDPad,CuDef*
G36*
X81520191Y-65566053D02*
G01*
X81541426Y-65569203D01*
X81562250Y-65574419D01*
X81582462Y-65581651D01*
X81601868Y-65590830D01*
X81620281Y-65601866D01*
X81637524Y-65614654D01*
X81653430Y-65629070D01*
X81667846Y-65644976D01*
X81680634Y-65662219D01*
X81691670Y-65680632D01*
X81700849Y-65700038D01*
X81708081Y-65720250D01*
X81713297Y-65741074D01*
X81716447Y-65762309D01*
X81717500Y-65783750D01*
X81717500Y-66296250D01*
X81716447Y-66317691D01*
X81713297Y-66338926D01*
X81708081Y-66359750D01*
X81700849Y-66379962D01*
X81691670Y-66399368D01*
X81680634Y-66417781D01*
X81667846Y-66435024D01*
X81653430Y-66450930D01*
X81637524Y-66465346D01*
X81620281Y-66478134D01*
X81601868Y-66489170D01*
X81582462Y-66498349D01*
X81562250Y-66505581D01*
X81541426Y-66510797D01*
X81520191Y-66513947D01*
X81498750Y-66515000D01*
X81061250Y-66515000D01*
X81039809Y-66513947D01*
X81018574Y-66510797D01*
X80997750Y-66505581D01*
X80977538Y-66498349D01*
X80958132Y-66489170D01*
X80939719Y-66478134D01*
X80922476Y-66465346D01*
X80906570Y-66450930D01*
X80892154Y-66435024D01*
X80879366Y-66417781D01*
X80868330Y-66399368D01*
X80859151Y-66379962D01*
X80851919Y-66359750D01*
X80846703Y-66338926D01*
X80843553Y-66317691D01*
X80842500Y-66296250D01*
X80842500Y-65783750D01*
X80843553Y-65762309D01*
X80846703Y-65741074D01*
X80851919Y-65720250D01*
X80859151Y-65700038D01*
X80868330Y-65680632D01*
X80879366Y-65662219D01*
X80892154Y-65644976D01*
X80906570Y-65629070D01*
X80922476Y-65614654D01*
X80939719Y-65601866D01*
X80958132Y-65590830D01*
X80977538Y-65581651D01*
X80997750Y-65574419D01*
X81018574Y-65569203D01*
X81039809Y-65566053D01*
X81061250Y-65565000D01*
X81498750Y-65565000D01*
X81520191Y-65566053D01*
G37*
G04 #@! TD.AperFunction*
G04 #@! TA.AperFunction,SMDPad,CuDef*
G36*
X79945191Y-65566053D02*
G01*
X79966426Y-65569203D01*
X79987250Y-65574419D01*
X80007462Y-65581651D01*
X80026868Y-65590830D01*
X80045281Y-65601866D01*
X80062524Y-65614654D01*
X80078430Y-65629070D01*
X80092846Y-65644976D01*
X80105634Y-65662219D01*
X80116670Y-65680632D01*
X80125849Y-65700038D01*
X80133081Y-65720250D01*
X80138297Y-65741074D01*
X80141447Y-65762309D01*
X80142500Y-65783750D01*
X80142500Y-66296250D01*
X80141447Y-66317691D01*
X80138297Y-66338926D01*
X80133081Y-66359750D01*
X80125849Y-66379962D01*
X80116670Y-66399368D01*
X80105634Y-66417781D01*
X80092846Y-66435024D01*
X80078430Y-66450930D01*
X80062524Y-66465346D01*
X80045281Y-66478134D01*
X80026868Y-66489170D01*
X80007462Y-66498349D01*
X79987250Y-66505581D01*
X79966426Y-66510797D01*
X79945191Y-66513947D01*
X79923750Y-66515000D01*
X79486250Y-66515000D01*
X79464809Y-66513947D01*
X79443574Y-66510797D01*
X79422750Y-66505581D01*
X79402538Y-66498349D01*
X79383132Y-66489170D01*
X79364719Y-66478134D01*
X79347476Y-66465346D01*
X79331570Y-66450930D01*
X79317154Y-66435024D01*
X79304366Y-66417781D01*
X79293330Y-66399368D01*
X79284151Y-66379962D01*
X79276919Y-66359750D01*
X79271703Y-66338926D01*
X79268553Y-66317691D01*
X79267500Y-66296250D01*
X79267500Y-65783750D01*
X79268553Y-65762309D01*
X79271703Y-65741074D01*
X79276919Y-65720250D01*
X79284151Y-65700038D01*
X79293330Y-65680632D01*
X79304366Y-65662219D01*
X79317154Y-65644976D01*
X79331570Y-65629070D01*
X79347476Y-65614654D01*
X79364719Y-65601866D01*
X79383132Y-65590830D01*
X79402538Y-65581651D01*
X79422750Y-65574419D01*
X79443574Y-65569203D01*
X79464809Y-65566053D01*
X79486250Y-65565000D01*
X79923750Y-65565000D01*
X79945191Y-65566053D01*
G37*
G04 #@! TD.AperFunction*
G04 #@! TA.AperFunction,SMDPad,CuDef*
G36*
X86600191Y-65566053D02*
G01*
X86621426Y-65569203D01*
X86642250Y-65574419D01*
X86662462Y-65581651D01*
X86681868Y-65590830D01*
X86700281Y-65601866D01*
X86717524Y-65614654D01*
X86733430Y-65629070D01*
X86747846Y-65644976D01*
X86760634Y-65662219D01*
X86771670Y-65680632D01*
X86780849Y-65700038D01*
X86788081Y-65720250D01*
X86793297Y-65741074D01*
X86796447Y-65762309D01*
X86797500Y-65783750D01*
X86797500Y-66296250D01*
X86796447Y-66317691D01*
X86793297Y-66338926D01*
X86788081Y-66359750D01*
X86780849Y-66379962D01*
X86771670Y-66399368D01*
X86760634Y-66417781D01*
X86747846Y-66435024D01*
X86733430Y-66450930D01*
X86717524Y-66465346D01*
X86700281Y-66478134D01*
X86681868Y-66489170D01*
X86662462Y-66498349D01*
X86642250Y-66505581D01*
X86621426Y-66510797D01*
X86600191Y-66513947D01*
X86578750Y-66515000D01*
X86141250Y-66515000D01*
X86119809Y-66513947D01*
X86098574Y-66510797D01*
X86077750Y-66505581D01*
X86057538Y-66498349D01*
X86038132Y-66489170D01*
X86019719Y-66478134D01*
X86002476Y-66465346D01*
X85986570Y-66450930D01*
X85972154Y-66435024D01*
X85959366Y-66417781D01*
X85948330Y-66399368D01*
X85939151Y-66379962D01*
X85931919Y-66359750D01*
X85926703Y-66338926D01*
X85923553Y-66317691D01*
X85922500Y-66296250D01*
X85922500Y-65783750D01*
X85923553Y-65762309D01*
X85926703Y-65741074D01*
X85931919Y-65720250D01*
X85939151Y-65700038D01*
X85948330Y-65680632D01*
X85959366Y-65662219D01*
X85972154Y-65644976D01*
X85986570Y-65629070D01*
X86002476Y-65614654D01*
X86019719Y-65601866D01*
X86038132Y-65590830D01*
X86057538Y-65581651D01*
X86077750Y-65574419D01*
X86098574Y-65569203D01*
X86119809Y-65566053D01*
X86141250Y-65565000D01*
X86578750Y-65565000D01*
X86600191Y-65566053D01*
G37*
G04 #@! TD.AperFunction*
G04 #@! TA.AperFunction,SMDPad,CuDef*
G36*
X85025191Y-65566053D02*
G01*
X85046426Y-65569203D01*
X85067250Y-65574419D01*
X85087462Y-65581651D01*
X85106868Y-65590830D01*
X85125281Y-65601866D01*
X85142524Y-65614654D01*
X85158430Y-65629070D01*
X85172846Y-65644976D01*
X85185634Y-65662219D01*
X85196670Y-65680632D01*
X85205849Y-65700038D01*
X85213081Y-65720250D01*
X85218297Y-65741074D01*
X85221447Y-65762309D01*
X85222500Y-65783750D01*
X85222500Y-66296250D01*
X85221447Y-66317691D01*
X85218297Y-66338926D01*
X85213081Y-66359750D01*
X85205849Y-66379962D01*
X85196670Y-66399368D01*
X85185634Y-66417781D01*
X85172846Y-66435024D01*
X85158430Y-66450930D01*
X85142524Y-66465346D01*
X85125281Y-66478134D01*
X85106868Y-66489170D01*
X85087462Y-66498349D01*
X85067250Y-66505581D01*
X85046426Y-66510797D01*
X85025191Y-66513947D01*
X85003750Y-66515000D01*
X84566250Y-66515000D01*
X84544809Y-66513947D01*
X84523574Y-66510797D01*
X84502750Y-66505581D01*
X84482538Y-66498349D01*
X84463132Y-66489170D01*
X84444719Y-66478134D01*
X84427476Y-66465346D01*
X84411570Y-66450930D01*
X84397154Y-66435024D01*
X84384366Y-66417781D01*
X84373330Y-66399368D01*
X84364151Y-66379962D01*
X84356919Y-66359750D01*
X84351703Y-66338926D01*
X84348553Y-66317691D01*
X84347500Y-66296250D01*
X84347500Y-65783750D01*
X84348553Y-65762309D01*
X84351703Y-65741074D01*
X84356919Y-65720250D01*
X84364151Y-65700038D01*
X84373330Y-65680632D01*
X84384366Y-65662219D01*
X84397154Y-65644976D01*
X84411570Y-65629070D01*
X84427476Y-65614654D01*
X84444719Y-65601866D01*
X84463132Y-65590830D01*
X84482538Y-65581651D01*
X84502750Y-65574419D01*
X84523574Y-65569203D01*
X84544809Y-65566053D01*
X84566250Y-65565000D01*
X85003750Y-65565000D01*
X85025191Y-65566053D01*
G37*
G04 #@! TD.AperFunction*
G04 #@! TA.AperFunction,SMDPad,CuDef*
G36*
X91680191Y-65566053D02*
G01*
X91701426Y-65569203D01*
X91722250Y-65574419D01*
X91742462Y-65581651D01*
X91761868Y-65590830D01*
X91780281Y-65601866D01*
X91797524Y-65614654D01*
X91813430Y-65629070D01*
X91827846Y-65644976D01*
X91840634Y-65662219D01*
X91851670Y-65680632D01*
X91860849Y-65700038D01*
X91868081Y-65720250D01*
X91873297Y-65741074D01*
X91876447Y-65762309D01*
X91877500Y-65783750D01*
X91877500Y-66296250D01*
X91876447Y-66317691D01*
X91873297Y-66338926D01*
X91868081Y-66359750D01*
X91860849Y-66379962D01*
X91851670Y-66399368D01*
X91840634Y-66417781D01*
X91827846Y-66435024D01*
X91813430Y-66450930D01*
X91797524Y-66465346D01*
X91780281Y-66478134D01*
X91761868Y-66489170D01*
X91742462Y-66498349D01*
X91722250Y-66505581D01*
X91701426Y-66510797D01*
X91680191Y-66513947D01*
X91658750Y-66515000D01*
X91221250Y-66515000D01*
X91199809Y-66513947D01*
X91178574Y-66510797D01*
X91157750Y-66505581D01*
X91137538Y-66498349D01*
X91118132Y-66489170D01*
X91099719Y-66478134D01*
X91082476Y-66465346D01*
X91066570Y-66450930D01*
X91052154Y-66435024D01*
X91039366Y-66417781D01*
X91028330Y-66399368D01*
X91019151Y-66379962D01*
X91011919Y-66359750D01*
X91006703Y-66338926D01*
X91003553Y-66317691D01*
X91002500Y-66296250D01*
X91002500Y-65783750D01*
X91003553Y-65762309D01*
X91006703Y-65741074D01*
X91011919Y-65720250D01*
X91019151Y-65700038D01*
X91028330Y-65680632D01*
X91039366Y-65662219D01*
X91052154Y-65644976D01*
X91066570Y-65629070D01*
X91082476Y-65614654D01*
X91099719Y-65601866D01*
X91118132Y-65590830D01*
X91137538Y-65581651D01*
X91157750Y-65574419D01*
X91178574Y-65569203D01*
X91199809Y-65566053D01*
X91221250Y-65565000D01*
X91658750Y-65565000D01*
X91680191Y-65566053D01*
G37*
G04 #@! TD.AperFunction*
G04 #@! TA.AperFunction,SMDPad,CuDef*
G36*
X90105191Y-65566053D02*
G01*
X90126426Y-65569203D01*
X90147250Y-65574419D01*
X90167462Y-65581651D01*
X90186868Y-65590830D01*
X90205281Y-65601866D01*
X90222524Y-65614654D01*
X90238430Y-65629070D01*
X90252846Y-65644976D01*
X90265634Y-65662219D01*
X90276670Y-65680632D01*
X90285849Y-65700038D01*
X90293081Y-65720250D01*
X90298297Y-65741074D01*
X90301447Y-65762309D01*
X90302500Y-65783750D01*
X90302500Y-66296250D01*
X90301447Y-66317691D01*
X90298297Y-66338926D01*
X90293081Y-66359750D01*
X90285849Y-66379962D01*
X90276670Y-66399368D01*
X90265634Y-66417781D01*
X90252846Y-66435024D01*
X90238430Y-66450930D01*
X90222524Y-66465346D01*
X90205281Y-66478134D01*
X90186868Y-66489170D01*
X90167462Y-66498349D01*
X90147250Y-66505581D01*
X90126426Y-66510797D01*
X90105191Y-66513947D01*
X90083750Y-66515000D01*
X89646250Y-66515000D01*
X89624809Y-66513947D01*
X89603574Y-66510797D01*
X89582750Y-66505581D01*
X89562538Y-66498349D01*
X89543132Y-66489170D01*
X89524719Y-66478134D01*
X89507476Y-66465346D01*
X89491570Y-66450930D01*
X89477154Y-66435024D01*
X89464366Y-66417781D01*
X89453330Y-66399368D01*
X89444151Y-66379962D01*
X89436919Y-66359750D01*
X89431703Y-66338926D01*
X89428553Y-66317691D01*
X89427500Y-66296250D01*
X89427500Y-65783750D01*
X89428553Y-65762309D01*
X89431703Y-65741074D01*
X89436919Y-65720250D01*
X89444151Y-65700038D01*
X89453330Y-65680632D01*
X89464366Y-65662219D01*
X89477154Y-65644976D01*
X89491570Y-65629070D01*
X89507476Y-65614654D01*
X89524719Y-65601866D01*
X89543132Y-65590830D01*
X89562538Y-65581651D01*
X89582750Y-65574419D01*
X89603574Y-65569203D01*
X89624809Y-65566053D01*
X89646250Y-65565000D01*
X90083750Y-65565000D01*
X90105191Y-65566053D01*
G37*
G04 #@! TD.AperFunction*
G04 #@! TA.AperFunction,SMDPad,CuDef*
G36*
X96506191Y-65566053D02*
G01*
X96527426Y-65569203D01*
X96548250Y-65574419D01*
X96568462Y-65581651D01*
X96587868Y-65590830D01*
X96606281Y-65601866D01*
X96623524Y-65614654D01*
X96639430Y-65629070D01*
X96653846Y-65644976D01*
X96666634Y-65662219D01*
X96677670Y-65680632D01*
X96686849Y-65700038D01*
X96694081Y-65720250D01*
X96699297Y-65741074D01*
X96702447Y-65762309D01*
X96703500Y-65783750D01*
X96703500Y-66296250D01*
X96702447Y-66317691D01*
X96699297Y-66338926D01*
X96694081Y-66359750D01*
X96686849Y-66379962D01*
X96677670Y-66399368D01*
X96666634Y-66417781D01*
X96653846Y-66435024D01*
X96639430Y-66450930D01*
X96623524Y-66465346D01*
X96606281Y-66478134D01*
X96587868Y-66489170D01*
X96568462Y-66498349D01*
X96548250Y-66505581D01*
X96527426Y-66510797D01*
X96506191Y-66513947D01*
X96484750Y-66515000D01*
X96047250Y-66515000D01*
X96025809Y-66513947D01*
X96004574Y-66510797D01*
X95983750Y-66505581D01*
X95963538Y-66498349D01*
X95944132Y-66489170D01*
X95925719Y-66478134D01*
X95908476Y-66465346D01*
X95892570Y-66450930D01*
X95878154Y-66435024D01*
X95865366Y-66417781D01*
X95854330Y-66399368D01*
X95845151Y-66379962D01*
X95837919Y-66359750D01*
X95832703Y-66338926D01*
X95829553Y-66317691D01*
X95828500Y-66296250D01*
X95828500Y-65783750D01*
X95829553Y-65762309D01*
X95832703Y-65741074D01*
X95837919Y-65720250D01*
X95845151Y-65700038D01*
X95854330Y-65680632D01*
X95865366Y-65662219D01*
X95878154Y-65644976D01*
X95892570Y-65629070D01*
X95908476Y-65614654D01*
X95925719Y-65601866D01*
X95944132Y-65590830D01*
X95963538Y-65581651D01*
X95983750Y-65574419D01*
X96004574Y-65569203D01*
X96025809Y-65566053D01*
X96047250Y-65565000D01*
X96484750Y-65565000D01*
X96506191Y-65566053D01*
G37*
G04 #@! TD.AperFunction*
G04 #@! TA.AperFunction,SMDPad,CuDef*
G36*
X94931191Y-65566053D02*
G01*
X94952426Y-65569203D01*
X94973250Y-65574419D01*
X94993462Y-65581651D01*
X95012868Y-65590830D01*
X95031281Y-65601866D01*
X95048524Y-65614654D01*
X95064430Y-65629070D01*
X95078846Y-65644976D01*
X95091634Y-65662219D01*
X95102670Y-65680632D01*
X95111849Y-65700038D01*
X95119081Y-65720250D01*
X95124297Y-65741074D01*
X95127447Y-65762309D01*
X95128500Y-65783750D01*
X95128500Y-66296250D01*
X95127447Y-66317691D01*
X95124297Y-66338926D01*
X95119081Y-66359750D01*
X95111849Y-66379962D01*
X95102670Y-66399368D01*
X95091634Y-66417781D01*
X95078846Y-66435024D01*
X95064430Y-66450930D01*
X95048524Y-66465346D01*
X95031281Y-66478134D01*
X95012868Y-66489170D01*
X94993462Y-66498349D01*
X94973250Y-66505581D01*
X94952426Y-66510797D01*
X94931191Y-66513947D01*
X94909750Y-66515000D01*
X94472250Y-66515000D01*
X94450809Y-66513947D01*
X94429574Y-66510797D01*
X94408750Y-66505581D01*
X94388538Y-66498349D01*
X94369132Y-66489170D01*
X94350719Y-66478134D01*
X94333476Y-66465346D01*
X94317570Y-66450930D01*
X94303154Y-66435024D01*
X94290366Y-66417781D01*
X94279330Y-66399368D01*
X94270151Y-66379962D01*
X94262919Y-66359750D01*
X94257703Y-66338926D01*
X94254553Y-66317691D01*
X94253500Y-66296250D01*
X94253500Y-65783750D01*
X94254553Y-65762309D01*
X94257703Y-65741074D01*
X94262919Y-65720250D01*
X94270151Y-65700038D01*
X94279330Y-65680632D01*
X94290366Y-65662219D01*
X94303154Y-65644976D01*
X94317570Y-65629070D01*
X94333476Y-65614654D01*
X94350719Y-65601866D01*
X94369132Y-65590830D01*
X94388538Y-65581651D01*
X94408750Y-65574419D01*
X94429574Y-65569203D01*
X94450809Y-65566053D01*
X94472250Y-65565000D01*
X94909750Y-65565000D01*
X94931191Y-65566053D01*
G37*
G04 #@! TD.AperFunction*
D15*
X80584000Y-70072000D03*
X79634000Y-68072000D03*
X81534000Y-68072000D03*
X85598000Y-70088000D03*
X84648000Y-68088000D03*
X86548000Y-68088000D03*
X90678000Y-70088000D03*
X89728000Y-68088000D03*
X91628000Y-68088000D03*
X95504000Y-70088000D03*
X94554000Y-68088000D03*
X96454000Y-68088000D03*
D16*
X91313000Y-55499000D03*
X92583000Y-55499000D03*
X93853000Y-55499000D03*
D17*
X90043000Y-55499000D03*
D16*
X95123000Y-55499000D03*
D17*
X96393000Y-55499000D03*
G04 #@! TA.AperFunction,SMDPad,CuDef*
D11*
G36*
X80532504Y-51570204D02*
G01*
X80556773Y-51573804D01*
X80580571Y-51579765D01*
X80603671Y-51588030D01*
X80625849Y-51598520D01*
X80646893Y-51611133D01*
X80666598Y-51625747D01*
X80684777Y-51642223D01*
X80701253Y-51660402D01*
X80715867Y-51680107D01*
X80728480Y-51701151D01*
X80738970Y-51723329D01*
X80747235Y-51746429D01*
X80753196Y-51770227D01*
X80756796Y-51794496D01*
X80758000Y-51819000D01*
X80758000Y-52569000D01*
X80756796Y-52593504D01*
X80753196Y-52617773D01*
X80747235Y-52641571D01*
X80738970Y-52664671D01*
X80728480Y-52686849D01*
X80715867Y-52707893D01*
X80701253Y-52727598D01*
X80684777Y-52745777D01*
X80666598Y-52762253D01*
X80646893Y-52776867D01*
X80625849Y-52789480D01*
X80603671Y-52799970D01*
X80580571Y-52808235D01*
X80556773Y-52814196D01*
X80532504Y-52817796D01*
X80508000Y-52819000D01*
X79258000Y-52819000D01*
X79233496Y-52817796D01*
X79209227Y-52814196D01*
X79185429Y-52808235D01*
X79162329Y-52799970D01*
X79140151Y-52789480D01*
X79119107Y-52776867D01*
X79099402Y-52762253D01*
X79081223Y-52745777D01*
X79064747Y-52727598D01*
X79050133Y-52707893D01*
X79037520Y-52686849D01*
X79027030Y-52664671D01*
X79018765Y-52641571D01*
X79012804Y-52617773D01*
X79009204Y-52593504D01*
X79008000Y-52569000D01*
X79008000Y-51819000D01*
X79009204Y-51794496D01*
X79012804Y-51770227D01*
X79018765Y-51746429D01*
X79027030Y-51723329D01*
X79037520Y-51701151D01*
X79050133Y-51680107D01*
X79064747Y-51660402D01*
X79081223Y-51642223D01*
X79099402Y-51625747D01*
X79119107Y-51611133D01*
X79140151Y-51598520D01*
X79162329Y-51588030D01*
X79185429Y-51579765D01*
X79209227Y-51573804D01*
X79233496Y-51570204D01*
X79258000Y-51569000D01*
X80508000Y-51569000D01*
X80532504Y-51570204D01*
G37*
G04 #@! TD.AperFunction*
G04 #@! TA.AperFunction,SMDPad,CuDef*
G36*
X80532504Y-54370204D02*
G01*
X80556773Y-54373804D01*
X80580571Y-54379765D01*
X80603671Y-54388030D01*
X80625849Y-54398520D01*
X80646893Y-54411133D01*
X80666598Y-54425747D01*
X80684777Y-54442223D01*
X80701253Y-54460402D01*
X80715867Y-54480107D01*
X80728480Y-54501151D01*
X80738970Y-54523329D01*
X80747235Y-54546429D01*
X80753196Y-54570227D01*
X80756796Y-54594496D01*
X80758000Y-54619000D01*
X80758000Y-55369000D01*
X80756796Y-55393504D01*
X80753196Y-55417773D01*
X80747235Y-55441571D01*
X80738970Y-55464671D01*
X80728480Y-55486849D01*
X80715867Y-55507893D01*
X80701253Y-55527598D01*
X80684777Y-55545777D01*
X80666598Y-55562253D01*
X80646893Y-55576867D01*
X80625849Y-55589480D01*
X80603671Y-55599970D01*
X80580571Y-55608235D01*
X80556773Y-55614196D01*
X80532504Y-55617796D01*
X80508000Y-55619000D01*
X79258000Y-55619000D01*
X79233496Y-55617796D01*
X79209227Y-55614196D01*
X79185429Y-55608235D01*
X79162329Y-55599970D01*
X79140151Y-55589480D01*
X79119107Y-55576867D01*
X79099402Y-55562253D01*
X79081223Y-55545777D01*
X79064747Y-55527598D01*
X79050133Y-55507893D01*
X79037520Y-55486849D01*
X79027030Y-55464671D01*
X79018765Y-55441571D01*
X79012804Y-55417773D01*
X79009204Y-55393504D01*
X79008000Y-55369000D01*
X79008000Y-54619000D01*
X79009204Y-54594496D01*
X79012804Y-54570227D01*
X79018765Y-54546429D01*
X79027030Y-54523329D01*
X79037520Y-54501151D01*
X79050133Y-54480107D01*
X79064747Y-54460402D01*
X79081223Y-54442223D01*
X79099402Y-54425747D01*
X79119107Y-54411133D01*
X79140151Y-54398520D01*
X79162329Y-54388030D01*
X79185429Y-54379765D01*
X79209227Y-54373804D01*
X79233496Y-54370204D01*
X79258000Y-54369000D01*
X80508000Y-54369000D01*
X80532504Y-54370204D01*
G37*
G04 #@! TD.AperFunction*
G04 #@! TA.AperFunction,SMDPad,CuDef*
G36*
X82192691Y-61234553D02*
G01*
X82213926Y-61237703D01*
X82234750Y-61242919D01*
X82254962Y-61250151D01*
X82274368Y-61259330D01*
X82292781Y-61270366D01*
X82310024Y-61283154D01*
X82325930Y-61297570D01*
X82340346Y-61313476D01*
X82353134Y-61330719D01*
X82364170Y-61349132D01*
X82373349Y-61368538D01*
X82380581Y-61388750D01*
X82385797Y-61409574D01*
X82388947Y-61430809D01*
X82390000Y-61452250D01*
X82390000Y-61889750D01*
X82388947Y-61911191D01*
X82385797Y-61932426D01*
X82380581Y-61953250D01*
X82373349Y-61973462D01*
X82364170Y-61992868D01*
X82353134Y-62011281D01*
X82340346Y-62028524D01*
X82325930Y-62044430D01*
X82310024Y-62058846D01*
X82292781Y-62071634D01*
X82274368Y-62082670D01*
X82254962Y-62091849D01*
X82234750Y-62099081D01*
X82213926Y-62104297D01*
X82192691Y-62107447D01*
X82171250Y-62108500D01*
X81658750Y-62108500D01*
X81637309Y-62107447D01*
X81616074Y-62104297D01*
X81595250Y-62099081D01*
X81575038Y-62091849D01*
X81555632Y-62082670D01*
X81537219Y-62071634D01*
X81519976Y-62058846D01*
X81504070Y-62044430D01*
X81489654Y-62028524D01*
X81476866Y-62011281D01*
X81465830Y-61992868D01*
X81456651Y-61973462D01*
X81449419Y-61953250D01*
X81444203Y-61932426D01*
X81441053Y-61911191D01*
X81440000Y-61889750D01*
X81440000Y-61452250D01*
X81441053Y-61430809D01*
X81444203Y-61409574D01*
X81449419Y-61388750D01*
X81456651Y-61368538D01*
X81465830Y-61349132D01*
X81476866Y-61330719D01*
X81489654Y-61313476D01*
X81504070Y-61297570D01*
X81519976Y-61283154D01*
X81537219Y-61270366D01*
X81555632Y-61259330D01*
X81575038Y-61250151D01*
X81595250Y-61242919D01*
X81616074Y-61237703D01*
X81637309Y-61234553D01*
X81658750Y-61233500D01*
X82171250Y-61233500D01*
X82192691Y-61234553D01*
G37*
G04 #@! TD.AperFunction*
G04 #@! TA.AperFunction,SMDPad,CuDef*
G36*
X82192691Y-62809553D02*
G01*
X82213926Y-62812703D01*
X82234750Y-62817919D01*
X82254962Y-62825151D01*
X82274368Y-62834330D01*
X82292781Y-62845366D01*
X82310024Y-62858154D01*
X82325930Y-62872570D01*
X82340346Y-62888476D01*
X82353134Y-62905719D01*
X82364170Y-62924132D01*
X82373349Y-62943538D01*
X82380581Y-62963750D01*
X82385797Y-62984574D01*
X82388947Y-63005809D01*
X82390000Y-63027250D01*
X82390000Y-63464750D01*
X82388947Y-63486191D01*
X82385797Y-63507426D01*
X82380581Y-63528250D01*
X82373349Y-63548462D01*
X82364170Y-63567868D01*
X82353134Y-63586281D01*
X82340346Y-63603524D01*
X82325930Y-63619430D01*
X82310024Y-63633846D01*
X82292781Y-63646634D01*
X82274368Y-63657670D01*
X82254962Y-63666849D01*
X82234750Y-63674081D01*
X82213926Y-63679297D01*
X82192691Y-63682447D01*
X82171250Y-63683500D01*
X81658750Y-63683500D01*
X81637309Y-63682447D01*
X81616074Y-63679297D01*
X81595250Y-63674081D01*
X81575038Y-63666849D01*
X81555632Y-63657670D01*
X81537219Y-63646634D01*
X81519976Y-63633846D01*
X81504070Y-63619430D01*
X81489654Y-63603524D01*
X81476866Y-63586281D01*
X81465830Y-63567868D01*
X81456651Y-63548462D01*
X81449419Y-63528250D01*
X81444203Y-63507426D01*
X81441053Y-63486191D01*
X81440000Y-63464750D01*
X81440000Y-63027250D01*
X81441053Y-63005809D01*
X81444203Y-62984574D01*
X81449419Y-62963750D01*
X81456651Y-62943538D01*
X81465830Y-62924132D01*
X81476866Y-62905719D01*
X81489654Y-62888476D01*
X81504070Y-62872570D01*
X81519976Y-62858154D01*
X81537219Y-62845366D01*
X81555632Y-62834330D01*
X81575038Y-62825151D01*
X81595250Y-62817919D01*
X81616074Y-62812703D01*
X81637309Y-62809553D01*
X81658750Y-62808500D01*
X82171250Y-62808500D01*
X82192691Y-62809553D01*
G37*
G04 #@! TD.AperFunction*
D18*
X81534000Y-53975000D03*
X83566000Y-58674000D03*
X81788000Y-71120000D03*
X82296000Y-64897000D03*
X92329000Y-64643000D03*
X79883000Y-56515000D03*
X88392000Y-53975000D03*
X96266000Y-53975000D03*
X94996000Y-54192000D03*
X97663000Y-65786000D03*
X95885000Y-61722000D03*
X86360000Y-64643000D03*
X86741000Y-70993000D03*
X83312000Y-70104000D03*
X83566000Y-65278000D03*
X80772000Y-60706000D03*
X83947000Y-54102000D03*
X88392000Y-64643000D03*
D19*
X85775000Y-60452000D02*
X84201000Y-60452000D01*
X83236000Y-59487000D02*
X81915000Y-59487000D01*
X84201000Y-60452000D02*
X83236000Y-59487000D01*
X81915000Y-59487000D02*
X81915000Y-61671000D01*
X81440000Y-61671000D02*
X80772000Y-62339000D01*
X81915000Y-61671000D02*
X81440000Y-61671000D01*
X80104000Y-63271500D02*
X79629000Y-63271500D01*
X80772000Y-62603500D02*
X80104000Y-63271500D01*
X80772000Y-62339000D02*
X80772000Y-62603500D01*
X84648000Y-66177000D02*
X84785000Y-66040000D01*
X84648000Y-68088000D02*
X84648000Y-66177000D01*
X79634000Y-66111000D02*
X79705000Y-66040000D01*
X79634000Y-68072000D02*
X79634000Y-66111000D01*
X89728000Y-66177000D02*
X89865000Y-66040000D01*
X89728000Y-68088000D02*
X89728000Y-66177000D01*
X94554000Y-66177000D02*
X94691000Y-66040000D01*
X94554000Y-68088000D02*
X94554000Y-66177000D01*
X94554000Y-68788000D02*
X94254000Y-69088000D01*
X94554000Y-68088000D02*
X94554000Y-68788000D01*
X89728000Y-69027000D02*
X89728000Y-68088000D01*
X89789000Y-69088000D02*
X89728000Y-69027000D01*
X89789000Y-69088000D02*
X85852000Y-69088000D01*
X94254000Y-69088000D02*
X89789000Y-69088000D01*
X84582000Y-69088000D02*
X84648000Y-69022000D01*
X84648000Y-69022000D02*
X84648000Y-68088000D01*
X85852000Y-69088000D02*
X84582000Y-69088000D01*
X79634000Y-69083000D02*
X79634000Y-68072000D01*
X79629000Y-69088000D02*
X79634000Y-69083000D01*
X84582000Y-69088000D02*
X79629000Y-69088000D01*
X79705000Y-63347500D02*
X79629000Y-63271500D01*
X79705000Y-66040000D02*
X79705000Y-63347500D01*
X94691000Y-63900000D02*
X94751000Y-63840000D01*
X94691000Y-66040000D02*
X94691000Y-63900000D01*
X94751000Y-63840000D02*
X94751000Y-63065000D01*
X94751000Y-63065000D02*
X94742000Y-60452000D01*
X92075000Y-60452000D02*
X94742000Y-60452000D01*
X94742000Y-60452000D02*
X94751000Y-59690000D01*
X82372000Y-54770000D02*
X82372000Y-55245000D01*
X79883000Y-52194000D02*
X82139994Y-52194000D01*
X87025000Y-60452000D02*
X85775000Y-60452000D01*
X87249000Y-60228000D02*
X87025000Y-60452000D01*
X87249000Y-57290998D02*
X87249000Y-60228000D01*
X91313000Y-54899000D02*
X91313000Y-55499000D01*
X89069401Y-54821599D02*
X91235599Y-54821599D01*
X91235599Y-54821599D02*
X91313000Y-54899000D01*
X87249000Y-56642000D02*
X89069401Y-54821599D01*
X87249000Y-57290998D02*
X87249000Y-56642000D01*
X87122000Y-56515000D02*
X87249000Y-56642000D01*
X83167000Y-56515000D02*
X87122000Y-56515000D01*
X82372000Y-55245000D02*
X82372000Y-55720000D01*
X82372000Y-55720000D02*
X83167000Y-56515000D01*
X81534000Y-53975000D02*
X82099685Y-53975000D01*
X82372000Y-52426006D02*
X82372000Y-55245000D01*
X82139994Y-52194000D02*
X82372000Y-52426006D01*
X82372000Y-54247315D02*
X82372000Y-55245000D01*
X82099685Y-53975000D02*
X82372000Y-54247315D01*
X79634000Y-72395000D02*
X80391000Y-73152000D01*
X79634000Y-68072000D02*
X79634000Y-72395000D01*
X82155000Y-58152000D02*
X81915000Y-57912000D01*
X81915000Y-57912000D02*
X79629000Y-57912000D01*
X85535000Y-57912000D02*
X85775000Y-58152000D01*
X83566000Y-58108315D02*
X83566000Y-57912000D01*
X81915000Y-57912000D02*
X83566000Y-57912000D01*
X83566000Y-58674000D02*
X83566000Y-58108315D01*
X83566000Y-57912000D02*
X85535000Y-57912000D01*
D20*
X85471000Y-73152000D02*
X82931000Y-73152000D01*
D19*
X82931000Y-73152000D02*
X82931000Y-72136000D01*
X82931000Y-72136000D02*
X82804000Y-72136000D01*
X82804000Y-72136000D02*
X81788000Y-71120000D01*
X85281000Y-63246000D02*
X85775000Y-62752000D01*
X81915000Y-63246000D02*
X85281000Y-63246000D01*
X82296000Y-63627000D02*
X81915000Y-63246000D01*
X82296000Y-64897000D02*
X82296000Y-62992000D01*
X85775000Y-62752000D02*
X85993000Y-62752000D01*
X85993000Y-62752000D02*
X86487000Y-63246000D01*
X90932000Y-63246000D02*
X92329000Y-64643000D01*
X88900000Y-60141998D02*
X91256998Y-57785000D01*
X94634500Y-57785000D02*
X95072000Y-57785000D01*
X88900000Y-63246000D02*
X88900000Y-60141998D01*
X86487000Y-63246000D02*
X88900000Y-63246000D01*
X91256998Y-57785000D02*
X94634500Y-57785000D01*
X88900000Y-63246000D02*
X90932000Y-63246000D01*
X90043000Y-56571002D02*
X90043000Y-55499000D01*
X91256998Y-57785000D02*
X90043000Y-56571002D01*
X79883000Y-56515000D02*
X79883000Y-54994000D01*
X96901000Y-63840000D02*
X96901000Y-59690000D01*
X96901000Y-58039000D02*
X96647000Y-57785000D01*
X96901000Y-59690000D02*
X96901000Y-58039000D01*
X92583000Y-56099000D02*
X93126000Y-56642000D01*
X92583000Y-55499000D02*
X92583000Y-56099000D01*
X95979000Y-56642000D02*
X96647000Y-57310000D01*
X96647000Y-57310000D02*
X96647000Y-57785000D01*
X93126000Y-56642000D02*
X95979000Y-56642000D01*
X91659000Y-53975000D02*
X88392000Y-53975000D01*
X92583000Y-55499000D02*
X92583000Y-54899000D01*
X92583000Y-54899000D02*
X91659000Y-53975000D01*
X95758000Y-53467000D02*
X96266000Y-53975000D01*
X94361000Y-53467000D02*
X95758000Y-53467000D01*
X93853000Y-55499000D02*
X93853000Y-53975000D01*
X93853000Y-53975000D02*
X94361000Y-53467000D01*
X94996000Y-55372000D02*
X95123000Y-55499000D01*
X94996000Y-54192000D02*
X94996000Y-55372000D01*
X96393000Y-55499000D02*
X97663000Y-56769000D01*
X97663000Y-56769000D02*
X97663000Y-65786000D01*
D20*
X95631000Y-70215000D02*
X95504000Y-70088000D01*
X95631000Y-73152000D02*
X95631000Y-70215000D01*
D19*
X96454000Y-66228000D02*
X96266000Y-66040000D01*
X96454000Y-68088000D02*
X96454000Y-66228000D01*
X96266000Y-65565000D02*
X95885000Y-65184000D01*
X96266000Y-66040000D02*
X96266000Y-65565000D01*
X95885000Y-65184000D02*
X95885000Y-61722000D01*
D20*
X91932000Y-70088000D02*
X90678000Y-70088000D01*
X93091000Y-73152000D02*
X93091000Y-71247000D01*
X93091000Y-71247000D02*
X91932000Y-70088000D01*
X88376000Y-70088000D02*
X85598000Y-70088000D01*
X90551000Y-73152000D02*
X90551000Y-72263000D01*
X90551000Y-72263000D02*
X88376000Y-70088000D01*
D19*
X86548000Y-66228000D02*
X86360000Y-66040000D01*
X86548000Y-68088000D02*
X86548000Y-66228000D01*
X86360000Y-66040000D02*
X86360000Y-64643000D01*
D20*
X88011000Y-73152000D02*
X88011000Y-72263000D01*
X88011000Y-72263000D02*
X86741000Y-70993000D01*
X80616000Y-70104000D02*
X80584000Y-70072000D01*
X83312000Y-70104000D02*
X80616000Y-70104000D01*
D19*
X81534000Y-66294000D02*
X81280000Y-66040000D01*
X81534000Y-68072000D02*
X81534000Y-66294000D01*
X81717500Y-66040000D02*
X81280000Y-66040000D01*
X83566000Y-65278000D02*
X82931000Y-66040000D01*
X82931000Y-66040000D02*
X81717500Y-66040000D01*
X80206315Y-60706000D02*
X79629000Y-60706000D01*
X79629000Y-59487000D02*
X79629000Y-60706000D01*
X80772000Y-60706000D02*
X80206315Y-60706000D01*
X79629000Y-60706000D02*
X79629000Y-61696500D01*
X83947000Y-55245000D02*
X83947000Y-54102000D01*
X91628000Y-66228000D02*
X91440000Y-66040000D01*
X91628000Y-68088000D02*
X91628000Y-66228000D01*
X91440000Y-65565000D02*
X91440000Y-66040000D01*
X90518000Y-64643000D02*
X91440000Y-65565000D01*
X88392000Y-64643000D02*
X90518000Y-64643000D01*
D21*
G36*
X97282000Y-55672409D02*
G01*
X97126400Y-55516809D01*
X97126400Y-55426766D01*
X97098216Y-55285075D01*
X97042931Y-55151605D01*
X96962669Y-55031485D01*
X96860515Y-54929331D01*
X96740395Y-54849069D01*
X96606925Y-54793784D01*
X96465234Y-54765600D01*
X96320766Y-54765600D01*
X96179075Y-54793784D01*
X96045605Y-54849069D01*
X95925485Y-54929331D01*
X95832665Y-55022151D01*
X95826701Y-55002492D01*
X95791322Y-54936304D01*
X95743711Y-54878289D01*
X95685696Y-54830678D01*
X95619508Y-54795299D01*
X95547689Y-54773513D01*
X95521561Y-54770940D01*
X95602642Y-54689859D01*
X95688113Y-54561942D01*
X95705783Y-54519284D01*
X95768141Y-54581642D01*
X95896058Y-54667113D01*
X96038191Y-54725987D01*
X96189078Y-54756000D01*
X96342922Y-54756000D01*
X96493809Y-54725987D01*
X96635942Y-54667113D01*
X96763859Y-54581642D01*
X96872642Y-54472859D01*
X96958113Y-54344942D01*
X97016987Y-54202809D01*
X97047000Y-54051922D01*
X97047000Y-53898078D01*
X97016987Y-53747191D01*
X96958113Y-53605058D01*
X96872642Y-53477141D01*
X96763859Y-53368358D01*
X96635942Y-53282887D01*
X96493809Y-53224013D01*
X96342922Y-53194000D01*
X96200591Y-53194000D01*
X96133376Y-53126785D01*
X96117527Y-53107473D01*
X96040479Y-53044241D01*
X95952575Y-52997255D01*
X95857193Y-52968322D01*
X95782854Y-52961000D01*
X95782846Y-52961000D01*
X95758000Y-52958553D01*
X95733154Y-52961000D01*
X94385845Y-52961000D01*
X94360999Y-52958553D01*
X94336153Y-52961000D01*
X94336146Y-52961000D01*
X94271694Y-52967348D01*
X94261806Y-52968322D01*
X94239607Y-52975056D01*
X94166425Y-52997255D01*
X94078521Y-53044241D01*
X94001473Y-53107473D01*
X93985628Y-53126780D01*
X93512780Y-53599629D01*
X93493474Y-53615473D01*
X93430242Y-53692521D01*
X93414349Y-53722255D01*
X93383255Y-53780426D01*
X93354322Y-53875808D01*
X93344553Y-53975000D01*
X93347001Y-53999856D01*
X93347000Y-54800372D01*
X93290304Y-54830678D01*
X93232289Y-54878289D01*
X93218000Y-54895700D01*
X93203711Y-54878289D01*
X93145696Y-54830678D01*
X93080466Y-54795811D01*
X93052745Y-54704425D01*
X93005759Y-54616521D01*
X92942527Y-54539473D01*
X92923220Y-54523628D01*
X92034376Y-53634785D01*
X92018527Y-53615473D01*
X91941479Y-53552241D01*
X91853575Y-53505255D01*
X91758193Y-53476322D01*
X91683854Y-53469000D01*
X91683846Y-53469000D01*
X91659000Y-53466553D01*
X91634154Y-53469000D01*
X88990501Y-53469000D01*
X88889859Y-53368358D01*
X88761942Y-53282887D01*
X88619809Y-53224013D01*
X88468922Y-53194000D01*
X88315078Y-53194000D01*
X88164191Y-53224013D01*
X88022058Y-53282887D01*
X87894141Y-53368358D01*
X87785358Y-53477141D01*
X87699887Y-53605058D01*
X87641013Y-53747191D01*
X87611000Y-53898078D01*
X87611000Y-54051922D01*
X87641013Y-54202809D01*
X87699887Y-54344942D01*
X87785358Y-54472859D01*
X87894141Y-54581642D01*
X88022058Y-54667113D01*
X88164191Y-54725987D01*
X88315078Y-54756000D01*
X88468922Y-54756000D01*
X88619809Y-54725987D01*
X88761942Y-54667113D01*
X88889859Y-54581642D01*
X88990501Y-54481000D01*
X91449409Y-54481000D01*
X91540579Y-54572171D01*
X91440000Y-54672750D01*
X91440000Y-55372000D01*
X91460000Y-55372000D01*
X91460000Y-55626000D01*
X91440000Y-55626000D01*
X91440000Y-56325250D01*
X91598750Y-56484000D01*
X91663000Y-56487072D01*
X91787482Y-56474812D01*
X91907180Y-56438502D01*
X92017494Y-56379537D01*
X92114185Y-56300185D01*
X92115762Y-56298264D01*
X92121769Y-56309502D01*
X92160242Y-56381479D01*
X92223474Y-56458527D01*
X92242780Y-56474371D01*
X92750628Y-56982220D01*
X92766473Y-57001527D01*
X92843521Y-57064759D01*
X92931425Y-57111745D01*
X93026807Y-57140678D01*
X93101146Y-57148000D01*
X93101154Y-57148000D01*
X93126000Y-57150447D01*
X93150846Y-57148000D01*
X94391225Y-57148000D01*
X94353044Y-57194523D01*
X94307890Y-57279000D01*
X91466590Y-57279000D01*
X90549000Y-56361411D01*
X90549000Y-56330702D01*
X90608506Y-56379537D01*
X90718820Y-56438502D01*
X90838518Y-56474812D01*
X90963000Y-56487072D01*
X91027250Y-56484000D01*
X91186000Y-56325250D01*
X91186000Y-55626000D01*
X91166000Y-55626000D01*
X91166000Y-55372000D01*
X91186000Y-55372000D01*
X91186000Y-54672750D01*
X91027250Y-54514000D01*
X90963000Y-54510928D01*
X90838518Y-54523188D01*
X90718820Y-54559498D01*
X90608506Y-54618463D01*
X90511815Y-54697815D01*
X90432463Y-54794506D01*
X90399902Y-54855422D01*
X90390395Y-54849069D01*
X90256925Y-54793784D01*
X90115234Y-54765600D01*
X89970766Y-54765600D01*
X89829075Y-54793784D01*
X89695605Y-54849069D01*
X89575485Y-54929331D01*
X89473331Y-55031485D01*
X89393069Y-55151605D01*
X89337784Y-55285075D01*
X89309600Y-55426766D01*
X89309600Y-55571234D01*
X89337784Y-55712925D01*
X89393069Y-55846395D01*
X89473331Y-55966515D01*
X89537001Y-56030185D01*
X89537000Y-56546155D01*
X89534553Y-56571002D01*
X89537000Y-56595848D01*
X89537000Y-56595855D01*
X89544322Y-56670194D01*
X89573255Y-56765576D01*
X89620241Y-56853481D01*
X89683473Y-56930529D01*
X89702785Y-56946378D01*
X90541406Y-57785000D01*
X88559781Y-59766626D01*
X88540474Y-59782471D01*
X88477242Y-59859519D01*
X88463850Y-59884574D01*
X88430255Y-59947424D01*
X88401322Y-60042806D01*
X88391553Y-60141998D01*
X88394001Y-60166854D01*
X88394000Y-62740000D01*
X87157843Y-62740000D01*
X87157843Y-62002000D01*
X87150487Y-61927311D01*
X87128701Y-61855492D01*
X87093322Y-61789304D01*
X87071969Y-61763285D01*
X87129494Y-61732537D01*
X87226185Y-61653185D01*
X87305537Y-61556494D01*
X87364502Y-61446180D01*
X87400812Y-61326482D01*
X87413072Y-61202000D01*
X87410000Y-60737750D01*
X87251250Y-60579000D01*
X85902000Y-60579000D01*
X85902000Y-60599000D01*
X85648000Y-60599000D01*
X85648000Y-60579000D01*
X84298750Y-60579000D01*
X84140000Y-60737750D01*
X84136928Y-61202000D01*
X84149188Y-61326482D01*
X84185498Y-61446180D01*
X84244463Y-61556494D01*
X84323815Y-61653185D01*
X84420506Y-61732537D01*
X84478031Y-61763285D01*
X84456678Y-61789304D01*
X84421299Y-61855492D01*
X84399513Y-61927311D01*
X84392157Y-62002000D01*
X84392157Y-62740000D01*
X82735050Y-62740000D01*
X82718759Y-62709521D01*
X82686399Y-62670090D01*
X82744494Y-62639037D01*
X82841185Y-62559685D01*
X82920537Y-62462994D01*
X82979502Y-62352680D01*
X83015812Y-62232982D01*
X83028072Y-62108500D01*
X83025000Y-61956750D01*
X82866250Y-61798000D01*
X82042000Y-61798000D01*
X82042000Y-61818000D01*
X81788000Y-61818000D01*
X81788000Y-61798000D01*
X80963750Y-61798000D01*
X80805000Y-61956750D01*
X80801928Y-62108500D01*
X80814188Y-62232982D01*
X80850498Y-62352680D01*
X80909463Y-62462994D01*
X80988815Y-62559685D01*
X81085506Y-62639037D01*
X81167070Y-62682634D01*
X81158544Y-62693023D01*
X81102951Y-62797030D01*
X81068716Y-62909885D01*
X81057157Y-63027250D01*
X81057157Y-63464750D01*
X81068716Y-63582115D01*
X81102951Y-63694970D01*
X81158544Y-63798977D01*
X81233360Y-63890140D01*
X81324523Y-63964956D01*
X81428530Y-64020549D01*
X81541385Y-64054784D01*
X81658750Y-64066343D01*
X81790000Y-64066343D01*
X81790000Y-64298499D01*
X81689358Y-64399141D01*
X81603887Y-64527058D01*
X81545013Y-64669191D01*
X81515000Y-64820078D01*
X81515000Y-64973922D01*
X81545013Y-65124809D01*
X81571745Y-65189346D01*
X81498750Y-65182157D01*
X81061250Y-65182157D01*
X80943885Y-65193716D01*
X80831030Y-65227951D01*
X80727023Y-65283544D01*
X80716634Y-65292070D01*
X80673037Y-65210506D01*
X80593685Y-65113815D01*
X80496994Y-65034463D01*
X80386680Y-64975498D01*
X80266982Y-64939188D01*
X80142500Y-64926928D01*
X79990750Y-64930000D01*
X79832000Y-65088750D01*
X79832000Y-65913000D01*
X79852000Y-65913000D01*
X79852000Y-66167000D01*
X79832000Y-66167000D01*
X79832000Y-66991250D01*
X79873750Y-67033000D01*
X79761000Y-67145750D01*
X79761000Y-67945000D01*
X80510250Y-67945000D01*
X80669000Y-67786250D01*
X80672072Y-67622000D01*
X80659812Y-67497518D01*
X80623502Y-67377820D01*
X80564537Y-67267506D01*
X80485185Y-67170815D01*
X80397400Y-67098772D01*
X80496994Y-67045537D01*
X80593685Y-66966185D01*
X80673037Y-66869494D01*
X80716634Y-66787930D01*
X80727023Y-66796456D01*
X80831030Y-66852049D01*
X80943885Y-66886284D01*
X81028001Y-66894568D01*
X81028000Y-67256011D01*
X80987492Y-67268299D01*
X80921304Y-67303678D01*
X80863289Y-67351289D01*
X80815678Y-67409304D01*
X80780299Y-67475492D01*
X80758513Y-67547311D01*
X80751157Y-67622000D01*
X80751157Y-68522000D01*
X80758513Y-68596689D01*
X80780299Y-68668508D01*
X80815678Y-68734696D01*
X80863289Y-68792711D01*
X80921304Y-68840322D01*
X80987492Y-68875701D01*
X81059311Y-68897487D01*
X81134000Y-68904843D01*
X81934000Y-68904843D01*
X82008689Y-68897487D01*
X82080508Y-68875701D01*
X82146696Y-68840322D01*
X82204711Y-68792711D01*
X82252322Y-68734696D01*
X82287701Y-68668508D01*
X82309487Y-68596689D01*
X82315267Y-68538000D01*
X83609928Y-68538000D01*
X83622188Y-68662482D01*
X83658498Y-68782180D01*
X83717463Y-68892494D01*
X83796815Y-68989185D01*
X83893506Y-69068537D01*
X84003820Y-69127502D01*
X84123518Y-69163812D01*
X84248000Y-69176072D01*
X84362250Y-69173000D01*
X84521000Y-69014250D01*
X84521000Y-68215000D01*
X84775000Y-68215000D01*
X84775000Y-69014250D01*
X84933750Y-69173000D01*
X85048000Y-69176072D01*
X85172482Y-69163812D01*
X85292180Y-69127502D01*
X85402494Y-69068537D01*
X85499185Y-68989185D01*
X85578537Y-68892494D01*
X85637502Y-68782180D01*
X85673812Y-68662482D01*
X85686072Y-68538000D01*
X85683000Y-68373750D01*
X85524250Y-68215000D01*
X84775000Y-68215000D01*
X84521000Y-68215000D01*
X83771750Y-68215000D01*
X83613000Y-68373750D01*
X83609928Y-68538000D01*
X82315267Y-68538000D01*
X82316843Y-68522000D01*
X82316843Y-67622000D01*
X82309487Y-67547311D01*
X82287701Y-67475492D01*
X82252322Y-67409304D01*
X82204711Y-67351289D01*
X82146696Y-67303678D01*
X82080508Y-67268299D01*
X82040000Y-67256011D01*
X82040000Y-66553689D01*
X82044110Y-66546000D01*
X82929196Y-66546000D01*
X82977032Y-66546359D01*
X83003433Y-66541314D01*
X83030193Y-66538678D01*
X83052272Y-66531980D01*
X83074933Y-66527650D01*
X83099845Y-66517550D01*
X83125575Y-66509745D01*
X83145924Y-66498868D01*
X83167304Y-66490200D01*
X83189767Y-66475433D01*
X83213479Y-66462759D01*
X83231318Y-66448119D01*
X83250593Y-66435448D01*
X83269739Y-66416588D01*
X83290527Y-66399527D01*
X83321005Y-66362389D01*
X83573830Y-66059000D01*
X83642922Y-66059000D01*
X83712500Y-66045160D01*
X83712500Y-66167002D01*
X83871248Y-66167002D01*
X83712500Y-66325750D01*
X83709428Y-66515000D01*
X83721688Y-66639482D01*
X83757998Y-66759180D01*
X83816963Y-66869494D01*
X83896315Y-66966185D01*
X83993006Y-67045537D01*
X84001183Y-67049908D01*
X83893506Y-67107463D01*
X83796815Y-67186815D01*
X83717463Y-67283506D01*
X83658498Y-67393820D01*
X83622188Y-67513518D01*
X83609928Y-67638000D01*
X83613000Y-67802250D01*
X83771750Y-67961000D01*
X84521000Y-67961000D01*
X84521000Y-67161750D01*
X84504250Y-67145000D01*
X84658000Y-66991250D01*
X84658000Y-66167000D01*
X84638000Y-66167000D01*
X84638000Y-65913000D01*
X84658000Y-65913000D01*
X84658000Y-65088750D01*
X84499250Y-64930000D01*
X84347500Y-64926928D01*
X84269127Y-64934647D01*
X84258113Y-64908058D01*
X84172642Y-64780141D01*
X84063859Y-64671358D01*
X83935942Y-64585887D01*
X83793809Y-64527013D01*
X83642922Y-64497000D01*
X83489078Y-64497000D01*
X83338191Y-64527013D01*
X83196058Y-64585887D01*
X83068141Y-64671358D01*
X83050856Y-64688643D01*
X83046987Y-64669191D01*
X82988113Y-64527058D01*
X82902642Y-64399141D01*
X82802000Y-64298499D01*
X82802000Y-63752000D01*
X84487292Y-63752000D01*
X84504289Y-63772711D01*
X84562304Y-63820322D01*
X84628492Y-63855701D01*
X84700311Y-63877487D01*
X84775000Y-63884843D01*
X86168237Y-63884843D01*
X86132191Y-63892013D01*
X85990058Y-63950887D01*
X85862141Y-64036358D01*
X85753358Y-64145141D01*
X85667887Y-64273058D01*
X85609013Y-64415191D01*
X85579000Y-64566078D01*
X85579000Y-64719922D01*
X85609013Y-64870809D01*
X85667887Y-65012942D01*
X85753358Y-65140859D01*
X85854001Y-65241502D01*
X85854001Y-65258434D01*
X85807023Y-65283544D01*
X85796634Y-65292070D01*
X85753037Y-65210506D01*
X85673685Y-65113815D01*
X85576994Y-65034463D01*
X85466680Y-64975498D01*
X85346982Y-64939188D01*
X85222500Y-64926928D01*
X85070750Y-64930000D01*
X84912000Y-65088750D01*
X84912000Y-65913000D01*
X84932000Y-65913000D01*
X84932000Y-66167000D01*
X84912000Y-66167000D01*
X84912000Y-66991250D01*
X84928750Y-67008000D01*
X84775000Y-67161750D01*
X84775000Y-67961000D01*
X85524250Y-67961000D01*
X85683000Y-67802250D01*
X85686072Y-67638000D01*
X85673812Y-67513518D01*
X85637502Y-67393820D01*
X85578537Y-67283506D01*
X85499185Y-67186815D01*
X85417182Y-67119517D01*
X85466680Y-67104502D01*
X85576994Y-67045537D01*
X85673685Y-66966185D01*
X85753037Y-66869494D01*
X85796634Y-66787930D01*
X85807023Y-66796456D01*
X85911030Y-66852049D01*
X86023885Y-66886284D01*
X86042001Y-66888068D01*
X86042000Y-67272011D01*
X86001492Y-67284299D01*
X85935304Y-67319678D01*
X85877289Y-67367289D01*
X85829678Y-67425304D01*
X85794299Y-67491492D01*
X85772513Y-67563311D01*
X85765157Y-67638000D01*
X85765157Y-68538000D01*
X85772513Y-68612689D01*
X85794299Y-68684508D01*
X85829678Y-68750696D01*
X85877289Y-68808711D01*
X85935304Y-68856322D01*
X86001492Y-68891701D01*
X86073311Y-68913487D01*
X86148000Y-68920843D01*
X86948000Y-68920843D01*
X87022689Y-68913487D01*
X87094508Y-68891701D01*
X87160696Y-68856322D01*
X87218711Y-68808711D01*
X87266322Y-68750696D01*
X87301701Y-68684508D01*
X87323487Y-68612689D01*
X87330843Y-68538000D01*
X88689928Y-68538000D01*
X88702188Y-68662482D01*
X88738498Y-68782180D01*
X88797463Y-68892494D01*
X88876815Y-68989185D01*
X88973506Y-69068537D01*
X89083820Y-69127502D01*
X89203518Y-69163812D01*
X89328000Y-69176072D01*
X89442250Y-69173000D01*
X89601000Y-69014250D01*
X89601000Y-68215000D01*
X89855000Y-68215000D01*
X89855000Y-69014250D01*
X90013750Y-69173000D01*
X90128000Y-69176072D01*
X90252482Y-69163812D01*
X90372180Y-69127502D01*
X90482494Y-69068537D01*
X90579185Y-68989185D01*
X90658537Y-68892494D01*
X90717502Y-68782180D01*
X90753812Y-68662482D01*
X90766072Y-68538000D01*
X90763000Y-68373750D01*
X90604250Y-68215000D01*
X89855000Y-68215000D01*
X89601000Y-68215000D01*
X88851750Y-68215000D01*
X88693000Y-68373750D01*
X88689928Y-68538000D01*
X87330843Y-68538000D01*
X87330843Y-67638000D01*
X88689928Y-67638000D01*
X88693000Y-67802250D01*
X88851750Y-67961000D01*
X89601000Y-67961000D01*
X89601000Y-67161750D01*
X89584250Y-67145000D01*
X89738000Y-66991250D01*
X89738000Y-66167000D01*
X88951250Y-66167000D01*
X88792500Y-66325750D01*
X88789428Y-66515000D01*
X88801688Y-66639482D01*
X88837998Y-66759180D01*
X88896963Y-66869494D01*
X88976315Y-66966185D01*
X89073006Y-67045537D01*
X89081183Y-67049908D01*
X88973506Y-67107463D01*
X88876815Y-67186815D01*
X88797463Y-67283506D01*
X88738498Y-67393820D01*
X88702188Y-67513518D01*
X88689928Y-67638000D01*
X87330843Y-67638000D01*
X87323487Y-67563311D01*
X87301701Y-67491492D01*
X87266322Y-67425304D01*
X87218711Y-67367289D01*
X87160696Y-67319678D01*
X87094508Y-67284299D01*
X87054000Y-67272011D01*
X87054000Y-66660886D01*
X87078956Y-66630477D01*
X87134549Y-66526470D01*
X87168784Y-66413615D01*
X87180343Y-66296250D01*
X87180343Y-65783750D01*
X87168784Y-65666385D01*
X87134549Y-65553530D01*
X87078956Y-65449523D01*
X87004140Y-65358360D01*
X86912977Y-65283544D01*
X86866000Y-65258434D01*
X86866000Y-65241501D01*
X86966642Y-65140859D01*
X87052113Y-65012942D01*
X87110987Y-64870809D01*
X87141000Y-64719922D01*
X87141000Y-64566078D01*
X87110987Y-64415191D01*
X87052113Y-64273058D01*
X86966642Y-64145141D01*
X86857859Y-64036358D01*
X86729942Y-63950887D01*
X86587809Y-63892013D01*
X86551763Y-63884843D01*
X86775000Y-63884843D01*
X86849689Y-63877487D01*
X86921508Y-63855701D01*
X86987696Y-63820322D01*
X87045711Y-63772711D01*
X87062708Y-63752000D01*
X88875146Y-63752000D01*
X88900000Y-63754448D01*
X88924854Y-63752000D01*
X90722409Y-63752000D01*
X91548000Y-64577592D01*
X91548000Y-64719922D01*
X91578013Y-64870809D01*
X91636887Y-65012942D01*
X91704048Y-65113456D01*
X90893376Y-64302785D01*
X90877527Y-64283473D01*
X90800479Y-64220241D01*
X90712575Y-64173255D01*
X90617193Y-64144322D01*
X90542854Y-64137000D01*
X90542846Y-64137000D01*
X90518000Y-64134553D01*
X90493154Y-64137000D01*
X88990501Y-64137000D01*
X88889859Y-64036358D01*
X88761942Y-63950887D01*
X88619809Y-63892013D01*
X88468922Y-63862000D01*
X88315078Y-63862000D01*
X88164191Y-63892013D01*
X88022058Y-63950887D01*
X87894141Y-64036358D01*
X87785358Y-64145141D01*
X87699887Y-64273058D01*
X87641013Y-64415191D01*
X87611000Y-64566078D01*
X87611000Y-64719922D01*
X87641013Y-64870809D01*
X87699887Y-65012942D01*
X87785358Y-65140859D01*
X87894141Y-65249642D01*
X88022058Y-65335113D01*
X88164191Y-65393987D01*
X88315078Y-65424000D01*
X88468922Y-65424000D01*
X88619809Y-65393987D01*
X88761942Y-65335113D01*
X88868369Y-65264001D01*
X88837998Y-65320820D01*
X88801688Y-65440518D01*
X88789428Y-65565000D01*
X88792500Y-65754250D01*
X88951250Y-65913000D01*
X89738000Y-65913000D01*
X89738000Y-65893000D01*
X89992000Y-65893000D01*
X89992000Y-65913000D01*
X90012000Y-65913000D01*
X90012000Y-66167000D01*
X89992000Y-66167000D01*
X89992000Y-66991250D01*
X90008750Y-67008000D01*
X89855000Y-67161750D01*
X89855000Y-67961000D01*
X90604250Y-67961000D01*
X90763000Y-67802250D01*
X90766072Y-67638000D01*
X90753812Y-67513518D01*
X90717502Y-67393820D01*
X90658537Y-67283506D01*
X90579185Y-67186815D01*
X90497182Y-67119517D01*
X90546680Y-67104502D01*
X90656994Y-67045537D01*
X90753685Y-66966185D01*
X90833037Y-66869494D01*
X90876634Y-66787930D01*
X90887023Y-66796456D01*
X90991030Y-66852049D01*
X91103885Y-66886284D01*
X91122001Y-66888068D01*
X91122000Y-67272011D01*
X91081492Y-67284299D01*
X91015304Y-67319678D01*
X90957289Y-67367289D01*
X90909678Y-67425304D01*
X90874299Y-67491492D01*
X90852513Y-67563311D01*
X90845157Y-67638000D01*
X90845157Y-68538000D01*
X90852513Y-68612689D01*
X90874299Y-68684508D01*
X90909678Y-68750696D01*
X90957289Y-68808711D01*
X91015304Y-68856322D01*
X91081492Y-68891701D01*
X91153311Y-68913487D01*
X91228000Y-68920843D01*
X92028000Y-68920843D01*
X92102689Y-68913487D01*
X92174508Y-68891701D01*
X92240696Y-68856322D01*
X92298711Y-68808711D01*
X92346322Y-68750696D01*
X92381701Y-68684508D01*
X92403487Y-68612689D01*
X92410843Y-68538000D01*
X93515928Y-68538000D01*
X93528188Y-68662482D01*
X93564498Y-68782180D01*
X93623463Y-68892494D01*
X93702815Y-68989185D01*
X93799506Y-69068537D01*
X93909820Y-69127502D01*
X94029518Y-69163812D01*
X94154000Y-69176072D01*
X94268250Y-69173000D01*
X94427000Y-69014250D01*
X94427000Y-68215000D01*
X94681000Y-68215000D01*
X94681000Y-69014250D01*
X94839750Y-69173000D01*
X94954000Y-69176072D01*
X95078482Y-69163812D01*
X95198180Y-69127502D01*
X95308494Y-69068537D01*
X95405185Y-68989185D01*
X95484537Y-68892494D01*
X95543502Y-68782180D01*
X95579812Y-68662482D01*
X95592072Y-68538000D01*
X95589000Y-68373750D01*
X95430250Y-68215000D01*
X94681000Y-68215000D01*
X94427000Y-68215000D01*
X93677750Y-68215000D01*
X93519000Y-68373750D01*
X93515928Y-68538000D01*
X92410843Y-68538000D01*
X92410843Y-67638000D01*
X93515928Y-67638000D01*
X93519000Y-67802250D01*
X93677750Y-67961000D01*
X94427000Y-67961000D01*
X94427000Y-67161750D01*
X94410250Y-67145000D01*
X94564000Y-66991250D01*
X94564000Y-66167000D01*
X93777250Y-66167000D01*
X93618500Y-66325750D01*
X93615428Y-66515000D01*
X93627688Y-66639482D01*
X93663998Y-66759180D01*
X93722963Y-66869494D01*
X93802315Y-66966185D01*
X93899006Y-67045537D01*
X93907183Y-67049908D01*
X93799506Y-67107463D01*
X93702815Y-67186815D01*
X93623463Y-67283506D01*
X93564498Y-67393820D01*
X93528188Y-67513518D01*
X93515928Y-67638000D01*
X92410843Y-67638000D01*
X92403487Y-67563311D01*
X92381701Y-67491492D01*
X92346322Y-67425304D01*
X92298711Y-67367289D01*
X92240696Y-67319678D01*
X92174508Y-67284299D01*
X92134000Y-67272011D01*
X92134000Y-66660886D01*
X92158956Y-66630477D01*
X92214549Y-66526470D01*
X92248784Y-66413615D01*
X92260343Y-66296250D01*
X92260343Y-65783750D01*
X92248784Y-65666385D01*
X92218029Y-65565000D01*
X93615428Y-65565000D01*
X93618500Y-65754250D01*
X93777250Y-65913000D01*
X94564000Y-65913000D01*
X94564000Y-65088750D01*
X94470250Y-64995000D01*
X94624000Y-64841250D01*
X94624000Y-63967000D01*
X93949750Y-63967000D01*
X93791000Y-64125750D01*
X93787928Y-64365000D01*
X93800188Y-64489482D01*
X93836498Y-64609180D01*
X93895463Y-64719494D01*
X93974815Y-64816185D01*
X94071506Y-64895537D01*
X94149412Y-64937179D01*
X94129018Y-64939188D01*
X94009320Y-64975498D01*
X93899006Y-65034463D01*
X93802315Y-65113815D01*
X93722963Y-65210506D01*
X93663998Y-65320820D01*
X93627688Y-65440518D01*
X93615428Y-65565000D01*
X92218029Y-65565000D01*
X92214549Y-65553530D01*
X92158956Y-65449523D01*
X92115756Y-65396884D01*
X92252078Y-65424000D01*
X92405922Y-65424000D01*
X92556809Y-65393987D01*
X92698942Y-65335113D01*
X92826859Y-65249642D01*
X92935642Y-65140859D01*
X93021113Y-65012942D01*
X93079987Y-64870809D01*
X93110000Y-64719922D01*
X93110000Y-64566078D01*
X93079987Y-64415191D01*
X93021113Y-64273058D01*
X92935642Y-64145141D01*
X92826859Y-64036358D01*
X92698942Y-63950887D01*
X92556809Y-63892013D01*
X92405922Y-63862000D01*
X92263592Y-63862000D01*
X91716592Y-63315000D01*
X93787928Y-63315000D01*
X93791000Y-63554250D01*
X93949750Y-63713000D01*
X94624000Y-63713000D01*
X94624000Y-62838750D01*
X94465250Y-62680000D01*
X94426000Y-62676928D01*
X94301518Y-62689188D01*
X94181820Y-62725498D01*
X94071506Y-62784463D01*
X93974815Y-62863815D01*
X93895463Y-62960506D01*
X93836498Y-63070820D01*
X93800188Y-63190518D01*
X93787928Y-63315000D01*
X91716592Y-63315000D01*
X91390307Y-62988716D01*
X91789250Y-62987000D01*
X91948000Y-62828250D01*
X91948000Y-60579000D01*
X92202000Y-60579000D01*
X92202000Y-62828250D01*
X92360750Y-62987000D01*
X93075000Y-62990072D01*
X93199482Y-62977812D01*
X93319180Y-62941502D01*
X93429494Y-62882537D01*
X93526185Y-62803185D01*
X93605537Y-62706494D01*
X93664502Y-62596180D01*
X93700812Y-62476482D01*
X93713072Y-62352000D01*
X93710000Y-60737750D01*
X93551250Y-60579000D01*
X92202000Y-60579000D01*
X91948000Y-60579000D01*
X90598750Y-60579000D01*
X90440000Y-60737750D01*
X90436928Y-62352000D01*
X90449188Y-62476482D01*
X90485498Y-62596180D01*
X90544463Y-62706494D01*
X90571961Y-62740000D01*
X89406000Y-62740000D01*
X89406000Y-60351589D01*
X90438388Y-59319201D01*
X90440000Y-60166250D01*
X90598750Y-60325000D01*
X91948000Y-60325000D01*
X91948000Y-60305000D01*
X92202000Y-60305000D01*
X92202000Y-60325000D01*
X93551250Y-60325000D01*
X93661250Y-60215000D01*
X93787928Y-60215000D01*
X93800188Y-60339482D01*
X93836498Y-60459180D01*
X93895463Y-60569494D01*
X93974815Y-60666185D01*
X94071506Y-60745537D01*
X94181820Y-60804502D01*
X94301518Y-60840812D01*
X94426000Y-60853072D01*
X94465250Y-60850000D01*
X94624000Y-60691250D01*
X94624000Y-59817000D01*
X94878000Y-59817000D01*
X94878000Y-60691250D01*
X95036750Y-60850000D01*
X95076000Y-60853072D01*
X95200482Y-60840812D01*
X95320180Y-60804502D01*
X95430494Y-60745537D01*
X95527185Y-60666185D01*
X95606537Y-60569494D01*
X95665502Y-60459180D01*
X95701812Y-60339482D01*
X95714072Y-60215000D01*
X95711000Y-59975750D01*
X95552250Y-59817000D01*
X94878000Y-59817000D01*
X94624000Y-59817000D01*
X93949750Y-59817000D01*
X93791000Y-59975750D01*
X93787928Y-60215000D01*
X93661250Y-60215000D01*
X93710000Y-60166250D01*
X93713072Y-58552000D01*
X93700812Y-58427518D01*
X93664502Y-58307820D01*
X93655511Y-58291000D01*
X94307890Y-58291000D01*
X94353044Y-58375477D01*
X94427860Y-58466640D01*
X94519023Y-58541456D01*
X94623030Y-58597049D01*
X94623998Y-58597343D01*
X94623998Y-58688748D01*
X94465250Y-58530000D01*
X94426000Y-58526928D01*
X94301518Y-58539188D01*
X94181820Y-58575498D01*
X94071506Y-58634463D01*
X93974815Y-58713815D01*
X93895463Y-58810506D01*
X93836498Y-58920820D01*
X93800188Y-59040518D01*
X93787928Y-59165000D01*
X93791000Y-59404250D01*
X93949750Y-59563000D01*
X94624000Y-59563000D01*
X94624000Y-59543000D01*
X94878000Y-59543000D01*
X94878000Y-59563000D01*
X95552250Y-59563000D01*
X95711000Y-59404250D01*
X95714072Y-59165000D01*
X95701812Y-59040518D01*
X95665502Y-58920820D01*
X95606537Y-58810506D01*
X95527185Y-58713815D01*
X95430494Y-58634463D01*
X95418598Y-58628104D01*
X95520970Y-58597049D01*
X95624977Y-58541456D01*
X95716140Y-58466640D01*
X95790956Y-58375477D01*
X95846549Y-58271470D01*
X95859500Y-58228777D01*
X95872451Y-58271470D01*
X95928044Y-58375477D01*
X96002860Y-58466640D01*
X96094023Y-58541456D01*
X96198030Y-58597049D01*
X96310885Y-58631284D01*
X96395001Y-58639568D01*
X96395001Y-58829735D01*
X96363304Y-58846678D01*
X96305289Y-58894289D01*
X96257678Y-58952304D01*
X96222299Y-59018492D01*
X96200513Y-59090311D01*
X96193157Y-59165000D01*
X96193157Y-60215000D01*
X96200513Y-60289689D01*
X96222299Y-60361508D01*
X96257678Y-60427696D01*
X96305289Y-60485711D01*
X96363304Y-60533322D01*
X96395001Y-60550265D01*
X96395001Y-61127500D01*
X96382859Y-61115358D01*
X96254942Y-61029887D01*
X96112809Y-60971013D01*
X95961922Y-60941000D01*
X95808078Y-60941000D01*
X95657191Y-60971013D01*
X95515058Y-61029887D01*
X95387141Y-61115358D01*
X95278358Y-61224141D01*
X95192887Y-61352058D01*
X95134013Y-61494191D01*
X95104000Y-61645078D01*
X95104000Y-61798922D01*
X95134013Y-61949809D01*
X95192887Y-62091942D01*
X95278358Y-62219859D01*
X95379001Y-62320502D01*
X95379001Y-62756939D01*
X95320180Y-62725498D01*
X95200482Y-62689188D01*
X95076000Y-62676928D01*
X95036750Y-62680000D01*
X94878000Y-62838750D01*
X94878000Y-63713000D01*
X94898000Y-63713000D01*
X94898000Y-63967000D01*
X94878000Y-63967000D01*
X94878000Y-64841250D01*
X94971750Y-64935000D01*
X94818000Y-65088750D01*
X94818000Y-65913000D01*
X94838000Y-65913000D01*
X94838000Y-66167000D01*
X94818000Y-66167000D01*
X94818000Y-66991250D01*
X94834750Y-67008000D01*
X94681000Y-67161750D01*
X94681000Y-67961000D01*
X95430250Y-67961000D01*
X95589000Y-67802250D01*
X95592072Y-67638000D01*
X95579812Y-67513518D01*
X95543502Y-67393820D01*
X95484537Y-67283506D01*
X95405185Y-67186815D01*
X95323182Y-67119517D01*
X95372680Y-67104502D01*
X95482994Y-67045537D01*
X95579685Y-66966185D01*
X95659037Y-66869494D01*
X95702634Y-66787930D01*
X95713023Y-66796456D01*
X95817030Y-66852049D01*
X95929885Y-66886284D01*
X95948001Y-66888068D01*
X95948000Y-67272011D01*
X95907492Y-67284299D01*
X95841304Y-67319678D01*
X95783289Y-67367289D01*
X95735678Y-67425304D01*
X95700299Y-67491492D01*
X95678513Y-67563311D01*
X95671157Y-67638000D01*
X95671157Y-68538000D01*
X95678513Y-68612689D01*
X95700299Y-68684508D01*
X95735678Y-68750696D01*
X95783289Y-68808711D01*
X95841304Y-68856322D01*
X95907492Y-68891701D01*
X95979311Y-68913487D01*
X96054000Y-68920843D01*
X96854000Y-68920843D01*
X96928689Y-68913487D01*
X97000508Y-68891701D01*
X97066696Y-68856322D01*
X97124711Y-68808711D01*
X97172322Y-68750696D01*
X97207701Y-68684508D01*
X97229487Y-68612689D01*
X97236843Y-68538000D01*
X97236843Y-67638000D01*
X97229487Y-67563311D01*
X97207701Y-67491492D01*
X97172322Y-67425304D01*
X97124711Y-67367289D01*
X97066696Y-67319678D01*
X97000508Y-67284299D01*
X96960000Y-67272011D01*
X96960000Y-66660886D01*
X96984956Y-66630477D01*
X97040549Y-66526470D01*
X97074784Y-66413615D01*
X97084766Y-66312267D01*
X97165141Y-66392642D01*
X97282000Y-66470724D01*
X97282000Y-77953000D01*
X79191654Y-77953000D01*
X79043829Y-77938506D01*
X78920731Y-77901340D01*
X78807196Y-77840972D01*
X78707549Y-77759702D01*
X78625587Y-77660626D01*
X78564426Y-77547513D01*
X78526404Y-77424682D01*
X78511000Y-77278123D01*
X78511000Y-75057000D01*
X79117928Y-75057000D01*
X79130188Y-75181482D01*
X79166498Y-75301180D01*
X79225463Y-75411494D01*
X79304815Y-75508185D01*
X79401506Y-75587537D01*
X79511820Y-75646502D01*
X79534338Y-75653333D01*
X79490632Y-75718744D01*
X79414044Y-75903644D01*
X79375000Y-76099933D01*
X79375000Y-76300067D01*
X79414044Y-76496356D01*
X79490632Y-76681256D01*
X79601821Y-76847662D01*
X79743338Y-76989179D01*
X79909744Y-77100368D01*
X80094644Y-77176956D01*
X80290933Y-77216000D01*
X80491067Y-77216000D01*
X80687356Y-77176956D01*
X80872256Y-77100368D01*
X81038662Y-76989179D01*
X81180179Y-76847662D01*
X81291368Y-76681256D01*
X81367956Y-76496356D01*
X81407000Y-76300067D01*
X81407000Y-76099933D01*
X81367956Y-75903644D01*
X81291368Y-75718744D01*
X81247662Y-75653333D01*
X81270180Y-75646502D01*
X81380494Y-75587537D01*
X81477185Y-75508185D01*
X81556537Y-75411494D01*
X81615502Y-75301180D01*
X81651812Y-75181482D01*
X81664072Y-75057000D01*
X81661000Y-73437750D01*
X81502250Y-73279000D01*
X80518000Y-73279000D01*
X80518000Y-73299000D01*
X80264000Y-73299000D01*
X80264000Y-73279000D01*
X79279750Y-73279000D01*
X79121000Y-73437750D01*
X79117928Y-75057000D01*
X78511000Y-75057000D01*
X78511000Y-71247000D01*
X79117928Y-71247000D01*
X79121000Y-72866250D01*
X79279750Y-73025000D01*
X80264000Y-73025000D01*
X80264000Y-73005000D01*
X80518000Y-73005000D01*
X80518000Y-73025000D01*
X81502250Y-73025000D01*
X81661000Y-72866250D01*
X81662849Y-71891407D01*
X81711078Y-71901000D01*
X81853409Y-71901000D01*
X81913156Y-71960747D01*
X81913156Y-74422000D01*
X81932714Y-74620571D01*
X81990635Y-74811512D01*
X82084693Y-74987483D01*
X82211275Y-75141724D01*
X82365516Y-75268306D01*
X82438357Y-75307240D01*
X82283338Y-75410821D01*
X82141821Y-75552338D01*
X82030632Y-75718744D01*
X81954044Y-75903644D01*
X81915000Y-76099933D01*
X81915000Y-76300067D01*
X81954044Y-76496356D01*
X82030632Y-76681256D01*
X82141821Y-76847662D01*
X82283338Y-76989179D01*
X82449744Y-77100368D01*
X82634644Y-77176956D01*
X82830933Y-77216000D01*
X83031067Y-77216000D01*
X83227356Y-77176956D01*
X83412256Y-77100368D01*
X83578662Y-76989179D01*
X83720179Y-76847662D01*
X83831368Y-76681256D01*
X83907956Y-76496356D01*
X83947000Y-76300067D01*
X83947000Y-76099933D01*
X83907956Y-75903644D01*
X83831368Y-75718744D01*
X83720179Y-75552338D01*
X83578662Y-75410821D01*
X83423643Y-75307240D01*
X83496484Y-75268306D01*
X83650725Y-75141724D01*
X83777307Y-74987483D01*
X83871365Y-74811512D01*
X83929286Y-74620571D01*
X83948844Y-74422000D01*
X83948844Y-73783000D01*
X84453156Y-73783000D01*
X84453156Y-74422000D01*
X84472714Y-74620571D01*
X84530635Y-74811512D01*
X84624693Y-74987483D01*
X84751275Y-75141724D01*
X84905516Y-75268306D01*
X84978357Y-75307240D01*
X84823338Y-75410821D01*
X84681821Y-75552338D01*
X84570632Y-75718744D01*
X84494044Y-75903644D01*
X84455000Y-76099933D01*
X84455000Y-76300067D01*
X84494044Y-76496356D01*
X84570632Y-76681256D01*
X84681821Y-76847662D01*
X84823338Y-76989179D01*
X84989744Y-77100368D01*
X85174644Y-77176956D01*
X85370933Y-77216000D01*
X85571067Y-77216000D01*
X85767356Y-77176956D01*
X85952256Y-77100368D01*
X86118662Y-76989179D01*
X86260179Y-76847662D01*
X86371368Y-76681256D01*
X86447956Y-76496356D01*
X86487000Y-76300067D01*
X86487000Y-76099933D01*
X86447956Y-75903644D01*
X86371368Y-75718744D01*
X86260179Y-75552338D01*
X86118662Y-75410821D01*
X85963643Y-75307240D01*
X86036484Y-75268306D01*
X86190725Y-75141724D01*
X86317307Y-74987483D01*
X86411365Y-74811512D01*
X86469286Y-74620571D01*
X86488844Y-74422000D01*
X86488844Y-71882000D01*
X86473637Y-71727603D01*
X86513191Y-71743987D01*
X86621079Y-71765447D01*
X86993156Y-72137525D01*
X86993156Y-74422000D01*
X87012714Y-74620571D01*
X87070635Y-74811512D01*
X87164693Y-74987483D01*
X87291275Y-75141724D01*
X87445516Y-75268306D01*
X87518357Y-75307240D01*
X87363338Y-75410821D01*
X87221821Y-75552338D01*
X87110632Y-75718744D01*
X87034044Y-75903644D01*
X86995000Y-76099933D01*
X86995000Y-76300067D01*
X87034044Y-76496356D01*
X87110632Y-76681256D01*
X87221821Y-76847662D01*
X87363338Y-76989179D01*
X87529744Y-77100368D01*
X87714644Y-77176956D01*
X87910933Y-77216000D01*
X88111067Y-77216000D01*
X88307356Y-77176956D01*
X88492256Y-77100368D01*
X88658662Y-76989179D01*
X88800179Y-76847662D01*
X88911368Y-76681256D01*
X88987956Y-76496356D01*
X89027000Y-76300067D01*
X89027000Y-76099933D01*
X88987956Y-75903644D01*
X88911368Y-75718744D01*
X88800179Y-75552338D01*
X88658662Y-75410821D01*
X88503643Y-75307240D01*
X88576484Y-75268306D01*
X88730725Y-75141724D01*
X88857307Y-74987483D01*
X88951365Y-74811512D01*
X89009286Y-74620571D01*
X89028844Y-74422000D01*
X89028844Y-71882000D01*
X89009286Y-71683429D01*
X88978904Y-71583272D01*
X89533156Y-72137524D01*
X89533156Y-74422000D01*
X89552714Y-74620571D01*
X89610635Y-74811512D01*
X89704693Y-74987483D01*
X89831275Y-75141724D01*
X89985516Y-75268306D01*
X90058357Y-75307240D01*
X89903338Y-75410821D01*
X89761821Y-75552338D01*
X89650632Y-75718744D01*
X89574044Y-75903644D01*
X89535000Y-76099933D01*
X89535000Y-76300067D01*
X89574044Y-76496356D01*
X89650632Y-76681256D01*
X89761821Y-76847662D01*
X89903338Y-76989179D01*
X90069744Y-77100368D01*
X90254644Y-77176956D01*
X90450933Y-77216000D01*
X90651067Y-77216000D01*
X90847356Y-77176956D01*
X91032256Y-77100368D01*
X91198662Y-76989179D01*
X91340179Y-76847662D01*
X91451368Y-76681256D01*
X91527956Y-76496356D01*
X91567000Y-76300067D01*
X91567000Y-76099933D01*
X91527956Y-75903644D01*
X91451368Y-75718744D01*
X91340179Y-75552338D01*
X91198662Y-75410821D01*
X91043643Y-75307240D01*
X91116484Y-75268306D01*
X91270725Y-75141724D01*
X91397307Y-74987483D01*
X91491365Y-74811512D01*
X91549286Y-74620571D01*
X91568844Y-74422000D01*
X91568844Y-71882000D01*
X91549286Y-71683429D01*
X91491365Y-71492488D01*
X91397307Y-71316517D01*
X91270725Y-71162276D01*
X91116484Y-71035694D01*
X90940513Y-70941636D01*
X90871967Y-70920843D01*
X91078000Y-70920843D01*
X91152689Y-70913487D01*
X91224508Y-70891701D01*
X91290696Y-70856322D01*
X91348711Y-70808711D01*
X91396322Y-70750696D01*
X91413264Y-70719000D01*
X91670632Y-70719000D01*
X92255266Y-71303634D01*
X92244693Y-71316517D01*
X92150635Y-71492488D01*
X92092714Y-71683429D01*
X92073156Y-71882000D01*
X92073156Y-74422000D01*
X92092714Y-74620571D01*
X92150635Y-74811512D01*
X92244693Y-74987483D01*
X92371275Y-75141724D01*
X92525516Y-75268306D01*
X92598357Y-75307240D01*
X92443338Y-75410821D01*
X92301821Y-75552338D01*
X92190632Y-75718744D01*
X92114044Y-75903644D01*
X92075000Y-76099933D01*
X92075000Y-76300067D01*
X92114044Y-76496356D01*
X92190632Y-76681256D01*
X92301821Y-76847662D01*
X92443338Y-76989179D01*
X92609744Y-77100368D01*
X92794644Y-77176956D01*
X92990933Y-77216000D01*
X93191067Y-77216000D01*
X93387356Y-77176956D01*
X93572256Y-77100368D01*
X93738662Y-76989179D01*
X93880179Y-76847662D01*
X93991368Y-76681256D01*
X94067956Y-76496356D01*
X94107000Y-76300067D01*
X94107000Y-76099933D01*
X94067956Y-75903644D01*
X93991368Y-75718744D01*
X93880179Y-75552338D01*
X93738662Y-75410821D01*
X93583643Y-75307240D01*
X93656484Y-75268306D01*
X93810725Y-75141724D01*
X93937307Y-74987483D01*
X94031365Y-74811512D01*
X94089286Y-74620571D01*
X94108844Y-74422000D01*
X94108844Y-71882000D01*
X94613156Y-71882000D01*
X94613156Y-74422000D01*
X94632714Y-74620571D01*
X94690635Y-74811512D01*
X94784693Y-74987483D01*
X94911275Y-75141724D01*
X95065516Y-75268306D01*
X95138357Y-75307240D01*
X94983338Y-75410821D01*
X94841821Y-75552338D01*
X94730632Y-75718744D01*
X94654044Y-75903644D01*
X94615000Y-76099933D01*
X94615000Y-76300067D01*
X94654044Y-76496356D01*
X94730632Y-76681256D01*
X94841821Y-76847662D01*
X94983338Y-76989179D01*
X95149744Y-77100368D01*
X95334644Y-77176956D01*
X95530933Y-77216000D01*
X95731067Y-77216000D01*
X95927356Y-77176956D01*
X96112256Y-77100368D01*
X96278662Y-76989179D01*
X96420179Y-76847662D01*
X96531368Y-76681256D01*
X96607956Y-76496356D01*
X96647000Y-76300067D01*
X96647000Y-76099933D01*
X96607956Y-75903644D01*
X96531368Y-75718744D01*
X96420179Y-75552338D01*
X96278662Y-75410821D01*
X96123643Y-75307240D01*
X96196484Y-75268306D01*
X96350725Y-75141724D01*
X96477307Y-74987483D01*
X96571365Y-74811512D01*
X96629286Y-74620571D01*
X96648844Y-74422000D01*
X96648844Y-71882000D01*
X96629286Y-71683429D01*
X96571365Y-71492488D01*
X96477307Y-71316517D01*
X96350725Y-71162276D01*
X96262000Y-71089461D01*
X96262000Y-70670336D01*
X96279487Y-70612689D01*
X96286843Y-70538000D01*
X96286843Y-69638000D01*
X96279487Y-69563311D01*
X96257701Y-69491492D01*
X96222322Y-69425304D01*
X96174711Y-69367289D01*
X96116696Y-69319678D01*
X96050508Y-69284299D01*
X95978689Y-69262513D01*
X95904000Y-69255157D01*
X95104000Y-69255157D01*
X95029311Y-69262513D01*
X94957492Y-69284299D01*
X94891304Y-69319678D01*
X94833289Y-69367289D01*
X94785678Y-69425304D01*
X94750299Y-69491492D01*
X94728513Y-69563311D01*
X94721157Y-69638000D01*
X94721157Y-70538000D01*
X94728513Y-70612689D01*
X94750299Y-70684508D01*
X94785678Y-70750696D01*
X94833289Y-70808711D01*
X94891304Y-70856322D01*
X94957492Y-70891701D01*
X95000001Y-70904596D01*
X95000001Y-71089461D01*
X94911275Y-71162276D01*
X94784693Y-71316517D01*
X94690635Y-71492488D01*
X94632714Y-71683429D01*
X94613156Y-71882000D01*
X94108844Y-71882000D01*
X94089286Y-71683429D01*
X94031365Y-71492488D01*
X93937307Y-71316517D01*
X93810725Y-71162276D01*
X93696176Y-71068268D01*
X93676789Y-71004358D01*
X93618196Y-70894739D01*
X93559103Y-70822734D01*
X93559101Y-70822732D01*
X93539343Y-70798657D01*
X93515268Y-70778899D01*
X92400105Y-69663737D01*
X92380343Y-69639657D01*
X92284261Y-69560804D01*
X92174642Y-69502211D01*
X92055698Y-69466130D01*
X91962998Y-69457000D01*
X91962990Y-69457000D01*
X91932000Y-69453948D01*
X91901010Y-69457000D01*
X91413264Y-69457000D01*
X91396322Y-69425304D01*
X91348711Y-69367289D01*
X91290696Y-69319678D01*
X91224508Y-69284299D01*
X91152689Y-69262513D01*
X91078000Y-69255157D01*
X90278000Y-69255157D01*
X90203311Y-69262513D01*
X90131492Y-69284299D01*
X90065304Y-69319678D01*
X90007289Y-69367289D01*
X89959678Y-69425304D01*
X89924299Y-69491492D01*
X89902513Y-69563311D01*
X89895157Y-69638000D01*
X89895157Y-70538000D01*
X89902513Y-70612689D01*
X89924299Y-70684508D01*
X89959678Y-70750696D01*
X90007289Y-70808711D01*
X90065304Y-70856322D01*
X90131492Y-70891701D01*
X90203311Y-70913487D01*
X90241789Y-70917277D01*
X90161487Y-70941636D01*
X90135757Y-70955389D01*
X88844105Y-69663737D01*
X88824343Y-69639657D01*
X88728261Y-69560804D01*
X88618642Y-69502211D01*
X88499698Y-69466130D01*
X88406998Y-69457000D01*
X88406990Y-69457000D01*
X88376000Y-69453948D01*
X88345010Y-69457000D01*
X86333264Y-69457000D01*
X86316322Y-69425304D01*
X86268711Y-69367289D01*
X86210696Y-69319678D01*
X86144508Y-69284299D01*
X86072689Y-69262513D01*
X85998000Y-69255157D01*
X85198000Y-69255157D01*
X85123311Y-69262513D01*
X85051492Y-69284299D01*
X84985304Y-69319678D01*
X84927289Y-69367289D01*
X84879678Y-69425304D01*
X84844299Y-69491492D01*
X84822513Y-69563311D01*
X84815157Y-69638000D01*
X84815157Y-70538000D01*
X84822513Y-70612689D01*
X84844299Y-70684508D01*
X84879678Y-70750696D01*
X84927289Y-70808711D01*
X84985304Y-70856322D01*
X85051492Y-70891701D01*
X85123311Y-70913487D01*
X85161789Y-70917277D01*
X85081487Y-70941636D01*
X84905516Y-71035694D01*
X84751275Y-71162276D01*
X84624693Y-71316517D01*
X84530635Y-71492488D01*
X84472714Y-71683429D01*
X84453156Y-71882000D01*
X84453156Y-72521000D01*
X83948844Y-72521000D01*
X83948844Y-71882000D01*
X83929286Y-71683429D01*
X83871365Y-71492488D01*
X83777307Y-71316517D01*
X83650725Y-71162276D01*
X83496484Y-71035694D01*
X83320513Y-70941636D01*
X83129572Y-70883715D01*
X82931001Y-70864157D01*
X82930999Y-70864157D01*
X82732428Y-70883715D01*
X82548405Y-70939538D01*
X82538987Y-70892191D01*
X82480113Y-70750058D01*
X82470052Y-70735000D01*
X82850595Y-70735000D01*
X82942058Y-70796113D01*
X83084191Y-70854987D01*
X83235078Y-70885000D01*
X83388922Y-70885000D01*
X83539809Y-70854987D01*
X83681942Y-70796113D01*
X83809859Y-70710642D01*
X83918642Y-70601859D01*
X84004113Y-70473942D01*
X84062987Y-70331809D01*
X84093000Y-70180922D01*
X84093000Y-70027078D01*
X84062987Y-69876191D01*
X84004113Y-69734058D01*
X83918642Y-69606141D01*
X83809859Y-69497358D01*
X83681942Y-69411887D01*
X83539809Y-69353013D01*
X83388922Y-69323000D01*
X83235078Y-69323000D01*
X83084191Y-69353013D01*
X82942058Y-69411887D01*
X82850595Y-69473000D01*
X81336369Y-69473000D01*
X81302322Y-69409304D01*
X81254711Y-69351289D01*
X81196696Y-69303678D01*
X81130508Y-69268299D01*
X81058689Y-69246513D01*
X80984000Y-69239157D01*
X80184000Y-69239157D01*
X80109311Y-69246513D01*
X80037492Y-69268299D01*
X79971304Y-69303678D01*
X79913289Y-69351289D01*
X79865678Y-69409304D01*
X79830299Y-69475492D01*
X79808513Y-69547311D01*
X79801157Y-69622000D01*
X79801157Y-70522000D01*
X79808513Y-70596689D01*
X79812376Y-70609424D01*
X79756000Y-70608928D01*
X79631518Y-70621188D01*
X79511820Y-70657498D01*
X79401506Y-70716463D01*
X79304815Y-70795815D01*
X79225463Y-70892506D01*
X79166498Y-71002820D01*
X79130188Y-71122518D01*
X79117928Y-71247000D01*
X78511000Y-71247000D01*
X78511000Y-68522000D01*
X78595928Y-68522000D01*
X78608188Y-68646482D01*
X78644498Y-68766180D01*
X78703463Y-68876494D01*
X78782815Y-68973185D01*
X78879506Y-69052537D01*
X78989820Y-69111502D01*
X79109518Y-69147812D01*
X79234000Y-69160072D01*
X79348250Y-69157000D01*
X79507000Y-68998250D01*
X79507000Y-68199000D01*
X79761000Y-68199000D01*
X79761000Y-68998250D01*
X79919750Y-69157000D01*
X80034000Y-69160072D01*
X80158482Y-69147812D01*
X80278180Y-69111502D01*
X80388494Y-69052537D01*
X80485185Y-68973185D01*
X80564537Y-68876494D01*
X80623502Y-68766180D01*
X80659812Y-68646482D01*
X80672072Y-68522000D01*
X80669000Y-68357750D01*
X80510250Y-68199000D01*
X79761000Y-68199000D01*
X79507000Y-68199000D01*
X78757750Y-68199000D01*
X78599000Y-68357750D01*
X78595928Y-68522000D01*
X78511000Y-68522000D01*
X78511000Y-67622000D01*
X78595928Y-67622000D01*
X78599000Y-67786250D01*
X78757750Y-67945000D01*
X79507000Y-67945000D01*
X79507000Y-67145750D01*
X79465250Y-67104000D01*
X79578000Y-66991250D01*
X79578000Y-66167000D01*
X78791250Y-66167000D01*
X78632500Y-66325750D01*
X78629428Y-66515000D01*
X78641688Y-66639482D01*
X78677998Y-66759180D01*
X78736963Y-66869494D01*
X78816315Y-66966185D01*
X78913006Y-67045537D01*
X78939216Y-67059547D01*
X78879506Y-67091463D01*
X78782815Y-67170815D01*
X78703463Y-67267506D01*
X78644498Y-67377820D01*
X78608188Y-67497518D01*
X78595928Y-67622000D01*
X78511000Y-67622000D01*
X78511000Y-65565000D01*
X78629428Y-65565000D01*
X78632500Y-65754250D01*
X78791250Y-65913000D01*
X79578000Y-65913000D01*
X79578000Y-65088750D01*
X79419250Y-64930000D01*
X79267500Y-64926928D01*
X79143018Y-64939188D01*
X79023320Y-64975498D01*
X78913006Y-65034463D01*
X78816315Y-65113815D01*
X78736963Y-65210506D01*
X78677998Y-65320820D01*
X78641688Y-65440518D01*
X78629428Y-65565000D01*
X78511000Y-65565000D01*
X78511000Y-63709000D01*
X78515928Y-63709000D01*
X78528188Y-63833482D01*
X78564498Y-63953180D01*
X78623463Y-64063494D01*
X78702815Y-64160185D01*
X78799506Y-64239537D01*
X78909820Y-64298502D01*
X79029518Y-64334812D01*
X79154000Y-64347072D01*
X79343250Y-64344000D01*
X79502000Y-64185250D01*
X79502000Y-63398500D01*
X79756000Y-63398500D01*
X79756000Y-64185250D01*
X79914750Y-64344000D01*
X80104000Y-64347072D01*
X80228482Y-64334812D01*
X80348180Y-64298502D01*
X80458494Y-64239537D01*
X80555185Y-64160185D01*
X80634537Y-64063494D01*
X80693502Y-63953180D01*
X80729812Y-63833482D01*
X80742072Y-63709000D01*
X80739000Y-63557250D01*
X80580250Y-63398500D01*
X79756000Y-63398500D01*
X79502000Y-63398500D01*
X78677750Y-63398500D01*
X78519000Y-63557250D01*
X78515928Y-63709000D01*
X78511000Y-63709000D01*
X78511000Y-62834000D01*
X78515928Y-62834000D01*
X78519000Y-62985750D01*
X78677750Y-63144500D01*
X79502000Y-63144500D01*
X79502000Y-63124500D01*
X79756000Y-63124500D01*
X79756000Y-63144500D01*
X80580250Y-63144500D01*
X80739000Y-62985750D01*
X80742072Y-62834000D01*
X80729812Y-62709518D01*
X80693502Y-62589820D01*
X80634537Y-62479506D01*
X80555185Y-62382815D01*
X80458494Y-62303463D01*
X80376930Y-62259866D01*
X80385456Y-62249477D01*
X80441049Y-62145470D01*
X80475284Y-62032615D01*
X80486843Y-61915250D01*
X80486843Y-61477750D01*
X80482272Y-61431339D01*
X80544191Y-61456987D01*
X80695078Y-61487000D01*
X80848922Y-61487000D01*
X80897156Y-61477406D01*
X80963750Y-61544000D01*
X81788000Y-61544000D01*
X81788000Y-60757250D01*
X82042000Y-60757250D01*
X82042000Y-61544000D01*
X82866250Y-61544000D01*
X83025000Y-61385250D01*
X83028072Y-61233500D01*
X83015812Y-61109018D01*
X82979502Y-60989320D01*
X82920537Y-60879006D01*
X82841185Y-60782315D01*
X82744494Y-60702963D01*
X82634180Y-60643998D01*
X82514482Y-60607688D01*
X82390000Y-60595428D01*
X82200750Y-60598500D01*
X82042000Y-60757250D01*
X81788000Y-60757250D01*
X81629250Y-60598500D01*
X81546651Y-60597159D01*
X81539450Y-60560958D01*
X81629250Y-60559500D01*
X81788000Y-60400750D01*
X81788000Y-59614000D01*
X82042000Y-59614000D01*
X82042000Y-60400750D01*
X82200750Y-60559500D01*
X82390000Y-60562572D01*
X82514482Y-60550312D01*
X82634180Y-60514002D01*
X82744494Y-60455037D01*
X82841185Y-60375685D01*
X82920537Y-60278994D01*
X82979502Y-60168680D01*
X83015812Y-60048982D01*
X83028072Y-59924500D01*
X83025000Y-59772750D01*
X82866250Y-59614000D01*
X82042000Y-59614000D01*
X81788000Y-59614000D01*
X80963750Y-59614000D01*
X80805000Y-59772750D01*
X80801928Y-59924500D01*
X80801977Y-59925000D01*
X80695078Y-59925000D01*
X80544191Y-59955013D01*
X80402058Y-60013887D01*
X80397926Y-60016648D01*
X80441049Y-59935970D01*
X80475284Y-59823115D01*
X80486843Y-59705750D01*
X80486843Y-59268250D01*
X80475284Y-59150885D01*
X80441049Y-59038030D01*
X80385456Y-58934023D01*
X80310640Y-58842860D01*
X80219477Y-58768044D01*
X80115470Y-58712451D01*
X80072777Y-58699500D01*
X80115470Y-58686549D01*
X80219477Y-58630956D01*
X80310640Y-58556140D01*
X80385456Y-58464977D01*
X80410566Y-58418000D01*
X81133434Y-58418000D01*
X81158544Y-58464977D01*
X81167070Y-58475366D01*
X81085506Y-58518963D01*
X80988815Y-58598315D01*
X80909463Y-58695006D01*
X80850498Y-58805320D01*
X80814188Y-58925018D01*
X80801928Y-59049500D01*
X80805000Y-59201250D01*
X80963750Y-59360000D01*
X81788000Y-59360000D01*
X81788000Y-59340000D01*
X82042000Y-59340000D01*
X82042000Y-59360000D01*
X82866250Y-59360000D01*
X83006875Y-59219376D01*
X83068141Y-59280642D01*
X83196058Y-59366113D01*
X83338191Y-59424987D01*
X83489078Y-59455000D01*
X83642922Y-59455000D01*
X83793809Y-59424987D01*
X83935942Y-59366113D01*
X84063859Y-59280642D01*
X84172642Y-59171859D01*
X84258113Y-59043942D01*
X84316987Y-58901809D01*
X84347000Y-58750922D01*
X84347000Y-58597078D01*
X84316987Y-58446191D01*
X84305310Y-58418000D01*
X84392157Y-58418000D01*
X84392157Y-58902000D01*
X84399513Y-58976689D01*
X84421299Y-59048508D01*
X84456678Y-59114696D01*
X84478031Y-59140715D01*
X84420506Y-59171463D01*
X84323815Y-59250815D01*
X84244463Y-59347506D01*
X84185498Y-59457820D01*
X84149188Y-59577518D01*
X84136928Y-59702000D01*
X84140000Y-60166250D01*
X84298750Y-60325000D01*
X85648000Y-60325000D01*
X85648000Y-60305000D01*
X85902000Y-60305000D01*
X85902000Y-60325000D01*
X87251250Y-60325000D01*
X87410000Y-60166250D01*
X87413072Y-59702000D01*
X87400812Y-59577518D01*
X87364502Y-59457820D01*
X87305537Y-59347506D01*
X87226185Y-59250815D01*
X87129494Y-59171463D01*
X87071969Y-59140715D01*
X87093322Y-59114696D01*
X87128701Y-59048508D01*
X87150487Y-58976689D01*
X87157843Y-58902000D01*
X87157843Y-57402000D01*
X87150487Y-57327311D01*
X87128701Y-57255492D01*
X87093322Y-57189304D01*
X87045711Y-57131289D01*
X86987696Y-57083678D01*
X86921508Y-57048299D01*
X86849689Y-57026513D01*
X86775000Y-57019157D01*
X84775000Y-57019157D01*
X84700311Y-57026513D01*
X84628492Y-57048299D01*
X84562304Y-57083678D01*
X84504289Y-57131289D01*
X84456678Y-57189304D01*
X84421299Y-57255492D01*
X84399513Y-57327311D01*
X84392157Y-57402000D01*
X84392157Y-57406000D01*
X83590854Y-57406000D01*
X83566000Y-57403552D01*
X83541146Y-57406000D01*
X82696566Y-57406000D01*
X82671456Y-57359023D01*
X82596640Y-57267860D01*
X82505477Y-57193044D01*
X82401470Y-57137451D01*
X82288615Y-57103216D01*
X82171250Y-57091657D01*
X81658750Y-57091657D01*
X81541385Y-57103216D01*
X81428530Y-57137451D01*
X81324523Y-57193044D01*
X81233360Y-57267860D01*
X81158544Y-57359023D01*
X81133434Y-57406000D01*
X80410566Y-57406000D01*
X80385456Y-57359023D01*
X80310640Y-57267860D01*
X80242095Y-57211606D01*
X80252942Y-57207113D01*
X80380859Y-57121642D01*
X80489642Y-57012859D01*
X80575113Y-56884942D01*
X80633987Y-56742809D01*
X80664000Y-56591922D01*
X80664000Y-56438078D01*
X80633987Y-56287191D01*
X80575113Y-56145058D01*
X80489642Y-56017141D01*
X80474344Y-56001843D01*
X80508000Y-56001843D01*
X80631462Y-55989683D01*
X80750179Y-55953671D01*
X80859589Y-55895190D01*
X80955488Y-55816488D01*
X81034190Y-55720589D01*
X81034504Y-55720000D01*
X81296428Y-55720000D01*
X81308688Y-55844482D01*
X81344998Y-55964180D01*
X81403963Y-56074494D01*
X81483315Y-56171185D01*
X81580006Y-56250537D01*
X81690320Y-56309502D01*
X81810018Y-56345812D01*
X81934500Y-56358072D01*
X82086250Y-56355000D01*
X82245000Y-56196250D01*
X82245000Y-55372000D01*
X81458250Y-55372000D01*
X81299500Y-55530750D01*
X81296428Y-55720000D01*
X81034504Y-55720000D01*
X81092671Y-55611179D01*
X81128683Y-55492462D01*
X81140843Y-55369000D01*
X81140843Y-54770000D01*
X81296428Y-54770000D01*
X81299500Y-54959250D01*
X81458250Y-55118000D01*
X82245000Y-55118000D01*
X82245000Y-54293750D01*
X82499000Y-54293750D01*
X82499000Y-55118000D01*
X82519000Y-55118000D01*
X82519000Y-55372000D01*
X82499000Y-55372000D01*
X82499000Y-56196250D01*
X82657750Y-56355000D01*
X82809500Y-56358072D01*
X82933982Y-56345812D01*
X83053680Y-56309502D01*
X83163994Y-56250537D01*
X83260685Y-56171185D01*
X83340037Y-56074494D01*
X83383634Y-55992930D01*
X83394023Y-56001456D01*
X83498030Y-56057049D01*
X83610885Y-56091284D01*
X83728250Y-56102843D01*
X84165750Y-56102843D01*
X84283115Y-56091284D01*
X84395970Y-56057049D01*
X84499977Y-56001456D01*
X84591140Y-55926640D01*
X84665956Y-55835477D01*
X84721549Y-55731470D01*
X84755784Y-55618615D01*
X84767343Y-55501250D01*
X84767343Y-54988750D01*
X84755784Y-54871385D01*
X84721549Y-54758530D01*
X84665956Y-54654523D01*
X84591140Y-54563360D01*
X84582673Y-54556411D01*
X84639113Y-54471942D01*
X84697987Y-54329809D01*
X84728000Y-54178922D01*
X84728000Y-54025078D01*
X84697987Y-53874191D01*
X84639113Y-53732058D01*
X84553642Y-53604141D01*
X84444859Y-53495358D01*
X84316942Y-53409887D01*
X84174809Y-53351013D01*
X84023922Y-53321000D01*
X83870078Y-53321000D01*
X83719191Y-53351013D01*
X83577058Y-53409887D01*
X83449141Y-53495358D01*
X83340358Y-53604141D01*
X83254887Y-53732058D01*
X83196013Y-53874191D01*
X83166000Y-54025078D01*
X83166000Y-54178922D01*
X83180783Y-54253241D01*
X83163994Y-54239463D01*
X83053680Y-54180498D01*
X82933982Y-54144188D01*
X82809500Y-54131928D01*
X82657750Y-54135000D01*
X82499000Y-54293750D01*
X82245000Y-54293750D01*
X82086250Y-54135000D01*
X81934500Y-54131928D01*
X81810018Y-54144188D01*
X81690320Y-54180498D01*
X81580006Y-54239463D01*
X81483315Y-54318815D01*
X81403963Y-54415506D01*
X81344998Y-54525820D01*
X81308688Y-54645518D01*
X81296428Y-54770000D01*
X81140843Y-54770000D01*
X81140843Y-54619000D01*
X81128683Y-54495538D01*
X81092671Y-54376821D01*
X81034190Y-54267411D01*
X80955488Y-54171512D01*
X80859589Y-54092810D01*
X80750179Y-54034329D01*
X80631462Y-53998317D01*
X80508000Y-53986157D01*
X79258000Y-53986157D01*
X79134538Y-53998317D01*
X79015821Y-54034329D01*
X78906411Y-54092810D01*
X78810512Y-54171512D01*
X78731810Y-54267411D01*
X78673329Y-54376821D01*
X78637317Y-54495538D01*
X78625157Y-54619000D01*
X78625157Y-55369000D01*
X78637317Y-55492462D01*
X78673329Y-55611179D01*
X78731810Y-55720589D01*
X78810512Y-55816488D01*
X78906411Y-55895190D01*
X79015821Y-55953671D01*
X79134538Y-55989683D01*
X79258000Y-56001843D01*
X79291656Y-56001843D01*
X79276358Y-56017141D01*
X79190887Y-56145058D01*
X79132013Y-56287191D01*
X79102000Y-56438078D01*
X79102000Y-56591922D01*
X79132013Y-56742809D01*
X79190887Y-56884942D01*
X79276358Y-57012859D01*
X79356733Y-57093234D01*
X79255385Y-57103216D01*
X79142530Y-57137451D01*
X79038523Y-57193044D01*
X78947360Y-57267860D01*
X78872544Y-57359023D01*
X78816951Y-57463030D01*
X78782716Y-57575885D01*
X78771157Y-57693250D01*
X78771157Y-58130750D01*
X78782716Y-58248115D01*
X78816951Y-58360970D01*
X78872544Y-58464977D01*
X78947360Y-58556140D01*
X79038523Y-58630956D01*
X79142530Y-58686549D01*
X79185223Y-58699500D01*
X79142530Y-58712451D01*
X79038523Y-58768044D01*
X78947360Y-58842860D01*
X78872544Y-58934023D01*
X78816951Y-59038030D01*
X78782716Y-59150885D01*
X78771157Y-59268250D01*
X78771157Y-59705750D01*
X78782716Y-59823115D01*
X78816951Y-59935970D01*
X78872544Y-60039977D01*
X78947360Y-60131140D01*
X79038523Y-60205956D01*
X79123001Y-60251110D01*
X79123001Y-60681136D01*
X79120552Y-60706000D01*
X79123000Y-60730854D01*
X79123000Y-60932390D01*
X79038523Y-60977544D01*
X78947360Y-61052360D01*
X78872544Y-61143523D01*
X78816951Y-61247530D01*
X78782716Y-61360385D01*
X78771157Y-61477750D01*
X78771157Y-61915250D01*
X78782716Y-62032615D01*
X78816951Y-62145470D01*
X78872544Y-62249477D01*
X78881070Y-62259866D01*
X78799506Y-62303463D01*
X78702815Y-62382815D01*
X78623463Y-62479506D01*
X78564498Y-62589820D01*
X78528188Y-62709518D01*
X78515928Y-62834000D01*
X78511000Y-62834000D01*
X78511000Y-53214359D01*
X78556815Y-53270185D01*
X78653506Y-53349537D01*
X78763820Y-53408502D01*
X78883518Y-53444812D01*
X79008000Y-53457072D01*
X79597250Y-53454000D01*
X79756000Y-53295250D01*
X79756000Y-52321000D01*
X80010000Y-52321000D01*
X80010000Y-53295250D01*
X80168750Y-53454000D01*
X80758000Y-53457072D01*
X80882482Y-53444812D01*
X81002180Y-53408502D01*
X81112494Y-53349537D01*
X81209185Y-53270185D01*
X81288537Y-53173494D01*
X81347502Y-53063180D01*
X81383812Y-52943482D01*
X81396072Y-52819000D01*
X81393000Y-52479750D01*
X81234250Y-52321000D01*
X80010000Y-52321000D01*
X79756000Y-52321000D01*
X79736000Y-52321000D01*
X79736000Y-52067000D01*
X79756000Y-52067000D01*
X79756000Y-51092750D01*
X80010000Y-51092750D01*
X80010000Y-52067000D01*
X81234250Y-52067000D01*
X81393000Y-51908250D01*
X81396072Y-51569000D01*
X81383812Y-51444518D01*
X81347502Y-51324820D01*
X81288537Y-51214506D01*
X81209185Y-51117815D01*
X81112494Y-51038463D01*
X81002180Y-50979498D01*
X80882482Y-50943188D01*
X80758000Y-50930928D01*
X80168750Y-50934000D01*
X80010000Y-51092750D01*
X79756000Y-51092750D01*
X79597250Y-50934000D01*
X79008000Y-50930928D01*
X78883518Y-50943188D01*
X78763820Y-50979498D01*
X78653506Y-51038463D01*
X78556815Y-51117815D01*
X78511000Y-51173641D01*
X78511000Y-50616654D01*
X78525494Y-50468830D01*
X78562660Y-50345731D01*
X78623028Y-50232196D01*
X78704296Y-50132551D01*
X78803372Y-50050588D01*
X78916487Y-49989426D01*
X79039318Y-49951404D01*
X79185878Y-49936000D01*
X97282000Y-49936000D01*
X97282000Y-55672409D01*
G37*
X97282000Y-55672409D02*
X97126400Y-55516809D01*
X97126400Y-55426766D01*
X97098216Y-55285075D01*
X97042931Y-55151605D01*
X96962669Y-55031485D01*
X96860515Y-54929331D01*
X96740395Y-54849069D01*
X96606925Y-54793784D01*
X96465234Y-54765600D01*
X96320766Y-54765600D01*
X96179075Y-54793784D01*
X96045605Y-54849069D01*
X95925485Y-54929331D01*
X95832665Y-55022151D01*
X95826701Y-55002492D01*
X95791322Y-54936304D01*
X95743711Y-54878289D01*
X95685696Y-54830678D01*
X95619508Y-54795299D01*
X95547689Y-54773513D01*
X95521561Y-54770940D01*
X95602642Y-54689859D01*
X95688113Y-54561942D01*
X95705783Y-54519284D01*
X95768141Y-54581642D01*
X95896058Y-54667113D01*
X96038191Y-54725987D01*
X96189078Y-54756000D01*
X96342922Y-54756000D01*
X96493809Y-54725987D01*
X96635942Y-54667113D01*
X96763859Y-54581642D01*
X96872642Y-54472859D01*
X96958113Y-54344942D01*
X97016987Y-54202809D01*
X97047000Y-54051922D01*
X97047000Y-53898078D01*
X97016987Y-53747191D01*
X96958113Y-53605058D01*
X96872642Y-53477141D01*
X96763859Y-53368358D01*
X96635942Y-53282887D01*
X96493809Y-53224013D01*
X96342922Y-53194000D01*
X96200591Y-53194000D01*
X96133376Y-53126785D01*
X96117527Y-53107473D01*
X96040479Y-53044241D01*
X95952575Y-52997255D01*
X95857193Y-52968322D01*
X95782854Y-52961000D01*
X95782846Y-52961000D01*
X95758000Y-52958553D01*
X95733154Y-52961000D01*
X94385845Y-52961000D01*
X94360999Y-52958553D01*
X94336153Y-52961000D01*
X94336146Y-52961000D01*
X94271694Y-52967348D01*
X94261806Y-52968322D01*
X94239607Y-52975056D01*
X94166425Y-52997255D01*
X94078521Y-53044241D01*
X94001473Y-53107473D01*
X93985628Y-53126780D01*
X93512780Y-53599629D01*
X93493474Y-53615473D01*
X93430242Y-53692521D01*
X93414349Y-53722255D01*
X93383255Y-53780426D01*
X93354322Y-53875808D01*
X93344553Y-53975000D01*
X93347001Y-53999856D01*
X93347000Y-54800372D01*
X93290304Y-54830678D01*
X93232289Y-54878289D01*
X93218000Y-54895700D01*
X93203711Y-54878289D01*
X93145696Y-54830678D01*
X93080466Y-54795811D01*
X93052745Y-54704425D01*
X93005759Y-54616521D01*
X92942527Y-54539473D01*
X92923220Y-54523628D01*
X92034376Y-53634785D01*
X92018527Y-53615473D01*
X91941479Y-53552241D01*
X91853575Y-53505255D01*
X91758193Y-53476322D01*
X91683854Y-53469000D01*
X91683846Y-53469000D01*
X91659000Y-53466553D01*
X91634154Y-53469000D01*
X88990501Y-53469000D01*
X88889859Y-53368358D01*
X88761942Y-53282887D01*
X88619809Y-53224013D01*
X88468922Y-53194000D01*
X88315078Y-53194000D01*
X88164191Y-53224013D01*
X88022058Y-53282887D01*
X87894141Y-53368358D01*
X87785358Y-53477141D01*
X87699887Y-53605058D01*
X87641013Y-53747191D01*
X87611000Y-53898078D01*
X87611000Y-54051922D01*
X87641013Y-54202809D01*
X87699887Y-54344942D01*
X87785358Y-54472859D01*
X87894141Y-54581642D01*
X88022058Y-54667113D01*
X88164191Y-54725987D01*
X88315078Y-54756000D01*
X88468922Y-54756000D01*
X88619809Y-54725987D01*
X88761942Y-54667113D01*
X88889859Y-54581642D01*
X88990501Y-54481000D01*
X91449409Y-54481000D01*
X91540579Y-54572171D01*
X91440000Y-54672750D01*
X91440000Y-55372000D01*
X91460000Y-55372000D01*
X91460000Y-55626000D01*
X91440000Y-55626000D01*
X91440000Y-56325250D01*
X91598750Y-56484000D01*
X91663000Y-56487072D01*
X91787482Y-56474812D01*
X91907180Y-56438502D01*
X92017494Y-56379537D01*
X92114185Y-56300185D01*
X92115762Y-56298264D01*
X92121769Y-56309502D01*
X92160242Y-56381479D01*
X92223474Y-56458527D01*
X92242780Y-56474371D01*
X92750628Y-56982220D01*
X92766473Y-57001527D01*
X92843521Y-57064759D01*
X92931425Y-57111745D01*
X93026807Y-57140678D01*
X93101146Y-57148000D01*
X93101154Y-57148000D01*
X93126000Y-57150447D01*
X93150846Y-57148000D01*
X94391225Y-57148000D01*
X94353044Y-57194523D01*
X94307890Y-57279000D01*
X91466590Y-57279000D01*
X90549000Y-56361411D01*
X90549000Y-56330702D01*
X90608506Y-56379537D01*
X90718820Y-56438502D01*
X90838518Y-56474812D01*
X90963000Y-56487072D01*
X91027250Y-56484000D01*
X91186000Y-56325250D01*
X91186000Y-55626000D01*
X91166000Y-55626000D01*
X91166000Y-55372000D01*
X91186000Y-55372000D01*
X91186000Y-54672750D01*
X91027250Y-54514000D01*
X90963000Y-54510928D01*
X90838518Y-54523188D01*
X90718820Y-54559498D01*
X90608506Y-54618463D01*
X90511815Y-54697815D01*
X90432463Y-54794506D01*
X90399902Y-54855422D01*
X90390395Y-54849069D01*
X90256925Y-54793784D01*
X90115234Y-54765600D01*
X89970766Y-54765600D01*
X89829075Y-54793784D01*
X89695605Y-54849069D01*
X89575485Y-54929331D01*
X89473331Y-55031485D01*
X89393069Y-55151605D01*
X89337784Y-55285075D01*
X89309600Y-55426766D01*
X89309600Y-55571234D01*
X89337784Y-55712925D01*
X89393069Y-55846395D01*
X89473331Y-55966515D01*
X89537001Y-56030185D01*
X89537000Y-56546155D01*
X89534553Y-56571002D01*
X89537000Y-56595848D01*
X89537000Y-56595855D01*
X89544322Y-56670194D01*
X89573255Y-56765576D01*
X89620241Y-56853481D01*
X89683473Y-56930529D01*
X89702785Y-56946378D01*
X90541406Y-57785000D01*
X88559781Y-59766626D01*
X88540474Y-59782471D01*
X88477242Y-59859519D01*
X88463850Y-59884574D01*
X88430255Y-59947424D01*
X88401322Y-60042806D01*
X88391553Y-60141998D01*
X88394001Y-60166854D01*
X88394000Y-62740000D01*
X87157843Y-62740000D01*
X87157843Y-62002000D01*
X87150487Y-61927311D01*
X87128701Y-61855492D01*
X87093322Y-61789304D01*
X87071969Y-61763285D01*
X87129494Y-61732537D01*
X87226185Y-61653185D01*
X87305537Y-61556494D01*
X87364502Y-61446180D01*
X87400812Y-61326482D01*
X87413072Y-61202000D01*
X87410000Y-60737750D01*
X87251250Y-60579000D01*
X85902000Y-60579000D01*
X85902000Y-60599000D01*
X85648000Y-60599000D01*
X85648000Y-60579000D01*
X84298750Y-60579000D01*
X84140000Y-60737750D01*
X84136928Y-61202000D01*
X84149188Y-61326482D01*
X84185498Y-61446180D01*
X84244463Y-61556494D01*
X84323815Y-61653185D01*
X84420506Y-61732537D01*
X84478031Y-61763285D01*
X84456678Y-61789304D01*
X84421299Y-61855492D01*
X84399513Y-61927311D01*
X84392157Y-62002000D01*
X84392157Y-62740000D01*
X82735050Y-62740000D01*
X82718759Y-62709521D01*
X82686399Y-62670090D01*
X82744494Y-62639037D01*
X82841185Y-62559685D01*
X82920537Y-62462994D01*
X82979502Y-62352680D01*
X83015812Y-62232982D01*
X83028072Y-62108500D01*
X83025000Y-61956750D01*
X82866250Y-61798000D01*
X82042000Y-61798000D01*
X82042000Y-61818000D01*
X81788000Y-61818000D01*
X81788000Y-61798000D01*
X80963750Y-61798000D01*
X80805000Y-61956750D01*
X80801928Y-62108500D01*
X80814188Y-62232982D01*
X80850498Y-62352680D01*
X80909463Y-62462994D01*
X80988815Y-62559685D01*
X81085506Y-62639037D01*
X81167070Y-62682634D01*
X81158544Y-62693023D01*
X81102951Y-62797030D01*
X81068716Y-62909885D01*
X81057157Y-63027250D01*
X81057157Y-63464750D01*
X81068716Y-63582115D01*
X81102951Y-63694970D01*
X81158544Y-63798977D01*
X81233360Y-63890140D01*
X81324523Y-63964956D01*
X81428530Y-64020549D01*
X81541385Y-64054784D01*
X81658750Y-64066343D01*
X81790000Y-64066343D01*
X81790000Y-64298499D01*
X81689358Y-64399141D01*
X81603887Y-64527058D01*
X81545013Y-64669191D01*
X81515000Y-64820078D01*
X81515000Y-64973922D01*
X81545013Y-65124809D01*
X81571745Y-65189346D01*
X81498750Y-65182157D01*
X81061250Y-65182157D01*
X80943885Y-65193716D01*
X80831030Y-65227951D01*
X80727023Y-65283544D01*
X80716634Y-65292070D01*
X80673037Y-65210506D01*
X80593685Y-65113815D01*
X80496994Y-65034463D01*
X80386680Y-64975498D01*
X80266982Y-64939188D01*
X80142500Y-64926928D01*
X79990750Y-64930000D01*
X79832000Y-65088750D01*
X79832000Y-65913000D01*
X79852000Y-65913000D01*
X79852000Y-66167000D01*
X79832000Y-66167000D01*
X79832000Y-66991250D01*
X79873750Y-67033000D01*
X79761000Y-67145750D01*
X79761000Y-67945000D01*
X80510250Y-67945000D01*
X80669000Y-67786250D01*
X80672072Y-67622000D01*
X80659812Y-67497518D01*
X80623502Y-67377820D01*
X80564537Y-67267506D01*
X80485185Y-67170815D01*
X80397400Y-67098772D01*
X80496994Y-67045537D01*
X80593685Y-66966185D01*
X80673037Y-66869494D01*
X80716634Y-66787930D01*
X80727023Y-66796456D01*
X80831030Y-66852049D01*
X80943885Y-66886284D01*
X81028001Y-66894568D01*
X81028000Y-67256011D01*
X80987492Y-67268299D01*
X80921304Y-67303678D01*
X80863289Y-67351289D01*
X80815678Y-67409304D01*
X80780299Y-67475492D01*
X80758513Y-67547311D01*
X80751157Y-67622000D01*
X80751157Y-68522000D01*
X80758513Y-68596689D01*
X80780299Y-68668508D01*
X80815678Y-68734696D01*
X80863289Y-68792711D01*
X80921304Y-68840322D01*
X80987492Y-68875701D01*
X81059311Y-68897487D01*
X81134000Y-68904843D01*
X81934000Y-68904843D01*
X82008689Y-68897487D01*
X82080508Y-68875701D01*
X82146696Y-68840322D01*
X82204711Y-68792711D01*
X82252322Y-68734696D01*
X82287701Y-68668508D01*
X82309487Y-68596689D01*
X82315267Y-68538000D01*
X83609928Y-68538000D01*
X83622188Y-68662482D01*
X83658498Y-68782180D01*
X83717463Y-68892494D01*
X83796815Y-68989185D01*
X83893506Y-69068537D01*
X84003820Y-69127502D01*
X84123518Y-69163812D01*
X84248000Y-69176072D01*
X84362250Y-69173000D01*
X84521000Y-69014250D01*
X84521000Y-68215000D01*
X84775000Y-68215000D01*
X84775000Y-69014250D01*
X84933750Y-69173000D01*
X85048000Y-69176072D01*
X85172482Y-69163812D01*
X85292180Y-69127502D01*
X85402494Y-69068537D01*
X85499185Y-68989185D01*
X85578537Y-68892494D01*
X85637502Y-68782180D01*
X85673812Y-68662482D01*
X85686072Y-68538000D01*
X85683000Y-68373750D01*
X85524250Y-68215000D01*
X84775000Y-68215000D01*
X84521000Y-68215000D01*
X83771750Y-68215000D01*
X83613000Y-68373750D01*
X83609928Y-68538000D01*
X82315267Y-68538000D01*
X82316843Y-68522000D01*
X82316843Y-67622000D01*
X82309487Y-67547311D01*
X82287701Y-67475492D01*
X82252322Y-67409304D01*
X82204711Y-67351289D01*
X82146696Y-67303678D01*
X82080508Y-67268299D01*
X82040000Y-67256011D01*
X82040000Y-66553689D01*
X82044110Y-66546000D01*
X82929196Y-66546000D01*
X82977032Y-66546359D01*
X83003433Y-66541314D01*
X83030193Y-66538678D01*
X83052272Y-66531980D01*
X83074933Y-66527650D01*
X83099845Y-66517550D01*
X83125575Y-66509745D01*
X83145924Y-66498868D01*
X83167304Y-66490200D01*
X83189767Y-66475433D01*
X83213479Y-66462759D01*
X83231318Y-66448119D01*
X83250593Y-66435448D01*
X83269739Y-66416588D01*
X83290527Y-66399527D01*
X83321005Y-66362389D01*
X83573830Y-66059000D01*
X83642922Y-66059000D01*
X83712500Y-66045160D01*
X83712500Y-66167002D01*
X83871248Y-66167002D01*
X83712500Y-66325750D01*
X83709428Y-66515000D01*
X83721688Y-66639482D01*
X83757998Y-66759180D01*
X83816963Y-66869494D01*
X83896315Y-66966185D01*
X83993006Y-67045537D01*
X84001183Y-67049908D01*
X83893506Y-67107463D01*
X83796815Y-67186815D01*
X83717463Y-67283506D01*
X83658498Y-67393820D01*
X83622188Y-67513518D01*
X83609928Y-67638000D01*
X83613000Y-67802250D01*
X83771750Y-67961000D01*
X84521000Y-67961000D01*
X84521000Y-67161750D01*
X84504250Y-67145000D01*
X84658000Y-66991250D01*
X84658000Y-66167000D01*
X84638000Y-66167000D01*
X84638000Y-65913000D01*
X84658000Y-65913000D01*
X84658000Y-65088750D01*
X84499250Y-64930000D01*
X84347500Y-64926928D01*
X84269127Y-64934647D01*
X84258113Y-64908058D01*
X84172642Y-64780141D01*
X84063859Y-64671358D01*
X83935942Y-64585887D01*
X83793809Y-64527013D01*
X83642922Y-64497000D01*
X83489078Y-64497000D01*
X83338191Y-64527013D01*
X83196058Y-64585887D01*
X83068141Y-64671358D01*
X83050856Y-64688643D01*
X83046987Y-64669191D01*
X82988113Y-64527058D01*
X82902642Y-64399141D01*
X82802000Y-64298499D01*
X82802000Y-63752000D01*
X84487292Y-63752000D01*
X84504289Y-63772711D01*
X84562304Y-63820322D01*
X84628492Y-63855701D01*
X84700311Y-63877487D01*
X84775000Y-63884843D01*
X86168237Y-63884843D01*
X86132191Y-63892013D01*
X85990058Y-63950887D01*
X85862141Y-64036358D01*
X85753358Y-64145141D01*
X85667887Y-64273058D01*
X85609013Y-64415191D01*
X85579000Y-64566078D01*
X85579000Y-64719922D01*
X85609013Y-64870809D01*
X85667887Y-65012942D01*
X85753358Y-65140859D01*
X85854001Y-65241502D01*
X85854001Y-65258434D01*
X85807023Y-65283544D01*
X85796634Y-65292070D01*
X85753037Y-65210506D01*
X85673685Y-65113815D01*
X85576994Y-65034463D01*
X85466680Y-64975498D01*
X85346982Y-64939188D01*
X85222500Y-64926928D01*
X85070750Y-64930000D01*
X84912000Y-65088750D01*
X84912000Y-65913000D01*
X84932000Y-65913000D01*
X84932000Y-66167000D01*
X84912000Y-66167000D01*
X84912000Y-66991250D01*
X84928750Y-67008000D01*
X84775000Y-67161750D01*
X84775000Y-67961000D01*
X85524250Y-67961000D01*
X85683000Y-67802250D01*
X85686072Y-67638000D01*
X85673812Y-67513518D01*
X85637502Y-67393820D01*
X85578537Y-67283506D01*
X85499185Y-67186815D01*
X85417182Y-67119517D01*
X85466680Y-67104502D01*
X85576994Y-67045537D01*
X85673685Y-66966185D01*
X85753037Y-66869494D01*
X85796634Y-66787930D01*
X85807023Y-66796456D01*
X85911030Y-66852049D01*
X86023885Y-66886284D01*
X86042001Y-66888068D01*
X86042000Y-67272011D01*
X86001492Y-67284299D01*
X85935304Y-67319678D01*
X85877289Y-67367289D01*
X85829678Y-67425304D01*
X85794299Y-67491492D01*
X85772513Y-67563311D01*
X85765157Y-67638000D01*
X85765157Y-68538000D01*
X85772513Y-68612689D01*
X85794299Y-68684508D01*
X85829678Y-68750696D01*
X85877289Y-68808711D01*
X85935304Y-68856322D01*
X86001492Y-68891701D01*
X86073311Y-68913487D01*
X86148000Y-68920843D01*
X86948000Y-68920843D01*
X87022689Y-68913487D01*
X87094508Y-68891701D01*
X87160696Y-68856322D01*
X87218711Y-68808711D01*
X87266322Y-68750696D01*
X87301701Y-68684508D01*
X87323487Y-68612689D01*
X87330843Y-68538000D01*
X88689928Y-68538000D01*
X88702188Y-68662482D01*
X88738498Y-68782180D01*
X88797463Y-68892494D01*
X88876815Y-68989185D01*
X88973506Y-69068537D01*
X89083820Y-69127502D01*
X89203518Y-69163812D01*
X89328000Y-69176072D01*
X89442250Y-69173000D01*
X89601000Y-69014250D01*
X89601000Y-68215000D01*
X89855000Y-68215000D01*
X89855000Y-69014250D01*
X90013750Y-69173000D01*
X90128000Y-69176072D01*
X90252482Y-69163812D01*
X90372180Y-69127502D01*
X90482494Y-69068537D01*
X90579185Y-68989185D01*
X90658537Y-68892494D01*
X90717502Y-68782180D01*
X90753812Y-68662482D01*
X90766072Y-68538000D01*
X90763000Y-68373750D01*
X90604250Y-68215000D01*
X89855000Y-68215000D01*
X89601000Y-68215000D01*
X88851750Y-68215000D01*
X88693000Y-68373750D01*
X88689928Y-68538000D01*
X87330843Y-68538000D01*
X87330843Y-67638000D01*
X88689928Y-67638000D01*
X88693000Y-67802250D01*
X88851750Y-67961000D01*
X89601000Y-67961000D01*
X89601000Y-67161750D01*
X89584250Y-67145000D01*
X89738000Y-66991250D01*
X89738000Y-66167000D01*
X88951250Y-66167000D01*
X88792500Y-66325750D01*
X88789428Y-66515000D01*
X88801688Y-66639482D01*
X88837998Y-66759180D01*
X88896963Y-66869494D01*
X88976315Y-66966185D01*
X89073006Y-67045537D01*
X89081183Y-67049908D01*
X88973506Y-67107463D01*
X88876815Y-67186815D01*
X88797463Y-67283506D01*
X88738498Y-67393820D01*
X88702188Y-67513518D01*
X88689928Y-67638000D01*
X87330843Y-67638000D01*
X87323487Y-67563311D01*
X87301701Y-67491492D01*
X87266322Y-67425304D01*
X87218711Y-67367289D01*
X87160696Y-67319678D01*
X87094508Y-67284299D01*
X87054000Y-67272011D01*
X87054000Y-66660886D01*
X87078956Y-66630477D01*
X87134549Y-66526470D01*
X87168784Y-66413615D01*
X87180343Y-66296250D01*
X87180343Y-65783750D01*
X87168784Y-65666385D01*
X87134549Y-65553530D01*
X87078956Y-65449523D01*
X87004140Y-65358360D01*
X86912977Y-65283544D01*
X86866000Y-65258434D01*
X86866000Y-65241501D01*
X86966642Y-65140859D01*
X87052113Y-65012942D01*
X87110987Y-64870809D01*
X87141000Y-64719922D01*
X87141000Y-64566078D01*
X87110987Y-64415191D01*
X87052113Y-64273058D01*
X86966642Y-64145141D01*
X86857859Y-64036358D01*
X86729942Y-63950887D01*
X86587809Y-63892013D01*
X86551763Y-63884843D01*
X86775000Y-63884843D01*
X86849689Y-63877487D01*
X86921508Y-63855701D01*
X86987696Y-63820322D01*
X87045711Y-63772711D01*
X87062708Y-63752000D01*
X88875146Y-63752000D01*
X88900000Y-63754448D01*
X88924854Y-63752000D01*
X90722409Y-63752000D01*
X91548000Y-64577592D01*
X91548000Y-64719922D01*
X91578013Y-64870809D01*
X91636887Y-65012942D01*
X91704048Y-65113456D01*
X90893376Y-64302785D01*
X90877527Y-64283473D01*
X90800479Y-64220241D01*
X90712575Y-64173255D01*
X90617193Y-64144322D01*
X90542854Y-64137000D01*
X90542846Y-64137000D01*
X90518000Y-64134553D01*
X90493154Y-64137000D01*
X88990501Y-64137000D01*
X88889859Y-64036358D01*
X88761942Y-63950887D01*
X88619809Y-63892013D01*
X88468922Y-63862000D01*
X88315078Y-63862000D01*
X88164191Y-63892013D01*
X88022058Y-63950887D01*
X87894141Y-64036358D01*
X87785358Y-64145141D01*
X87699887Y-64273058D01*
X87641013Y-64415191D01*
X87611000Y-64566078D01*
X87611000Y-64719922D01*
X87641013Y-64870809D01*
X87699887Y-65012942D01*
X87785358Y-65140859D01*
X87894141Y-65249642D01*
X88022058Y-65335113D01*
X88164191Y-65393987D01*
X88315078Y-65424000D01*
X88468922Y-65424000D01*
X88619809Y-65393987D01*
X88761942Y-65335113D01*
X88868369Y-65264001D01*
X88837998Y-65320820D01*
X88801688Y-65440518D01*
X88789428Y-65565000D01*
X88792500Y-65754250D01*
X88951250Y-65913000D01*
X89738000Y-65913000D01*
X89738000Y-65893000D01*
X89992000Y-65893000D01*
X89992000Y-65913000D01*
X90012000Y-65913000D01*
X90012000Y-66167000D01*
X89992000Y-66167000D01*
X89992000Y-66991250D01*
X90008750Y-67008000D01*
X89855000Y-67161750D01*
X89855000Y-67961000D01*
X90604250Y-67961000D01*
X90763000Y-67802250D01*
X90766072Y-67638000D01*
X90753812Y-67513518D01*
X90717502Y-67393820D01*
X90658537Y-67283506D01*
X90579185Y-67186815D01*
X90497182Y-67119517D01*
X90546680Y-67104502D01*
X90656994Y-67045537D01*
X90753685Y-66966185D01*
X90833037Y-66869494D01*
X90876634Y-66787930D01*
X90887023Y-66796456D01*
X90991030Y-66852049D01*
X91103885Y-66886284D01*
X91122001Y-66888068D01*
X91122000Y-67272011D01*
X91081492Y-67284299D01*
X91015304Y-67319678D01*
X90957289Y-67367289D01*
X90909678Y-67425304D01*
X90874299Y-67491492D01*
X90852513Y-67563311D01*
X90845157Y-67638000D01*
X90845157Y-68538000D01*
X90852513Y-68612689D01*
X90874299Y-68684508D01*
X90909678Y-68750696D01*
X90957289Y-68808711D01*
X91015304Y-68856322D01*
X91081492Y-68891701D01*
X91153311Y-68913487D01*
X91228000Y-68920843D01*
X92028000Y-68920843D01*
X92102689Y-68913487D01*
X92174508Y-68891701D01*
X92240696Y-68856322D01*
X92298711Y-68808711D01*
X92346322Y-68750696D01*
X92381701Y-68684508D01*
X92403487Y-68612689D01*
X92410843Y-68538000D01*
X93515928Y-68538000D01*
X93528188Y-68662482D01*
X93564498Y-68782180D01*
X93623463Y-68892494D01*
X93702815Y-68989185D01*
X93799506Y-69068537D01*
X93909820Y-69127502D01*
X94029518Y-69163812D01*
X94154000Y-69176072D01*
X94268250Y-69173000D01*
X94427000Y-69014250D01*
X94427000Y-68215000D01*
X94681000Y-68215000D01*
X94681000Y-69014250D01*
X94839750Y-69173000D01*
X94954000Y-69176072D01*
X95078482Y-69163812D01*
X95198180Y-69127502D01*
X95308494Y-69068537D01*
X95405185Y-68989185D01*
X95484537Y-68892494D01*
X95543502Y-68782180D01*
X95579812Y-68662482D01*
X95592072Y-68538000D01*
X95589000Y-68373750D01*
X95430250Y-68215000D01*
X94681000Y-68215000D01*
X94427000Y-68215000D01*
X93677750Y-68215000D01*
X93519000Y-68373750D01*
X93515928Y-68538000D01*
X92410843Y-68538000D01*
X92410843Y-67638000D01*
X93515928Y-67638000D01*
X93519000Y-67802250D01*
X93677750Y-67961000D01*
X94427000Y-67961000D01*
X94427000Y-67161750D01*
X94410250Y-67145000D01*
X94564000Y-66991250D01*
X94564000Y-66167000D01*
X93777250Y-66167000D01*
X93618500Y-66325750D01*
X93615428Y-66515000D01*
X93627688Y-66639482D01*
X93663998Y-66759180D01*
X93722963Y-66869494D01*
X93802315Y-66966185D01*
X93899006Y-67045537D01*
X93907183Y-67049908D01*
X93799506Y-67107463D01*
X93702815Y-67186815D01*
X93623463Y-67283506D01*
X93564498Y-67393820D01*
X93528188Y-67513518D01*
X93515928Y-67638000D01*
X92410843Y-67638000D01*
X92403487Y-67563311D01*
X92381701Y-67491492D01*
X92346322Y-67425304D01*
X92298711Y-67367289D01*
X92240696Y-67319678D01*
X92174508Y-67284299D01*
X92134000Y-67272011D01*
X92134000Y-66660886D01*
X92158956Y-66630477D01*
X92214549Y-66526470D01*
X92248784Y-66413615D01*
X92260343Y-66296250D01*
X92260343Y-65783750D01*
X92248784Y-65666385D01*
X92218029Y-65565000D01*
X93615428Y-65565000D01*
X93618500Y-65754250D01*
X93777250Y-65913000D01*
X94564000Y-65913000D01*
X94564000Y-65088750D01*
X94470250Y-64995000D01*
X94624000Y-64841250D01*
X94624000Y-63967000D01*
X93949750Y-63967000D01*
X93791000Y-64125750D01*
X93787928Y-64365000D01*
X93800188Y-64489482D01*
X93836498Y-64609180D01*
X93895463Y-64719494D01*
X93974815Y-64816185D01*
X94071506Y-64895537D01*
X94149412Y-64937179D01*
X94129018Y-64939188D01*
X94009320Y-64975498D01*
X93899006Y-65034463D01*
X93802315Y-65113815D01*
X93722963Y-65210506D01*
X93663998Y-65320820D01*
X93627688Y-65440518D01*
X93615428Y-65565000D01*
X92218029Y-65565000D01*
X92214549Y-65553530D01*
X92158956Y-65449523D01*
X92115756Y-65396884D01*
X92252078Y-65424000D01*
X92405922Y-65424000D01*
X92556809Y-65393987D01*
X92698942Y-65335113D01*
X92826859Y-65249642D01*
X92935642Y-65140859D01*
X93021113Y-65012942D01*
X93079987Y-64870809D01*
X93110000Y-64719922D01*
X93110000Y-64566078D01*
X93079987Y-64415191D01*
X93021113Y-64273058D01*
X92935642Y-64145141D01*
X92826859Y-64036358D01*
X92698942Y-63950887D01*
X92556809Y-63892013D01*
X92405922Y-63862000D01*
X92263592Y-63862000D01*
X91716592Y-63315000D01*
X93787928Y-63315000D01*
X93791000Y-63554250D01*
X93949750Y-63713000D01*
X94624000Y-63713000D01*
X94624000Y-62838750D01*
X94465250Y-62680000D01*
X94426000Y-62676928D01*
X94301518Y-62689188D01*
X94181820Y-62725498D01*
X94071506Y-62784463D01*
X93974815Y-62863815D01*
X93895463Y-62960506D01*
X93836498Y-63070820D01*
X93800188Y-63190518D01*
X93787928Y-63315000D01*
X91716592Y-63315000D01*
X91390307Y-62988716D01*
X91789250Y-62987000D01*
X91948000Y-62828250D01*
X91948000Y-60579000D01*
X92202000Y-60579000D01*
X92202000Y-62828250D01*
X92360750Y-62987000D01*
X93075000Y-62990072D01*
X93199482Y-62977812D01*
X93319180Y-62941502D01*
X93429494Y-62882537D01*
X93526185Y-62803185D01*
X93605537Y-62706494D01*
X93664502Y-62596180D01*
X93700812Y-62476482D01*
X93713072Y-62352000D01*
X93710000Y-60737750D01*
X93551250Y-60579000D01*
X92202000Y-60579000D01*
X91948000Y-60579000D01*
X90598750Y-60579000D01*
X90440000Y-60737750D01*
X90436928Y-62352000D01*
X90449188Y-62476482D01*
X90485498Y-62596180D01*
X90544463Y-62706494D01*
X90571961Y-62740000D01*
X89406000Y-62740000D01*
X89406000Y-60351589D01*
X90438388Y-59319201D01*
X90440000Y-60166250D01*
X90598750Y-60325000D01*
X91948000Y-60325000D01*
X91948000Y-60305000D01*
X92202000Y-60305000D01*
X92202000Y-60325000D01*
X93551250Y-60325000D01*
X93661250Y-60215000D01*
X93787928Y-60215000D01*
X93800188Y-60339482D01*
X93836498Y-60459180D01*
X93895463Y-60569494D01*
X93974815Y-60666185D01*
X94071506Y-60745537D01*
X94181820Y-60804502D01*
X94301518Y-60840812D01*
X94426000Y-60853072D01*
X94465250Y-60850000D01*
X94624000Y-60691250D01*
X94624000Y-59817000D01*
X94878000Y-59817000D01*
X94878000Y-60691250D01*
X95036750Y-60850000D01*
X95076000Y-60853072D01*
X95200482Y-60840812D01*
X95320180Y-60804502D01*
X95430494Y-60745537D01*
X95527185Y-60666185D01*
X95606537Y-60569494D01*
X95665502Y-60459180D01*
X95701812Y-60339482D01*
X95714072Y-60215000D01*
X95711000Y-59975750D01*
X95552250Y-59817000D01*
X94878000Y-59817000D01*
X94624000Y-59817000D01*
X93949750Y-59817000D01*
X93791000Y-59975750D01*
X93787928Y-60215000D01*
X93661250Y-60215000D01*
X93710000Y-60166250D01*
X93713072Y-58552000D01*
X93700812Y-58427518D01*
X93664502Y-58307820D01*
X93655511Y-58291000D01*
X94307890Y-58291000D01*
X94353044Y-58375477D01*
X94427860Y-58466640D01*
X94519023Y-58541456D01*
X94623030Y-58597049D01*
X94623998Y-58597343D01*
X94623998Y-58688748D01*
X94465250Y-58530000D01*
X94426000Y-58526928D01*
X94301518Y-58539188D01*
X94181820Y-58575498D01*
X94071506Y-58634463D01*
X93974815Y-58713815D01*
X93895463Y-58810506D01*
X93836498Y-58920820D01*
X93800188Y-59040518D01*
X93787928Y-59165000D01*
X93791000Y-59404250D01*
X93949750Y-59563000D01*
X94624000Y-59563000D01*
X94624000Y-59543000D01*
X94878000Y-59543000D01*
X94878000Y-59563000D01*
X95552250Y-59563000D01*
X95711000Y-59404250D01*
X95714072Y-59165000D01*
X95701812Y-59040518D01*
X95665502Y-58920820D01*
X95606537Y-58810506D01*
X95527185Y-58713815D01*
X95430494Y-58634463D01*
X95418598Y-58628104D01*
X95520970Y-58597049D01*
X95624977Y-58541456D01*
X95716140Y-58466640D01*
X95790956Y-58375477D01*
X95846549Y-58271470D01*
X95859500Y-58228777D01*
X95872451Y-58271470D01*
X95928044Y-58375477D01*
X96002860Y-58466640D01*
X96094023Y-58541456D01*
X96198030Y-58597049D01*
X96310885Y-58631284D01*
X96395001Y-58639568D01*
X96395001Y-58829735D01*
X96363304Y-58846678D01*
X96305289Y-58894289D01*
X96257678Y-58952304D01*
X96222299Y-59018492D01*
X96200513Y-59090311D01*
X96193157Y-59165000D01*
X96193157Y-60215000D01*
X96200513Y-60289689D01*
X96222299Y-60361508D01*
X96257678Y-60427696D01*
X96305289Y-60485711D01*
X96363304Y-60533322D01*
X96395001Y-60550265D01*
X96395001Y-61127500D01*
X96382859Y-61115358D01*
X96254942Y-61029887D01*
X96112809Y-60971013D01*
X95961922Y-60941000D01*
X95808078Y-60941000D01*
X95657191Y-60971013D01*
X95515058Y-61029887D01*
X95387141Y-61115358D01*
X95278358Y-61224141D01*
X95192887Y-61352058D01*
X95134013Y-61494191D01*
X95104000Y-61645078D01*
X95104000Y-61798922D01*
X95134013Y-61949809D01*
X95192887Y-62091942D01*
X95278358Y-62219859D01*
X95379001Y-62320502D01*
X95379001Y-62756939D01*
X95320180Y-62725498D01*
X95200482Y-62689188D01*
X95076000Y-62676928D01*
X95036750Y-62680000D01*
X94878000Y-62838750D01*
X94878000Y-63713000D01*
X94898000Y-63713000D01*
X94898000Y-63967000D01*
X94878000Y-63967000D01*
X94878000Y-64841250D01*
X94971750Y-64935000D01*
X94818000Y-65088750D01*
X94818000Y-65913000D01*
X94838000Y-65913000D01*
X94838000Y-66167000D01*
X94818000Y-66167000D01*
X94818000Y-66991250D01*
X94834750Y-67008000D01*
X94681000Y-67161750D01*
X94681000Y-67961000D01*
X95430250Y-67961000D01*
X95589000Y-67802250D01*
X95592072Y-67638000D01*
X95579812Y-67513518D01*
X95543502Y-67393820D01*
X95484537Y-67283506D01*
X95405185Y-67186815D01*
X95323182Y-67119517D01*
X95372680Y-67104502D01*
X95482994Y-67045537D01*
X95579685Y-66966185D01*
X95659037Y-66869494D01*
X95702634Y-66787930D01*
X95713023Y-66796456D01*
X95817030Y-66852049D01*
X95929885Y-66886284D01*
X95948001Y-66888068D01*
X95948000Y-67272011D01*
X95907492Y-67284299D01*
X95841304Y-67319678D01*
X95783289Y-67367289D01*
X95735678Y-67425304D01*
X95700299Y-67491492D01*
X95678513Y-67563311D01*
X95671157Y-67638000D01*
X95671157Y-68538000D01*
X95678513Y-68612689D01*
X95700299Y-68684508D01*
X95735678Y-68750696D01*
X95783289Y-68808711D01*
X95841304Y-68856322D01*
X95907492Y-68891701D01*
X95979311Y-68913487D01*
X96054000Y-68920843D01*
X96854000Y-68920843D01*
X96928689Y-68913487D01*
X97000508Y-68891701D01*
X97066696Y-68856322D01*
X97124711Y-68808711D01*
X97172322Y-68750696D01*
X97207701Y-68684508D01*
X97229487Y-68612689D01*
X97236843Y-68538000D01*
X97236843Y-67638000D01*
X97229487Y-67563311D01*
X97207701Y-67491492D01*
X97172322Y-67425304D01*
X97124711Y-67367289D01*
X97066696Y-67319678D01*
X97000508Y-67284299D01*
X96960000Y-67272011D01*
X96960000Y-66660886D01*
X96984956Y-66630477D01*
X97040549Y-66526470D01*
X97074784Y-66413615D01*
X97084766Y-66312267D01*
X97165141Y-66392642D01*
X97282000Y-66470724D01*
X97282000Y-77953000D01*
X79191654Y-77953000D01*
X79043829Y-77938506D01*
X78920731Y-77901340D01*
X78807196Y-77840972D01*
X78707549Y-77759702D01*
X78625587Y-77660626D01*
X78564426Y-77547513D01*
X78526404Y-77424682D01*
X78511000Y-77278123D01*
X78511000Y-75057000D01*
X79117928Y-75057000D01*
X79130188Y-75181482D01*
X79166498Y-75301180D01*
X79225463Y-75411494D01*
X79304815Y-75508185D01*
X79401506Y-75587537D01*
X79511820Y-75646502D01*
X79534338Y-75653333D01*
X79490632Y-75718744D01*
X79414044Y-75903644D01*
X79375000Y-76099933D01*
X79375000Y-76300067D01*
X79414044Y-76496356D01*
X79490632Y-76681256D01*
X79601821Y-76847662D01*
X79743338Y-76989179D01*
X79909744Y-77100368D01*
X80094644Y-77176956D01*
X80290933Y-77216000D01*
X80491067Y-77216000D01*
X80687356Y-77176956D01*
X80872256Y-77100368D01*
X81038662Y-76989179D01*
X81180179Y-76847662D01*
X81291368Y-76681256D01*
X81367956Y-76496356D01*
X81407000Y-76300067D01*
X81407000Y-76099933D01*
X81367956Y-75903644D01*
X81291368Y-75718744D01*
X81247662Y-75653333D01*
X81270180Y-75646502D01*
X81380494Y-75587537D01*
X81477185Y-75508185D01*
X81556537Y-75411494D01*
X81615502Y-75301180D01*
X81651812Y-75181482D01*
X81664072Y-75057000D01*
X81661000Y-73437750D01*
X81502250Y-73279000D01*
X80518000Y-73279000D01*
X80518000Y-73299000D01*
X80264000Y-73299000D01*
X80264000Y-73279000D01*
X79279750Y-73279000D01*
X79121000Y-73437750D01*
X79117928Y-75057000D01*
X78511000Y-75057000D01*
X78511000Y-71247000D01*
X79117928Y-71247000D01*
X79121000Y-72866250D01*
X79279750Y-73025000D01*
X80264000Y-73025000D01*
X80264000Y-73005000D01*
X80518000Y-73005000D01*
X80518000Y-73025000D01*
X81502250Y-73025000D01*
X81661000Y-72866250D01*
X81662849Y-71891407D01*
X81711078Y-71901000D01*
X81853409Y-71901000D01*
X81913156Y-71960747D01*
X81913156Y-74422000D01*
X81932714Y-74620571D01*
X81990635Y-74811512D01*
X82084693Y-74987483D01*
X82211275Y-75141724D01*
X82365516Y-75268306D01*
X82438357Y-75307240D01*
X82283338Y-75410821D01*
X82141821Y-75552338D01*
X82030632Y-75718744D01*
X81954044Y-75903644D01*
X81915000Y-76099933D01*
X81915000Y-76300067D01*
X81954044Y-76496356D01*
X82030632Y-76681256D01*
X82141821Y-76847662D01*
X82283338Y-76989179D01*
X82449744Y-77100368D01*
X82634644Y-77176956D01*
X82830933Y-77216000D01*
X83031067Y-77216000D01*
X83227356Y-77176956D01*
X83412256Y-77100368D01*
X83578662Y-76989179D01*
X83720179Y-76847662D01*
X83831368Y-76681256D01*
X83907956Y-76496356D01*
X83947000Y-76300067D01*
X83947000Y-76099933D01*
X83907956Y-75903644D01*
X83831368Y-75718744D01*
X83720179Y-75552338D01*
X83578662Y-75410821D01*
X83423643Y-75307240D01*
X83496484Y-75268306D01*
X83650725Y-75141724D01*
X83777307Y-74987483D01*
X83871365Y-74811512D01*
X83929286Y-74620571D01*
X83948844Y-74422000D01*
X83948844Y-73783000D01*
X84453156Y-73783000D01*
X84453156Y-74422000D01*
X84472714Y-74620571D01*
X84530635Y-74811512D01*
X84624693Y-74987483D01*
X84751275Y-75141724D01*
X84905516Y-75268306D01*
X84978357Y-75307240D01*
X84823338Y-75410821D01*
X84681821Y-75552338D01*
X84570632Y-75718744D01*
X84494044Y-75903644D01*
X84455000Y-76099933D01*
X84455000Y-76300067D01*
X84494044Y-76496356D01*
X84570632Y-76681256D01*
X84681821Y-76847662D01*
X84823338Y-76989179D01*
X84989744Y-77100368D01*
X85174644Y-77176956D01*
X85370933Y-77216000D01*
X85571067Y-77216000D01*
X85767356Y-77176956D01*
X85952256Y-77100368D01*
X86118662Y-76989179D01*
X86260179Y-76847662D01*
X86371368Y-76681256D01*
X86447956Y-76496356D01*
X86487000Y-76300067D01*
X86487000Y-76099933D01*
X86447956Y-75903644D01*
X86371368Y-75718744D01*
X86260179Y-75552338D01*
X86118662Y-75410821D01*
X85963643Y-75307240D01*
X86036484Y-75268306D01*
X86190725Y-75141724D01*
X86317307Y-74987483D01*
X86411365Y-74811512D01*
X86469286Y-74620571D01*
X86488844Y-74422000D01*
X86488844Y-71882000D01*
X86473637Y-71727603D01*
X86513191Y-71743987D01*
X86621079Y-71765447D01*
X86993156Y-72137525D01*
X86993156Y-74422000D01*
X87012714Y-74620571D01*
X87070635Y-74811512D01*
X87164693Y-74987483D01*
X87291275Y-75141724D01*
X87445516Y-75268306D01*
X87518357Y-75307240D01*
X87363338Y-75410821D01*
X87221821Y-75552338D01*
X87110632Y-75718744D01*
X87034044Y-75903644D01*
X86995000Y-76099933D01*
X86995000Y-76300067D01*
X87034044Y-76496356D01*
X87110632Y-76681256D01*
X87221821Y-76847662D01*
X87363338Y-76989179D01*
X87529744Y-77100368D01*
X87714644Y-77176956D01*
X87910933Y-77216000D01*
X88111067Y-77216000D01*
X88307356Y-77176956D01*
X88492256Y-77100368D01*
X88658662Y-76989179D01*
X88800179Y-76847662D01*
X88911368Y-76681256D01*
X88987956Y-76496356D01*
X89027000Y-76300067D01*
X89027000Y-76099933D01*
X88987956Y-75903644D01*
X88911368Y-75718744D01*
X88800179Y-75552338D01*
X88658662Y-75410821D01*
X88503643Y-75307240D01*
X88576484Y-75268306D01*
X88730725Y-75141724D01*
X88857307Y-74987483D01*
X88951365Y-74811512D01*
X89009286Y-74620571D01*
X89028844Y-74422000D01*
X89028844Y-71882000D01*
X89009286Y-71683429D01*
X88978904Y-71583272D01*
X89533156Y-72137524D01*
X89533156Y-74422000D01*
X89552714Y-74620571D01*
X89610635Y-74811512D01*
X89704693Y-74987483D01*
X89831275Y-75141724D01*
X89985516Y-75268306D01*
X90058357Y-75307240D01*
X89903338Y-75410821D01*
X89761821Y-75552338D01*
X89650632Y-75718744D01*
X89574044Y-75903644D01*
X89535000Y-76099933D01*
X89535000Y-76300067D01*
X89574044Y-76496356D01*
X89650632Y-76681256D01*
X89761821Y-76847662D01*
X89903338Y-76989179D01*
X90069744Y-77100368D01*
X90254644Y-77176956D01*
X90450933Y-77216000D01*
X90651067Y-77216000D01*
X90847356Y-77176956D01*
X91032256Y-77100368D01*
X91198662Y-76989179D01*
X91340179Y-76847662D01*
X91451368Y-76681256D01*
X91527956Y-76496356D01*
X91567000Y-76300067D01*
X91567000Y-76099933D01*
X91527956Y-75903644D01*
X91451368Y-75718744D01*
X91340179Y-75552338D01*
X91198662Y-75410821D01*
X91043643Y-75307240D01*
X91116484Y-75268306D01*
X91270725Y-75141724D01*
X91397307Y-74987483D01*
X91491365Y-74811512D01*
X91549286Y-74620571D01*
X91568844Y-74422000D01*
X91568844Y-71882000D01*
X91549286Y-71683429D01*
X91491365Y-71492488D01*
X91397307Y-71316517D01*
X91270725Y-71162276D01*
X91116484Y-71035694D01*
X90940513Y-70941636D01*
X90871967Y-70920843D01*
X91078000Y-70920843D01*
X91152689Y-70913487D01*
X91224508Y-70891701D01*
X91290696Y-70856322D01*
X91348711Y-70808711D01*
X91396322Y-70750696D01*
X91413264Y-70719000D01*
X91670632Y-70719000D01*
X92255266Y-71303634D01*
X92244693Y-71316517D01*
X92150635Y-71492488D01*
X92092714Y-71683429D01*
X92073156Y-71882000D01*
X92073156Y-74422000D01*
X92092714Y-74620571D01*
X92150635Y-74811512D01*
X92244693Y-74987483D01*
X92371275Y-75141724D01*
X92525516Y-75268306D01*
X92598357Y-75307240D01*
X92443338Y-75410821D01*
X92301821Y-75552338D01*
X92190632Y-75718744D01*
X92114044Y-75903644D01*
X92075000Y-76099933D01*
X92075000Y-76300067D01*
X92114044Y-76496356D01*
X92190632Y-76681256D01*
X92301821Y-76847662D01*
X92443338Y-76989179D01*
X92609744Y-77100368D01*
X92794644Y-77176956D01*
X92990933Y-77216000D01*
X93191067Y-77216000D01*
X93387356Y-77176956D01*
X93572256Y-77100368D01*
X93738662Y-76989179D01*
X93880179Y-76847662D01*
X93991368Y-76681256D01*
X94067956Y-76496356D01*
X94107000Y-76300067D01*
X94107000Y-76099933D01*
X94067956Y-75903644D01*
X93991368Y-75718744D01*
X93880179Y-75552338D01*
X93738662Y-75410821D01*
X93583643Y-75307240D01*
X93656484Y-75268306D01*
X93810725Y-75141724D01*
X93937307Y-74987483D01*
X94031365Y-74811512D01*
X94089286Y-74620571D01*
X94108844Y-74422000D01*
X94108844Y-71882000D01*
X94613156Y-71882000D01*
X94613156Y-74422000D01*
X94632714Y-74620571D01*
X94690635Y-74811512D01*
X94784693Y-74987483D01*
X94911275Y-75141724D01*
X95065516Y-75268306D01*
X95138357Y-75307240D01*
X94983338Y-75410821D01*
X94841821Y-75552338D01*
X94730632Y-75718744D01*
X94654044Y-75903644D01*
X94615000Y-76099933D01*
X94615000Y-76300067D01*
X94654044Y-76496356D01*
X94730632Y-76681256D01*
X94841821Y-76847662D01*
X94983338Y-76989179D01*
X95149744Y-77100368D01*
X95334644Y-77176956D01*
X95530933Y-77216000D01*
X95731067Y-77216000D01*
X95927356Y-77176956D01*
X96112256Y-77100368D01*
X96278662Y-76989179D01*
X96420179Y-76847662D01*
X96531368Y-76681256D01*
X96607956Y-76496356D01*
X96647000Y-76300067D01*
X96647000Y-76099933D01*
X96607956Y-75903644D01*
X96531368Y-75718744D01*
X96420179Y-75552338D01*
X96278662Y-75410821D01*
X96123643Y-75307240D01*
X96196484Y-75268306D01*
X96350725Y-75141724D01*
X96477307Y-74987483D01*
X96571365Y-74811512D01*
X96629286Y-74620571D01*
X96648844Y-74422000D01*
X96648844Y-71882000D01*
X96629286Y-71683429D01*
X96571365Y-71492488D01*
X96477307Y-71316517D01*
X96350725Y-71162276D01*
X96262000Y-71089461D01*
X96262000Y-70670336D01*
X96279487Y-70612689D01*
X96286843Y-70538000D01*
X96286843Y-69638000D01*
X96279487Y-69563311D01*
X96257701Y-69491492D01*
X96222322Y-69425304D01*
X96174711Y-69367289D01*
X96116696Y-69319678D01*
X96050508Y-69284299D01*
X95978689Y-69262513D01*
X95904000Y-69255157D01*
X95104000Y-69255157D01*
X95029311Y-69262513D01*
X94957492Y-69284299D01*
X94891304Y-69319678D01*
X94833289Y-69367289D01*
X94785678Y-69425304D01*
X94750299Y-69491492D01*
X94728513Y-69563311D01*
X94721157Y-69638000D01*
X94721157Y-70538000D01*
X94728513Y-70612689D01*
X94750299Y-70684508D01*
X94785678Y-70750696D01*
X94833289Y-70808711D01*
X94891304Y-70856322D01*
X94957492Y-70891701D01*
X95000001Y-70904596D01*
X95000001Y-71089461D01*
X94911275Y-71162276D01*
X94784693Y-71316517D01*
X94690635Y-71492488D01*
X94632714Y-71683429D01*
X94613156Y-71882000D01*
X94108844Y-71882000D01*
X94089286Y-71683429D01*
X94031365Y-71492488D01*
X93937307Y-71316517D01*
X93810725Y-71162276D01*
X93696176Y-71068268D01*
X93676789Y-71004358D01*
X93618196Y-70894739D01*
X93559103Y-70822734D01*
X93559101Y-70822732D01*
X93539343Y-70798657D01*
X93515268Y-70778899D01*
X92400105Y-69663737D01*
X92380343Y-69639657D01*
X92284261Y-69560804D01*
X92174642Y-69502211D01*
X92055698Y-69466130D01*
X91962998Y-69457000D01*
X91962990Y-69457000D01*
X91932000Y-69453948D01*
X91901010Y-69457000D01*
X91413264Y-69457000D01*
X91396322Y-69425304D01*
X91348711Y-69367289D01*
X91290696Y-69319678D01*
X91224508Y-69284299D01*
X91152689Y-69262513D01*
X91078000Y-69255157D01*
X90278000Y-69255157D01*
X90203311Y-69262513D01*
X90131492Y-69284299D01*
X90065304Y-69319678D01*
X90007289Y-69367289D01*
X89959678Y-69425304D01*
X89924299Y-69491492D01*
X89902513Y-69563311D01*
X89895157Y-69638000D01*
X89895157Y-70538000D01*
X89902513Y-70612689D01*
X89924299Y-70684508D01*
X89959678Y-70750696D01*
X90007289Y-70808711D01*
X90065304Y-70856322D01*
X90131492Y-70891701D01*
X90203311Y-70913487D01*
X90241789Y-70917277D01*
X90161487Y-70941636D01*
X90135757Y-70955389D01*
X88844105Y-69663737D01*
X88824343Y-69639657D01*
X88728261Y-69560804D01*
X88618642Y-69502211D01*
X88499698Y-69466130D01*
X88406998Y-69457000D01*
X88406990Y-69457000D01*
X88376000Y-69453948D01*
X88345010Y-69457000D01*
X86333264Y-69457000D01*
X86316322Y-69425304D01*
X86268711Y-69367289D01*
X86210696Y-69319678D01*
X86144508Y-69284299D01*
X86072689Y-69262513D01*
X85998000Y-69255157D01*
X85198000Y-69255157D01*
X85123311Y-69262513D01*
X85051492Y-69284299D01*
X84985304Y-69319678D01*
X84927289Y-69367289D01*
X84879678Y-69425304D01*
X84844299Y-69491492D01*
X84822513Y-69563311D01*
X84815157Y-69638000D01*
X84815157Y-70538000D01*
X84822513Y-70612689D01*
X84844299Y-70684508D01*
X84879678Y-70750696D01*
X84927289Y-70808711D01*
X84985304Y-70856322D01*
X85051492Y-70891701D01*
X85123311Y-70913487D01*
X85161789Y-70917277D01*
X85081487Y-70941636D01*
X84905516Y-71035694D01*
X84751275Y-71162276D01*
X84624693Y-71316517D01*
X84530635Y-71492488D01*
X84472714Y-71683429D01*
X84453156Y-71882000D01*
X84453156Y-72521000D01*
X83948844Y-72521000D01*
X83948844Y-71882000D01*
X83929286Y-71683429D01*
X83871365Y-71492488D01*
X83777307Y-71316517D01*
X83650725Y-71162276D01*
X83496484Y-71035694D01*
X83320513Y-70941636D01*
X83129572Y-70883715D01*
X82931001Y-70864157D01*
X82930999Y-70864157D01*
X82732428Y-70883715D01*
X82548405Y-70939538D01*
X82538987Y-70892191D01*
X82480113Y-70750058D01*
X82470052Y-70735000D01*
X82850595Y-70735000D01*
X82942058Y-70796113D01*
X83084191Y-70854987D01*
X83235078Y-70885000D01*
X83388922Y-70885000D01*
X83539809Y-70854987D01*
X83681942Y-70796113D01*
X83809859Y-70710642D01*
X83918642Y-70601859D01*
X84004113Y-70473942D01*
X84062987Y-70331809D01*
X84093000Y-70180922D01*
X84093000Y-70027078D01*
X84062987Y-69876191D01*
X84004113Y-69734058D01*
X83918642Y-69606141D01*
X83809859Y-69497358D01*
X83681942Y-69411887D01*
X83539809Y-69353013D01*
X83388922Y-69323000D01*
X83235078Y-69323000D01*
X83084191Y-69353013D01*
X82942058Y-69411887D01*
X82850595Y-69473000D01*
X81336369Y-69473000D01*
X81302322Y-69409304D01*
X81254711Y-69351289D01*
X81196696Y-69303678D01*
X81130508Y-69268299D01*
X81058689Y-69246513D01*
X80984000Y-69239157D01*
X80184000Y-69239157D01*
X80109311Y-69246513D01*
X80037492Y-69268299D01*
X79971304Y-69303678D01*
X79913289Y-69351289D01*
X79865678Y-69409304D01*
X79830299Y-69475492D01*
X79808513Y-69547311D01*
X79801157Y-69622000D01*
X79801157Y-70522000D01*
X79808513Y-70596689D01*
X79812376Y-70609424D01*
X79756000Y-70608928D01*
X79631518Y-70621188D01*
X79511820Y-70657498D01*
X79401506Y-70716463D01*
X79304815Y-70795815D01*
X79225463Y-70892506D01*
X79166498Y-71002820D01*
X79130188Y-71122518D01*
X79117928Y-71247000D01*
X78511000Y-71247000D01*
X78511000Y-68522000D01*
X78595928Y-68522000D01*
X78608188Y-68646482D01*
X78644498Y-68766180D01*
X78703463Y-68876494D01*
X78782815Y-68973185D01*
X78879506Y-69052537D01*
X78989820Y-69111502D01*
X79109518Y-69147812D01*
X79234000Y-69160072D01*
X79348250Y-69157000D01*
X79507000Y-68998250D01*
X79507000Y-68199000D01*
X79761000Y-68199000D01*
X79761000Y-68998250D01*
X79919750Y-69157000D01*
X80034000Y-69160072D01*
X80158482Y-69147812D01*
X80278180Y-69111502D01*
X80388494Y-69052537D01*
X80485185Y-68973185D01*
X80564537Y-68876494D01*
X80623502Y-68766180D01*
X80659812Y-68646482D01*
X80672072Y-68522000D01*
X80669000Y-68357750D01*
X80510250Y-68199000D01*
X79761000Y-68199000D01*
X79507000Y-68199000D01*
X78757750Y-68199000D01*
X78599000Y-68357750D01*
X78595928Y-68522000D01*
X78511000Y-68522000D01*
X78511000Y-67622000D01*
X78595928Y-67622000D01*
X78599000Y-67786250D01*
X78757750Y-67945000D01*
X79507000Y-67945000D01*
X79507000Y-67145750D01*
X79465250Y-67104000D01*
X79578000Y-66991250D01*
X79578000Y-66167000D01*
X78791250Y-66167000D01*
X78632500Y-66325750D01*
X78629428Y-66515000D01*
X78641688Y-66639482D01*
X78677998Y-66759180D01*
X78736963Y-66869494D01*
X78816315Y-66966185D01*
X78913006Y-67045537D01*
X78939216Y-67059547D01*
X78879506Y-67091463D01*
X78782815Y-67170815D01*
X78703463Y-67267506D01*
X78644498Y-67377820D01*
X78608188Y-67497518D01*
X78595928Y-67622000D01*
X78511000Y-67622000D01*
X78511000Y-65565000D01*
X78629428Y-65565000D01*
X78632500Y-65754250D01*
X78791250Y-65913000D01*
X79578000Y-65913000D01*
X79578000Y-65088750D01*
X79419250Y-64930000D01*
X79267500Y-64926928D01*
X79143018Y-64939188D01*
X79023320Y-64975498D01*
X78913006Y-65034463D01*
X78816315Y-65113815D01*
X78736963Y-65210506D01*
X78677998Y-65320820D01*
X78641688Y-65440518D01*
X78629428Y-65565000D01*
X78511000Y-65565000D01*
X78511000Y-63709000D01*
X78515928Y-63709000D01*
X78528188Y-63833482D01*
X78564498Y-63953180D01*
X78623463Y-64063494D01*
X78702815Y-64160185D01*
X78799506Y-64239537D01*
X78909820Y-64298502D01*
X79029518Y-64334812D01*
X79154000Y-64347072D01*
X79343250Y-64344000D01*
X79502000Y-64185250D01*
X79502000Y-63398500D01*
X79756000Y-63398500D01*
X79756000Y-64185250D01*
X79914750Y-64344000D01*
X80104000Y-64347072D01*
X80228482Y-64334812D01*
X80348180Y-64298502D01*
X80458494Y-64239537D01*
X80555185Y-64160185D01*
X80634537Y-64063494D01*
X80693502Y-63953180D01*
X80729812Y-63833482D01*
X80742072Y-63709000D01*
X80739000Y-63557250D01*
X80580250Y-63398500D01*
X79756000Y-63398500D01*
X79502000Y-63398500D01*
X78677750Y-63398500D01*
X78519000Y-63557250D01*
X78515928Y-63709000D01*
X78511000Y-63709000D01*
X78511000Y-62834000D01*
X78515928Y-62834000D01*
X78519000Y-62985750D01*
X78677750Y-63144500D01*
X79502000Y-63144500D01*
X79502000Y-63124500D01*
X79756000Y-63124500D01*
X79756000Y-63144500D01*
X80580250Y-63144500D01*
X80739000Y-62985750D01*
X80742072Y-62834000D01*
X80729812Y-62709518D01*
X80693502Y-62589820D01*
X80634537Y-62479506D01*
X80555185Y-62382815D01*
X80458494Y-62303463D01*
X80376930Y-62259866D01*
X80385456Y-62249477D01*
X80441049Y-62145470D01*
X80475284Y-62032615D01*
X80486843Y-61915250D01*
X80486843Y-61477750D01*
X80482272Y-61431339D01*
X80544191Y-61456987D01*
X80695078Y-61487000D01*
X80848922Y-61487000D01*
X80897156Y-61477406D01*
X80963750Y-61544000D01*
X81788000Y-61544000D01*
X81788000Y-60757250D01*
X82042000Y-60757250D01*
X82042000Y-61544000D01*
X82866250Y-61544000D01*
X83025000Y-61385250D01*
X83028072Y-61233500D01*
X83015812Y-61109018D01*
X82979502Y-60989320D01*
X82920537Y-60879006D01*
X82841185Y-60782315D01*
X82744494Y-60702963D01*
X82634180Y-60643998D01*
X82514482Y-60607688D01*
X82390000Y-60595428D01*
X82200750Y-60598500D01*
X82042000Y-60757250D01*
X81788000Y-60757250D01*
X81629250Y-60598500D01*
X81546651Y-60597159D01*
X81539450Y-60560958D01*
X81629250Y-60559500D01*
X81788000Y-60400750D01*
X81788000Y-59614000D01*
X82042000Y-59614000D01*
X82042000Y-60400750D01*
X82200750Y-60559500D01*
X82390000Y-60562572D01*
X82514482Y-60550312D01*
X82634180Y-60514002D01*
X82744494Y-60455037D01*
X82841185Y-60375685D01*
X82920537Y-60278994D01*
X82979502Y-60168680D01*
X83015812Y-60048982D01*
X83028072Y-59924500D01*
X83025000Y-59772750D01*
X82866250Y-59614000D01*
X82042000Y-59614000D01*
X81788000Y-59614000D01*
X80963750Y-59614000D01*
X80805000Y-59772750D01*
X80801928Y-59924500D01*
X80801977Y-59925000D01*
X80695078Y-59925000D01*
X80544191Y-59955013D01*
X80402058Y-60013887D01*
X80397926Y-60016648D01*
X80441049Y-59935970D01*
X80475284Y-59823115D01*
X80486843Y-59705750D01*
X80486843Y-59268250D01*
X80475284Y-59150885D01*
X80441049Y-59038030D01*
X80385456Y-58934023D01*
X80310640Y-58842860D01*
X80219477Y-58768044D01*
X80115470Y-58712451D01*
X80072777Y-58699500D01*
X80115470Y-58686549D01*
X80219477Y-58630956D01*
X80310640Y-58556140D01*
X80385456Y-58464977D01*
X80410566Y-58418000D01*
X81133434Y-58418000D01*
X81158544Y-58464977D01*
X81167070Y-58475366D01*
X81085506Y-58518963D01*
X80988815Y-58598315D01*
X80909463Y-58695006D01*
X80850498Y-58805320D01*
X80814188Y-58925018D01*
X80801928Y-59049500D01*
X80805000Y-59201250D01*
X80963750Y-59360000D01*
X81788000Y-59360000D01*
X81788000Y-59340000D01*
X82042000Y-59340000D01*
X82042000Y-59360000D01*
X82866250Y-59360000D01*
X83006875Y-59219376D01*
X83068141Y-59280642D01*
X83196058Y-59366113D01*
X83338191Y-59424987D01*
X83489078Y-59455000D01*
X83642922Y-59455000D01*
X83793809Y-59424987D01*
X83935942Y-59366113D01*
X84063859Y-59280642D01*
X84172642Y-59171859D01*
X84258113Y-59043942D01*
X84316987Y-58901809D01*
X84347000Y-58750922D01*
X84347000Y-58597078D01*
X84316987Y-58446191D01*
X84305310Y-58418000D01*
X84392157Y-58418000D01*
X84392157Y-58902000D01*
X84399513Y-58976689D01*
X84421299Y-59048508D01*
X84456678Y-59114696D01*
X84478031Y-59140715D01*
X84420506Y-59171463D01*
X84323815Y-59250815D01*
X84244463Y-59347506D01*
X84185498Y-59457820D01*
X84149188Y-59577518D01*
X84136928Y-59702000D01*
X84140000Y-60166250D01*
X84298750Y-60325000D01*
X85648000Y-60325000D01*
X85648000Y-60305000D01*
X85902000Y-60305000D01*
X85902000Y-60325000D01*
X87251250Y-60325000D01*
X87410000Y-60166250D01*
X87413072Y-59702000D01*
X87400812Y-59577518D01*
X87364502Y-59457820D01*
X87305537Y-59347506D01*
X87226185Y-59250815D01*
X87129494Y-59171463D01*
X87071969Y-59140715D01*
X87093322Y-59114696D01*
X87128701Y-59048508D01*
X87150487Y-58976689D01*
X87157843Y-58902000D01*
X87157843Y-57402000D01*
X87150487Y-57327311D01*
X87128701Y-57255492D01*
X87093322Y-57189304D01*
X87045711Y-57131289D01*
X86987696Y-57083678D01*
X86921508Y-57048299D01*
X86849689Y-57026513D01*
X86775000Y-57019157D01*
X84775000Y-57019157D01*
X84700311Y-57026513D01*
X84628492Y-57048299D01*
X84562304Y-57083678D01*
X84504289Y-57131289D01*
X84456678Y-57189304D01*
X84421299Y-57255492D01*
X84399513Y-57327311D01*
X84392157Y-57402000D01*
X84392157Y-57406000D01*
X83590854Y-57406000D01*
X83566000Y-57403552D01*
X83541146Y-57406000D01*
X82696566Y-57406000D01*
X82671456Y-57359023D01*
X82596640Y-57267860D01*
X82505477Y-57193044D01*
X82401470Y-57137451D01*
X82288615Y-57103216D01*
X82171250Y-57091657D01*
X81658750Y-57091657D01*
X81541385Y-57103216D01*
X81428530Y-57137451D01*
X81324523Y-57193044D01*
X81233360Y-57267860D01*
X81158544Y-57359023D01*
X81133434Y-57406000D01*
X80410566Y-57406000D01*
X80385456Y-57359023D01*
X80310640Y-57267860D01*
X80242095Y-57211606D01*
X80252942Y-57207113D01*
X80380859Y-57121642D01*
X80489642Y-57012859D01*
X80575113Y-56884942D01*
X80633987Y-56742809D01*
X80664000Y-56591922D01*
X80664000Y-56438078D01*
X80633987Y-56287191D01*
X80575113Y-56145058D01*
X80489642Y-56017141D01*
X80474344Y-56001843D01*
X80508000Y-56001843D01*
X80631462Y-55989683D01*
X80750179Y-55953671D01*
X80859589Y-55895190D01*
X80955488Y-55816488D01*
X81034190Y-55720589D01*
X81034504Y-55720000D01*
X81296428Y-55720000D01*
X81308688Y-55844482D01*
X81344998Y-55964180D01*
X81403963Y-56074494D01*
X81483315Y-56171185D01*
X81580006Y-56250537D01*
X81690320Y-56309502D01*
X81810018Y-56345812D01*
X81934500Y-56358072D01*
X82086250Y-56355000D01*
X82245000Y-56196250D01*
X82245000Y-55372000D01*
X81458250Y-55372000D01*
X81299500Y-55530750D01*
X81296428Y-55720000D01*
X81034504Y-55720000D01*
X81092671Y-55611179D01*
X81128683Y-55492462D01*
X81140843Y-55369000D01*
X81140843Y-54770000D01*
X81296428Y-54770000D01*
X81299500Y-54959250D01*
X81458250Y-55118000D01*
X82245000Y-55118000D01*
X82245000Y-54293750D01*
X82499000Y-54293750D01*
X82499000Y-55118000D01*
X82519000Y-55118000D01*
X82519000Y-55372000D01*
X82499000Y-55372000D01*
X82499000Y-56196250D01*
X82657750Y-56355000D01*
X82809500Y-56358072D01*
X82933982Y-56345812D01*
X83053680Y-56309502D01*
X83163994Y-56250537D01*
X83260685Y-56171185D01*
X83340037Y-56074494D01*
X83383634Y-55992930D01*
X83394023Y-56001456D01*
X83498030Y-56057049D01*
X83610885Y-56091284D01*
X83728250Y-56102843D01*
X84165750Y-56102843D01*
X84283115Y-56091284D01*
X84395970Y-56057049D01*
X84499977Y-56001456D01*
X84591140Y-55926640D01*
X84665956Y-55835477D01*
X84721549Y-55731470D01*
X84755784Y-55618615D01*
X84767343Y-55501250D01*
X84767343Y-54988750D01*
X84755784Y-54871385D01*
X84721549Y-54758530D01*
X84665956Y-54654523D01*
X84591140Y-54563360D01*
X84582673Y-54556411D01*
X84639113Y-54471942D01*
X84697987Y-54329809D01*
X84728000Y-54178922D01*
X84728000Y-54025078D01*
X84697987Y-53874191D01*
X84639113Y-53732058D01*
X84553642Y-53604141D01*
X84444859Y-53495358D01*
X84316942Y-53409887D01*
X84174809Y-53351013D01*
X84023922Y-53321000D01*
X83870078Y-53321000D01*
X83719191Y-53351013D01*
X83577058Y-53409887D01*
X83449141Y-53495358D01*
X83340358Y-53604141D01*
X83254887Y-53732058D01*
X83196013Y-53874191D01*
X83166000Y-54025078D01*
X83166000Y-54178922D01*
X83180783Y-54253241D01*
X83163994Y-54239463D01*
X83053680Y-54180498D01*
X82933982Y-54144188D01*
X82809500Y-54131928D01*
X82657750Y-54135000D01*
X82499000Y-54293750D01*
X82245000Y-54293750D01*
X82086250Y-54135000D01*
X81934500Y-54131928D01*
X81810018Y-54144188D01*
X81690320Y-54180498D01*
X81580006Y-54239463D01*
X81483315Y-54318815D01*
X81403963Y-54415506D01*
X81344998Y-54525820D01*
X81308688Y-54645518D01*
X81296428Y-54770000D01*
X81140843Y-54770000D01*
X81140843Y-54619000D01*
X81128683Y-54495538D01*
X81092671Y-54376821D01*
X81034190Y-54267411D01*
X80955488Y-54171512D01*
X80859589Y-54092810D01*
X80750179Y-54034329D01*
X80631462Y-53998317D01*
X80508000Y-53986157D01*
X79258000Y-53986157D01*
X79134538Y-53998317D01*
X79015821Y-54034329D01*
X78906411Y-54092810D01*
X78810512Y-54171512D01*
X78731810Y-54267411D01*
X78673329Y-54376821D01*
X78637317Y-54495538D01*
X78625157Y-54619000D01*
X78625157Y-55369000D01*
X78637317Y-55492462D01*
X78673329Y-55611179D01*
X78731810Y-55720589D01*
X78810512Y-55816488D01*
X78906411Y-55895190D01*
X79015821Y-55953671D01*
X79134538Y-55989683D01*
X79258000Y-56001843D01*
X79291656Y-56001843D01*
X79276358Y-56017141D01*
X79190887Y-56145058D01*
X79132013Y-56287191D01*
X79102000Y-56438078D01*
X79102000Y-56591922D01*
X79132013Y-56742809D01*
X79190887Y-56884942D01*
X79276358Y-57012859D01*
X79356733Y-57093234D01*
X79255385Y-57103216D01*
X79142530Y-57137451D01*
X79038523Y-57193044D01*
X78947360Y-57267860D01*
X78872544Y-57359023D01*
X78816951Y-57463030D01*
X78782716Y-57575885D01*
X78771157Y-57693250D01*
X78771157Y-58130750D01*
X78782716Y-58248115D01*
X78816951Y-58360970D01*
X78872544Y-58464977D01*
X78947360Y-58556140D01*
X79038523Y-58630956D01*
X79142530Y-58686549D01*
X79185223Y-58699500D01*
X79142530Y-58712451D01*
X79038523Y-58768044D01*
X78947360Y-58842860D01*
X78872544Y-58934023D01*
X78816951Y-59038030D01*
X78782716Y-59150885D01*
X78771157Y-59268250D01*
X78771157Y-59705750D01*
X78782716Y-59823115D01*
X78816951Y-59935970D01*
X78872544Y-60039977D01*
X78947360Y-60131140D01*
X79038523Y-60205956D01*
X79123001Y-60251110D01*
X79123001Y-60681136D01*
X79120552Y-60706000D01*
X79123000Y-60730854D01*
X79123000Y-60932390D01*
X79038523Y-60977544D01*
X78947360Y-61052360D01*
X78872544Y-61143523D01*
X78816951Y-61247530D01*
X78782716Y-61360385D01*
X78771157Y-61477750D01*
X78771157Y-61915250D01*
X78782716Y-62032615D01*
X78816951Y-62145470D01*
X78872544Y-62249477D01*
X78881070Y-62259866D01*
X78799506Y-62303463D01*
X78702815Y-62382815D01*
X78623463Y-62479506D01*
X78564498Y-62589820D01*
X78528188Y-62709518D01*
X78515928Y-62834000D01*
X78511000Y-62834000D01*
X78511000Y-53214359D01*
X78556815Y-53270185D01*
X78653506Y-53349537D01*
X78763820Y-53408502D01*
X78883518Y-53444812D01*
X79008000Y-53457072D01*
X79597250Y-53454000D01*
X79756000Y-53295250D01*
X79756000Y-52321000D01*
X80010000Y-52321000D01*
X80010000Y-53295250D01*
X80168750Y-53454000D01*
X80758000Y-53457072D01*
X80882482Y-53444812D01*
X81002180Y-53408502D01*
X81112494Y-53349537D01*
X81209185Y-53270185D01*
X81288537Y-53173494D01*
X81347502Y-53063180D01*
X81383812Y-52943482D01*
X81396072Y-52819000D01*
X81393000Y-52479750D01*
X81234250Y-52321000D01*
X80010000Y-52321000D01*
X79756000Y-52321000D01*
X79736000Y-52321000D01*
X79736000Y-52067000D01*
X79756000Y-52067000D01*
X79756000Y-51092750D01*
X80010000Y-51092750D01*
X80010000Y-52067000D01*
X81234250Y-52067000D01*
X81393000Y-51908250D01*
X81396072Y-51569000D01*
X81383812Y-51444518D01*
X81347502Y-51324820D01*
X81288537Y-51214506D01*
X81209185Y-51117815D01*
X81112494Y-51038463D01*
X81002180Y-50979498D01*
X80882482Y-50943188D01*
X80758000Y-50930928D01*
X80168750Y-50934000D01*
X80010000Y-51092750D01*
X79756000Y-51092750D01*
X79597250Y-50934000D01*
X79008000Y-50930928D01*
X78883518Y-50943188D01*
X78763820Y-50979498D01*
X78653506Y-51038463D01*
X78556815Y-51117815D01*
X78511000Y-51173641D01*
X78511000Y-50616654D01*
X78525494Y-50468830D01*
X78562660Y-50345731D01*
X78623028Y-50232196D01*
X78704296Y-50132551D01*
X78803372Y-50050588D01*
X78916487Y-49989426D01*
X79039318Y-49951404D01*
X79185878Y-49936000D01*
X97282000Y-49936000D01*
X97282000Y-55672409D01*
M02*
