G04 #@! TF.GenerationSoftware,KiCad,Pcbnew,(5.1.5)-3*
G04 #@! TF.CreationDate,2020-11-12T13:32:49+01:00*
G04 #@! TF.ProjectId,ESP8266_RGBA_Receiver,45535038-3236-4365-9f52-4742415f5265,rev?*
G04 #@! TF.SameCoordinates,Original*
G04 #@! TF.FileFunction,Legend,Top*
G04 #@! TF.FilePolarity,Positive*
%FSLAX46Y46*%
G04 Gerber Fmt 4.6, Leading zero omitted, Abs format (unit mm)*
G04 Created by KiCad (PCBNEW (5.1.5)-3) date 2020-11-12 13:32:49*
%MOMM*%
%LPD*%
G04 APERTURE LIST*
%ADD10C,0.150000*%
%ADD11C,0.120000*%
%ADD12C,0.075000*%
G04 APERTURE END LIST*
D10*
X85509285Y-51901285D02*
X85259285Y-51544142D01*
X85080714Y-51901285D02*
X85080714Y-51151285D01*
X85366428Y-51151285D01*
X85437857Y-51187000D01*
X85473571Y-51222714D01*
X85509285Y-51294142D01*
X85509285Y-51401285D01*
X85473571Y-51472714D01*
X85437857Y-51508428D01*
X85366428Y-51544142D01*
X85080714Y-51544142D01*
X86223571Y-51187000D02*
X86152142Y-51151285D01*
X86045000Y-51151285D01*
X85937857Y-51187000D01*
X85866428Y-51258428D01*
X85830714Y-51329857D01*
X85795000Y-51472714D01*
X85795000Y-51579857D01*
X85830714Y-51722714D01*
X85866428Y-51794142D01*
X85937857Y-51865571D01*
X86045000Y-51901285D01*
X86116428Y-51901285D01*
X86223571Y-51865571D01*
X86259285Y-51829857D01*
X86259285Y-51579857D01*
X86116428Y-51579857D01*
X86830714Y-51508428D02*
X86937857Y-51544142D01*
X86973571Y-51579857D01*
X87009285Y-51651285D01*
X87009285Y-51758428D01*
X86973571Y-51829857D01*
X86937857Y-51865571D01*
X86866428Y-51901285D01*
X86580714Y-51901285D01*
X86580714Y-51151285D01*
X86830714Y-51151285D01*
X86902142Y-51187000D01*
X86937857Y-51222714D01*
X86973571Y-51294142D01*
X86973571Y-51365571D01*
X86937857Y-51437000D01*
X86902142Y-51472714D01*
X86830714Y-51508428D01*
X86580714Y-51508428D01*
X87259285Y-51151285D02*
X87437857Y-51901285D01*
X87580714Y-51365571D01*
X87723571Y-51901285D01*
X87902142Y-51151285D01*
X88616428Y-51829857D02*
X88580714Y-51865571D01*
X88473571Y-51901285D01*
X88402142Y-51901285D01*
X88295000Y-51865571D01*
X88223571Y-51794142D01*
X88187857Y-51722714D01*
X88152142Y-51579857D01*
X88152142Y-51472714D01*
X88187857Y-51329857D01*
X88223571Y-51258428D01*
X88295000Y-51187000D01*
X88402142Y-51151285D01*
X88473571Y-51151285D01*
X88580714Y-51187000D01*
X88616428Y-51222714D01*
X89045000Y-51901285D02*
X88973571Y-51865571D01*
X88937857Y-51829857D01*
X88902142Y-51758428D01*
X88902142Y-51544142D01*
X88937857Y-51472714D01*
X88973571Y-51437000D01*
X89045000Y-51401285D01*
X89152142Y-51401285D01*
X89223571Y-51437000D01*
X89259285Y-51472714D01*
X89295000Y-51544142D01*
X89295000Y-51758428D01*
X89259285Y-51829857D01*
X89223571Y-51865571D01*
X89152142Y-51901285D01*
X89045000Y-51901285D01*
X89616428Y-51401285D02*
X89616428Y-51901285D01*
X89616428Y-51472714D02*
X89652142Y-51437000D01*
X89723571Y-51401285D01*
X89830714Y-51401285D01*
X89902142Y-51437000D01*
X89937857Y-51508428D01*
X89937857Y-51901285D01*
X90187857Y-51401285D02*
X90473571Y-51401285D01*
X90295000Y-51151285D02*
X90295000Y-51794142D01*
X90330714Y-51865571D01*
X90402142Y-51901285D01*
X90473571Y-51901285D01*
X90723571Y-51901285D02*
X90723571Y-51401285D01*
X90723571Y-51544142D02*
X90759285Y-51472714D01*
X90795000Y-51437000D01*
X90866428Y-51401285D01*
X90937857Y-51401285D01*
X91295000Y-51901285D02*
X91223571Y-51865571D01*
X91187857Y-51829857D01*
X91152142Y-51758428D01*
X91152142Y-51544142D01*
X91187857Y-51472714D01*
X91223571Y-51437000D01*
X91295000Y-51401285D01*
X91402142Y-51401285D01*
X91473571Y-51437000D01*
X91509285Y-51472714D01*
X91545000Y-51544142D01*
X91545000Y-51758428D01*
X91509285Y-51829857D01*
X91473571Y-51865571D01*
X91402142Y-51901285D01*
X91295000Y-51901285D01*
X91973571Y-51901285D02*
X91902142Y-51865571D01*
X91866428Y-51794142D01*
X91866428Y-51151285D01*
X92366428Y-51901285D02*
X92295000Y-51865571D01*
X92259285Y-51794142D01*
X92259285Y-51151285D01*
X92937857Y-51865571D02*
X92866428Y-51901285D01*
X92723571Y-51901285D01*
X92652142Y-51865571D01*
X92616428Y-51794142D01*
X92616428Y-51508428D01*
X92652142Y-51437000D01*
X92723571Y-51401285D01*
X92866428Y-51401285D01*
X92937857Y-51437000D01*
X92973571Y-51508428D01*
X92973571Y-51579857D01*
X92616428Y-51651285D01*
X93295000Y-51901285D02*
X93295000Y-51401285D01*
X93295000Y-51544142D02*
X93330714Y-51472714D01*
X93366428Y-51437000D01*
X93437857Y-51401285D01*
X93509285Y-51401285D01*
X94259285Y-51401285D02*
X94437857Y-51901285D01*
X94616428Y-51401285D01*
X94830714Y-51151285D02*
X95294999Y-51151285D01*
X95044999Y-51437000D01*
X95152142Y-51437000D01*
X95223571Y-51472714D01*
X95259285Y-51508428D01*
X95294999Y-51579857D01*
X95294999Y-51758428D01*
X95259285Y-51829857D01*
X95223571Y-51865571D01*
X95152142Y-51901285D01*
X94937857Y-51901285D01*
X94866428Y-51865571D01*
X94830714Y-51829857D01*
D11*
X81405000Y-58536721D02*
X81405000Y-58862279D01*
X82425000Y-58536721D02*
X82425000Y-58862279D01*
X84825000Y-57042000D02*
X90835000Y-57042000D01*
X87075000Y-63862000D02*
X90835000Y-63862000D01*
X90835000Y-57042000D02*
X90835000Y-58302000D01*
X90835000Y-63862000D02*
X90835000Y-62602000D01*
X97526000Y-63965000D02*
X97526000Y-59565000D01*
X97526000Y-59565000D02*
X97406000Y-59565000D01*
X96396000Y-59565000D02*
X95256000Y-59565000D01*
X94246000Y-59565000D02*
X94126000Y-59565000D01*
X94126000Y-59565000D02*
X94126000Y-63965000D01*
X94126000Y-63965000D02*
X94246000Y-63965000D01*
X95256000Y-63965000D02*
X96396000Y-63965000D01*
X97406000Y-63965000D02*
X97526000Y-63965000D01*
X96022279Y-57275000D02*
X95696721Y-57275000D01*
X96022279Y-58295000D02*
X95696721Y-58295000D01*
X82996721Y-55755000D02*
X83322279Y-55755000D01*
X82996721Y-54735000D02*
X83322279Y-54735000D01*
X80139000Y-62646779D02*
X80139000Y-62321221D01*
X79119000Y-62646779D02*
X79119000Y-62321221D01*
X80139000Y-58862279D02*
X80139000Y-58536721D01*
X79119000Y-58862279D02*
X79119000Y-58536721D01*
X88737221Y-68800000D02*
X89062779Y-68800000D01*
X88737221Y-67780000D02*
X89062779Y-67780000D01*
X92759721Y-68800000D02*
X93085279Y-68800000D01*
X92759721Y-67780000D02*
X93085279Y-67780000D01*
X96737221Y-68800000D02*
X97062779Y-68800000D01*
X96737221Y-67780000D02*
X97062779Y-67780000D01*
X100537221Y-68800000D02*
X100862779Y-68800000D01*
X100537221Y-67780000D02*
X100862779Y-67780000D01*
X87354000Y-72082000D02*
X87354000Y-70622000D01*
X90514000Y-72082000D02*
X90514000Y-69922000D01*
X90514000Y-72082000D02*
X89584000Y-72082000D01*
X87354000Y-72082000D02*
X88284000Y-72082000D01*
X91368000Y-72098000D02*
X91368000Y-70638000D01*
X94528000Y-72098000D02*
X94528000Y-69938000D01*
X94528000Y-72098000D02*
X93598000Y-72098000D01*
X91368000Y-72098000D02*
X92298000Y-72098000D01*
X95448000Y-72098000D02*
X95448000Y-70638000D01*
X98608000Y-72098000D02*
X98608000Y-69938000D01*
X98608000Y-72098000D02*
X97678000Y-72098000D01*
X95448000Y-72098000D02*
X96378000Y-72098000D01*
X99274000Y-72098000D02*
X99274000Y-70638000D01*
X102434000Y-72098000D02*
X102434000Y-69938000D01*
X102434000Y-72098000D02*
X101504000Y-72098000D01*
X99274000Y-72098000D02*
X100204000Y-72098000D01*
D10*
X97028000Y-56134000D02*
X89408000Y-56134000D01*
X89408000Y-56134000D02*
X89408000Y-54864000D01*
X89408000Y-54864000D02*
X97028000Y-54864000D01*
X97028000Y-54864000D02*
X97028000Y-56134000D01*
X90581815Y-55499000D02*
G75*
G03X90581815Y-55499000I-538815J0D01*
G01*
X90678000Y-56007000D02*
X89535000Y-56007000D01*
X89535000Y-56007000D02*
X89535000Y-54991000D01*
X89535000Y-54991000D02*
X90678000Y-54991000D01*
X90678000Y-54991000D02*
X90678000Y-56007000D01*
X90551000Y-56007000D02*
X90551000Y-54991000D01*
D11*
X80793000Y-54196064D02*
X80793000Y-52991936D01*
X78973000Y-54196064D02*
X78973000Y-52991936D01*
X82425000Y-62621279D02*
X82425000Y-62295721D01*
X81405000Y-62621279D02*
X81405000Y-62295721D01*
D10*
X88166666Y-75252380D02*
X88166666Y-75966666D01*
X88119047Y-76109523D01*
X88023809Y-76204761D01*
X87880952Y-76252380D01*
X87785714Y-76252380D01*
X88595238Y-75347619D02*
X88642857Y-75300000D01*
X88738095Y-75252380D01*
X88976190Y-75252380D01*
X89071428Y-75300000D01*
X89119047Y-75347619D01*
X89166666Y-75442857D01*
X89166666Y-75538095D01*
X89119047Y-75680952D01*
X88547619Y-76252380D01*
X89166666Y-76252380D01*
X83202380Y-71333333D02*
X83916666Y-71333333D01*
X84059523Y-71380952D01*
X84154761Y-71476190D01*
X84202380Y-71619047D01*
X84202380Y-71714285D01*
X84202380Y-70333333D02*
X84202380Y-70904761D01*
X84202380Y-70619047D02*
X83202380Y-70619047D01*
X83345238Y-70714285D01*
X83440476Y-70809523D01*
X83488095Y-70904761D01*
X83000000Y-68392857D02*
X82952380Y-68488095D01*
X82952380Y-68630952D01*
X83000000Y-68773809D01*
X83095238Y-68869047D01*
X83190476Y-68916666D01*
X83380952Y-68964285D01*
X83523809Y-68964285D01*
X83714285Y-68916666D01*
X83809523Y-68869047D01*
X83904761Y-68773809D01*
X83952380Y-68630952D01*
X83952380Y-68535714D01*
X83904761Y-68392857D01*
X83857142Y-68345238D01*
X83523809Y-68345238D01*
X83523809Y-68535714D01*
X83285714Y-67916666D02*
X83952380Y-67916666D01*
X83380952Y-67916666D02*
X83333333Y-67869047D01*
X83285714Y-67773809D01*
X83285714Y-67630952D01*
X83333333Y-67535714D01*
X83428571Y-67488095D01*
X83952380Y-67488095D01*
X83952380Y-66583333D02*
X82952380Y-66583333D01*
X83904761Y-66583333D02*
X83952380Y-66678571D01*
X83952380Y-66869047D01*
X83904761Y-66964285D01*
X83857142Y-67011904D01*
X83761904Y-67059523D01*
X83476190Y-67059523D01*
X83380952Y-67011904D01*
X83333333Y-66964285D01*
X83285714Y-66869047D01*
X83285714Y-66678571D01*
X83333333Y-66583333D01*
X79702380Y-69023809D02*
X80702380Y-68690476D01*
X79702380Y-68357142D01*
X80702380Y-68023809D02*
X80035714Y-68023809D01*
X79702380Y-68023809D02*
X79750000Y-68071428D01*
X79797619Y-68023809D01*
X79750000Y-67976190D01*
X79702380Y-68023809D01*
X79797619Y-68023809D01*
X80035714Y-67547619D02*
X80702380Y-67547619D01*
X80130952Y-67547619D02*
X80083333Y-67500000D01*
X80035714Y-67404761D01*
X80035714Y-67261904D01*
X80083333Y-67166666D01*
X80178571Y-67119047D01*
X80702380Y-67119047D01*
D12*
X83523571Y-58782833D02*
X83547380Y-58806642D01*
X83571190Y-58878071D01*
X83571190Y-58925690D01*
X83547380Y-58997119D01*
X83499761Y-59044738D01*
X83452142Y-59068547D01*
X83356904Y-59092357D01*
X83285476Y-59092357D01*
X83190238Y-59068547D01*
X83142619Y-59044738D01*
X83095000Y-58997119D01*
X83071190Y-58925690D01*
X83071190Y-58878071D01*
X83095000Y-58806642D01*
X83118809Y-58782833D01*
X83571190Y-58306642D02*
X83571190Y-58592357D01*
X83571190Y-58449500D02*
X83071190Y-58449500D01*
X83142619Y-58497119D01*
X83190238Y-58544738D01*
X83214047Y-58592357D01*
X87376047Y-55678190D02*
X87376047Y-56082952D01*
X87399857Y-56130571D01*
X87423666Y-56154380D01*
X87471285Y-56178190D01*
X87566523Y-56178190D01*
X87614142Y-56154380D01*
X87637952Y-56130571D01*
X87661761Y-56082952D01*
X87661761Y-55678190D01*
X88161761Y-56178190D02*
X87876047Y-56178190D01*
X88018904Y-56178190D02*
X88018904Y-55678190D01*
X87971285Y-55749619D01*
X87923666Y-55797238D01*
X87876047Y-55821047D01*
X93547380Y-62261666D02*
X93571190Y-62190238D01*
X93571190Y-62071190D01*
X93547380Y-62023571D01*
X93523571Y-61999761D01*
X93475952Y-61975952D01*
X93428333Y-61975952D01*
X93380714Y-61999761D01*
X93356904Y-62023571D01*
X93333095Y-62071190D01*
X93309285Y-62166428D01*
X93285476Y-62214047D01*
X93261666Y-62237857D01*
X93214047Y-62261666D01*
X93166428Y-62261666D01*
X93118809Y-62237857D01*
X93095000Y-62214047D01*
X93071190Y-62166428D01*
X93071190Y-62047380D01*
X93095000Y-61975952D01*
X93071190Y-61809285D02*
X93571190Y-61690238D01*
X93214047Y-61595000D01*
X93571190Y-61499761D01*
X93071190Y-61380714D01*
X93571190Y-60928333D02*
X93571190Y-61214047D01*
X93571190Y-61071190D02*
X93071190Y-61071190D01*
X93142619Y-61118809D01*
X93190238Y-61166428D01*
X93214047Y-61214047D01*
X93007666Y-58011190D02*
X92841000Y-57773095D01*
X92721952Y-58011190D02*
X92721952Y-57511190D01*
X92912428Y-57511190D01*
X92960047Y-57535000D01*
X92983857Y-57558809D01*
X93007666Y-57606428D01*
X93007666Y-57677857D01*
X92983857Y-57725476D01*
X92960047Y-57749285D01*
X92912428Y-57773095D01*
X92721952Y-57773095D01*
X93293380Y-57725476D02*
X93245761Y-57701666D01*
X93221952Y-57677857D01*
X93198142Y-57630238D01*
X93198142Y-57606428D01*
X93221952Y-57558809D01*
X93245761Y-57535000D01*
X93293380Y-57511190D01*
X93388619Y-57511190D01*
X93436238Y-57535000D01*
X93460047Y-57558809D01*
X93483857Y-57606428D01*
X93483857Y-57630238D01*
X93460047Y-57677857D01*
X93436238Y-57701666D01*
X93388619Y-57725476D01*
X93293380Y-57725476D01*
X93245761Y-57749285D01*
X93221952Y-57773095D01*
X93198142Y-57820714D01*
X93198142Y-57915952D01*
X93221952Y-57963571D01*
X93245761Y-57987380D01*
X93293380Y-58011190D01*
X93388619Y-58011190D01*
X93436238Y-57987380D01*
X93460047Y-57963571D01*
X93483857Y-57915952D01*
X93483857Y-57820714D01*
X93460047Y-57773095D01*
X93436238Y-57749285D01*
X93388619Y-57725476D01*
X83101666Y-53998190D02*
X82935000Y-53760095D01*
X82815952Y-53998190D02*
X82815952Y-53498190D01*
X83006428Y-53498190D01*
X83054047Y-53522000D01*
X83077857Y-53545809D01*
X83101666Y-53593428D01*
X83101666Y-53664857D01*
X83077857Y-53712476D01*
X83054047Y-53736285D01*
X83006428Y-53760095D01*
X82815952Y-53760095D01*
X83268333Y-53498190D02*
X83601666Y-53498190D01*
X83387380Y-53998190D01*
X78915390Y-62491133D02*
X78677295Y-62657800D01*
X78915390Y-62776847D02*
X78415390Y-62776847D01*
X78415390Y-62586371D01*
X78439200Y-62538752D01*
X78463009Y-62514942D01*
X78510628Y-62491133D01*
X78582057Y-62491133D01*
X78629676Y-62514942D01*
X78653485Y-62538752D01*
X78677295Y-62586371D01*
X78677295Y-62776847D01*
X78415390Y-62062561D02*
X78415390Y-62157800D01*
X78439200Y-62205419D01*
X78463009Y-62229228D01*
X78534438Y-62276847D01*
X78629676Y-62300657D01*
X78820152Y-62300657D01*
X78867771Y-62276847D01*
X78891580Y-62253038D01*
X78915390Y-62205419D01*
X78915390Y-62110180D01*
X78891580Y-62062561D01*
X78867771Y-62038752D01*
X78820152Y-62014942D01*
X78701104Y-62014942D01*
X78653485Y-62038752D01*
X78629676Y-62062561D01*
X78605866Y-62110180D01*
X78605866Y-62205419D01*
X78629676Y-62253038D01*
X78653485Y-62276847D01*
X78701104Y-62300657D01*
X78889990Y-58681133D02*
X78651895Y-58847800D01*
X78889990Y-58966847D02*
X78389990Y-58966847D01*
X78389990Y-58776371D01*
X78413800Y-58728752D01*
X78437609Y-58704942D01*
X78485228Y-58681133D01*
X78556657Y-58681133D01*
X78604276Y-58704942D01*
X78628085Y-58728752D01*
X78651895Y-58776371D01*
X78651895Y-58966847D01*
X78389990Y-58228752D02*
X78389990Y-58466847D01*
X78628085Y-58490657D01*
X78604276Y-58466847D01*
X78580466Y-58419228D01*
X78580466Y-58300180D01*
X78604276Y-58252561D01*
X78628085Y-58228752D01*
X78675704Y-58204942D01*
X78794752Y-58204942D01*
X78842371Y-58228752D01*
X78866180Y-58252561D01*
X78889990Y-58300180D01*
X78889990Y-58419228D01*
X78866180Y-58466847D01*
X78842371Y-58490657D01*
X88765966Y-67550990D02*
X88599300Y-67312895D01*
X88480252Y-67550990D02*
X88480252Y-67050990D01*
X88670728Y-67050990D01*
X88718347Y-67074800D01*
X88742157Y-67098609D01*
X88765966Y-67146228D01*
X88765966Y-67217657D01*
X88742157Y-67265276D01*
X88718347Y-67289085D01*
X88670728Y-67312895D01*
X88480252Y-67312895D01*
X89194538Y-67217657D02*
X89194538Y-67550990D01*
X89075490Y-67027180D02*
X88956442Y-67384323D01*
X89265966Y-67384323D01*
X90451666Y-68008190D02*
X90285000Y-67770095D01*
X90165952Y-68008190D02*
X90165952Y-67508190D01*
X90356428Y-67508190D01*
X90404047Y-67532000D01*
X90427857Y-67555809D01*
X90451666Y-67603428D01*
X90451666Y-67674857D01*
X90427857Y-67722476D01*
X90404047Y-67746285D01*
X90356428Y-67770095D01*
X90165952Y-67770095D01*
X90618333Y-67508190D02*
X90927857Y-67508190D01*
X90761190Y-67698666D01*
X90832619Y-67698666D01*
X90880238Y-67722476D01*
X90904047Y-67746285D01*
X90927857Y-67793904D01*
X90927857Y-67912952D01*
X90904047Y-67960571D01*
X90880238Y-67984380D01*
X90832619Y-68008190D01*
X90689761Y-68008190D01*
X90642142Y-67984380D01*
X90618333Y-67960571D01*
X94429166Y-67881190D02*
X94262500Y-67643095D01*
X94143452Y-67881190D02*
X94143452Y-67381190D01*
X94333928Y-67381190D01*
X94381547Y-67405000D01*
X94405357Y-67428809D01*
X94429166Y-67476428D01*
X94429166Y-67547857D01*
X94405357Y-67595476D01*
X94381547Y-67619285D01*
X94333928Y-67643095D01*
X94143452Y-67643095D01*
X94619642Y-67428809D02*
X94643452Y-67405000D01*
X94691071Y-67381190D01*
X94810119Y-67381190D01*
X94857738Y-67405000D01*
X94881547Y-67428809D01*
X94905357Y-67476428D01*
X94905357Y-67524047D01*
X94881547Y-67595476D01*
X94595833Y-67881190D01*
X94905357Y-67881190D01*
X98483166Y-67881190D02*
X98316500Y-67643095D01*
X98197452Y-67881190D02*
X98197452Y-67381190D01*
X98387928Y-67381190D01*
X98435547Y-67405000D01*
X98459357Y-67428809D01*
X98483166Y-67476428D01*
X98483166Y-67547857D01*
X98459357Y-67595476D01*
X98435547Y-67619285D01*
X98387928Y-67643095D01*
X98197452Y-67643095D01*
X98959357Y-67881190D02*
X98673642Y-67881190D01*
X98816500Y-67881190D02*
X98816500Y-67381190D01*
X98768880Y-67452619D01*
X98721261Y-67500238D01*
X98673642Y-67524047D01*
X87186009Y-70039419D02*
X87162200Y-70087038D01*
X87114580Y-70134657D01*
X87043152Y-70206085D01*
X87019342Y-70253704D01*
X87019342Y-70301323D01*
X87138390Y-70277514D02*
X87114580Y-70325133D01*
X87066961Y-70372752D01*
X86971723Y-70396561D01*
X86805057Y-70396561D01*
X86709819Y-70372752D01*
X86662200Y-70325133D01*
X86638390Y-70277514D01*
X86638390Y-70182276D01*
X86662200Y-70134657D01*
X86709819Y-70087038D01*
X86805057Y-70063228D01*
X86971723Y-70063228D01*
X87066961Y-70087038D01*
X87114580Y-70134657D01*
X87138390Y-70182276D01*
X87138390Y-70277514D01*
X86805057Y-69634657D02*
X87138390Y-69634657D01*
X86614580Y-69753704D02*
X86971723Y-69872752D01*
X86971723Y-69563228D01*
X90487380Y-69452809D02*
X90439761Y-69429000D01*
X90392142Y-69381380D01*
X90320714Y-69309952D01*
X90273095Y-69286142D01*
X90225476Y-69286142D01*
X90249285Y-69405190D02*
X90201666Y-69381380D01*
X90154047Y-69333761D01*
X90130238Y-69238523D01*
X90130238Y-69071857D01*
X90154047Y-68976619D01*
X90201666Y-68929000D01*
X90249285Y-68905190D01*
X90344523Y-68905190D01*
X90392142Y-68929000D01*
X90439761Y-68976619D01*
X90463571Y-69071857D01*
X90463571Y-69238523D01*
X90439761Y-69333761D01*
X90392142Y-69381380D01*
X90344523Y-69405190D01*
X90249285Y-69405190D01*
X90630238Y-68905190D02*
X90939761Y-68905190D01*
X90773095Y-69095666D01*
X90844523Y-69095666D01*
X90892142Y-69119476D01*
X90915952Y-69143285D01*
X90939761Y-69190904D01*
X90939761Y-69309952D01*
X90915952Y-69357571D01*
X90892142Y-69381380D01*
X90844523Y-69405190D01*
X90701666Y-69405190D01*
X90654047Y-69381380D01*
X90630238Y-69357571D01*
X94567380Y-69325809D02*
X94519761Y-69302000D01*
X94472142Y-69254380D01*
X94400714Y-69182952D01*
X94353095Y-69159142D01*
X94305476Y-69159142D01*
X94329285Y-69278190D02*
X94281666Y-69254380D01*
X94234047Y-69206761D01*
X94210238Y-69111523D01*
X94210238Y-68944857D01*
X94234047Y-68849619D01*
X94281666Y-68802000D01*
X94329285Y-68778190D01*
X94424523Y-68778190D01*
X94472142Y-68802000D01*
X94519761Y-68849619D01*
X94543571Y-68944857D01*
X94543571Y-69111523D01*
X94519761Y-69206761D01*
X94472142Y-69254380D01*
X94424523Y-69278190D01*
X94329285Y-69278190D01*
X94734047Y-68825809D02*
X94757857Y-68802000D01*
X94805476Y-68778190D01*
X94924523Y-68778190D01*
X94972142Y-68802000D01*
X94995952Y-68825809D01*
X95019761Y-68873428D01*
X95019761Y-68921047D01*
X94995952Y-68992476D01*
X94710238Y-69278190D01*
X95019761Y-69278190D01*
X98647380Y-69325809D02*
X98599761Y-69302000D01*
X98552142Y-69254380D01*
X98480714Y-69182952D01*
X98433095Y-69159142D01*
X98385476Y-69159142D01*
X98409285Y-69278190D02*
X98361666Y-69254380D01*
X98314047Y-69206761D01*
X98290238Y-69111523D01*
X98290238Y-68944857D01*
X98314047Y-68849619D01*
X98361666Y-68802000D01*
X98409285Y-68778190D01*
X98504523Y-68778190D01*
X98552142Y-68802000D01*
X98599761Y-68849619D01*
X98623571Y-68944857D01*
X98623571Y-69111523D01*
X98599761Y-69206761D01*
X98552142Y-69254380D01*
X98504523Y-69278190D01*
X98409285Y-69278190D01*
X99099761Y-69278190D02*
X98814047Y-69278190D01*
X98956904Y-69278190D02*
X98956904Y-68778190D01*
X98909285Y-68849619D01*
X98861666Y-68897238D01*
X98814047Y-68921047D01*
D10*
X89541809Y-54451380D02*
X89541809Y-53451380D01*
X89970380Y-54403761D02*
X90113238Y-54451380D01*
X90351333Y-54451380D01*
X90446571Y-54403761D01*
X90494190Y-54356142D01*
X90541809Y-54260904D01*
X90541809Y-54165666D01*
X90494190Y-54070428D01*
X90446571Y-54022809D01*
X90351333Y-53975190D01*
X90160857Y-53927571D01*
X90065619Y-53879952D01*
X90018000Y-53832333D01*
X89970380Y-53737095D01*
X89970380Y-53641857D01*
X90018000Y-53546619D01*
X90065619Y-53499000D01*
X90160857Y-53451380D01*
X90398952Y-53451380D01*
X90541809Y-53499000D01*
X90970380Y-54451380D02*
X90970380Y-53451380D01*
X91351333Y-53451380D01*
X91446571Y-53499000D01*
X91494190Y-53546619D01*
X91541809Y-53641857D01*
X91541809Y-53784714D01*
X91494190Y-53879952D01*
X91446571Y-53927571D01*
X91351333Y-53975190D01*
X90970380Y-53975190D01*
D12*
X79799666Y-50851571D02*
X79775857Y-50875380D01*
X79704428Y-50899190D01*
X79656809Y-50899190D01*
X79585380Y-50875380D01*
X79537761Y-50827761D01*
X79513952Y-50780142D01*
X79490142Y-50684904D01*
X79490142Y-50613476D01*
X79513952Y-50518238D01*
X79537761Y-50470619D01*
X79585380Y-50423000D01*
X79656809Y-50399190D01*
X79704428Y-50399190D01*
X79775857Y-50423000D01*
X79799666Y-50446809D01*
X79966333Y-50399190D02*
X80275857Y-50399190D01*
X80109190Y-50589666D01*
X80180619Y-50589666D01*
X80228238Y-50613476D01*
X80252047Y-50637285D01*
X80275857Y-50684904D01*
X80275857Y-50803952D01*
X80252047Y-50851571D01*
X80228238Y-50875380D01*
X80180619Y-50899190D01*
X80037761Y-50899190D01*
X79990142Y-50875380D01*
X79966333Y-50851571D01*
X83617571Y-62541833D02*
X83641380Y-62565642D01*
X83665190Y-62637071D01*
X83665190Y-62684690D01*
X83641380Y-62756119D01*
X83593761Y-62803738D01*
X83546142Y-62827547D01*
X83450904Y-62851357D01*
X83379476Y-62851357D01*
X83284238Y-62827547D01*
X83236619Y-62803738D01*
X83189000Y-62756119D01*
X83165190Y-62684690D01*
X83165190Y-62637071D01*
X83189000Y-62565642D01*
X83212809Y-62541833D01*
X83212809Y-62351357D02*
X83189000Y-62327547D01*
X83165190Y-62279928D01*
X83165190Y-62160880D01*
X83189000Y-62113261D01*
X83212809Y-62089452D01*
X83260428Y-62065642D01*
X83308047Y-62065642D01*
X83379476Y-62089452D01*
X83665190Y-62375166D01*
X83665190Y-62065642D01*
M02*
