G04 #@! TF.GenerationSoftware,KiCad,Pcbnew,(5.1.5)-3*
G04 #@! TF.CreationDate,2020-11-12T13:32:49+01:00*
G04 #@! TF.ProjectId,ESP8266_RGBA_Receiver,45535038-3236-4365-9f52-4742415f5265,rev?*
G04 #@! TF.SameCoordinates,Original*
G04 #@! TF.FileFunction,Paste,Top*
G04 #@! TF.FilePolarity,Positive*
%FSLAX46Y46*%
G04 Gerber Fmt 4.6, Leading zero omitted, Abs format (unit mm)*
G04 Created by KiCad (PCBNEW (5.1.5)-3) date 2020-11-12 13:32:49*
%MOMM*%
%LPD*%
G04 APERTURE LIST*
%ADD10C,0.100000*%
%ADD11R,2.000000X1.500000*%
%ADD12R,2.000000X3.800000*%
%ADD13R,0.650000X1.050000*%
%ADD14R,0.800000X0.900000*%
G04 APERTURE END LIST*
D10*
G36*
X80799009Y-69502408D02*
G01*
X80847545Y-69509607D01*
X80895142Y-69521530D01*
X80941342Y-69538060D01*
X80985698Y-69559039D01*
X81027785Y-69584265D01*
X81067197Y-69613495D01*
X81103553Y-69646447D01*
X81136505Y-69682803D01*
X81165735Y-69722215D01*
X81190961Y-69764302D01*
X81211940Y-69808658D01*
X81228470Y-69854858D01*
X81240393Y-69902455D01*
X81247592Y-69950991D01*
X81250000Y-70000000D01*
X81250000Y-73000000D01*
X81247592Y-73049009D01*
X81240393Y-73097545D01*
X81228470Y-73145142D01*
X81211940Y-73191342D01*
X81190961Y-73235698D01*
X81165735Y-73277785D01*
X81136505Y-73317197D01*
X81103553Y-73353553D01*
X81067197Y-73386505D01*
X81027785Y-73415735D01*
X80985698Y-73440961D01*
X80941342Y-73461940D01*
X80895142Y-73478470D01*
X80847545Y-73490393D01*
X80799009Y-73497592D01*
X80750000Y-73500000D01*
X79750000Y-73500000D01*
X79700991Y-73497592D01*
X79652455Y-73490393D01*
X79604858Y-73478470D01*
X79558658Y-73461940D01*
X79514302Y-73440961D01*
X79472215Y-73415735D01*
X79432803Y-73386505D01*
X79396447Y-73353553D01*
X79363495Y-73317197D01*
X79334265Y-73277785D01*
X79309039Y-73235698D01*
X79288060Y-73191342D01*
X79271530Y-73145142D01*
X79259607Y-73097545D01*
X79252408Y-73049009D01*
X79250000Y-73000000D01*
X79250000Y-70000000D01*
X79252408Y-69950991D01*
X79259607Y-69902455D01*
X79271530Y-69854858D01*
X79288060Y-69808658D01*
X79309039Y-69764302D01*
X79334265Y-69722215D01*
X79363495Y-69682803D01*
X79396447Y-69646447D01*
X79432803Y-69613495D01*
X79472215Y-69584265D01*
X79514302Y-69559039D01*
X79558658Y-69538060D01*
X79604858Y-69521530D01*
X79652455Y-69509607D01*
X79700991Y-69502408D01*
X79750000Y-69500000D01*
X80750000Y-69500000D01*
X80799009Y-69502408D01*
G37*
G36*
X83999009Y-69502408D02*
G01*
X84047545Y-69509607D01*
X84095142Y-69521530D01*
X84141342Y-69538060D01*
X84185698Y-69559039D01*
X84227785Y-69584265D01*
X84267197Y-69613495D01*
X84303553Y-69646447D01*
X84336505Y-69682803D01*
X84365735Y-69722215D01*
X84390961Y-69764302D01*
X84411940Y-69808658D01*
X84428470Y-69854858D01*
X84440393Y-69902455D01*
X84447592Y-69950991D01*
X84450000Y-70000000D01*
X84450000Y-73000000D01*
X84447592Y-73049009D01*
X84440393Y-73097545D01*
X84428470Y-73145142D01*
X84411940Y-73191342D01*
X84390961Y-73235698D01*
X84365735Y-73277785D01*
X84336505Y-73317197D01*
X84303553Y-73353553D01*
X84267197Y-73386505D01*
X84227785Y-73415735D01*
X84185698Y-73440961D01*
X84141342Y-73461940D01*
X84095142Y-73478470D01*
X84047545Y-73490393D01*
X83999009Y-73497592D01*
X83950000Y-73500000D01*
X82950000Y-73500000D01*
X82900991Y-73497592D01*
X82852455Y-73490393D01*
X82804858Y-73478470D01*
X82758658Y-73461940D01*
X82714302Y-73440961D01*
X82672215Y-73415735D01*
X82632803Y-73386505D01*
X82596447Y-73353553D01*
X82563495Y-73317197D01*
X82534265Y-73277785D01*
X82509039Y-73235698D01*
X82488060Y-73191342D01*
X82471530Y-73145142D01*
X82459607Y-73097545D01*
X82452408Y-73049009D01*
X82450000Y-73000000D01*
X82450000Y-70000000D01*
X82452408Y-69950991D01*
X82459607Y-69902455D01*
X82471530Y-69854858D01*
X82488060Y-69808658D01*
X82509039Y-69764302D01*
X82534265Y-69722215D01*
X82563495Y-69682803D01*
X82596447Y-69646447D01*
X82632803Y-69613495D01*
X82672215Y-69584265D01*
X82714302Y-69559039D01*
X82758658Y-69538060D01*
X82804858Y-69521530D01*
X82852455Y-69509607D01*
X82900991Y-69502408D01*
X82950000Y-69500000D01*
X83950000Y-69500000D01*
X83999009Y-69502408D01*
G37*
G36*
X82192691Y-59050553D02*
G01*
X82213926Y-59053703D01*
X82234750Y-59058919D01*
X82254962Y-59066151D01*
X82274368Y-59075330D01*
X82292781Y-59086366D01*
X82310024Y-59099154D01*
X82325930Y-59113570D01*
X82340346Y-59129476D01*
X82353134Y-59146719D01*
X82364170Y-59165132D01*
X82373349Y-59184538D01*
X82380581Y-59204750D01*
X82385797Y-59225574D01*
X82388947Y-59246809D01*
X82390000Y-59268250D01*
X82390000Y-59705750D01*
X82388947Y-59727191D01*
X82385797Y-59748426D01*
X82380581Y-59769250D01*
X82373349Y-59789462D01*
X82364170Y-59808868D01*
X82353134Y-59827281D01*
X82340346Y-59844524D01*
X82325930Y-59860430D01*
X82310024Y-59874846D01*
X82292781Y-59887634D01*
X82274368Y-59898670D01*
X82254962Y-59907849D01*
X82234750Y-59915081D01*
X82213926Y-59920297D01*
X82192691Y-59923447D01*
X82171250Y-59924500D01*
X81658750Y-59924500D01*
X81637309Y-59923447D01*
X81616074Y-59920297D01*
X81595250Y-59915081D01*
X81575038Y-59907849D01*
X81555632Y-59898670D01*
X81537219Y-59887634D01*
X81519976Y-59874846D01*
X81504070Y-59860430D01*
X81489654Y-59844524D01*
X81476866Y-59827281D01*
X81465830Y-59808868D01*
X81456651Y-59789462D01*
X81449419Y-59769250D01*
X81444203Y-59748426D01*
X81441053Y-59727191D01*
X81440000Y-59705750D01*
X81440000Y-59268250D01*
X81441053Y-59246809D01*
X81444203Y-59225574D01*
X81449419Y-59204750D01*
X81456651Y-59184538D01*
X81465830Y-59165132D01*
X81476866Y-59146719D01*
X81489654Y-59129476D01*
X81504070Y-59113570D01*
X81519976Y-59099154D01*
X81537219Y-59086366D01*
X81555632Y-59075330D01*
X81575038Y-59066151D01*
X81595250Y-59058919D01*
X81616074Y-59053703D01*
X81637309Y-59050553D01*
X81658750Y-59049500D01*
X82171250Y-59049500D01*
X82192691Y-59050553D01*
G37*
G36*
X82192691Y-57475553D02*
G01*
X82213926Y-57478703D01*
X82234750Y-57483919D01*
X82254962Y-57491151D01*
X82274368Y-57500330D01*
X82292781Y-57511366D01*
X82310024Y-57524154D01*
X82325930Y-57538570D01*
X82340346Y-57554476D01*
X82353134Y-57571719D01*
X82364170Y-57590132D01*
X82373349Y-57609538D01*
X82380581Y-57629750D01*
X82385797Y-57650574D01*
X82388947Y-57671809D01*
X82390000Y-57693250D01*
X82390000Y-58130750D01*
X82388947Y-58152191D01*
X82385797Y-58173426D01*
X82380581Y-58194250D01*
X82373349Y-58214462D01*
X82364170Y-58233868D01*
X82353134Y-58252281D01*
X82340346Y-58269524D01*
X82325930Y-58285430D01*
X82310024Y-58299846D01*
X82292781Y-58312634D01*
X82274368Y-58323670D01*
X82254962Y-58332849D01*
X82234750Y-58340081D01*
X82213926Y-58345297D01*
X82192691Y-58348447D01*
X82171250Y-58349500D01*
X81658750Y-58349500D01*
X81637309Y-58348447D01*
X81616074Y-58345297D01*
X81595250Y-58340081D01*
X81575038Y-58332849D01*
X81555632Y-58323670D01*
X81537219Y-58312634D01*
X81519976Y-58299846D01*
X81504070Y-58285430D01*
X81489654Y-58269524D01*
X81476866Y-58252281D01*
X81465830Y-58233868D01*
X81456651Y-58214462D01*
X81449419Y-58194250D01*
X81444203Y-58173426D01*
X81441053Y-58152191D01*
X81440000Y-58130750D01*
X81440000Y-57693250D01*
X81441053Y-57671809D01*
X81444203Y-57650574D01*
X81449419Y-57629750D01*
X81456651Y-57609538D01*
X81465830Y-57590132D01*
X81476866Y-57571719D01*
X81489654Y-57554476D01*
X81504070Y-57538570D01*
X81519976Y-57524154D01*
X81537219Y-57511366D01*
X81555632Y-57500330D01*
X81575038Y-57491151D01*
X81595250Y-57483919D01*
X81616074Y-57478703D01*
X81637309Y-57475553D01*
X81658750Y-57474500D01*
X82171250Y-57474500D01*
X82192691Y-57475553D01*
G37*
D11*
X85775000Y-58152000D03*
X85775000Y-62752000D03*
X85775000Y-60452000D03*
D12*
X92075000Y-60452000D03*
D13*
X94751000Y-63840000D03*
X94751000Y-59690000D03*
X96901000Y-63840000D03*
X96901000Y-59690000D03*
D10*
G36*
X95312191Y-57311053D02*
G01*
X95333426Y-57314203D01*
X95354250Y-57319419D01*
X95374462Y-57326651D01*
X95393868Y-57335830D01*
X95412281Y-57346866D01*
X95429524Y-57359654D01*
X95445430Y-57374070D01*
X95459846Y-57389976D01*
X95472634Y-57407219D01*
X95483670Y-57425632D01*
X95492849Y-57445038D01*
X95500081Y-57465250D01*
X95505297Y-57486074D01*
X95508447Y-57507309D01*
X95509500Y-57528750D01*
X95509500Y-58041250D01*
X95508447Y-58062691D01*
X95505297Y-58083926D01*
X95500081Y-58104750D01*
X95492849Y-58124962D01*
X95483670Y-58144368D01*
X95472634Y-58162781D01*
X95459846Y-58180024D01*
X95445430Y-58195930D01*
X95429524Y-58210346D01*
X95412281Y-58223134D01*
X95393868Y-58234170D01*
X95374462Y-58243349D01*
X95354250Y-58250581D01*
X95333426Y-58255797D01*
X95312191Y-58258947D01*
X95290750Y-58260000D01*
X94853250Y-58260000D01*
X94831809Y-58258947D01*
X94810574Y-58255797D01*
X94789750Y-58250581D01*
X94769538Y-58243349D01*
X94750132Y-58234170D01*
X94731719Y-58223134D01*
X94714476Y-58210346D01*
X94698570Y-58195930D01*
X94684154Y-58180024D01*
X94671366Y-58162781D01*
X94660330Y-58144368D01*
X94651151Y-58124962D01*
X94643919Y-58104750D01*
X94638703Y-58083926D01*
X94635553Y-58062691D01*
X94634500Y-58041250D01*
X94634500Y-57528750D01*
X94635553Y-57507309D01*
X94638703Y-57486074D01*
X94643919Y-57465250D01*
X94651151Y-57445038D01*
X94660330Y-57425632D01*
X94671366Y-57407219D01*
X94684154Y-57389976D01*
X94698570Y-57374070D01*
X94714476Y-57359654D01*
X94731719Y-57346866D01*
X94750132Y-57335830D01*
X94769538Y-57326651D01*
X94789750Y-57319419D01*
X94810574Y-57314203D01*
X94831809Y-57311053D01*
X94853250Y-57310000D01*
X95290750Y-57310000D01*
X95312191Y-57311053D01*
G37*
G36*
X96887191Y-57311053D02*
G01*
X96908426Y-57314203D01*
X96929250Y-57319419D01*
X96949462Y-57326651D01*
X96968868Y-57335830D01*
X96987281Y-57346866D01*
X97004524Y-57359654D01*
X97020430Y-57374070D01*
X97034846Y-57389976D01*
X97047634Y-57407219D01*
X97058670Y-57425632D01*
X97067849Y-57445038D01*
X97075081Y-57465250D01*
X97080297Y-57486074D01*
X97083447Y-57507309D01*
X97084500Y-57528750D01*
X97084500Y-58041250D01*
X97083447Y-58062691D01*
X97080297Y-58083926D01*
X97075081Y-58104750D01*
X97067849Y-58124962D01*
X97058670Y-58144368D01*
X97047634Y-58162781D01*
X97034846Y-58180024D01*
X97020430Y-58195930D01*
X97004524Y-58210346D01*
X96987281Y-58223134D01*
X96968868Y-58234170D01*
X96949462Y-58243349D01*
X96929250Y-58250581D01*
X96908426Y-58255797D01*
X96887191Y-58258947D01*
X96865750Y-58260000D01*
X96428250Y-58260000D01*
X96406809Y-58258947D01*
X96385574Y-58255797D01*
X96364750Y-58250581D01*
X96344538Y-58243349D01*
X96325132Y-58234170D01*
X96306719Y-58223134D01*
X96289476Y-58210346D01*
X96273570Y-58195930D01*
X96259154Y-58180024D01*
X96246366Y-58162781D01*
X96235330Y-58144368D01*
X96226151Y-58124962D01*
X96218919Y-58104750D01*
X96213703Y-58083926D01*
X96210553Y-58062691D01*
X96209500Y-58041250D01*
X96209500Y-57528750D01*
X96210553Y-57507309D01*
X96213703Y-57486074D01*
X96218919Y-57465250D01*
X96226151Y-57445038D01*
X96235330Y-57425632D01*
X96246366Y-57407219D01*
X96259154Y-57389976D01*
X96273570Y-57374070D01*
X96289476Y-57359654D01*
X96306719Y-57346866D01*
X96325132Y-57335830D01*
X96344538Y-57326651D01*
X96364750Y-57319419D01*
X96385574Y-57314203D01*
X96406809Y-57311053D01*
X96428250Y-57310000D01*
X96865750Y-57310000D01*
X96887191Y-57311053D01*
G37*
G36*
X84187191Y-54771053D02*
G01*
X84208426Y-54774203D01*
X84229250Y-54779419D01*
X84249462Y-54786651D01*
X84268868Y-54795830D01*
X84287281Y-54806866D01*
X84304524Y-54819654D01*
X84320430Y-54834070D01*
X84334846Y-54849976D01*
X84347634Y-54867219D01*
X84358670Y-54885632D01*
X84367849Y-54905038D01*
X84375081Y-54925250D01*
X84380297Y-54946074D01*
X84383447Y-54967309D01*
X84384500Y-54988750D01*
X84384500Y-55501250D01*
X84383447Y-55522691D01*
X84380297Y-55543926D01*
X84375081Y-55564750D01*
X84367849Y-55584962D01*
X84358670Y-55604368D01*
X84347634Y-55622781D01*
X84334846Y-55640024D01*
X84320430Y-55655930D01*
X84304524Y-55670346D01*
X84287281Y-55683134D01*
X84268868Y-55694170D01*
X84249462Y-55703349D01*
X84229250Y-55710581D01*
X84208426Y-55715797D01*
X84187191Y-55718947D01*
X84165750Y-55720000D01*
X83728250Y-55720000D01*
X83706809Y-55718947D01*
X83685574Y-55715797D01*
X83664750Y-55710581D01*
X83644538Y-55703349D01*
X83625132Y-55694170D01*
X83606719Y-55683134D01*
X83589476Y-55670346D01*
X83573570Y-55655930D01*
X83559154Y-55640024D01*
X83546366Y-55622781D01*
X83535330Y-55604368D01*
X83526151Y-55584962D01*
X83518919Y-55564750D01*
X83513703Y-55543926D01*
X83510553Y-55522691D01*
X83509500Y-55501250D01*
X83509500Y-54988750D01*
X83510553Y-54967309D01*
X83513703Y-54946074D01*
X83518919Y-54925250D01*
X83526151Y-54905038D01*
X83535330Y-54885632D01*
X83546366Y-54867219D01*
X83559154Y-54849976D01*
X83573570Y-54834070D01*
X83589476Y-54819654D01*
X83606719Y-54806866D01*
X83625132Y-54795830D01*
X83644538Y-54786651D01*
X83664750Y-54779419D01*
X83685574Y-54774203D01*
X83706809Y-54771053D01*
X83728250Y-54770000D01*
X84165750Y-54770000D01*
X84187191Y-54771053D01*
G37*
G36*
X82612191Y-54771053D02*
G01*
X82633426Y-54774203D01*
X82654250Y-54779419D01*
X82674462Y-54786651D01*
X82693868Y-54795830D01*
X82712281Y-54806866D01*
X82729524Y-54819654D01*
X82745430Y-54834070D01*
X82759846Y-54849976D01*
X82772634Y-54867219D01*
X82783670Y-54885632D01*
X82792849Y-54905038D01*
X82800081Y-54925250D01*
X82805297Y-54946074D01*
X82808447Y-54967309D01*
X82809500Y-54988750D01*
X82809500Y-55501250D01*
X82808447Y-55522691D01*
X82805297Y-55543926D01*
X82800081Y-55564750D01*
X82792849Y-55584962D01*
X82783670Y-55604368D01*
X82772634Y-55622781D01*
X82759846Y-55640024D01*
X82745430Y-55655930D01*
X82729524Y-55670346D01*
X82712281Y-55683134D01*
X82693868Y-55694170D01*
X82674462Y-55703349D01*
X82654250Y-55710581D01*
X82633426Y-55715797D01*
X82612191Y-55718947D01*
X82590750Y-55720000D01*
X82153250Y-55720000D01*
X82131809Y-55718947D01*
X82110574Y-55715797D01*
X82089750Y-55710581D01*
X82069538Y-55703349D01*
X82050132Y-55694170D01*
X82031719Y-55683134D01*
X82014476Y-55670346D01*
X81998570Y-55655930D01*
X81984154Y-55640024D01*
X81971366Y-55622781D01*
X81960330Y-55604368D01*
X81951151Y-55584962D01*
X81943919Y-55564750D01*
X81938703Y-55543926D01*
X81935553Y-55522691D01*
X81934500Y-55501250D01*
X81934500Y-54988750D01*
X81935553Y-54967309D01*
X81938703Y-54946074D01*
X81943919Y-54925250D01*
X81951151Y-54905038D01*
X81960330Y-54885632D01*
X81971366Y-54867219D01*
X81984154Y-54849976D01*
X81998570Y-54834070D01*
X82014476Y-54819654D01*
X82031719Y-54806866D01*
X82050132Y-54795830D01*
X82069538Y-54786651D01*
X82089750Y-54779419D01*
X82110574Y-54774203D01*
X82131809Y-54771053D01*
X82153250Y-54770000D01*
X82590750Y-54770000D01*
X82612191Y-54771053D01*
G37*
G36*
X79906691Y-61260053D02*
G01*
X79927926Y-61263203D01*
X79948750Y-61268419D01*
X79968962Y-61275651D01*
X79988368Y-61284830D01*
X80006781Y-61295866D01*
X80024024Y-61308654D01*
X80039930Y-61323070D01*
X80054346Y-61338976D01*
X80067134Y-61356219D01*
X80078170Y-61374632D01*
X80087349Y-61394038D01*
X80094581Y-61414250D01*
X80099797Y-61435074D01*
X80102947Y-61456309D01*
X80104000Y-61477750D01*
X80104000Y-61915250D01*
X80102947Y-61936691D01*
X80099797Y-61957926D01*
X80094581Y-61978750D01*
X80087349Y-61998962D01*
X80078170Y-62018368D01*
X80067134Y-62036781D01*
X80054346Y-62054024D01*
X80039930Y-62069930D01*
X80024024Y-62084346D01*
X80006781Y-62097134D01*
X79988368Y-62108170D01*
X79968962Y-62117349D01*
X79948750Y-62124581D01*
X79927926Y-62129797D01*
X79906691Y-62132947D01*
X79885250Y-62134000D01*
X79372750Y-62134000D01*
X79351309Y-62132947D01*
X79330074Y-62129797D01*
X79309250Y-62124581D01*
X79289038Y-62117349D01*
X79269632Y-62108170D01*
X79251219Y-62097134D01*
X79233976Y-62084346D01*
X79218070Y-62069930D01*
X79203654Y-62054024D01*
X79190866Y-62036781D01*
X79179830Y-62018368D01*
X79170651Y-61998962D01*
X79163419Y-61978750D01*
X79158203Y-61957926D01*
X79155053Y-61936691D01*
X79154000Y-61915250D01*
X79154000Y-61477750D01*
X79155053Y-61456309D01*
X79158203Y-61435074D01*
X79163419Y-61414250D01*
X79170651Y-61394038D01*
X79179830Y-61374632D01*
X79190866Y-61356219D01*
X79203654Y-61338976D01*
X79218070Y-61323070D01*
X79233976Y-61308654D01*
X79251219Y-61295866D01*
X79269632Y-61284830D01*
X79289038Y-61275651D01*
X79309250Y-61268419D01*
X79330074Y-61263203D01*
X79351309Y-61260053D01*
X79372750Y-61259000D01*
X79885250Y-61259000D01*
X79906691Y-61260053D01*
G37*
G36*
X79906691Y-62835053D02*
G01*
X79927926Y-62838203D01*
X79948750Y-62843419D01*
X79968962Y-62850651D01*
X79988368Y-62859830D01*
X80006781Y-62870866D01*
X80024024Y-62883654D01*
X80039930Y-62898070D01*
X80054346Y-62913976D01*
X80067134Y-62931219D01*
X80078170Y-62949632D01*
X80087349Y-62969038D01*
X80094581Y-62989250D01*
X80099797Y-63010074D01*
X80102947Y-63031309D01*
X80104000Y-63052750D01*
X80104000Y-63490250D01*
X80102947Y-63511691D01*
X80099797Y-63532926D01*
X80094581Y-63553750D01*
X80087349Y-63573962D01*
X80078170Y-63593368D01*
X80067134Y-63611781D01*
X80054346Y-63629024D01*
X80039930Y-63644930D01*
X80024024Y-63659346D01*
X80006781Y-63672134D01*
X79988368Y-63683170D01*
X79968962Y-63692349D01*
X79948750Y-63699581D01*
X79927926Y-63704797D01*
X79906691Y-63707947D01*
X79885250Y-63709000D01*
X79372750Y-63709000D01*
X79351309Y-63707947D01*
X79330074Y-63704797D01*
X79309250Y-63699581D01*
X79289038Y-63692349D01*
X79269632Y-63683170D01*
X79251219Y-63672134D01*
X79233976Y-63659346D01*
X79218070Y-63644930D01*
X79203654Y-63629024D01*
X79190866Y-63611781D01*
X79179830Y-63593368D01*
X79170651Y-63573962D01*
X79163419Y-63553750D01*
X79158203Y-63532926D01*
X79155053Y-63511691D01*
X79154000Y-63490250D01*
X79154000Y-63052750D01*
X79155053Y-63031309D01*
X79158203Y-63010074D01*
X79163419Y-62989250D01*
X79170651Y-62969038D01*
X79179830Y-62949632D01*
X79190866Y-62931219D01*
X79203654Y-62913976D01*
X79218070Y-62898070D01*
X79233976Y-62883654D01*
X79251219Y-62870866D01*
X79269632Y-62859830D01*
X79289038Y-62850651D01*
X79309250Y-62843419D01*
X79330074Y-62838203D01*
X79351309Y-62835053D01*
X79372750Y-62834000D01*
X79885250Y-62834000D01*
X79906691Y-62835053D01*
G37*
G36*
X79906691Y-57475553D02*
G01*
X79927926Y-57478703D01*
X79948750Y-57483919D01*
X79968962Y-57491151D01*
X79988368Y-57500330D01*
X80006781Y-57511366D01*
X80024024Y-57524154D01*
X80039930Y-57538570D01*
X80054346Y-57554476D01*
X80067134Y-57571719D01*
X80078170Y-57590132D01*
X80087349Y-57609538D01*
X80094581Y-57629750D01*
X80099797Y-57650574D01*
X80102947Y-57671809D01*
X80104000Y-57693250D01*
X80104000Y-58130750D01*
X80102947Y-58152191D01*
X80099797Y-58173426D01*
X80094581Y-58194250D01*
X80087349Y-58214462D01*
X80078170Y-58233868D01*
X80067134Y-58252281D01*
X80054346Y-58269524D01*
X80039930Y-58285430D01*
X80024024Y-58299846D01*
X80006781Y-58312634D01*
X79988368Y-58323670D01*
X79968962Y-58332849D01*
X79948750Y-58340081D01*
X79927926Y-58345297D01*
X79906691Y-58348447D01*
X79885250Y-58349500D01*
X79372750Y-58349500D01*
X79351309Y-58348447D01*
X79330074Y-58345297D01*
X79309250Y-58340081D01*
X79289038Y-58332849D01*
X79269632Y-58323670D01*
X79251219Y-58312634D01*
X79233976Y-58299846D01*
X79218070Y-58285430D01*
X79203654Y-58269524D01*
X79190866Y-58252281D01*
X79179830Y-58233868D01*
X79170651Y-58214462D01*
X79163419Y-58194250D01*
X79158203Y-58173426D01*
X79155053Y-58152191D01*
X79154000Y-58130750D01*
X79154000Y-57693250D01*
X79155053Y-57671809D01*
X79158203Y-57650574D01*
X79163419Y-57629750D01*
X79170651Y-57609538D01*
X79179830Y-57590132D01*
X79190866Y-57571719D01*
X79203654Y-57554476D01*
X79218070Y-57538570D01*
X79233976Y-57524154D01*
X79251219Y-57511366D01*
X79269632Y-57500330D01*
X79289038Y-57491151D01*
X79309250Y-57483919D01*
X79330074Y-57478703D01*
X79351309Y-57475553D01*
X79372750Y-57474500D01*
X79885250Y-57474500D01*
X79906691Y-57475553D01*
G37*
G36*
X79906691Y-59050553D02*
G01*
X79927926Y-59053703D01*
X79948750Y-59058919D01*
X79968962Y-59066151D01*
X79988368Y-59075330D01*
X80006781Y-59086366D01*
X80024024Y-59099154D01*
X80039930Y-59113570D01*
X80054346Y-59129476D01*
X80067134Y-59146719D01*
X80078170Y-59165132D01*
X80087349Y-59184538D01*
X80094581Y-59204750D01*
X80099797Y-59225574D01*
X80102947Y-59246809D01*
X80104000Y-59268250D01*
X80104000Y-59705750D01*
X80102947Y-59727191D01*
X80099797Y-59748426D01*
X80094581Y-59769250D01*
X80087349Y-59789462D01*
X80078170Y-59808868D01*
X80067134Y-59827281D01*
X80054346Y-59844524D01*
X80039930Y-59860430D01*
X80024024Y-59874846D01*
X80006781Y-59887634D01*
X79988368Y-59898670D01*
X79968962Y-59907849D01*
X79948750Y-59915081D01*
X79927926Y-59920297D01*
X79906691Y-59923447D01*
X79885250Y-59924500D01*
X79372750Y-59924500D01*
X79351309Y-59923447D01*
X79330074Y-59920297D01*
X79309250Y-59915081D01*
X79289038Y-59907849D01*
X79269632Y-59898670D01*
X79251219Y-59887634D01*
X79233976Y-59874846D01*
X79218070Y-59860430D01*
X79203654Y-59844524D01*
X79190866Y-59827281D01*
X79179830Y-59808868D01*
X79170651Y-59789462D01*
X79163419Y-59769250D01*
X79158203Y-59748426D01*
X79155053Y-59727191D01*
X79154000Y-59705750D01*
X79154000Y-59268250D01*
X79155053Y-59246809D01*
X79158203Y-59225574D01*
X79163419Y-59204750D01*
X79170651Y-59184538D01*
X79179830Y-59165132D01*
X79190866Y-59146719D01*
X79203654Y-59129476D01*
X79218070Y-59113570D01*
X79233976Y-59099154D01*
X79251219Y-59086366D01*
X79269632Y-59075330D01*
X79289038Y-59066151D01*
X79309250Y-59058919D01*
X79330074Y-59053703D01*
X79351309Y-59050553D01*
X79372750Y-59049500D01*
X79885250Y-59049500D01*
X79906691Y-59050553D01*
G37*
G36*
X89927691Y-67816053D02*
G01*
X89948926Y-67819203D01*
X89969750Y-67824419D01*
X89989962Y-67831651D01*
X90009368Y-67840830D01*
X90027781Y-67851866D01*
X90045024Y-67864654D01*
X90060930Y-67879070D01*
X90075346Y-67894976D01*
X90088134Y-67912219D01*
X90099170Y-67930632D01*
X90108349Y-67950038D01*
X90115581Y-67970250D01*
X90120797Y-67991074D01*
X90123947Y-68012309D01*
X90125000Y-68033750D01*
X90125000Y-68546250D01*
X90123947Y-68567691D01*
X90120797Y-68588926D01*
X90115581Y-68609750D01*
X90108349Y-68629962D01*
X90099170Y-68649368D01*
X90088134Y-68667781D01*
X90075346Y-68685024D01*
X90060930Y-68700930D01*
X90045024Y-68715346D01*
X90027781Y-68728134D01*
X90009368Y-68739170D01*
X89989962Y-68748349D01*
X89969750Y-68755581D01*
X89948926Y-68760797D01*
X89927691Y-68763947D01*
X89906250Y-68765000D01*
X89468750Y-68765000D01*
X89447309Y-68763947D01*
X89426074Y-68760797D01*
X89405250Y-68755581D01*
X89385038Y-68748349D01*
X89365632Y-68739170D01*
X89347219Y-68728134D01*
X89329976Y-68715346D01*
X89314070Y-68700930D01*
X89299654Y-68685024D01*
X89286866Y-68667781D01*
X89275830Y-68649368D01*
X89266651Y-68629962D01*
X89259419Y-68609750D01*
X89254203Y-68588926D01*
X89251053Y-68567691D01*
X89250000Y-68546250D01*
X89250000Y-68033750D01*
X89251053Y-68012309D01*
X89254203Y-67991074D01*
X89259419Y-67970250D01*
X89266651Y-67950038D01*
X89275830Y-67930632D01*
X89286866Y-67912219D01*
X89299654Y-67894976D01*
X89314070Y-67879070D01*
X89329976Y-67864654D01*
X89347219Y-67851866D01*
X89365632Y-67840830D01*
X89385038Y-67831651D01*
X89405250Y-67824419D01*
X89426074Y-67819203D01*
X89447309Y-67816053D01*
X89468750Y-67815000D01*
X89906250Y-67815000D01*
X89927691Y-67816053D01*
G37*
G36*
X88352691Y-67816053D02*
G01*
X88373926Y-67819203D01*
X88394750Y-67824419D01*
X88414962Y-67831651D01*
X88434368Y-67840830D01*
X88452781Y-67851866D01*
X88470024Y-67864654D01*
X88485930Y-67879070D01*
X88500346Y-67894976D01*
X88513134Y-67912219D01*
X88524170Y-67930632D01*
X88533349Y-67950038D01*
X88540581Y-67970250D01*
X88545797Y-67991074D01*
X88548947Y-68012309D01*
X88550000Y-68033750D01*
X88550000Y-68546250D01*
X88548947Y-68567691D01*
X88545797Y-68588926D01*
X88540581Y-68609750D01*
X88533349Y-68629962D01*
X88524170Y-68649368D01*
X88513134Y-68667781D01*
X88500346Y-68685024D01*
X88485930Y-68700930D01*
X88470024Y-68715346D01*
X88452781Y-68728134D01*
X88434368Y-68739170D01*
X88414962Y-68748349D01*
X88394750Y-68755581D01*
X88373926Y-68760797D01*
X88352691Y-68763947D01*
X88331250Y-68765000D01*
X87893750Y-68765000D01*
X87872309Y-68763947D01*
X87851074Y-68760797D01*
X87830250Y-68755581D01*
X87810038Y-68748349D01*
X87790632Y-68739170D01*
X87772219Y-68728134D01*
X87754976Y-68715346D01*
X87739070Y-68700930D01*
X87724654Y-68685024D01*
X87711866Y-68667781D01*
X87700830Y-68649368D01*
X87691651Y-68629962D01*
X87684419Y-68609750D01*
X87679203Y-68588926D01*
X87676053Y-68567691D01*
X87675000Y-68546250D01*
X87675000Y-68033750D01*
X87676053Y-68012309D01*
X87679203Y-67991074D01*
X87684419Y-67970250D01*
X87691651Y-67950038D01*
X87700830Y-67930632D01*
X87711866Y-67912219D01*
X87724654Y-67894976D01*
X87739070Y-67879070D01*
X87754976Y-67864654D01*
X87772219Y-67851866D01*
X87790632Y-67840830D01*
X87810038Y-67831651D01*
X87830250Y-67824419D01*
X87851074Y-67819203D01*
X87872309Y-67816053D01*
X87893750Y-67815000D01*
X88331250Y-67815000D01*
X88352691Y-67816053D01*
G37*
G36*
X93950191Y-67816053D02*
G01*
X93971426Y-67819203D01*
X93992250Y-67824419D01*
X94012462Y-67831651D01*
X94031868Y-67840830D01*
X94050281Y-67851866D01*
X94067524Y-67864654D01*
X94083430Y-67879070D01*
X94097846Y-67894976D01*
X94110634Y-67912219D01*
X94121670Y-67930632D01*
X94130849Y-67950038D01*
X94138081Y-67970250D01*
X94143297Y-67991074D01*
X94146447Y-68012309D01*
X94147500Y-68033750D01*
X94147500Y-68546250D01*
X94146447Y-68567691D01*
X94143297Y-68588926D01*
X94138081Y-68609750D01*
X94130849Y-68629962D01*
X94121670Y-68649368D01*
X94110634Y-68667781D01*
X94097846Y-68685024D01*
X94083430Y-68700930D01*
X94067524Y-68715346D01*
X94050281Y-68728134D01*
X94031868Y-68739170D01*
X94012462Y-68748349D01*
X93992250Y-68755581D01*
X93971426Y-68760797D01*
X93950191Y-68763947D01*
X93928750Y-68765000D01*
X93491250Y-68765000D01*
X93469809Y-68763947D01*
X93448574Y-68760797D01*
X93427750Y-68755581D01*
X93407538Y-68748349D01*
X93388132Y-68739170D01*
X93369719Y-68728134D01*
X93352476Y-68715346D01*
X93336570Y-68700930D01*
X93322154Y-68685024D01*
X93309366Y-68667781D01*
X93298330Y-68649368D01*
X93289151Y-68629962D01*
X93281919Y-68609750D01*
X93276703Y-68588926D01*
X93273553Y-68567691D01*
X93272500Y-68546250D01*
X93272500Y-68033750D01*
X93273553Y-68012309D01*
X93276703Y-67991074D01*
X93281919Y-67970250D01*
X93289151Y-67950038D01*
X93298330Y-67930632D01*
X93309366Y-67912219D01*
X93322154Y-67894976D01*
X93336570Y-67879070D01*
X93352476Y-67864654D01*
X93369719Y-67851866D01*
X93388132Y-67840830D01*
X93407538Y-67831651D01*
X93427750Y-67824419D01*
X93448574Y-67819203D01*
X93469809Y-67816053D01*
X93491250Y-67815000D01*
X93928750Y-67815000D01*
X93950191Y-67816053D01*
G37*
G36*
X92375191Y-67816053D02*
G01*
X92396426Y-67819203D01*
X92417250Y-67824419D01*
X92437462Y-67831651D01*
X92456868Y-67840830D01*
X92475281Y-67851866D01*
X92492524Y-67864654D01*
X92508430Y-67879070D01*
X92522846Y-67894976D01*
X92535634Y-67912219D01*
X92546670Y-67930632D01*
X92555849Y-67950038D01*
X92563081Y-67970250D01*
X92568297Y-67991074D01*
X92571447Y-68012309D01*
X92572500Y-68033750D01*
X92572500Y-68546250D01*
X92571447Y-68567691D01*
X92568297Y-68588926D01*
X92563081Y-68609750D01*
X92555849Y-68629962D01*
X92546670Y-68649368D01*
X92535634Y-68667781D01*
X92522846Y-68685024D01*
X92508430Y-68700930D01*
X92492524Y-68715346D01*
X92475281Y-68728134D01*
X92456868Y-68739170D01*
X92437462Y-68748349D01*
X92417250Y-68755581D01*
X92396426Y-68760797D01*
X92375191Y-68763947D01*
X92353750Y-68765000D01*
X91916250Y-68765000D01*
X91894809Y-68763947D01*
X91873574Y-68760797D01*
X91852750Y-68755581D01*
X91832538Y-68748349D01*
X91813132Y-68739170D01*
X91794719Y-68728134D01*
X91777476Y-68715346D01*
X91761570Y-68700930D01*
X91747154Y-68685024D01*
X91734366Y-68667781D01*
X91723330Y-68649368D01*
X91714151Y-68629962D01*
X91706919Y-68609750D01*
X91701703Y-68588926D01*
X91698553Y-68567691D01*
X91697500Y-68546250D01*
X91697500Y-68033750D01*
X91698553Y-68012309D01*
X91701703Y-67991074D01*
X91706919Y-67970250D01*
X91714151Y-67950038D01*
X91723330Y-67930632D01*
X91734366Y-67912219D01*
X91747154Y-67894976D01*
X91761570Y-67879070D01*
X91777476Y-67864654D01*
X91794719Y-67851866D01*
X91813132Y-67840830D01*
X91832538Y-67831651D01*
X91852750Y-67824419D01*
X91873574Y-67819203D01*
X91894809Y-67816053D01*
X91916250Y-67815000D01*
X92353750Y-67815000D01*
X92375191Y-67816053D01*
G37*
G36*
X97927691Y-67816053D02*
G01*
X97948926Y-67819203D01*
X97969750Y-67824419D01*
X97989962Y-67831651D01*
X98009368Y-67840830D01*
X98027781Y-67851866D01*
X98045024Y-67864654D01*
X98060930Y-67879070D01*
X98075346Y-67894976D01*
X98088134Y-67912219D01*
X98099170Y-67930632D01*
X98108349Y-67950038D01*
X98115581Y-67970250D01*
X98120797Y-67991074D01*
X98123947Y-68012309D01*
X98125000Y-68033750D01*
X98125000Y-68546250D01*
X98123947Y-68567691D01*
X98120797Y-68588926D01*
X98115581Y-68609750D01*
X98108349Y-68629962D01*
X98099170Y-68649368D01*
X98088134Y-68667781D01*
X98075346Y-68685024D01*
X98060930Y-68700930D01*
X98045024Y-68715346D01*
X98027781Y-68728134D01*
X98009368Y-68739170D01*
X97989962Y-68748349D01*
X97969750Y-68755581D01*
X97948926Y-68760797D01*
X97927691Y-68763947D01*
X97906250Y-68765000D01*
X97468750Y-68765000D01*
X97447309Y-68763947D01*
X97426074Y-68760797D01*
X97405250Y-68755581D01*
X97385038Y-68748349D01*
X97365632Y-68739170D01*
X97347219Y-68728134D01*
X97329976Y-68715346D01*
X97314070Y-68700930D01*
X97299654Y-68685024D01*
X97286866Y-68667781D01*
X97275830Y-68649368D01*
X97266651Y-68629962D01*
X97259419Y-68609750D01*
X97254203Y-68588926D01*
X97251053Y-68567691D01*
X97250000Y-68546250D01*
X97250000Y-68033750D01*
X97251053Y-68012309D01*
X97254203Y-67991074D01*
X97259419Y-67970250D01*
X97266651Y-67950038D01*
X97275830Y-67930632D01*
X97286866Y-67912219D01*
X97299654Y-67894976D01*
X97314070Y-67879070D01*
X97329976Y-67864654D01*
X97347219Y-67851866D01*
X97365632Y-67840830D01*
X97385038Y-67831651D01*
X97405250Y-67824419D01*
X97426074Y-67819203D01*
X97447309Y-67816053D01*
X97468750Y-67815000D01*
X97906250Y-67815000D01*
X97927691Y-67816053D01*
G37*
G36*
X96352691Y-67816053D02*
G01*
X96373926Y-67819203D01*
X96394750Y-67824419D01*
X96414962Y-67831651D01*
X96434368Y-67840830D01*
X96452781Y-67851866D01*
X96470024Y-67864654D01*
X96485930Y-67879070D01*
X96500346Y-67894976D01*
X96513134Y-67912219D01*
X96524170Y-67930632D01*
X96533349Y-67950038D01*
X96540581Y-67970250D01*
X96545797Y-67991074D01*
X96548947Y-68012309D01*
X96550000Y-68033750D01*
X96550000Y-68546250D01*
X96548947Y-68567691D01*
X96545797Y-68588926D01*
X96540581Y-68609750D01*
X96533349Y-68629962D01*
X96524170Y-68649368D01*
X96513134Y-68667781D01*
X96500346Y-68685024D01*
X96485930Y-68700930D01*
X96470024Y-68715346D01*
X96452781Y-68728134D01*
X96434368Y-68739170D01*
X96414962Y-68748349D01*
X96394750Y-68755581D01*
X96373926Y-68760797D01*
X96352691Y-68763947D01*
X96331250Y-68765000D01*
X95893750Y-68765000D01*
X95872309Y-68763947D01*
X95851074Y-68760797D01*
X95830250Y-68755581D01*
X95810038Y-68748349D01*
X95790632Y-68739170D01*
X95772219Y-68728134D01*
X95754976Y-68715346D01*
X95739070Y-68700930D01*
X95724654Y-68685024D01*
X95711866Y-68667781D01*
X95700830Y-68649368D01*
X95691651Y-68629962D01*
X95684419Y-68609750D01*
X95679203Y-68588926D01*
X95676053Y-68567691D01*
X95675000Y-68546250D01*
X95675000Y-68033750D01*
X95676053Y-68012309D01*
X95679203Y-67991074D01*
X95684419Y-67970250D01*
X95691651Y-67950038D01*
X95700830Y-67930632D01*
X95711866Y-67912219D01*
X95724654Y-67894976D01*
X95739070Y-67879070D01*
X95754976Y-67864654D01*
X95772219Y-67851866D01*
X95790632Y-67840830D01*
X95810038Y-67831651D01*
X95830250Y-67824419D01*
X95851074Y-67819203D01*
X95872309Y-67816053D01*
X95893750Y-67815000D01*
X96331250Y-67815000D01*
X96352691Y-67816053D01*
G37*
G36*
X101727691Y-67816053D02*
G01*
X101748926Y-67819203D01*
X101769750Y-67824419D01*
X101789962Y-67831651D01*
X101809368Y-67840830D01*
X101827781Y-67851866D01*
X101845024Y-67864654D01*
X101860930Y-67879070D01*
X101875346Y-67894976D01*
X101888134Y-67912219D01*
X101899170Y-67930632D01*
X101908349Y-67950038D01*
X101915581Y-67970250D01*
X101920797Y-67991074D01*
X101923947Y-68012309D01*
X101925000Y-68033750D01*
X101925000Y-68546250D01*
X101923947Y-68567691D01*
X101920797Y-68588926D01*
X101915581Y-68609750D01*
X101908349Y-68629962D01*
X101899170Y-68649368D01*
X101888134Y-68667781D01*
X101875346Y-68685024D01*
X101860930Y-68700930D01*
X101845024Y-68715346D01*
X101827781Y-68728134D01*
X101809368Y-68739170D01*
X101789962Y-68748349D01*
X101769750Y-68755581D01*
X101748926Y-68760797D01*
X101727691Y-68763947D01*
X101706250Y-68765000D01*
X101268750Y-68765000D01*
X101247309Y-68763947D01*
X101226074Y-68760797D01*
X101205250Y-68755581D01*
X101185038Y-68748349D01*
X101165632Y-68739170D01*
X101147219Y-68728134D01*
X101129976Y-68715346D01*
X101114070Y-68700930D01*
X101099654Y-68685024D01*
X101086866Y-68667781D01*
X101075830Y-68649368D01*
X101066651Y-68629962D01*
X101059419Y-68609750D01*
X101054203Y-68588926D01*
X101051053Y-68567691D01*
X101050000Y-68546250D01*
X101050000Y-68033750D01*
X101051053Y-68012309D01*
X101054203Y-67991074D01*
X101059419Y-67970250D01*
X101066651Y-67950038D01*
X101075830Y-67930632D01*
X101086866Y-67912219D01*
X101099654Y-67894976D01*
X101114070Y-67879070D01*
X101129976Y-67864654D01*
X101147219Y-67851866D01*
X101165632Y-67840830D01*
X101185038Y-67831651D01*
X101205250Y-67824419D01*
X101226074Y-67819203D01*
X101247309Y-67816053D01*
X101268750Y-67815000D01*
X101706250Y-67815000D01*
X101727691Y-67816053D01*
G37*
G36*
X100152691Y-67816053D02*
G01*
X100173926Y-67819203D01*
X100194750Y-67824419D01*
X100214962Y-67831651D01*
X100234368Y-67840830D01*
X100252781Y-67851866D01*
X100270024Y-67864654D01*
X100285930Y-67879070D01*
X100300346Y-67894976D01*
X100313134Y-67912219D01*
X100324170Y-67930632D01*
X100333349Y-67950038D01*
X100340581Y-67970250D01*
X100345797Y-67991074D01*
X100348947Y-68012309D01*
X100350000Y-68033750D01*
X100350000Y-68546250D01*
X100348947Y-68567691D01*
X100345797Y-68588926D01*
X100340581Y-68609750D01*
X100333349Y-68629962D01*
X100324170Y-68649368D01*
X100313134Y-68667781D01*
X100300346Y-68685024D01*
X100285930Y-68700930D01*
X100270024Y-68715346D01*
X100252781Y-68728134D01*
X100234368Y-68739170D01*
X100214962Y-68748349D01*
X100194750Y-68755581D01*
X100173926Y-68760797D01*
X100152691Y-68763947D01*
X100131250Y-68765000D01*
X99693750Y-68765000D01*
X99672309Y-68763947D01*
X99651074Y-68760797D01*
X99630250Y-68755581D01*
X99610038Y-68748349D01*
X99590632Y-68739170D01*
X99572219Y-68728134D01*
X99554976Y-68715346D01*
X99539070Y-68700930D01*
X99524654Y-68685024D01*
X99511866Y-68667781D01*
X99500830Y-68649368D01*
X99491651Y-68629962D01*
X99484419Y-68609750D01*
X99479203Y-68588926D01*
X99476053Y-68567691D01*
X99475000Y-68546250D01*
X99475000Y-68033750D01*
X99476053Y-68012309D01*
X99479203Y-67991074D01*
X99484419Y-67970250D01*
X99491651Y-67950038D01*
X99500830Y-67930632D01*
X99511866Y-67912219D01*
X99524654Y-67894976D01*
X99539070Y-67879070D01*
X99554976Y-67864654D01*
X99572219Y-67851866D01*
X99590632Y-67840830D01*
X99610038Y-67831651D01*
X99630250Y-67824419D01*
X99651074Y-67819203D01*
X99672309Y-67816053D01*
X99693750Y-67815000D01*
X100131250Y-67815000D01*
X100152691Y-67816053D01*
G37*
D14*
X88934000Y-72322000D03*
X87984000Y-70322000D03*
X89884000Y-70322000D03*
X92948000Y-72338000D03*
X91998000Y-70338000D03*
X93898000Y-70338000D03*
X97028000Y-72338000D03*
X96078000Y-70338000D03*
X97978000Y-70338000D03*
X100854000Y-72338000D03*
X99904000Y-70338000D03*
X101804000Y-70338000D03*
D10*
G36*
X80532504Y-51570204D02*
G01*
X80556773Y-51573804D01*
X80580571Y-51579765D01*
X80603671Y-51588030D01*
X80625849Y-51598520D01*
X80646893Y-51611133D01*
X80666598Y-51625747D01*
X80684777Y-51642223D01*
X80701253Y-51660402D01*
X80715867Y-51680107D01*
X80728480Y-51701151D01*
X80738970Y-51723329D01*
X80747235Y-51746429D01*
X80753196Y-51770227D01*
X80756796Y-51794496D01*
X80758000Y-51819000D01*
X80758000Y-52569000D01*
X80756796Y-52593504D01*
X80753196Y-52617773D01*
X80747235Y-52641571D01*
X80738970Y-52664671D01*
X80728480Y-52686849D01*
X80715867Y-52707893D01*
X80701253Y-52727598D01*
X80684777Y-52745777D01*
X80666598Y-52762253D01*
X80646893Y-52776867D01*
X80625849Y-52789480D01*
X80603671Y-52799970D01*
X80580571Y-52808235D01*
X80556773Y-52814196D01*
X80532504Y-52817796D01*
X80508000Y-52819000D01*
X79258000Y-52819000D01*
X79233496Y-52817796D01*
X79209227Y-52814196D01*
X79185429Y-52808235D01*
X79162329Y-52799970D01*
X79140151Y-52789480D01*
X79119107Y-52776867D01*
X79099402Y-52762253D01*
X79081223Y-52745777D01*
X79064747Y-52727598D01*
X79050133Y-52707893D01*
X79037520Y-52686849D01*
X79027030Y-52664671D01*
X79018765Y-52641571D01*
X79012804Y-52617773D01*
X79009204Y-52593504D01*
X79008000Y-52569000D01*
X79008000Y-51819000D01*
X79009204Y-51794496D01*
X79012804Y-51770227D01*
X79018765Y-51746429D01*
X79027030Y-51723329D01*
X79037520Y-51701151D01*
X79050133Y-51680107D01*
X79064747Y-51660402D01*
X79081223Y-51642223D01*
X79099402Y-51625747D01*
X79119107Y-51611133D01*
X79140151Y-51598520D01*
X79162329Y-51588030D01*
X79185429Y-51579765D01*
X79209227Y-51573804D01*
X79233496Y-51570204D01*
X79258000Y-51569000D01*
X80508000Y-51569000D01*
X80532504Y-51570204D01*
G37*
G36*
X80532504Y-54370204D02*
G01*
X80556773Y-54373804D01*
X80580571Y-54379765D01*
X80603671Y-54388030D01*
X80625849Y-54398520D01*
X80646893Y-54411133D01*
X80666598Y-54425747D01*
X80684777Y-54442223D01*
X80701253Y-54460402D01*
X80715867Y-54480107D01*
X80728480Y-54501151D01*
X80738970Y-54523329D01*
X80747235Y-54546429D01*
X80753196Y-54570227D01*
X80756796Y-54594496D01*
X80758000Y-54619000D01*
X80758000Y-55369000D01*
X80756796Y-55393504D01*
X80753196Y-55417773D01*
X80747235Y-55441571D01*
X80738970Y-55464671D01*
X80728480Y-55486849D01*
X80715867Y-55507893D01*
X80701253Y-55527598D01*
X80684777Y-55545777D01*
X80666598Y-55562253D01*
X80646893Y-55576867D01*
X80625849Y-55589480D01*
X80603671Y-55599970D01*
X80580571Y-55608235D01*
X80556773Y-55614196D01*
X80532504Y-55617796D01*
X80508000Y-55619000D01*
X79258000Y-55619000D01*
X79233496Y-55617796D01*
X79209227Y-55614196D01*
X79185429Y-55608235D01*
X79162329Y-55599970D01*
X79140151Y-55589480D01*
X79119107Y-55576867D01*
X79099402Y-55562253D01*
X79081223Y-55545777D01*
X79064747Y-55527598D01*
X79050133Y-55507893D01*
X79037520Y-55486849D01*
X79027030Y-55464671D01*
X79018765Y-55441571D01*
X79012804Y-55417773D01*
X79009204Y-55393504D01*
X79008000Y-55369000D01*
X79008000Y-54619000D01*
X79009204Y-54594496D01*
X79012804Y-54570227D01*
X79018765Y-54546429D01*
X79027030Y-54523329D01*
X79037520Y-54501151D01*
X79050133Y-54480107D01*
X79064747Y-54460402D01*
X79081223Y-54442223D01*
X79099402Y-54425747D01*
X79119107Y-54411133D01*
X79140151Y-54398520D01*
X79162329Y-54388030D01*
X79185429Y-54379765D01*
X79209227Y-54373804D01*
X79233496Y-54370204D01*
X79258000Y-54369000D01*
X80508000Y-54369000D01*
X80532504Y-54370204D01*
G37*
G36*
X82192691Y-61234553D02*
G01*
X82213926Y-61237703D01*
X82234750Y-61242919D01*
X82254962Y-61250151D01*
X82274368Y-61259330D01*
X82292781Y-61270366D01*
X82310024Y-61283154D01*
X82325930Y-61297570D01*
X82340346Y-61313476D01*
X82353134Y-61330719D01*
X82364170Y-61349132D01*
X82373349Y-61368538D01*
X82380581Y-61388750D01*
X82385797Y-61409574D01*
X82388947Y-61430809D01*
X82390000Y-61452250D01*
X82390000Y-61889750D01*
X82388947Y-61911191D01*
X82385797Y-61932426D01*
X82380581Y-61953250D01*
X82373349Y-61973462D01*
X82364170Y-61992868D01*
X82353134Y-62011281D01*
X82340346Y-62028524D01*
X82325930Y-62044430D01*
X82310024Y-62058846D01*
X82292781Y-62071634D01*
X82274368Y-62082670D01*
X82254962Y-62091849D01*
X82234750Y-62099081D01*
X82213926Y-62104297D01*
X82192691Y-62107447D01*
X82171250Y-62108500D01*
X81658750Y-62108500D01*
X81637309Y-62107447D01*
X81616074Y-62104297D01*
X81595250Y-62099081D01*
X81575038Y-62091849D01*
X81555632Y-62082670D01*
X81537219Y-62071634D01*
X81519976Y-62058846D01*
X81504070Y-62044430D01*
X81489654Y-62028524D01*
X81476866Y-62011281D01*
X81465830Y-61992868D01*
X81456651Y-61973462D01*
X81449419Y-61953250D01*
X81444203Y-61932426D01*
X81441053Y-61911191D01*
X81440000Y-61889750D01*
X81440000Y-61452250D01*
X81441053Y-61430809D01*
X81444203Y-61409574D01*
X81449419Y-61388750D01*
X81456651Y-61368538D01*
X81465830Y-61349132D01*
X81476866Y-61330719D01*
X81489654Y-61313476D01*
X81504070Y-61297570D01*
X81519976Y-61283154D01*
X81537219Y-61270366D01*
X81555632Y-61259330D01*
X81575038Y-61250151D01*
X81595250Y-61242919D01*
X81616074Y-61237703D01*
X81637309Y-61234553D01*
X81658750Y-61233500D01*
X82171250Y-61233500D01*
X82192691Y-61234553D01*
G37*
G36*
X82192691Y-62809553D02*
G01*
X82213926Y-62812703D01*
X82234750Y-62817919D01*
X82254962Y-62825151D01*
X82274368Y-62834330D01*
X82292781Y-62845366D01*
X82310024Y-62858154D01*
X82325930Y-62872570D01*
X82340346Y-62888476D01*
X82353134Y-62905719D01*
X82364170Y-62924132D01*
X82373349Y-62943538D01*
X82380581Y-62963750D01*
X82385797Y-62984574D01*
X82388947Y-63005809D01*
X82390000Y-63027250D01*
X82390000Y-63464750D01*
X82388947Y-63486191D01*
X82385797Y-63507426D01*
X82380581Y-63528250D01*
X82373349Y-63548462D01*
X82364170Y-63567868D01*
X82353134Y-63586281D01*
X82340346Y-63603524D01*
X82325930Y-63619430D01*
X82310024Y-63633846D01*
X82292781Y-63646634D01*
X82274368Y-63657670D01*
X82254962Y-63666849D01*
X82234750Y-63674081D01*
X82213926Y-63679297D01*
X82192691Y-63682447D01*
X82171250Y-63683500D01*
X81658750Y-63683500D01*
X81637309Y-63682447D01*
X81616074Y-63679297D01*
X81595250Y-63674081D01*
X81575038Y-63666849D01*
X81555632Y-63657670D01*
X81537219Y-63646634D01*
X81519976Y-63633846D01*
X81504070Y-63619430D01*
X81489654Y-63603524D01*
X81476866Y-63586281D01*
X81465830Y-63567868D01*
X81456651Y-63548462D01*
X81449419Y-63528250D01*
X81444203Y-63507426D01*
X81441053Y-63486191D01*
X81440000Y-63464750D01*
X81440000Y-63027250D01*
X81441053Y-63005809D01*
X81444203Y-62984574D01*
X81449419Y-62963750D01*
X81456651Y-62943538D01*
X81465830Y-62924132D01*
X81476866Y-62905719D01*
X81489654Y-62888476D01*
X81504070Y-62872570D01*
X81519976Y-62858154D01*
X81537219Y-62845366D01*
X81555632Y-62834330D01*
X81575038Y-62825151D01*
X81595250Y-62817919D01*
X81616074Y-62812703D01*
X81637309Y-62809553D01*
X81658750Y-62808500D01*
X82171250Y-62808500D01*
X82192691Y-62809553D01*
G37*
M02*
